<?xml version="1.0" standalone="no"?>
<!DOCTYPE svg PUBLIC "-//W3C//DTD SVG 1.1//EN" "http://www.w3.org/Graphics/SVG/1.1/DTD/svg11.dtd" >
<svg xmlns="http://www.w3.org/2000/svg" xmlns:xlink="http://www.w3.org/1999/xlink" version="1.1">
<metadata>
Created by FontForge 20190801 at Fri Jun  5 11:37:00 2015
 By root
Copyright (c) 2015 by Jonathan Hill. All rights reserved.
</metadata>
<defs>
<font id="Halcom-Bold" horiz-adv-x="856" >
  <font-face 
    font-family="Halcom Bold"
    font-weight="700"
    font-stretch="normal"
    units-per-em="1000"
    panose-1="0 0 8 0 0 0 0 0 0 0"
    ascent="750"
    descent="-250"
    x-height="499.999"
    cap-height="700"
    bbox="-81.0205 -308.041 1367.55 1155.32"
    underline-thickness="50"
    underline-position="-100"
    stemh="123"
    stemv="149"
    unicode-range="U+0020-FB02"
  />
<missing-glyph horiz-adv-x="500" 
d="M0 0v700h500v-700h-500zM250 395l170 255h-340zM280 350l170 -255v510zM80 50h340l-170 255zM50 605v-510l170 255z" />
    <glyph glyph-name="fi" unicode="fi" horiz-adv-x="683" 
d="M630.46 500l-0.000976562 -499.99h-139.98v398.6h-221.91v-398.6h-139.98v398.6h-96.04v80.9404l93 20.5h3.04004v32.1602c0 135.41 75.0303 195.021 171.42 195.021c54.0498 0 115.91 -17.8496 172.021 -48.6699l-31.6699 -87.21
c-35.4102 14.3701 -72 24.0498 -104.42 23.9297c-40.5 0 -67.3096 -25.3604 -67.3691 -80.1299v-35.1104h272.74v-0.0400391h89.1504z" />
    <glyph glyph-name="fl" unicode="fl" horiz-adv-x="836" 
d="M128.61 500.04l-0.00976562 14.3799c0 145.83 79.4502 213.29 187.59 212.8c46.46 0 102.6 -13.1797 156.67 -38.8193l-32.7803 -96.7305c-36.9297 13.8799 -69.2793 20.6396 -97.1992 20.5195c-46.5596 0 -74.29 -30.0801 -74.2197 -91.2197v-20.9297h135.76v-108.3
h-135.76v-391.74h-140.07l0.00976562 391.74h-96.0498v87.7998l93 20.5h3.05957zM760.021 106.31l33.8398 -91.7988c-38.4502 -18.0596 -79.6104 -28.4395 -117.62 -28.4795c-84.2197 -0.139648 -156.37 47.46 -156.37 167.69v546.26h139.98v-528.49
c0 -52.54 26.7598 -72.0205 63.3496 -71.8203c11.0703 0.0595703 23.4307 2.36914 36.8203 6.63867z" />
    <glyph glyph-name=".notdef" horiz-adv-x="500" 
d="M0 0v700h500v-700h-500zM250 395l170 255h-340zM280 350l170 -255v510zM80 50h340l-170 255zM50 605v-510l170 255z" />
    <glyph glyph-name="A" unicode="A" horiz-adv-x="754" 
d="M729.14 0h-160.869l-49.2598 138.2h-283.78l-49.25 -138.2h-160.88l273.01 700h158.02zM277.961 261.4h198.33l-99.1699 275.68z" />
    <glyph glyph-name="Aacute" unicode="&#xc1;" horiz-adv-x="754" 
d="M437.75 764.58h-133.029l128.02 172.93h145.05zM729.141 0h-160.869l-49.2598 138.2h-283.78l-49.25 -138.2h-160.88l273.01 700h158.02zM277.962 261.4h198.33l-99.1699 275.68z" />
    <glyph glyph-name="Abreve" unicode="&#x102;" horiz-adv-x="754" 
d="M465.99 931.11l101.051 -0.0107422c0 -92.3896 -74.7197 -167.06 -189.85 -167.06c-114.37 0 -189.86 74.6699 -189.86 167.06l101.05 0.00976562c0 -46.46 38.3799 -75.4697 88.8096 -75.4697c50.8799 0 88.7998 28.8203 88.7998 75.4707zM729.141 -0h-160.869
l-49.2598 138.2h-283.78l-49.25 -138.2h-160.88l273.01 700h158.02zM277.962 261.4h198.33l-99.1699 275.68z" />
    <glyph glyph-name="Abreveacute" unicode="&#x1eae;" horiz-adv-x="754" 
d="M437.75 939.45h-133.029l128.02 172.92h145.05zM465.99 931.11l101.051 -0.0107422c0 -92.3896 -74.7197 -167.06 -189.85 -167.06c-114.37 0 -189.86 74.6699 -189.86 167.06l101.05 0.00976562c0 -46.46 38.3799 -75.4697 88.8096 -75.4697
c50.8799 0 88.7998 28.8203 88.7998 75.4707zM729.141 -0h-160.869l-49.2598 138.2h-283.78l-49.25 -138.2h-160.88l273.01 700h158.02zM277.962 261.4h198.33l-99.1699 275.68z" />
    <glyph glyph-name="Abrevedotbelow" unicode="&#x1eb6;" horiz-adv-x="754" 
d="M465.99 931.11l101.051 -0.0107422c0 -92.3896 -74.7197 -167.06 -189.85 -167.06c-114.37 0 -189.86 74.6699 -189.86 167.06l101.05 0.00976562c0 -46.46 38.3799 -75.4697 88.8096 -75.4697c50.8799 0 88.7998 28.8203 88.7998 75.4707zM729.141 -0h-160.869
l-49.2598 138.2h-283.78l-49.25 -138.2h-160.88l273.01 700h158.02zM277.962 261.4h198.33l-99.1699 275.68zM377.122 -54.0098c39.46 0 71.4404 -31.9805 71.4404 -71.4404c0 -39.4502 -31.9805 -71.4404 -71.4404 -71.4404c-39.4502 0 -71.4404 31.9902 -71.4404 71.4404
c0 39.46 31.9902 71.4404 71.4404 71.4404z" />
    <glyph glyph-name="Abrevegrave" unicode="&#x1eb0;" horiz-adv-x="754" 
d="M441.7 939.45h-133.029l-140.04 172.92h145.05zM465.991 931.11l101.041 -0.0107422c0 -92.3896 -74.7197 -167.06 -189.85 -167.06c-114.37 0 -189.851 74.6699 -189.851 167.06l101.04 0.00976562c0 -46.46 38.3799 -75.4697 88.8096 -75.4697
c50.8896 0 88.8096 28.8203 88.8096 75.4707zM729.143 -0h-160.88l-49.25 138.2h-283.78l-49.2598 -138.2h-160.88l273.01 700h158.03zM277.953 261.4h198.33l-99.1602 275.68z" />
    <glyph glyph-name="Abrevehookabove" unicode="&#x1eb2;" horiz-adv-x="754" 
d="M392.03 1155.32c70.4902 0 132.139 -21.6289 132.139 -108.259c0 -62.7002 -32.8701 -80.46 -92.6602 -106.77c-16.7305 -7.62012 -24.79 -12.1904 -25.96 -24.8008l-88.5303 -0.0302734c0.200195 62.5996 23.8506 76.5293 69.1006 95.4795
c30.0801 13.5596 41.9199 21.2998 41.8398 36.5c-0.129883 18.5703 -17.9297 24.5205 -43.7695 24.3301c-21.75 0.0898438 -46.9697 -4.79004 -68.4893 -10.3398l-40.4004 71.46c35.2305 15.1602 76.54 22.4297 116.73 22.4297zM465.999 931.111l101.051 -0.0107422
c0 -92.3896 -74.7197 -167.06 -189.85 -167.06c-114.37 0 -189.86 74.6699 -189.86 167.06l101.05 0.00976562c0 -46.46 38.3799 -75.4697 88.8096 -75.4697c50.8799 0 88.7998 28.8203 88.7998 75.4707zM729.149 0.000976562h-160.869l-49.2598 138.2h-283.78
l-49.25 -138.2h-160.88l273.01 700h158.02zM277.971 261.401h198.33l-99.1699 275.68z" />
    <glyph glyph-name="Abrevetilde" unicode="&#x1eb4;" horiz-adv-x="754" 
d="M310.84 1118.4c37.0195 0 65.6377 -21.0508 94.0674 -43.4609c18.4902 -14.4697 32.0205 -23.9795 46.0107 -23.7793c19.5 -0.200195 39.0303 17.3096 65.3604 60.0498l60.0801 -50.1504c-35.5195 -55.5098 -70.3799 -109.74 -131.85 -110.25
c-41.0596 0 -69.5498 23.4697 -94.5498 43.4297c-16.0195 12.4902 -33.5098 23.9805 -47.8301 23.9004c-20.1699 0.0800781 -41.1699 -23.3496 -64.0195 -60.1797l-60.0898 50.1602c31.7598 50.6699 69.29 110.28 132.82 110.28zM465.998 931.109l101.041 -0.0205078
c0 -92.3799 -74.7197 -167.05 -189.85 -167.05c-114.37 0 -189.851 74.6699 -189.851 167.05l101.04 0.0195312c0 -46.46 38.3799 -75.4697 88.8096 -75.4697c50.8896 0 88.8096 28.8203 88.8096 75.4707zM729.149 -0.000976562h-160.88l-49.25 138.2h-283.78
l-49.2598 -138.2h-160.88l273.01 700h158.03zM277.96 261.399h198.33l-99.1602 275.68z" />
    <glyph glyph-name="Acaron" unicode="&#x1cd;" horiz-adv-x="754" 
d="M308.26 764.4l-141.07 172.6h136.1l73.8896 -100.99l73.9004 100.99h136.09l-141.06 -172.6h-137.85zM729.14 0h-160.88l-49.25 138.2h-283.78l-49.2598 -138.2h-160.88l273.01 700h158.03zM476.279 261.4l-99.1602 275.68l-99.1699 -275.68h198.33z" />
    <glyph glyph-name="Acircumflex" unicode="&#xc2;" horiz-adv-x="754" 
d="M303.29 764.4h-136.079l141.06 172.6h137.85l141.06 -172.6h-136.1l-73.8896 100.98zM729.151 0h-160.869l-49.2598 138.2h-283.78l-49.25 -138.2h-160.88l273.01 700h158.02zM476.302 261.4l-99.1699 275.68l-99.1602 -275.68h198.33z" />
    <glyph glyph-name="Acircumflexacute" unicode="&#x1ea4;" horiz-adv-x="754" 
d="M702.78 825h-133.029l128.02 172.92h145.05zM303.291 764.4h-136.089l141.06 172.6h137.85l141.06 -172.6h-136.09l-73.9004 100.98zM456.143 700l273.01 -700h-160.88l-49.25 138.2h-283.78l-49.2598 -138.2h-160.88l273.01 700h158.03zM476.292 261.4l-99.1602 275.68
l-99.1699 -275.68h198.33z" />
    <glyph glyph-name="Acircumflexdotbelow" unicode="&#x1eac;" horiz-adv-x="754" 
d="M303.29 764.4h-136.079l141.06 172.6h137.85l141.06 -172.6h-136.1l-73.8896 100.98zM729.151 0h-160.869l-49.2598 138.2h-283.78l-49.25 -138.2h-160.88l273.01 700h158.02zM476.302 261.4l-99.1699 275.68l-99.1602 -275.68h198.33zM377.132 -54.0098
c39.46 0 71.4404 -31.9902 71.4404 -71.4404c0 -39.46 -31.9805 -71.4404 -71.4404 -71.4404c-39.4502 0 -71.4404 31.9805 -71.4404 71.4404c0 39.4502 31.9902 71.4404 71.4404 71.4404z" />
    <glyph glyph-name="Acircumflexgrave" unicode="&#x1ea6;" horiz-adv-x="754" 
d="M604.9 825l-140.05 172.92h145.05l128.02 -172.92h-133.02zM303.291 764.4h-136.089l141.06 172.6h137.85l141.06 -172.6h-136.09l-73.9004 100.99zM456.143 700l273.01 -700h-160.88l-49.25 138.2h-283.78l-49.2598 -138.2h-160.88l273.01 700h158.03zM476.292 261.4
l-99.1602 275.68l-99.1699 -275.68h198.33z" />
    <glyph glyph-name="Acircumflexhookabove" unicode="&#x1ea8;" horiz-adv-x="754" 
d="M658.44 1035.44c70.4902 0 132.149 -21.6387 132.149 -108.259c0 -62.71 -32.8701 -80.46 -92.6602 -106.78c-16.7305 -7.61035 -24.79 -12.1807 -25.96 -24.791l-88.5303 -0.0302734c0.200195 62.5996 23.8506 76.5293 69.1006 95.4795
c30.0801 13.5596 41.9199 21.29 41.8398 36.5c-0.129883 18.5703 -17.9297 24.5107 -43.7695 24.3311c-21.75 0.0898438 -46.9697 -4.79004 -68.5 -10.3398l-40.3896 71.46c35.2305 15.1602 76.54 22.4297 116.72 22.4297zM303.31 764.401h-136.089l141.06 172.6h137.85
l141.06 -172.6h-136.09l-73.9004 100.98zM456.161 700.001l273.01 -700h-160.88l-49.25 138.2h-283.78l-49.2598 -138.2h-160.88l273.01 700h158.03zM476.311 261.401l-99.1602 275.68l-99.1699 -275.68h198.33z" />
    <glyph glyph-name="Acircumflextilde" unicode="&#x1eaa;" horiz-adv-x="754" 
d="M302.13 1021.2c-20.1699 0.0898438 -41.1621 -23.3408 -64.0117 -60.1709l-60.0898 50.1602c31.7598 50.6602 69.29 110.271 132.82 110.271c37.0195 0 65.6299 -21.04 94.0596 -43.4502c18.4902 -14.4697 32.0205 -23.9795 46.0107 -23.7793
c19.5 -0.200195 39.0303 17.3096 65.3604 60.0498l60.0801 -50.1504c-35.5195 -55.5098 -70.3799 -109.74 -131.85 -110.25c-41.0596 0 -69.5498 23.4697 -94.5498 43.4297c-16.0195 12.4902 -33.5098 23.9805 -47.8301 23.8906zM303.298 764.399h-136.089l141.06 172.6
h137.85l141.06 -172.6h-136.09l-73.9004 100.98zM729.159 -0.000976562h-160.88l-49.25 138.2h-283.78l-49.2598 -138.2h-160.88l273.01 700h158.03zM476.299 261.399l-99.1602 275.68l-99.1699 -275.68h198.33z" />
    <glyph glyph-name="Adieresis" unicode="&#xc4;" horiz-adv-x="754" 
d="M266.74 917.99c39.4502 0 71.4404 -31.9805 71.4404 -71.4404c0 -39.4502 -31.9902 -71.4404 -71.4404 -71.4404c-39.46 0 -71.4404 31.9902 -71.4404 71.4404c0 39.46 31.9805 71.4404 71.4404 71.4404zM487.641 917.99c39.4502 0 71.4404 -31.9805 71.4404 -71.4404
c0 -39.4502 -31.9902 -71.4404 -71.4404 -71.4404c-39.46 0 -71.4404 31.9902 -71.4404 71.4404c0 39.46 31.9805 71.4404 71.4404 71.4404zM729.15 0h-160.88l-49.25 138.2h-283.78l-49.2598 -138.2h-160.88l273.01 700h158.03zM277.961 261.4h198.33l-99.1602 275.68z" />
    <glyph glyph-name="Adotbelow" unicode="&#x1ea0;" horiz-adv-x="754" 
d="M729.14 0h-160.869l-49.2598 138.2h-283.78l-49.25 -138.2h-160.88l273.01 700h158.02zM277.961 261.4h198.33l-99.1699 275.68zM377.121 -54.0098c39.46 0 71.4404 -31.9902 71.4404 -71.4404c0 -39.46 -31.9805 -71.4404 -71.4404 -71.4404
c-39.4502 0 -71.4404 31.9805 -71.4404 71.4404c0 39.4502 31.9902 71.4404 71.4404 71.4404z" />
    <glyph glyph-name="Agrave" unicode="&#xc0;" horiz-adv-x="754" 
d="M441.7 764.58h-133.029l-140.04 172.93h145.05zM729.141 0h-160.88l-49.25 138.2h-283.78l-49.2598 -138.2h-160.88l273.01 700h158.03zM277.951 261.4h198.33l-99.1602 275.68z" />
    <glyph glyph-name="Ahookabove" unicode="&#x1ea2;" horiz-adv-x="754" 
d="M404.09 994.16c70.4902 0 132.139 -21.6299 132.139 -108.25c0 -62.7002 -32.8701 -80.46 -92.6602 -106.78c-16.7305 -7.61035 -24.79 -12.1904 -25.96 -24.8008l-88.5303 -0.0195312c0.200195 62.5898 23.8506 76.5195 69.1006 95.4795
c30.0801 13.5596 41.9199 21.29 41.8398 36.5c-0.129883 18.5703 -17.9297 24.5107 -43.7695 24.3311c-21.75 0.0898438 -46.9697 -4.79004 -68.4893 -10.3398l-40.4004 71.4502c35.2305 15.1699 76.54 22.4297 116.73 22.4297zM729.158 -0h-160.88l-49.25 138.2h-283.78
l-49.2598 -138.2h-160.88l273.01 700h158.03zM277.969 261.4h198.33l-99.1602 275.68z" />
    <glyph glyph-name="Amacron" unicode="&#x100;" horiz-adv-x="754" 
d="M549.08 786.02h-343.79v107.56h343.79v-107.56zM729.14 -0h-160.869l-49.2598 138.2h-283.78l-49.25 -138.2h-160.88l273.01 700h158.02zM277.961 261.4h198.33l-99.1699 275.68z" />
    <glyph glyph-name="Aogonek" unicode="&#x104;" horiz-adv-x="754" 
d="M704.64 -114.77l25.5908 -70.2002c-29.8203 -19.5 -72.1006 -29.0098 -108.801 -29.2695c-65.7197 0.25 -127.189 34.25 -127.699 97.8496c0.429688 46.5703 33.0801 86.5 74.7305 116.4h-0.169922l-49.25 138.2h-283.78l-49.25 -138.2h-160.88l273.01 700h158.02
l273.01 -700h-83.1602c-25.0596 -19.3604 -48.6494 -45.4805 -48.8994 -79.2705c0.320312 -33.5 24.5801 -46.2803 57.2197 -46.0205c14.0195 -0.259766 33.6191 2.48047 50.3096 10.5107zM277.99 261.41h198.34l-99.1699 275.68z" />
    <glyph glyph-name="Aring" unicode="&#xc5;" horiz-adv-x="754" 
d="M377.19 996.57c80.75 0 133.15 -57.3594 133.15 -128.34c0 -70.9697 -52.4004 -128.34 -133.15 -128.34c-80.2197 0 -133.16 57.3701 -133.16 128.34c0 72.2305 52.9404 128.83 133.16 128.34zM376.75 923.182c-27.7695 0.160156 -49.8291 -20.7295 -49.8291 -54.96
c0 -33.8203 21.7197 -54.9404 50.2598 -54.9404c28.7998 0 50.2598 20.9805 50.2598 54.9502c0 33.96 -21.46 54.9502 -50.6904 54.9502zM729.14 -0.0078125h-160.869l-49.2598 138.2h-283.78l-49.25 -138.2h-160.88l273.01 700h158.02zM277.961 261.393h198.33
l-99.1699 275.68z" />
    <glyph glyph-name="Atilde" unicode="&#xc3;" horiz-adv-x="754" 
d="M310.84 932.26c37.0195 0 65.6377 -21.041 94.0674 -43.4512c18.4902 -14.4697 32.0205 -23.9795 46.0107 -23.7793c19.5 -0.200195 39.0303 17.3096 65.3604 60.0498l60.0801 -50.1504c-35.5195 -55.5098 -70.3799 -109.74 -131.85 -110.25
c-41.0596 0 -69.5498 23.4697 -94.5498 43.4297c-16.0195 12.4902 -33.5098 23.9805 -47.8301 23.8906c-20.1699 0.0898438 -41.1699 -23.3398 -64.0195 -60.1699l-60.0898 50.1602c31.7598 50.6602 69.29 110.271 132.82 110.271zM729.147 -0.000976562h-160.869
l-49.2598 138.2h-283.78l-49.25 -138.2h-160.88l273.01 700h158.02zM277.969 261.399h198.33l-99.1699 275.68z" />
    <glyph glyph-name="AE" unicode="&#xc6;" horiz-adv-x="1014" 
d="M968.91 123.2l0.0107422 -123.2h-506.99v138.2h-209.4l-66.5498 -138.2h-160.88l359.75 700h138.22h435.84v-123.2h-347.99v-148.64h309v-123.2h-309v-181.76h357.99zM461.931 261.4v311.63l-150.07 -311.63h150.07z" />
    <glyph glyph-name="B" unicode="B" horiz-adv-x="696" 
d="M529.84 374.83c72.7695 -23.8398 124.02 -86.0801 123.46 -170.53c0 -123.81 -96.7598 -204.17 -216.47 -204.17h-204.98v-0.139648h-149v700h320.98c110.79 0.00976562 199.73 -74.6104 198.98 -187.67c0 -60.9404 -28.7305 -108.971 -72.9707 -137.49zM231.84 581.221
l0.00976562 -163.899h141.12c44.7305 0 78.2402 29.6602 78.2402 81.9502c0.349609 52.0596 -33.1504 81.9492 -78.2402 81.9492h-141.13zM501.71 211.251c0.389648 57.4902 -38.1201 91.5303 -89.1299 91.5303h-180.73v-183.93h180.73
c50.6104 0 89.1299 33.7598 89.1299 92.3994z" />
    <glyph glyph-name="C" unicode="C" horiz-adv-x="759" 
d="M422.43 714.01c89.5 0 190.118 -33.7812 275.898 -99.2012l-38.25 -105.27c-74.5498 47.8301 -156.439 73.3604 -228.709 73.2607c-122.62 0.320312 -210.55 -86.2295 -210.55 -232.77c0 -146.08 88.1602 -233.17 210.94 -233.21
c72.8799 -0.0302734 156.07 26.7197 231.32 75.5596l38.1904 -104.99c-86.2803 -66.5703 -189.141 -101.34 -278.831 -101.35c-213.67 0 -354.689 162.69 -354.689 363.99c0 202.67 141.02 364.689 354.68 363.979z" />
    <glyph glyph-name="Cacute" unicode="&#x106;" horiz-adv-x="759" 
d="M464.74 764.58h-133.029l128.02 172.93h145.05zM422.431 714.01c89.5 0 190.109 -33.7812 275.899 -99.2012l-38.2598 -105.27c-74.54 47.8301 -156.44 73.3604 -228.71 73.2607c-122.62 0.320312 -210.55 -86.2295 -210.55 -232.77
c0 -146.08 88.1602 -233.17 210.94 -233.21c72.8896 -0.0302734 156.069 26.7197 231.329 75.5596l38.1904 -104.99c-86.29 -66.5703 -189.14 -101.34 -278.84 -101.35c-213.67 0 -354.689 162.69 -354.689 363.99c0 202.67 141.02 364.689 354.689 363.979z" />
    <glyph glyph-name="Ccaron" unicode="&#x10c;" horiz-adv-x="759" 
d="M335.26 764.4l-141.07 172.6h136.09l73.9004 -100.99l73.8896 100.99h136.1l-141.06 -172.6h-137.85zM663.069 192.38l38.1895 -104.979c-86.29 -66.5703 -189.14 -101.34 -278.84 -101.35c-213.67 0 -354.689 162.69 -354.689 363.99
c0 202.67 141.02 364.689 354.689 363.979c89.5 0 190.11 -33.79 275.9 -99.21l-38.2598 -105.28c-74.54 47.8398 -156.44 73.3594 -228.71 73.2598c-122.62 0.330078 -210.55 -86.2197 -210.55 -232.76c0 -146.09 88.1602 -233.17 210.94 -233.22
c72.8896 -0.0302734 156.069 26.7295 231.329 75.5693z" />
    <glyph glyph-name="Ccedilla" unicode="&#xc7;" horiz-adv-x="759" 
d="M427.96 -44.1699c59.9199 -8.83984 97.2002 -44.3057 97.04 -95.9854c0.179688 -60.1904 -51.1201 -106.32 -136.68 -107.83c-47.6104 -1.03027 -106.9 12.0693 -140.271 28.6191l29.6797 63.9297c30.0801 -11.6201 65.2705 -17.7803 92.6504 -17.9707
c33.4805 0.160156 47.6309 11.2803 47.8311 32.7803c-0.200195 18.3301 -10.1299 30.3496 -33.7998 30.1992c-11.2803 0.179688 -35.4004 -3.9502 -48.5508 -9.2998l-19.8398 42.7402l33.3301 69.75c-172.16 32.5596 -281.61 179.939 -281.61 357.279
c0 202.67 141.02 364.689 354.689 363.979c89.5 0 190.11 -33.79 275.9 -99.21l-38.2598 -105.28c-74.54 47.8398 -156.44 73.3594 -228.71 73.2598c-122.62 0.330078 -210.55 -86.2197 -210.55 -232.76c0 -146.09 88.1602 -233.17 210.94 -233.22
c72.8896 -0.0302734 156.069 26.7295 231.329 75.5693l38.1904 -104.99c-84.6104 -65.2803 -185.15 -99.9805 -273.601 -101.311l-8.4502 -29.1299c2.96973 -0.30957 5.87988 -0.679688 8.74023 -1.12012z" />
    <glyph glyph-name="Cdotaccent" unicode="&#x10a;" horiz-adv-x="759" 
d="M404.18 917.99c39.46 0 71.4404 -31.9805 71.4404 -71.4404c0 -39.4502 -31.9805 -71.4404 -71.4404 -71.4404c-39.4502 0 -71.4404 31.9902 -71.4404 71.4404c0 39.46 31.9902 71.4404 71.4404 71.4404zM422.43 714.01c89.5 0 190.118 -33.7812 275.898 -99.2012
l-38.25 -105.27c-74.5498 47.8301 -156.439 73.3604 -228.709 73.2607c-122.62 0.320312 -210.55 -86.2295 -210.55 -232.77c0 -146.08 88.1602 -233.17 210.94 -233.21c72.8799 -0.0302734 156.07 26.7197 231.32 75.5596l38.1904 -104.99
c-86.2803 -66.5703 -189.141 -101.34 -278.831 -101.35c-213.67 0 -354.689 162.69 -354.689 363.99c0 202.67 141.02 364.689 354.68 363.979z" />
    <glyph glyph-name="D" unicode="D" horiz-adv-x="776" 
d="M82.8496 700h280.32c208.19 0 345.301 -148.68 345.301 -349.97c0 -201.3 -137.11 -350.03 -345.301 -350.03h-280.32v700zM231.85 123.24l119.33 -0.0107422c125.75 0 205.7 88.9102 205.7 226.79c0 137.86 -79.9404 226.73 -205.7 226.73h-119.33v-453.51z" />
    <glyph glyph-name="Eth" unicode="&#xd0;" horiz-adv-x="776" 
d="M82.8496 700h280.32c208.19 0 345.301 -148.68 345.301 -349.97c0 -201.3 -137.11 -350.03 -345.301 -350.03h-280.32v292.91h-84.5303v114.18h84.5303v292.91zM231.84 123.24l119.34 -0.000976562c125.75 0 205.7 88.9102 205.7 226.78s-79.9404 226.74 -205.71 226.74
h-119.33v-169.67h148.84v-114.18h-148.84v-169.67z" />
    <glyph glyph-name="Dcaron" unicode="&#x10e;" horiz-adv-x="776" 
d="M308.99 764.4l-141.07 172.6h136.1l73.8896 -100.99l73.9004 100.99h136.09l-141.06 -172.6h-137.85zM82.8398 700h280.32c208.19 0 345.301 -148.68 345.301 -349.97c0 -201.3 -137.11 -350.03 -345.301 -350.03h-280.32v700zM231.84 123.24l119.33 -0.0107422
c125.75 0 205.7 88.9102 205.7 226.79c0 137.86 -79.9404 226.73 -205.7 226.73h-119.33v-453.51z" />
    <glyph glyph-name="Dcroat" unicode="&#x110;" horiz-adv-x="776" 
d="M82.8496 700h280.32c208.19 0 345.301 -148.68 345.301 -349.97c0 -201.3 -137.11 -350.03 -345.301 -350.03h-280.32v292.91h-84.5303v114.18h84.5303v292.91zM231.84 123.24l119.34 -0.000976562c125.75 0 205.7 88.9102 205.7 226.78s-79.9404 226.74 -205.71 226.74
h-119.33v-169.67h148.84v-114.18h-148.84v-169.67z" />
    <glyph glyph-name="E" unicode="E" horiz-adv-x="635" 
d="M589.84 123.2v-123.2h-506.99v700h496.99v-123.2h-347.99v-148.64h309v-123.2h-309v-181.76h357.99z" />
    <glyph glyph-name="Eacute" unicode="&#xc9;" horiz-adv-x="635" 
d="M396.56 764.58h-133.029l128.02 172.93h145.05zM589.83 123.2v-123.2h-506.99v700h496.99v-123.2h-347.99v-148.64h309v-123.2h-309v-181.76h357.99z" />
    <glyph glyph-name="Ecaron" unicode="&#x11a;" horiz-adv-x="635" 
d="M267.07 764.4l-141.07 172.6h136.1l73.8896 -100.99l73.9004 100.99h136.09l-141.06 -172.6h-137.85zM589.83 123.2v-123.2h-506.99v700h496.99v-123.2h-347.99v-148.64h309v-123.2h-309v-181.76h357.99z" />
    <glyph glyph-name="Ecircumflex" unicode="&#xca;" horiz-adv-x="635" 
d="M262.1 764.4h-136.079l141.06 172.6h137.85l141.06 -172.6h-136.1l-73.8896 100.98zM589.841 123.2v-123.2h-506.99v700h496.99v-123.2h-347.99v-148.64h309v-123.2h-309v-181.76h357.99z" />
    <glyph glyph-name="Ecircumflexacute" unicode="&#x1ebe;" horiz-adv-x="635" 
d="M801.63 997.92l-140.039 -172.92h-133.03l128.02 172.92h145.05zM262.101 764.4h-136.089l141.06 172.6h137.85l141.06 -172.6h-136.09l-73.9004 100.98zM231.852 123.2h357.99v-123.2h-506.99v700h496.99v-123.2h-347.99v-148.64h309v-123.2h-309v-181.76z" />
    <glyph glyph-name="Ecircumflexdotbelow" unicode="&#x1ec6;" horiz-adv-x="635" 
d="M262.1 764.4h-136.079l141.06 172.6h137.85l141.06 -172.6h-136.1l-73.8896 100.98zM589.841 123.2v-123.2h-506.99v700h496.99v-123.2h-347.99v-148.64h309v-123.2h-309v-181.76h357.99zM336.751 -54.0098c39.46 0 71.4404 -31.9902 71.4404 -71.4404
c0 -39.46 -31.9805 -71.4404 -71.4404 -71.4404c-39.4502 0 -71.4404 31.9805 -71.4404 71.4404c0 39.4502 31.9902 71.4404 71.4404 71.4404z" />
    <glyph glyph-name="Ecircumflexgrave" unicode="&#x1ec0;" horiz-adv-x="635" 
d="M563.71 825l-140.05 172.92h145.05l128.02 -172.92h-133.02zM262.101 764.4h-136.089l141.06 172.6h137.85l141.06 -172.6h-136.09l-73.9004 100.99zM231.852 123.2h357.99v-123.2h-506.99v700h496.99v-123.2h-347.99v-148.64h309v-123.2h-309v-181.76z" />
    <glyph glyph-name="Ecircumflexhookabove" unicode="&#x1ec2;" horiz-adv-x="635" 
d="M617.25 1035.44c70.4902 0 132.149 -21.6299 132.149 -108.26c0 -62.7002 -32.8701 -80.46 -92.6602 -106.77c-16.7305 -7.61035 -24.79 -12.1904 -25.96 -24.8008l-88.5303 -0.0195312c0.200195 62.5898 23.8506 76.5195 69.1006 95.4697
c30.0801 13.5596 41.9199 21.2998 41.8398 36.5c-0.129883 18.5703 -17.9297 24.5205 -43.7695 24.3301c-21.75 0.0898438 -46.9697 -4.79004 -68.5 -10.3398l-40.3896 71.46c35.2305 15.1699 76.54 22.4297 116.72 22.4297zM262.119 764.4h-136.089l141.06 172.6h137.85
l141.06 -172.6h-136.09l-73.9004 100.99zM231.87 123.2h357.99v-123.2h-506.99v700h496.99v-123.2h-347.99v-148.64h309v-123.2h-309v-181.76z" />
    <glyph glyph-name="Ecircumflextilde" unicode="&#x1ec4;" horiz-adv-x="635" 
d="M260.94 1021.2c-20.1699 0.0898438 -41.1621 -23.3408 -64.0117 -60.1709l-60.0898 50.1602c31.7598 50.6602 69.29 110.271 132.82 110.271c37.0195 0 65.6299 -21.04 94.0596 -43.4502c18.4902 -14.4697 32.0205 -23.9795 46.0107 -23.7793
c19.5 -0.200195 39.0303 17.3096 65.3604 60.0498l60.0801 -50.1504c-35.5195 -55.5098 -70.3799 -109.74 -131.85 -110.25c-41.0596 0 -69.5498 23.4697 -94.5498 43.4297c-16.0195 12.4902 -33.5098 23.9805 -47.8301 23.8906zM262.108 764.399h-136.089l141.06 172.6
h137.85l141.06 -172.6h-136.09l-73.9004 100.98zM589.85 123.199v-123.2h-506.99v700h496.99v-123.2h-347.99v-148.64h309v-123.2h-309v-181.76h357.99z" />
    <glyph glyph-name="Edieresis" unicode="&#xcb;" horiz-adv-x="635" 
d="M225.55 775.11c-39.46 0 -71.4404 31.9902 -71.4404 71.4404c0 39.46 31.9805 71.4404 71.4404 71.4404c39.4502 0 71.4404 -31.9805 71.4404 -71.4404c0 -39.4502 -31.9902 -71.4404 -71.4404 -71.4404zM446.45 775.11c-39.46 0 -71.4404 31.9902 -71.4404 71.4404
c0 39.46 31.9805 71.4404 71.4404 71.4404c39.4502 0 71.4404 -31.9805 71.4404 -71.4404c0 -39.4502 -31.9902 -71.4404 -71.4404 -71.4404zM589.84 123.2v-123.2h-506.99v700h496.99v-123.2h-347.99v-148.64h309v-123.2h-309v-181.76h357.99z" />
    <glyph glyph-name="Edotaccent" unicode="&#x116;" horiz-adv-x="635" 
d="M336 775.11c-39.46 0 -71.4404 31.9902 -71.4404 71.4404c0 39.46 31.9805 71.4404 71.4404 71.4404c39.4502 0 71.4404 -31.9805 71.4404 -71.4404c0 -39.4502 -31.9902 -71.4404 -71.4404 -71.4404zM589.84 123.2v-123.2h-506.99v700h496.99v-123.2h-347.99v-148.64
h309v-123.2h-309v-181.76h357.99z" />
    <glyph glyph-name="Edotbelow" unicode="&#x1eb8;" horiz-adv-x="635" 
d="M589.84 123.2v-123.2h-506.99v700h496.99v-123.2h-347.99v-148.64h309v-123.2h-309v-181.76h357.99zM336.75 -54.0098c39.4502 0 71.4404 -31.9902 71.4404 -71.4404c0 -39.46 -31.9902 -71.4404 -71.4404 -71.4404c-39.46 0 -71.4404 31.9805 -71.4404 71.4404
c0 39.4502 31.9805 71.4404 71.4404 71.4404z" />
    <glyph glyph-name="Egrave" unicode="&#xc8;" horiz-adv-x="635" 
d="M267.49 764.58l-140.05 172.93h145.05l128.02 -172.93h-133.02zM589.83 123.2v-123.2h-506.99v700h496.99v-123.2h-347.99v-148.64h309v-123.2h-309v-181.76h357.99z" />
    <glyph glyph-name="Ehookabove" unicode="&#x1eba;" horiz-adv-x="635" 
d="M357.02 910.6c-21.75 0.0898438 -46.9609 -4.78906 -68.4805 -10.3389l-40.4004 71.46c35.2305 15.1602 76.54 22.4297 116.73 22.4297c70.4902 0 132.13 -21.6396 132.13 -108.26c0 -62.7002 -32.8701 -80.46 -92.6602 -106.78
c-16.7305 -7.61035 -24.79 -12.1904 -25.96 -24.8008l-88.5303 -0.0195312c0.200195 62.5996 23.8506 76.5293 69.1006 95.4795c30.0801 13.5596 41.9199 21.2998 41.8398 36.5c-0.129883 18.5703 -17.9297 24.5205 -43.7695 24.3301zM589.849 123.19v-123.2h-506.99v700
h496.99v-123.2h-347.99v-148.64h309v-123.2h-309v-181.76h357.99z" />
    <glyph glyph-name="Emacron" unicode="&#x112;" horiz-adv-x="635" 
d="M507.89 786.02h-343.79v107.56h343.79v-107.56zM589.83 123.199v-123.2h-506.99v700h496.99v-123.2h-347.99v-148.64h309v-123.2h-309v-181.76h357.99z" />
    <glyph glyph-name="Eogonek" unicode="&#x118;" horiz-adv-x="635" 
d="M607.22 -114.78l25.5576 -70.2002c-29.8203 -19.5 -72.0898 -29.0098 -108.79 -29.2695c-65.7197 0.25 -127.189 34.25 -127.699 97.8496c0.429688 46.5703 33.0801 86.5 74.7305 116.4h-388.18v700h496.99v-123.2h-347.99v-148.64h309v-123.2h-309v-181.76h357.99
v-123.2h-41.2598c-25.0596 -19.3604 -48.6494 -45.4805 -48.8994 -79.2705c0.330078 -33.4902 24.5898 -46.2803 57.2295 -46.0205c14.0303 -0.259766 33.6299 2.48047 50.3203 10.5107z" />
    <glyph glyph-name="Etilde" unicode="&#x1ebc;" horiz-adv-x="635" 
d="M260.94 832c-20.1699 0.0898438 -41.1621 -23.3408 -64.0117 -60.1709l-60.0898 50.1602c31.7598 50.6602 69.29 110.271 132.82 110.271c37.0195 0 65.6299 -21.04 94.0596 -43.4502c18.4902 -14.4697 32.0205 -23.9795 46.0107 -23.7793
c19.5 -0.200195 39.0303 17.3096 65.3604 60.0498l60.0801 -50.1504c-35.5195 -55.5098 -70.3799 -109.74 -131.85 -110.25c-41.0596 0 -69.5498 23.4697 -94.5498 43.4297c-16.0195 12.4902 -33.5098 23.9805 -47.8301 23.8906zM589.838 123.199v-123.2h-506.99v700h496.99
v-123.2h-347.99v-148.64h309v-123.2h-309v-181.76h357.99z" />
    <glyph glyph-name="F" unicode="F" horiz-adv-x="607" 
d="M231.85 576.8v-168.64h290.96v-123.2h-290.96v-284.96h-149v700h478.95v-123.2h-329.95z" />
    <glyph glyph-name="G" unicode="G" horiz-adv-x="812" 
d="M734.62 391.16l0.000976562 -391.17h-113.56l-10.3203 57.9902c-65.6104 -48.1299 -137.48 -71.96 -207.391 -71.9404c-197.72 -0.0195312 -335.439 162.33 -335.6 362.19c0.160156 204.12 143.76 366.47 357.09 365.779
c97.54 -0.00976562 197.56 -35.4502 284.699 -102.48l-38.1104 -104.68c-77.54 49.7402 -162.93 75.9004 -238.18 75.9004c-123.24 0.480469 -212.351 -85.0098 -212.45 -234.38c0.0996094 -146.36 86.4199 -232.07 201.53 -231.09
c52.4102 0.400391 111.25 16.0703 170.15 46.9404v106.68h-121.2v120.26h263.34z" />
    <glyph glyph-name="Gbreve" unicode="&#x11e;" horiz-adv-x="812" 
d="M417.57 764.04c-114.37 0 -189.859 74.6689 -189.859 167.049l101.05 0.0195312c0 -46.46 38.3799 -75.4697 88.8096 -75.4697c50.8799 0 88.7998 28.8203 88.7998 75.4707l101.05 -0.0195312c0 -92.3799 -74.7197 -167.05 -189.85 -167.05zM734.621 391.159
l0.0117188 -391.18h-113.56l-10.3203 57.9902c-65.6104 -48.1201 -137.48 -71.96 -207.391 -71.9404c-197.72 -0.0195312 -335.439 162.33 -335.6 362.19c0.160156 204.13 143.76 366.479 357.08 365.779c97.54 0 197.56 -35.4502 284.699 -102.47l-38.1104 -104.69
c-77.54 49.7402 -162.92 75.9004 -238.18 75.9004c-123.23 0.480469 -212.341 -85.0098 -212.44 -234.37c0.0996094 -146.37 86.4092 -232.07 201.52 -231.09c52.4102 0.389648 111.25 16.0596 170.15 46.9297v106.69h-121.19v120.26h263.33z" />
    <glyph glyph-name="Gcommaaccent" unicode="&#x122;" horiz-adv-x="812" 
d="M734.62 391.16l0.000976562 -391.17h-113.56l-10.3203 57.9902c-65.6104 -48.1299 -137.48 -71.96 -207.391 -71.9404c-197.72 -0.0195312 -335.439 162.33 -335.6 362.19c0.160156 204.12 143.76 366.47 357.09 365.779
c97.54 -0.00976562 197.56 -35.4502 284.699 -102.48l-38.1104 -104.68c-77.54 49.7402 -162.93 75.9004 -238.18 75.9004c-123.24 0.480469 -212.351 -85.0098 -212.45 -234.38c0.0996094 -146.36 86.4199 -232.07 201.53 -231.09
c52.4102 0.400391 111.25 16.0703 170.15 46.9404v106.68h-121.2v120.26h263.34zM420.781 -50.5801c35.5303 0.169922 63.5703 -25.4502 69.9902 -67.1104c10.04 -65.75 -39.2998 -145.41 -101.22 -190.351l-46.4697 29.7002c31.8096 26.54 55.0693 56.4004 68.5791 94.2002
c-32.2803 3.66016 -58.6602 30.8398 -58.6406 66.3701c-0.0195312 37.71 29.6309 67.3604 67.7607 67.1904z" />
    <glyph glyph-name="Gdotaccent" unicode="&#x120;" horiz-adv-x="812" 
d="M417.57 775.11c-39.46 0 -71.4404 31.9902 -71.4404 71.4404c0 39.46 31.9805 71.4404 71.4404 71.4404c39.4502 0 71.4404 -31.9805 71.4404 -71.4404c0 -39.4502 -31.9902 -71.4404 -71.4404 -71.4404zM734.62 391.16l0.0117188 -391.17h-113.56l-10.3203 57.9902
c-65.6104 -48.1299 -137.48 -71.96 -207.391 -71.9404c-197.72 -0.0195312 -335.439 162.33 -335.6 362.19c0.160156 204.12 143.76 366.47 357.08 365.779c97.54 -0.00976562 197.56 -35.4502 284.699 -102.48l-38.1104 -104.68
c-77.54 49.7402 -162.92 75.9004 -238.18 75.9004c-123.23 0.480469 -212.341 -85.0098 -212.44 -234.38c0.0996094 -146.36 86.4092 -232.07 201.52 -231.09c52.4102 0.400391 111.25 16.0703 170.15 46.9404v106.68h-121.19v120.26h263.33z" />
    <glyph glyph-name="H" unicode="H" horiz-adv-x="791" 
d="M707.74 700v-700h-149v303h-326.89v-303h-149v700h149v-273.8h326.89v273.8h149z" />
    <glyph glyph-name="Hbar" unicode="&#x126;" horiz-adv-x="790" 
d="M790.12 514h-82.3701v-514h-149v303h-326.89v-303h-149v514h-82.8604v103.21h82.8604v82.79h149v-82.79h326.89v82.79h149v-82.79h82.3701v-103.21zM558.75 514h-326.89v-87.7998h326.89v87.7998z" />
    <glyph glyph-name="I" unicode="I" horiz-adv-x="315" 
d="M231.85 0h-149v700h149v-700z" />
    <glyph glyph-name="IJ" unicode="&#x132;" horiz-adv-x="789" 
d="M231.85 0h-149v700h149v-700zM706.29 700l-0.00976562 -450.071c0 -145.95 -100.94 -263.91 -256.46 -263.91c-40.1602 0 -77.0801 7.28027 -110.03 20.5303l40.2598 112.48c17.7695 -4.7998 36.8594 -7.35938 57.0898 -7.35938c71.2402 0 119.7 55.0996 119.7 138.84
v449.49h149.45z" />
    <glyph glyph-name="Iacute" unicode="&#xcd;" horiz-adv-x="315" 
d="M217.91 764.58h-133.029l128.02 172.93h145.05zM231.841 0h-149v700h149v-700z" />
    <glyph glyph-name="Icaron" unicode="&#x1cf;" horiz-adv-x="315" 
d="M88.4199 764.4l-141.07 172.6h136.1l73.8896 -100.99l73.9004 100.99h136.09l-141.06 -172.6h-137.85zM82.8398 700h149v-700h-149v700z" />
    <glyph glyph-name="Icircumflex" unicode="&#xce;" horiz-adv-x="315" 
d="M83.4502 764.4h-136.079l141.06 172.6h137.85l141.06 -172.6h-136.1l-73.8896 100.98zM82.8613 700h149v-700h-149v700z" />
    <glyph glyph-name="Idieresis" unicode="&#xcf;" horiz-adv-x="315" 
d="M46.9004 917.99c39.4502 0 71.4404 -31.9805 71.4404 -71.4404c0 -39.4502 -31.9902 -71.4404 -71.4404 -71.4404c-39.46 0 -71.4404 31.9902 -71.4404 71.4404c0 39.46 31.9805 71.4404 71.4404 71.4404zM267.801 917.99c39.4502 0 71.4404 -31.9805 71.4404 -71.4404
c0 -39.4502 -31.9902 -71.4404 -71.4404 -71.4404c-39.46 0 -71.4404 31.9902 -71.4404 71.4404c0 39.46 31.9805 71.4404 71.4404 71.4404zM231.851 0h-149v700h149v-700z" />
    <glyph glyph-name="Idotaccent" unicode="&#x130;" horiz-adv-x="315" 
d="M157.35 917.99c39.4502 0 71.4404 -31.9805 71.4404 -71.4404c0 -39.4502 -31.9902 -71.4404 -71.4404 -71.4404c-39.46 0 -71.4404 31.9902 -71.4404 71.4404c0 39.46 31.9805 71.4404 71.4404 71.4404zM231.85 0h-149v700h149v-700z" />
    <glyph glyph-name="Idotbelow" unicode="&#x1eca;" horiz-adv-x="315" 
d="M231.85 0h-149v700h149v-700zM157.279 -54.0098c39.4502 0 71.4404 -31.9902 71.4404 -71.4404c0 -39.46 -31.9902 -71.4404 -71.4404 -71.4404c-39.46 0 -71.4404 31.9805 -71.4404 71.4404c0 39.4502 31.9805 71.4404 71.4404 71.4404z" />
    <glyph glyph-name="Igrave" unicode="&#xcc;" horiz-adv-x="315" 
d="M221.86 764.58h-133.02l-140.04 172.93h145.05zM231.851 0h-149v700h149v-700z" />
    <glyph glyph-name="Ihookabove" unicode="&#x1ec8;" horiz-adv-x="315" 
d="M186.84 994.16c70.5 0 132.149 -21.6396 132.149 -108.26c0 -62.7002 -32.8701 -80.46 -92.6602 -106.77c-16.7305 -7.62012 -24.79 -12.1904 -25.96 -24.8008l-88.5303 -0.0302734c0.200195 62.5996 23.8604 76.5293 69.1006 95.4795
c30.0801 13.5596 41.9199 21.2998 41.8398 36.5098c-0.129883 18.5703 -17.9297 24.5107 -43.7695 24.3311c-21.75 0.0898438 -46.9697 -4.79004 -68.5 -10.3398l-40.3896 71.4502c35.2305 15.1699 76.54 22.4297 116.72 22.4297zM231.859 -0.00976562h-149v700h149v-700z
" />
    <glyph glyph-name="Imacron" unicode="&#x12a;" horiz-adv-x="315" 
d="M329.24 786.02h-343.79v107.56h343.79v-107.56zM231.851 -0h-149v700h149v-700z" />
    <glyph glyph-name="Iogonek" unicode="&#x12e;" horiz-adv-x="315" 
d="M267.71 -130.67l25.5586 -70.2002c-29.8203 -19.5 -72.0898 -29.0098 -108.79 -29.2695c-65.7197 0.25 -127.189 34.25 -127.699 97.8496c0.5 54.7998 45.6299 101.39 97.5303 132.29h-71.4697v700h149v-700c-31.2197 -19.9902 -71.3496 -51.04 -71.6797 -95.1602
c0.330078 -33.4902 24.5898 -46.2803 57.2295 -46.0205c14.0303 -0.259766 33.6299 2.48047 50.3203 10.5107z" />
    <glyph glyph-name="Itilde" unicode="&#x128;" horiz-adv-x="315" 
d="M91 932.26c37.0195 0 65.6377 -21.041 94.0674 -43.4512c18.4902 -14.4697 32.0205 -23.9795 46.0107 -23.7793c19.5 -0.200195 39.0303 17.3096 65.3604 60.0498l60.0801 -50.1504c-35.5195 -55.5098 -70.3799 -109.74 -131.85 -110.25
c-41.0596 0 -69.5498 23.4697 -94.5498 43.4297c-16.0195 12.4902 -33.5098 23.9805 -47.8301 23.8906c-20.1699 0.0898438 -41.1699 -23.3398 -64.0195 -60.1699l-60.0898 50.1602c31.7598 50.6602 69.29 110.271 132.82 110.271zM231.848 -0.000976562h-149v700h149v-700z
" />
    <glyph glyph-name="J" unicode="J" horiz-adv-x="474" 
d="M391.59 700l-0.00976562 -450.071c0 -145.95 -100.94 -263.91 -256.46 -263.91c-40.1602 0 -77.0801 7.28027 -110.03 20.5303l40.2598 112.48c17.7695 -4.7998 36.8594 -7.35938 57.0898 -7.35938c71.2402 0 119.7 55.0996 119.7 138.84v449.49h149.45z" />
    <glyph glyph-name="K" unicode="K" horiz-adv-x="726" 
d="M320.62 313.23l-88.7705 -96.6406v-216.59h-149v700h149v-298.88l255.55 298.88h188.5l-262.04 -285.27l287.17 -414.73h-180.85z" />
    <glyph glyph-name="Kcommaaccent" unicode="&#x136;" horiz-adv-x="726" 
d="M701.03 0l-180.85 -0.000976562l-199.56 313.23l-88.7803 -96.6396v-216.59h-149v700h149v-298.88l255.55 298.88h188.51l-262.04 -285.27zM366.101 -50.5605c35.5303 0.160156 63.5713 -25.46 69.9912 -67.1104c10.04 -65.7598 -39.2998 -145.42 -101.21 -190.35
l-46.4697 29.7002c31.7998 26.5303 55.0693 56.4004 68.5693 94.2002c-32.2803 3.65039 -58.6504 30.8301 -58.6406 66.3604c-0.00976562 37.7197 29.6299 67.3594 67.7598 67.1992z" />
    <glyph glyph-name="L" unicode="L" horiz-adv-x="571" 
d="M545.8 123.2v-123.2h-462.95v700h149v-576.8h313.95z" />
    <glyph glyph-name="Lacute" unicode="&#x139;" horiz-adv-x="571" 
d="M369.4 764.58h-133.029l128.02 172.93h145.05zM545.791 123.2v-123.2h-462.95v700h149v-576.8h313.95z" />
    <glyph glyph-name="Lcaron" unicode="&#x13d;" horiz-adv-x="571" 
d="M402.28 474.04l-46.459 29.7109c31.7998 26.5303 55.0693 56.4004 68.5693 94.2002c-32.2803 3.65039 -58.6504 30.8301 -58.6406 66.3604c-0.00976562 37.7197 29.6299 67.3594 67.7598 67.1992c35.5303 0.169922 63.5605 -25.46 69.9805 -67.1201
c10.04 -65.75 -39.2998 -145.41 -101.21 -190.351zM545.802 123.201v-123.2h-462.95v700h149v-576.8h313.95z" />
    <glyph glyph-name="Lcommaaccent" unicode="&#x13b;" horiz-adv-x="571" 
d="M545.8 123.2v-123.2h-462.95v700h149v-576.8h313.95zM312.05 -50.5703c35.5303 0.169922 63.5703 -25.4502 69.9902 -67.1104c10.04 -65.75 -39.2998 -145.41 -101.22 -190.351l-46.4697 29.7002c31.8096 26.54 55.0693 56.4004 68.5791 94.2002
c-32.2803 3.66016 -58.6602 30.8398 -58.6406 66.3701c-0.0195312 37.71 29.6309 67.3604 67.7607 67.1904z" />
    <glyph glyph-name="Ldot" unicode="&#x13f;" horiz-adv-x="571" 
d="M545.8 123.2v-123.2h-462.95v700h149v-576.8h313.95zM382.35 256.47c-46.0996 0 -83.4795 37.3799 -83.4795 83.4795c0 46.4502 37.3799 83.4805 83.4795 83.4805c46.1104 0 83.4805 -37.3701 83.4805 -83.4805c0 -46.0996 -37.3701 -83.4795 -83.4805 -83.4795z" />
    <glyph glyph-name="Lslash" unicode="&#x141;" horiz-adv-x="557" 
d="M545.79 123.2v-123.199h-462.95v255.92l-74.3496 -40.7803l-52.4502 95.6904l126.81 69.5498v319.62h149v-237.89l108.41 59.46l52.4502 -95.7002l-160.87 -88.2305v-214.44h313.95z" />
    <glyph glyph-name="M" unicode="M" horiz-adv-x="906" 
d="M823.6 700l-0.00976562 -699.999h-145.08v438.86l-164.19 -247.4h-127.12l-164.27 247.45v-438.91h-145.08v700h133.08l239.79 -371.53l239.79 371.52l0.00976562 0.00976562h133.08z" />
    <glyph glyph-name="N" unicode="N" horiz-adv-x="770" 
d="M692.26 700v-700h-133.08l-336.25 458.15v-458.15h-145.08v700h133.08l336.25 -461.98v461.98h145.08z" />
    <glyph glyph-name="Nacute" unicode="&#x143;" horiz-adv-x="770" 
d="M445.58 764.58h-133.029l128.02 172.93h145.05zM692.251 700v-700h-133.08l-336.25 458.15v-458.15h-145.08v700h133.08l336.25 -461.98v461.98h145.08z" />
    <glyph glyph-name="Ncaron" unicode="&#x147;" horiz-adv-x="770" 
d="M316.09 764.4l-141.07 172.6h136.1l73.8896 -100.99l73.9004 100.99h136.09l-141.06 -172.6h-137.85zM692.25 700v-700h-133.08l-336.25 458.15v-458.15h-145.08v700h133.08l336.25 -461.98v461.98h145.08z" />
    <glyph glyph-name="Ncommaaccent" unicode="&#x145;" horiz-adv-x="770" 
d="M692.26 700v-700h-133.08l-336.25 458.15v-458.15h-145.08v700h133.08l336.25 -461.98v461.98h145.08zM388.229 -50.5703c35.5303 0.169922 63.5703 -25.4502 69.9902 -67.1104c10.04 -65.75 -39.2998 -145.41 -101.22 -190.351l-46.4697 29.7002
c31.8096 26.54 55.0693 56.4004 68.5791 94.2002c-32.2803 3.66016 -58.6602 30.8398 -58.6406 66.3701c-0.0195312 37.71 29.6309 67.3604 67.7607 67.1904z" />
    <glyph glyph-name="Eng" unicode="&#x14a;" horiz-adv-x="770" 
d="M692.26 700l-0.00976562 -650.101c0 -145.95 -100.93 -263.91 -256.449 -263.91c-37.75 0 -72.6201 6.45996 -104.01 18.2598l38.6396 107.9c17.7695 -4.7998 36.8594 -7.35938 57.0898 -7.35938c63.8096 0 109.35 44.21 118.149 113.61l-322.74 439.75v-458.15h-145.08
v700h133.08l336.28 -462.02l-0.0302734 462.02h145.08z" />
    <glyph glyph-name="Ntilde" unicode="&#xd1;" horiz-adv-x="770" 
d="M309.96 832c-20.1699 0.0898438 -41.1621 -23.3408 -64.0117 -60.1709l-60.0898 50.1602c31.7598 50.6602 69.29 110.271 132.82 110.271c37.0195 0 65.6299 -21.04 94.0596 -43.4502c18.4902 -14.4697 32.0205 -23.9795 46.0107 -23.7793
c19.5 -0.200195 39.0303 17.3096 65.3604 60.0498l60.0801 -50.1504c-35.5195 -55.5098 -70.3799 -109.74 -131.85 -110.25c-41.0596 0 -69.5498 23.4697 -94.5498 43.4297c-16.0195 12.4902 -33.5098 23.9805 -47.8301 23.8906zM692.258 699.999v-700h-133.08
l-336.25 458.15v-458.15h-145.08v700h133.08l336.25 -461.98v461.98h145.08z" />
    <glyph glyph-name="O" unicode="O" 
d="M427.87 714.01c218.39 0 360.12 -162.689 360.12 -363.979c0 -201.3 -141.73 -363.99 -360.12 -363.99c-216.94 0 -360.12 162.69 -360.12 363.99c0 202.67 143.18 363.979 360.12 363.979zM427.76 582.771c-123.39 0 -206.949 -97.2305 -206.949 -232.74
c0 -134.81 83.7197 -232.75 207.06 -232.75c123.51 0 207.06 97.9004 207.06 232.75c0 135.34 -83.4502 232.74 -207.17 232.74z" />
    <glyph glyph-name="Oacute" unicode="&#xd3;" 
d="M488.13 764.58h-133.029l128.02 172.93h145.05zM427.87 714.01c218.39 0 360.12 -162.689 360.12 -363.979c0 -201.3 -141.74 -363.99 -360.12 -363.99c-216.95 0 -360.13 162.69 -360.13 363.99c0 202.67 143.18 363.979 360.13 363.979zM427.761 582.771
c-123.38 0 -206.949 -97.2305 -206.949 -232.74c0 -134.81 83.71 -232.75 207.06 -232.75c123.5 0 207.06 97.9004 207.06 232.75c0 135.34 -83.4502 232.74 -207.17 232.74z" />
    <glyph glyph-name="Ocaron" unicode="&#x1d1;" 
d="M358.65 764.4l-141.07 172.6h136.09l73.9004 -100.98l73.8896 100.98h136.1l-141.06 -172.6h-137.85zM427.87 714.01c218.39 0 360.12 -162.689 360.12 -363.979c0 -201.3 -141.74 -363.99 -360.12 -363.99c-216.95 0 -360.13 162.69 -360.13 363.99
c0 202.67 143.18 363.979 360.13 363.979zM427.86 117.291c123.5 0 207.07 97.8896 207.07 232.739c0 135.34 -83.4502 232.75 -207.17 232.75c-123.39 0 -206.96 -97.2402 -206.96 -232.75c0 -134.81 83.7197 -232.739 207.06 -232.739z" />
    <glyph glyph-name="Ocircumflex" unicode="&#xd4;" 
d="M353.67 764.4h-136.079l141.06 172.6h137.85l141.06 -172.6h-136.1l-73.8896 100.99zM427.881 714.011c218.39 0 360.12 -162.689 360.12 -363.979c0 -201.3 -141.74 -363.99 -360.12 -363.99c-216.95 0 -360.13 162.69 -360.13 363.99
c0 202.67 143.18 363.979 360.13 363.979zM427.871 117.292c123.5 0 207.07 97.8896 207.07 232.739c0 135.34 -83.4502 232.75 -207.17 232.75c-123.39 0 -206.96 -97.2402 -206.96 -232.75c0 -134.81 83.7197 -232.739 207.06 -232.739z" />
    <glyph glyph-name="Ocircumflexacute" unicode="&#x1ed0;" 
d="M753.42 825h-133.029l128.02 172.92h145.05zM353.931 764.4h-136.089l141.06 172.6h137.85l141.06 -172.6h-136.09l-73.9004 100.98zM427.882 714.011c218.39 0 360.12 -162.689 360.12 -363.989c0 -201.29 -141.74 -363.98 -360.12 -363.98
c-216.95 0 -360.13 162.69 -360.13 363.98c0 202.68 143.18 363.989 360.13 363.989zM427.872 117.281c123.5 0 207.07 97.9004 207.07 232.75c0 135.34 -83.4502 232.74 -207.17 232.74c-123.39 0 -206.96 -97.2305 -206.96 -232.74
c0 -134.81 83.7197 -232.75 207.06 -232.75z" />
    <glyph glyph-name="Ocircumflexdotbelow" unicode="&#x1ed8;" 
d="M353.67 764.4h-136.079l141.06 172.6h137.85l141.06 -172.6h-136.1l-73.8896 100.99zM427.881 714.011c218.39 0 360.12 -162.689 360.12 -363.979c0 -201.3 -141.74 -363.99 -360.12 -363.99c-216.95 0 -360.13 162.69 -360.13 363.99
c0 202.67 143.18 363.979 360.13 363.979zM427.871 117.292c123.5 0 207.07 97.8896 207.07 232.739c0 135.34 -83.4502 232.75 -207.17 232.75c-123.39 0 -206.96 -97.2402 -206.96 -232.75c0 -134.81 83.7197 -232.739 207.06 -232.739zM427.771 -54.0078
c39.4502 0 71.4404 -31.9805 71.4404 -71.4404c0 -39.4502 -31.9902 -71.4404 -71.4404 -71.4404c-39.46 0 -71.4404 31.9902 -71.4404 71.4404c0 39.46 31.9805 71.4404 71.4404 71.4404z" />
    <glyph glyph-name="Ocircumflexgrave" unicode="&#x1ed2;" 
d="M655.28 825l-140.05 172.92h145.05l128.02 -172.92h-133.02zM353.671 764.4h-136.089l141.06 172.6h137.85l141.06 -172.6h-136.09l-73.9004 100.99zM427.872 714.011c218.39 0 360.12 -162.689 360.12 -363.979c0 -201.3 -141.73 -363.99 -360.12 -363.99
c-216.94 0 -360.12 162.69 -360.12 363.99c0 202.67 143.18 363.979 360.12 363.979zM427.872 117.292c123.51 0 207.061 97.8896 207.061 232.739c0 135.34 -83.4502 232.75 -207.17 232.75c-123.38 0 -206.95 -97.2402 -206.95 -232.75
c0 -134.81 83.71 -232.739 207.06 -232.739z" />
    <glyph glyph-name="Ocircumflexhookabove" unicode="&#x1ed4;" 
d="M708.55 1035.44c70.4902 0 132.14 -21.6299 132.14 -108.26c0 -62.7002 -32.8701 -80.46 -92.6504 -106.77c-16.7305 -7.61035 -24.79 -12.1904 -25.96 -24.8008l-88.5303 -0.0195312c0.200195 62.5898 23.8506 76.5195 69.1006 95.4697
c30.0801 13.5596 41.9199 21.2998 41.8398 36.5c-0.129883 18.5703 -17.9297 24.5205 -43.7695 24.3301c-21.75 0.0898438 -46.9697 -4.79004 -68.5 -10.3398l-40.3896 71.46c35.2305 15.1699 76.54 22.4297 116.72 22.4297zM353.409 764.4h-136.089l141.06 172.6h137.85
l141.06 -172.6h-136.09l-73.9004 100.99zM427.891 714.011c218.39 0 360.12 -162.689 360.12 -363.979c0 -201.3 -141.74 -363.99 -360.12 -363.99c-216.95 0 -360.13 162.69 -360.13 363.99c0 202.67 143.18 363.979 360.13 363.979zM427.881 117.292
c123.5 0 207.07 97.8896 207.07 232.739c0 135.34 -83.4502 232.75 -207.17 232.75c-123.39 0 -206.96 -97.2402 -206.96 -232.75c0 -134.81 83.7197 -232.739 207.06 -232.739z" />
    <glyph glyph-name="Ocircumflextilde" unicode="&#x1ed6;" 
d="M352.52 1021.2c-20.1699 0.0898438 -41.1719 -23.3408 -64.0215 -60.1709l-60.0898 50.1602c31.7598 50.6602 69.29 110.271 132.82 110.271c37.0195 0 65.6299 -21.04 94.0596 -43.4502c18.4902 -14.4697 32.0205 -23.9795 46.0107 -23.7793
c19.5 -0.200195 39.0303 17.3096 65.3701 60.0498l60.0703 -50.1504c-35.5098 -55.5098 -70.3701 -109.74 -131.84 -110.25c-41.0596 0 -69.5498 23.4697 -94.5498 43.4297c-16.0195 12.4902 -33.5098 23.9805 -47.8301 23.8906zM353.678 764.399h-136.079l141.06 172.6
h137.85l141.06 -172.6h-136.1l-73.8896 100.98zM427.889 714.01c218.39 0 360.12 -162.689 360.12 -363.989c0 -201.29 -141.74 -363.98 -360.12 -363.98c-216.95 0 -360.13 162.69 -360.13 363.98c0 202.68 143.18 363.989 360.13 363.989zM427.879 117.28
c123.5 0 207.07 97.9004 207.07 232.75c0 135.34 -83.4502 232.74 -207.17 232.74c-123.39 0 -206.96 -97.2305 -206.96 -232.74c0 -134.81 83.7197 -232.75 207.06 -232.75z" />
    <glyph glyph-name="Odieresis" unicode="&#xd6;" 
d="M317.12 917.99c39.46 0 71.4404 -31.9805 71.4404 -71.4404c0 -39.4502 -31.9805 -71.4404 -71.4404 -71.4404c-39.4502 0 -71.4404 31.9902 -71.4404 71.4404c0 39.46 31.9902 71.4404 71.4404 71.4404zM538.021 917.99c39.46 0 71.4404 -31.9805 71.4404 -71.4404
c0 -39.4502 -31.9805 -71.4404 -71.4404 -71.4404c-39.4502 0 -71.4404 31.9902 -71.4404 71.4404c0 39.46 31.9902 71.4404 71.4404 71.4404zM427.881 714.01c218.39 0 360.12 -162.689 360.12 -363.989c0 -201.29 -141.74 -363.98 -360.12 -363.98
c-216.95 0 -360.13 162.69 -360.13 363.98c0 202.68 143.18 363.989 360.13 363.989zM427.771 582.771c-123.38 0 -206.949 -97.2402 -206.949 -232.75c0 -134.81 83.71 -232.739 207.06 -232.739c123.5 0 207.06 97.8896 207.06 232.739
c0 135.34 -83.4502 232.75 -207.17 232.75z" />
    <glyph glyph-name="Odotbelow" unicode="&#x1ecc;" 
d="M427.87 714.01c218.39 0 360.12 -162.689 360.12 -363.979c0 -201.3 -141.73 -363.99 -360.12 -363.99c-216.94 0 -360.12 162.69 -360.12 363.99c0 202.67 143.18 363.979 360.12 363.979zM427.76 582.771c-123.39 0 -206.949 -97.2305 -206.949 -232.74
c0 -134.81 83.7197 -232.75 207.06 -232.75c123.51 0 207.06 97.9004 207.06 232.75c0 135.34 -83.4502 232.74 -207.17 232.74zM427.771 -54.0098c39.4502 0 71.4404 -31.9902 71.4404 -71.4404c0 -39.46 -31.9902 -71.4404 -71.4404 -71.4404
c-39.46 0 -71.4404 31.9805 -71.4404 71.4404c0 39.4502 31.9805 71.4404 71.4404 71.4404z" />
    <glyph glyph-name="Ograve" unicode="&#xd2;" 
d="M492.09 764.58h-133.029l-140.04 172.93h145.05zM427.881 714.01c218.39 0 360.12 -162.689 360.12 -363.979c0 -201.3 -141.74 -363.99 -360.12 -363.99c-216.95 0 -360.13 162.69 -360.13 363.99c0 202.67 143.18 363.979 360.13 363.979zM427.771 582.771
c-123.38 0 -206.949 -97.2305 -206.949 -232.74c0 -134.81 83.71 -232.75 207.06 -232.75c123.5 0 207.06 97.9004 207.06 232.75c0 135.34 -83.4502 232.74 -207.17 232.74z" />
    <glyph glyph-name="Ohookabove" unicode="&#x1ece;" 
d="M451.24 994.15c70.5 0 132.149 -21.6406 132.149 -108.261c0 -62.71 -32.8799 -80.4697 -92.6602 -106.779c-16.7305 -7.62012 -24.79 -12.1904 -25.96 -24.8008l-88.5303 -0.0195312c0.19043 62.5898 23.8506 76.5195 69.0908 95.4795
c30.0801 13.5596 41.9199 21.29 41.8398 36.5c-0.129883 18.5703 -17.9297 24.5107 -43.7598 24.3311c-21.7598 0.0898438 -46.9697 -4.79004 -68.5 -10.3398l-40.3896 71.46c35.2305 15.1602 76.54 22.4297 116.72 22.4297zM427.88 714
c218.39 0 360.12 -162.689 360.12 -363.979c0 -201.3 -141.73 -363.99 -360.12 -363.99c-216.94 0 -360.12 162.69 -360.12 363.99c0 202.67 143.18 363.979 360.12 363.979zM427.77 582.761c-123.39 0 -206.949 -97.2305 -206.949 -232.74
c0 -134.81 83.7197 -232.75 207.06 -232.75c123.51 0 207.06 97.9004 207.06 232.75c0 135.34 -83.4502 232.74 -207.17 232.74z" />
    <glyph glyph-name="Ohorn" unicode="&#x1a0;" 
d="M773.8 598.27c-16.1797 -11.29 -35.9795 -18.3105 -58.6992 -20.6406c46.8604 -62.3096 72.8408 -141.43 72.9004 -227.58c-0.129883 -201.68 -142.05 -364.029 -359.95 -364.029c-217.19 0 -360.301 162.84 -360.301 364.479c0 201.85 143.11 363.5 360.24 363.51
c78.46 0 146.99 -21.0098 202.601 -57.2598c27.4404 -6.92969 48.6104 -4.34961 61.71 5.51074c19.9697 15.3096 23.1396 51.9395 7.39941 99.7295l106.22 31.4902c30.0801 -91.6396 16.29 -161.87 -32.1201 -195.21zM427.75 117.278
c123.79 0 207.119 97.8096 207.179 232.93c-0.0595703 135.19 -83.3896 232.521 -207.359 232.551c-123.1 -0.0302734 -206.819 -97.2803 -206.76 -232.761c-0.0595703 -134.77 83.8008 -232.729 206.94 -232.72z" />
    <glyph glyph-name="Ohornacute" unicode="&#x1eda;" 
d="M488.13 764.58h-133.029l128.02 172.93h145.05zM773.801 598.271c-16.1699 -11.29 -35.9805 -18.2988 -58.6904 -20.6289c46.8799 -62.2998 72.8701 -141.42 72.8701 -227.62c0 -201.29 -141.73 -363.98 -360.12 -363.98c-216.94 0 -360.12 162.69 -360.12 363.98
c0 202.68 143.18 363.989 360.12 363.989c78.4697 0 147.04 -21 202.69 -57.25c27.46 -6.94043 48.6396 -4.36035 61.7393 5.5c19.9805 15.3096 23.1406 51.9395 7.40039 99.7295l106.23 31.4902c30.0801 -91.6396 16.2803 -161.87 -32.1201 -195.21zM427.851 117.281
c123.5 0 207.07 97.8896 207.07 232.739c0 135.34 -83.4502 232.75 -207.17 232.75c-123.39 0 -206.96 -97.2402 -206.96 -232.75c0 -134.81 83.7197 -232.739 207.06 -232.739z" />
    <glyph glyph-name="Ohorndotbelow" unicode="&#x1ee2;" 
d="M773.8 598.27c-16.1797 -11.2803 -35.9795 -18.2998 -58.6797 -20.6299c46.8701 -62.2998 72.8701 -141.42 72.8701 -227.62c0 -201.3 -141.74 -363.99 -360.12 -363.99c-216.95 0 -360.13 162.69 -360.13 363.99c0 202.67 143.18 363.979 360.13 363.979
c78.46 0 147.03 -21 202.69 -57.2402c27.4502 -6.9502 48.6406 -4.37012 61.7402 5.49023c19.9697 15.3203 23.1396 51.9502 7.39941 99.7402l106.22 31.4902c30.0801 -91.6504 16.29 -161.87 -32.1201 -195.21zM427.86 117.27c123.51 0 207.061 97.9004 207.061 232.75
c0 135.34 -83.4502 232.74 -207.17 232.74c-123.38 0 -206.95 -97.2305 -206.95 -232.74c0 -134.81 83.71 -232.75 207.06 -232.75zM427.751 -54.0205c39.46 0 71.4404 -31.9902 71.4404 -71.4404c0 -39.46 -31.9805 -71.4404 -71.4404 -71.4404
c-39.4502 0 -71.4404 31.9805 -71.4404 71.4404c0 39.4502 31.9902 71.4404 71.4404 71.4404z" />
    <glyph glyph-name="Ohorngrave" unicode="&#x1edc;" 
d="M359.06 764.58l-140.05 172.93h145.05l128.02 -172.93h-133.02zM773.8 598.27c-16.1699 -11.29 -35.9805 -18.2988 -58.6904 -20.6289c46.8799 -62.2998 72.8701 -141.42 72.8701 -227.62c0 -201.29 -141.73 -363.98 -360.12 -363.98
c-216.94 0 -360.12 162.69 -360.12 363.98c0 202.68 143.18 363.989 360.12 363.989c78.4697 0 147.04 -21 202.69 -57.25c27.46 -6.94043 48.6396 -4.36035 61.7393 5.5c19.9805 15.3096 23.1406 51.9395 7.40039 99.7295l106.23 31.4902
c30.0801 -91.6396 16.2803 -161.87 -32.1201 -195.21zM427.729 117.28c123.79 -0.00976562 207.119 97.8203 207.179 232.94c-0.0595703 135.18 -83.3896 232.52 -207.359 232.539c-123.1 -0.0195312 -206.819 -97.2793 -206.76 -232.749
c-0.0595703 -134.78 83.8008 -232.73 206.94 -232.73z" />
    <glyph glyph-name="Ohornhookabove" unicode="&#x1ede;" 
d="M438.51 910.6c-21.7598 0.0898438 -46.96 -4.78906 -68.4902 -10.3389l-40.3896 71.46c35.2305 15.1602 76.54 22.4297 116.72 22.4297c70.5 0 132.14 -21.6396 132.14 -108.26c0 -62.7002 -32.8799 -80.46 -92.6602 -106.78
c-16.7305 -7.61035 -24.79 -12.1904 -25.96 -24.8008l-88.5303 -0.0195312c0.19043 62.5996 23.8506 76.5293 69.0908 95.4795c30.0801 13.5596 41.9199 21.2998 41.8398 36.5c-0.129883 18.5703 -17.9297 24.5205 -43.7598 24.3301zM773.81 598.271
c-16.1797 -11.2803 -35.9795 -18.2998 -58.6797 -20.6299c46.8701 -62.2998 72.8701 -141.42 72.8701 -227.62c0 -201.3 -141.74 -363.99 -360.12 -363.99c-216.95 0 -360.13 162.69 -360.13 363.99c0 202.67 143.18 363.979 360.13 363.979
c78.46 0 147.03 -21 202.69 -57.2402c27.4502 -6.9502 48.6406 -4.37012 61.7402 5.49023c19.9697 15.3203 23.1396 51.9502 7.39941 99.7402l106.22 31.4902c30.0801 -91.6504 16.29 -161.87 -32.1201 -195.21zM427.87 117.271c123.51 0 207.061 97.9004 207.061 232.75
c0 135.34 -83.4502 232.74 -207.17 232.74c-123.38 0 -206.95 -97.2305 -206.95 -232.74c0 -134.81 83.71 -232.75 207.06 -232.75z" />
    <glyph glyph-name="Ohorntilde" unicode="&#x1ee0;" 
d="M352.52 832c-20.1699 0.0898438 -41.1719 -23.3408 -64.0215 -60.1709l-60.0898 50.1602c31.7598 50.6602 69.29 110.271 132.82 110.271c37.0195 0 65.6299 -21.04 94.0596 -43.4502c18.4902 -14.4697 32.0205 -23.9795 46.0107 -23.7793
c19.5 -0.200195 39.0303 17.3096 65.3701 60.0498l60.0703 -50.1504c-35.5098 -55.5098 -70.3701 -109.74 -131.84 -110.25c-41.0596 0 -69.5498 23.4697 -94.5498 43.4297c-16.0195 12.4902 -33.5098 23.9805 -47.8301 23.8906zM773.808 598.269
c-16.1797 -11.2803 -35.9795 -18.2998 -58.6797 -20.6299c46.8701 -62.2998 72.8701 -141.42 72.8701 -227.62c0 -201.3 -141.74 -363.99 -360.12 -363.99c-216.95 0 -360.13 162.69 -360.13 363.99c0 202.67 143.18 363.979 360.13 363.979
c78.46 0 147.03 -21 202.69 -57.2402c27.4502 -6.9502 48.6406 -4.37012 61.7402 5.49023c19.9697 15.3203 23.1396 51.9502 7.39941 99.7402l106.22 31.4902c30.0801 -91.6504 16.29 -161.87 -32.1201 -195.21zM427.868 117.269c123.51 0 207.061 97.9004 207.061 232.75
c0 135.34 -83.4502 232.74 -207.17 232.74c-123.38 0 -206.95 -97.2305 -206.95 -232.74c0 -134.81 83.71 -232.75 207.06 -232.75z" />
    <glyph glyph-name="Ohungarumlaut" unicode="&#x150;" 
d="M382.83 764.4h-126.16l130.9 172.6h138.46zM596.61 764.4h-126.16l130.9 172.6h138.46zM427.88 714.011c218.39 0 360.12 -162.689 360.12 -363.989c0 -201.29 -141.74 -363.98 -360.12 -363.98c-216.95 0 -360.13 162.69 -360.13 363.98
c0 202.68 143.18 363.989 360.13 363.989zM427.771 582.771c-123.38 0 -206.949 -97.2402 -206.949 -232.75c0 -134.81 83.71 -232.739 207.06 -232.739c123.5 0 207.06 97.8896 207.06 232.739c0 135.34 -83.4502 232.75 -207.17 232.75z" />
    <glyph glyph-name="Omacron" unicode="&#x14c;" 
d="M599.46 786.02h-343.79v107.56h343.79v-107.56zM427.87 714.01c218.39 0 360.12 -162.689 360.12 -363.989c0 -201.29 -141.74 -363.98 -360.12 -363.98c-216.95 0 -360.13 162.69 -360.13 363.98c0 202.68 143.18 363.989 360.13 363.989zM427.761 582.771
c-123.38 0 -206.949 -97.2402 -206.949 -232.75c0 -134.81 83.71 -232.739 207.06 -232.739c123.5 0 207.06 97.8896 207.06 232.739c0 135.34 -83.4502 232.75 -207.17 232.75z" />
    <glyph glyph-name="Oslash" unicode="&#xd8;" 
d="M673.42 750l-44.3584 -94.5283c98.3398 -64.8496 158.93 -177.33 158.93 -305.45c0 -201.29 -141.73 -363.98 -360.12 -363.98c-37.7803 0 -73.3301 4.92969 -106.28 14.1494l-23.5498 -50.2002h-115.72l43.7197 93.1602
c-99.4297 64.6104 -158.29 177.811 -158.29 306.87c0 202.68 143.18 363.989 360.12 363.989c37.4502 0 72.9697 -5.15039 106.069 -14.7402l23.7998 50.7305h115.68zM220.812 350.031c0 -72.8398 24.4395 -134.91 66.3691 -176.59l189.53 403.89
c-15.4697 3.58008 -31.8193 5.44043 -48.9492 5.44043c-123.38 0 -206.95 -97.2305 -206.95 -232.74zM427.881 117.291c123.51 0 207.061 97.8906 207.061 232.74c0 73.1104 -24.3496 135.15 -66.25 176.75l-189.59 -404.04
c15.4297 -3.58008 31.7197 -5.4502 48.7793 -5.4502z" />
    <glyph glyph-name="Otilde" unicode="&#xd5;" 
d="M361.22 932.26c37.0195 0 65.6377 -21.041 94.0674 -43.4512c18.4902 -14.4697 32.0205 -23.9795 46.0107 -23.7793c19.5 -0.200195 39.0303 17.3096 65.3604 60.0498l60.0801 -50.1504c-35.5195 -55.5098 -70.3799 -109.74 -131.85 -110.25
c-41.0596 0 -69.5498 23.4697 -94.5498 43.4297c-16.0195 12.4902 -33.5098 23.9805 -47.8301 23.8906c-20.1699 0.0898438 -41.1699 -23.3398 -64.0195 -60.1699l-60.0898 50.1602c31.7598 50.6602 69.29 110.271 132.82 110.271zM427.878 714.009
c218.39 0 360.12 -162.689 360.12 -363.989c0 -201.29 -141.74 -363.98 -360.12 -363.98c-216.95 0 -360.13 162.69 -360.13 363.98c0 202.68 143.18 363.989 360.13 363.989zM427.769 582.77c-123.38 0 -206.949 -97.2402 -206.949 -232.75
c0 -134.81 83.71 -232.739 207.06 -232.739c123.5 0 207.06 97.8896 207.06 232.739c0 135.34 -83.4502 232.75 -207.17 232.75z" />
    <glyph glyph-name="OE" unicode="&#x152;" horiz-adv-x="1191" 
d="M1145.95 123.2l-0.0107422 -123.209h-506.99v48.9404c-57.0996 -39.7002 -128.619 -62.8906 -211.079 -62.8906c-216.94 0 -360.12 162.69 -360.12 363.98c0 202.68 143.18 363.989 360.12 363.989c82.46 0 153.99 -23.1904 211.09 -62.9004v48.8896h496.99v-123.2
h-347.99v-148.64h309v-123.2h-309v-181.76h357.99zM427.869 117.281c123.5 0 207.07 97.8896 207.07 232.739c0 135.34 -83.4502 232.75 -207.17 232.75c-123.39 0 -206.96 -97.2402 -206.96 -232.75c0 -134.81 83.7197 -232.739 207.06 -232.739z" />
    <glyph glyph-name="P" unicode="P" horiz-adv-x="696" 
d="M191.56 700l244.189 -0.000976562c113.5 0.00976562 208.72 -91.4404 207.95 -229.99c0 -139.47 -95.2197 -229.989 -207.96 -229.989h-203.89v-240.02h-149v700h108.71zM499.949 470.209c0.389648 69.7803 -39.1797 106.6 -81.8193 106.6h-186.28v-213.91h186.28
c42.3096 0 81.8193 36.4502 81.8193 107.311z" />
    <glyph glyph-name="Thorn" unicode="&#xde;" horiz-adv-x="696" 
d="M231.85 590.48h203.899c113.5 0 208.72 -91.4404 207.95 -229.99c0 -139.48 -95.2197 -230 -207.96 -230h-203.89v-130.49h-149v700h149v-109.52zM499.949 360.69c0.389648 69.7695 -39.1797 106.59 -81.8193 106.59h-186.28v-213.91h186.28
c42.3096 0 81.8193 36.46 81.8193 107.32z" />
    <glyph glyph-name="Q" unicode="Q" 
d="M788 350.03c0 -120.42 -50.7295 -227.019 -138.229 -293.238l86.0098 -127.21l-137.42 -33.4805l-63.6504 104.11c-33.0498 -9.23047 -68.7803 -14.1709 -106.84 -14.1709c-216.94 0 -360.12 162.69 -360.12 363.99c0 202.67 143.18 364.689 360.12 363.979
c218.39 0 360.13 -162.69 360.13 -363.98zM427.87 117.291c11.5996 0 22.8594 0.859375 33.7197 2.53906l-76.6396 125.34l118.3 28.3096l66.7402 -98.7002c41.0801 41.6602 64.9502 103.17 64.9502 175.25c0 135.34 -83.4502 232.74 -207.17 232.74
c-123.39 0.490234 -206.96 -97.2295 -206.96 -232.739c0 -134.81 83.7197 -232.739 207.06 -232.739z" />
    <glyph glyph-name="R" unicode="R" horiz-adv-x="695" 
d="M365.67 266.67l-133.828 -0.000976562v-266.67h-149v700h89.8896h254.97c113.51 0 208.729 -86.1396 207.96 -216.659c0 -99.7197 -54.8496 -172.88 -130.58 -202.35l164.81 -280.99h-167.9zM231.842 389.569l183.939 0.000976562
c39.9502 0 76.1201 33.1797 76.1201 93.9795c0.360352 59.7598 -35.8398 93.25 -76.1094 93.25h-183.95v-187.23z" />
    <glyph glyph-name="Racute" unicode="&#x154;" horiz-adv-x="695" 
d="M407.85 764.58h-133.029l128.02 172.93h145.05zM365.67 266.68l-133.828 0.000976562v-266.68h-149v700h89.8896h254.97c113.51 0.00976562 208.729 -86.1406 207.96 -216.66c0 -99.7197 -54.8496 -172.87 -130.58 -202.351l164.81 -280.99h-167.9zM231.842 389.581
h183.939c39.9502 0 76.1201 33.1797 76.1201 93.9795c0.360352 59.7598 -35.8398 93.2402 -76.1094 93.2402h-183.95v-187.22z" />
    <glyph glyph-name="Rcaron" unicode="&#x158;" horiz-adv-x="695" 
d="M278.36 764.4l-141.07 172.6h136.1l73.8896 -100.99l73.9004 100.99h136.09l-141.06 -172.6h-137.85zM365.67 266.67l-133.83 -0.000976562v-266.67h-149v700h89.8799h254.98c113.51 0 208.729 -86.1396 207.96 -216.659c0 -99.7197 -54.8496 -172.88 -130.58 -202.35
l164.81 -280.99h-167.91zM231.84 389.569l183.94 0.000976562c39.9404 0 76.1201 33.1797 76.1201 93.9795c0.349609 59.7598 -35.8506 93.25 -76.1201 93.25h-183.94v-187.23z" />
    <glyph glyph-name="Rcommaaccent" unicode="&#x156;" horiz-adv-x="695" 
d="M669.9 0l-167.909 -0.000976562l-136.32 266.67h-133.82v-266.67h-149v700h89.8799h254.98c113.51 0 208.729 -86.1396 207.96 -216.659c0 -99.7197 -54.8496 -172.88 -130.58 -202.35zM231.841 389.569l183.939 0.000976562c39.9502 0 76.1201 33.1797 76.1201 93.9795
c0.360352 59.7598 -35.8398 93.25 -76.1094 93.25h-183.95v-187.23zM350.49 -50.5693c35.5303 0.169922 63.5703 -25.4502 69.9902 -67.1104c10.04 -65.75 -39.2998 -145.41 -101.22 -190.351l-46.4697 29.7002c31.8096 26.54 55.0693 56.4004 68.5791 94.2002
c-32.2803 3.66016 -58.6602 30.8398 -58.6406 66.3701c-0.0195312 37.71 29.6309 67.3604 67.7607 67.1904z" />
    <glyph glyph-name="S" unicode="S" horiz-adv-x="639" 
d="M327.88 714c106.41 0 194.94 -35.041 254.811 -89.0811l-80.9297 -99.4004c-42.0303 33.6904 -101.66 58.2402 -175.17 58.3301c-66.7002 -0.0898438 -112.431 -20.7998 -115.581 -80.3994c-1.75 -39.0996 17.8398 -52.6895 140.79 -85.8096
c105.55 -28.5098 244.02 -61.4297 245.039 -212.779c1.01953 -157.25 -150.29 -218.86 -274.8 -218.86c-106.96 0 -223.35 45.04 -281.84 119.93l83.8301 93.9004c43.7305 -53.5898 125.99 -84.6094 198.09 -84.3691c77.0801 -0.240234 121.23 34.3896 121.721 84.4395
c0.980469 52.4199 -42.0098 62.9502 -139.62 89.9697c-166.75 46.5498 -246 81.71 -246.21 206.09c0.209961 158.16 129.72 218.04 269.87 218.04z" />
    <glyph glyph-name="Sacute" unicode="&#x15a;" horiz-adv-x="639" 
d="M380.62 764.58h-133.029l128.02 172.93h145.05zM327.871 714c106.41 0 194.94 -35.041 254.811 -89.0811l-80.9297 -99.4004c-42.0303 33.6904 -101.66 58.2402 -175.17 58.3301c-66.7002 -0.0898438 -112.431 -20.7998 -115.581 -80.3994
c-1.75 -39.0996 17.8398 -52.6895 140.79 -85.8096c105.55 -28.5098 244.02 -61.4297 245.039 -212.779c1.01953 -157.25 -150.29 -218.86 -274.8 -218.86c-106.96 0 -223.35 45.04 -281.84 119.93l83.8301 93.9004c43.7305 -53.5898 125.99 -84.6094 198.09 -84.3691
c77.0801 -0.240234 121.23 34.3896 121.721 84.4395c0.980469 52.4199 -42.0098 62.9502 -139.62 89.9697c-166.75 46.5498 -246 81.71 -246.21 206.09c0.209961 158.16 129.72 218.04 269.87 218.04z" />
    <glyph glyph-name="Scaron" unicode="&#x160;" horiz-adv-x="639" 
d="M251.13 764.4l-141.07 172.6h136.09l73.9004 -100.99l73.8896 100.99h136.1l-141.06 -172.6h-137.85zM596.829 204.86c1.01953 -157.25 -150.29 -218.861 -274.8 -218.861c-106.96 0 -223.35 45.04 -281.84 119.93l83.8301 93.9102
c43.7305 -53.5996 125.99 -84.6094 198.09 -84.3789c77.0801 -0.230469 121.23 34.3896 121.721 84.4395c0.980469 52.4199 -42.0098 62.9502 -139.62 89.9697c-166.75 46.5498 -246 81.71 -246.21 206.1c0.209961 158.15 129.72 218.03 269.87 218.03
c106.41 0 194.94 -35.04 254.811 -89.0801l-80.9297 -99.4004c-42.0303 33.6904 -101.66 58.2402 -175.17 58.3301c-66.7002 -0.0898438 -112.431 -20.7998 -115.581 -80.3994c-1.75 -39.0996 17.8398 -52.6895 140.79 -85.8096
c105.55 -28.5098 244.02 -61.4297 245.039 -212.779z" />
    <glyph glyph-name="Scedilla" unicode="&#x15e;" horiz-adv-x="639" 
d="M596.84 204.86c0.919922 -142.04 -122.44 -206.041 -238.08 -217.091l-8.94043 -30.8096c2.96973 -0.30957 5.88965 -0.679688 8.75 -1.12012c59.9199 -8.83984 97.2002 -44.3301 97.04 -96.0098c0.179688 -60.1904 -51.1201 -106.32 -136.68 -107.83
c-47.6104 -1.03027 -106.9 12.0693 -140.271 28.6191l29.6797 63.9297c30.0801 -11.6201 65.2705 -17.7803 92.6504 -17.9707c33.4805 0.160156 47.6309 11.2803 47.8311 32.7803c-0.200195 18.3301 -10.1299 30.3496 -33.7998 30.1992
c-11.2803 0.179688 -35.4004 -3.9502 -48.5508 -9.2998l-19.8398 42.7402l31.2803 65.4805c-93.5098 10.3701 -187.2 52.7803 -237.71 117.45l83.8301 93.9102c43.7305 -53.5996 125.99 -84.6094 198.09 -84.3789c77.0801 -0.230469 121.23 34.3896 121.721 84.4395
c0.980469 52.4199 -42.0098 62.9502 -139.62 89.9697c-166.75 46.5498 -246 81.71 -246.21 206.1c0.209961 158.15 129.72 218.03 269.87 218.03c106.41 0 194.94 -35.04 254.811 -89.0801l-80.9297 -99.4004c-42.0303 33.6904 -101.66 58.2402 -175.17 58.3301
c-66.7002 -0.0898438 -112.431 -20.7998 -115.581 -80.3994c-1.75 -39.0996 17.8398 -52.6895 140.79 -85.8096c105.55 -28.5098 244.02 -61.4297 245.039 -212.779z" />
    <glyph glyph-name="Scommaaccent" unicode="&#x218;" horiz-adv-x="639" 
d="M327.88 714c106.41 0 194.94 -35.041 254.811 -89.0811l-80.9297 -99.4004c-42.0303 33.6904 -101.66 58.2402 -175.17 58.3301c-66.7002 -0.0898438 -112.431 -20.7998 -115.581 -80.3994c-1.75 -39.0996 17.8398 -52.6895 140.79 -85.8096
c105.55 -28.5098 244.02 -61.4297 245.039 -212.779c1.01953 -157.25 -150.29 -218.86 -274.8 -218.86c-106.96 0 -223.35 45.04 -281.84 119.93l83.8301 93.9004c43.7305 -53.5898 125.99 -84.6094 198.09 -84.3691c77.0801 -0.240234 121.23 34.3896 121.721 84.4395
c0.980469 52.4199 -42.0098 62.9502 -139.62 89.9697c-166.75 46.5498 -246 81.71 -246.21 206.09c0.209961 158.16 129.72 218.04 269.87 218.04zM320.38 -50.5605c35.5303 0.160156 63.5703 -25.46 69.9902 -67.1104c10.04 -65.7598 -39.2998 -145.42 -101.22 -190.35
l-46.4697 29.7002c31.8096 26.5303 55.0693 56.4004 68.5791 94.2002c-32.2803 3.65039 -58.6602 30.8301 -58.6406 66.3604c-0.0195312 37.7197 29.6309 67.3594 67.7607 67.1992z" />
    <glyph glyph-name="T" unicode="T" horiz-adv-x="617" 
d="M591.41 576.8h-208.399v-576.8h-149.51v576.8h-208.4v123.2h566.31v-123.2z" />
    <glyph glyph-name="Tbar" unicode="&#x166;" horiz-adv-x="617" 
d="M383.31 576.8l-0.00976562 -173.02h97.1396v-107.56h-97.1396v-296.22h-149.51v296.22h-97.1396v107.56h97.1396v173.02h-208.7v123.2h566.31v-123.2h-208.09z" />
    <glyph glyph-name="Tcaron" unicode="&#x164;" horiz-adv-x="617" 
d="M239.63 764.4l-141.07 172.6h136.09l73.9004 -100.99l73.8896 100.99h136.1l-141.06 -172.6h-137.85zM591.399 576.8h-208.399v-576.8h-149.51v576.8h-208.4v123.2h566.31v-123.2z" />
    <glyph glyph-name="Tcedilla" unicode="&#x162;" horiz-adv-x="617" 
d="M353.69 0l-12.4893 -43.04c2.96973 -0.30957 5.88965 -0.689453 8.75 -1.11914c59.9199 -8.84961 97.2002 -44.3398 97.04 -96.0195c0.179688 -60.1904 -51.1201 -106.311 -136.68 -107.82c-47.6104 -1.03027 -106.9 12.0693 -140.271 28.6094l29.6797 63.9297
c30.0801 -11.6104 65.2705 -17.7803 92.6504 -17.9707c33.4805 0.160156 47.6309 11.2803 47.8311 32.79c-0.200195 18.3203 -10.1299 30.3506 -33.7998 30.2002c-11.2803 0.179688 -35.4004 -3.95996 -48.5508 -9.2998l-19.8398 42.7402l36.79 77h-41.2998v576.8h-208.4
v123.2h566.31v-123.2h-208.4v-576.8h-29.3203z" />
    <glyph glyph-name="uni021A" unicode="&#x21a;" horiz-adv-x="617" 
d="M591.41 700l0.000976562 -123.2h-208.4v-576.8h-149.51v576.8h-208.4v123.2h566.31zM311.771 -50.5703c35.5303 0.169922 63.5703 -25.4502 69.9902 -67.1104c10.04 -65.75 -39.2998 -145.41 -101.22 -190.351l-46.4697 29.7002
c31.8096 26.54 55.0693 56.4004 68.5791 94.2002c-32.2803 3.66016 -58.6602 30.8398 -58.6406 66.3701c-0.0195312 37.71 29.6309 67.3604 67.7607 67.1904z" />
    <glyph glyph-name="U" unicode="U" horiz-adv-x="762" 
d="M684.16 700.11v-448.511c0 -162.41 -134.31 -265.48 -300.59 -265.48c-165.34 0 -300.729 103.07 -300.729 265.48v448.51l148.96 -0.110352v-448.4c0 -85.8701 64.5703 -137.89 151.7 -137.92c87.5596 0.0302734 151.699 51.9307 151.699 137.921v448.4z" />
    <glyph glyph-name="Uacute" unicode="&#xda;" horiz-adv-x="762" 
d="M442.93 764.58h-133.029l128.02 172.92h145.05zM684.16 700.11v-448.511c0 -162.41 -134.31 -265.48 -300.59 -265.48c-165.34 0 -300.729 103.07 -300.729 265.48v448.51l148.96 -0.110352v-448.4c0 -85.8701 64.5703 -137.89 151.7 -137.92
c87.5596 0.0302734 151.699 51.9307 151.699 137.921v448.4z" />
    <glyph glyph-name="Ucaron" unicode="&#x1d3;" horiz-adv-x="762" 
d="M313.44 764.4l-141.07 172.6h136.1l73.8896 -100.99l73.9004 100.99h136.09l-141.06 -172.6h-137.85zM684.16 700.11l-0.000976562 -448.5c0 -162.41 -134.31 -265.48 -300.6 -265.48c-165.33 0 -300.72 103.07 -300.72 265.48v448.5l148.96 -0.110352v-448.39
c0 -85.8701 64.5703 -137.89 151.7 -137.92c87.5498 0.0302734 151.7 51.9199 151.7 137.92v448.39z" />
    <glyph glyph-name="Ucircumflex" unicode="&#xdb;" horiz-adv-x="762" 
d="M308.47 764.4h-136.079l141.06 172.6h137.85l141.06 -172.6h-136.1l-73.8896 100.98zM684.171 700.11v-448.511c0 -162.41 -134.31 -265.48 -300.59 -265.48c-165.34 0 -300.729 103.07 -300.729 265.48v448.51l148.96 -0.110352v-448.4
c0 -85.8701 64.5703 -137.89 151.7 -137.92c87.5596 0.0302734 151.699 51.9307 151.699 137.921v448.4z" />
    <glyph glyph-name="Udieresis" unicode="&#xdc;" horiz-adv-x="762" 
d="M271.92 917.99c39.4502 0 71.4404 -31.9805 71.4404 -71.4404c0 -39.4502 -31.9902 -71.4404 -71.4404 -71.4404c-39.46 0 -71.4404 31.9902 -71.4404 71.4404c0 39.46 31.9805 71.4404 71.4404 71.4404zM492.82 917.99c39.4502 0 71.4404 -31.9805 71.4404 -71.4404
c0 -39.4502 -31.9902 -71.4404 -71.4404 -71.4404c-39.46 0 -71.4404 31.9902 -71.4404 71.4404c0 39.46 31.9805 71.4404 71.4404 71.4404zM684.17 700.11l-0.000976562 -448.5c0 -162.41 -134.31 -265.48 -300.6 -265.48c-165.33 0 -300.72 103.07 -300.72 265.48v448.5
l148.96 -0.110352v-448.39c0 -85.8701 64.5703 -137.89 151.7 -137.92c87.5498 0.0302734 151.7 51.9199 151.7 137.92v448.39z" />
    <glyph glyph-name="Udieresisacute" unicode="&#x1d7;" horiz-adv-x="762" 
d="M442.93 952.2h-133.029l128.02 172.93h145.05zM271.91 917.99c39.46 0 71.4404 -31.9902 71.4404 -71.4404c0 -39.46 -31.9805 -71.4404 -71.4404 -71.4404c-39.4502 0 -71.4404 31.9805 -71.4404 71.4404c0 39.4502 31.9902 71.4404 71.4404 71.4404zM492.811 917.99
c39.46 0 71.4404 -31.9902 71.4404 -71.4404c0 -39.46 -31.9805 -71.4404 -71.4404 -71.4404c-39.4502 0 -71.4404 31.9805 -71.4404 71.4404c0 39.4502 31.9902 71.4404 71.4404 71.4404zM684.16 700.11v-448.511c0 -162.41 -134.31 -265.48 -300.59 -265.48
c-165.34 0 -300.729 103.07 -300.729 265.48v448.51l148.96 -0.110352v-448.4c0 -85.8701 64.5703 -137.89 151.7 -137.92c87.5596 0.0302734 151.699 51.9307 151.699 137.921v448.4z" />
    <glyph glyph-name="Udieresiscaron" unicode="&#x1d9;" horiz-adv-x="762" 
d="M313.44 952.2l-141.07 172.6h136.1l73.8896 -100.98l73.9004 100.98h136.09l-141.06 -172.6h-137.85zM271.91 917.99c39.4502 0 71.4404 -31.9902 71.4404 -71.4404c0 -39.46 -31.9902 -71.4404 -71.4404 -71.4404c-39.46 0 -71.4404 31.9805 -71.4404 71.4404
c0 39.4502 31.9805 71.4404 71.4404 71.4404zM421.37 846.55c0 39.4502 31.9805 71.4404 71.4404 71.4404c39.4502 0 71.4404 -31.9902 71.4404 -71.4404c0 -39.46 -31.9902 -71.4404 -71.4404 -71.4404c-39.46 0 -71.4404 31.9805 -71.4404 71.4404zM684.15 700.109
v-448.511c0 -162.41 -134.31 -265.48 -300.59 -265.48c-165.34 0 -300.729 103.07 -300.729 265.48v448.51l148.96 -0.110352v-448.4c0 -85.8701 64.5703 -137.89 151.7 -137.92c87.5596 0.0302734 151.699 51.9307 151.699 137.921v448.4z" />
    <glyph glyph-name="Udieresisgrave" unicode="&#x1db;" horiz-adv-x="762" 
d="M446.88 952.2h-133.029l-140.04 172.93h145.05zM271.91 917.99c39.46 0 71.4404 -31.9902 71.4404 -71.4404c0 -39.46 -31.9805 -71.4404 -71.4404 -71.4404c-39.4502 0 -71.4404 31.9805 -71.4404 71.4404c0 39.4502 31.9902 71.4404 71.4404 71.4404zM492.811 917.99
c39.46 0 71.4404 -31.9902 71.4404 -71.4404c0 -39.46 -31.9805 -71.4404 -71.4404 -71.4404c-39.4502 0 -71.4404 31.9805 -71.4404 71.4404c0 39.4502 31.9902 71.4404 71.4404 71.4404zM684.16 700.11v-448.511c0 -162.41 -134.31 -265.48 -300.59 -265.48
c-165.34 0 -300.729 103.07 -300.729 265.48v448.51l148.96 -0.110352v-448.4c0 -85.8701 64.5703 -137.89 151.7 -137.92c87.5596 0.0302734 151.699 51.9307 151.699 137.921v448.4z" />
    <glyph glyph-name="Udieresismacron" unicode="&#x1d5;" horiz-adv-x="762" 
d="M554.26 971.34h-343.79v107.56h343.79v-107.56zM271.92 917.99c39.4502 0 71.4404 -31.9902 71.4404 -71.4404c0 -39.46 -31.9902 -71.4404 -71.4404 -71.4404c-39.46 0 -71.4404 31.9805 -71.4404 71.4404c0 39.4502 31.9805 71.4404 71.4404 71.4404zM492.82 917.99
c39.4502 0 71.4404 -31.9902 71.4404 -71.4404c0 -39.46 -31.9902 -71.4404 -71.4404 -71.4404c-39.46 0 -71.4404 31.9805 -71.4404 71.4404c0 39.4502 31.9805 71.4404 71.4404 71.4404zM684.17 700.11l-0.000976562 -448.511c0 -162.41 -134.31 -265.48 -300.6 -265.48
c-165.33 0 -300.72 103.07 -300.72 265.48v448.51l148.96 -0.110352v-448.4c0 -85.8701 64.5703 -137.89 151.7 -137.92c87.5498 0.0302734 151.7 51.9307 151.7 137.921v448.4z" />
    <glyph glyph-name="Udotbelow" unicode="&#x1ee4;" horiz-adv-x="762" 
d="M684.16 700.11v-448.511c0 -162.41 -134.31 -265.48 -300.59 -265.48c-165.34 0 -300.729 103.07 -300.729 265.48v448.51l148.96 -0.110352v-448.4c0 -85.8701 64.5703 -137.89 151.7 -137.92c87.5596 0.0302734 151.699 51.9307 151.699 137.921v448.4z
M383.57 -54.0205c39.4502 0 71.4404 -31.9805 71.4404 -71.4404c0 -39.4502 -31.9902 -71.4404 -71.4404 -71.4404c-39.46 0 -71.4404 31.9902 -71.4404 71.4404c0 39.46 31.9805 71.4404 71.4404 71.4404z" />
    <glyph glyph-name="Ugrave" unicode="&#xd9;" horiz-adv-x="762" 
d="M446.88 764.58h-133.029l-140.04 172.92h145.05zM684.16 700.11l-0.000976562 -448.511c0 -162.41 -134.31 -265.48 -300.6 -265.48c-165.33 0 -300.72 103.07 -300.72 265.48v448.51l148.96 -0.110352v-448.4c0 -85.8701 64.5703 -137.89 151.7 -137.92
c87.5498 0.0302734 151.7 51.9307 151.7 137.921v448.4z" />
    <glyph glyph-name="Uhookabove" unicode="&#x1ee6;" horiz-adv-x="762" 
d="M404.71 994.15c70.4902 0 132.139 -21.6406 132.139 -108.261c0 -62.71 -32.8701 -80.4697 -92.6602 -106.779c-16.7305 -7.62012 -24.79 -12.1904 -25.96 -24.8008l-88.5303 -0.0195312c0.200195 62.5898 23.8506 76.5195 69.1006 95.4795
c30.0801 13.5596 41.9199 21.29 41.8398 36.5c-0.129883 18.5703 -17.9297 24.5107 -43.7695 24.3311c-21.75 0.0898438 -46.9697 -4.79004 -68.4893 -10.3398l-40.4004 71.46c35.2305 15.1602 76.54 22.4297 116.73 22.4297zM684.169 700.1v-448.5
c0 -162.41 -134.31 -265.48 -300.59 -265.48c-165.34 0 -300.729 103.07 -300.729 265.48v448.5l148.96 -0.110352v-448.39c0 -85.8701 64.5703 -137.89 151.7 -137.92c87.5596 0.0302734 151.699 51.9199 151.699 137.92v448.39z" />
    <glyph glyph-name="Uhorn" unicode="&#x1af;" horiz-adv-x="762" 
d="M717.45 788.92l106.6 31.2686c21.7002 -81.5996 6.56055 -143.949 -38.1992 -174.759c-25.7002 -17.9297 -60.5303 -25.0801 -101.69 -19.7803v-374.04c0 -162.41 -134.31 -265.48 -300.59 -265.48c-165.34 0 -300.729 103.07 -300.729 265.48v448.51l148.96 -0.110352
v-448.4c0 -85.8701 64.5703 -137.89 151.7 -137.92c87.5596 0.0302734 151.699 51.9307 151.699 137.921v448.4h137.34c13.2402 0.200195 23.9707 3.49023 31.8203 9.40039c17.0498 13.0801 21.8594 41.6602 13.0898 79.5098z" />
    <glyph glyph-name="Uhornacute" unicode="&#x1ee8;" horiz-adv-x="762" 
d="M442.93 764.58h-133.029l128.02 172.92h145.05zM717.45 788.91l106.601 31.2695c21.7002 -81.5996 6.56055 -143.949 -38.1992 -174.759c-25.7002 -17.9297 -60.5303 -25.0801 -101.69 -19.7803v-374.04c0 -162.41 -134.31 -265.48 -300.59 -265.48
c-165.34 0 -300.729 103.07 -300.729 265.48v448.51l148.96 -0.110352v-448.4c0 -85.8701 64.5703 -137.89 151.7 -137.92c87.5596 0.0302734 151.699 51.9307 151.699 137.921v448.4l140.43 0.0996094c11.8203 0.639648 21.5 3.85938 28.7197 9.2998
c17.0596 13.0801 21.8691 41.6602 13.0996 79.5098z" />
    <glyph glyph-name="Uhorndotbelow" unicode="&#x1ef0;" horiz-adv-x="762" 
d="M717.45 788.92l106.608 31.2695c21.6904 -81.5996 6.55078 -143.949 -38.1992 -174.77c-25.7002 -17.9297 -60.54 -25.0693 -101.69 -19.7793v-374.03c0 -162.41 -134.31 -265.48 -300.6 -265.48c-165.33 0 -300.72 103.07 -300.72 265.48v448.5l148.96 -0.110352
v-448.39c0 -85.8701 64.5703 -137.89 151.7 -137.92c87.5498 0.0302734 151.7 51.9199 151.7 137.92v448.39l140.42 0.110352c11.8301 0.629883 21.5 3.84961 28.7305 9.2998c17.0498 13.0801 21.8594 41.6602 13.0898 79.5098zM383.568 -54.0107
c39.46 0 71.4404 -31.9805 71.4404 -71.4404c0 -39.4502 -31.9805 -71.4404 -71.4404 -71.4404c-39.4502 0 -71.4404 31.9902 -71.4404 71.4404c0 39.46 31.9902 71.4404 71.4404 71.4404z" />
    <glyph glyph-name="Uhorngrave" unicode="&#x1eea;" horiz-adv-x="762" 
d="M313.86 764.58l-140.05 172.92h145.05l128.02 -172.92h-133.02zM717.45 788.92l106.601 31.2695c21.7002 -81.5996 6.56055 -143.949 -38.1992 -174.77c-25.7002 -17.9297 -60.5303 -25.0693 -101.69 -19.7793v-374.03c0 -162.41 -134.31 -265.48 -300.59 -265.48
c-165.34 0 -300.729 103.07 -300.729 265.48v448.5l148.96 -0.110352v-448.39c0 -85.8701 64.5703 -137.89 151.7 -137.92c87.5596 0.0302734 151.699 51.9199 151.699 137.92v448.39l140.43 0.110352c11.8203 0.629883 21.5 3.84961 28.7197 9.2998
c17.0596 13.0801 21.8691 41.6602 13.0996 79.5098z" />
    <glyph glyph-name="Uhornhookabove" unicode="&#x1eec;" horiz-adv-x="762" 
d="M396.87 910.6c-21.75 0.0898438 -46.9609 -4.78906 -68.4805 -10.3389l-40.4004 71.46c35.2305 15.1602 76.54 22.4297 116.73 22.4297c70.4902 0 132.13 -21.6396 132.13 -108.26c0 -62.7002 -32.8701 -80.46 -92.6602 -106.78
c-16.7305 -7.61035 -24.79 -12.1904 -25.96 -24.8008l-88.5303 -0.0195312c0.200195 62.5996 23.8506 76.5293 69.1006 95.4795c30.0801 13.5596 41.9199 21.2998 41.8398 36.5c-0.129883 18.5703 -17.9297 24.5205 -43.7695 24.3301zM717.459 788.91l106.608 31.2695
c21.6904 -81.5996 6.55078 -143.949 -38.1992 -174.759c-25.7002 -17.9297 -60.54 -25.0801 -101.69 -19.7803v-374.04c0 -162.41 -134.31 -265.48 -300.6 -265.48c-165.33 0 -300.72 103.07 -300.72 265.48v448.51l148.96 -0.110352v-448.4
c0 -85.8701 64.5703 -137.89 151.7 -137.92c87.5498 0.0302734 151.7 51.9307 151.7 137.921v448.4l140.42 0.0996094c11.8301 0.639648 21.5 3.85938 28.7305 9.2998c17.0498 13.0801 21.8594 41.6602 13.0898 79.5098z" />
    <glyph glyph-name="Uhorntilde" unicode="&#x1eee;" horiz-adv-x="762" 
d="M307.31 832c-20.1699 0.0898438 -41.1621 -23.3408 -64.0117 -60.1709l-60.0898 50.1602c31.7598 50.6602 69.29 110.271 132.82 110.271c37.0195 0 65.6299 -21.04 94.0596 -43.4502c18.4902 -14.4697 32.0205 -23.9795 46.0107 -23.7793
c19.5 -0.200195 39.0303 17.3096 65.3604 60.0498l60.0801 -50.1504c-35.5195 -55.5098 -70.3799 -109.74 -131.85 -110.25c-41.0596 0 -69.5498 23.4697 -94.5498 43.4297c-16.0195 12.4902 -33.5098 23.9805 -47.8301 23.8906zM717.457 788.919l106.601 31.2695
c21.7002 -81.5996 6.56055 -143.949 -38.1992 -174.77c-25.7002 -17.9297 -60.5303 -25.0693 -101.69 -19.7793v-374.03c0 -162.41 -134.31 -265.48 -300.59 -265.48c-165.34 0 -300.729 103.07 -300.729 265.48v448.5l148.96 -0.110352v-448.39
c0 -85.8701 64.5703 -137.89 151.7 -137.92c87.5596 0.0302734 151.699 51.9199 151.699 137.92v448.39l140.43 0.110352c11.8203 0.629883 21.5 3.84961 28.7197 9.2998c17.0596 13.0801 21.8691 41.6602 13.0996 79.5098z" />
    <glyph glyph-name="Uhungarumlaut" unicode="&#x170;" horiz-adv-x="762" 
d="M337.63 764.4h-126.17l130.91 172.6h138.46zM551.41 764.4h-126.17l130.91 172.6h138.46zM684.16 700.11v-448.511c0 -162.41 -134.31 -265.48 -300.59 -265.48c-165.34 0 -300.729 103.07 -300.729 265.48v448.51l148.96 -0.110352v-448.4
c0 -85.8701 64.5703 -137.89 151.7 -137.92c87.5596 0.0302734 151.699 51.9307 151.699 137.921v448.4z" />
    <glyph glyph-name="Umacron" unicode="&#x16a;" horiz-adv-x="762" 
d="M554.26 786.02h-343.79v107.56h343.79v-107.56zM684.16 700.109v-448.5c0 -162.41 -134.31 -265.48 -300.59 -265.48c-165.34 0 -300.729 103.07 -300.729 265.48v448.5l148.96 -0.110352v-448.39c0 -85.8701 64.5703 -137.89 151.7 -137.92
c87.5596 0.0302734 151.699 51.9199 151.699 137.92v448.39z" />
    <glyph glyph-name="Uogonek" unicode="&#x172;" horiz-adv-x="762" 
d="M543.33 -109.59l0.0517578 -0.0205078c14.0195 -0.259766 33.6191 2.48047 50.3096 10.5107l25.5596 -70.2002c-29.8203 -19.5 -72.1006 -29.0098 -108.801 -29.2695c-65.7197 0.25 -127.189 34.25 -127.699 97.8496c0.30957 33.5498 17.3291 63.6494 42.3887 89.0391
c-13.5801 -1.45996 -27.4502 -2.2002 -41.5498 -2.2002c-165.33 0 -300.72 103.07 -300.72 265.48v448.51l148.96 -0.110352v-448.39c0 -85.8701 64.5703 -137.89 151.7 -137.89c87.5498 0 151.689 51.9004 151.689 137.9v448.39l148.96 0.110352v-448.51
c0 -102.71 -53.7197 -181.69 -135.27 -225.87c-29.4502 -20.0098 -62.5098 -49.2793 -62.7998 -89.3096c0.320312 -33.5 24.5801 -46.2803 57.2197 -46.0205z" />
    <glyph glyph-name="Uring" unicode="&#x16e;" horiz-adv-x="762" 
d="M382.37 996.57c80.75 0 133.15 -57.3594 133.15 -128.34c0 -70.9697 -52.4004 -128.34 -133.15 -128.34c-80.2197 0 -133.16 57.3701 -133.16 128.34c0 72.2305 52.9404 128.83 133.16 128.34zM381.93 923.182c-27.7695 0.160156 -49.8291 -20.7295 -49.8291 -54.96
c0 -33.8203 21.7197 -54.9404 50.2598 -54.9404c28.7998 0 50.2598 20.9805 50.2598 54.9502c0 33.96 -21.46 54.9502 -50.6904 54.9502zM684.16 700.102v-448.5c0 -162.41 -134.31 -265.48 -300.59 -265.48c-165.34 0 -300.729 103.07 -300.729 265.48v448.5
l148.96 -0.110352v-448.39c0 -85.8701 64.5703 -137.89 151.7 -137.92c87.5596 0.0302734 151.699 51.9199 151.699 137.92v448.39z" />
    <glyph glyph-name="Utilde" unicode="&#x168;" horiz-adv-x="762" 
d="M316.02 932.26c37.0195 0 65.6377 -21.041 94.0674 -43.4512c18.4902 -14.4697 32.0205 -23.9795 46.0107 -23.7793c19.5 -0.200195 39.0303 17.3096 65.3604 60.0498l60.0801 -50.1504c-35.5195 -55.5098 -70.3799 -109.74 -131.85 -110.25
c-41.0596 0 -69.5498 23.4697 -94.5498 43.4297c-16.0195 12.4902 -33.5098 23.9805 -47.8301 23.8906c-20.1699 0.0898438 -41.1699 -23.3398 -64.0195 -60.1699l-60.0898 50.1602c31.7598 50.6602 69.29 110.271 132.82 110.271zM684.167 700.108v-448.511
c0 -162.41 -134.31 -265.48 -300.59 -265.48c-165.34 0 -300.729 103.07 -300.729 265.48v448.51l148.96 -0.110352v-448.4c0 -85.8701 64.5703 -137.89 151.7 -137.92c87.5596 0.0302734 151.699 51.9307 151.699 137.921v448.4z" />
    <glyph glyph-name="V" unicode="V" horiz-adv-x="717" 
d="M444.1 0h-170.809l-248.19 700h161.39l172.2 -529.24l172.21 529.24h161.39z" />
    <glyph glyph-name="W" unicode="W" horiz-adv-x="1038" 
d="M829.53 0h-177.999l-132.51 494.4l-132.51 -494.4h-178l-183.41 700h161.39l116.98 -505.5l130.52 505.5h170.06l130.52 -505.5l116.98 505.5h161.39z" />
    <glyph glyph-name="Wacute" unicode="&#x1e82;" horiz-adv-x="1038" 
d="M579.57 764.58h-133.029l128.02 172.93h145.05zM829.521 0h-177.999l-132.51 494.4l-132.51 -494.4h-177.99l-183.42 700h161.39l116.99 -505.5l130.52 505.5h170.05l130.52 -505.5l116.99 505.5h161.39z" />
    <glyph glyph-name="Wcircumflex" unicode="&#x174;" horiz-adv-x="1038" 
d="M445.11 764.4h-136.079l141.06 172.6h137.85l141.06 -172.6h-136.1l-73.8896 100.98zM1012.95 700l-183.419 -700h-178l-132.51 494.4l-132.51 -494.4h-177.99l-183.42 700h161.39l116.99 -505.5l130.52 505.5h170.05l130.52 -505.5l116.99 505.5h161.39z" />
    <glyph glyph-name="Wdieresis" unicode="&#x1e84;" horiz-adv-x="1038" 
d="M408.56 917.99c39.4502 0 71.4404 -31.9805 71.4404 -71.4404c0 -39.4502 -31.9902 -71.4404 -71.4404 -71.4404c-39.46 0 -71.4404 31.9902 -71.4404 71.4404c0 39.46 31.9805 71.4404 71.4404 71.4404zM629.46 917.99c39.4502 0 71.4404 -31.9805 71.4404 -71.4404
c0 -39.4502 -31.9902 -71.4404 -71.4404 -71.4404c-39.46 0 -71.4404 31.9902 -71.4404 71.4404c0 39.46 31.9805 71.4404 71.4404 71.4404zM829.53 0h-177.999l-132.51 494.4l-132.51 -494.4h-178l-183.41 700h161.39l116.98 -505.5l130.52 505.5h170.06l130.52 -505.5
l116.98 505.5h161.39z" />
    <glyph glyph-name="Wgrave" unicode="&#x1e80;" horiz-adv-x="1038" 
d="M583.52 764.58h-133.02l-140.04 172.93h145.05zM829.53 0h-177.999l-132.51 494.4l-132.51 -494.4h-178l-183.41 700h161.39l116.98 -505.5l130.52 505.5h170.06l130.52 -505.5l116.98 505.5h161.39z" />
    <glyph glyph-name="X" unicode="X" horiz-adv-x="739" 
d="M467 353.82l246.75 -353.819h-177.75l-169.85 248.81l-164.84 -248.81h-176.21l246.81 358.97l-234.81 340.89l177.64 0.139648l158.02 -234.08l152.88 234.08l176.11 -0.139648z" />
    <glyph glyph-name="Y" unicode="Y" horiz-adv-x="721" 
d="M433.24 253.07v-253.069h-149v252.27l-259.14 447.59l167.29 0.139648l168.04 -301.73l168.67 301.73l167.29 -0.139648z" />
    <glyph glyph-name="Yacute" unicode="&#xdd;" horiz-adv-x="721" 
d="M422.81 764.58h-133.029l128.02 172.93h145.05zM433.24 253.07v-253.069h-149v252.27l-259.14 447.59l167.29 0.139648l168.04 -301.73l168.67 301.73l167.29 -0.139648z" />
    <glyph glyph-name="Ycircumflex" unicode="&#x176;" horiz-adv-x="721" 
d="M288.35 764.4h-136.079l141.06 172.6h137.85l141.06 -172.6h-136.1l-73.8896 100.98zM433.251 253.07v-253.069h-149v252.27l-259.14 447.59l167.29 0.139648l168.04 -301.73l168.67 301.73l167.29 -0.139648z" />
    <glyph glyph-name="Ydieresis" unicode="&#x178;" horiz-adv-x="721" 
d="M251.8 775.11c-39.46 0 -71.4404 31.9902 -71.4404 71.4404c0 39.46 31.9805 71.4404 71.4404 71.4404c39.4502 0 71.4404 -31.9805 71.4404 -71.4404c0 -39.4502 -31.9902 -71.4404 -71.4404 -71.4404zM472.7 775.11c-39.46 0 -71.4404 31.9902 -71.4404 71.4404
c0 39.46 31.9805 71.4404 71.4404 71.4404c39.4502 0 71.4404 -31.9805 71.4404 -71.4404c0 -39.4502 -31.9902 -71.4404 -71.4404 -71.4404zM433.24 253.07v-253.069h-149v252.27l-259.14 447.59l167.29 0.139648l168.04 -301.73l168.67 301.73l167.29 -0.139648z" />
    <glyph glyph-name="Ydotbelow" unicode="&#x1ef4;" horiz-adv-x="721" 
d="M284.24 0v252.271l-259.14 447.59l167.29 0.139648l168.04 -301.73l168.67 301.73l167.29 -0.139648l-263.15 -446.79v-253.07h-149zM362.58 -54.0098c39.46 0 71.4404 -31.9902 71.4404 -71.4404c0 -39.46 -31.9805 -71.4404 -71.4404 -71.4404
c-39.4502 0 -71.4404 31.9805 -71.4404 71.4404c0 39.4502 31.9902 71.4404 71.4404 71.4404z" />
    <glyph glyph-name="Ygrave" unicode="&#x1ef2;" horiz-adv-x="721" 
d="M293.74 764.58l-140.05 172.93h145.05l128.02 -172.93h-133.02zM433.23 253.08l0.00976562 -253.08h-149v252.28l-259.14 447.58l167.29 0.139648l168.03 -301.72l168.67 301.72l167.29 -0.139648z" />
    <glyph glyph-name="Yhookabove" unicode="&#x1ef6;" horiz-adv-x="721" 
d="M370.32 910.6c-21.7598 0.0898438 -46.96 -4.78906 -68.4902 -10.3389l-40.3896 71.46c35.2305 15.1602 76.54 22.4297 116.72 22.4297c70.5 0 132.14 -21.6396 132.14 -108.26c0 -62.7002 -32.8799 -80.46 -92.6602 -106.78
c-16.7305 -7.61035 -24.79 -12.1904 -25.96 -24.8008l-88.5303 -0.0195312c0.19043 62.5996 23.8506 76.5293 69.0908 95.4795c30.0801 13.5596 41.9199 21.2998 41.8398 36.5c-0.129883 18.5703 -17.9297 24.5205 -43.7598 24.3301zM433.25 253.07l0.00976562 -253.08h-149
v252.28l-259.14 447.58l167.29 0.139648l168.03 -301.72l168.67 301.72l167.29 -0.139648z" />
    <glyph glyph-name="Ytilde" unicode="&#x1ef8;" horiz-adv-x="721" 
d="M287.19 832c-20.1699 0.0898438 -41.1621 -23.3408 -64.0117 -60.1709l-60.0898 50.1602c31.7598 50.6602 69.29 110.271 132.82 110.271c37.0195 0 65.6299 -21.04 94.0596 -43.4502c18.4902 -14.4697 32.0205 -23.9795 46.0107 -23.7793
c19.5 -0.200195 39.0303 17.3096 65.3604 60.0498l60.0801 -50.1504c-35.5195 -55.5098 -70.3799 -109.74 -131.85 -110.25c-41.0596 0 -69.5498 23.4697 -94.5498 43.4297c-16.0195 12.4902 -33.5098 23.9805 -47.8301 23.8906zM433.238 253.069l0.00976562 -253.069h-149
v252.27l-259.14 447.59l167.29 0.139648l168.03 -301.73l168.67 301.73l167.29 -0.139648z" />
    <glyph glyph-name="Z" unicode="Z" horiz-adv-x="626" 
d="M583.36 0l-540.46 0.000976562l-0.259766 98.9697l342.08 477.83h-317.23v123.2h505.63v-99.4004l-341.74 -477.4h351.98v-123.2z" />
    <glyph glyph-name="Zacute" unicode="&#x179;" horiz-adv-x="626" 
d="M373.68 764.58h-133.029l128.02 172.93h145.05zM583.36 0l-540.46 0.000976562l-0.259766 98.9697l342.08 477.83h-317.23v123.2h505.63v-99.4004l-341.74 -477.4h351.98v-123.2z" />
    <glyph glyph-name="Zcaron" unicode="&#x17d;" horiz-adv-x="626" 
d="M244.19 764.4l-141.07 172.6h136.09l73.9004 -100.99l73.8896 100.99h136.1l-141.06 -172.6h-137.85zM583.351 0l-540.46 0.000976562l-0.259766 98.9697l342.08 477.83h-317.23v123.2h505.63v-99.4004l-341.74 -477.4h351.98v-123.2z" />
    <glyph glyph-name="Zdotaccent" unicode="&#x17b;" horiz-adv-x="626" 
d="M313.11 775.11c-39.4502 0 -71.4404 31.9902 -71.4404 71.4404c0 39.46 31.9902 71.4404 71.4404 71.4404c39.46 0 71.4404 -31.9805 71.4404 -71.4404c0 -39.4502 -31.9805 -71.4404 -71.4404 -71.4404zM583.36 0l-540.46 0.000976562l-0.259766 98.9697l342.08 477.83
h-317.23v123.2h505.63v-99.4004l-341.74 -477.4h351.98v-123.2z" />
    <glyph glyph-name="a" unicode="a" horiz-adv-x="627" 
d="M564.71 500v-500h-139.98v53.6201c-49.9697 -46.9502 -107.25 -67.6201 -161.08 -67.6201c-127 0 -216 117 -216 264s89 264 216 264c53.8301 0 111.11 -20.6797 161.08 -67.6299v53.6299h139.98zM294.63 104.25c39.5498 0.0703125 90.6201 19.9629 130.09 59.2324
v173.04c-39.4697 39.2695 -90.54 59.1592 -130.09 59.2295c-65.3203 -0.0703125 -104.96 -57.3506 -104.96 -145.751s38.1797 -145.681 104.96 -145.751z" />
    <glyph glyph-name="a.ss01" horiz-adv-x="597" 
d="M310.97 514c119.88 0 223.779 -52.0107 223.699 -184.591v-329.42h-139.9v54.9102c-49.0498 -46.3896 -112.899 -68.6494 -170.499 -68.7393c-95.0596 -0.169922 -181.949 59.7002 -181.719 173.47c-0.219727 119.36 97.7002 158.36 219.07 155.36
c45.5596 -1.09961 91.1992 -8.08984 133.149 -17.1494v25.4902c0 54.3896 -38.8096 76.9697 -98.5098 76.9297c-52.4902 -0.0400391 -113.351 -17.4004 -158.301 -48.0205l-60.8203 88.7598c58.9902 46 146.91 73 233.83 73zM267.669 100.329
c49.4805 0.0800781 91.7988 17.5195 127.099 49.9199v58.3496c-38.21 9.15039 -79.0098 15.9199 -115.609 16.2402c-53.1602 0.459961 -94.3301 -12.3604 -94.3896 -57.6504c0.0595703 -42.0195 23.29 -66.7695 82.9004 -66.8594z" />
    <glyph glyph-name="aacute" unicode="&#xe1;" horiz-adv-x="627" 
d="M386.77 564.58h-133.029l128.02 172.93h145.05zM564.7 500v-500h-139.98v53.6201c-49.96 -46.9502 -107.24 -67.6201 -161.08 -67.6201c-127 0 -216 117 -216 264s89 264 216 264c53.8398 0 111.12 -20.6797 161.08 -67.6299v53.6299h139.98zM294.63 104.25
c39.54 0.0703125 90.6211 19.9629 130.091 59.2324v173.04c-39.4697 39.2695 -90.5498 59.1592 -130.09 59.2295c-65.3203 -0.0703125 -104.971 -57.3506 -104.971 -145.751s38.1797 -145.681 104.97 -145.751z" />
    <glyph glyph-name="aacute.ss01" horiz-adv-x="597" 
d="M364.89 564.58h-133.029l128.02 172.93h145.05zM310.971 514c119.88 0 223.779 -52.0107 223.699 -184.591v-329.42h-139.9v54.9102c-49.0498 -46.3896 -112.899 -68.6494 -170.499 -68.7393c-95.0596 -0.169922 -181.949 59.7002 -181.719 173.47
c-0.219727 119.36 97.7002 158.36 219.07 155.36c45.5596 -1.09961 91.1992 -8.08984 133.149 -17.1494v25.4902c0 54.3896 -38.8096 76.9697 -98.5098 76.9297c-52.4902 -0.0400391 -113.351 -17.4004 -158.301 -48.0205l-60.8203 88.7598c58.9902 46 146.91 73 233.83 73z
M267.67 100.329c49.4805 0.0800781 91.7988 17.5195 127.099 49.9199v58.3496c-38.21 9.15039 -79.0098 15.9199 -115.609 16.2402c-53.1602 0.459961 -94.3301 -12.3604 -94.3896 -57.6504c0.0595703 -42.0195 23.29 -66.7695 82.9004 -66.8594z" />
    <glyph glyph-name="abreve" unicode="&#x103;" horiz-adv-x="627" 
d="M326.21 564.04c-114.37 0 -189.859 74.6689 -189.859 167.059l101.05 0.00976562c0 -46.46 38.3799 -75.4697 88.8096 -75.4697c50.8799 0 88.7998 28.8203 88.7998 75.4707l101.05 -0.00976562c0 -92.3896 -74.7197 -167.06 -189.85 -167.06zM564.711 499.999v-500
h-139.98v53.6201c-49.9697 -46.9502 -107.25 -67.6201 -161.08 -67.6201c-127 0 -216 117 -216 264s89 264 216 264c53.8301 0 111.11 -20.6797 161.08 -67.6299v53.6299h139.98zM294.631 104.249c39.5498 0.0703125 90.6201 19.9629 130.09 59.2324v173.04
c-39.4697 39.2695 -90.54 59.1592 -130.09 59.2295c-65.3203 -0.0703125 -104.96 -57.3506 -104.96 -145.751s38.1797 -145.681 104.96 -145.751z" />
    <glyph glyph-name="abreve.ss01" horiz-adv-x="597" 
d="M304.33 564.04c-114.37 0 -189.859 74.6689 -189.859 167.059l101.05 0.00976562c0 -46.46 38.3799 -75.4697 88.8096 -75.4697c50.8799 0 88.7998 28.8203 88.7998 75.4707l101.05 -0.00976562c0 -92.3896 -74.7197 -167.06 -189.85 -167.06zM310.971 513.999
c119.88 0 223.779 -52.0107 223.699 -184.591v-329.42h-139.9v54.9102c-49.0498 -46.3896 -112.899 -68.6494 -170.499 -68.7393c-95.0596 -0.169922 -181.949 59.7002 -181.719 173.47c-0.219727 119.36 97.7002 158.36 219.07 155.36
c45.5596 -1.09961 91.1992 -8.08984 133.149 -17.1494v25.4902c0 54.3896 -38.8096 76.9697 -98.5098 76.9297c-52.4902 -0.0400391 -113.351 -17.4004 -158.301 -48.0205l-60.8203 88.7598c58.9902 46 146.91 73 233.83 73zM267.67 100.328
c49.4805 0.0800781 91.7988 17.5195 127.099 49.9199v58.3496c-38.21 9.15039 -79.0098 15.9199 -115.609 16.2402c-53.1602 0.459961 -94.3301 -12.3604 -94.3896 -57.6504c0.0595703 -42.0195 23.29 -66.7695 82.9004 -66.8594z" />
    <glyph glyph-name="abreveacute" unicode="&#x1eaf;" horiz-adv-x="627" 
d="M386.77 739.97h-133.029l128.02 172.93h145.05zM326.2 564.04c-114.37 0 -189.85 74.6689 -189.85 167.049l101.04 0.0195312c0 -46.46 38.3799 -75.4697 88.8096 -75.4697c50.8896 0 88.8096 28.8203 88.8096 75.4707l101.04 -0.0195312
c0 -92.3799 -74.7197 -167.05 -189.85 -167.05zM564.701 499.989v-500h-139.98v53.6299c-49.96 -46.9502 -107.24 -67.6299 -161.08 -67.6299c-127 0 -216 117 -216 264s89 264 216 264c53.8398 0 111.12 -20.6699 161.08 -67.6201v53.6201h139.98zM294.631 104.239
c39.54 0.0703125 90.6211 19.9619 130.091 59.2314v173.04c-39.4697 39.2695 -90.5498 59.1592 -130.09 59.2295c-65.3203 -0.0595703 -104.971 -57.3496 -104.971 -145.75s38.1797 -145.681 104.97 -145.751z" />
    <glyph glyph-name="abrevedotbelow" unicode="&#x1eb7;" horiz-adv-x="627" 
d="M326.21 564.04c-114.37 0 -189.859 74.6689 -189.859 167.059l101.05 0.00976562c0 -46.46 38.3799 -75.4697 88.8096 -75.4697c50.8799 0 88.7998 28.8203 88.7998 75.4707l101.05 -0.00976562c0 -92.3896 -74.7197 -167.06 -189.85 -167.06zM564.711 499.999v-500
h-139.98v53.6201c-49.9697 -46.9502 -107.25 -67.6201 -161.08 -67.6201c-127 0 -216 117 -216 264s89 264 216 264c53.8301 0 111.11 -20.6797 161.08 -67.6299v53.6299h139.98zM294.631 104.249c39.5498 0.0703125 90.6201 19.9629 130.09 59.2324v173.04
c-39.4697 39.2695 -90.54 59.1592 -130.09 59.2295c-65.3203 -0.0703125 -104.96 -57.3506 -104.96 -145.751s38.1797 -145.681 104.96 -145.751zM326.081 -54.0078c39.46 0 71.4404 -31.9902 71.4404 -71.4404c0 -39.46 -31.9805 -71.4404 -71.4404 -71.4404
c-39.4502 0 -71.4404 31.9805 -71.4404 71.4404c0 39.4502 31.9902 71.4404 71.4404 71.4404z" />
    <glyph glyph-name="abrevedotbelow.ss01" horiz-adv-x="597" 
d="M304.33 564.04c-114.37 0 -189.859 74.6689 -189.859 167.059l101.05 0.00976562c0 -46.46 38.3799 -75.4697 88.8096 -75.4697c50.8799 0 88.7998 28.8203 88.7998 75.4707l101.05 -0.00976562c0 -92.3896 -74.7197 -167.06 -189.85 -167.06zM310.971 513.999
c119.88 0 223.779 -52.0107 223.699 -184.591v-329.42h-139.9v54.9102c-49.0498 -46.3896 -112.899 -68.6494 -170.499 -68.7393c-95.0596 -0.169922 -181.949 59.7002 -181.719 173.47c-0.219727 119.36 97.7002 158.36 219.07 155.36
c45.5596 -1.09961 91.1992 -8.08984 133.149 -17.1494v25.4902c0 54.3896 -38.8096 76.9697 -98.5098 76.9297c-52.4902 -0.0400391 -113.351 -17.4004 -158.301 -48.0205l-60.8203 88.7598c58.9902 46 146.91 73 233.83 73zM267.67 100.328
c49.4805 0.0800781 91.7988 17.5195 127.099 49.9199v58.3496c-38.21 9.15039 -79.0098 15.9199 -115.609 16.2402c-53.1602 0.459961 -94.3301 -12.3604 -94.3896 -57.6504c0.0595703 -42.0195 23.29 -66.7695 82.9004 -66.8594zM307.238 -54.0225
c39.4502 0 71.4404 -31.9805 71.4404 -71.4404c0 -39.4502 -31.9902 -71.4404 -71.4404 -71.4404c-39.46 0 -71.4404 31.9902 -71.4404 71.4404c0 39.46 31.9805 71.4404 71.4404 71.4404z" />
    <glyph glyph-name="abrevegrave" unicode="&#x1eb1;" horiz-adv-x="627" 
d="M257.7 739.97l-140.04 172.93h145.05l128.01 -172.93h-133.02zM136.351 731.09l101.051 0.0185547c0 -46.46 38.3799 -75.4697 88.8096 -75.4697c50.8799 0 88.7998 28.8203 88.7998 75.4707l101.05 -0.0195312c0 -92.3799 -74.7197 -167.05 -189.85 -167.05
c-114.37 0 -189.86 74.6699 -189.86 167.05zM564.701 499.988v-500h-139.98v53.6299c-49.96 -46.9502 -107.24 -67.6299 -161.08 -67.6299c-127 0 -216 117 -216 264s89 264 216 264c53.8398 0 111.12 -20.6699 161.08 -67.6201v53.6201h139.98zM294.631 104.238
c39.54 0.0703125 90.6211 19.9619 130.091 59.2314v173.04c-39.4697 39.2695 -90.5498 59.1592 -130.09 59.2295c-65.3203 -0.0595703 -104.971 -57.3496 -104.971 -145.75s38.1797 -145.681 104.97 -145.751z" />
    <glyph glyph-name="abrevehookabove" unicode="&#x1eb3;" horiz-adv-x="627" 
d="M333.22 871.77c-21.7598 0.0898438 -46.96 -4.78906 -68.4902 -10.3389l-40.3896 71.46c35.2305 15.1602 76.54 22.4297 116.72 22.4297c70.5 0 132.14 -21.6396 132.14 -108.26c0 -62.7002 -32.8799 -80.46 -92.6602 -106.77
c-16.7305 -7.62012 -24.79 -12.1904 -25.96 -24.8008l-88.5303 -0.0302734c0.19043 62.5996 23.8506 76.5293 69.0908 95.4795c30.0801 13.5596 41.9199 21.2998 41.8398 36.5c-0.129883 18.5703 -17.9297 24.5205 -43.7598 24.3301zM326.22 564.03
c-114.37 0 -189.85 74.6689 -189.85 167.059l101.04 0.00976562c0 -46.46 38.3799 -75.4697 88.8096 -75.4697c50.8896 0 88.8096 28.8203 88.8096 75.4707l101.04 -0.00976562c0 -92.3896 -74.7197 -167.06 -189.85 -167.06zM564.721 499.989v-500h-139.98v53.6201
c-49.96 -46.9502 -107.24 -67.6201 -161.08 -67.6201c-127 0 -216 117 -216 264s89 264 216 264c53.8398 0 111.12 -20.6797 161.08 -67.6299v53.6299h139.98zM294.65 104.239c39.54 0.0703125 90.6211 19.9629 130.091 59.2324v173.04
c-39.4697 39.2695 -90.5498 59.1592 -130.09 59.2295c-65.3203 -0.0703125 -104.971 -57.3506 -104.971 -145.751s38.1797 -145.681 104.97 -145.751z" />
    <glyph glyph-name="abrevetilde" unicode="&#x1eb5;" horiz-adv-x="627" 
d="M251.16 815.1c-20.1699 0.0898438 -41.1719 -23.3408 -64.0215 -60.1709l-60.0898 50.1602c31.7598 50.6602 69.29 110.271 132.82 110.271c37.0195 0 65.6299 -21.04 94.0596 -43.4502c18.4902 -14.4697 32.0205 -23.9795 46.0107 -23.7793
c19.5 -0.200195 39.0303 17.3096 65.3701 60.0498l60.0703 -50.1504c-35.5098 -55.5098 -70.3701 -109.74 -131.84 -110.25c-41.0596 0 -69.5498 23.4697 -94.5498 43.4297c-16.0195 12.4902 -33.5098 23.9805 -47.8301 23.8906zM326.218 655.639
c50.8799 0 88.8008 28.8193 88.8008 75.4697l101.05 -0.00976562c0 -92.3896 -74.7197 -167.06 -189.85 -167.06c-114.37 0 -189.86 74.6699 -189.86 167.06l101.05 0.00976562c0 -46.46 38.3799 -75.4697 88.8096 -75.4697zM564.719 499.998v-500h-139.98v53.6201
c-49.9697 -46.9502 -107.25 -67.6201 -161.08 -67.6201c-127 0 -216 117 -216 264s89 264 216 264c53.8301 0 111.11 -20.6797 161.08 -67.6299v53.6299h139.98zM294.639 104.248c39.5498 0.0703125 90.6201 19.9629 130.09 59.2324v173.04
c-39.4697 39.2695 -90.54 59.1592 -130.09 59.2295c-65.3203 -0.0703125 -104.96 -57.3506 -104.96 -145.751s38.1797 -145.681 104.96 -145.751z" />
    <glyph glyph-name="acaron" unicode="&#x1ce;" horiz-adv-x="627" 
d="M257.28 564.4l-141.07 172.6h136.1l73.8896 -100.99l73.9004 100.99h136.09l-141.06 -172.6h-137.85zM564.7 500v-500h-139.98v53.6201c-49.9697 -46.9502 -107.25 -67.6201 -161.08 -67.6201c-127 0 -216 117 -216 264s89 264 216 264
c53.8301 0 111.11 -20.6797 161.08 -67.6299v53.6299h139.98zM294.62 104.25c39.5498 0.0703125 90.6201 19.9629 130.09 59.2324v173.04c-39.4697 39.2695 -90.54 59.1592 -130.09 59.2295c-65.3203 -0.0703125 -104.96 -57.3506 -104.96 -145.751
s38.1797 -145.681 104.96 -145.751z" />
    <glyph glyph-name="acaron.ss01" horiz-adv-x="597" 
d="M235.4 564.4l-141.07 172.6h136.1l73.8896 -100.98l73.9004 100.98h136.09l-141.06 -172.6h-137.85zM310.97 514c119.88 0 223.769 -52.0107 223.688 -184.591v-329.42h-139.9v54.9102c-49.0498 -46.3896 -112.89 -68.6494 -170.489 -68.7393
c-95.0703 -0.169922 -181.95 59.7002 -181.73 173.47c-0.209961 119.36 97.71 158.36 219.08 155.36c45.5498 -1.09961 91.2002 -8.08984 133.15 -17.1494v25.4902c0 54.3896 -38.8096 76.9697 -98.5195 76.9297c-52.4902 -0.0400391 -113.34 -17.4004 -158.3 -48.0205
l-60.8096 88.7598c58.9902 46 146.91 73 233.83 73zM267.658 100.329c49.4805 0.0800781 91.8096 17.5195 127.109 49.9199v58.3496c-38.21 9.15039 -79.0195 15.9199 -115.619 16.2402c-53.1602 0.459961 -94.3203 -12.3604 -94.3906 -57.6504
c0.0703125 -42.0195 23.29 -66.7695 82.9004 -66.8594z" />
    <glyph glyph-name="acircumflex" unicode="&#xe2;" horiz-adv-x="627" 
d="M252.31 564.4h-136.079l141.06 172.6h137.85l141.06 -172.6h-136.1l-73.8896 100.98zM564.721 500v-500h-139.98v53.6201c-49.9697 -46.9502 -107.25 -67.6201 -161.08 -67.6201c-127 0 -216 117 -216 264s89 264 216 264c53.8301 0 111.11 -20.6797 161.08 -67.6299
v53.6299h139.98zM294.641 104.25c39.5498 0.0703125 90.6201 19.9629 130.09 59.2324v173.04c-39.4697 39.2695 -90.54 59.1592 -130.09 59.2295c-65.3203 -0.0703125 -104.96 -57.3506 -104.96 -145.751s38.1797 -145.681 104.96 -145.751z" />
    <glyph glyph-name="acircumflex.ss01" horiz-adv-x="597" 
d="M230.43 564.4h-136.079l141.06 172.6h137.85l141.06 -172.6h-136.1l-73.8896 100.99zM310.98 514c119.88 0 223.779 -52.0107 223.699 -184.591v-329.42h-139.9v54.9102c-49.0498 -46.3896 -112.899 -68.6494 -170.499 -68.7393
c-95.0596 -0.169922 -181.949 59.7002 -181.719 173.47c-0.219727 119.36 97.7002 158.36 219.07 155.36c45.5596 -1.09961 91.1992 -8.08984 133.149 -17.1494v25.4902c0 54.3896 -38.8096 76.9697 -98.5098 76.9297
c-52.4902 -0.0400391 -113.351 -17.4004 -158.301 -48.0205l-60.8203 88.7598c58.9902 46 146.91 73 233.83 73zM267.68 100.329c49.4805 0.0800781 91.7988 17.5195 127.099 49.9199v58.3496c-38.21 9.15039 -79.0098 15.9199 -115.609 16.2402
c-53.1602 0.459961 -94.3301 -12.3604 -94.3896 -57.6504c0.0595703 -42.0195 23.29 -66.7695 82.9004 -66.8594z" />
    <glyph glyph-name="acircumflexacute" unicode="&#x1ea5;" horiz-adv-x="627" 
d="M791.85 797.92l-140.05 -172.92h-133.02l128.02 172.92h145.05zM252.31 564.4h-136.079l141.06 172.6h137.85l141.06 -172.6h-136.1l-73.8896 100.98zM424.74 500h139.98v-500h-139.98v53.6201c-49.9697 -46.9502 -107.25 -67.6201 -161.08 -67.6201
c-127 0 -216 117 -216 264s89 264 216 264c53.8301 0 111.11 -20.6797 161.08 -67.6299v53.6299zM294.641 104.25c39.5498 0.0703125 90.6201 19.9629 130.09 59.2324v173.04c-39.4697 39.2695 -90.54 59.1592 -130.09 59.2295
c-65.3203 -0.0703125 -104.96 -57.3506 -104.96 -145.751s38.1797 -145.681 104.96 -145.751z" />
    <glyph glyph-name="acircumflexdotbelow" unicode="&#x1ead;" horiz-adv-x="627" 
d="M252.31 564.4h-136.079l141.06 172.6h137.85l141.06 -172.6h-136.1l-73.8896 100.98zM564.721 500v-500h-139.98v53.6201c-49.9697 -46.9502 -107.25 -67.6201 -161.08 -67.6201c-127 0 -216 117 -216 264s89 264 216 264c53.8301 0 111.11 -20.6797 161.08 -67.6299
v53.6299h139.98zM294.641 104.25c39.5498 0.0703125 90.6201 19.9629 130.09 59.2324v173.04c-39.4697 39.2695 -90.54 59.1592 -130.09 59.2295c-65.3203 -0.0703125 -104.96 -57.3506 -104.96 -145.751s38.1797 -145.681 104.96 -145.751zM326.091 -54.0068
c39.46 0 71.4404 -31.9902 71.4404 -71.4404c0 -39.46 -31.9805 -71.4404 -71.4404 -71.4404c-39.4502 0 -71.4404 31.9805 -71.4404 71.4404c0 39.4502 31.9902 71.4404 71.4404 71.4404z" />
    <glyph glyph-name="acircumflexdotbelow.ss01" horiz-adv-x="597" 
d="M230.43 564.4h-136.079l141.06 172.6h137.85l141.06 -172.6h-136.1l-73.8896 100.99zM310.98 514c119.88 0 223.779 -52.0107 223.699 -184.591v-329.42h-139.9v54.9102c-49.0498 -46.3896 -112.899 -68.6494 -170.499 -68.7393
c-95.0596 -0.169922 -181.949 59.7002 -181.719 173.47c-0.219727 119.36 97.7002 158.36 219.07 155.36c45.5596 -1.09961 91.1992 -8.08984 133.149 -17.1494v25.4902c0 54.3896 -38.8096 76.9697 -98.5098 76.9297
c-52.4902 -0.0400391 -113.351 -17.4004 -158.301 -48.0205l-60.8203 88.7598c58.9902 46 146.91 73 233.83 73zM267.68 100.329c49.4805 0.0800781 91.7988 17.5195 127.099 49.9199v58.3496c-38.21 9.15039 -79.0098 15.9199 -115.609 16.2402
c-53.1602 0.459961 -94.3301 -12.3604 -94.3896 -57.6504c0.0595703 -42.0195 23.29 -66.7695 82.9004 -66.8594zM307.248 -54.0215c39.4502 0 71.4404 -31.9805 71.4404 -71.4404c0 -39.4502 -31.9902 -71.4404 -71.4404 -71.4404
c-39.46 0 -71.4404 31.9902 -71.4404 71.4404c0 39.46 31.9805 71.4404 71.4404 71.4404z" />
    <glyph glyph-name="acircumflexgrave" unicode="&#x1ea7;" horiz-adv-x="627" 
d="M553.92 625l-140.05 172.92h145.05l128.02 -172.92h-133.02zM252.311 564.4h-136.089l141.06 172.6h137.85l141.06 -172.6h-136.09l-73.9004 100.99zM424.731 500h139.98v-500h-139.98v53.6299c-49.96 -46.9502 -107.24 -67.6299 -161.08 -67.6299
c-127 0 -216 117 -216 264s89 264 216 264c53.8398 0 111.12 -20.6699 161.08 -67.6201v53.6201zM294.642 104.25c39.54 0.0703125 90.6211 19.9619 130.091 59.2314v173.04c-39.4697 39.2695 -90.5498 59.1592 -130.09 59.2295
c-65.3203 -0.0595703 -104.971 -57.3496 -104.971 -145.75s38.1797 -145.681 104.97 -145.751z" />
    <glyph glyph-name="acircumflexhookabove" unicode="&#x1ea9;" horiz-adv-x="627" 
d="M607.46 835.44c70.4902 0 132.149 -21.6396 132.149 -108.26c0 -62.7002 -32.8701 -80.46 -92.6602 -106.77c-16.7305 -7.61035 -24.79 -12.1904 -25.96 -24.8008l-88.5303 -0.0195312c0.200195 62.5898 23.8506 76.5195 69.1006 95.4697
c30.0801 13.5596 41.9199 21.2998 41.8398 36.5c-0.129883 18.5703 -17.9297 24.5205 -43.7695 24.3301c-21.75 0.0898438 -46.9697 -4.79004 -68.5 -10.3398l-40.3896 71.46c35.2305 15.1602 76.54 22.4297 116.72 22.4297zM252.329 564.4h-136.089l141.06 172.6h137.85
l141.06 -172.6h-136.09l-73.9004 100.98zM424.75 500h139.98v-500h-139.98v53.6201c-49.96 -46.9502 -107.24 -67.6201 -161.08 -67.6201c-127 0 -216 117 -216 264s89 264 216 264c53.8398 0 111.12 -20.6797 161.08 -67.6299v53.6299zM294.66 104.25
c39.54 0.0703125 90.6211 19.9629 130.091 59.2324v173.04c-39.4697 39.2695 -90.5498 59.1592 -130.09 59.2295c-65.3203 -0.0703125 -104.971 -57.3506 -104.971 -145.751s38.1797 -145.681 104.97 -145.751z" />
    <glyph glyph-name="acircumflextilde" unicode="&#x1eab;" horiz-adv-x="627" 
d="M251.15 821.2c-20.1699 0.0898438 -41.1621 -23.3408 -64.0117 -60.1709l-60.0898 50.1602c31.7598 50.6602 69.29 110.271 132.82 110.271c37.0195 0 65.6299 -21.04 94.0596 -43.4502c18.4902 -14.4697 32.0205 -23.9795 46.0107 -23.7793
c19.5 -0.200195 39.0303 17.3096 65.3604 60.0498l60.0801 -50.1504c-35.5195 -55.5098 -70.3799 -109.74 -131.85 -110.25c-41.0596 0 -69.5498 23.4697 -94.5498 43.4297c-16.0195 12.4902 -33.5098 23.9805 -47.8301 23.8906zM252.318 564.399h-136.089l141.06 172.6
h137.85l141.06 -172.6h-136.09l-73.9004 100.98zM564.72 499.999v-500h-139.98v53.6201c-49.96 -46.9502 -107.24 -67.6201 -161.08 -67.6201c-127 0 -216 117 -216 264s89 264 216 264c53.8398 0 111.12 -20.6797 161.08 -67.6299v53.6299h139.98zM294.649 104.249
c39.54 0.0703125 90.6211 19.9629 130.091 59.2324v173.04c-39.4697 39.2695 -90.5498 59.1592 -130.09 59.2295c-65.3203 -0.0703125 -104.971 -57.3506 -104.971 -145.751s38.1797 -145.681 104.97 -145.751z" />
    <glyph glyph-name="adieresis" unicode="&#xe4;" horiz-adv-x="627" 
d="M215.76 575.11c-39.46 0 -71.4404 31.9902 -71.4404 71.4404c0 39.46 31.9805 71.4404 71.4404 71.4404c39.4502 0 71.4404 -31.9805 71.4404 -71.4404c0 -39.4502 -31.9902 -71.4404 -71.4404 -71.4404zM436.66 575.11c-39.46 0 -71.4404 31.9902 -71.4404 71.4404
c0 39.46 31.9805 71.4404 71.4404 71.4404c39.4502 0 71.4404 -31.9805 71.4404 -71.4404c0 -39.4502 -31.9902 -71.4404 -71.4404 -71.4404zM564.71 500v-500h-139.98v53.6201c-49.9697 -46.9502 -107.25 -67.6201 -161.08 -67.6201c-127 0 -216 117 -216 264
s89 264 216 264c53.8301 0 111.11 -20.6797 161.08 -67.6299v53.6299h139.98zM294.63 104.25c39.5498 0.0703125 90.6201 19.9629 130.09 59.2324v173.04c-39.4697 39.2695 -90.54 59.1592 -130.09 59.2295c-65.3203 -0.0703125 -104.96 -57.3506 -104.96 -145.751
s38.1797 -145.681 104.96 -145.751z" />
    <glyph glyph-name="adieresis.ss01" horiz-adv-x="597" 
d="M193.88 575.12c-39.46 0 -71.4404 31.9805 -71.4404 71.4404c0 39.4502 31.9805 71.4404 71.4404 71.4404c39.4502 0 71.4404 -31.9902 71.4404 -71.4404c0 -39.46 -31.9902 -71.4404 -71.4404 -71.4404zM414.78 575.12c-39.46 0 -71.4404 31.9805 -71.4404 71.4404
c0 39.4502 31.9805 71.4404 71.4404 71.4404c39.4502 0 71.4404 -31.9902 71.4404 -71.4404c0 -39.46 -31.9902 -71.4404 -71.4404 -71.4404zM310.98 514c119.88 0 223.769 -52.0107 223.688 -184.591v-329.42h-139.9v54.9102
c-49.0498 -46.3896 -112.89 -68.6494 -170.489 -68.7393c-95.0703 -0.169922 -181.95 59.7002 -181.73 173.47c-0.209961 119.36 97.71 158.36 219.08 155.36c45.5498 -1.09961 91.2002 -8.08984 133.15 -17.1494v25.4902c0 54.3896 -38.8096 76.9697 -98.5195 76.9297
c-52.4902 -0.0400391 -113.34 -17.4004 -158.3 -48.0205l-60.8096 88.7598c58.9902 46 146.91 73 233.83 73zM267.669 100.329c49.4805 0.0800781 91.8096 17.5195 127.109 49.9199v58.3496c-38.21 9.15039 -79.0195 15.9199 -115.619 16.2402
c-53.1602 0.459961 -94.3203 -12.3604 -94.3906 -57.6504c0.0703125 -42.0195 23.29 -66.7695 82.9004 -66.8594z" />
    <glyph glyph-name="adotbelow" unicode="&#x1ea1;" horiz-adv-x="627" 
d="M564.71 500v-500h-139.98v53.6201c-49.9697 -46.9502 -107.25 -67.6201 -161.08 -67.6201c-127 0 -216 117 -216 264s89 264 216 264c53.8301 0 111.11 -20.6797 161.08 -67.6299v53.6299h139.98zM294.63 104.25c39.5498 0.0703125 90.6201 19.9629 130.09 59.2324
v173.04c-39.4697 39.2695 -90.54 59.1592 -130.09 59.2295c-65.3203 -0.0703125 -104.96 -57.3506 -104.96 -145.751s38.1797 -145.681 104.96 -145.751zM326.08 -54.0068c39.46 0 71.4404 -31.9902 71.4404 -71.4404c0 -39.46 -31.9805 -71.4404 -71.4404 -71.4404
c-39.4502 0 -71.4404 31.9805 -71.4404 71.4404c0 39.4502 31.9902 71.4404 71.4404 71.4404z" />
    <glyph glyph-name="adotbelow.ss01" horiz-adv-x="597" 
d="M310.97 514c119.88 0 223.779 -52.0107 223.699 -184.591v-329.42h-139.9v54.9102c-49.0498 -46.3896 -112.899 -68.6494 -170.499 -68.7393c-95.0596 -0.169922 -181.949 59.7002 -181.719 173.47c-0.219727 119.36 97.7002 158.36 219.07 155.36
c45.5596 -1.09961 91.1992 -8.08984 133.149 -17.1494v25.4902c0 54.3896 -38.8096 76.9697 -98.5098 76.9297c-52.4902 -0.0400391 -113.351 -17.4004 -158.301 -48.0205l-60.8203 88.7598c58.9902 46 146.91 73 233.83 73zM267.669 100.329
c49.4805 0.0800781 91.7988 17.5195 127.099 49.9199v58.3496c-38.21 9.15039 -79.0098 15.9199 -115.609 16.2402c-53.1602 0.459961 -94.3301 -12.3604 -94.3896 -57.6504c0.0595703 -42.0195 23.29 -66.7695 82.9004 -66.8594zM307.237 -54.0215
c39.4502 0 71.4404 -31.9805 71.4404 -71.4404c0 -39.4502 -31.9902 -71.4404 -71.4404 -71.4404c-39.46 0 -71.4404 31.9902 -71.4404 71.4404c0 39.46 31.9805 71.4404 71.4404 71.4404z" />
    <glyph glyph-name="agrave" unicode="&#xe0;" horiz-adv-x="627" 
d="M257.7 564.58l-140.04 172.93h145.05l128.01 -172.93h-133.02zM564.71 500v-500h-139.98v53.6201c-49.9697 -46.9502 -107.25 -67.6201 -161.08 -67.6201c-127 0 -216 117 -216 264s89 264 216 264c53.8301 0 111.11 -20.6797 161.08 -67.6299v53.6299h139.98z
M294.63 104.25c39.5498 0.0703125 90.6201 19.9629 130.09 59.2324v173.04c-39.4697 39.2695 -90.54 59.1592 -130.09 59.2295c-65.3203 -0.0703125 -104.96 -57.3506 -104.96 -145.751s38.1797 -145.681 104.96 -145.751z" />
    <glyph glyph-name="agrave.ss01" horiz-adv-x="597" 
d="M235.82 564.58l-140.05 172.93h145.05l128.02 -172.93h-133.02zM310.971 514c119.88 0 223.769 -52.0107 223.688 -184.591v-329.42h-139.9v54.9102c-49.0498 -46.3896 -112.89 -68.6494 -170.489 -68.7393c-95.0703 -0.169922 -181.95 59.7002 -181.73 173.47
c-0.209961 119.36 97.71 158.36 219.08 155.36c45.5498 -1.09961 91.2002 -8.08984 133.15 -17.1494v25.4902c0 54.3896 -38.8096 76.9697 -98.5195 76.9297c-52.4902 -0.0400391 -113.34 -17.4004 -158.3 -48.0205l-60.8096 88.7598c58.9902 46 146.91 73 233.83 73z
M267.659 100.329c49.4805 0.0800781 91.8096 17.5195 127.109 49.9199v58.3496c-38.21 9.15039 -79.0195 15.9199 -115.619 16.2402c-53.1602 0.459961 -94.3203 -12.3604 -94.3906 -57.6504c0.0703125 -42.0195 23.29 -66.7695 82.9004 -66.8594z" />
    <glyph glyph-name="ahookabove" unicode="&#x1ea3;" horiz-adv-x="627" 
d="M333.21 730.35c-21.75 0.0898438 -46.9609 -4.78906 -68.4805 -10.3389l-40.4004 71.46c35.2305 15.1602 76.54 22.4297 116.73 22.4297c70.4902 0 132.13 -21.6396 132.13 -108.26c0 -62.7002 -32.8701 -80.46 -92.6602 -106.77
c-16.7305 -7.62012 -24.79 -12.1904 -25.96 -24.8008l-88.5303 -0.0302734c0.200195 62.5996 23.8506 76.5293 69.1006 95.4795c30.0801 13.5596 41.9199 21.2998 41.8398 36.5c-0.129883 18.5703 -17.9297 24.5205 -43.7695 24.3301zM564.719 500.001v-500h-139.98v53.6201
c-49.9697 -46.9502 -107.25 -67.6201 -161.08 -67.6201c-127 0 -216 117 -216 264s89 264 216 264c53.8301 0 111.11 -20.6797 161.08 -67.6299v53.6299h139.98zM294.639 104.251c39.5498 0.0703125 90.6201 19.9629 130.09 59.2324v173.04
c-39.4697 39.2695 -90.54 59.1592 -130.09 59.2295c-65.3203 -0.0703125 -104.96 -57.3506 -104.96 -145.751s38.1797 -145.681 104.96 -145.751z" />
    <glyph glyph-name="amacron" unicode="&#x101;" horiz-adv-x="627" 
d="M498.1 586.02h-343.79v107.56h343.79v-107.56zM564.71 500v-500h-139.98v53.6201c-49.9697 -46.9502 -107.25 -67.6201 -161.08 -67.6201c-127 0 -216 117 -216 264s89 264 216 264c53.8301 0 111.11 -20.6797 161.08 -67.6299v53.6299h139.98zM294.63 104.25
c39.5498 0.0703125 90.6201 19.9629 130.09 59.2324v173.04c-39.4697 39.2695 -90.54 59.1592 -130.09 59.2295c-65.3203 -0.0703125 -104.96 -57.3506 -104.96 -145.751s38.1797 -145.681 104.96 -145.751z" />
    <glyph glyph-name="amacron.ss01" horiz-adv-x="597" 
d="M476.22 586.02h-343.79v107.56h343.79v-107.56zM310.97 514c119.88 0 223.779 -52.0107 223.699 -184.591v-329.42h-139.9v54.9102c-49.0498 -46.3896 -112.899 -68.6494 -170.499 -68.7393c-95.0596 -0.169922 -181.949 59.7002 -181.719 173.47
c-0.219727 119.36 97.7002 158.36 219.07 155.36c45.5596 -1.09961 91.1992 -8.08984 133.149 -17.1494v25.4902c0 54.3896 -38.8096 76.9697 -98.5098 76.9297c-52.4902 -0.0400391 -113.351 -17.4004 -158.301 -48.0205l-60.8203 88.7598c58.9902 46 146.91 73 233.83 73z
M267.669 100.329c49.4805 0.0800781 91.7988 17.5195 127.099 49.9199v58.3496c-38.21 9.15039 -79.0098 15.9199 -115.609 16.2402c-53.1602 0.459961 -94.3301 -12.3604 -94.3896 -57.6504c0.0595703 -42.0195 23.29 -66.7695 82.9004 -66.8594z" />
    <glyph glyph-name="aogonek" unicode="&#x105;" horiz-adv-x="627" 
d="M553.07 -120.36l25.5889 -70.2207c-29.8203 -19.5 -72.1006 -29.0098 -108.801 -29.2695c-65.7197 0.25 -127.189 34.25 -127.699 97.8496c0.450195 49.5498 37.3105 91.7002 82.6904 121.99h-0.110352v53.6299c-49.9697 -46.9502 -107.25 -67.6299 -161.08 -67.6299
c-127 0 -216 117 -216 264s89 264 216 264c53.8301 0 111.11 -20.6797 161.08 -67.6299v53.6299h139.98v-500h-62.7695c-27.6396 -19.8096 -56.1396 -47.6895 -56.4092 -84.8398c0.320312 -33.5 24.5801 -46.2803 57.2197 -46.0205
c14.0195 -0.259766 33.6191 2.48047 50.3096 10.5107zM294.659 104.229l0.000976562 -0.137695c39.5498 0.0703125 90.6299 19.96 130.1 59.2295v173.04c-39.4697 39.2695 -90.5498 59.1592 -130.1 59.2295c-65.3203 0 -104.971 -57.2803 -104.971 -145.681
s38.1797 -145.681 104.97 -145.681z" />
    <glyph glyph-name="aogonek.ss01" horiz-adv-x="597" 
d="M529.66 -115.35l25.5488 -70.2119c-29.8096 -19.5 -72.0898 -29.0098 -108.79 -29.2695c-65.71 0.240234 -127.18 34.2402 -127.689 97.8398c0.429688 47.0703 33.7598 87.3506 76.04 117.341v54.5498c-49.0498 -46.3896 -112.899 -68.6396 -170.499 -68.7295
c-95.0596 -0.179688 -181.949 59.6904 -181.719 173.46c-0.219727 119.36 97.7002 158.36 219.07 155.36c45.5596 -1.08984 91.1992 -8.08008 133.149 -17.1504v25.4902c0 54.4004 -38.8096 76.9707 -98.5098 76.9307
c-52.4902 -0.0400391 -113.351 -17.4004 -158.301 -48.0205l-60.8203 88.7598c58.9902 46 146.91 73 233.83 73c119.88 0 223.78 -52 223.7 -184.58v-329.42h-62.9102c-25.3398 -19.4102 -49.3994 -45.7197 -49.6494 -79.8398
c0.320312 -33.5 24.5898 -46.2803 57.2295 -46.0205c14.0195 -0.259766 33.6191 2.48047 50.3193 10.5107zM267.669 100.328c49.4805 0.0898438 91.8096 17.5195 127.109 49.9199v58.3496c-38.21 9.15039 -79.0195 15.9199 -115.619 16.25
c-53.1602 0.459961 -94.3203 -12.3604 -94.3906 -57.6504c0.0703125 -42.0195 23.29 -66.7793 82.9004 -66.8691z" />
    <glyph glyph-name="aring" unicode="&#xe5;" horiz-adv-x="627" 
d="M326.21 539.89c-80.2197 0 -133.16 57.3613 -133.16 128.342c0 72.2197 52.9404 128.819 133.16 128.339c80.75 0 133.15 -57.3701 133.15 -128.34c0 -70.9805 -52.4004 -128.341 -133.15 -128.341zM325.77 723.181c-27.7695 0.160156 -49.8291 -20.7295 -49.8291 -54.96
c0 -33.8203 21.7197 -54.9404 50.2598 -54.9404c28.7998 0 50.2598 20.9805 50.2598 54.9502c0 33.96 -21.46 54.9502 -50.6904 54.9502zM564.71 499.991v-500h-139.98v53.6201c-49.9697 -46.9502 -107.25 -67.6201 -161.08 -67.6201c-127 0 -216 117 -216 264
s89 264 216 264c53.8301 0 111.11 -20.6797 161.08 -67.6299v53.6299h139.98zM294.63 104.241c39.5498 0.0703125 90.6201 19.9629 130.09 59.2324v173.04c-39.4697 39.2695 -90.54 59.1592 -130.09 59.2295c-65.3203 -0.0703125 -104.96 -57.3506 -104.96 -145.751
s38.1797 -145.681 104.96 -145.751z" />
    <glyph glyph-name="aring.ss01" horiz-adv-x="597" 
d="M304.33 539.89c-80.2197 0 -133.16 57.3711 -133.16 128.341c0 72.2305 52.9404 128.83 133.16 128.34c80.75 0 133.15 -57.3604 133.15 -128.341c0 -70.9697 -52.4004 -128.34 -133.15 -128.34zM303.89 723.181c-27.7695 0.160156 -49.8291 -20.7305 -49.8291 -54.9502
c0 -33.8301 21.7197 -54.9502 50.2598 -54.9502c28.7998 0 50.2598 20.9902 50.2598 54.9502c0 33.9697 -21.46 54.9502 -50.6904 54.9502zM310.97 513.989c119.88 0 223.779 -52.0107 223.699 -184.591v-329.42h-139.9v54.9102
c-49.0498 -46.3896 -112.899 -68.6396 -170.499 -68.7295c-95.0596 -0.179688 -181.949 59.6904 -181.719 173.46c-0.219727 119.36 97.7002 158.36 219.07 155.36c45.5596 -1.08984 91.1992 -8.08008 133.149 -17.1504v25.4902
c0 54.4004 -38.8096 76.9707 -98.5098 76.9307c-52.4902 -0.0400391 -113.351 -17.4004 -158.301 -48.0205l-60.8203 88.7598c58.9902 46 146.91 73 233.83 73zM267.669 100.318c49.4805 0.0898438 91.7988 17.5195 127.099 49.9199v58.3496
c-38.21 9.15039 -79.0098 15.9199 -115.609 16.25c-53.1602 0.459961 -94.3301 -12.3604 -94.3896 -57.6504c0.0595703 -42.0195 23.29 -66.7793 82.9004 -66.8691z" />
    <glyph glyph-name="atilde" unicode="&#xe3;" horiz-adv-x="627" 
d="M251.15 632c-20.1699 0.0898438 -41.1621 -23.3408 -64.0117 -60.1709l-60.0898 50.1602c31.7598 50.6602 69.29 110.271 132.82 110.271c37.0195 0 65.6299 -21.04 94.0596 -43.4502c18.4902 -14.4697 32.0205 -23.9795 46.0107 -23.7793
c19.5 -0.200195 39.0303 17.3096 65.3604 60.0498l60.0801 -50.1504c-35.5195 -55.5098 -70.3799 -109.74 -131.85 -110.25c-41.0596 0 -69.5498 23.4697 -94.5498 43.4297c-16.0195 12.4902 -33.5098 23.9805 -47.8301 23.8906zM564.708 499.999v-500h-139.98v53.6201
c-49.96 -46.9502 -107.24 -67.6201 -161.08 -67.6201c-127 0 -216 117 -216 264s89 264 216 264c53.8398 0 111.12 -20.6797 161.08 -67.6299v53.6299h139.98zM294.638 104.249c39.54 0.0703125 90.6211 19.9629 130.091 59.2324v173.04
c-39.4697 39.2695 -90.5498 59.1592 -130.09 59.2295c-65.3203 -0.0703125 -104.971 -57.3506 -104.971 -145.751s38.1797 -145.681 104.97 -145.751z" />
    <glyph glyph-name="atilde.ss01" horiz-adv-x="597" 
d="M229.27 632c-20.1699 0.0898438 -41.1621 -23.3418 -64.0117 -60.1719l-60.0898 50.1602c31.7598 50.6602 69.29 110.271 132.82 110.271c37.0195 0 65.6299 -21.04 94.0596 -43.4502c18.4902 -14.4697 32.0205 -23.9795 46.0107 -23.7793
c19.5 -0.200195 39.0303 17.3096 65.3604 60.0498l60.0801 -50.1396c-35.5195 -55.5195 -70.3799 -109.75 -131.85 -110.26c-41.0596 0 -69.5498 23.4697 -94.5498 43.4297c-16.0195 12.4902 -33.5098 23.9805 -47.8301 23.8906zM310.978 513.998
c119.88 0 223.769 -52.0107 223.688 -184.591v-329.42h-139.9v54.9102c-49.0498 -46.3896 -112.89 -68.6494 -170.489 -68.7393c-95.0703 -0.169922 -181.95 59.7002 -181.73 173.47c-0.209961 119.36 97.71 158.36 219.08 155.36
c45.5498 -1.09961 91.2002 -8.08984 133.15 -17.1494v25.4902c0 54.3896 -38.8096 76.9697 -98.5195 76.9297c-52.4902 -0.0400391 -113.34 -17.4004 -158.3 -48.0205l-60.8096 88.7598c58.9902 46 146.91 73 233.83 73zM267.666 100.327
c49.4805 0.0800781 91.8096 17.5195 127.109 49.9199v58.3496c-38.21 9.15039 -79.0195 15.9199 -115.619 16.2402c-53.1602 0.459961 -94.3203 -12.3604 -94.3906 -57.6504c0.0703125 -42.0195 23.29 -66.7695 82.9004 -66.8594z" />
    <glyph glyph-name="ae" unicode="&#xe6;" horiz-adv-x="940" 
d="M267.65 514c63.2695 0 136.761 -26.6299 198.73 -81.7295c44.4502 50.8301 109.63 82.25 188.74 81.7305c159.19 0 245.69 -116.59 242.37 -274.59c-0.160156 -7.71973 -0.549805 -15.4502 -1.17969 -23.1904l-350 0.00976562
c0.660156 -4.66016 1.46973 -9.19043 2.41016 -13.5908c13.75 -65.3398 58.7598 -102.24 122.149 -102.24c48.1104 0 99.1602 14.9697 152.65 41.0098l32.8496 -87.8896c-56.6201 -43.4697 -126.82 -67.5195 -198.63 -67.5195c-80.2002 0 -146.23 31.8604 -191.15 82.9502
c-63.29 -57.2197 -137.021 -82.9502 -198.94 -82.9502c-133 0 -220 117 -220 264s87 264 220 264zM658.432 400.17c-59.3799 0 -97.751 -38.8799 -110.201 -98.6699h211.66c-8.55957 60.1797 -37.5693 98.6699 -101.459 98.6699zM296.161 395.68
c-64.8701 0 -106.499 -53.8096 -106.499 -146.17c0 -88.9297 38.6904 -145.189 105.5 -145.189c36.4297 0 83.6992 16.8301 122.749 50.0703c-10.6396 29.3799 -16.3096 61.6895 -16.3096 95.6094c0 34.1201 5.62988 66.5801 16.21 96.0498
c-38.1396 32.1396 -84.8301 49.6299 -121.65 49.6299z" />
    <glyph glyph-name="ae.ss01" horiz-adv-x="974" 
d="M688.69 514c154.26 0 243.661 -109.711 242.931 -274.491c-0.0302734 -7.73047 -0.280273 -15.5 -0.760742 -23.2998l-351 0.00976562c0.389648 -2.7002 0.819336 -5.35059 1.2998 -7.96094c12.3799 -68.8096 58.3496 -108.09 123.31 -107.97
c47.6104 0.0996094 99.8203 15.2295 152.83 41.2197l32.6299 -88.0098c-56.6201 -43.4697 -126.82 -67.5195 -198.63 -67.5195c-61.6299 0 -114.89 18.8301 -156.63 50.7402v-36.7402h-139.9v54.9102c-49.0498 -46.3896 -112.899 -68.6396 -170.499 -68.7295
c-95.0596 -0.179688 -181.949 59.6904 -181.719 173.46c-0.219727 119.36 97.7002 158.36 219.07 155.36c45.5596 -1.08984 91.1992 -8.08008 133.149 -17.1504v25.4902c0 54.4004 -38.8096 76.9707 -98.5098 76.9307
c-52.4902 -0.0400391 -113.351 -17.4004 -158.301 -48.0205l-60.8203 88.7598c58.9902 46 146.91 73 233.83 73c80 0 152.89 -23.1504 192.5 -77.96c44.3398 48.4502 108.17 78.2305 185.22 77.9707zM581.802 301.479h211.649
c-8.55957 60.1797 -37.5693 98.6699 -101.459 98.6699c-59.3799 0 -97.7402 -38.8799 -110.19 -98.6699zM267.671 100.319c49.4805 0.0898438 91.7988 17.5195 127.099 49.9199v58.3496c-38.21 9.15039 -79.0098 15.9199 -115.609 16.25
c-53.1602 0.459961 -94.3301 -12.3604 -94.3896 -57.6504c0.0595703 -42.0195 23.29 -66.7793 82.9004 -66.8691z" />
    <glyph glyph-name="b" unicode="b" horiz-adv-x="633" 
d="M364.59 514c130.35 0.490234 218.279 -117 218.52 -264c-0.160156 -147 -88.6504 -264 -216.65 -264c-56.75 0 -113.05 22.9297 -161.18 68.3701v-54.3701h-139.98v700h139.98v-254.36c47.7402 45.04 104.86 68.3604 159.311 68.3604zM336.54 104.24
c66.5098 0 105.25 60.2607 104.94 145.761c0.30957 85.4902 -38.4307 145.75 -104.94 145.75c-40.3301 0 -90.6699 -19.5801 -131.26 -60.0303v-171.45c40.5898 -40.4502 90.9297 -60.0303 131.26 -60.0303z" />
    <glyph glyph-name="c" unicode="c" horiz-adv-x="553" 
d="M309.88 514c69.3701 0 137.373 -22.75 192.973 -64.2197l-33.5195 -92.6299c-50.6504 27.1201 -101.341 40.6797 -149.23 40.6797c-80.1104 0 -128.841 -59.8701 -128.001 -147.83c0 -86.7197 48.5303 -147.83 130.04 -147.83c45 0 98.3896 13.7402 149.569 41.2598
l33.8096 -91.4297c-53.7402 -41 -122.7 -66 -195.09 -66c-157.29 0 -260.23 118 -260.23 264c0.769531 149.04 104.93 264.99 259.68 264z" />
    <glyph glyph-name="cacute" unicode="&#x107;" horiz-adv-x="553" 
d="M359.52 564.58h-133.029l128.02 172.93h145.05zM309.87 514c69.3701 0 137.381 -22.75 192.971 -64.2197l-33.5098 -92.6299c-50.6602 27.1201 -101.351 40.6797 -149.23 40.6797c-80.1104 0 -128.851 -59.8701 -128.011 -147.83
c0 -86.7197 48.5303 -147.83 130.05 -147.83c44.9902 0 98.3906 13.7402 149.57 41.2598l33.8096 -91.4297c-53.75 -41 -122.71 -66 -195.1 -66c-157.29 0 -260.23 118 -260.23 264c0.780273 149.04 104.931 264.99 259.681 264z" />
    <glyph glyph-name="ccaron" unicode="&#x10d;" horiz-adv-x="553" 
d="M230.03 564.4l-141.07 172.6h136.09l73.9004 -100.99l73.8896 100.99h136.1l-141.06 -172.6h-137.85zM322.13 102.17c45 0 98.3926 13.7402 149.572 41.2598l33.8096 -91.4297c-53.7402 -41 -122.7 -66 -195.09 -66c-157.29 0 -260.23 118 -260.23 264
c0.769531 149.04 104.93 264.99 259.68 264c69.3701 0 137.37 -22.75 192.97 -64.2197l-33.5195 -92.6299c-50.6504 27.1201 -101.341 40.6797 -149.23 40.6797c-80.1104 0 -128.841 -59.8701 -128.001 -147.83c0 -86.7197 48.5303 -147.83 130.04 -147.83z" />
    <glyph glyph-name="ccedilla" unicode="&#xe7;" horiz-adv-x="553" 
d="M320.39 -44.1699c59.9297 -8.84961 97.21 -44.3281 97.04 -96.0078c0.19043 -60.1904 -51.1094 -106.311 -136.68 -107.82c-47.5996 -1.03027 -106.89 12.0693 -140.27 28.6094l29.6797 63.9297c30.0801 -11.6104 65.2705 -17.7803 92.6504 -17.9707
c33.4805 0.160156 47.6309 11.2803 47.8311 32.79c-0.200195 18.3203 -10.1299 30.3506 -33.79 30.2002c-11.29 0.179688 -35.4102 -3.95996 -48.5605 -9.2998l-19.8398 42.7402l33.9004 70.9297c-118.25 28.7598 -192.15 132.359 -192.15 256.069
c0.780273 149.04 104.931 264.99 259.681 264c69.3701 0 137.38 -22.75 192.97 -64.2197l-33.5098 -92.6299c-50.6602 27.1201 -101.351 40.6797 -149.23 40.6797c-80.1104 0 -128.851 -59.8701 -128.011 -147.83c0 -86.7197 48.5303 -147.83 130.05 -147.83
c44.9902 0 98.3906 13.7402 149.57 41.2598l33.8096 -91.4297c-51.3398 -39.1699 -116.57 -63.7295 -185.41 -65.8496l-8.48047 -29.2002c2.96973 -0.30957 5.88965 -0.679688 8.75 -1.12012z" />
    <glyph glyph-name="cdotaccent" unicode="&#x10b;" horiz-adv-x="553" 
d="M298.95 717.99c39.46 0 71.4404 -31.9805 71.4404 -71.4404c0 -39.4502 -31.9805 -71.4404 -71.4404 -71.4404c-39.4502 0 -71.4404 31.9902 -71.4404 71.4404c0 39.46 31.9902 71.4404 71.4404 71.4404zM309.88 514c69.3701 0 137.373 -22.75 192.973 -64.2197
l-33.5195 -92.6299c-50.6504 27.1201 -101.341 40.6797 -149.23 40.6797c-80.1104 0 -128.841 -59.8701 -128.001 -147.83c0 -86.7197 48.5303 -147.83 130.04 -147.83c45 0 98.3896 13.7402 149.569 41.2598l33.8096 -91.4297c-53.7402 -41 -122.7 -66 -195.09 -66
c-157.29 0 -260.23 118 -260.23 264c0.769531 149.04 104.93 264.99 259.68 264z" />
    <glyph glyph-name="d" unicode="d" horiz-adv-x="633" 
d="M568.01 700l0.0107422 -700h-139.98v54.3301c-50.1504 -47.4502 -107.73 -68.3301 -161.841 -68.3301c-127 0 -216 117 -216 264s88.4199 264.51 218.37 264c52.5898 0 110.58 -22.1299 159.46 -68.3301v254.33h139.98zM297.7 104.25
c39.2998 0.0703125 90.7705 20.21 130.341 59.9795v171.52c-39.7305 39.7803 -90.0605 59.9307 -131.851 60.001c-66.75 -0.0800781 -104.47 -58.8799 -103.96 -145.75c-0.509766 -86.8701 37.6699 -145.68 105.47 -145.75z" />
    <glyph glyph-name="eth" unicode="&#xf0;" horiz-adv-x="651" 
d="M570.08 645.12l-63.7773 -35.6504c59.3896 -71.5 92.8398 -171.72 91.75 -290.45c-1.36035 -177.14 -82.1904 -333.02 -280.16 -333.029c-154.58 0.00976562 -270.51 99.7793 -270.63 253.449c0.139648 143.14 102.59 230.899 245.729 230.93
c59.8203 -0.0400391 111.32 -18.1699 155.2 -53.3701c-10.0303 55.4297 -30.0303 97.5996 -57.7705 127.71l-104.33 -58.2998l-43.9404 74.7305l62.3896 34.8701c-19.2803 5.16016 -39.9707 7.65039 -61.8105 7.62012
c-45.0303 0.110352 -89.9307 -9.18945 -130.271 -24.7793l-49.7197 107.1c50.0801 25.79 109.061 42.2197 180.23 42.04c75.0195 0.0703125 141.31 -20.1992 195.699 -57.0195l87.4697 48.8799zM450.812 293.33c0.110352 2.90039 0.201172 5.81055 0.260742 8.7002
c-44.4102 33.5195 -95.3906 50.4199 -147.101 50.5303c-73.46 -0.139648 -110.87 -39.96 -110.86 -111.87c-0.00976562 -84.4004 51.4004 -131.46 124.091 -131.47c88.0596 0.00976562 128.819 68.7598 133.609 184.109z" />
    <glyph glyph-name="dcaron" unicode="&#x10f;" horiz-adv-x="633" 
d="M780.02 664.39c10.04 -65.7598 -39.2891 -145.41 -101.199 -190.34l-46.4697 29.7002c31.7998 26.5303 55.0693 56.4004 68.5693 94.2002c-32.2803 3.65039 -58.6504 30.8301 -58.6406 66.3604c-0.00976562 37.7197 29.6299 67.3594 67.7598 67.1992
c35.5303 0.160156 63.5605 -25.4697 69.9805 -67.1201zM428.04 700.01h139.991v-700h-139.98v54.3301c-50.1504 -47.4502 -107.73 -68.3301 -161.841 -68.3301c-127 0 -216 117 -216 264s88.4199 264.51 218.37 264c52.5898 0 110.58 -22.1299 159.46 -68.3301v254.33z
M297.711 104.26c39.2998 0.0703125 90.7705 20.21 130.341 59.9795v171.52c-39.7305 39.7803 -90.0605 59.9307 -131.851 60.001c-66.75 -0.0800781 -104.47 -58.8799 -103.96 -145.75c-0.509766 -86.8701 37.6699 -145.68 105.47 -145.75z" />
    <glyph glyph-name="dcroat" unicode="&#x111;" horiz-adv-x="633" 
d="M654.12 539.48l-86.0996 0.000976562v-539.48h-139.98v54.3301c-50.1504 -47.4502 -107.73 -68.3301 -161.841 -68.3301c-127 0 -216 117 -216 264s88.4199 264.51 218.37 264c52.5898 0 110.58 -22.1299 159.46 -68.3301v93.8096h-117.69v101.44h117.69v59.0801h139.98
v-59.0801h86.1104v-101.44zM297.7 104.251c39.2998 0.0703125 90.7705 20.21 130.341 59.9795v171.52c-39.7305 39.7803 -90.0605 59.9307 -131.851 60.001c-66.75 -0.0800781 -104.47 -58.8799 -103.96 -145.75c-0.509766 -86.8701 37.6699 -145.68 105.47 -145.75z" />
    <glyph glyph-name="e" unicode="e" horiz-adv-x="589" 
d="M303.72 514c154.26 0 243.661 -109.689 242.931 -274.47c-0.0302734 -7.74023 -0.280273 -15.5098 -0.760742 -23.3096l-351 0.00976562c0.389648 -2.69043 0.819336 -5.35059 1.2998 -7.96094c12.3799 -68.7998 58.3496 -108.08 123.31 -107.97
c47.6104 0.0996094 99.8203 15.2393 152.83 41.2295l32.6299 -88.0098c-56.6201 -43.4697 -126.82 -67.5195 -198.63 -67.5195c-154.3 0 -256.13 118 -256.13 264c0 147 100.79 264.51 253.521 264zM307.021 400.171c-59.3799 0 -97.751 -38.8799 -110.201 -98.6699h211.66
c-8.55957 60.1797 -37.5693 98.6699 -101.459 98.6699z" />
    <glyph glyph-name="eacute" unicode="&#xe9;" horiz-adv-x="589" 
d="M363.94 564.58h-133.029l128.02 172.92h145.05zM303.711 514c154.26 0 243.66 -109.689 242.94 -274.47c-0.0302734 -7.74023 -0.290039 -15.5098 -0.770508 -23.3096l-350.99 0.00976562c0.379883 -2.69043 0.80957 -5.35059 1.29004 -7.96094
c12.3799 -68.7998 58.3604 -108.08 123.32 -107.97c47.6104 0.0996094 99.8203 15.2393 152.83 41.2295l32.6299 -88.0098c-56.6201 -43.4697 -126.82 -67.5195 -198.63 -67.5195c-154.3 0 -256.14 118 -256.14 264c0 147 100.8 264.51 253.52 264zM307.021 400.171
c-59.3799 0 -97.751 -38.8799 -110.201 -98.6699h211.66c-8.55957 60.1797 -37.5791 98.6699 -101.459 98.6699z" />
    <glyph glyph-name="ecaron" unicode="&#x11b;" horiz-adv-x="589" 
d="M234.45 564.4l-141.07 172.6h136.09l73.9004 -100.99l73.8896 100.99h136.1l-141.06 -172.6h-137.85zM303.71 514c154.26 0 243.661 -109.689 242.931 -274.47c-0.0302734 -7.74023 -0.280273 -15.5098 -0.760742 -23.3096l-351 0.00976562
c0.389648 -2.69043 0.819336 -5.35059 1.2998 -7.96094c12.3799 -68.7998 58.3496 -108.08 123.31 -107.97c47.6104 0.0996094 99.8203 15.2393 152.83 41.2295l32.6299 -88.0098c-56.6201 -43.4697 -126.82 -67.5195 -198.63 -67.5195c-154.3 0 -256.13 118 -256.13 264
c0 147 100.79 264.51 253.521 264zM196.821 301.501h211.649c-8.55957 60.1797 -37.5693 98.6699 -101.459 98.6699c-59.3799 0 -97.7402 -38.8799 -110.19 -98.6699z" />
    <glyph glyph-name="ecircumflex" unicode="&#xea;" horiz-adv-x="589" 
d="M229.48 564.4h-136.089l141.06 172.6h137.85l141.06 -172.6h-136.09l-73.9004 100.98zM303.722 514c154.26 0 243.66 -109.689 242.94 -274.47c-0.0302734 -7.74023 -0.290039 -15.5098 -0.770508 -23.3096l-350.99 0.00976562
c0.379883 -2.69043 0.80957 -5.35059 1.29004 -7.96094c12.3799 -68.7998 58.3604 -108.08 123.32 -107.97c47.6104 0.0996094 99.8203 15.2393 152.83 41.2295l32.6299 -88.0098c-56.6201 -43.4697 -126.82 -67.5195 -198.63 -67.5195c-154.3 0 -256.14 118 -256.14 264
c0 147 100.8 264.51 253.52 264zM196.832 301.501h211.659c-8.55957 60.1797 -37.5791 98.6699 -101.459 98.6699c-59.3799 0 -97.75 -38.8799 -110.2 -98.6699z" />
    <glyph glyph-name="ecircumflexacute" unicode="&#x1ebf;" horiz-adv-x="589" 
d="M769.01 797.92l-140.05 -172.93h-133.02l128.02 172.93h145.05zM229.47 564.391h-136.079l141.06 172.6h137.85l141.06 -172.6h-136.1l-73.8896 100.99zM303.721 513.99c154.26 0 243.661 -109.689 242.931 -274.47
c-0.0302734 -7.73047 -0.280273 -15.5 -0.760742 -23.2998l-351 0.00976562c0.389648 -2.7002 0.819336 -5.35059 1.2998 -7.96094c12.3799 -68.8096 58.3496 -108.09 123.31 -107.97c47.6104 0.0996094 99.8203 15.2295 152.83 41.2197l32.6299 -88.0098
c-56.6201 -43.4697 -126.82 -67.5195 -198.63 -67.5195c-154.3 0 -256.13 118 -256.13 264c0 147 100.79 264.51 253.521 264zM196.832 301.491h211.649c-8.55957 60.1797 -37.5693 98.6699 -101.459 98.6699c-59.3799 0 -97.7402 -38.8799 -110.19 -98.6699z" />
    <glyph glyph-name="ecircumflexdotbelow" unicode="&#x1ec7;" horiz-adv-x="589" 
d="M229.48 564.4h-136.089l141.06 172.6h137.85l141.06 -172.6h-136.09l-73.9004 100.98zM303.731 514c154.26 0 243.661 -109.689 242.931 -274.47c-0.0302734 -7.74023 -0.280273 -15.5098 -0.760742 -23.3096l-351 0.00976562
c0.389648 -2.69043 0.819336 -5.35059 1.2998 -7.96094c12.3799 -68.7998 58.3496 -108.08 123.31 -107.97c47.6104 0.0996094 99.8203 15.2393 152.83 41.2295l32.6299 -88.0098c-56.6201 -43.4697 -126.82 -67.5195 -198.63 -67.5195c-154.3 0 -256.13 118 -256.13 264
c0 147 100.79 264.51 253.521 264zM196.843 301.501h211.649c-8.55957 60.1797 -37.5693 98.6699 -101.459 98.6699c-59.3799 0 -97.7402 -38.8799 -110.19 -98.6699zM306.582 -54.0088c39.4502 0 71.4404 -31.9902 71.4404 -71.4404
c0 -39.46 -31.9902 -71.4404 -71.4404 -71.4404c-39.46 0 -71.4404 31.9805 -71.4404 71.4404c0 39.4502 31.9805 71.4404 71.4404 71.4404z" />
    <glyph glyph-name="ecircumflexgrave" unicode="&#x1ec1;" horiz-adv-x="589" 
d="M531.08 625l-140.039 172.92h145.05l128.02 -172.92h-133.03zM229.471 564.4h-136.079l141.06 172.6h137.85l141.06 -172.6h-136.1l-73.8896 100.99zM303.722 514c154.26 0 243.661 -109.689 242.931 -274.47c-0.0302734 -7.73047 -0.280273 -15.5 -0.760742 -23.2998
l-351 0.00976562c0.389648 -2.7002 0.819336 -5.35059 1.2998 -7.96094c12.3799 -68.8096 58.3496 -108.09 123.31 -107.97c47.6104 0.0996094 99.8203 15.2295 152.83 41.2197l32.6299 -88.0098c-56.6201 -43.4697 -126.82 -67.5195 -198.63 -67.5195
c-154.3 0 -256.13 118 -256.13 264c0 147 100.79 264.51 253.521 264zM196.833 301.501h211.649c-8.55957 60.1797 -37.5693 98.6699 -101.459 98.6699c-59.3799 0 -97.7402 -38.8799 -110.19 -98.6699z" />
    <glyph glyph-name="ecircumflexhookabove" unicode="&#x1ec3;" horiz-adv-x="589" 
d="M584.63 835.44c70.5 0 132.148 -21.6396 132.148 -108.26c0 -62.7002 -32.8799 -80.46 -92.6602 -106.77c-16.7305 -7.61035 -24.79 -12.1904 -25.9697 -24.8008l-88.5303 -0.0195312c0.200195 62.5898 23.8604 76.5195 69.1006 95.4697
c30.0801 13.5596 41.9199 21.2998 41.8398 36.5c-0.129883 18.5703 -17.9297 24.5205 -43.7598 24.3301c-21.7598 0.0898438 -46.9795 -4.79004 -68.499 -10.3398l-40.4004 71.46c35.2305 15.1602 76.54 22.4297 116.73 22.4297zM229.488 564.4h-136.079l141.06 172.6
h137.85l141.06 -172.6h-136.1l-73.8896 100.98zM303.739 514c154.26 0 243.661 -109.689 242.931 -274.47c-0.0302734 -7.74023 -0.280273 -15.5098 -0.760742 -23.3096l-351 0.00976562c0.389648 -2.69043 0.819336 -5.35059 1.2998 -7.96094
c12.3799 -68.7998 58.3496 -108.08 123.31 -107.97c47.6104 0.0996094 99.8203 15.2393 152.83 41.2295l32.6299 -88.0098c-56.6201 -43.4697 -126.82 -67.5195 -198.63 -67.5195c-154.3 0 -256.13 118 -256.13 264c0 147 100.79 264.51 253.521 264zM196.851 301.501
h211.649c-8.55957 60.1797 -37.5693 98.6699 -101.459 98.6699c-59.3799 0 -97.7402 -38.8799 -110.19 -98.6699z" />
    <glyph glyph-name="ecircumflextilde" unicode="&#x1ec5;" horiz-adv-x="589" 
d="M228.32 821.2c-20.1699 0.0898438 -41.1719 -23.3408 -64.0215 -60.1709l-60.0898 50.1602c31.7598 50.6602 69.29 110.271 132.82 110.271c37.0195 0 65.6299 -21.04 94.0596 -43.4502c18.4902 -14.4697 32.0205 -23.9795 46.0107 -23.7793
c19.5 -0.200195 39.0303 17.3096 65.3701 60.0498l60.0703 -50.1504c-35.5098 -55.5098 -70.3701 -109.74 -131.84 -110.25c-41.0596 0 -69.5498 23.4697 -94.5498 43.4297c-16.0195 12.4902 -33.5098 23.9805 -47.8301 23.8906zM229.479 564.399h-136.079l141.06 172.6
h137.85l141.06 -172.6h-136.1l-73.8896 100.98zM303.729 513.999c154.26 0 243.661 -109.689 242.931 -274.47c-0.0302734 -7.74023 -0.280273 -15.5098 -0.760742 -23.3096l-351 0.00976562c0.389648 -2.69043 0.819336 -5.35059 1.2998 -7.96094
c12.3799 -68.7998 58.3496 -108.08 123.31 -107.97c47.6104 0.0996094 99.8203 15.2393 152.83 41.2295l32.6299 -88.0098c-56.6201 -43.4697 -126.82 -67.5195 -198.63 -67.5195c-154.3 0 -256.13 118 -256.13 264c0 147 100.79 264.51 253.521 264zM196.841 301.5h211.649
c-8.55957 60.1797 -37.5693 98.6699 -101.459 98.6699c-59.3799 0 -97.7402 -38.8799 -110.19 -98.6699z" />
    <glyph glyph-name="edieresis" unicode="&#xeb;" horiz-adv-x="589" 
d="M192.92 717.99c39.46 0 71.4404 -31.9805 71.4404 -71.4404c0 -39.4502 -31.9805 -71.4404 -71.4404 -71.4404c-39.4502 0 -71.4404 31.9902 -71.4404 71.4404c0 39.46 31.9902 71.4404 71.4404 71.4404zM413.82 717.99c39.46 0 71.4404 -31.9805 71.4404 -71.4404
c0 -39.4502 -31.9805 -71.4404 -71.4404 -71.4404c-39.4502 0 -71.4404 31.9902 -71.4404 71.4404c0 39.46 31.9902 71.4404 71.4404 71.4404zM303.721 514c154.26 0 243.661 -109.689 242.931 -274.47c-0.0302734 -7.74023 -0.280273 -15.5098 -0.760742 -23.3096
l-351 0.00976562c0.389648 -2.69043 0.819336 -5.35059 1.2998 -7.96094c12.3799 -68.7998 58.3496 -108.08 123.31 -107.97c47.6104 0.0996094 99.8203 15.2393 152.83 41.2295l32.6299 -88.0098c-56.6201 -43.4697 -126.82 -67.5195 -198.63 -67.5195
c-154.3 0 -256.13 118 -256.13 264c0 147 100.79 264.51 253.521 264zM307.021 400.171c-59.3799 0 -97.751 -38.8799 -110.201 -98.6699h211.66c-8.55957 60.1797 -37.5693 98.6699 -101.459 98.6699z" />
    <glyph glyph-name="edotaccent" unicode="&#x117;" horiz-adv-x="589" 
d="M303.37 717.99c39.46 0 71.4404 -31.9805 71.4404 -71.4404c0 -39.4502 -31.9805 -71.4404 -71.4404 -71.4404c-39.4502 0 -71.4404 31.9902 -71.4404 71.4404c0 39.46 31.9902 71.4404 71.4404 71.4404zM303.72 514c154.26 0 243.661 -109.689 242.931 -274.47
c-0.0302734 -7.74023 -0.280273 -15.5098 -0.760742 -23.3096l-351 0.00976562c0.389648 -2.69043 0.819336 -5.35059 1.2998 -7.96094c12.3799 -68.7998 58.3496 -108.08 123.31 -107.97c47.6104 0.0996094 99.8203 15.2393 152.83 41.2295l32.6299 -88.0098
c-56.6201 -43.4697 -126.82 -67.5195 -198.63 -67.5195c-154.3 0 -256.13 118 -256.13 264c0 147 100.79 264.51 253.521 264zM307.021 400.171c-59.3799 0 -97.751 -38.8799 -110.201 -98.6699h211.66c-8.55957 60.1797 -37.5693 98.6699 -101.459 98.6699z" />
    <glyph glyph-name="edotbelow" unicode="&#x1eb9;" horiz-adv-x="589" 
d="M303.72 514c154.26 0 243.661 -109.689 242.931 -274.47c-0.0302734 -7.74023 -0.280273 -15.5098 -0.760742 -23.3096l-351 0.00976562c0.389648 -2.69043 0.819336 -5.35059 1.2998 -7.96094c12.3799 -68.7998 58.3496 -108.08 123.31 -107.97
c47.6104 0.0996094 99.8203 15.2393 152.83 41.2295l32.6299 -88.0098c-56.6201 -43.4697 -126.82 -67.5195 -198.63 -67.5195c-154.3 0 -256.13 118 -256.13 264c0 147 100.79 264.51 253.521 264zM307.021 400.171c-59.3799 0 -97.751 -38.8799 -110.201 -98.6699h211.66
c-8.55957 60.1797 -37.5693 98.6699 -101.459 98.6699zM306.56 -54.0088c39.46 0 71.4404 -31.9902 71.4404 -71.4404c0 -39.46 -31.9805 -71.4404 -71.4404 -71.4404c-39.4502 0 -71.4404 31.9805 -71.4404 71.4404c0 39.4502 31.9902 71.4404 71.4404 71.4404z" />
    <glyph glyph-name="egrave" unicode="&#xe8;" horiz-adv-x="589" 
d="M367.89 564.58h-133.029l-140.04 172.92h145.05zM303.721 514c154.26 0 243.661 -109.689 242.931 -274.47c-0.0302734 -7.74023 -0.280273 -15.5098 -0.760742 -23.3096l-351 0.00976562c0.389648 -2.69043 0.819336 -5.35059 1.2998 -7.96094
c12.3799 -68.7998 58.3496 -108.08 123.31 -107.97c47.6104 0.0996094 99.8203 15.2393 152.83 41.2295l32.6299 -88.0098c-56.6201 -43.4697 -126.82 -67.5195 -198.63 -67.5195c-154.3 0 -256.13 118 -256.13 264c0 147 100.79 264.51 253.521 264zM307.021 400.171
c-59.3799 0 -97.751 -38.8799 -110.201 -98.6699h211.66c-8.55957 60.1797 -37.5693 98.6699 -101.459 98.6699z" />
    <glyph glyph-name="ehookabove" unicode="&#x1ebb;" horiz-adv-x="589" 
d="M325.21 813.9c70.4902 0 132.139 -21.6387 132.139 -108.259c0 -62.7002 -32.8701 -80.46 -92.6602 -106.77c-16.7305 -7.62012 -24.79 -12.1904 -25.96 -24.8008l-88.5303 -0.0302734c0.200195 62.5996 23.8506 76.5293 69.1006 95.4795
c30.0801 13.5596 41.9199 21.2998 41.8398 36.5c-0.129883 18.5703 -17.9297 24.5205 -43.7695 24.3301c-21.75 0.0898438 -46.9697 -4.79004 -68.4893 -10.3398l-40.4004 71.46c35.2305 15.1602 76.54 22.4297 116.73 22.4297zM303.729 514.001
c154.26 0 243.661 -109.689 242.931 -274.47c-0.0302734 -7.74023 -0.280273 -15.5098 -0.760742 -23.3096l-351 0.00976562c0.389648 -2.69043 0.819336 -5.35059 1.2998 -7.96094c12.3799 -68.7998 58.3496 -108.08 123.31 -107.97
c47.6104 0.0996094 99.8203 15.2393 152.83 41.2295l32.6299 -88.0098c-56.6201 -43.4697 -126.82 -67.5195 -198.63 -67.5195c-154.3 0 -256.13 118 -256.13 264c0 147 100.79 264.51 253.521 264zM307.029 400.172c-59.3799 0 -97.751 -38.8799 -110.201 -98.6699h211.66
c-8.55957 60.1797 -37.5693 98.6699 -101.459 98.6699z" />
    <glyph glyph-name="emacron" unicode="&#x113;" horiz-adv-x="589" 
d="M475.27 586.02h-343.79v107.56h343.79v-107.56zM303.72 514c154.26 0 243.661 -109.689 242.931 -274.47c-0.0302734 -7.74023 -0.280273 -15.5098 -0.760742 -23.3096l-351 0.00976562c0.389648 -2.69043 0.819336 -5.35059 1.2998 -7.96094
c12.3799 -68.7998 58.3496 -108.08 123.31 -107.97c47.6104 0.0996094 99.8203 15.2393 152.83 41.2295l32.6299 -88.0098c-56.6201 -43.4697 -126.82 -67.5195 -198.63 -67.5195c-154.3 0 -256.13 118 -256.13 264c0 147 100.79 264.51 253.521 264zM307.021 400.171
c-59.3799 0 -97.751 -38.8799 -110.201 -98.6699h211.66c-8.55957 60.1797 -37.5693 98.6699 -101.459 98.6699z" />
    <glyph glyph-name="eogonek" unicode="&#x119;" horiz-adv-x="589" 
d="M303.72 514c154.26 0 243.662 -109.68 242.932 -274.46c-0.0302734 -7.74023 -0.280273 -15.5098 -0.760742 -23.3096l-351 0.00976562c0.389648 -2.69043 0.819336 -5.35059 1.2998 -7.96094c12.3799 -68.7998 58.3496 -108.08 123.31 -107.97
c47.6104 0.0996094 99.8203 15.2393 152.83 41.2295l32.6299 -88.0098c-21.2305 -16.2998 -44.3701 -29.8701 -68.79 -40.4697c-28.6699 -19.9404 -59.5996 -48.5908 -59.8799 -87.3008c0.320312 -33.4902 24.5898 -46.2803 57.2295 -46.0205
c14.0195 -0.259766 33.6191 2.48047 50.3193 10.5107l25.5596 -70.2002c-29.8203 -19.5 -72.0898 -29.0098 -108.79 -29.2695c-65.7197 0.240234 -127.189 34.2402 -127.699 97.8398c0.349609 37.54 21.6299 70.7705 51.6797 97.9004
c-6.07031 -0.349609 -12.1602 -0.519531 -18.2598 -0.519531c-154.3 0 -256.13 118 -256.13 264c0 147 100.79 264.51 253.521 264zM196.832 301.511h211.649c-8.55957 60.1797 -37.5693 98.6699 -101.459 98.6699c-59.3799 0 -97.7402 -38.8799 -110.19 -98.6699z" />
    <glyph glyph-name="etilde" unicode="&#x1ebd;" horiz-adv-x="589" 
d="M237.03 732.26c37.0195 0 65.6279 -21.041 94.0576 -43.4512c18.4902 -14.4697 32.0205 -23.9795 46.0107 -23.7793c19.5 -0.200195 39.0303 17.3096 65.3701 60.0498l60.0703 -50.1504c-35.5098 -55.5098 -70.3701 -109.74 -131.84 -110.25
c-41.0596 0 -69.5498 23.4697 -94.5498 43.4297c-16.0195 12.4902 -33.5098 23.9805 -47.8301 23.8906c-20.1699 0.0898438 -41.1699 -23.3398 -64.0195 -60.1699l-60.0898 50.1602c31.7598 50.6602 69.29 110.271 132.82 110.271zM303.719 513.999
c154.26 0 243.66 -109.689 242.94 -274.47c-0.0302734 -7.74023 -0.290039 -15.5098 -0.770508 -23.3096l-350.99 0.00976562c0.379883 -2.69043 0.80957 -5.35059 1.29004 -7.96094c12.3799 -68.7998 58.3604 -108.08 123.32 -107.97
c47.6104 0.0996094 99.8203 15.2393 152.83 41.2295l32.6299 -88.0098c-56.6201 -43.4697 -126.82 -67.5195 -198.63 -67.5195c-154.3 0 -256.14 118 -256.14 264c0 147 100.8 264.51 253.52 264zM307.028 400.17c-59.3799 0 -97.751 -38.8799 -110.201 -98.6699h211.66
c-8.55957 60.1797 -37.5791 98.6699 -101.459 98.6699z" />
    <glyph glyph-name="f" unicode="f" horiz-adv-x="452" 
d="M342.88 612.19c-46.5703 0 -74.2998 -30.0898 -74.2295 -91.2295v-20.9297h135.77v-108.3h-135.77v-391.74h-140.07l0.0195312 391.74h-96.0596v87.7998l93 20.5h3.05957v14.3896c0 145.83 79.4502 213.29 187.59 212.8c46.46 0 102.6 -13.1797 156.67 -38.8193
l-32.7803 -96.7305c-36.9297 13.8799 -69.2793 20.6396 -97.1992 20.5195z" />
    <glyph glyph-name="g" unicode="g" horiz-adv-x="631" 
d="M568.01 500l0.399414 -475.292c0.0595703 -164.1 -107.771 -234.17 -238.261 -234.81c-81.6699 -0.400391 -169.39 26.4395 -243.51 78.0596l9.15039 106.45c72.4199 -44.21 156.3 -70.6797 217.3 -70.6797c74.2998 0 115.26 40.2598 114.93 121.46v48.6602
c-48.5703 -43.6797 -104.03 -65.4395 -160.91 -65.4697c-127.91 0.0302734 -216.91 111.36 -216.91 252.811c0 140.94 89 252.32 216.95 252.28c55.4902 0.0302734 111.391 -20.9297 160.881 -65.46v51.9902h139.98zM297.39 122.398
c41.9297 0.00976562 92.9004 20.6201 130.641 56.1396v160.6c-38.1201 35.71 -88.6602 56.0498 -130.641 56.1699c-66.9902 -0.120117 -105.17 -52.9902 -105.17 -136.26c0 -83.3301 38.1797 -136.64 105.17 -136.649z" />
    <glyph glyph-name="g.ss01" horiz-adv-x="620" 
d="M582.44 407.09l-85.9414 0.00976562c13.1699 -23.21 20.5596 -50.0596 20.5195 -79.7793c0.129883 -112.81 -102.93 -186.569 -229.609 -186.329c-17.3604 -0.0302734 -34.2002 1.31934 -50.3203 3.95898l-15.5703 -7.83984
c-13.5498 -7.82031 -16.6094 -17.2803 -16.5195 -25.8506c0.80957 -26.2695 32.8994 -32.6191 47.5996 -32.6592h53.4102c154.45 0 259.9 -48.5098 259.9 -164.2c0 -115.7 -104.37 -164.41 -262.53 -164.41c-156.02 0 -262.539 47 -262.449 155.59
c0 49.7197 33.1699 92 89.0498 119.7c-25.2197 16.6396 -44.9102 42.5801 -45.9902 82.0498c-0.240234 27.4102 8.12012 57.29 43.2705 83.4805c-42.79 31.8496 -69.3496 78.8691 -69.5996 136.129c0.490234 111.94 101.42 186.73 230.189 186.37
c31.1699 0.0898438 60.8203 -4.27051 87.8203 -12.54l206.78 19.0703zM287.749 399.119c-56.2002 0.269531 -94.5898 -28.0205 -94.1797 -71.9805c0.360352 -43.8701 35.6699 -72.1504 93.6797 -71.9805c57.9199 -0.169922 94 28.8604 94 72.0303
s-36.0801 72.2002 -93.5 71.9307zM305.669 -23.5312l-34.0391 0.0996094c-59.6699 -11.8799 -88.54 -38.4297 -88.54 -65.5498c0.0195312 -36.6396 31.7793 -55.5195 121.35 -55.5195c88.75 0 121.32 18.8799 121.32 60.5703c0 41.1396 -31.8604 60.2393 -120.091 60.3994z
" />
    <glyph glyph-name="gbreve" unicode="&#x11f;" horiz-adv-x="631" 
d="M320.03 564.04c-114.37 0 -189.85 74.6689 -189.85 167.059l101.04 0.00976562c0 -46.46 38.3799 -75.4697 88.8096 -75.4697c50.8896 0 88.8096 28.8203 88.8096 75.4707l101.04 -0.00976562c0 -92.3896 -74.7197 -167.06 -189.85 -167.06zM568.012 499.999
l0.399414 -475.292c0.0595703 -164.1 -107.771 -234.17 -238.261 -234.81c-81.6699 -0.400391 -169.39 26.4395 -243.51 78.0596l9.15039 106.45c72.4199 -44.21 156.3 -70.6797 217.3 -70.6797c74.2998 0 115.26 40.2598 114.93 121.46v48.6602
c-48.5703 -43.6797 -104.03 -65.4395 -160.91 -65.4697c-127.91 0.0302734 -216.91 111.36 -216.91 252.811c0 140.94 89 252.32 216.95 252.28c55.4902 0.0302734 111.391 -20.9297 160.881 -65.46v51.9902h139.98zM297.392 122.397
c41.9297 0.00976562 92.9004 20.6201 130.641 56.1396v160.6c-38.1201 35.71 -88.6602 56.0498 -130.641 56.1699c-66.9902 -0.120117 -105.17 -52.9902 -105.17 -136.26c0 -83.3301 38.1797 -136.64 105.17 -136.649z" />
    <glyph glyph-name="gbreve.ss01" horiz-adv-x="620" 
d="M398.8 731.11l101.051 -0.0205078c0 -92.3799 -74.7197 -167.05 -189.85 -167.05c-114.37 0 -189.86 74.6699 -189.86 167.05l101.05 0.0195312c0 -46.46 38.3799 -75.4697 88.8096 -75.4697c50.8799 0 88.7998 28.8203 88.7998 75.4707zM582.44 407.09
l-85.9414 0.00976562c13.1699 -23.21 20.5596 -50.0596 20.5195 -79.7793c0.129883 -112.81 -102.93 -186.569 -229.609 -186.329c-17.3604 -0.0302734 -34.2002 1.31934 -50.3203 3.95898l-15.5703 -7.83984c-13.5498 -7.82031 -16.6094 -17.2803 -16.5195 -25.8506
c0.80957 -26.2695 32.8994 -32.6191 47.5996 -32.6592h53.4102c154.45 0 259.9 -48.5098 259.9 -164.2c0 -115.7 -104.37 -164.41 -262.53 -164.41c-156.02 0 -262.539 47 -262.449 155.59c0 49.7197 33.1699 92 89.0498 119.7
c-25.2197 16.6396 -44.9102 42.5801 -45.9902 82.0498c-0.240234 27.4102 8.12012 57.29 43.2705 83.4805c-42.79 31.8496 -69.3496 78.8691 -69.5996 136.129c0.490234 111.94 101.42 186.73 230.189 186.37c31.1699 0.0898438 60.8203 -4.27051 87.8203 -12.54
l206.78 19.0703zM287.749 399.119c-56.2002 0.269531 -94.5898 -28.0205 -94.1797 -71.9805c0.360352 -43.8701 35.6699 -72.1504 93.6797 -71.9805c57.9199 -0.169922 94 28.8604 94 72.0303s-36.0801 72.2002 -93.5 71.9307zM305.669 -23.5312l-34.0391 0.0996094
c-59.6699 -11.8799 -88.54 -38.4297 -88.54 -65.5498c0.0195312 -36.6396 31.7793 -55.5195 121.35 -55.5195c88.75 0 121.32 18.8799 121.32 60.5703c0 41.1396 -31.8604 60.2393 -120.091 60.3994z" />
    <glyph glyph-name="gcommaaccent" unicode="&#x123;" horiz-adv-x="631" 
d="M321.68 548.78c-35.5303 -0.160156 -63.5713 25.46 -69.9912 67.1104c-10.04 65.7598 39.2998 145.42 101.21 190.35l46.4697 -29.7002c-31.7998 -26.5303 -55.0693 -56.4004 -68.5693 -94.2002c32.2803 -3.65039 58.6504 -30.8301 58.6406 -66.3604
c0.00976562 -37.7197 -29.6299 -67.3594 -67.7598 -67.1992zM567.999 499.99l0.399414 -475.292c0.0595703 -164.1 -107.771 -234.17 -238.261 -234.81c-81.6699 -0.400391 -169.39 26.4395 -243.51 78.0596l9.15039 106.45c72.4199 -44.21 156.3 -70.6797 217.3 -70.6797
c74.2998 0 115.26 40.2598 114.93 121.46v48.6602c-48.5703 -43.6797 -104.03 -65.4395 -160.91 -65.4697c-127.91 0.0302734 -216.91 111.36 -216.91 252.811c0 140.94 89 252.32 216.95 252.28c55.4902 0.0302734 111.391 -20.9297 160.881 -65.46v51.9902h139.98z
M297.379 122.389c41.9297 0.00976562 92.9004 20.6201 130.641 56.1396v160.6c-38.1201 35.71 -88.6602 56.0498 -130.641 56.1699c-66.9902 -0.120117 -105.17 -52.9902 -105.17 -136.26c0 -83.3301 38.1797 -136.64 105.17 -136.649z" />
    <glyph glyph-name="gcommaaccent.ss01" horiz-adv-x="620" 
d="M339.71 806.24l46.46 -29.71c-31.8096 -26.5303 -55.0693 -56.4004 -68.5791 -94.2002c32.2803 -3.65039 58.6602 -30.8301 58.6406 -66.3604c0.0195312 -37.7197 -29.6309 -67.3594 -67.7607 -67.1992c-35.5303 -0.160156 -63.5605 25.4697 -69.9805 67.1201
c-10.04 65.7598 39.2998 145.42 101.22 190.35zM582.43 407.08l-85.9414 0.0175781c13.1699 -23.2197 20.5596 -50.0693 20.5195 -79.7891c0.129883 -112.8 -102.93 -186.569 -229.609 -186.319c-17.3604 -0.0400391 -34.2002 1.32031 -50.3203 3.95996l-15.5703 -7.83984
c-13.5498 -7.82031 -16.6094 -17.2803 -16.5195 -25.8506c0.80957 -26.2695 32.8994 -32.6191 47.5996 -32.6689h53.4102c154.45 0 259.9 -48.5098 259.9 -164.2s-104.37 -164.4 -262.53 -164.4c-156.02 0 -262.539 47 -262.449 155.58
c0 49.7305 33.1699 92.0107 89.0498 119.711c-25.2197 16.6396 -44.9102 42.5801 -45.9902 82.0498c-0.240234 27.4004 8.12012 57.29 43.2705 83.4697c-42.79 31.8496 -69.3496 78.8799 -69.5996 136.13c0.490234 111.95 101.42 186.74 230.189 186.37
c31.1699 0.0898438 60.8203 -4.25977 87.8203 -12.54l206.78 19.0703zM287.738 399.117c-56.2002 0.259766 -94.5898 -28.0205 -94.1797 -71.9805c0.360352 -43.8701 35.6699 -72.1602 93.6797 -71.9805c57.9199 -0.179688 94 28.8506 94 72.0205
s-36.0801 72.2002 -93.5 71.9404zM305.658 -23.5332l-34.0391 0.0996094c-59.6699 -11.8799 -88.54 -38.4297 -88.54 -65.5498c0.0195312 -36.6504 31.7793 -55.5303 121.35 -55.5303c88.75 0 121.32 18.8799 121.32 60.5703c0 41.1504 -31.8604 60.2402 -120.091 60.4102z
" />
    <glyph glyph-name="gdotaccent" unicode="&#x121;" horiz-adv-x="631" 
d="M320.03 575.11c-39.4502 0 -71.4404 31.9902 -71.4404 71.4404c0 39.46 31.9902 71.4404 71.4404 71.4404c39.46 0 71.4404 -31.9805 71.4404 -71.4404c0 -39.4502 -31.9805 -71.4404 -71.4404 -71.4404zM568.011 500l0.399414 -475.292
c0.0595703 -164.1 -107.771 -234.17 -238.261 -234.81c-81.6699 -0.400391 -169.39 26.4395 -243.51 78.0596l9.15039 106.45c72.4199 -44.21 156.3 -70.6797 217.3 -70.6797c74.2998 0 115.26 40.2598 114.93 121.46v48.6602
c-48.5703 -43.6797 -104.03 -65.4395 -160.91 -65.4697c-127.91 0.0302734 -216.91 111.36 -216.91 252.811c0 140.94 89 252.32 216.95 252.28c55.4902 0.0302734 111.391 -20.9297 160.881 -65.46v51.9902h139.98zM297.391 122.398
c41.9297 0.00976562 92.9004 20.6201 130.641 56.1396v160.6c-38.1201 35.71 -88.6602 56.0498 -130.641 56.1699c-66.9902 -0.120117 -105.17 -52.9902 -105.17 -136.26c0 -83.3301 38.1797 -136.64 105.17 -136.649z" />
    <glyph glyph-name="gdotaccent.ss01" horiz-adv-x="620" 
d="M309.99 717.99c39.46 0 71.4404 -31.9805 71.4404 -71.4404c0 -39.4502 -31.9805 -71.4404 -71.4404 -71.4404c-39.4502 0 -71.4404 31.9902 -71.4404 71.4404c0 39.46 31.9902 71.4404 71.4404 71.4404zM582.44 407.09l-85.9414 0.0175781
c13.1699 -23.2197 20.5596 -50.0693 20.5195 -79.7891c0.129883 -112.8 -102.93 -186.569 -229.609 -186.319c-17.3604 -0.0400391 -34.2002 1.32031 -50.3203 3.95996l-15.5703 -7.83984c-13.5498 -7.82031 -16.6094 -17.2803 -16.5195 -25.8506
c0.80957 -26.2695 32.8994 -32.6191 47.5996 -32.6689h53.4102c154.45 0 259.9 -48.5098 259.9 -164.2s-104.37 -164.4 -262.53 -164.4c-156.02 0 -262.539 47 -262.449 155.58c0 49.7305 33.1699 92.0107 89.0498 119.711
c-25.2197 16.6396 -44.9102 42.5801 -45.9902 82.0498c-0.240234 27.4004 8.12012 57.29 43.2705 83.4697c-42.79 31.8496 -69.3496 78.8799 -69.5996 136.13c0.490234 111.95 101.42 186.74 230.189 186.37c31.1699 0.0898438 60.8203 -4.25977 87.8203 -12.54
l206.78 19.0703zM287.749 399.127c-56.2002 0.259766 -94.5898 -28.0205 -94.1797 -71.9805c0.360352 -43.8701 35.6699 -72.1602 93.6797 -71.9805c57.9199 -0.179688 94 28.8506 94 72.0205s-36.0801 72.2002 -93.5 71.9404zM305.669 -23.5234l-34.0391 0.0996094
c-59.6699 -11.8799 -88.54 -38.4297 -88.54 -65.5498c0.0195312 -36.6504 31.7793 -55.5303 121.35 -55.5303c88.75 0 121.32 18.8799 121.32 60.5703c0 41.1504 -31.8604 60.2402 -120.091 60.4102z" />
    <glyph glyph-name="h" unicode="h" horiz-adv-x="615" 
d="M383.65 513.93c92.0801 -0.0302734 171.122 -58.9297 171.122 -187.93v-326h-139.98l0.0195312 308.43c0 59.7197 -36.54 86.2197 -83.9297 86.0996c-39.2803 -0.0996094 -86.0303 -18.4893 -125.601 -51.4297v-343.1h-139.98v700h139.98v-260.94
c52.3398 49.2197 117.899 74.8896 178.369 74.8701z" />
    <glyph glyph-name="hbar" unicode="&#x127;" horiz-adv-x="615" 
d="M383.65 513.93c92.0801 -0.0400391 171.122 -58.9395 171.122 -187.93v-326h-139.98l0.0195312 308.43c0 59.71 -36.54 86.2197 -83.9297 86.0996c-39.2803 -0.0996094 -86.0303 -18.5 -125.601 -51.4404v-343.09h-139.98v539.48h-86.1201v101.44h86.1201v59.0801h139.98
v-59.0801h117.69v-101.44h-117.69v-100.42c52.3398 49.2197 117.899 74.8896 178.369 74.8701z" />
    <glyph glyph-name="i" unicode="i" horiz-adv-x="255" 
d="M129.98 719.44c45.2598 0 81.9502 -35.5996 81.9502 -79.5c0 -43.9102 -36.6904 -79.5 -81.9502 -79.5s-81.9502 35.5898 -81.9502 79.5c0 43.9004 36.6904 79.5 81.9502 79.5zM199.971 0h-139.98v500h139.98v-500z" />
    <glyph glyph-name="dotlessi" unicode="&#x131;" horiz-adv-x="255" 
d="M199.99 0h-139.98v500h139.98v-500z" />
    <glyph glyph-name="iacute" unicode="&#xed;" horiz-adv-x="255" 
d="M189.54 564.58h-133.029l128.02 172.93h145.05zM199.98 0h-139.98v500h139.98v-500z" />
    <glyph glyph-name="icaron" unicode="&#x1d0;" horiz-adv-x="255" 
d="M60.0498 564.4l-141.07 172.6h136.1l73.8896 -100.99l73.9004 100.99h136.09l-141.06 -172.6h-137.85zM59.999 500h139.98v-500h-139.98v500z" />
    <glyph glyph-name="icircumflex" unicode="&#xee;" horiz-adv-x="255" 
d="M338.96 564.4h-136.079l-73.9004 100.98l-73.8896 -100.98h-136.1l141.06 172.6h137.85zM60.0107 500h139.98v-500h-139.98v500z" />
    <glyph glyph-name="idieresis" unicode="&#xef;" horiz-adv-x="255" 
d="M18.5303 717.99c39.4502 0 71.4404 -31.9805 71.4404 -71.4404c0 -39.4502 -31.9902 -71.4404 -71.4404 -71.4404c-39.46 0 -71.4404 31.9902 -71.4404 71.4404c0 39.46 31.9805 71.4404 71.4404 71.4404zM239.431 717.99c39.4502 0 71.4404 -31.9805 71.4404 -71.4404
c0 -39.4502 -31.9902 -71.4404 -71.4404 -71.4404c-39.46 0 -71.4404 31.9902 -71.4404 71.4404c0 39.46 31.9805 71.4404 71.4404 71.4404zM199.99 0h-139.98v500h139.98v-500z" />
    <glyph glyph-name="i.loclTRK" horiz-adv-x="255" 
d="M128.98 717.99c39.4502 0 71.4404 -31.9805 71.4404 -71.4404c0 -39.4502 -31.9902 -71.4404 -71.4404 -71.4404c-39.46 0 -71.4404 31.9902 -71.4404 71.4404c0 39.46 31.9805 71.4404 71.4404 71.4404zM199.99 0h-139.98v500h139.98v-500z" />
    <glyph glyph-name="idotbelow" unicode="&#x1ecb;" horiz-adv-x="255" 
d="M129.98 719.44c45.2598 0 81.9502 -35.5996 81.9502 -79.5c0 -43.9102 -36.6904 -79.5 -81.9502 -79.5s-81.9502 35.5898 -81.9502 79.5c0 43.9004 36.6904 79.5 81.9502 79.5zM199.971 0h-139.98v500h139.98v-500zM129.98 -54.0098
c39.4502 0 71.4404 -31.9902 71.4404 -71.4404c0 -39.46 -31.9902 -71.4404 -71.4404 -71.4404c-39.46 0 -71.4404 31.9805 -71.4404 71.4404c0 39.4502 31.9805 71.4404 71.4404 71.4404z" />
    <glyph glyph-name="igrave" unicode="&#xec;" horiz-adv-x="255" 
d="M193.49 564.58h-133.02l-140.04 172.93h145.05zM199.99 0h-139.98v500h139.98v-500z" />
    <glyph glyph-name="ihookabove" unicode="&#x1ec9;" horiz-adv-x="255" 
d="M157.61 813.9c70.5 0 132.149 -21.6299 132.149 -108.25c0 -62.7002 -32.8799 -80.46 -92.6602 -106.77c-16.7305 -7.62012 -24.79 -12.1904 -25.96 -24.8008l-88.5303 -0.0302734c0.19043 62.5996 23.8506 76.5293 69.0908 95.4795
c30.0801 13.5596 41.9199 21.29 41.8398 36.5c-0.129883 18.5703 -17.9297 24.5107 -43.7598 24.3311c-21.7598 0.0898438 -46.9697 -4.79004 -68.5 -10.3398l-40.3896 71.4502c35.2305 15.1699 76.54 22.4297 116.72 22.4297zM199.98 0h-139.98v500h139.98v-500z" />
    <glyph glyph-name="ij" unicode="&#x133;" horiz-adv-x="542" 
d="M129.98 719.44c45.2598 0 81.9502 -35.5996 81.9502 -79.5c0 -43.9102 -36.6904 -79.5 -81.9502 -79.5s-81.9502 35.5898 -81.9502 79.5c0 43.9004 36.6904 79.5 81.9502 79.5zM404.561 719.44c45.2598 0 81.9502 -35.5996 81.9502 -79.5
c0 -43.9102 -36.6904 -79.5 -81.9502 -79.5s-81.9502 35.5898 -81.9502 79.5c0 43.9004 36.6904 79.5 81.9502 79.5zM199.971 0h-139.98v500h139.98v-500zM474.55 500v-549.17c0 -123.6 -68.5498 -169.819 -153.47 -169.89
c-32.96 -0.0302734 -68.4502 6.23926 -103.44 16.5889l9.12012 103.73c16.0195 -3.05957 31.4795 -4.95996 45.8096 -4.88965c38.0898 0.0703125 62 21.0605 62 70.0801v533.55h139.98z" />
    <glyph glyph-name="imacron" unicode="&#x12b;" horiz-adv-x="255" 
d="M300.87 586.02h-343.79v107.56h343.79v-107.56zM199.99 -0h-139.98v500h139.98v-500z" />
    <glyph glyph-name="iogonek" unicode="&#x12f;" horiz-adv-x="255" 
d="M128.98 575.11c-39.46 0 -71.4404 31.9902 -71.4404 71.4404c0 39.46 31.9805 71.4404 71.4404 71.4404c39.4502 0 71.4404 -31.9805 71.4404 -71.4404c0 -39.4502 -31.9902 -71.4404 -71.4404 -71.4404zM235.851 -130.67l25.5586 -70.2002
c-29.8203 -19.5 -72.0898 -29.0098 -108.79 -29.2695c-65.7197 0.25 -127.189 34.25 -127.699 97.8496c0.5 54.7998 45.6299 101.39 97.5303 132.29h-62.4502v500h139.98v-500c-31.2197 -19.9902 -71.3496 -51.04 -71.6797 -95.1602
c0.330078 -33.4902 24.5898 -46.2803 57.2295 -46.0205c14.0303 -0.259766 33.6299 2.48047 50.3203 10.5107z" />
    <glyph glyph-name="itilde" unicode="&#x129;" horiz-adv-x="255" 
d="M62.6299 732.26c37.0195 0 65.6377 -21.041 94.0674 -43.4512c18.4902 -14.4697 32.0205 -23.9795 46.0107 -23.7793c19.5 -0.200195 39.0303 17.3096 65.3604 60.0498l60.0801 -50.1504c-35.5195 -55.5098 -70.3799 -109.74 -131.85 -110.25
c-41.0596 0 -69.5498 23.4697 -94.5498 43.4297c-16.0195 12.4902 -33.5098 23.9805 -47.8301 23.8906c-20.1699 0.0898438 -41.1699 -23.3398 -64.0195 -60.1699l-60.0898 50.1602c31.7598 50.6602 69.29 110.271 132.82 110.271zM199.987 -0.000976562h-139.98v500h139.98
v-500z" />
    <glyph glyph-name="j" unicode="j" horiz-adv-x="287" 
d="M149.56 719.44c45.2598 0 81.9502 -35.5996 81.9502 -79.5c0 -43.9102 -36.6904 -79.5 -81.9502 -79.5s-81.9502 35.5898 -81.9502 79.5c0 43.9004 36.6904 79.5 81.9502 79.5zM219.55 500v-549.17c0 -123.6 -68.5498 -169.819 -153.47 -169.89
c-32.96 -0.0302734 -68.4502 6.23926 -103.44 16.5889l9.12012 103.73c16.0195 -3.05957 31.4795 -4.95996 45.8096 -4.88965c38.0898 0.0703125 62 21.0605 62 70.0801v533.55h139.98z" />
    <glyph glyph-name="k" unicode="k" horiz-adv-x="607" 
d="M284.85 228.43l-77.1201 -73.5195v-154.91h-139.98v700h139.98v-390.15l183.91 190.12l178.08 0.0302734l-196.81 -187.62l219.31 -312.38h-162.67z" />
    <glyph glyph-name="kcommaaccent" unicode="&#x137;" horiz-adv-x="607" 
d="M592.22 0h-162.66l-144.71 228.43l-77.1201 -73.5195v-154.91h-139.98v700h139.98v-390.15l183.91 190.12l178.08 0.0302734l-196.81 -187.62zM326.939 -50.5703c35.5303 0.169922 63.5713 -25.4502 69.9912 -67.1104c10.04 -65.75 -39.2998 -145.41 -101.21 -190.351
l-46.4697 29.7002c31.7998 26.54 55.0693 56.4004 68.5693 94.2002c-32.2803 3.66016 -58.6504 30.8398 -58.6406 66.3701c-0.00976562 37.71 29.6299 67.3604 67.7598 67.1904z" />
    <glyph glyph-name="l" unicode="l" horiz-adv-x="384" 
d="M207.73 700v-528.498c0 -52.54 26.7598 -72.0205 63.3496 -71.8203c11.0703 0.0595703 23.4307 2.36914 36.8203 6.63867l33.8301 -91.79c-38.4502 -18.0596 -79.6006 -28.4492 -117.61 -28.4795c-84.2305 -0.139648 -156.37 47.46 -156.37 167.68v546.27h139.98z" />
    <glyph glyph-name="lacute" unicode="&#x13a;" horiz-adv-x="384" 
d="M208.31 764.58h-133.029l128.02 172.93h145.05zM207.721 700l0.0107422 -528.498c0 -52.54 26.75 -72.0205 63.3496 -71.8203c11.0596 0.0595703 23.4297 2.36914 36.8193 6.63867l33.8301 -91.79c-38.4502 -18.0596 -79.6104 -28.4492 -117.62 -28.4795
c-84.2197 -0.139648 -156.37 47.46 -156.37 167.68v546.27h139.98z" />
    <glyph glyph-name="lcaron" unicode="&#x13e;" horiz-adv-x="384" 
d="M349.76 731.51c35.5303 0.160156 63.5713 -25.46 69.9912 -67.1104c10.04 -65.7598 -39.2998 -145.42 -101.21 -190.35l-46.4697 29.7002c31.7998 26.5303 55.0693 56.4004 68.5693 94.2002c-32.2803 3.65039 -58.6504 30.8301 -58.6406 66.3604
c-0.00976562 37.7197 29.6299 67.3594 67.7598 67.1992zM207.74 700.01v-528.498c0 -52.54 26.7598 -72.0205 63.3496 -71.8203c11.0703 0.0595703 23.4307 2.36914 36.8203 6.63867l33.8301 -91.79c-38.4502 -18.0596 -79.6006 -28.4492 -117.61 -28.4795
c-84.2305 -0.139648 -156.37 47.46 -156.37 167.68v546.27h139.98z" />
    <glyph glyph-name="lcommaaccent" unicode="&#x13c;" horiz-adv-x="384" 
d="M207.73 700v-528.498c0 -52.54 26.7598 -72.0205 63.3496 -71.8203c11.0703 0.0595703 23.4307 2.36914 36.8203 6.63867l33.8301 -91.79c-38.4502 -18.0596 -79.6006 -28.4492 -117.61 -28.4795c-84.2305 -0.139648 -156.37 47.46 -156.37 167.68v546.27h139.98z
M185.99 -50.5684c35.5303 0.169922 63.5713 -25.4502 69.9912 -67.1104c10.04 -65.75 -39.2998 -145.41 -101.21 -190.351l-46.4697 29.7002c31.7998 26.54 55.0693 56.4004 68.5693 94.2002c-32.2803 3.66016 -58.6504 30.8398 -58.6406 66.3701
c-0.00976562 37.71 29.6299 67.3604 67.7598 67.1904z" />
    <glyph glyph-name="ldot" unicode="&#x140;" horiz-adv-x="384" 
d="M207.73 700v-528.498c0 -52.54 26.7598 -72.0205 63.3496 -71.8203c11.0703 0.0595703 23.4307 2.36914 36.8203 6.63867l33.8301 -91.79c-38.4502 -18.0596 -79.6006 -28.4492 -117.61 -28.4795c-84.2305 -0.139648 -156.37 47.46 -156.37 167.68v546.27h139.98z
M328.341 423.432c46.1104 0 83.4805 -37.3809 83.4805 -83.4805c0 -46.1104 -37.3701 -83.4805 -83.4805 -83.4805c-46.0996 0 -83.4795 37.3701 -83.4795 83.4805c0 46.4404 37.3799 83.4805 83.4795 83.4805z" />
    <glyph glyph-name="lslash" unicode="&#x142;" horiz-adv-x="371" 
d="M267.06 98.6104c12.3799 -0.00976562 26.1895 2.50098 41.209 7.28125l16.8398 -93.8604c-35.1699 -16.5996 -72.2002 -26.04 -105.94 -26.0098c-83.7197 0.0595703 -151.42 50.75 -151.42 171.26v122.43l-70.0996 -38.3799l-48.5098 88.4502l118.61 64.9199v305.29
h139.98v-228.66l91.6699 50.1797l48.5 -88.4502l-140.17 -76.7197v-181.41c0 -50.4404 21.3301 -76.4102 59.3301 -76.3203z" />
    <glyph glyph-name="m" unicode="m" horiz-adv-x="930" 
d="M707.43 514c89.5498 0 165.094 -58.0117 164.884 -188.012v-326h-139.98l0.00976562 308.43c0.230469 60.3496 -34.3291 86.3398 -79.5889 86.2197c-35.9404 -0.0898438 -78.6504 -16.5996 -116.061 -45.4395c0.55957 -7.45996 0.839844 -15.2002 0.830078 -23.21v-326
h-139.98l0.0195312 308.43c0.110352 59.9502 -33.8896 86.1406 -77.96 86.1104c-36.6104 -0.0302734 -80.1699 -18.1504 -116.87 -50.04v-344.5h-139.98v500h139.98v-60.5801c50.3496 49.1104 112.859 74.5908 170.819 74.5908c59.2998 0 112.77 -26.0195 141.579 -82.2695
c56.0996 53.04 127.279 82.2705 192.299 82.2705z" />
    <glyph glyph-name="n" unicode="n" horiz-adv-x="610" 
d="M381.01 514c91.75 0 171.212 -59.0293 171.212 -188.01v-326h-139.98l0.00976562 308.43c0 59.6396 -35.0703 86.1201 -80.9805 86.0898c-38.4404 -0.0195312 -87.3906 -18.4893 -128.541 -51.8096v-342.7h-139.98v500h139.98v-60.9404
c53.46 50.29 119.7 74.9404 178.28 74.9404z" />
    <glyph glyph-name="nacute" unicode="&#x144;" horiz-adv-x="610" 
d="M374.87 564.58h-133.029l128.02 172.93h145.05zM381.001 514c91.75 0 171.211 -59.0293 171.211 -188.01v-326h-139.98l0.0195312 308.43c0 59.6396 -35.0801 86.1201 -80.9805 86.0898c-38.4404 -0.0195312 -87.4004 -18.4893 -128.54 -51.8096v-342.7h-139.98v500
h139.98v-60.9404c53.46 50.29 119.7 74.9404 178.271 74.9404z" />
    <glyph glyph-name="ncaron" unicode="&#x148;" horiz-adv-x="610" 
d="M245.38 564.4l-141.07 172.6h136.1l73.8896 -100.99l73.9004 100.99h136.09l-141.06 -172.6h-137.85zM381 514c91.75 0 171.212 -59.0293 171.212 -188.01v-326h-139.98l0.00976562 308.43c0 59.6396 -35.0703 86.1201 -80.9805 86.0898
c-38.4404 -0.0195312 -87.3906 -18.4893 -128.541 -51.8096v-342.7h-139.98v500h139.98v-60.9404c53.46 50.29 119.7 74.9404 178.28 74.9404z" />
    <glyph glyph-name="ncommaaccent" unicode="&#x146;" horiz-adv-x="610" 
d="M381.01 514c91.75 0 171.212 -59.0293 171.212 -188.01v-326h-139.98l0.00976562 308.43c0 59.6396 -35.0703 86.1201 -80.9805 86.0898c-38.4404 -0.0195312 -87.3906 -18.4893 -128.541 -51.8096v-342.7h-139.98v500h139.98v-60.9404
c53.46 50.29 119.7 74.9404 178.28 74.9404zM317.521 -50.5693c35.5303 0.160156 63.5703 -25.46 69.9902 -67.1104c10.04 -65.7598 -39.2998 -145.42 -101.22 -190.35l-46.4697 29.7002c31.8096 26.5303 55.0693 56.4004 68.5791 94.2002
c-32.2803 3.65039 -58.6602 30.8301 -58.6406 66.3604c-0.0195312 37.7197 29.6309 67.3594 67.7607 67.1992z" />
    <glyph glyph-name="eng" unicode="&#x14b;" horiz-adv-x="610" 
d="M381.01 514c91.75 0 171.201 -59.0293 171.201 -188.01v-375.17c0 -123.6 -68.5498 -169.819 -153.47 -169.89c-32.96 -0.0302734 -68.4502 6.23926 -103.44 16.5889l9.12012 103.73c16.0195 -3.0498 31.4795 -4.95996 45.8096 -4.87988
c38.0898 0.0595703 62 21.0498 62 70.0693l0.0195312 341.98c0 59.6396 -35.0801 86.1201 -80.9805 86.0898c-38.4404 -0.0195312 -87.4004 -18.4893 -128.54 -51.8096v-342.7h-139.98v500h139.98v-60.9404c53.46 50.29 119.7 74.9404 178.28 74.9404z" />
    <glyph glyph-name="ntilde" unicode="&#xf1;" horiz-adv-x="610" 
d="M239.26 632c-20.1699 0.0898438 -41.1719 -23.3408 -64.0215 -60.1709l-60.0898 50.1602c31.7598 50.6602 69.29 110.271 132.82 110.271c37.0195 0 65.6299 -21.04 94.0596 -43.4502c18.4902 -14.4697 32.0205 -23.9795 46.0107 -23.7793
c19.5 -0.200195 39.0303 17.3096 65.3701 60.0498l60.0703 -50.1504c-35.5098 -55.5098 -70.3701 -109.74 -131.84 -110.25c-41.0596 0 -69.5498 23.4697 -94.5498 43.4297c-16.0195 12.4902 -33.5098 23.9805 -47.8301 23.8906zM381.008 513.999
c91.75 0 171.211 -59.0293 171.211 -188.01v-326h-139.98l0.0195312 308.43c0 59.6396 -35.0801 86.1201 -80.9805 86.0898c-38.4404 -0.0195312 -87.4004 -18.4893 -128.54 -51.8096v-342.7h-139.98v500h139.98v-60.9404c53.46 50.29 119.7 74.9404 178.271 74.9404z" />
    <glyph glyph-name="o" unicode="o" horiz-adv-x="634" 
d="M316.85 514c161.7 0 266.65 -118 266.65 -264s-104.95 -264 -266.65 -264c-160.64 0 -266.649 118 -266.649 264c0 147 106.01 265 266.649 264zM316.85 394.06c-78.0703 0 -125.56 -59.5605 -124.75 -144.07c0 -84.5098 48.29 -144.069 124.75 -144.069
c77.2598 0 124.75 58.7598 124.75 144.069c0 85.3203 -47.4902 144.07 -124.75 144.07z" />
    <glyph glyph-name="oacute" unicode="&#xf3;" horiz-adv-x="634" 
d="M377.41 564.58h-133.029l128.02 172.93h145.05zM316.841 514c161.71 0 266.65 -118 266.65 -264s-104.94 -264 -266.65 -264c-160.63 0 -266.649 118 -266.649 264c0 147 106.02 265 266.649 264zM316.841 394.06c-78.0703 0 -125.55 -59.5605 -124.75 -144.07
c0 -84.5098 48.29 -144.069 124.75 -144.069c77.2695 0 124.75 58.7598 124.75 144.069c0 85.3203 -47.4805 144.07 -124.75 144.07z" />
    <glyph glyph-name="ocaron" unicode="&#x1d2;" horiz-adv-x="634" 
d="M247.92 564.4l-141.07 172.6h136.1l73.8896 -100.99l73.9004 100.99h136.09l-141.06 -172.6h-137.85zM316.84 514c161.7 0 266.65 -118 266.65 -264s-104.95 -264 -266.65 -264c-160.64 0 -266.649 118 -266.649 264c0 147 106.01 265 266.649 264zM316.84 105.93
c77.2598 0 124.751 58.7588 124.751 144.068c0 85.3203 -47.4902 144.07 -124.75 144.07c-78.0703 0 -125.561 -59.5596 -124.751 -144.069c0 -84.5098 48.29 -144.069 124.75 -144.069z" />
    <glyph glyph-name="ocircumflex" unicode="&#xf4;" horiz-adv-x="634" 
d="M242.95 564.4h-136.079l141.06 172.6h137.85l141.06 -172.6h-136.1l-73.8896 100.98zM316.852 514c161.71 0 266.65 -118 266.65 -264s-104.94 -264 -266.65 -264c-160.63 0 -266.649 118 -266.649 264c0 147 106.02 265 266.649 264zM316.852 105.93
c77.2695 0 124.751 58.7588 124.751 144.068c0 85.3203 -47.4805 144.07 -124.75 144.07c-78.0703 0 -125.551 -59.5596 -124.751 -144.069c0 -84.5098 48.29 -144.069 124.75 -144.069z" />
    <glyph glyph-name="ocircumflexacute" unicode="&#x1ed1;" horiz-adv-x="634" 
d="M782.49 797.92l-140.05 -172.92h-133.02l128.02 172.92h145.05zM242.95 564.4h-136.079l141.06 172.6h137.85l141.06 -172.6h-136.1l-73.8896 100.98zM316.852 514c161.71 0 266.65 -118 266.65 -264s-104.94 -264 -266.65 -264c-160.63 0 -266.649 118 -266.649 264
c0 147 106.02 265 266.649 264zM316.852 105.93c77.2695 0 124.751 58.7588 124.751 144.068c0 85.3203 -47.4805 144.07 -124.75 144.07c-78.0703 0 -125.551 -59.5596 -124.751 -144.069c0 -84.5098 48.29 -144.069 124.75 -144.069z" />
    <glyph glyph-name="ocircumflexdotbelow" unicode="&#x1ed9;" horiz-adv-x="634" 
d="M242.95 564.4h-136.079l141.06 172.6h137.85l141.06 -172.6h-136.1l-73.8896 100.98zM316.852 514c161.71 0 266.65 -118 266.65 -264s-104.94 -264 -266.65 -264c-160.63 0 -266.649 118 -266.649 264c0 147 106.02 265 266.649 264zM316.852 105.93
c77.2695 0 124.751 58.7588 124.751 144.068c0 85.3203 -47.4805 144.07 -124.75 144.07c-78.0703 0 -125.551 -59.5596 -124.751 -144.069c0 -84.5098 48.29 -144.069 124.75 -144.069zM316.853 -54.0117c39.46 0 71.4404 -31.9902 71.4404 -71.4404
c0 -39.46 -31.9805 -71.4404 -71.4404 -71.4404c-39.4502 0 -71.4404 31.9805 -71.4404 71.4404c0 39.4502 31.9902 71.4404 71.4404 71.4404z" />
    <glyph glyph-name="ocircumflexgrave" unicode="&#x1ed3;" horiz-adv-x="634" 
d="M544.55 625l-140.04 172.92h145.05l128.01 -172.92h-133.02zM242.939 564.4h-136.079l141.06 172.6h137.85l141.06 -172.6h-136.1l-73.8896 100.99zM316.86 514c161.7 0 266.65 -118 266.65 -264s-104.95 -264 -266.65 -264c-160.64 0 -266.649 118 -266.649 264
c0 147 106.01 265 266.649 264zM316.86 105.94c77.2598 0 124.751 58.749 124.751 144.069c0 85.3096 -47.4902 144.069 -124.75 144.069c-78.0703 0 -125.561 -59.5596 -124.751 -144.069c0 -84.5098 48.29 -144.069 124.75 -144.069z" />
    <glyph glyph-name="ocircumflexhookabove" unicode="&#x1ed5;" horiz-adv-x="634" 
d="M598.1 835.44c70.4902 0 132.149 -21.6396 132.149 -108.26c0 -62.7002 -32.8701 -80.46 -92.6602 -106.77c-16.7305 -7.61035 -24.79 -12.1904 -25.96 -24.8008l-88.5303 -0.0195312c0.200195 62.5898 23.8506 76.5195 69.1006 95.4697
c30.0801 13.5596 41.9199 21.2998 41.8398 36.5c-0.129883 18.5703 -17.9297 24.5205 -43.7695 24.3301c-21.75 0.0898438 -46.9697 -4.79004 -68.5 -10.3398l-40.3896 71.46c35.2305 15.1602 76.54 22.4297 116.72 22.4297zM242.969 564.4h-136.089l141.06 172.6h137.85
l141.06 -172.6h-136.09l-73.9004 100.98zM316.87 514c161.7 0 266.65 -118 266.65 -264s-104.95 -264 -266.65 -264c-160.64 0 -266.649 118 -266.649 264c0 147 106.01 265 266.649 264zM316.87 105.93c77.2598 0 124.751 58.7588 124.751 144.068
c0 85.3203 -47.4902 144.07 -124.75 144.07c-78.0703 0 -125.561 -59.5596 -124.751 -144.069c0 -84.5098 48.29 -144.069 124.75 -144.069z" />
    <glyph glyph-name="ocircumflextilde" unicode="&#x1ed7;" horiz-adv-x="634" 
d="M241.78 821.2c-20.1699 0.0898438 -41.1621 -23.3408 -64.0117 -60.1709l-60.0898 50.1602c31.7598 50.6602 69.29 110.271 132.82 110.271c37.0195 0 65.6299 -21.04 94.0596 -43.4502c18.4902 -14.4697 32.0205 -23.9795 46.0107 -23.7793
c19.5 -0.200195 39.0303 17.3096 65.3604 60.0498l60.0801 -50.1504c-35.5195 -55.5098 -70.3799 -109.74 -131.85 -110.25c-41.0596 0 -69.5498 23.4697 -94.5498 43.4297c-16.0195 12.4902 -33.5098 23.9805 -47.8301 23.8906zM242.948 564.399h-136.089l141.06 172.6
h137.85l141.06 -172.6h-136.09l-73.9004 100.98zM316.859 513.999c161.71 0 266.65 -118 266.65 -264s-104.94 -264 -266.65 -264c-160.63 0 -266.649 118 -266.649 264c0 147 106.02 265 266.649 264zM316.859 105.929c77.2695 0 124.751 58.7588 124.751 144.068
c0 85.3203 -47.4805 144.07 -124.75 144.07c-78.0703 0 -125.551 -59.5596 -124.751 -144.069c0 -84.5098 48.29 -144.069 124.75 -144.069z" />
    <glyph glyph-name="odieresis" unicode="&#xf6;" horiz-adv-x="634" 
d="M206.4 717.99c39.4502 0 71.4404 -31.9805 71.4404 -71.4404c0 -39.4502 -31.9902 -71.4404 -71.4404 -71.4404c-39.46 0 -71.4404 31.9902 -71.4404 71.4404c0 39.46 31.9805 71.4404 71.4404 71.4404zM427.301 717.99c39.4502 0 71.4404 -31.9805 71.4404 -71.4404
c0 -39.4502 -31.9902 -71.4404 -71.4404 -71.4404c-39.46 0 -71.4404 31.9902 -71.4404 71.4404c0 39.46 31.9805 71.4404 71.4404 71.4404zM316.851 514c161.7 0 266.65 -118 266.65 -264s-104.95 -264 -266.65 -264c-160.64 0 -266.649 118 -266.649 264
c0 147 106.01 265 266.649 264zM316.851 394.06c-78.0703 0 -125.56 -59.5605 -124.75 -144.07c0 -84.5098 48.29 -144.069 124.75 -144.069c77.2598 0 124.75 58.7598 124.75 144.069c0 85.3203 -47.4902 144.07 -124.75 144.07z" />
    <glyph glyph-name="odotbelow" unicode="&#x1ecd;" horiz-adv-x="634" 
d="M316.85 514c161.7 0 266.65 -118 266.65 -264s-104.95 -264 -266.65 -264c-160.64 0 -266.649 118 -266.649 264c0 147 106.01 265 266.649 264zM316.85 394.06c-78.0703 0 -125.56 -59.5605 -124.75 -144.07c0 -84.5098 48.29 -144.069 124.75 -144.069
c77.2598 0 124.75 58.7598 124.75 144.069c0 85.3203 -47.4902 144.07 -124.75 144.07zM316.851 -54.0117c39.4502 0 71.4404 -31.9902 71.4404 -71.4404c0 -39.46 -31.9902 -71.4404 -71.4404 -71.4404c-39.46 0 -71.4404 31.9805 -71.4404 71.4404
c0 39.4502 31.9805 71.4404 71.4404 71.4404z" />
    <glyph glyph-name="ograve" unicode="&#xf2;" horiz-adv-x="634" 
d="M381.36 564.58h-133.02l-140.04 172.93h145.05zM316.851 514c161.7 0 266.65 -118 266.65 -264s-104.95 -264 -266.65 -264c-160.64 0 -266.649 118 -266.649 264c0 147 106.01 265 266.649 264zM316.851 394.06c-78.0703 0 -125.56 -59.5605 -124.75 -144.07
c0 -84.5098 48.29 -144.069 124.75 -144.069c77.2598 0 124.75 58.7598 124.75 144.069c0 85.3203 -47.4902 144.07 -124.75 144.07z" />
    <glyph glyph-name="ohookabove" unicode="&#x1ecf;" horiz-adv-x="634" 
d="M337.09 813.9c70.4902 0 132.139 -21.6299 132.139 -108.25c0 -62.7002 -32.8701 -80.46 -92.6602 -106.77c-16.7305 -7.62012 -24.79 -12.1904 -25.96 -24.8008l-88.5303 -0.0302734c0.200195 62.5996 23.8506 76.5293 69.1006 95.4795
c30.0801 13.5596 41.9199 21.29 41.8398 36.5c-0.129883 18.5703 -17.9297 24.5107 -43.7695 24.3311c-21.75 0.0898438 -46.9697 -4.79004 -68.4893 -10.3398l-40.4004 71.4502c35.2305 15.1699 76.54 22.4297 116.73 22.4297zM316.858 514
c161.7 0 266.65 -118 266.65 -264s-104.95 -264 -266.65 -264c-160.64 0 -266.649 118 -266.649 264c0 147 106.01 265 266.649 264zM316.858 394.07c-78.0703 0 -125.56 -59.5605 -124.75 -144.07c0 -84.5098 48.29 -144.069 124.75 -144.069
c77.2598 0 124.75 58.75 124.75 144.07c0 85.3096 -47.4902 144.069 -124.75 144.069z" />
    <glyph glyph-name="ohorn" unicode="&#x1a1;" horiz-adv-x="634" 
d="M521.12 561.7l84.3926 25.71c23.8096 -77.3701 11.6992 -131 -25.2109 -157.22c-13.4404 -9.75 -29.7305 -15.9199 -48.4609 -18.1299c33.2598 -44.71 51.6602 -100.93 51.6602 -162.06c0 -146 -104.95 -264 -266.65 -264c-160.64 0 -266.649 118 -266.649 264
c0 147 106.01 265 266.649 264c57.2197 0 107.34 -14.7803 148.22 -40.3506c19.9004 -3.74023 36 -1.06055 46.5801 7.3291c17.5195 13.7803 21.3896 42.2305 9.46973 80.7207zM316.853 105.93c77.2598 0 124.751 58.7588 124.751 144.068
c0 85.3203 -47.4902 144.07 -124.75 144.07c-78.0703 0 -125.561 -59.5596 -124.751 -144.069c0 -84.5098 48.29 -144.069 124.75 -144.069z" />
    <glyph glyph-name="ohornacute" unicode="&#x1edb;" horiz-adv-x="634" 
d="M377.41 564.58h-133.029l128.02 172.93h145.05zM521.121 561.71l84.3926 25.71c23.8096 -77.3701 11.6992 -131 -25.2109 -157.22c-13.4404 -9.75 -29.7305 -15.9199 -48.4609 -18.1299c33.2598 -44.71 51.6602 -100.93 51.6602 -162.06
c0 -146 -104.95 -264 -266.65 -264c-160.64 0 -266.649 118 -266.649 264c0 147 106.01 265 266.649 264c57.2197 0 107.34 -14.7803 148.21 -40.3506c19.9102 -3.75 36 -1.07031 46.5801 7.31934c17.5195 13.7803 21.3896 42.2305 9.47949 80.7305zM316.854 105.939
c77.2598 0 124.751 58.7588 124.751 144.068c0 85.3203 -47.4902 144.07 -124.75 144.07c-78.0703 0 -125.561 -59.5596 -124.751 -144.069c0 -84.5098 48.29 -144.069 124.75 -144.069z" />
    <glyph glyph-name="ohorndotbelow" unicode="&#x1ee3;" horiz-adv-x="634" 
d="M521.12 561.71l84.4004 25.71c23.7998 -77.3701 11.7002 -131 -25.2197 -157.22c-13.4404 -9.75 -29.7207 -15.9199 -48.4609 -18.1299c33.2598 -44.71 51.6602 -100.93 51.6602 -162.06c0 -146 -104.94 -264 -266.65 -264c-160.63 0 -266.649 118 -266.649 264
c0 147 106.02 265 266.649 264c57.2305 0 107.341 -14.7803 148.221 -40.3506c19.9004 -3.75 36 -1.07031 46.5801 7.31934c17.5195 13.7803 21.3896 42.2305 9.46973 80.7305zM316.851 105.939c77.2695 0 124.751 58.7588 124.751 144.068
c0 85.3203 -47.4805 144.07 -124.75 144.07c-78.0703 0 -125.551 -59.5596 -124.751 -144.069c0 -84.5098 48.29 -144.069 124.75 -144.069zM316.852 -54.002c39.46 0 71.4404 -31.9902 71.4404 -71.4404c0 -39.46 -31.9805 -71.4404 -71.4404 -71.4404
c-39.4502 0 -71.4404 31.9805 -71.4404 71.4404c0 39.4502 31.9902 71.4404 71.4404 71.4404z" />
    <glyph glyph-name="ohorngrave" unicode="&#x1edd;" horiz-adv-x="634" 
d="M248.34 564.58l-140.04 172.93h145.05l128.01 -172.93h-133.02zM521.12 561.71l84.4004 25.71c23.7998 -77.3701 11.7002 -131 -25.2197 -157.22c-13.4404 -9.75 -29.7207 -15.9199 -48.4609 -18.1299c33.2598 -44.71 51.6602 -100.93 51.6602 -162.06
c0 -146 -104.94 -264 -266.65 -264c-160.63 0 -266.649 118 -266.649 264c0 147 106.02 265 266.649 264c57.2305 0 107.341 -14.7803 148.221 -40.3506c19.9004 -3.75 36 -1.07031 46.5801 7.31934c17.5195 13.7803 21.3896 42.2305 9.46973 80.7305zM316.851 105.939
c77.2695 0 124.751 58.7588 124.751 144.068c0 85.3203 -47.4805 144.07 -124.75 144.07c-78.0703 0 -125.551 -59.5596 -124.751 -144.069c0 -84.5098 48.29 -144.069 124.75 -144.069z" />
    <glyph glyph-name="ohornhookabove" unicode="&#x1edf;" horiz-adv-x="634" 
d="M329.25 730.35c-21.75 0.0898438 -46.9609 -4.7793 -68.4805 -10.3291l-40.4004 71.4502c35.2305 15.1699 76.54 22.4297 116.73 22.4297c70.4902 0 132.13 -21.6299 132.13 -108.25c0 -62.71 -32.8701 -80.46 -92.6602 -106.78
c-16.7305 -7.61035 -24.79 -12.1904 -25.96 -24.8008l-88.5303 -0.0195312c0.200195 62.5898 23.8506 76.5195 69.1006 95.4697c30.0801 13.5596 41.9199 21.2998 41.8398 36.5c-0.129883 18.5703 -17.9297 24.5205 -43.7695 24.3301zM521.129 561.71l84.3926 25.71
c23.8096 -77.3701 11.6992 -131 -25.2109 -157.22c-13.4404 -9.75 -29.7305 -15.9199 -48.4609 -18.1299c33.2598 -44.71 51.6602 -100.93 51.6602 -162.06c0 -146 -104.95 -264 -266.65 -264c-160.64 0 -266.649 118 -266.649 264c0 147 106.01 265 266.649 264
c57.2197 0 107.34 -14.7803 148.21 -40.3506c19.9102 -3.75 36 -1.07031 46.5801 7.31934c17.5195 13.7803 21.3896 42.2305 9.47949 80.7305zM316.861 105.939c77.2598 0 124.751 58.7588 124.751 144.068c0 85.3203 -47.4902 144.07 -124.75 144.07
c-78.0703 0 -125.561 -59.5596 -124.751 -144.069c0 -84.5098 48.29 -144.069 124.75 -144.069z" />
    <glyph glyph-name="ohorntilde" unicode="&#x1ee1;" horiz-adv-x="634" 
d="M241.8 632c-20.1699 0.0898438 -41.1719 -23.3408 -64.0215 -60.1709l-60.0898 50.1602c31.7598 50.6602 69.29 110.271 132.82 110.271c37.0195 0 65.6299 -21.04 94.0596 -43.4502c18.4902 -14.4697 32.0205 -23.9795 46.0107 -23.7793
c19.5 -0.200195 39.0303 17.3096 65.3701 60.0498l60.0703 -50.1504c-35.5098 -55.5098 -70.3701 -109.74 -131.84 -110.25c-41.0596 0 -69.5498 23.4697 -94.5498 43.4297c-16.0195 12.4902 -33.5098 23.9805 -47.8301 23.8906zM521.128 561.699l84.3926 25.7119
c23.8096 -77.3701 11.6992 -130.99 -25.2109 -157.221c-13.4404 -9.75 -29.7305 -15.9199 -48.4609 -18.1299c33.2598 -44.7002 51.6602 -100.931 51.6602 -162.061c0 -146 -104.95 -264 -266.65 -264c-160.64 0 -266.649 118 -266.649 264c0 147 106.01 265 266.649 264
c57.2197 0 107.34 -14.7803 148.21 -40.3506c19.9102 -3.74023 36 -1.06055 46.5801 7.3291c17.5195 13.7803 21.3896 42.2305 9.47949 80.7207zM316.86 105.941c77.2598 0 124.751 58.749 124.751 144.069c0 85.3096 -47.4902 144.069 -124.75 144.069
c-78.0703 0 -125.561 -59.5596 -124.751 -144.069c0 -84.5098 48.29 -144.069 124.75 -144.069z" />
    <glyph glyph-name="ohungarumlaut" unicode="&#x151;" horiz-adv-x="634" 
d="M272.11 564.4h-126.16l130.9 172.6h138.46zM485.891 564.4h-126.16l130.9 172.6h138.46zM316.851 514c161.71 0 266.65 -118 266.65 -264s-104.94 -264 -266.65 -264c-160.63 0 -266.649 118 -266.649 264c0 147 106.02 265 266.649 264zM316.851 394.06
c-78.0703 0 -125.55 -59.5605 -124.75 -144.07c0 -84.5098 48.29 -144.069 124.75 -144.069c77.2695 0 124.75 58.7598 124.75 144.069c0 85.3203 -47.4805 144.07 -124.75 144.07z" />
    <glyph glyph-name="omacron" unicode="&#x14d;" horiz-adv-x="634" 
d="M488.74 586.02h-343.79v107.56h343.79v-107.56zM316.851 514c161.7 0 266.65 -118 266.65 -264s-104.95 -264 -266.65 -264c-160.64 0 -266.649 118 -266.649 264c0 147 106.01 265 266.649 264zM316.851 394.06c-78.0703 0 -125.56 -59.5605 -124.75 -144.07
c0 -84.5098 48.29 -144.069 124.75 -144.069c77.2598 0 124.75 58.7598 124.75 144.069c0 85.3203 -47.4902 144.07 -124.75 144.07z" />
    <glyph glyph-name="oslash" unicode="&#xf8;" horiz-adv-x="634" 
d="M515.86 550l-39.7998 -84.5908c67.29 -47.7998 107.44 -126.399 107.44 -215.409c0 -146 -104.95 -264 -266.65 -264c-22.1797 0 -43.3193 2.25 -63.2891 6.50977l-20 -42.5098h-115.72l39.5898 84.1201c-67.5703 47.75 -107.23 126.58 -107.23 215.88
c0 147 106.01 265 266.649 264c22.1201 0 43.2598 -2.2998 63.2598 -6.63965l20.0703 42.6396h115.68zM192.101 249.989c0 -35.5596 8.55078 -66.7109 24.1611 -90.8506l110.39 234.6c-3.20996 0.209961 -6.47949 0.320312 -9.7998 0.320312
c-78.0703 0 -125.561 -59.5596 -124.751 -144.069zM316.852 105.929c77.2598 0 124.75 58.751 124.75 144.061c0 35.9404 -8.42969 67.1602 -23.9492 91.2598l-110.57 -234.99c3.2002 -0.219727 6.45996 -0.330078 9.76953 -0.330078z" />
    <glyph glyph-name="otilde" unicode="&#xf5;" horiz-adv-x="634" 
d="M250.5 732.26c37.0195 0 65.6377 -21.041 94.0674 -43.4512c18.4902 -14.4697 32.0205 -23.9795 46.0107 -23.7793c19.5 -0.200195 39.0303 17.3096 65.3604 60.0498l60.0801 -50.1504c-35.5195 -55.5098 -70.3799 -109.74 -131.85 -110.25
c-41.0596 0 -69.5498 23.4697 -94.5498 43.4297c-16.0195 12.4902 -33.5098 23.9805 -47.8301 23.8906c-20.1699 0.0898438 -41.1699 -23.3398 -64.0195 -60.1699l-60.0898 50.1602c31.7598 50.6602 69.29 110.271 132.82 110.271zM316.848 513.999
c161.71 0 266.65 -118 266.65 -264s-104.94 -264 -266.65 -264c-160.63 0 -266.649 118 -266.649 264c0 147 106.02 265 266.649 264zM316.848 394.059c-78.0703 0 -125.55 -59.5605 -124.75 -144.07c0 -84.5098 48.29 -144.069 124.75 -144.069
c77.2695 0 124.75 58.7598 124.75 144.069c0 85.3203 -47.4805 144.07 -124.75 144.07z" />
    <glyph glyph-name="oe" unicode="&#x153;" horiz-adv-x="981" 
d="M316.85 514c81.5996 0 148.42 -31.3809 193.81 -81.3906c43.3301 50.46 107.28 81.6904 184.98 81.3906c150.45 0 239.95 -105.91 242.87 -264.09c0.25 -11 0.0195312 -22.2305 -0.700195 -33.6904l-351 0.00976562c0.709961 -4.58984 1.55957 -9.03027 2.5498 -13.3203
c13.6504 -65.2598 58.8203 -102.72 122.061 -102.609c47.54 0.0996094 99.6797 15.1992 152.609 41.1094l32.8496 -87.8896c-56.6201 -43.4697 -126.82 -67.5195 -198.63 -67.5195c-78.4102 0 -142.97 31.6699 -186.779 82.0996
c-45.46 -50.4297 -112.57 -82.0996 -194.62 -82.0996c-160.64 0 -266.649 118 -266.649 264c0 147 106.01 265 266.649 264zM698.95 400.169c-59.3799 0 -97.751 -38.8799 -110.201 -98.6699h211.66c-8.55957 60.1797 -37.5693 98.6699 -101.459 98.6699zM316.859 394.059
c-78.0703 0 -125.56 -59.5605 -124.75 -144.07c0 -84.5098 48.29 -144.069 124.75 -144.069c77.2598 0 124.75 58.7598 124.75 144.069c0 85.3203 -47.4902 144.07 -124.75 144.07z" />
    <glyph glyph-name="p" unicode="p" horiz-adv-x="625" 
d="M357.45 514c130.35 0.490234 218.279 -117.011 218.52 -264.011c-0.269531 -157.78 -96.3398 -264.17 -219.95 -264.03c-52.4199 -0.169922 -109.51 21.5605 -157.88 65.6309v-251.59h-139.98v700h139.98v-54.3604c47.7402 45.04 104.86 68.3604 159.311 68.3604z
M329.19 102.949c61.4004 0.549805 105.46 52.501 105.15 147.041c0.30957 85.5 -38.4307 145.75 -104.94 145.75c-40.3301 0 -90.6699 -19.5801 -131.26 -60.0205v-168.87c41.0498 -40.79 89.1396 -64.2803 131.05 -63.9004z" />
    <glyph glyph-name="thorn" unicode="&#xfe;" horiz-adv-x="625" 
d="M355.31 514c132.8 1 220.66 -116.998 220.66 -263.998s-87.8604 -265 -220.66 -264c-51.1299 0 -109.5 23.3096 -157.17 68.3193v-254.32h-139.98v900h139.98v-254.32c47.6699 45.0098 106.04 68.3193 157.17 68.3193zM330.64 104.242
c64.7305 0 104.24 60.2695 103.431 145.76c0.80957 85.5 -38.7002 145.75 -103.431 145.75c-43.2695 0 -92.8994 -20.4902 -132.499 -60.0205v-171.47c39.5996 -39.5195 89.2295 -60.0195 132.499 -60.0195z" />
    <glyph glyph-name="q" unicode="q" horiz-adv-x="625" 
d="M558.08 500l-0.000976562 -700.01h-139.98v251.59c-49.5098 -45.1904 -106.279 -65.79 -160.149 -65.6201c-120.78 0.349609 -217.4 106.25 -217.681 264.04c0.240234 147 88.7305 264 216.24 264c55.9102 0 112.641 -22.1396 161.591 -68.3701v54.3701h139.98z
M287.699 102.95c40.4404 -0.30957 89.2295 22.8291 130.399 63.8789v168.9c-40.7197 40.71 -91.75 59.9404 -130.6 60.0107c-67.2998 -0.0703125 -105.479 -58.8799 -105.479 -145.75c0 -95.9102 43.5 -146.42 105.68 -147.04z" />
    <glyph glyph-name="r" unicode="r" horiz-adv-x="426" 
d="M397.56 514.67c4.5 0 8.95898 -0.108398 13.3789 -0.348633l-23.0596 -130.75c-5.08008 0.469727 -10.3799 0.639648 -15.8896 0.489258c-54.8398 0 -117.08 -22.1904 -169.271 -65.1309v-318.93h-139.98v500h139.98v-68.7402
c57.9404 54.9199 131.141 83.4102 194.841 83.4102z" />
    <glyph glyph-name="racute" unicode="&#x155;" horiz-adv-x="426" 
d="M295.29 564.58h-133.029l128.02 172.93h145.05zM202.721 500l0.00878906 -68.7314c57.9404 54.9102 131.131 83.4004 194.831 83.4004c4.5 0 8.95996 -0.120117 13.3799 -0.350586l-23.0596 -130.76c-5.08008 0.480469 -10.3799 0.640625 -15.8896 0.500977
c-54.8398 0 -117.08 -22.2002 -169.271 -65.1299v-318.93h-139.98v500h139.98z" />
    <glyph glyph-name="rcaron" unicode="&#x159;" horiz-adv-x="426" 
d="M165.8 564.4l-141.07 172.6h136.1l73.8896 -100.99l73.9004 100.99h136.09l-141.06 -172.6h-137.85zM202.72 500l-0.000976562 -68.7314c57.9404 54.9102 131.141 83.4004 194.841 83.4004c4.49023 0 8.9502 -0.120117 13.3701 -0.350586l-23.0498 -130.76
c-5.08008 0.480469 -10.3799 0.640625 -15.8994 0.500977c-54.8398 0 -117.07 -22.2002 -169.261 -65.1299v-318.93h-139.98v500h139.98z" />
    <glyph glyph-name="rcommaaccent" unicode="&#x157;" horiz-adv-x="426" 
d="M397.56 514.67c4.5 0 8.95898 -0.108398 13.3789 -0.348633l-23.0596 -130.75c-5.08008 0.469727 -10.3799 0.639648 -15.8896 0.489258c-54.8398 0 -117.08 -22.1904 -169.271 -65.1309v-318.93h-139.98v500h139.98v-68.7402
c57.9404 54.9199 131.141 83.4102 194.841 83.4102zM237.938 -50.5488c35.5303 0.160156 63.5713 -25.46 69.9912 -67.1104c10.04 -65.7598 -39.2998 -145.42 -101.21 -190.35l-46.4697 29.7002c31.7998 26.5303 55.0693 56.4004 68.5693 94.2002
c-32.2803 3.65039 -58.6504 30.8301 -58.6406 66.3604c-0.00976562 37.7197 29.6299 67.3594 67.7598 67.1992z" />
    <glyph glyph-name="s" unicode="s" horiz-adv-x="503" 
d="M253.21 514.01c67.1396 -0.00976562 147.529 -17.5391 198.829 -63.8994l-53.3799 -85.8496c-33.7197 29.7598 -89.5498 44.6094 -139.83 44.7695c-42.4004 0 -74.5801 -14.1602 -76.9404 -46.6201c-2.0498 -24.5098 16.0703 -33.5898 91.3906 -52.2002
c86.3301 -21 197.29 -45.4902 196.82 -161.391c-0.469727 -121.29 -122.739 -162.82 -225.399 -162.811c-81.71 -0.00976562 -169.51 26.5205 -214.5 79.2305l53.5303 85.5703c32.2803 -39.7998 96.7305 -59.3701 154.25 -59.4502
c58.7002 0.0800781 93.1201 21.2002 93.6104 53.54c0.490234 32.8301 -34.3799 38.8701 -96.54 54.9297c-126.02 32.04 -191.25 58.6504 -191.16 153.051c-0.0898438 119.16 104.22 161.12 209.319 161.13z" />
    <glyph glyph-name="sacute" unicode="&#x15b;" horiz-adv-x="503" 
d="M312.1 564.58h-133.029l128.02 172.93h145.05zM253.21 514.01c67.1396 -0.00976562 147.529 -17.5391 198.829 -63.8994l-53.3799 -85.8398c-33.7197 29.7598 -89.5498 44.5996 -139.83 44.7598c-42.4004 0 -74.5801 -14.1602 -76.9404 -46.6104
c-2.0498 -24.5195 16.0703 -33.5996 91.3906 -52.21c86.3301 -21 197.29 -45.4902 196.82 -161.391c-0.469727 -121.29 -122.739 -162.82 -225.399 -162.811c-81.71 -0.00976562 -169.51 26.5205 -214.5 79.2305l53.5303 85.5801
c32.2803 -39.8096 96.7305 -59.3799 154.25 -59.46c58.7002 0.0800781 93.1201 21.2002 93.6104 53.54c0.490234 32.8301 -34.3799 38.8701 -96.54 54.9297c-126.02 32.04 -191.25 58.6504 -191.16 153.061c-0.0898438 119.15 104.22 161.11 209.319 161.12z" />
    <glyph glyph-name="scaron" unicode="&#x161;" horiz-adv-x="503" 
d="M182.61 564.4l-141.07 172.6h136.1l73.8896 -100.99l73.9004 100.99h136.09l-141.06 -172.6h-137.85zM273.271 310.21c86.3301 -21 197.288 -45.4893 196.818 -161.39c-0.469727 -121.29 -122.739 -162.82 -225.399 -162.811
c-81.71 -0.00976562 -169.51 26.5205 -214.5 79.2305l53.5303 85.5703c32.2803 -39.7998 96.7305 -59.3701 154.25 -59.4502c58.7002 0.0800781 93.1201 21.2002 93.6104 53.54c0.490234 32.8301 -34.3799 38.8701 -96.54 54.9297
c-126.02 32.04 -191.25 58.6504 -191.16 153.051c-0.0898438 119.16 104.22 161.12 209.319 161.13c67.1504 -0.00976562 147.54 -17.54 198.84 -63.9004l-53.3896 -85.8496c-33.71 29.7598 -89.5498 44.6094 -139.83 44.7695
c-42.4004 0 -74.5801 -14.1602 -76.9297 -46.6201c-2.05957 -24.5098 16.0605 -33.5898 91.3809 -52.2002z" />
    <glyph glyph-name="scedilla" unicode="&#x15f;" horiz-adv-x="503" 
d="M273.28 310.21c86.3301 -21 197.287 -45.4902 196.817 -161.391c-0.400391 -103.43 -89.3701 -148.859 -179.22 -159.989l-9.25 -31.8701c2.96973 -0.30957 5.87988 -0.689453 8.74023 -1.11914c59.9297 -8.84961 97.21 -44.3398 97.04 -96.0195
c0.19043 -60.1904 -51.1094 -106.311 -136.68 -107.82c-47.5996 -1.03027 -106.89 12.0693 -140.27 28.6094l29.6797 63.9297c30.0801 -11.6104 65.2705 -17.7803 92.6504 -17.9707c33.4805 0.160156 47.6309 11.2803 47.8311 32.79
c-0.200195 18.3203 -10.1299 30.3506 -33.79 30.2002c-11.29 0.179688 -35.4102 -3.95996 -48.5605 -9.2998l-19.8398 42.7402l30.8896 64.6396c-70.6299 6.5 -140.58 32.4404 -179.12 77.6006l53.5303 85.5703c32.2803 -39.7998 96.7305 -59.3701 154.25 -59.4502
c58.7002 0.0800781 93.1201 21.2002 93.6104 53.54c0.490234 32.8301 -34.3799 38.8701 -96.54 54.9297c-126.02 32.04 -191.25 58.6504 -191.16 153.051c-0.0898438 119.16 104.22 161.12 209.319 161.13c67.1504 -0.00976562 147.54 -17.54 198.84 -63.9004
l-53.3896 -85.8496c-33.71 29.7598 -89.5498 44.6094 -139.83 44.7695c-42.4004 0 -74.5801 -14.1602 -76.9297 -46.6201c-2.05957 -24.5098 16.0605 -33.5898 91.3809 -52.2002z" />
    <glyph glyph-name="scommaaccent" unicode="&#x219;" horiz-adv-x="503" 
d="M253.21 514.01c67.1396 -0.00976562 147.529 -17.5391 198.829 -63.8994l-53.3799 -85.8496c-33.7197 29.7598 -89.5498 44.6094 -139.83 44.7695c-42.4004 0 -74.5801 -14.1602 -76.9404 -46.6201c-2.0498 -24.5098 16.0703 -33.5898 91.3906 -52.2002
c86.3301 -21 197.29 -45.4902 196.82 -161.391c-0.469727 -121.29 -122.739 -162.82 -225.399 -162.811c-81.71 -0.00976562 -169.51 26.5205 -214.5 79.2305l53.5303 85.5703c32.2803 -39.7998 96.7305 -59.3701 154.25 -59.4502
c58.7002 0.0800781 93.1201 21.2002 93.6104 53.54c0.490234 32.8301 -34.3799 38.8701 -96.54 54.9297c-126.02 32.04 -191.25 58.6504 -191.16 153.051c-0.0898438 119.16 104.22 161.12 209.319 161.13zM252.19 -50.5693
c35.5303 0.169922 63.5703 -25.4502 69.9902 -67.1104c10.04 -65.75 -39.2998 -145.41 -101.22 -190.351l-46.4697 29.7002c31.8096 26.54 55.0693 56.4004 68.5791 94.2002c-32.2803 3.66016 -58.6602 30.8398 -58.6406 66.3701
c-0.0195312 37.71 29.6309 67.3604 67.7607 67.1904z" />
    <glyph glyph-name="germandbls" unicode="&#xdf;" horiz-adv-x="738" 
d="M334.24 750c152.56 0 242.101 -68.9707 252.16 -174.011c8.03027 -80.3398 -40.5996 -109.38 -116.04 -140.6c-33.7598 -17.4297 -59.54 -31.6895 -57.96 -67.8691c0.900391 -28.6396 19.8604 -36.2295 94.3008 -55.8398c64.5898 -17.0195 181.63 -47.9395 178.2 -168.27
c-3.42969 -119.33 -120.43 -157.41 -218.569 -157.41c-81.5098 0 -171 28.8496 -212.78 88.2393l69.9199 77.1299c23.2305 -30.8701 78.5801 -51.9502 134.8 -51.9502c55.71 0 88.1299 21.0801 88.6201 50.8701c0.490234 29.75 -29.3994 37.8496 -91.0898 54.3994
c-105.45 28.4902 -177.94 51.9805 -181.91 154.471c-5.13965 86.6602 56.3799 117.75 85.8096 134.34c62.1104 29.8604 86.8799 39.4004 83.2998 71.7002c-4.01953 37.2402 -36.71 65.5 -108.15 65.5195c-70.1299 -0.0195312 -111.82 -27.3193 -112.021 -84.0596v-546.66
h-139.98v532.18c0.200195 147.7 99.1602 217.82 251.391 217.82z" />
    <glyph glyph-name="t" unicode="t" horiz-adv-x="472" 
d="M398.44 113.65l28.2285 -93.5195c-42.1797 -21.1104 -91.4795 -33.9307 -137.819 -34.0508c-86.6201 -0.209961 -162.79 43.9004 -162.79 161.33v244.33h-96.0596v87.7695l93 20.5303h3.05957v135.25h139.98v-135.25h134.55v-108.3h-134.55v-226.17
c0 -48.21 27.0098 -64.5195 64.3701 -64.4697c21.2803 0.0400391 45.4004 5.37012 68.0303 12.5498z" />
    <glyph glyph-name="tbar" unicode="&#x167;" horiz-adv-x="472" 
d="M398.44 113.65l28.2285 -93.5195c-42.1797 -21.1104 -91.4795 -33.9307 -137.819 -34.0508c-86.6201 -0.209961 -162.79 43.9004 -162.79 161.33v94.5898h-86.75v101.44h86.75v48.2998h-96.0596v87.7695l93 20.5303h3.05957v135.25h139.98v-135.25h134.55v-108.3h-134.55
v-48.2998h117.06v-101.44h-117.06v-76.4297c0 -48.21 27.0098 -64.5195 64.3701 -64.4697c21.2803 0.0400391 45.4004 5.37012 68.0303 12.5498z" />
    <glyph glyph-name="tcaron" unicode="&#x165;" horiz-adv-x="472" 
d="M555.39 664.39c10.04 -65.7598 -39.2891 -145.41 -101.199 -190.34l-46.4697 29.7002c31.7998 26.5303 55.0693 56.4004 68.5693 94.2002c-32.2803 3.65039 -58.6504 30.8301 -58.6406 66.3604c-0.00976562 37.7197 29.6299 67.3594 67.7598 67.1992
c35.5303 0.160156 63.5605 -25.4697 69.9805 -67.1201zM330.41 101.109c21.2803 0.0400391 45.3984 5.38086 68.0283 12.5605l28.2305 -93.5303c-42.1797 -21.1104 -91.4795 -33.9307 -137.819 -34.0508c-86.6201 -0.209961 -162.79 43.9004 -162.79 161.33v244.33h-96.0596
v87.7695l93 20.5303h3.05957v135.25h139.98v-135.25h134.55v-108.3h-134.55v-226.17c0 -48.21 27.0098 -64.5195 64.3701 -64.4697z" />
    <glyph glyph-name="tcedilla" unicode="&#x163;" horiz-adv-x="472" 
d="M278.52 -44.1699c59.9297 -8.84961 97.207 -44.3086 97.0371 -95.9883c0.19043 -60.1904 -51.1094 -106.311 -136.68 -107.82c-47.5996 -1.03027 -106.89 12.0693 -140.27 28.6094l29.6797 63.9297c30.0801 -11.6104 65.2705 -17.7803 92.6504 -17.9707
c33.4805 0.160156 47.6309 11.2803 47.8311 32.79c-0.200195 18.3203 -10.1299 30.3506 -33.79 30.2002c-11.29 0.179688 -35.4102 -3.95996 -48.5605 -9.2998l-19.8398 42.7402l38.3301 80.21c-46.5098 22.2803 -78.8496 67.6602 -78.8496 144.19v244.33h-96.0596v87.7695
l93 20.5303h3.05957v135.25h139.98v-135.25h134.54v-108.3h-134.54v-226.17c0 -48.21 27.0098 -64.5195 64.3594 -64.4697c21.29 0.0400391 45.4004 5.37012 68.0303 12.5498l28.2402 -93.5303c-42.1797 -21.1104 -91.4893 -33.9307 -137.819 -34.0508
c-3.54004 -0.00976562 -7.07031 0.0605469 -10.5703 0.200195l-8.50977 -29.3301c2.96973 -0.30957 5.88965 -0.679688 8.75 -1.12012z" />
    <glyph glyph-name="uni021B" unicode="&#x21b;" horiz-adv-x="472" 
d="M288.85 -13.9199c-86.6299 -0.209961 -162.791 43.9102 -162.791 161.33v244.34h-96.0596v87.7598l93 20.54h3.05957v135.25h139.98v-135.25h134.54v-108.3h-134.54v-226.18c0 -48.21 27.0098 -64.5098 64.3594 -64.4697
c21.29 0.0400391 45.4004 5.37012 68.0303 12.5498l28.2402 -93.5303c-42.1797 -21.0996 -91.4893 -33.9297 -137.819 -34.04zM240.339 -50.5498c35.5303 0.160156 63.5703 -25.46 69.9902 -67.1104c10.04 -65.7598 -39.2998 -145.42 -101.22 -190.35l-46.4697 29.7002
c31.8096 26.5303 55.0693 56.4004 68.5791 94.2002c-32.2803 3.65039 -58.6602 30.8301 -58.6406 66.3604c-0.0195312 37.7197 29.6309 67.3594 67.7607 67.1992z" />
    <glyph glyph-name="u" unicode="u" horiz-adv-x="596" 
d="M538.4 500v-500.011h-139.98v60.4697c-51.1504 -49.04 -115.101 -74.4697 -172.521 -74.4697c-91.5898 0 -168.16 58 -168.16 188v326h139.98l-0.00976562 -308.43c0 -57.2197 29.0195 -85.9795 74.8994 -86.1299c40.3301 -0.129883 86.9805 17.9102 125.811 51.1104
v343.46h139.98z" />
    <glyph glyph-name="uacute" unicode="&#xfa;" horiz-adv-x="596" 
d="M358.89 564.58h-133.029l128.02 172.93h145.05zM538.391 500l-0.000976562 -500.011h-139.98v60.4697c-51.1504 -49.04 -115.101 -74.4697 -172.521 -74.4697c-91.5898 0 -168.149 58 -168.149 188v326h139.98l-0.00976562 -308.43
c0 -57.2197 29.0195 -85.9795 74.8896 -86.1299c40.3301 -0.129883 86.9805 17.9102 125.811 51.1104v343.46h139.98z" />
    <glyph glyph-name="ucaron" unicode="&#x1d4;" horiz-adv-x="596" 
d="M229.41 564.4l-141.07 172.6h136.09l73.9004 -100.98l73.8896 100.98h136.1l-141.06 -172.6h-137.85zM538.39 500l-0.000976562 -500.002h-139.98v60.46c-51.1504 -49.0303 -115.101 -74.46 -172.521 -74.46c-91.5898 0 -168.149 58 -168.149 188v326h139.98
l-0.00976562 -308.43c0 -57.2197 29.0195 -85.9893 74.8896 -86.1289c40.3301 -0.129883 86.9805 17.9004 125.811 51.1104v343.45h139.98z" />
    <glyph glyph-name="ucircumflex" unicode="&#xfb;" horiz-adv-x="596" 
d="M224.43 564.4h-136.079l141.06 172.6h137.85l141.06 -172.6h-136.1l-73.8896 100.99zM538.41 500v-500.002h-139.98v60.46c-51.1504 -49.0303 -115.101 -74.46 -172.521 -74.46c-91.5898 0 -168.16 58 -168.16 188v326h139.98l-0.00976562 -308.43
c0 -57.2197 29.0195 -85.9893 74.8994 -86.1289c40.3301 -0.129883 86.9805 17.9004 125.811 51.1104v343.45h139.98z" />
    <glyph glyph-name="udieresis" unicode="&#xfc;" horiz-adv-x="596" 
d="M187.88 575.11c-39.46 0 -71.4404 31.9902 -71.4404 71.4404c0 39.46 31.9805 71.4404 71.4404 71.4404c39.4502 0 71.4404 -31.9805 71.4404 -71.4404c0 -39.4502 -31.9902 -71.4404 -71.4404 -71.4404zM408.78 575.11c-39.46 0 -71.4404 31.9902 -71.4404 71.4404
c0 39.46 31.9805 71.4404 71.4404 71.4404c39.4502 0 71.4404 -31.9805 71.4404 -71.4404c0 -39.4502 -31.9902 -71.4404 -71.4404 -71.4404zM538.4 500v-500.011h-139.98v60.4697c-51.1504 -49.04 -115.101 -74.4697 -172.521 -74.4697c-91.5898 0 -168.16 58 -168.16 188
v326h139.98l-0.00976562 -308.43c0 -57.2197 29.0195 -85.9795 74.8994 -86.1299c40.3301 -0.129883 86.9805 17.9102 125.811 51.1104v343.46h139.98z" />
    <glyph glyph-name="udieresisacute" unicode="&#x1d8;" horiz-adv-x="596" 
d="M358.89 755.64h-133.029l128.02 172.93h145.05zM187.87 575.109c-39.4502 0 -71.4404 31.9902 -71.4404 71.4404c0 39.46 31.9902 71.4404 71.4404 71.4404c39.46 0 71.4404 -31.9805 71.4404 -71.4404c0 -39.4502 -31.9805 -71.4404 -71.4404 -71.4404zM337.33 646.55
c0 39.46 31.9902 71.4404 71.4404 71.4404c39.46 0 71.4404 -31.9805 71.4404 -71.4404c0 -39.4502 -31.9805 -71.4404 -71.4404 -71.4404c-39.4502 0 -71.4404 31.9902 -71.4404 71.4404zM538.39 500l-0.000976562 -500.011h-139.98v60.4697
c-51.1504 -49.04 -115.101 -74.4697 -172.521 -74.4697c-91.5898 0 -168.149 58 -168.149 188v326h139.98l-0.00976562 -308.43c0 -57.2197 29.0195 -85.9795 74.8896 -86.1299c40.3301 -0.129883 86.9805 17.9102 125.811 51.1104v343.46h139.98z" />
    <glyph glyph-name="udieresiscaron" unicode="&#x1da;" horiz-adv-x="596" 
d="M229.41 755.64l-141.07 172.6h136.09l73.9004 -100.98l73.8896 100.98h136.1l-141.06 -172.6h-137.85zM187.87 717.989c39.46 0 71.4404 -31.9805 71.4404 -71.4404c0 -39.4502 -31.9805 -71.4404 -71.4404 -71.4404c-39.4502 0 -71.4404 31.9902 -71.4404 71.4404
c0 39.46 31.9902 71.4404 71.4404 71.4404zM337.33 646.549c0 39.46 31.9902 71.4404 71.4404 71.4404c39.46 0 71.4404 -31.9805 71.4404 -71.4404c0 -39.4502 -31.9805 -71.4404 -71.4404 -71.4404c-39.4502 0 -71.4404 31.9902 -71.4404 71.4404zM538.39 499.999
l-0.000976562 -500.011h-139.98v60.4697c-51.1504 -49.04 -115.101 -74.4697 -172.521 -74.4697c-91.5898 0 -168.149 58 -168.149 188v326h139.98l-0.00976562 -308.43c0 -57.2197 29.0195 -85.9795 74.8896 -86.1299c40.3301 -0.129883 86.9805 17.9102 125.811 51.1104
v343.46h139.98z" />
    <glyph glyph-name="udieresisgrave" unicode="&#x1dc;" horiz-adv-x="596" 
d="M229.82 755.64l-140.039 172.93h145.05l128.02 -172.93h-133.03zM116.441 646.55c0 39.46 31.9805 71.4404 71.4404 71.4404c39.4502 0 71.4404 -31.9805 71.4404 -71.4404c0 -39.4502 -31.9902 -71.4404 -71.4404 -71.4404c-39.46 0 -71.4404 31.9902 -71.4404 71.4404z
M337.342 646.55c0 39.46 31.9805 71.4404 71.4404 71.4404c39.4502 0 71.4404 -31.9805 71.4404 -71.4404c0 -39.4502 -31.9902 -71.4404 -71.4404 -71.4404c-39.46 0 -71.4404 31.9902 -71.4404 71.4404zM538.401 500v-500.011h-139.98v60.4697
c-51.1504 -49.04 -115.101 -74.4697 -172.521 -74.4697c-91.5898 0 -168.16 58 -168.16 188v326h139.98l-0.00976562 -308.43c0 -57.2197 29.0195 -85.9795 74.8994 -86.1299c40.3301 -0.129883 86.9805 17.9102 125.811 51.1104v343.46h139.98z" />
    <glyph glyph-name="udieresismacron" unicode="&#x1d6;" horiz-adv-x="596" 
d="M470.22 767.64h-343.79v107.56h343.79v-107.56zM187.88 575.109c-39.46 0 -71.4404 31.9902 -71.4404 71.4404c0 39.46 31.9805 71.4404 71.4404 71.4404c39.4502 0 71.4404 -31.9805 71.4404 -71.4404c0 -39.4502 -31.9902 -71.4404 -71.4404 -71.4404zM408.78 717.989
c39.4502 0 71.4404 -31.9805 71.4404 -71.4404c0 -39.4502 -31.9902 -71.4404 -71.4404 -71.4404c-39.46 0 -71.4404 31.9902 -71.4404 71.4404c0 39.46 31.9805 71.4404 71.4404 71.4404zM538.4 499.999v-500.011h-139.98v60.4697
c-51.1504 -49.04 -115.101 -74.4697 -172.521 -74.4697c-91.5898 0 -168.16 58 -168.16 188v326h139.98l-0.00976562 -308.43c0 -57.2197 29.0195 -85.9795 74.8994 -86.1299c40.3301 -0.129883 86.9805 17.9102 125.811 51.1104v343.46h139.98z" />
    <glyph glyph-name="udotbelow" unicode="&#x1ee5;" horiz-adv-x="596" 
d="M538.4 500v-500.011h-139.98v60.4697c-51.1504 -49.04 -115.101 -74.4697 -172.521 -74.4697c-91.5898 0 -168.16 58 -168.16 188v326h139.98l-0.00976562 -308.43c0 -57.2197 29.0195 -85.9795 74.8994 -86.1299c40.3301 -0.129883 86.9805 17.9102 125.811 51.1104
v343.46h139.98zM298.301 -54.0205c39.46 0 71.4404 -31.9805 71.4404 -71.4404c0 -39.4502 -31.9805 -71.4404 -71.4404 -71.4404c-39.4502 0 -71.4404 31.9902 -71.4404 71.4404c0 39.46 31.9902 71.4404 71.4404 71.4404z" />
    <glyph glyph-name="ugrave" unicode="&#xf9;" horiz-adv-x="596" 
d="M229.82 564.58l-140.04 172.93h145.05l128.01 -172.93h-133.02zM538.4 500v-500.011h-139.98v60.4697c-51.1504 -49.04 -115.101 -74.4697 -172.521 -74.4697c-91.5898 0 -168.16 58 -168.16 188v326h139.98l-0.00976562 -308.43
c0 -57.2197 29.0195 -85.9795 74.8994 -86.1299c40.3301 -0.129883 86.9805 17.9102 125.811 51.1104v343.46h139.98z" />
    <glyph glyph-name="uhookabove" unicode="&#x1ee7;" horiz-adv-x="596" 
d="M313.28 730.36c-21.7598 0.0898438 -46.96 -4.79004 -68.4902 -10.3398l-40.3896 71.46c35.2305 15.1602 76.54 22.4297 116.72 22.4297c70.5 0 132.14 -21.6396 132.14 -108.26c0 -62.7002 -32.8799 -80.46 -92.6602 -106.77
c-16.7305 -7.62012 -24.79 -12.1904 -25.96 -24.8008l-88.5303 -0.0302734c0.19043 62.5996 23.8506 76.5293 69.0908 95.4795c30.0801 13.5596 41.9199 21.29 41.8398 36.5c-0.129883 18.5703 -17.9297 24.5107 -43.7598 24.3311zM538.41 500.011l-0.000976562 -500.011
h-139.98v60.4697c-51.1504 -49.04 -115.101 -74.4697 -172.521 -74.4697c-91.5898 0 -168.149 58 -168.149 188v326h139.98l-0.00976562 -308.43c0 -57.2197 29.0195 -85.9795 74.8896 -86.1299c40.3301 -0.129883 86.9805 17.9102 125.811 51.1104v343.46h139.98z" />
    <glyph glyph-name="uhorn" unicode="&#x1b0;" horiz-adv-x="596" 
d="M571.88 591.06l94.7793 28.1699c25.4805 -82.8203 12.1904 -140.221 -27.3193 -168.291c-25.1201 -18.2197 -59.5098 -24.75 -100.939 -17.46v-433.48h-139.98v60.46c-51.1504 -49.0303 -115.101 -74.46 -172.521 -74.46c-91.5898 0 -168.16 58 -168.16 188v326h139.98
l-0.00976562 -308.43c0 -57.2197 29.0195 -85.9893 74.8994 -86.1289c40.3301 -0.129883 86.9805 17.9004 125.811 51.1104v343.45h130.21c12.9902 0.0800781 23.7305 3.37988 31.6201 9.62988c17.9902 14.2598 22.5303 43.0098 11.6299 81.4297z" />
    <glyph glyph-name="uhornacute" unicode="&#x1ee9;" horiz-adv-x="596" 
d="M358.89 564.58h-133.029l128.02 172.93h145.05zM571.87 591.061l94.7891 28.1709c25.4805 -82.8203 12.1807 -140.221 -27.3291 -168.291c-25.1104 -18.2197 -59.5 -24.7598 -100.94 -17.46v-433.49h-139.98v60.4697
c-51.1504 -49.04 -115.101 -74.4697 -172.521 -74.4697c-91.5898 0 -168.149 58 -168.149 188v326h139.98l-0.00976562 -308.43c0 -57.2197 29.0195 -85.9795 74.8896 -86.1299c40.3301 -0.129883 86.9805 17.9102 125.811 51.1104v343.46h130.41
c12.9004 0.110352 23.5703 3.41016 31.4199 9.62988c17.9902 14.2598 22.5303 43.0098 11.6299 81.4297z" />
    <glyph glyph-name="uhorndotbelow" unicode="&#x1ef1;" horiz-adv-x="596" 
d="M571.87 591.06l94.7891 28.1709c25.4805 -82.8203 12.1904 -140.221 -27.3193 -168.291c-25.1201 -18.2197 -59.5098 -24.7598 -100.939 -17.46v-433.49h-139.98v60.4697c-51.1504 -49.04 -115.101 -74.4697 -172.521 -74.4697c-91.5898 0 -168.16 58 -168.16 188v326
h139.98l-0.00976562 -308.43c0 -57.2197 29.0195 -85.9795 74.8994 -86.1299c40.3301 -0.129883 86.9805 17.9102 125.811 51.1104v343.46h130.4c12.9004 0.110352 23.5801 3.41016 31.4297 9.62988c17.9805 14.2598 22.5303 43.0098 11.6201 81.4297zM298.299 -54.0195
c39.46 0 71.4404 -31.9805 71.4404 -71.4404c0 -39.4502 -31.9805 -71.4404 -71.4404 -71.4404c-39.4502 0 -71.4404 31.9902 -71.4404 71.4404c0 39.46 31.9902 71.4404 71.4404 71.4404z" />
    <glyph glyph-name="uhorngrave" unicode="&#x1eeb;" horiz-adv-x="596" 
d="M229.82 564.58l-140.039 172.93h145.05l128.02 -172.93h-133.03zM571.871 591.06l94.7891 28.1709c25.4805 -82.8203 12.1904 -140.221 -27.3193 -168.291c-25.1201 -18.2197 -59.5098 -24.7598 -100.939 -17.46v-433.49h-139.98v60.4697
c-51.1504 -49.04 -115.101 -74.4697 -172.521 -74.4697c-91.5898 0 -168.16 58 -168.16 188v326h139.98l-0.00976562 -308.43c0 -57.2197 29.0195 -85.9795 74.8994 -86.1299c40.3301 -0.129883 86.9805 17.9102 125.811 51.1104v343.46h130.4
c12.9004 0.110352 23.5801 3.41016 31.4297 9.62988c17.9805 14.2598 22.5303 43.0098 11.6201 81.4297z" />
    </font>
</defs>
</svg>
