<?xml version="1.0" standalone="no"?>
<!DOCTYPE svg PUBLIC "-//W3C//DTD SVG 1.1//EN" "http://www.w3.org/Graphics/SVG/1.1/DTD/svg11.dtd" >
<svg xmlns="http://www.w3.org/2000/svg" xmlns:xlink="http://www.w3.org/1999/xlink" version="1.1">
<metadata>
Created by FontForge 20190801 at Fri Jun  5 11:37:00 2015
 By root
Copyright (c) 2015 by Jonathan Hill. All rights reserved.
</metadata>
<defs>
<font id="Halcom-Regular" horiz-adv-x="606" >
  <font-face 
    font-family="Halcom"
    font-weight="400"
    font-stretch="normal"
    units-per-em="1000"
    panose-1="0 0 5 0 0 0 0 0 0 0"
    ascent="750"
    descent="-250"
    x-height="500"
    cap-height="700"
    bbox="-70.75 -258.77 1341.83 1150.17"
    underline-thickness="50"
    underline-position="-100"
    stemh="80"
    stemv="95"
    unicode-range="U+0020-FB02"
  />
<missing-glyph horiz-adv-x="500" 
d="M0 0v700h500v-700h-500zM250 395l170 255h-340zM280 350l170 -255v510zM80 50h340l-170 255zM50 605v-510l170 255z" />
    <glyph glyph-name="fi" unicode="fi" horiz-adv-x="656" 
d="M578.15 498.22l-0.000976562 -498.219h-85.5303v427.83h-273.05v-427.83h-85.5801v427.83h-99v54.9697l93 15.4199h6v30.0098c0 128.45 72.1904 185.771 160.29 185.771c45.8799 0 96.3398 -14.29 143.74 -42.1299l-21.6602 -59.4404
c-39.4697 16.5 -78.3994 25.2402 -114.409 25.0098c-51.79 0 -82.3701 -37.79 -82.3701 -103.78v-35.4404h358.57z" />
    <glyph glyph-name="fl" unicode="fl" horiz-adv-x="769" 
d="M134 498.22l-0.0107422 30.0107c0 128.45 72.1904 185.771 160.29 185.771c45.8799 0 96.3398 -14.29 143.74 -42.1299l-21.6602 -59.4404c-39.4697 16.5 -78.3994 25.2402 -114.409 25.0098c-51.79 0 -82.3701 -37.79 -82.3701 -103.78v-35.4404h151.41v-70.3896
h-151.41v-427.83h-85.5801v427.83h-99v54.9697l93 15.4199h6zM695.22 65.7002l25.1602 -66.8213c-23.1201 -8.16992 -47.7998 -12.71 -71.8994 -12.8301c-74.6504 -0.389648 -143.71 41.4707 -143.71 148.291v565.66h85.5195v-565.66c0 -54.6602 36 -71.4805 76.7695 -71.25
c9.29004 0.0498047 18.7705 0.990234 28.1602 2.61035z" />
    <glyph glyph-name=".notdef" horiz-adv-x="500" 
d="M0 0v700h500v-700h-500zM250 395l170 255h-340zM280 350l170 -255v510zM80 50h340l-170 255zM50 605v-510l170 255z" />
    <glyph glyph-name="A" unicode="A" horiz-adv-x="722" 
d="M690.45 0h-100.701l-60.5303 161.41h-336.83l-60.5195 -161.41h-100.71l273.53 700h112.23zM222.199 241.28h277.221l-138.61 369.5z" />
    <glyph glyph-name="Aacute" unicode="&#xc1;" horiz-adv-x="722" 
d="M404.44 763.7h-93.4004l127.78 172.6h105zM690.45 0h-100.7l-60.5195 161.41h-336.83l-60.5303 -161.41h-100.7l273.53 700h112.22zM222.2 241.28h277.221l-138.61 369.5z" />
    <glyph glyph-name="Abreve" unicode="&#x102;" horiz-adv-x="722" 
d="M461.82 934l83.8115 0.000976562c0 -90.1699 -72.7305 -163.05 -184.801 -163.05c-111.32 0 -184.801 72.8799 -184.801 163.05h83.8096c0 -52.7305 43.2998 -86.5107 100.99 -86.5107c58.2002 0 100.99 33.5801 100.99 86.5098zM690.441 0.000976562h-100.7
l-60.5195 161.41h-336.83l-60.5303 -161.41h-100.7l273.53 700h112.22zM222.191 241.281h277.221l-138.61 369.51z" />
    <glyph glyph-name="Abreveacute" unicode="&#x1eae;" horiz-adv-x="722" 
d="M404.44 937h-93.4004l127.78 172.6h105zM461.82 934l83.8115 0.000976562c0 -90.1699 -72.7305 -163.05 -184.801 -163.05c-111.32 0 -184.801 72.8799 -184.801 163.05h83.8096c0 -52.7305 43.2998 -86.5107 100.99 -86.5107c58.2002 0 100.99 33.5801 100.99 86.5098z
M690.441 0.000976562h-100.7l-60.5195 161.41h-336.83l-60.5303 -161.41h-100.7l273.53 700h112.22zM222.191 241.281h277.221l-138.61 369.51z" />
    <glyph glyph-name="Abrevedotbelow" unicode="&#x1eb6;" horiz-adv-x="722" 
d="M461.82 934l83.8115 0.000976562c0 -90.1699 -72.7305 -163.05 -184.801 -163.05c-111.32 0 -184.801 72.8799 -184.801 163.05h83.8096c0 -52.7305 43.2998 -86.5107 100.99 -86.5107c58.2002 0 100.99 33.5801 100.99 86.5098zM690.441 0.000976562h-100.7
l-60.5195 161.41h-336.83l-60.5303 -161.41h-100.7l273.53 700h112.22zM222.191 241.281h277.221l-138.61 369.51zM360.812 -72.7188c29.1201 0 52.7305 -23.6104 52.7305 -52.7402c0 -29.1201 -23.6104 -52.7305 -52.7305 -52.7305
c-29.1299 0 -52.7402 23.6104 -52.7402 52.7305c0 29.1299 23.6104 52.7402 52.7402 52.7402z" />
    <glyph glyph-name="Abrevegrave" unicode="&#x1eb0;" horiz-adv-x="722" 
d="M407.84 937h-93.4004l-139.38 172.6h105zM461.819 934l83.8115 0.000976562c0 -90.1699 -72.7305 -163.05 -184.801 -163.05c-111.32 0 -184.801 72.8799 -184.801 163.05h83.8096c0 -52.7305 43.2998 -86.5107 100.99 -86.5107c58.2002 0 100.99 33.5801 100.99 86.5098
zM690.44 0.000976562h-100.7l-60.5195 161.41h-336.83l-60.5303 -161.41h-100.7l273.53 700h112.22zM222.19 241.281h277.221l-138.61 369.51z" />
    <glyph glyph-name="Abrevehookabove" unicode="&#x1eb2;" horiz-adv-x="722" 
d="M384.83 1150.17c64.2197 0 116.898 -19.1885 116.918 -99.6387c-0.0195312 -54.46 -24.7197 -70.7295 -85.6396 -102.05c-22.8896 -11.4102 -33.2998 -17.1699 -35.3193 -34.8701h-74.6299c1.79004 61.2695 42.4297 82.4092 77.8496 99.6787
c39.8301 19.4102 43.54 30.2998 43.4004 42.0195c-0.25 18.4697 -14.8096 25.9102 -43.2998 25.8105c-22.3701 -0.0800781 -49.9697 -5.96973 -70.1494 -12.29l-30.4697 61.2598c32.7197 14.3301 67.2598 20.0801 101.34 20.0801zM461.809 933.992l83.8115 0.00976562
c0 -90.1797 -72.7305 -163.06 -184.801 -163.06c-111.32 0 -184.801 72.8799 -184.801 163.06h83.8096c0 -52.7402 43.2998 -86.5098 100.99 -86.5098c58.2002 0 100.99 33.5703 100.99 86.5zM690.44 0.00195312h-100.701l-60.5303 161.41h-336.83l-60.5195 -161.41h-100.71
l273.53 700h112.23zM222.189 241.282h277.221l-138.61 369.5z" />
    <glyph glyph-name="Abrevetilde" unicode="&#x1eb4;" horiz-adv-x="722" 
d="M289.96 1102.32c37.9404 0 71.5996 -22.8799 96.4893 -40.8799c18.5596 -13.46 34.0195 -23.6396 48.4697 -23.2695c20.0596 -0.370117 41.2998 18.6797 69.3398 61.8096l55.5303 -42.0303c-39.5498 -57.1396 -67.6094 -98.1992 -126.68 -99.1396
c-43.1299 0 -71.1895 21.7695 -96.1797 39.8193c-17.3701 12.3604 -34.7598 23.7607 -50.3799 23.6006c-20.5596 0.160156 -41.7295 -20.3701 -69.1094 -61.9697l-55.5703 42.0596c25.7197 36.7402 64.1396 100 128.09 100zM461.829 934.01l83.7998 0.000976562
c0 -90.1699 -72.7305 -163.05 -184.79 -163.05c-111.33 0 -184.8 72.8799 -184.8 163.05h83.8096c0 -52.7305 43.2998 -86.5107 100.99 -86.5107c58.2002 0 100.99 33.5801 100.99 86.5098zM690.449 0.0107422h-100.701l-60.5303 161.41h-336.83l-60.5195 -161.41h-100.71
l273.53 700h112.23zM222.198 241.291h277.221l-138.61 369.51z" />
    <glyph glyph-name="Acaron" unicode="&#x1cd;" horiz-adv-x="722" 
d="M314.15 764.4l-152.25 172.6h104.7l94.25 -115.42l94.25 115.42h104.7l-152.25 -172.6h-93.4004zM690.44 0h-100.7l-60.5195 161.41h-336.83l-60.5303 -161.41h-100.7l273.53 700h112.22zM499.41 241.28l-138.609 369.5l-138.61 -369.5h277.22z" />
    <glyph glyph-name="Acircumflex" unicode="&#xc2;" horiz-adv-x="722" 
d="M266.58 764.4h-104.689l152.25 172.6h93.3896l152.25 -172.6h-104.7l-94.25 115.41zM690.45 0h-100.7l-60.5195 161.41h-336.83l-60.5303 -161.41h-100.7l273.53 700h112.22zM499.42 241.28l-138.609 369.5l-138.61 -369.5h277.22z" />
    <glyph glyph-name="Acircumflexacute" unicode="&#x1ea4;" horiz-adv-x="722" 
d="M641.58 825h-93.4004l127.78 172.6h105zM266.59 764.4h-104.7l152.25 172.6h93.4004l152.25 -172.6h-104.7l-94.25 115.41zM416.93 700l273.529 -700h-100.7l-60.5303 161.41h-336.83l-60.5195 -161.41h-100.71l273.53 700h112.23zM499.429 241.28l-138.609 369.5
l-138.61 -369.5h277.22z" />
    <glyph glyph-name="Acircumflexdotbelow" unicode="&#x1eac;" horiz-adv-x="722" 
d="M266.58 764.4h-104.689l152.25 172.6h93.3896l152.25 -172.6h-104.7l-94.25 115.41zM690.45 0h-100.7l-60.5195 161.41h-336.83l-60.5303 -161.41h-100.7l273.53 700h112.22zM499.42 241.28l-138.609 369.5l-138.61 -369.5h277.22zM360.82 -72.7295
c29.1299 0 52.7402 -23.6104 52.7402 -52.7305c0 -29.1299 -23.6104 -52.7402 -52.7402 -52.7402c-29.1201 0 -52.7305 23.6104 -52.7305 52.7402c0 29.1201 23.6104 52.7305 52.7305 52.7305z" />
    <glyph glyph-name="Acircumflexgrave" unicode="&#x1ea6;" horiz-adv-x="722" 
d="M589 825l-139.38 172.6h105l127.77 -172.6h-93.3896zM266.58 764.399h-104.689l152.25 172.6h93.3896l152.25 -172.6h-104.7l-94.25 115.42zM690.45 -0.000976562h-100.7l-60.5195 161.41h-336.83l-60.5303 -161.41h-100.7l273.53 700h112.22zM499.42 241.279
l-138.609 369.51l-138.61 -369.51h277.22z" />
    <glyph glyph-name="Acircumflexhookabove" unicode="&#x1ea8;" horiz-adv-x="722" 
d="M633.7 1035.52c64.2197 0 116.898 -19.1689 116.918 -99.6289c-0.0195312 -54.4697 -24.7197 -70.7295 -85.6396 -102.05c-22.8896 -11.4199 -33.2998 -17.1797 -35.3193 -34.8799h-74.6299c1.79004 61.2803 42.4297 82.4102 77.8496 99.6904
c39.8301 19.4102 43.54 30.29 43.4004 42.0098c-0.25 18.4697 -14.8096 25.9102 -43.2998 25.7998c-22.3701 -0.0703125 -49.9697 -5.9707 -70.1494 -12.291l-30.4697 61.2695c32.7197 14.3301 67.2598 20.0801 101.34 20.0801zM266.578 764.41h-104.7l152.25 172.6h93.4004
l152.25 -172.6h-104.7l-94.25 115.41zM416.918 700.01l273.529 -700h-100.7l-60.5303 161.41h-336.83l-60.5195 -161.41h-100.71l273.53 700h112.23zM499.417 241.29l-138.609 369.5l-138.61 -369.5h277.22z" />
    <glyph glyph-name="Acircumflextilde" unicode="&#x1eaa;" horiz-adv-x="722" 
d="M286.55 1019.61c-20.5498 0.169922 -41.7197 -20.3506 -69.0898 -61.9502l-55.5703 42.0596c25.71 36.7402 64.1299 100 128.09 100c37.9404 0 71.5908 -22.8896 96.4707 -40.8896c18.5596 -13.46 34.0293 -23.6396 48.4795 -23.2695
c20.0596 -0.370117 41.29 18.6797 69.3301 61.8096l55.54 -42.0303c-39.5596 -57.1396 -67.6191 -98.1992 -126.689 -99.1396c-43.1299 0 -71.1895 21.7598 -96.1797 39.8193c-17.3604 12.3604 -34.7607 23.7607 -50.3809 23.5908zM407.54 937.01l152.25 -172.6h-104.7
l-94.25 115.41l-94.25 -115.41h-104.7l152.25 172.6h93.4004zM690.46 0.00976562h-100.7l-60.5195 161.41h-336.83l-60.5303 -161.41h-100.7l273.53 700h112.22zM499.43 241.29l-138.609 369.5l-138.61 -369.5h277.22z" />
    <glyph glyph-name="Adieresis" unicode="&#xc4;" horiz-adv-x="722" 
d="M254.4 889.73c29.1201 0 52.7305 -23.6104 52.7305 -52.7305c0 -29.1299 -23.6104 -52.7402 -52.7305 -52.7402c-29.1299 0 -52.7402 23.6104 -52.7402 52.7402c0 29.1201 23.6104 52.7305 52.7402 52.7305zM467.271 889.73c29.1201 0 52.7305 -23.6104 52.7305 -52.7305
c0 -29.1299 -23.6104 -52.7402 -52.7305 -52.7402c-29.1299 0 -52.7402 23.6104 -52.7402 52.7402c0 29.1201 23.6104 52.7305 52.7402 52.7305zM690.45 0h-100.701l-60.5303 161.41h-336.83l-60.5195 -161.41h-100.71l273.53 700h112.23zM222.199 241.28h277.221
l-138.61 369.5z" />
    <glyph glyph-name="Adotbelow" unicode="&#x1ea0;" horiz-adv-x="722" 
d="M690.45 0h-100.701l-60.5303 161.41h-336.83l-60.5195 -161.41h-100.71l273.53 700h112.23zM222.199 241.28h277.221l-138.61 369.5zM360.81 -72.7295c29.1299 0 52.7402 -23.6104 52.7402 -52.7305c0 -29.1299 -23.6104 -52.7402 -52.7402 -52.7402
c-29.1201 0 -52.7305 23.6104 -52.7305 52.7402c0 29.1201 23.6104 52.7305 52.7305 52.7305z" />
    <glyph glyph-name="Agrave" unicode="&#xc0;" horiz-adv-x="722" 
d="M407.84 764.4h-93.4004l-139.38 172.6h105zM690.449 0h-100.7l-60.5195 161.41h-336.83l-60.5303 -161.41h-100.7l273.53 700h112.22zM222.199 241.28h277.221l-138.61 369.5z" />
    <glyph glyph-name="Ahookabove" unicode="&#x1ea2;" horiz-adv-x="722" 
d="M399.83 995.2c64.21 0 116.91 -19.1797 116.92 -99.6299c-0.00976562 -54.4697 -24.7197 -70.7295 -85.6396 -102.05c-22.8896 -11.4199 -33.29 -17.1797 -35.3203 -34.8799h-74.6201c1.79004 61.2695 42.4199 82.4092 77.8496 99.6895
c39.8301 19.4102 43.5303 30.29 43.4004 42.0098c-0.25 18.4697 -14.8203 25.9102 -43.3008 25.8105c-22.3799 -0.0800781 -49.9795 -5.98047 -70.1494 -12.29l-30.4697 61.2598c32.71 14.3301 67.25 20.0801 101.33 20.0801zM690.44 0.0107422h-100.7l-60.5195 161.41
h-336.83l-60.5303 -161.41h-100.7l273.53 700h112.22zM222.19 241.291h277.221l-138.61 369.5z" />
    <glyph glyph-name="Amacron" unicode="&#x100;" horiz-adv-x="722" 
d="M524.7 789.12h-327.73v81.75h327.73v-81.75zM690.45 0h-100.701l-60.5303 161.41h-336.83l-60.5195 -161.41h-100.71l273.53 700h112.23zM222.199 241.28h277.221l-138.61 369.5z" />
    <glyph glyph-name="Aogonek" unicode="&#x104;" horiz-adv-x="722" 
d="M719 -129.39l20.6494 -56.7188c-27.21 -18.1904 -66.0195 -27.1904 -99.6699 -27.4209c-63.6104 0.230469 -123.44 33.9404 -123.91 97.5107c0.400391 46.4199 32.1309 86.0303 73.5908 116.24l-60.4297 161.17h-336.83l-60.5195 -161.41h-100.7l273.53 700h112.22
l273.53 -700h-34.29c-28.8896 -22 -55.9297 -51.3096 -56.1895 -89.54c0.330078 -37.6104 27.5996 -52.2705 63.3896 -52.001c15.8896 -0.269531 37.6094 3.07031 55.6289 12.1699zM222.199 241.252h277.221l-138.61 369.5z" />
    <glyph glyph-name="Aring" unicode="&#xc5;" horiz-adv-x="722" 
d="M360.83 995.88c80.3203 0 132.44 -57.0498 132.44 -127.649c0 -70.5898 -52.1201 -127.649 -132.44 -127.649c-79.7803 0 -132.431 57.0596 -132.431 127.649c0 71.0801 52.6504 128.14 132.431 127.649zM360.34 935.46
c-34.6699 0.200195 -61.7002 -25.7109 -61.7002 -67.2207c0 -41.04 26.6602 -67.2197 62.1904 -67.2197c35.8496 0 62.1992 26.0195 62.1992 67.2197c0 41.1904 -26.3496 67.2207 -62.6895 67.2207zM690.45 -0.000976562h-100.701l-60.5303 161.41h-336.83l-60.5195 -161.41
h-100.71l273.53 700h112.23zM222.199 241.279h277.221l-138.61 369.51z" />
    <glyph glyph-name="Atilde" unicode="&#xc3;" horiz-adv-x="722" 
d="M289.97 920.32c37.9502 0 71.6006 -22.8799 96.4805 -40.8799c18.5596 -13.4697 34.0293 -23.6396 48.4795 -23.2695c20.0596 -0.370117 41.29 18.6699 69.3301 61.8096l55.54 -42.0303c-39.5596 -57.1396 -67.6191 -98.1992 -126.689 -99.1396
c-43.1299 0 -71.1895 21.7695 -96.1797 39.8193c-17.3604 12.3604 -34.7607 23.7607 -50.3809 23.5908c-20.5498 0.169922 -41.7295 -20.3604 -69.0996 -61.96l-55.5703 42.0596c25.71 36.7402 64.1299 100 128.09 100zM690.45 0h-100.7l-60.5195 161.41h-336.83
l-60.5303 -161.41h-100.7l273.53 700h112.22zM222.2 241.28h277.221l-138.61 369.51z" />
    <glyph glyph-name="AE" unicode="&#xc6;" horiz-adv-x="987" 
d="M936.87 79.8701v-79.8799h-470.13v161.41h-247.52l-87.2402 -161.41h-100.82l384.01 700h511.7v-79.8701h-365.13v-213.63h326.14v-79.8701h-326.14v-246.75h375.13zM466.74 241.271v378.06l-204.34 -378.06h204.34z" />
    <glyph glyph-name="B" unicode="B" horiz-adv-x="685" 
d="M508.53 374.59c73.4297 -23.4102 125.319 -85.7793 124.76 -170.64c0 -123.53 -96.54 -203.82 -215.99 -203.82h-221.14v-0.129883h-95v700h283.16c110.54 0 199.28 -74.4502 198.53 -187.25c0 -61.4902 -29.3203 -109.82 -74.3203 -138.16zM196.16 620.131v-213.611
h185.64c58.3301 0 102.28 38.7305 102.28 106.23c0.450195 67.9004 -44.0498 107.381 -103.53 107.381h-184.39zM534.53 204.479c0.509766 76.4004 -51.2998 122.03 -119.62 122.021h-218.74v-246.5h217.38c68.54 0 120.98 45.8496 120.98 124.479z" />
    <glyph glyph-name="C" unicode="C" horiz-adv-x="765" 
d="M424.27 714.01c87.6699 0 186.321 -33.4902 270.041 -98.29l-26.1699 -72c-77.7803 52.6904 -165.8 80 -244.53 80c-144.65 0.969727 -243.33 -114.36 -243.33 -273.69c0 -157.96 98.9502 -274.64 243.99 -274.64c78.0098 0.00976562 166.189 28.1602 243.909 80.5898
l26.1396 -71.7402c-83.5898 -64.5 -183.18 -98.1904 -270.05 -98.2002c-206.52 0 -342.819 162.69 -342.819 363.99c0 202.67 136.3 365.36 342.819 363.98z" />
    <glyph glyph-name="Cacute" unicode="&#x106;" horiz-adv-x="765" 
d="M449.22 763.7h-93.4004l127.78 172.6h105zM424.27 714.01c87.6602 0 186.318 -33.4902 270.049 -98.29l-26.1797 -72c-77.7803 52.6904 -165.8 80 -244.53 80c-144.65 0.969727 -243.33 -114.36 -243.33 -273.69c0 -157.96 98.96 -274.64 244 -274.64
c78 0.00976562 166.19 28.1602 243.9 80.5898l26.1504 -71.7402c-83.5898 -64.5 -183.189 -98.1904 -270.05 -98.2002c-206.52 0 -342.819 162.69 -342.819 363.99c0 202.67 136.3 365.36 342.81 363.98z" />
    <glyph glyph-name="Ccaron" unicode="&#x10c;" horiz-adv-x="765" 
d="M358.93 764.4l-152.25 172.6h104.7l94.25 -115.42l94.25 115.42h104.7l-152.25 -172.6h-93.4004zM424.27 75.3896c78.0098 0.00976562 166.18 28.1602 243.899 80.5898l26.1396 -71.7402c-83.5898 -64.5 -183.18 -98.1904 -270.05 -98.2002
c-206.52 0 -342.819 162.69 -342.819 363.99c0 202.67 136.3 365.36 342.819 363.98c87.6602 0 186.32 -33.4902 270.051 -98.29l-26.1797 -72c-77.7803 52.6904 -165.8 80 -244.53 80c-144.65 0.969727 -243.33 -114.36 -243.33 -273.69
c0 -157.96 98.96 -274.64 244 -274.64z" />
    <glyph glyph-name="Ccedilla" unicode="&#xc7;" horiz-adv-x="765" 
d="M424.27 -13.96c-2.33008 0 -4.64844 0.0205078 -6.95801 0.0605469l-8.95996 -29.7002c2.74023 -0.139648 5.45996 -0.349609 8.16016 -0.619141c59.9102 -6.98047 100.66 -43.0508 100.33 -96.7109c0.370117 -60.04 -51.8994 -106.04 -132.76 -107.07
c-43.1504 -1.05957 -102.4 11.1104 -136.261 28.4502l25.3896 55.2695c31.2695 -12.5303 71.1191 -19.0898 102.159 -19.3896c41.2305 0.339844 56.1504 15.7402 56.5 41.8906c-0.349609 24.7402 -13.6895 40.5098 -44.4492 40.2402
c-12.54 0.330078 -40.5898 -4.66016 -54.3594 -10.3701l-17.2002 35.5898l33.4199 69.9502c-163.89 34.2598 -267.83 180.609 -267.83 356.399c0 202.67 136.3 365.36 342.81 363.98c87.6699 0 186.33 -33.4902 270.05 -98.29l-26.1699 -72
c-77.7803 52.6904 -165.8 80 -244.53 80c-144.65 0.969727 -243.33 -114.36 -243.33 -273.69c0 -157.96 98.9502 -274.64 243.99 -274.64c78.0098 0.00976562 166.189 28.1602 243.909 80.5898l26.1396 -71.7402c-83.5898 -64.5 -183.18 -98.1904 -270.05 -98.2002z" />
    <glyph glyph-name="Cdotaccent" unicode="&#x10a;" horiz-adv-x="765" 
d="M405.61 889.73c29.1299 0 52.7402 -23.6104 52.7402 -52.7402c0 -29.1201 -23.6104 -52.7305 -52.7402 -52.7305c-29.1201 0 -52.7305 23.6104 -52.7305 52.7305c0 29.1299 23.6104 52.7402 52.7305 52.7402zM424.271 714.011
c87.6699 0 186.321 -33.4912 270.041 -98.3008l-26.1699 -71.9902c-77.7803 52.6797 -165.8 80 -244.53 80c-144.65 0.959961 -243.33 -114.37 -243.33 -273.7c0 -157.95 98.9502 -274.63 243.99 -274.63c78.0098 0 166.189 28.1504 243.909 80.5908l26.1396 -71.75
c-83.5898 -64.5 -183.18 -98.1904 -270.05 -98.1904c-206.52 0 -342.819 162.69 -342.819 363.98c0 202.68 136.3 365.37 342.819 363.99z" />
    <glyph glyph-name="D" unicode="D" horiz-adv-x="769" 
d="M101.16 700h241.069c208.19 0 345.311 -148.68 345.311 -349.97c0 -201.3 -137.12 -350.03 -345.3 -350.03h-241.08v700zM196.159 79.8701l146.08 0.000976562c150.55 0 246.53 106.52 246.53 270.149s-95.9697 270.1 -246.54 270.1h-146.07v-540.25z" />
    <glyph glyph-name="Eth" unicode="&#xd0;" horiz-adv-x="769" 
d="M101.16 700l241.069 -0.0107422c208.19 0 345.311 -148.67 345.311 -349.97c0 -201.29 -137.12 -350.03 -345.3 -350.03h-241.08v314.78h-99.79v70.4502h99.79v314.78zM196.159 79.8594l146.08 0.00195312c150.55 0 246.53 106.52 246.53 270.159
c0 163.63 -95.9697 270.1 -246.54 270.1h-146.07v-234.9h177.27v-70.46h-177.27v-234.9z" />
    <glyph glyph-name="Dcaron" unicode="&#x10e;" horiz-adv-x="769" 
d="M326.56 764.4l-152.25 172.6h104.7l94.25 -115.42l94.25 115.42h104.7l-152.25 -172.6h-93.4004zM101.149 700h241.069c208.19 0 345.311 -148.68 345.311 -349.97c0 -201.3 -137.12 -350.03 -345.3 -350.03h-241.08v700zM196.148 79.8701l146.08 0.000976562
c150.55 0 246.53 106.52 246.53 270.149s-95.9697 270.1 -246.54 270.1h-146.07v-540.25z" />
    <glyph glyph-name="Dcroat" unicode="&#x110;" horiz-adv-x="769" 
d="M101.16 700l241.069 -0.0107422c208.19 0 345.311 -148.67 345.311 -349.97c0 -201.29 -137.12 -350.03 -345.3 -350.03h-241.08v314.78h-99.79v70.4502h99.79v314.78zM196.159 79.8594l146.08 0.00195312c150.55 0 246.53 106.52 246.53 270.159
c0 163.63 -95.9697 270.1 -246.54 270.1h-146.07v-234.9h177.27v-70.46h-177.27v-234.9z" />
    <glyph glyph-name="E" unicode="E" horiz-adv-x="622" 
d="M571.29 79.8701v-79.8799h-470.13v700h460.13v-79.8701h-365.13v-213.63h326.14v-79.8701h-326.14v-246.75h375.13z" />
    <glyph glyph-name="Eacute" unicode="&#xc9;" horiz-adv-x="622" 
d="M379.31 763.7h-93.3896l127.77 172.6h105zM571.29 79.8701v-79.8701h-470.13v700h460.13v-79.8701h-365.13v-213.64h326.14v-79.8701h-326.14v-246.75h375.13z" />
    <glyph glyph-name="Ecaron" unicode="&#x11a;" horiz-adv-x="622" 
d="M289.03 764.4l-152.25 172.6h104.7l94.25 -115.42l94.25 115.42h104.7l-152.25 -172.6h-93.4004zM571.29 79.8701v-79.8799h-470.13v700h460.13v-79.8701h-365.13v-213.63h326.14v-79.8701h-326.14v-246.75h375.13z" />
    <glyph glyph-name="Ecircumflex" unicode="&#xca;" horiz-adv-x="622" 
d="M241.46 764.4h-104.7l152.25 172.6h93.4004l152.25 -172.6h-104.7l-94.25 115.41zM571.29 79.8701v-79.8799h-470.13v700h460.13v-79.8701h-365.13v-213.63h326.14v-79.8701h-326.14v-246.75h375.13z" />
    <glyph glyph-name="Ecircumflexacute" unicode="&#x1ebe;" horiz-adv-x="622" 
d="M755.83 997.6l-139.38 -172.6h-93.4004l127.78 172.6h105zM241.45 764.4h-104.689l152.25 172.6h93.3896l152.25 -172.6h-104.7l-94.25 115.41zM196.161 79.8701l375.13 -0.00976562v-79.8701h-470.13v700h460.13v-79.8701h-365.13v-213.63h326.14v-79.8701h-326.14
v-246.75z" />
    <glyph glyph-name="Ecircumflexdotbelow" unicode="&#x1ec6;" horiz-adv-x="622" 
d="M241.46 764.4h-104.7l152.25 172.6h93.4004l152.25 -172.6h-104.7l-94.25 115.41zM571.29 79.8701v-79.8799h-470.13v700h460.13v-79.8701h-365.13v-213.63h326.14v-79.8701h-326.14v-246.75h375.13zM335.99 -72.7295c29.1299 0 52.7402 -23.6104 52.7402 -52.7402
c0 -29.1201 -23.6104 -52.7305 -52.7402 -52.7305c-29.1201 0 -52.7305 23.6104 -52.7305 52.7305c0 29.1299 23.6104 52.7402 52.7305 52.7402z" />
    <glyph glyph-name="Ecircumflexgrave" unicode="&#x1ec0;" horiz-adv-x="622" 
d="M563.99 825l-139.38 172.6h105l127.77 -172.6h-93.3896zM241.57 764.399h-104.689l152.25 172.6h93.3896l152.25 -172.6h-104.7l-94.25 115.42zM196.171 79.8691h375.13v-79.8701h-470.13v700h460.13v-79.8701h-365.13v-213.64h326.14v-79.8701h-326.14v-246.75z" />
    <glyph glyph-name="Ecircumflexhookabove" unicode="&#x1ec2;" horiz-adv-x="622" 
d="M608.57 1035.52c64.21 0 116.91 -19.1689 116.92 -99.6289c-0.00976562 -54.4697 -24.7197 -70.7295 -85.6396 -102.05c-22.8896 -11.4199 -33.29 -17.1797 -35.3203 -34.8799h-74.6201c1.79004 61.2803 42.4199 82.4102 77.8496 99.6904
c39.8301 19.4102 43.5303 30.29 43.4004 42.0098c-0.25 18.4697 -14.8203 25.9102 -43.3008 25.7998c-22.3799 -0.0703125 -49.9795 -5.9707 -70.1494 -12.291l-30.4697 61.2695c32.71 14.3301 67.25 20.0801 101.33 20.0801zM241.45 764.41h-104.689l152.25 172.6h93.3896
l152.25 -172.6h-104.7l-94.25 115.41zM196.161 79.8799l375.13 -0.00976562v-79.8701h-470.13v700h460.13v-79.8701h-365.13v-213.63h326.14v-79.8701h-326.14v-246.75z" />
    <glyph glyph-name="Ecircumflextilde" unicode="&#x1ec4;" horiz-adv-x="622" 
d="M261.43 1019.61c-20.5596 0.169922 -41.7207 -20.3506 -69.1006 -61.9502l-55.5703 42.0596c25.7197 36.7402 64.1396 100 128.09 100c37.9404 0 71.5908 -22.8896 96.4805 -40.8896c18.5596 -13.46 34.0195 -23.6396 48.4697 -23.2695
c20.0596 -0.370117 41.2998 18.6797 69.3398 61.8096l55.5303 -42.0303c-39.5498 -57.1396 -67.6094 -98.1992 -126.68 -99.1396c-43.1299 0 -71.1895 21.7598 -96.1797 39.8193c-17.3701 12.3604 -34.7598 23.7607 -50.3799 23.5908zM382.408 937.01l152.261 -172.6h-104.7
l-94.25 115.41l-94.25 -115.41h-104.7l152.25 172.6h93.3896zM571.299 79.8799v-79.8799h-470.13v700h460.13v-79.8701h-365.13v-213.63h326.14v-79.8701h-326.14v-246.75h375.13z" />
    <glyph glyph-name="Edieresis" unicode="&#xcb;" horiz-adv-x="622" 
d="M229.27 784.26c-29.1201 0 -52.7305 23.6104 -52.7305 52.7402c0 29.1201 23.6104 52.7305 52.7305 52.7305c29.1299 0 52.7402 -23.6104 52.7402 -52.7305c0 -29.1299 -23.6104 -52.7402 -52.7402 -52.7402zM442.14 784.26
c-29.1201 0 -52.7305 23.6104 -52.7305 52.7402c0 29.1201 23.6104 52.7305 52.7305 52.7305c29.1299 0 52.7402 -23.6104 52.7402 -52.7305c0 -29.1299 -23.6104 -52.7402 -52.7402 -52.7402zM571.29 79.8701v-79.8799h-470.13v700h460.13v-79.8701h-365.13v-213.63h326.14
v-79.8701h-326.14v-246.75h375.13z" />
    <glyph glyph-name="Edotaccent" unicode="&#x116;" horiz-adv-x="622" 
d="M335.71 784.26c-29.1299 0 -52.7402 23.6104 -52.7402 52.7402c0 29.1201 23.6104 52.7305 52.7402 52.7305c29.1201 0 52.7305 -23.6104 52.7305 -52.7305c0 -29.1299 -23.6104 -52.7402 -52.7305 -52.7402zM571.29 79.8701v-79.8799h-470.13v700h460.13v-79.8701
h-365.13v-213.63h326.14v-79.8701h-326.14v-246.75h375.13z" />
    <glyph glyph-name="Edotbelow" unicode="&#x1eb8;" horiz-adv-x="622" 
d="M571.29 79.8701v-79.8799h-470.13v700h460.13v-79.8701h-365.13v-213.63h326.14v-79.8701h-326.14v-246.75h375.13zM335.99 -72.7295c29.1299 0 52.7402 -23.6104 52.7402 -52.7402c0 -29.1201 -23.6104 -52.7305 -52.7402 -52.7305
c-29.1201 0 -52.7305 23.6104 -52.7305 52.7305c0 29.1299 23.6104 52.7402 52.7305 52.7402z" />
    <glyph glyph-name="Egrave" unicode="&#xc8;" horiz-adv-x="622" 
d="M289.32 764.4l-139.38 172.6h105l127.77 -172.6h-93.3896zM571.29 79.8701v-79.8799h-470.13v700h460.13v-79.8701h-365.13v-213.63h326.14v-79.8701h-326.14v-246.75h375.13z" />
    <glyph glyph-name="Ehookabove" unicode="&#x1eba;" horiz-adv-x="622" 
d="M374.7 926.15c-22.3701 -0.0800781 -49.9795 -5.96973 -70.1592 -12.2793l-30.4697 61.2598c32.7197 14.3301 67.2598 20.0801 101.34 20.0801c64.21 0 116.91 -19.1904 116.92 -99.6406c-0.00976562 -54.4697 -24.7197 -70.7295 -85.6396 -102.05
c-22.8896 -11.4199 -33.29 -17.1797 -35.3203 -34.8799h-74.6201c1.79004 61.2695 42.4199 82.4092 77.8496 99.6895c39.8301 19.4102 43.5303 30.29 43.4004 42.0098c-0.25 18.4697 -14.8203 25.9102 -43.3008 25.8105zM571.29 79.8809v-79.8799h-470.13v700h460.13
v-79.8701h-365.13v-213.63h326.14v-79.8701h-326.14v-246.75h375.13z" />
    <glyph glyph-name="Emacron" unicode="&#x112;" horiz-adv-x="622" 
d="M499.57 789.12h-327.73v81.75h327.73v-81.75zM571.29 79.8701v-79.8799h-470.13v700h460.13v-79.8701h-365.13v-213.63h326.14v-79.8701h-326.14v-246.75h375.13z" />
    <glyph glyph-name="Eogonek" unicode="&#x118;" horiz-adv-x="622" 
d="M586.9 -128.89l20.6416 -56.6982c-27.21 -18.1904 -66.0195 -27.1904 -99.6699 -27.4307c-63.6104 0.240234 -123.44 33.9502 -123.9 97.5098c0.389648 46.04 31.6094 85.3799 72.5791 115.5h-355.39v700h460.13v-79.8701h-365.13v-213.63h326.14v-79.8701h-326.14
v-246.75h375.13v-79.8701h-47.8799c-28.79 -22.0596 -55.29 -51.1895 -55.5498 -89.0596c0.330078 -37.6104 27.5996 -52.2705 63.3994 -52.001c15.8896 -0.269531 37.6094 3.07031 55.6396 12.1699z" />
    <glyph glyph-name="Etilde" unicode="&#x1ebc;" horiz-adv-x="622" 
d="M261.43 840.22c-20.5596 0.160156 -41.7197 -20.3506 -69.0996 -61.9502l-55.5703 42.0498c25.7197 36.75 64.1396 100 128.09 100c37.9502 0 71.6006 -22.8799 96.4805 -40.8799c18.5596 -13.4697 34.0293 -23.6396 48.4795 -23.2695
c20.0596 -0.370117 41.29 18.6699 69.3301 61.8096l55.54 -42.0303c-39.5596 -57.1396 -67.6191 -98.1992 -126.689 -99.1396c-43.1299 0 -71.1895 21.7695 -96.1797 39.8193c-17.3604 12.3604 -34.7607 23.7607 -50.3809 23.5908zM571.3 79.8789v-79.8799h-470.13v700
h460.13v-79.8701h-365.13v-213.63h326.14v-79.8701h-326.14v-246.75h375.13z" />
    <glyph glyph-name="F" unicode="F" horiz-adv-x="592" 
d="M196.16 620.13v-233.64h306.14v-79.8701h-306.14v-306.62h-95v700h440.13v-79.8701h-345.13z" />
    <glyph glyph-name="G" unicode="G" horiz-adv-x="826" 
d="M729.49 366.56l0.000976562 -366.551h-71.7695l-10.7803 61.9902c-69.9404 -49.9297 -150.98 -75.9492 -222.19 -75.959c-206.81 0 -343.3 162.69 -343.3 363.99c0 202.67 136.49 365.36 343.3 363.98c90.75 0 192.82 -34.4199 279.65 -101.04l-26.2197 -71.9805
c-80.9297 54.6396 -172.08 82.7393 -254.08 82.7393c-144.95 0.959961 -243.82 -114.38 -243.82 -273.7c0 -157.95 99.1396 -273.7 244.479 -273.7c67.2803 0 138.8 19.6104 209.729 58.79v151.57h-143.93v79.8701h238.93z" />
    <glyph glyph-name="Gbreve" unicode="&#x11e;" horiz-adv-x="826" 
d="M414.45 770.94c-111.33 0 -184.799 72.8906 -184.799 163.061h83.8096c0 -52.7305 43.2998 -86.5107 100.99 -86.5107c58.2002 0 100.99 33.5801 100.99 86.5098h83.8096c0 -90.1797 -72.7305 -163.06 -184.801 -163.06zM729.491 366.571v-366.551h-71.7803
l-10.7803 61.9902c-69.9297 -49.9297 -150.979 -75.9492 -222.18 -75.959c-206.81 0 -343.31 162.69 -343.31 363.99c0 202.67 136.5 365.36 343.31 363.98c90.75 0 192.82 -34.4199 279.641 -101.04l-26.21 -71.9805c-80.9404 54.6396 -172.08 82.7393 -254.09 82.7393
c-144.95 0.959961 -243.82 -114.38 -243.82 -273.7c0 -157.95 99.1396 -273.7 244.479 -273.7c67.29 0 138.8 19.6104 209.74 58.79v151.57h-143.94v79.8701h238.94z" />
    <glyph glyph-name="Gcommaaccent" unicode="&#x122;" horiz-adv-x="826" 
d="M729.49 366.56l0.000976562 -366.551h-71.7695l-10.7803 61.9902c-69.9404 -49.9297 -150.98 -75.9492 -222.19 -75.959c-206.81 0 -343.3 162.69 -343.3 363.99c0 202.67 136.49 365.36 343.3 363.98c90.75 0 192.82 -34.4199 279.65 -101.04l-26.2197 -71.9805
c-80.9297 54.6396 -172.08 82.7393 -254.08 82.7393c-144.95 0.959961 -243.82 -114.38 -243.82 -273.7c0 -157.95 99.1396 -273.7 244.479 -273.7c67.2803 0 138.8 19.6104 209.729 58.79v151.57h-143.93v79.8701h238.93zM419.991 -62.0312
c23.3096 0.30957 42.1006 -16.8691 46.8105 -45.0889c7.87988 -47.3301 -28.1299 -115.65 -74.8604 -151.631l-30.9297 19.75c23.4199 23.1299 39.6201 49.8496 46.4199 87.8799c-17.4199 4.88965 -33.0195 21.3193 -33 43.8496
c-0.0195312 25.1699 20.29 45.54 45.5596 45.2402z" />
    <glyph glyph-name="Gdotaccent" unicode="&#x120;" horiz-adv-x="826" 
d="M414.45 784.27c-29.1201 0 -52.7305 23.6104 -52.7305 52.7305c0 29.1299 23.6104 52.7402 52.7305 52.7402c29.1299 0 52.7402 -23.6104 52.7402 -52.7402c0 -29.1201 -23.6104 -52.7305 -52.7402 -52.7305zM729.5 366.56v-366.55h-71.7803l-10.7803 62
c-69.9297 -49.9404 -150.979 -75.96 -222.18 -75.96c-206.81 0 -343.31 162.69 -343.31 363.98c0 202.68 136.5 365.37 343.31 363.99c90.75 0 192.82 -34.4199 279.641 -101.04l-26.21 -71.9902c-80.9404 54.6504 -172.08 82.7402 -254.09 82.7402
c-144.95 0.969727 -243.82 -114.37 -243.82 -273.7c0 -157.95 99.1396 -273.69 244.479 -273.69c67.29 0 138.8 19.6104 209.74 58.79v151.56h-143.94v79.8701h238.94z" />
    <glyph glyph-name="H" unicode="H" horiz-adv-x="794" 
d="M692.63 700v-700h-95v326.62h-401.47v-326.62h-95v700h95v-293.51h401.47v293.51h95z" />
    <glyph glyph-name="Hbar" unicode="&#x126;" horiz-adv-x="793" 
d="M793.32 515.56h-100.15v-515.56h-95v326.62h-401.47v-326.62h-95v515.56h-101.71v79.8701h101.71v104.56h95v-104.56h401.47v104.56h95v-104.56h100.15v-79.8701zM598.17 515.56h-401.47v-109.07h401.47v109.07z" />
    <glyph glyph-name="I" unicode="I" horiz-adv-x="297" 
d="M196.16 0h-95v700h95v-700z" />
    <glyph glyph-name="IJ" unicode="&#x132;" horiz-adv-x="768" 
d="M196.16 0h-95v700h95v-700zM667.62 700l-0.00878906 -462.36c0 -139.14 -96.2197 -251.59 -244.47 -251.59c-34.9805 0 -67.1309 6.33984 -95.8213 17.8799l25.6504 71.3398c21.8096 -6.09961 45.2197 -9.34961 70.1699 -9.34961
c89.0996 0 149.479 68.7998 149.479 171.71v462.37h95z" />
    <glyph glyph-name="Iacute" unicode="&#xcd;" horiz-adv-x="297" 
d="M192.27 763.7h-93.4004l127.78 172.6h105zM196.159 0h-95v700h95v-700z" />
    <glyph glyph-name="Icaron" unicode="&#x1cf;" horiz-adv-x="297" 
d="M101.98 764.4l-152.25 172.6h104.7l94.25 -115.42l94.25 115.42h104.7l-152.25 -172.6h-93.4004zM101.15 700h95v-700h-95v700z" />
    <glyph glyph-name="Icircumflex" unicode="&#xce;" horiz-adv-x="297" 
d="M347.61 764.4h-104.7l-94.25 115.41l-94.25 -115.41h-104.7l152.25 172.6h93.4004zM101.16 700h95v-700h-95v700z" />
    <glyph glyph-name="Idieresis" unicode="&#xcf;" horiz-adv-x="297" 
d="M42.2197 889.73c29.1299 0 52.7402 -23.6104 52.7402 -52.7305c0 -29.1299 -23.6104 -52.7402 -52.7402 -52.7402c-29.1201 0 -52.7305 23.6104 -52.7305 52.7402c0 29.1201 23.6104 52.7305 52.7305 52.7305zM255.09 889.73
c29.1299 0 52.7402 -23.6104 52.7402 -52.7305c0 -29.1299 -23.6104 -52.7402 -52.7402 -52.7402c-29.1201 0 -52.7305 23.6104 -52.7305 52.7402c0 29.1201 23.6104 52.7305 52.7305 52.7305zM196.16 0h-95v700h95v-700z" />
    <glyph glyph-name="Idotaccent" unicode="&#x130;" horiz-adv-x="297" 
d="M148.66 889.73c29.1299 0 52.7402 -23.6104 52.7402 -52.7305c0 -29.1299 -23.6104 -52.7402 -52.7402 -52.7402c-29.1201 0 -52.7305 23.6104 -52.7305 52.7402c0 29.1201 23.6104 52.7305 52.7305 52.7305zM196.16 0h-95v700h95v-700z" />
    <glyph glyph-name="Idotbelow" unicode="&#x1eca;" horiz-adv-x="297" 
d="M196.16 0h-95v700h95v-700zM148.69 -72.7305c29.1201 0 52.7305 -23.6104 52.7305 -52.7305c0 -29.1299 -23.6104 -52.7402 -52.7305 -52.7402c-29.1299 0 -52.7402 23.6104 -52.7402 52.7402c0 29.1201 23.6104 52.7305 52.7402 52.7305z" />
    <glyph glyph-name="Igrave" unicode="&#xcc;" horiz-adv-x="297" 
d="M195.67 764.4h-93.4004l-139.38 172.6h105zM196.159 0h-95v700h95v-700z" />
    <glyph glyph-name="Ihookabove" unicode="&#x1ec8;" horiz-adv-x="297" 
d="M190.07 995.2c64.21 0 116.91 -19.1797 116.92 -99.6396c-0.00976562 -54.46 -24.7197 -70.7295 -85.6396 -102.05c-22.8896 -11.4102 -33.29 -17.1699 -35.3203 -34.8701h-74.6201c1.79004 61.2695 42.4199 82.3994 77.8496 99.6895
c39.8301 19.4004 43.5303 30.29 43.4004 42.0098c-0.25 18.4697 -14.8203 25.9102 -43.3105 25.8105c-22.3701 -0.0800781 -49.9697 -5.98047 -70.1494 -12.29l-30.4697 61.2598c32.7197 14.3301 67.2598 20.0801 101.34 20.0801zM196.16 0h-95v700h95v-700z" />
    <glyph glyph-name="Imacron" unicode="&#x12a;" horiz-adv-x="297" 
d="M312.53 789.12h-327.73v81.75h327.73v-81.75zM196.16 0h-95v700h95v-700z" />
    <glyph glyph-name="Iogonek" unicode="&#x12e;" horiz-adv-x="297" 
d="M237.71 -144.33l20.6514 -56.6875c-27.21 -18.1904 -66.0195 -27.1904 -99.6699 -27.4307c-63.6201 0.240234 -123.44 33.9502 -123.91 97.5098c0.459961 53.8398 43.0703 99.4297 94.1299 130.939h-27.75v700h95v-700
c-35.2305 -23.0596 -77.1504 -56.8398 -77.4805 -104.49c0.330078 -37.6104 27.5996 -52.2705 63.3896 -52.001c15.9004 -0.269531 37.6201 3.06055 55.6396 12.1602z" />
    <glyph glyph-name="Itilde" unicode="&#x128;" horiz-adv-x="297" 
d="M77.79 920.32c37.9404 0 71.5996 -22.8799 96.4893 -40.8799c18.5596 -13.4697 34.0195 -23.6396 48.4697 -23.2695c20.0596 -0.370117 41.2998 18.6699 69.3398 61.8096l55.5303 -42.0303c-39.5498 -57.1396 -67.6094 -98.1992 -126.68 -99.1396
c-43.1299 0 -71.1895 21.7695 -96.1797 39.8193c-17.3701 12.3604 -34.7598 23.7607 -50.3799 23.5908c-20.5596 0.169922 -41.7295 -20.3604 -69.1094 -61.96l-55.5703 42.0596c25.7197 36.7402 64.1396 100 128.09 100zM196.159 0h-95v700h95v-700z" />
    <glyph glyph-name="J" unicode="J" horiz-adv-x="470" 
d="M370.3 700l-0.0107422 -462.36c0 -139.14 -96.2197 -251.59 -244.479 -251.59c-34.9697 0 -67.1201 6.33984 -95.8203 17.8799l25.6504 71.3398c21.8203 -6.09961 45.2305 -9.34961 70.1807 -9.34961c89.0898 0 149.479 68.7998 149.479 171.71v462.37h95z" />
    <glyph glyph-name="K" unicode="K" horiz-adv-x="714" 
d="M320.13 368.57l-123.979 -121.73v-246.84h-95v700h95v-335.69l328.55 335.69h132.97l-273.55 -268.6l298.85 -431.4h-116.87z" />
    <glyph glyph-name="Kcommaaccent" unicode="&#x136;" horiz-adv-x="714" 
d="M682.97 0h-116.87l-245.97 368.57l-123.97 -121.73v-246.84h-95v700h95v-335.69l328.55 335.69h132.96l-273.55 -268.6zM362.199 -62.04c23.3096 0.30957 42.1006 -16.8691 46.8008 -45.0889c7.88965 -47.3301 -28.1299 -115.65 -74.8604 -151.631l-30.9199 19.75
c23.4102 23.1299 39.6201 49.8496 46.4199 87.8799c-17.4199 4.88965 -33.0303 21.3193 -33.0107 43.8496c-0.0195312 25.1699 20.3008 45.54 45.5703 45.2402z" />
    <glyph glyph-name="L" unicode="L" horiz-adv-x="557" 
d="M525.35 79.8701v-79.8701h-424.19v700h95v-620.13h329.19z" />
    <glyph glyph-name="Lacute" unicode="&#x139;" horiz-adv-x="557" 
d="M320.27 763.7h-93.4004l127.78 172.6h105zM525.35 79.8701v-79.8701h-424.19v700h95v-620.13h329.19z" />
    <glyph glyph-name="Lcaron" unicode="&#x13d;" horiz-adv-x="557" 
d="M454.92 668.9c7.87988 -47.3301 -28.1191 -115.649 -74.8496 -151.63l-30.9297 19.75c23.4199 23.1396 39.6201 49.8496 46.4199 87.8799c-17.4199 4.90039 -33.0303 21.3301 -33.0107 43.8496c-0.0195312 25.1797 20.3008 45.5498 45.5703 45.25
c23.3096 0.299805 42.0996 -16.8799 46.7998 -45.0996zM525.351 79.8613v-79.8701h-424.19v700h95v-620.13h329.19z" />
    <glyph glyph-name="Lcommaaccent" unicode="&#x13b;" horiz-adv-x="557" 
d="M525.35 79.8701v-79.8701h-424.19v700h95v-620.13h329.19zM282.199 -62.04c23.3096 0.30957 42.1006 -16.8691 46.8105 -45.0889c7.87988 -47.3301 -28.1299 -115.65 -74.8604 -151.631l-30.9297 19.75c23.4199 23.1299 39.6201 49.8496 46.4199 87.8799
c-17.4199 4.88965 -33.0195 21.3193 -33 43.8496c-0.0195312 25.1699 20.29 45.54 45.5596 45.2402z" />
    <glyph glyph-name="Ldot" unicode="&#x13f;" horiz-adv-x="557" 
d="M525.35 79.8701v-79.8701h-424.19v700h95v-620.13h329.19zM359.109 284.33c-30.71 0 -55.6104 24.9014 -55.6104 55.6113c0 31.3496 24.9004 55.6191 55.6104 55.6191c30.7197 0 55.6201 -24.9004 55.6201 -55.6104c0 -30.7197 -24.9004 -55.6201 -55.6201 -55.6201z" />
    <glyph glyph-name="Lslash" unicode="&#x141;" horiz-adv-x="557" 
d="M525.35 79.8701v-79.8711h-424.19v282.78l-85.3096 -46.7598l-38.4502 70.0898l123.76 67.8398v326.05h95v-273.97l125.31 68.6904l38.4404 -70.0898l-163.75 -89.7695v-254.99h329.19z" />
    <glyph glyph-name="M" unicode="M" horiz-adv-x="893" 
d="M791.7 700l-0.00195312 -700.001h-95v517.87l-204.75 -291.38h-84.0996h-11.8096l-204.88 291.44v-517.93h-95v700h83.7002l264.07 -387.47l264.08 387.47h83.6904z" />
    <glyph glyph-name="N" unicode="N" horiz-adv-x="769" 
d="M673.08 700v-700h-83.7002l-398.51 526.79v-526.79h-95v700h83.7002l398.51 -526.79v526.79h95z" />
    <glyph glyph-name="Nacute" unicode="&#x143;" horiz-adv-x="769" 
d="M428.15 763.7h-93.4004l127.78 172.6h105zM673.09 700v-700h-83.7002l-398.52 526.79v-526.79h-95v700h83.7002l398.52 -526.79v526.79h95z" />
    <glyph glyph-name="Ncaron" unicode="&#x147;" horiz-adv-x="769" 
d="M337.87 764.4l-152.261 172.6h104.7l94.25 -115.42l94.25 115.42h104.7l-152.25 -172.6h-93.3896zM673.079 700v-700h-83.7002l-398.51 526.79v-526.79h-95v700h83.7002l398.51 -526.79v526.79h95z" />
    <glyph glyph-name="Ncommaaccent" unicode="&#x145;" horiz-adv-x="769" 
d="M673.08 700v-700h-83.7002l-398.51 526.79v-526.79h-95v700h83.7002l398.51 -526.79v526.79h95zM390.09 -62.04c23.3096 0.30957 42.1006 -16.8691 46.8008 -45.0889c7.88965 -47.3301 -28.1299 -115.65 -74.8604 -151.631l-30.9199 19.75
c23.4102 23.1299 39.6201 49.8496 46.4199 87.8799c-17.4199 4.88965 -33.0303 21.3193 -33.0107 43.8496c-0.0195312 25.1699 20.3008 45.54 45.5703 45.2402z" />
    <glyph glyph-name="Eng" unicode="&#x14a;" horiz-adv-x="769" 
d="M673.08 700l-0.00976562 -662.42c0 -139.13 -96.2197 -251.58 -244.47 -251.58c-34.9805 0 -67.1309 6.33984 -95.8213 17.8701l25.6504 71.3496c21.8096 -6.09961 45.2197 -9.34961 70.1699 -9.34961c82.7598 0 140.74 59.3496 148.58 150.27l-386.31 510.65v-526.79
h-95v700h83.7002l398.51 -526.79v526.79h95z" />
    <glyph glyph-name="Ntilde" unicode="&#xd1;" horiz-adv-x="769" 
d="M310.27 840.22c-20.5498 0.160156 -41.7305 -20.3506 -69.1006 -61.9502l-55.5703 42.0498c25.71 36.75 64.1299 100 128.09 100c37.9404 0 71.5908 -22.8799 96.4805 -40.8799c18.5596 -13.4697 34.0195 -23.6396 48.4697 -23.2695
c20.0596 -0.370117 41.2998 18.6699 69.3398 61.8096l55.5303 -42.0303c-39.5498 -57.1396 -67.6094 -98.1992 -126.68 -99.1396c-43.1299 0 -71.1895 21.7695 -96.1797 39.8193c-17.3701 12.3604 -34.7598 23.7607 -50.3799 23.5908zM673.089 699.998v-700h-83.7002
v0.00976562l-398.52 526.79v-526.8h-95v700h83.7002l398.52 -526.79v526.79h95z" />
    <glyph glyph-name="O" unicode="O" horiz-adv-x="850" 
d="M424.75 714.01c208.19 0 343.301 -162.689 343.301 -363.979c0 -201.3 -135.11 -363.99 -343.301 -363.99c-206.81 0 -343.3 162.69 -343.3 363.99c0 202.67 136.49 363.979 343.3 363.979zM424.09 623.721c-144.96 0 -243.83 -114.37 -243.83 -273.69
c0 -157.95 99.1396 -273.7 244.479 -273.7c146.41 0 244.48 115.5 244.48 273.7c0 158.19 -98.0703 273.69 -245.13 273.69z" />
    <glyph glyph-name="Oacute" unicode="&#xd3;" horiz-adv-x="850" 
d="M468.05 763.7h-93.3896l127.77 172.6h105zM424.76 714.01c208.19 0 343.3 -162.689 343.3 -363.979c0 -201.3 -135.12 -363.99 -343.3 -363.99c-206.81 0 -343.31 162.69 -343.31 363.99c0 202.67 136.5 363.979 343.31 363.979zM424.099 623.721
c-144.96 0 -243.83 -114.37 -243.83 -273.69c0 -157.95 99.1396 -273.7 244.479 -273.7c146.41 0 244.48 115.5 244.48 273.7c0 158.19 -98.0703 273.69 -245.13 273.69z" />
    <glyph glyph-name="Ocaron" unicode="&#x1d1;" horiz-adv-x="850" 
d="M377.77 764.4l-152.25 172.6h104.7l94.25 -115.42l94.25 115.42h104.7l-152.25 -172.6h-93.4004zM424.75 714.01c208.19 0 343.301 -162.689 343.301 -363.979c0 -201.3 -135.11 -363.99 -343.301 -363.99c-206.81 0 -343.3 162.69 -343.3 363.99
c0 202.67 136.49 363.979 343.3 363.979zM424.75 76.3311c146.41 0 244.48 115.5 244.48 273.7c0 158.19 -98.0703 273.69 -245.13 273.69c-144.96 0 -243.83 -114.37 -243.83 -273.69c0 -157.95 99.1396 -273.7 244.479 -273.7z" />
    <glyph glyph-name="Ocircumflex" unicode="&#xd4;" horiz-adv-x="850" 
d="M330.2 764.4h-104.7l152.25 172.6h93.4004l152.25 -172.6h-104.7l-94.25 115.41zM424.76 714.011c208.19 0 343.3 -162.689 343.3 -363.989c0 -201.29 -135.12 -363.98 -343.3 -363.98c-206.81 0 -343.31 162.69 -343.31 363.98c0 202.68 136.5 363.989 343.31 363.989z
M424.749 76.332c146.41 0 244.48 115.5 244.48 273.69c0 158.2 -98.0703 273.7 -245.13 273.7c-144.96 0 -243.83 -114.38 -243.83 -273.7c0 -157.95 99.1396 -273.69 244.479 -273.69z" />
    <glyph glyph-name="Ocircumflexacute" unicode="&#x1ed0;" horiz-adv-x="850" 
d="M705.66 825h-93.3896l127.77 172.6h105zM330.671 764.4h-104.689l152.25 172.6h93.3896l152.25 -172.6h-104.7l-94.25 115.41zM424.762 714.011c208.19 0 343.301 -162.689 343.301 -363.989c0 -201.29 -135.11 -363.98 -343.301 -363.98
c-206.81 0 -343.3 162.69 -343.3 363.98c0 202.68 136.49 363.989 343.3 363.989zM424.762 76.332c146.41 0 244.48 115.5 244.48 273.69c0 158.2 -98.0703 273.7 -245.13 273.7c-144.96 0 -243.83 -114.38 -243.83 -273.7c0 -157.95 99.1396 -273.69 244.479 -273.69z" />
    <glyph glyph-name="Ocircumflexdotbelow" unicode="&#x1ed8;" horiz-adv-x="850" 
d="M330.2 764.4h-104.7l152.25 172.6h93.4004l152.25 -172.6h-104.7l-94.25 115.41zM424.76 714.011c208.19 0 343.3 -162.689 343.3 -363.989c0 -201.29 -135.12 -363.98 -343.3 -363.98c-206.81 0 -343.31 162.69 -343.31 363.98c0 202.68 136.5 363.989 343.31 363.989z
M424.749 76.332c146.41 0 244.48 115.5 244.48 273.69c0 158.2 -98.0703 273.7 -245.13 273.7c-144.96 0 -243.83 -114.38 -243.83 -273.7c0 -157.95 99.1396 -273.69 244.479 -273.69zM424.099 -72.7275c29.1201 0 52.7305 -23.6104 52.7305 -52.7402
c0 -29.1201 -23.6104 -52.7305 -52.7305 -52.7305c-29.1299 0 -52.7402 23.6104 -52.7402 52.7305c0 29.1299 23.6104 52.7402 52.7402 52.7402z" />
    <glyph glyph-name="Ocircumflexgrave" unicode="&#x1ed2;" horiz-adv-x="850" 
d="M652.61 825l-139.38 172.6h105l127.78 -172.6h-93.4004zM330.2 764.399h-104.7l152.25 172.6h93.4004l152.25 -172.6h-104.7l-94.25 115.42zM424.76 714.01c208.19 0 343.3 -162.689 343.3 -363.979c0 -201.3 -135.12 -363.99 -343.3 -363.99
c-206.81 0 -343.31 162.69 -343.31 363.99c0 202.67 136.5 363.979 343.31 363.979zM424.749 76.3311c146.41 0 244.48 115.5 244.48 273.7c0 158.19 -98.0703 273.69 -245.13 273.69c-144.96 0 -243.83 -114.37 -243.83 -273.69c0 -157.95 99.1396 -273.7 244.479 -273.7z
" />
    <glyph glyph-name="Ocircumflexhookabove" unicode="&#x1ed4;" horiz-adv-x="850" 
d="M696.81 1035.52c64.2197 0 116.909 -19.1689 116.929 -99.6289c-0.0195312 -54.4697 -24.7197 -70.7295 -85.6396 -102.05c-22.8896 -11.4199 -33.2998 -17.1797 -35.3193 -34.8799h-74.6299c1.79004 61.2803 42.4297 82.4102 77.8496 99.6904
c39.8301 19.4102 43.54 30.29 43.4004 42.0098c-0.25 18.4697 -14.8203 25.9102 -43.3008 25.7998c-22.3799 -0.0703125 -49.9795 -5.9707 -70.1494 -12.291l-30.4697 61.2695c32.71 14.3301 67.25 20.0801 101.33 20.0801zM329.698 764.41h-104.7l152.25 172.6h93.4004
l152.25 -172.6h-104.7l-94.25 115.41zM424.758 714.021c208.19 0 343.3 -162.689 343.3 -363.989c0 -201.29 -135.12 -363.98 -343.3 -363.98c-206.81 0 -343.31 162.69 -343.31 363.98c0 202.68 136.5 363.989 343.31 363.989zM424.747 76.3418
c146.41 0 244.48 115.5 244.48 273.69c0 158.2 -98.0703 273.7 -245.13 273.7c-144.96 0 -243.83 -114.38 -243.83 -273.7c0 -157.95 99.1396 -273.69 244.479 -273.69z" />
    <glyph glyph-name="Ocircumflextilde" unicode="&#x1ed6;" horiz-adv-x="850" 
d="M350.17 1019.61c-20.5596 0.169922 -41.7207 -20.3506 -69.1006 -61.9502l-55.5703 42.0596c25.7197 36.7402 64.1396 100 128.09 100c37.9404 0 71.5908 -22.8896 96.4805 -40.8896c18.5596 -13.46 34.0195 -23.6396 48.4697 -23.2695
c20.0596 -0.370117 41.2998 18.6797 69.3398 61.8096l55.5303 -42.0303c-39.5498 -57.1396 -67.6094 -98.1992 -126.68 -99.1396c-43.1299 0 -71.1895 21.7598 -96.1797 39.8193c-17.3701 12.3604 -34.7598 23.7607 -50.3799 23.5908zM471.148 937.01l152.261 -172.6h-104.7
l-94.25 115.41l-94.25 -115.41h-104.7l152.25 172.6h93.3896zM424.77 714.021c208.19 0 343.3 -162.689 343.3 -363.989c0 -201.29 -135.12 -363.98 -343.3 -363.98c-206.81 0 -343.31 162.69 -343.31 363.98c0 202.68 136.5 363.989 343.31 363.989zM424.759 76.3418
c146.41 0 244.48 115.5 244.48 273.69c0 158.2 -98.0703 273.7 -245.13 273.7c-144.96 0 -243.83 -114.38 -243.83 -273.7c0 -157.95 99.1396 -273.69 244.479 -273.69z" />
    <glyph glyph-name="Odieresis" unicode="&#xd6;" horiz-adv-x="850" 
d="M318.01 889.73c29.1299 0 52.7402 -23.6104 52.7402 -52.7402c0 -29.1201 -23.6104 -52.7305 -52.7402 -52.7305c-29.1201 0 -52.7305 23.6104 -52.7305 52.7305c0 29.1299 23.6104 52.7402 52.7305 52.7402zM530.88 889.73c29.1299 0 52.7402 -23.6104 52.7402 -52.7402
c0 -29.1201 -23.6104 -52.7305 -52.7402 -52.7305c-29.1201 0 -52.7305 23.6104 -52.7305 52.7305c0 29.1299 23.6104 52.7402 52.7305 52.7402zM424.75 714.011c208.19 0 343.301 -162.689 343.301 -363.989c0 -201.29 -135.11 -363.98 -343.301 -363.98
c-206.81 0 -343.3 162.69 -343.3 363.98c0 202.68 136.49 363.989 343.3 363.989zM424.09 623.722c-144.96 0 -243.83 -114.38 -243.83 -273.7c0 -157.95 99.1396 -273.69 244.479 -273.69c146.41 0 244.48 115.5 244.48 273.69c0 158.2 -98.0703 273.7 -245.13 273.7z" />
    <glyph glyph-name="Odotbelow" unicode="&#x1ecc;" horiz-adv-x="850" 
d="M424.75 714.01c208.19 0 343.301 -162.689 343.301 -363.979c0 -201.3 -135.11 -363.99 -343.301 -363.99c-206.81 0 -343.3 162.69 -343.3 363.99c0 202.67 136.49 363.979 343.3 363.979zM424.09 623.721c-144.96 0 -243.83 -114.37 -243.83 -273.69
c0 -157.95 99.1396 -273.7 244.479 -273.7c146.41 0 244.48 115.5 244.48 273.7c0 158.19 -98.0703 273.69 -245.13 273.69zM424.09 -72.7295c29.1299 0 52.7402 -23.6104 52.7402 -52.7305c0 -29.1299 -23.6104 -52.7402 -52.7402 -52.7402
c-29.1201 0 -52.7305 23.6104 -52.7305 52.7402c0 29.1201 23.6104 52.7305 52.7305 52.7305z" />
    <glyph glyph-name="Ograve" unicode="&#xd2;" horiz-adv-x="850" 
d="M471.45 764.4h-93.3896l-139.38 172.6h105zM424.761 714.011c208.19 0 343.3 -162.689 343.3 -363.989c0 -201.29 -135.12 -363.98 -343.3 -363.98c-206.81 0 -343.31 162.69 -343.31 363.98c0 202.68 136.5 363.989 343.31 363.989zM424.1 623.722
c-144.96 0 -243.83 -114.38 -243.83 -273.7c0 -157.95 99.1396 -273.69 244.479 -273.69c146.41 0 244.48 115.5 244.48 273.69c0 158.2 -98.0703 273.7 -245.13 273.7z" />
    <glyph glyph-name="Ohookabove" unicode="&#x1ece;" horiz-adv-x="850" 
d="M456.54 995.2c64.21 0 116.91 -19.1797 116.92 -99.6299c-0.00976562 -54.4697 -24.7197 -70.7295 -85.6396 -102.05c-22.8896 -11.4199 -33.29 -17.1797 -35.3203 -34.8799h-74.6201c1.79004 61.2695 42.4199 82.4092 77.8496 99.6895
c39.8301 19.4102 43.5303 30.29 43.4004 42.0098c-0.25 18.4697 -14.8203 25.9102 -43.3008 25.8105c-22.3799 -0.0800781 -49.9795 -5.98047 -70.1494 -12.29l-30.4697 61.2598c32.71 14.3301 67.25 20.0801 101.33 20.0801zM424.75 714.021
c208.19 0 343.301 -162.689 343.301 -363.989c0 -201.29 -135.11 -363.98 -343.301 -363.98c-206.81 0 -343.3 162.69 -343.3 363.98c0 202.68 136.49 363.989 343.3 363.989zM424.09 623.731c-144.96 0 -243.83 -114.38 -243.83 -273.7
c0 -157.95 99.1396 -273.69 244.479 -273.69c146.41 0 244.48 115.5 244.48 273.69c0 158.2 -98.0703 273.7 -245.13 273.7z" />
    <glyph glyph-name="Ohorn" unicode="&#x1a0;" horiz-adv-x="850" 
d="M752.38 617.61c-18.1201 -13.2305 -41.501 -20.3496 -68.7812 -20.5801c54.0996 -64.8496 84.46 -151.59 84.46 -247c0 -201.3 -135.12 -363.99 -343.3 -363.99c-206.81 0 -343.31 162.69 -343.31 363.99c0 202.67 136.5 363.979 343.31 363.979
c69.4404 0 130.75 -18.0996 181.63 -49.6895c39.3604 -15.5498 69.2305 -14.6494 87.2109 -0.319336c21.2695 16.9502 25.8398 52.6006 9.53027 102.23l77.3604 23.0996c26.7695 -81.9502 12.4092 -142.101 -28.1104 -171.721zM424.759 76.3311
c146.41 0 244.48 115.5 244.48 273.7c0 158.19 -98.0703 273.69 -245.13 273.69c-144.96 0 -243.83 -114.37 -243.83 -273.69c0 -157.95 99.1396 -273.7 244.479 -273.7z" />
    <glyph glyph-name="Ohornacute" unicode="&#x1eda;" horiz-adv-x="850" 
d="M468.05 763.7h-93.3896l127.77 172.6h105zM752.38 617.61c-18.1299 -13.2305 -41.499 -20.3496 -68.7793 -20.5801c54.1104 -64.8496 84.46 -151.59 84.46 -247c0 -201.3 -135.11 -363.99 -343.301 -363.99c-206.81 0 -343.3 162.69 -343.3 363.99
c0 202.67 136.49 363.979 343.3 363.979c69.4404 0 130.75 -18.0996 181.62 -49.6895c39.3701 -15.5498 69.2402 -14.6494 87.2305 -0.30957c21.2598 16.9404 25.8398 52.6006 9.53027 102.221l77.3496 23.0996c26.7803 -81.9404 12.4199 -142.101 -28.1104 -171.721z
M424.761 76.3311c146.41 0 244.48 115.5 244.48 273.69c0 158.2 -98.0703 273.7 -245.13 273.7c-144.96 0 -243.83 -114.38 -243.83 -273.7c0 -157.95 99.1396 -273.69 244.479 -273.69z" />
    <glyph glyph-name="Ohorndotbelow" unicode="&#x1ee2;" horiz-adv-x="850" 
d="M752.38 617.61c-18.1299 -13.2305 -41.499 -20.3496 -68.7793 -20.5898c54.1104 -64.8496 84.46 -151.59 84.46 -247c0 -201.29 -135.11 -363.98 -343.301 -363.98c-206.81 0 -343.3 162.69 -343.3 363.98c0 202.68 136.49 363.989 343.3 363.989
c69.4404 0 130.75 -18.0996 181.62 -49.6895c39.3701 -15.5596 69.2402 -14.6494 87.2305 -0.319336c21.2598 16.9502 25.8398 52.6006 9.53027 102.23l77.3496 23.0996c26.7803 -81.9502 12.4199 -142.101 -28.1104 -171.721zM424.761 76.3213
c146.41 0 244.48 115.5 244.48 273.7c0 158.19 -98.0703 273.69 -245.13 273.69c-144.96 0 -243.83 -114.37 -243.83 -273.69c0 -157.95 99.1396 -273.7 244.479 -273.7zM424.11 -72.7383c29.1201 0 52.7305 -23.6104 52.7305 -52.7305
c0 -29.1299 -23.6104 -52.7402 -52.7305 -52.7402c-29.1299 0 -52.7402 23.6104 -52.7402 52.7402c0 29.1201 23.6104 52.7305 52.7402 52.7305z" />
    <glyph glyph-name="Ohorngrave" unicode="&#x1edc;" horiz-adv-x="850" 
d="M378.06 764.4l-139.38 172.6h105l127.77 -172.6h-93.3896zM752.38 617.61c-18.1299 -13.2305 -41.5098 -20.3496 -68.79 -20.5801c54.1104 -64.8496 84.46 -151.59 84.46 -247c0 -201.3 -135.11 -363.99 -343.301 -363.99c-206.81 0 -343.3 162.69 -343.3 363.99
c0 202.67 136.49 363.979 343.3 363.979c69.4404 0 130.75 -18.0996 181.63 -49.6895c39.3701 -15.5498 69.2402 -14.6494 87.2207 -0.319336c21.2695 16.9502 25.8398 52.6006 9.53027 102.23l77.3604 23.0996c26.7695 -81.9502 12.4092 -142.101 -28.1104 -171.721z
M424.75 76.3311c146.41 0 244.48 115.5 244.48 273.7c0 158.19 -98.0703 273.69 -245.13 273.69c-144.96 0 -243.83 -114.37 -243.83 -273.69c0 -157.95 99.1396 -273.7 244.479 -273.7z" />
    <glyph glyph-name="Ohornhookabove" unicode="&#x1ede;" horiz-adv-x="850" 
d="M455.83 926.15c-22.3701 -0.0800781 -49.9795 -5.96973 -70.1592 -12.2793l-30.4697 61.2598c32.7197 14.3301 67.2598 20.0801 101.34 20.0801c64.21 0 116.91 -19.1904 116.92 -99.6406c-0.00976562 -54.4697 -24.7197 -70.7295 -85.6396 -102.05
c-22.8896 -11.4199 -33.29 -17.1797 -35.3203 -34.8799h-74.6201c1.79004 61.2695 42.4199 82.4092 77.8496 99.6895c39.8301 19.4102 43.5303 30.29 43.4004 42.0098c-0.25 18.4697 -14.8203 25.9102 -43.3008 25.8105zM752.38 617.621
c-18.1201 -13.2305 -41.5 -20.3496 -68.7803 -20.5898c54.0996 -64.8496 84.46 -151.59 84.46 -247c0 -201.29 -135.12 -363.98 -343.3 -363.98c-206.81 0 -343.31 162.69 -343.31 363.98c0 202.68 136.5 363.989 343.31 363.989
c69.4297 0 130.739 -18.0996 181.619 -49.6895c39.3701 -15.5596 69.2402 -14.6494 87.2207 -0.319336c21.2695 16.9502 25.8398 52.6006 9.53027 102.23l77.3604 23.0996c26.7695 -81.9502 12.4092 -142.101 -28.1104 -171.721zM424.76 76.332
c146.41 0 244.48 115.5 244.48 273.7c0 158.19 -98.0703 273.69 -245.13 273.69c-144.96 0 -243.83 -114.37 -243.83 -273.69c0 -157.95 99.1396 -273.7 244.479 -273.7z" />
    <glyph glyph-name="Ohorntilde" unicode="&#x1ee0;" horiz-adv-x="850" 
d="M350.17 840.22c-20.5596 0.169922 -41.7207 -20.3594 -69.1006 -61.959l-55.5703 42.0596c25.7197 36.7402 64.1396 100 128.09 100c37.9404 0 71.5908 -22.8896 96.4805 -40.8896c18.5596 -13.46 34.0195 -23.6396 48.4697 -23.2695
c20.0596 -0.370117 41.2998 18.6797 69.3398 61.8193l55.5303 -42.04c-39.5498 -57.1299 -67.6094 -98.1895 -126.68 -99.1299c-43.1299 0 -71.1895 21.7598 -96.1797 39.8193c-17.3701 12.3604 -34.7598 23.75 -50.3799 23.5898zM752.389 617.61
c-18.1201 -13.2305 -41.5 -20.3496 -68.7803 -20.5801c54.0996 -64.8496 84.46 -151.59 84.46 -247c0 -201.3 -135.12 -363.99 -343.3 -363.99c-206.81 0 -343.31 162.69 -343.31 363.99c0 202.67 136.5 363.979 343.31 363.979
c69.4297 0 130.739 -18.0996 181.619 -49.6895c39.3701 -15.5498 69.2402 -14.6494 87.2207 -0.30957c21.2695 16.9404 25.8398 52.6006 9.53027 102.221l77.3604 23.0996c26.7695 -81.9404 12.4092 -142.101 -28.1104 -171.721zM424.769 76.3311
c146.41 0 244.48 115.5 244.48 273.69c0 158.2 -98.0703 273.7 -245.13 273.7c-144.96 0 -243.83 -114.38 -243.83 -273.7c0 -157.95 99.1396 -273.69 244.479 -273.69z" />
    <glyph glyph-name="Ohungarumlaut" unicode="&#x150;" horiz-adv-x="850" 
d="M372.85 764.4h-93.4004l127.78 172.6h105zM571.479 764.4h-93.3896l127.77 172.6h105zM424.76 714.011c208.19 0 343.3 -162.689 343.3 -363.989c0 -201.29 -135.12 -363.98 -343.3 -363.98c-206.81 0 -343.31 162.69 -343.31 363.98
c0 202.68 136.5 363.989 343.31 363.989zM424.099 623.722c-144.96 0 -243.83 -114.38 -243.83 -273.7c0 -157.95 99.1396 -273.69 244.479 -273.69c146.41 0 244.48 115.5 244.48 273.69c0 158.2 -98.0703 273.7 -245.13 273.7z" />
    <glyph glyph-name="Omacron" unicode="&#x14c;" horiz-adv-x="850" 
d="M588.31 789.12h-327.73v81.75h327.73v-81.75zM424.749 714.01c208.19 0 343.301 -162.689 343.301 -363.989c0 -201.29 -135.11 -363.98 -343.301 -363.98c-206.81 0 -343.3 162.69 -343.3 363.98c0 202.68 136.49 363.989 343.3 363.989zM424.089 623.721
c-144.96 0 -243.83 -114.38 -243.83 -273.7c0 -157.95 99.1396 -273.69 244.479 -273.69c146.41 0 244.48 115.5 244.48 273.69c0 158.2 -98.0703 273.7 -245.13 273.7z" />
    <glyph glyph-name="Oslash" unicode="&#xd8;" horiz-adv-x="850" 
d="M669.95 750l-48.2197 -95.8389c92.3301 -65.0498 146.33 -176.87 146.33 -304.13c0 -201.29 -135.12 -363.98 -343.3 -363.98c-46.2803 0 -89.04 8.13965 -127.53 23.04l-29.7305 -59.0898h-87.9502l48.4004 96.2002c-92.1201 65.0898 -146.5 176.77 -146.5 303.829
c0 202.67 136.5 363.979 343.31 363.979c46.4199 0 89.2002 -8.08984 127.67 -22.8896l29.6201 58.8799h87.9004zM180.271 350.031c0 -92.0596 33.6807 -169.78 90.5508 -218.61l240.13 477.28c-26.4102 9.78027 -55.5205 15.0303 -86.8506 15.0303
c-144.96 0 -243.83 -114.38 -243.83 -273.7zM424.752 76.3301c146.41 0 244.47 115.5 244.47 273.7c0 92.2998 -33.3799 170.06 -90.3994 218.829l-240.2 -477.46c26.2695 -9.80957 55.1494 -15.0693 86.1299 -15.0693z" />
    <glyph glyph-name="Otilde" unicode="&#xd5;" horiz-adv-x="850" 
d="M353.58 920.32c37.9404 0 71.5996 -22.8799 96.4893 -40.8799c18.5596 -13.4697 34.0195 -23.6396 48.4697 -23.2695c20.0596 -0.370117 41.2998 18.6699 69.3398 61.8096l55.5303 -42.0303c-39.5498 -57.1396 -67.6094 -98.1992 -126.68 -99.1396
c-43.1299 0 -71.1895 21.7695 -96.1797 39.8193c-17.3701 12.3604 -34.7598 23.7607 -50.3799 23.5908c-20.5596 0.169922 -41.7295 -20.3604 -69.1094 -61.96l-55.5703 42.0596c25.7197 36.7402 64.1396 100 128.09 100zM424.759 714.021
c208.19 0 343.3 -162.689 343.3 -363.989c0 -201.29 -135.12 -363.98 -343.3 -363.98c-206.81 0 -343.31 162.69 -343.31 363.98c0 202.68 136.5 363.989 343.31 363.989zM424.098 623.731c-144.96 0 -243.83 -114.38 -243.83 -273.7
c0 -157.95 99.1396 -273.69 244.479 -273.69c146.41 0 244.48 115.5 244.48 273.69c0 158.2 -98.0703 273.7 -245.13 273.7z" />
    <glyph glyph-name="OE" unicode="&#x152;" horiz-adv-x="1195" 
d="M1144.19 79.8701v-79.8682h-470.14v92.0898c-59.7803 -65.5703 -145.45 -106.051 -249.3 -106.051c-206.81 0 -343.3 162.69 -343.3 363.99c0 202.67 136.49 363.979 343.3 363.979c103.85 0 189.52 -40.4805 249.31 -106.051v92.0303h460.13v-79.8701h-365.13v-213.63
h326.14v-79.8701h-326.14v-246.75h375.13zM424.75 76.332c146.41 0 244.48 115.5 244.48 273.7c0 158.19 -98.0703 273.69 -245.13 273.69c-144.96 0 -243.83 -114.37 -243.83 -273.69c0 -157.95 99.1396 -273.7 244.479 -273.7z" />
    <glyph glyph-name="P" unicode="P" horiz-adv-x="680" 
d="M149.4 700h265.971c110.35 0.00976562 202.93 -88.8906 202.18 -223.591c0 -135.6 -92.5703 -223.609 -202.181 -223.609h-219.21v-252.8h-95v700h48.2402zM518.781 476.85c0.519531 93.2305 -49.1201 143.28 -103.41 143.28h-219.22v-287.46h219.21
c53.8496 0 103.42 49.5596 103.42 144.18z" />
    <glyph glyph-name="Thorn" unicode="&#xde;" horiz-adv-x="680" 
d="M196.16 583.3h219.211c110.35 0 202.93 -88.9004 202.18 -223.601c0 -135.6 -92.5703 -223.6 -202.181 -223.6h-219.21v-136.1h-95v700h95v-116.7zM518.781 360.14c0.519531 93.2305 -49.1201 143.28 -103.41 143.28h-219.22v-287.45h219.21
c53.8496 0 103.42 49.5498 103.42 144.17z" />
    <glyph glyph-name="Q" unicode="Q" horiz-adv-x="847" 
d="M766.61 350.03c0 -131.65 -57.8105 -246.8 -156.041 -310.71l83.8799 -141.31l-99.5596 -18.5l-66.96 121.52c-32.2803 -9.75 -67.2803 -14.9902 -104.63 -14.9902c-206.81 0 -343.3 162.69 -343.3 363.99c0 202.67 136.49 365.36 343.3 363.98
c208.19 0 343.311 -162.69 343.311 -363.98zM423.3 76.3301c20.8301 0 40.6797 2.3291 59.4102 6.78906l-83.3496 151.28l86.1904 15.5303l77.3301 -130.27c65.7598 47.5 104.91 130.41 104.91 230.36c0 158.2 -98.0703 273.7 -245.141 273.7
c-144.96 0.969727 -243.83 -114.37 -243.83 -273.7c0 -157.95 99.1396 -273.69 244.479 -273.69z" />
    <glyph glyph-name="R" unicode="R" horiz-adv-x="674" 
d="M376.99 279.01l-180.829 0.0107422v-279.02h-95v700h95h209.18c110.28 0.0996094 202.79 -83.6309 202.04 -210.491c0 -100.51 -57.3604 -173.24 -135.221 -199.63l170.24 -289.88h-112.84zM196.161 358.891l209.18 -0.000976562
c56.6699 0 103.27 46.6904 103.27 131.091c0.490234 83.0801 -46.1396 130.24 -103.27 130.15h-209.18v-261.24z" />
    <glyph glyph-name="Racute" unicode="&#x154;" horiz-adv-x="674" 
d="M379.26 763.7h-93.3896l127.77 172.6h105zM376.99 279.01l-180.829 0.0107422v-279.02h-95v700h95h209.18c110.28 0.0996094 202.79 -83.6309 202.04 -210.491c0 -100.51 -57.3604 -173.24 -135.221 -199.63l170.24 -289.88h-112.84zM196.161 358.891
l209.18 -0.000976562c56.6699 0 103.27 46.6904 103.27 131.091c0.490234 83.0801 -46.1396 130.24 -103.27 130.15h-209.18v-261.24z" />
    <glyph glyph-name="Rcaron" unicode="&#x158;" horiz-adv-x="674" 
d="M288.98 764.4l-152.25 172.6h104.7l94.25 -115.42l94.25 115.42h104.7l-152.25 -172.6h-93.4004zM376.98 279.01l-180.819 0.0107422v-279.02h-95v700h95h209.18c110.27 0.0996094 202.779 -83.6309 202.029 -210.491c0 -100.51 -57.3496 -173.24 -135.21 -199.63
l170.23 -289.88h-112.84zM196.161 358.891l209.18 -0.000976562c56.6699 0 103.27 46.6904 103.27 131.091c0.490234 83.0801 -46.1396 130.24 -103.27 130.15h-209.18v-261.24z" />
    <glyph glyph-name="Rcommaaccent" unicode="&#x156;" horiz-adv-x="674" 
d="M642.4 0l-112.839 0.000976562l-152.57 279.02h-180.83v-279.02h-95v700h95h209.18c110.28 0.0996094 202.79 -83.6309 202.04 -210.491c0 -100.51 -57.3604 -173.24 -135.221 -199.63zM196.161 358.891l209.18 -0.000976562c56.6699 0 103.27 46.6904 103.27 131.101
c0.490234 83.0801 -46.1396 130.23 -103.27 130.141h-209.18v-261.24zM341.211 -62.0303c23.3096 0.30957 42.1006 -16.8691 46.8008 -45.0889c7.88965 -47.3301 -28.1299 -115.65 -74.8604 -151.631l-30.9199 19.75c23.4102 23.1299 39.6201 49.8496 46.4199 87.8799
c-17.4199 4.88965 -33.0303 21.3193 -33.0107 43.8496c-0.0195312 25.1699 20.3008 45.54 45.5703 45.2402z" />
    <glyph glyph-name="S" unicode="S" horiz-adv-x="640" 
d="M322.46 714c101.19 0 191.019 -36.4795 251.769 -90.0898l-52.0996 -65.5801c-49.3799 40.1396 -116.31 67.2598 -201.079 67.4395c-91.7402 -0.179688 -152.46 -32.1094 -152.5 -116.029c0.650391 -54.3096 27.3701 -72.5791 173.2 -111.509
c108.89 -29.0098 244.6 -57.9902 246.739 -201.37c2.12988 -144.14 -138.01 -210.92 -262.45 -210.92c-105.77 0 -216.779 48.0195 -274.579 119.13l51.9199 64.7803c51.7002 -63.7002 147.28 -97.3906 222.521 -96.9609c86.6504 -0.429688 163.99 41.5 163.75 121.12
c-0.230469 75.9004 -69.3809 88.7207 -173.551 116.78c-177.89 48.3604 -245.71 90.3701 -246.38 199.55c-0.0195312 149.77 129.98 203.659 252.74 203.659z" />
    <glyph glyph-name="Sacute" unicode="&#x15a;" horiz-adv-x="640" 
d="M364.11 763.7h-93.3896l127.77 172.6h105zM322.461 714c101.19 0 191.019 -36.4795 251.769 -90.0898l-52.0996 -65.5801c-49.3799 40.1396 -116.31 67.2598 -201.079 67.4395c-91.7402 -0.179688 -152.46 -32.1094 -152.5 -116.029
c0.650391 -54.3096 27.3701 -72.5791 173.2 -111.509c108.89 -29.0098 244.6 -57.9902 246.739 -201.37c2.12988 -144.14 -138.01 -210.92 -262.45 -210.92c-105.77 0 -216.779 48.0195 -274.579 119.13l51.9199 64.7803c51.7002 -63.7002 147.28 -97.3906 222.521 -96.9609
c86.6504 -0.429688 163.99 41.5 163.75 121.12c-0.230469 75.9004 -69.3809 88.7207 -173.551 116.78c-177.89 48.3604 -245.71 90.3701 -246.38 199.55c-0.0195312 149.77 129.98 203.659 252.74 203.659z" />
    <glyph glyph-name="Scaron" unicode="&#x160;" horiz-adv-x="640" 
d="M273.83 764.4l-152.25 172.6h104.7l94.25 -115.41l94.25 115.41h104.7l-152.25 -172.6h-93.4004zM588.47 196.87c2.12988 -144.14 -138.002 -210.919 -262.432 -210.919c-105.77 0 -216.789 48.0195 -274.579 119.13l51.9102 64.7803
c51.7002 -63.7002 147.28 -97.3906 222.53 -96.9609c86.6504 -0.429688 163.98 41.5 163.75 121.12c-0.240234 75.9004 -69.3906 88.7207 -173.551 116.78c-177.9 48.3604 -245.71 90.3701 -246.39 199.55c-0.0195312 149.77 129.98 203.659 252.75 203.659
c101.18 0 191.01 -36.4805 251.75 -90.0908l-52.0996 -65.5801c-49.3701 40.1396 -116.3 67.2598 -201.069 67.4395c-91.75 -0.179688 -152.47 -32.1094 -152.5 -116.029c0.650391 -54.3096 27.3701 -72.5791 173.19 -111.509
c108.89 -29.0098 244.609 -57.9902 246.739 -201.37z" />
    <glyph glyph-name="Scedilla" unicode="&#x15e;" horiz-adv-x="640" 
d="M588.48 196.86c2 -135.19 -121.171 -202.331 -239.141 -210.141l-9.15039 -30.3096c2.74023 -0.139648 5.45996 -0.349609 8.16016 -0.619141c59.9102 -6.98047 100.66 -43.0508 100.33 -96.7109c0.370117 -60.04 -51.8994 -106.04 -132.76 -107.07
c-43.1504 -1.05957 -102.4 11.1104 -136.261 28.4502l25.3896 55.2695c31.2695 -12.5303 71.1191 -19.0898 102.159 -19.3896c41.2305 0.339844 56.1504 15.7402 56.5 41.8906c-0.349609 24.7402 -13.6895 40.5098 -44.4492 40.2402
c-12.54 0.330078 -40.5898 -4.66016 -54.3594 -10.3701l-17.2002 35.5898l31.2197 65.3301c-90.3496 11.6504 -178.22 55.4707 -227.46 116.061l51.9199 64.7695c51.7002 -63.7002 147.28 -97.3799 222.521 -96.9502c86.6504 -0.429688 163.99 41.5 163.75 121.11
c-0.230469 75.9102 -69.3809 88.7197 -173.551 116.779c-177.89 48.3604 -245.71 90.3701 -246.38 199.561c-0.0195312 149.77 129.98 203.649 252.74 203.649c101.19 0 191.011 -36.4697 251.761 -90.0801l-52.0996 -65.5801
c-49.3799 40.1396 -116.31 67.25 -201.079 67.4297c-91.7402 -0.179688 -152.46 -32.1094 -152.5 -116.029c0.650391 -54.2998 27.3701 -72.5801 173.2 -111.51c108.89 -29 244.6 -57.9902 246.739 -201.37z" />
    <glyph glyph-name="Scommaaccent" unicode="&#x218;" horiz-adv-x="640" 
d="M322.46 714c101.19 0 191.019 -36.4795 251.769 -90.0898l-52.0996 -65.5801c-49.3799 40.1396 -116.31 67.2598 -201.079 67.4395c-91.7402 -0.179688 -152.46 -32.1094 -152.5 -116.029c0.650391 -54.3096 27.3701 -72.5791 173.2 -111.509
c108.89 -29.0098 244.6 -57.9902 246.739 -201.37c2.12988 -144.14 -138.01 -210.92 -262.45 -210.92c-105.77 0 -216.779 48.0195 -274.579 119.13l51.9199 64.7803c51.7002 -63.7002 147.28 -97.3906 222.521 -96.9609c86.6504 -0.429688 163.99 41.5 163.75 121.12
c-0.230469 75.9004 -69.3809 88.7207 -173.551 116.78c-177.89 48.3604 -245.71 90.3701 -246.38 199.55c-0.0195312 149.77 129.98 203.659 252.74 203.659zM320.397 -62.0391c23.3096 0.30957 42.1006 -16.8691 46.8105 -45.0889
c7.87988 -47.3301 -28.1299 -115.65 -74.8604 -151.631l-30.9297 19.75c23.4199 23.1299 39.6201 49.8496 46.4199 87.8799c-17.4199 4.88965 -33.0195 21.3193 -33 43.8496c-0.0195312 25.1699 20.29 45.54 45.5596 45.2402z" />
    <glyph glyph-name="T" unicode="T" horiz-adv-x="616" 
d="M584.56 620.13h-228.729v-620.13h-95.9404v620.13h-228.73v79.8701h553.4v-79.8701z" />
    <glyph glyph-name="Tbar" unicode="&#x166;" horiz-adv-x="616" 
d="M356.13 620.13v-229.25h115.9v-81.7598h-115.9v-309.12h-95.9404v309.12h-115.89v81.7598h115.89v229.25h-229.03v79.8701h553.4v-79.8701h-228.43z" />
    <glyph glyph-name="Tcaron" unicode="&#x164;" horiz-adv-x="616" 
d="M261.48 764.4l-152.25 172.6h104.7l94.25 -115.42l94.25 115.42h104.7l-152.25 -172.6h-93.4004zM584.551 620.13h-228.729v-620.13h-95.9404v620.13h-228.72v79.8701h553.39v-79.8701z" />
    <glyph glyph-name="Tcedilla" unicode="&#x162;" horiz-adv-x="616" 
d="M346.76 -0.490234l-13.1689 -43.6006c2.75 -0.139648 5.46973 -0.349609 8.16992 -0.619141c59.9004 -6.98047 100.65 -43.0508 100.33 -96.7109c0.360352 -60.04 -51.9092 -106.04 -132.77 -107.07c-43.1504 -1.05957 -102.391 11.1104 -136.261 28.4502
l25.4004 55.2695c31.2598 -12.5303 71.1094 -19.0898 102.149 -19.3896c41.2305 0.339844 56.1602 15.7402 56.5098 41.8906c-0.360352 24.7402 -13.6904 40.5098 -44.4502 40.2402c-12.5498 0.330078 -40.5898 -4.66016 -54.3594 -10.3701l-17.21 35.5898l36.4697 76.3203
h-17.6797v620.62h-228.73v79.8701h553.4v-79.8701h-228.73v-620.62h-9.07031z" />
    <glyph glyph-name="uni021A" unicode="&#x21a;" horiz-adv-x="616" 
d="M584.56 700l-0.00976562 -79.8701h-228.72v-620.13h-95.9404v620.13h-228.73v79.8701h553.4zM313.7 -62.04c23.3096 0.30957 42.1006 -16.8691 46.8008 -45.0889c7.88965 -47.3203 -28.1299 -115.65 -74.8604 -151.631l-30.9199 19.75
c23.4102 23.1396 39.6201 49.8496 46.4199 87.8799c-17.4199 4.90039 -33.0303 21.3301 -33.0107 43.8496c-0.0195312 25.1699 20.3008 45.5498 45.5703 45.2402z" />
    <glyph glyph-name="U" unicode="U" horiz-adv-x="768" 
d="M671.41 700v-463.07c0 -138.75 -112.22 -250.89 -285.12 -250.89c-171.77 0 -285.13 112.14 -285.13 250.89v463.07h95v-463.07c0 -98.8604 72.7803 -167.25 190.13 -167.25c118.19 0 190.12 68.1699 190.12 167.25v463.07h95z" />
    <glyph glyph-name="Uacute" unicode="&#xda;" horiz-adv-x="768" 
d="M427.37 763.7h-93.3896l127.77 172.6h105zM671.41 700v-463.07c0 -138.75 -112.22 -250.89 -285.12 -250.89c-171.76 0 -285.12 112.14 -285.12 250.89v463.07h95v-463.07c0 -98.8604 72.7803 -167.25 190.12 -167.25c118.19 0 190.12 68.1699 190.12 167.25v463.07h95z
" />
    <glyph glyph-name="Ucaron" unicode="&#x1d3;" horiz-adv-x="768" 
d="M337.09 764.4l-152.261 172.6h104.7l94.25 -115.42l94.25 115.42h104.7l-152.25 -172.6h-93.3896zM671.399 700v-463.07c0 -138.75 -112.22 -250.89 -285.12 -250.89c-171.76 0 -285.12 112.14 -285.12 250.89v463.07h95v-463.07
c0 -98.8604 72.7803 -167.25 190.12 -167.25c118.19 0 190.12 68.1699 190.12 167.25v463.07h95z" />
    <glyph glyph-name="Ucircumflex" unicode="&#xdb;" horiz-adv-x="768" 
d="M289.52 764.4h-104.7l152.25 172.6h93.4004l152.25 -172.6h-104.7l-94.25 115.41zM671.409 700v-463.07c0 -138.75 -112.22 -250.89 -285.12 -250.89c-171.76 0 -285.12 112.14 -285.12 250.89v463.07h95v-463.07c0 -98.8604 72.7803 -167.25 190.12 -167.25
c118.19 0 190.12 68.1699 190.12 167.25v463.07h95z" />
    <glyph glyph-name="Udieresis" unicode="&#xdc;" horiz-adv-x="768" 
d="M277.33 889.73c29.1201 0 52.7305 -23.6104 52.7305 -52.7402c0 -29.1201 -23.6104 -52.7305 -52.7305 -52.7305c-29.1299 0 -52.7402 23.6104 -52.7402 52.7305c0 29.1299 23.6104 52.7402 52.7402 52.7402zM490.2 889.73c29.1201 0 52.7305 -23.6104 52.7305 -52.7402
c0 -29.1201 -23.6104 -52.7305 -52.7305 -52.7305c-29.1299 0 -52.7402 23.6104 -52.7402 52.7305c0 29.1299 23.6104 52.7402 52.7402 52.7402zM671.4 700v-463.07c0 -138.75 -112.22 -250.89 -285.12 -250.89c-171.76 0 -285.12 112.14 -285.12 250.89v463.07h95v-463.07
c0 -98.8604 72.7803 -167.25 190.12 -167.25c118.19 0 190.12 68.1699 190.12 167.25v463.07h95z" />
    <glyph glyph-name="Udieresisacute" unicode="&#x1d7;" horiz-adv-x="768" 
d="M427.37 937h-93.3896l127.77 172.6h105zM277.33 889.73c29.1299 0 52.7402 -23.6104 52.7402 -52.7305c0 -29.1299 -23.6104 -52.7402 -52.7402 -52.7402c-29.1201 0 -52.7305 23.6104 -52.7305 52.7402c0 29.1201 23.6104 52.7305 52.7305 52.7305zM490.2 889.73
c29.1299 0 52.7402 -23.6104 52.7402 -52.7305c0 -29.1299 -23.6104 -52.7402 -52.7402 -52.7402c-29.1201 0 -52.7305 23.6104 -52.7305 52.7402c0 29.1201 23.6104 52.7305 52.7305 52.7305zM671.41 700v-463.06c0 -138.75 -112.22 -250.89 -285.12 -250.89
c-171.77 0 -285.13 112.14 -285.13 250.89v463.06h95v-463.06c0 -98.8604 72.7803 -167.25 190.13 -167.25c118.19 0 190.12 68.1602 190.12 167.25v463.06h95z" />
    <glyph glyph-name="Udieresiscaron" unicode="&#x1d9;" horiz-adv-x="768" 
d="M337.09 937l-152.261 172.6h104.7l94.25 -115.42l94.25 115.42h104.7l-152.25 -172.6h-93.3896zM224.589 837c0 29.1201 23.6104 52.7305 52.7402 52.7305c29.1201 0 52.7305 -23.6104 52.7305 -52.7305c0 -29.1299 -23.6104 -52.7402 -52.7305 -52.7402
c-29.1299 0 -52.7402 23.6104 -52.7402 52.7402zM437.459 837c0 29.1201 23.6104 52.7305 52.7402 52.7305c29.1201 0 52.7305 -23.6104 52.7305 -52.7305c0 -29.1299 -23.6104 -52.7402 -52.7305 -52.7402c-29.1299 0 -52.7402 23.6104 -52.7402 52.7402zM671.399 700
v-463.07c0 -138.75 -112.22 -250.89 -285.12 -250.89c-171.76 0 -285.12 112.14 -285.12 250.89v463.07h95v-463.07c0 -98.8604 72.7803 -167.25 190.12 -167.25c118.19 0 190.12 68.1699 190.12 167.25v463.07h95z" />
    <glyph glyph-name="Udieresisgrave" unicode="&#x1db;" horiz-adv-x="768" 
d="M430.77 937h-93.3896l-139.38 172.6h105zM277.33 889.73c29.1299 0 52.7402 -23.6104 52.7402 -52.7305c0 -29.1299 -23.6104 -52.7402 -52.7402 -52.7402c-29.1201 0 -52.7305 23.6104 -52.7305 52.7402c0 29.1201 23.6104 52.7305 52.7305 52.7305zM490.2 889.73
c29.1299 0 52.7402 -23.6104 52.7402 -52.7305c0 -29.1299 -23.6104 -52.7402 -52.7402 -52.7402c-29.1201 0 -52.7305 23.6104 -52.7305 52.7402c0 29.1201 23.6104 52.7305 52.7305 52.7305zM671.41 700v-463.06c0 -138.75 -112.22 -250.89 -285.12 -250.89
c-171.77 0 -285.13 112.14 -285.13 250.89v463.06h95v-463.06c0 -98.8604 72.7803 -167.25 190.13 -167.25c118.19 0 190.12 68.1602 190.12 167.25v463.06h95z" />
    <glyph glyph-name="Udieresismacron" unicode="&#x1d5;" horiz-adv-x="768" 
d="M547.63 965.22h-327.73v81.7598h327.73v-81.7598zM277.329 889.729c29.1299 0 52.7402 -23.6104 52.7402 -52.7305c0 -29.1299 -23.6104 -52.7402 -52.7402 -52.7402c-29.1201 0 -52.7305 23.6104 -52.7305 52.7402c0 29.1201 23.6104 52.7305 52.7305 52.7305z
M490.199 889.729c29.1299 0 52.7402 -23.6104 52.7402 -52.7305c0 -29.1299 -23.6104 -52.7402 -52.7402 -52.7402c-29.1201 0 -52.7305 23.6104 -52.7305 52.7402c0 29.1201 23.6104 52.7305 52.7305 52.7305zM671.409 699.999v-463.06
c0 -138.75 -112.22 -250.89 -285.12 -250.89c-171.77 0 -285.13 112.14 -285.13 250.89v463.06h95v-463.06c0 -98.8604 72.7803 -167.25 190.13 -167.25c118.19 0 190.12 68.1602 190.12 167.25v463.06h95z" />
    <glyph glyph-name="Udotbelow" unicode="&#x1ee4;" horiz-adv-x="768" 
d="M671.41 700v-463.07c0 -138.75 -112.22 -250.89 -285.12 -250.89c-171.77 0 -285.13 112.14 -285.13 250.89v463.07h95v-463.07c0 -98.8604 72.7803 -167.25 190.13 -167.25c118.19 0 190.12 68.1699 190.12 167.25v463.07h95zM386.29 -72.7305
c29.1201 0 52.7305 -23.6104 52.7305 -52.7305c0 -29.1299 -23.6104 -52.7402 -52.7305 -52.7402c-29.1299 0 -52.7402 23.6104 -52.7402 52.7402c0 29.1201 23.6104 52.7305 52.7402 52.7305z" />
    <glyph glyph-name="Ugrave" unicode="&#xd9;" horiz-adv-x="768" 
d="M430.77 764.4h-93.3896l-139.38 172.6h105zM671.41 700v-463.07c0 -138.75 -112.22 -250.89 -285.12 -250.89c-171.77 0 -285.13 112.14 -285.13 250.89v463.07h95v-463.07c0 -98.8604 72.7803 -167.25 190.13 -167.25c118.19 0 190.12 68.1699 190.12 167.25v463.07h95z
" />
    <glyph glyph-name="Uhookabove" unicode="&#x1ee6;" horiz-adv-x="768" 
d="M418.38 995.2c64.21 0 116.91 -19.1797 116.92 -99.6299c-0.00976562 -54.4697 -24.7197 -70.7295 -85.6396 -102.05c-22.8896 -11.4199 -33.29 -17.1797 -35.3203 -34.8799h-74.6201c1.79004 61.2695 42.4199 82.4092 77.8496 99.6895
c39.8301 19.4102 43.5303 30.29 43.4004 42.0098c-0.25 18.4697 -14.8203 25.9102 -43.3008 25.8105c-22.3799 -0.0800781 -49.9795 -5.98047 -70.1494 -12.29l-30.4697 61.2598c32.71 14.3301 67.25 20.0801 101.33 20.0801zM671.399 700.011v-463.07
c0 -138.75 -112.22 -250.89 -285.12 -250.89c-171.76 0 -285.12 112.14 -285.12 250.89v463.07h95v-463.07c0 -98.8604 72.7803 -167.25 190.12 -167.25c118.19 0 190.12 68.1699 190.12 167.25v463.07h95z" />
    <glyph glyph-name="Uhorn" unicode="&#x1af;" horiz-adv-x="768" 
d="M713.29 793.66l77.6309 22.792c18.46 -71.9805 3.12012 -124.841 -34.3203 -151.951c-21.6699 -15.71 -50.8398 -22.6602 -85.1895 -19.54v-408.03c0 -138.75 -112.22 -250.89 -285.12 -250.89c-171.77 0 -285.13 112.14 -285.13 250.89v463.07h95v-463.07
c0 -98.8604 72.7803 -167.25 190.13 -167.25c118.19 0 190.12 68.1699 190.12 167.25v463.07h19.0898h67.9502c14.1201 0.290039 25.7197 4.03027 34.5098 10.9199c18.5596 14.5498 24.5596 43.1494 15.3291 82.7393z" />
    <glyph glyph-name="Uhornacute" unicode="&#x1ee8;" horiz-adv-x="768" 
d="M427.37 763.7h-93.4004l127.78 172.6h105zM713.29 793.66l77.6318 22.792c18.46 -71.9805 3.12012 -124.841 -34.3203 -151.951c-21.6699 -15.71 -50.8398 -22.6602 -85.2002 -19.54v-408.03c0 -138.75 -112.22 -250.89 -285.12 -250.89
c-171.76 0 -285.12 112.14 -285.12 250.89v463.07h95v-463.07c0 -98.8604 72.7803 -167.25 190.12 -167.25c118.19 0 190.12 68.1699 190.12 167.25v463.07h19.0996h67.9502c14.1201 0.290039 25.7197 4.03027 34.5098 10.9199
c18.5596 14.5498 24.5596 43.1494 15.3291 82.7393z" />
    <glyph glyph-name="Uhorndotbelow" unicode="&#x1ef0;" horiz-adv-x="768" 
d="M713.29 793.66l77.6318 22.792c18.46 -71.9805 3.12012 -124.841 -34.3203 -151.951c-21.6699 -15.71 -50.8398 -22.6602 -85.2002 -19.54v-408.03c0 -138.75 -112.22 -250.89 -285.12 -250.89c-171.76 0 -285.12 112.14 -285.12 250.89v463.07h95v-463.07
c0 -98.8604 72.7803 -167.25 190.12 -167.25c118.19 0 190.12 68.1699 190.12 167.25v463.07h19.0996h67.9502c14.1201 0.290039 25.7197 4.03027 34.5098 10.9199c18.5596 14.5498 24.5596 43.1494 15.3291 82.7393zM386.282 -72.7275
c29.1299 0 52.7402 -23.6104 52.7402 -52.7402c0 -29.1201 -23.6104 -52.7305 -52.7402 -52.7305c-29.1201 0 -52.7305 23.6104 -52.7305 52.7305c0 29.1299 23.6104 52.7402 52.7305 52.7402z" />
    <glyph glyph-name="Uhorngrave" unicode="&#x1eea;" horiz-adv-x="768" 
d="M337.37 764.4l-139.38 172.6h105l127.78 -172.6h-93.4004zM713.29 793.67l77.6318 22.792c18.46 -71.9902 3.12012 -124.84 -34.3203 -151.96c-21.6699 -15.7002 -50.8398 -22.6602 -85.2002 -19.5303v-408.03c0 -138.75 -112.22 -250.89 -285.12 -250.89
c-171.76 0 -285.12 112.14 -285.12 250.89v463.06h95v-463.06c0 -98.8604 72.7803 -167.25 190.12 -167.25c118.19 0 190.12 68.1602 190.12 167.25v463.06h19.0996h67.9502c14.1201 0.290039 25.7197 4.04004 34.5098 10.9199
c18.5596 14.5498 24.5596 43.1494 15.3291 82.749z" />
    <glyph glyph-name="Uhornhookabove" unicode="&#x1eec;" horiz-adv-x="768" 
d="M417.67 926.15c-22.3701 -0.0800781 -49.9795 -5.96973 -70.1592 -12.2793l-30.4697 61.2598c32.7197 14.3301 67.2598 20.0801 101.34 20.0801c64.21 0 116.91 -19.1904 116.92 -99.6406c-0.00976562 -54.4697 -24.7197 -70.7295 -85.6396 -102.05
c-22.8896 -11.4199 -33.29 -17.1797 -35.3203 -34.8799h-74.6201c1.79004 61.2695 42.4199 82.4092 77.8496 99.6895c39.8301 19.4102 43.5303 30.29 43.4004 42.0098c-0.25 18.4697 -14.8203 25.9102 -43.3008 25.8105zM713.28 793.671l77.6299 22.792
c18.46 -71.9805 3.12012 -124.841 -34.3203 -151.951c-21.6699 -15.71 -50.8398 -22.6602 -85.1895 -19.54v-408.03c0 -138.75 -112.22 -250.89 -285.12 -250.89c-171.77 0 -285.13 112.14 -285.13 250.89v463.07h95v-463.07c0 -98.8604 72.7803 -167.25 190.13 -167.25
c118.19 0 190.12 68.1699 190.12 167.25v463.07h19.0898h67.96c14.1104 0.290039 25.7207 4.03027 34.5107 10.9199c18.5498 14.5498 24.5596 43.1494 15.3193 82.7393z" />
    <glyph glyph-name="Uhorntilde" unicode="&#x1eee;" horiz-adv-x="768" 
d="M309.48 840.22c-20.5498 0.160156 -41.7197 -20.3506 -69.0898 -61.9502l-55.5703 42.0498c25.71 36.75 64.1299 100 128.09 100c37.9404 0 71.5908 -22.8799 96.4707 -40.8799c18.5596 -13.4697 34.0293 -23.6396 48.4795 -23.2695
c20.0596 -0.370117 41.29 18.6699 69.3301 61.8096l55.54 -42.0303c-39.5596 -57.1396 -67.6191 -98.1992 -126.689 -99.1396c-43.1299 0 -71.1895 21.7695 -96.1797 39.8193c-17.3604 12.3604 -34.7607 23.7607 -50.3809 23.5908zM713.3 793.669l77.6318 22.792
c18.46 -71.9902 3.12012 -124.84 -34.3203 -151.96c-21.6699 -15.7002 -50.8398 -22.6602 -85.2002 -19.5303v-408.03c0 -138.75 -112.22 -250.89 -285.12 -250.89c-171.76 0 -285.12 112.14 -285.12 250.89v463.06h95v-463.06c0 -98.8604 72.7803 -167.25 190.12 -167.25
c118.19 0 190.12 68.1602 190.12 167.25v463.06h19.0996h67.9502c14.1201 0.290039 25.7197 4.04004 34.5098 10.9199c18.5596 14.5498 24.5596 43.1494 15.3291 82.749z" />
    <glyph glyph-name="Uhungarumlaut" unicode="&#x170;" horiz-adv-x="768" 
d="M332.16 764.4h-93.3896l127.77 172.6h105zM530.801 764.4h-93.4004l127.78 172.6h105zM671.41 700v-463.07c0 -138.75 -112.22 -250.89 -285.12 -250.89c-171.77 0 -285.13 112.14 -285.13 250.89v463.07h95v-463.07c0 -98.8604 72.7803 -167.25 190.13 -167.25
c118.19 0 190.12 68.1699 190.12 167.25v463.07h95z" />
    <glyph glyph-name="Umacron" unicode="&#x16a;" horiz-adv-x="768" 
d="M547.63 789.12h-327.73v81.75h327.73v-81.75zM671.409 700v-463.07c0 -138.75 -112.22 -250.89 -285.12 -250.89c-171.77 0 -285.13 112.14 -285.13 250.89v463.07h95v-463.07c0 -98.8604 72.7803 -167.25 190.13 -167.25c118.19 0 190.12 68.1699 190.12 167.25v463.07
h95z" />
    <glyph glyph-name="Uogonek" unicode="&#x172;" horiz-adv-x="768" 
d="M539.24 21.4004c-32.6396 -22.71 -67.1592 -54.5469 -67.459 -97.7568c0.330078 -37.6104 27.5996 -52.2705 63.3896 -52.001c15.8896 -0.269531 37.6094 3.07031 55.6289 12.1699l20.6504 -56.6904c-27.21 -18.1904 -66.0195 -27.1904 -99.6699 -27.4209
c-63.6104 0.230469 -123.44 33.9404 -123.91 97.5107c0.299805 34.7197 18.1699 65.6396 44.4102 91.5898c-14.7998 -1.82031 -30.1494 -2.76074 -46.0098 -2.76074c-171.76 0 -285.12 112.14 -285.12 250.89v463.07h95v-463.07c0 -98.8604 72.7803 -167.25 190.13 -167.25
c118.19 0 190.12 68.1602 190.12 167.25v463.07h95v-463.07c0 -91.7002 -49.0098 -171.771 -132.16 -215.53z" />
    <glyph glyph-name="Uring" unicode="&#x16e;" horiz-adv-x="768" 
d="M383.77 995.88c80.3096 0 132.439 -57.0498 132.439 -127.649c0 -70.5898 -52.1299 -127.649 -132.439 -127.649c-79.7803 0 -132.44 57.0596 -132.44 127.649c0 71.0801 52.6602 128.14 132.44 127.649zM383.27 935.46
c-34.6602 0.200195 -61.7002 -25.7109 -61.7002 -67.2207c0 -41.04 26.6602 -67.2197 62.2002 -67.2197c35.8496 0 62.1895 26.0195 62.1895 67.2197c0 41.1904 -26.3398 67.2207 -62.6895 67.2207zM671.409 699.999v-463.06c0 -138.75 -112.22 -250.89 -285.12 -250.89
c-171.77 0 -285.13 112.14 -285.13 250.89v463.06h95v-463.06c0 -98.8604 72.7803 -167.25 190.13 -167.25c118.19 0 190.12 68.1602 190.12 167.25v463.06h95z" />
    <glyph glyph-name="Utilde" unicode="&#x168;" horiz-adv-x="768" 
d="M312.9 920.32c37.9502 0 71.6006 -22.8799 96.4805 -40.8799c18.5596 -13.4697 34.0293 -23.6396 48.4795 -23.2695c20.0596 -0.370117 41.29 18.6699 69.3301 61.8096l55.54 -42.0303c-39.5596 -57.1396 -67.6191 -98.1992 -126.689 -99.1396
c-43.1299 0 -71.1895 21.7695 -96.1797 39.8193c-17.3604 12.3604 -34.7607 23.7607 -50.3809 23.5908c-20.5498 0.169922 -41.7295 -20.3604 -69.0996 -61.96l-55.5703 42.0596c25.71 36.7402 64.1299 100 128.09 100zM671.41 700v-463.06
c0 -138.75 -112.22 -250.89 -285.12 -250.89c-171.77 0 -285.13 112.14 -285.13 250.89v463.06h95v-463.06c0 -98.8604 72.7803 -167.25 190.13 -167.25c118.19 0 190.12 68.1602 190.12 167.25v463.06h95z" />
    <glyph glyph-name="V" unicode="V" horiz-adv-x="690" 
d="M400.93 0h-112.249l-257.52 700h101.64l212.01 -591.07l212.01 591.07h101.64z" />
    <glyph glyph-name="W" unicode="W" horiz-adv-x="1016" 
d="M804.97 0h-124.473l-172.27 602.98l-172.27 -602.98h-124.47l-180.33 700h101.61l144.53 -581.52l160.74 581.52h140.38l160.74 -581.52l144.53 581.52h101.61z" />
    <glyph glyph-name="Wacute" unicode="&#x1e82;" horiz-adv-x="1016" 
d="M552.16 763.7h-93.3896l127.77 172.6h105zM804.98 0h-124.471l-172.27 602.98l-172.27 -602.98h-124.47l-180.34 700h101.62l144.52 -581.52l160.74 581.52h140.39l160.74 -581.52l144.52 581.52h101.62z" />
    <glyph glyph-name="Wcircumflex" unicode="&#x174;" horiz-adv-x="1016" 
d="M414.31 764.4h-104.7l152.25 172.6h93.4004l152.25 -172.6h-104.7l-94.25 115.41zM985.31 700l-180.331 -700h-124.47l-172.27 602.98l-172.27 -602.98h-124.47l-180.34 700h101.62l144.52 -581.52l160.74 581.52h140.39l160.74 -581.52l144.52 581.52h101.62z" />
    <glyph glyph-name="Wdieresis" unicode="&#x1e84;" horiz-adv-x="1016" 
d="M402.12 889.73c29.1299 0 52.7402 -23.6104 52.7402 -52.7305c0 -29.1299 -23.6104 -52.7402 -52.7402 -52.7402c-29.1201 0 -52.7305 23.6104 -52.7305 52.7402c0 29.1201 23.6104 52.7305 52.7305 52.7305zM614.99 889.73c29.1299 0 52.7402 -23.6104 52.7402 -52.7305
c0 -29.1299 -23.6104 -52.7402 -52.7402 -52.7402c-29.1201 0 -52.7305 23.6104 -52.7305 52.7402c0 29.1201 23.6104 52.7305 52.7305 52.7305zM804.971 0h-124.473l-172.27 602.98l-172.27 -602.98h-124.47l-180.33 700h101.61l144.53 -581.52l160.74 581.52h140.38
l160.74 -581.52l144.53 581.52h101.61z" />
    <glyph glyph-name="Wgrave" unicode="&#x1e80;" horiz-adv-x="1016" 
d="M555.56 764.4h-93.3896l-139.38 172.6h105zM804.97 0h-124.473l-172.27 602.98l-172.27 -602.98h-124.47l-180.33 700h101.61l144.53 -581.52l160.74 581.52h140.38l160.74 -581.52l144.53 581.52h101.61z" />
    <glyph glyph-name="X" unicode="X" horiz-adv-x="705" 
d="M413.8 353.07l259.688 -353.07h-115.68l-211.63 287.56l-202.17 -287.56h-112.85l259.79 362.84l-247.8 336.9l115.49 0.259766l199.94 -271.67l190.25 271.67l112.65 -0.259766z" />
    <glyph glyph-name="Y" unicode="Y" horiz-adv-x="697" 
d="M392.94 244.85l-0.0107422 -244.851h-95v243.76l-266.77 455.98l112.6 0.259766l204.24 -355.53l205.18 355.53l112.61 -0.259766z" />
    <glyph glyph-name="Yacute" unicode="&#xdd;" horiz-adv-x="697" 
d="M392.55 763.7h-93.3896l127.77 172.6h105zM392.94 244.851l-0.000976562 -244.86h-95v243.77l-266.78 455.98l112.61 0.259766l204.23 -355.53l205.19 355.53l112.61 -0.259766z" />
    <glyph glyph-name="Ycircumflex" unicode="&#x176;" horiz-adv-x="697" 
d="M254.7 764.4h-104.7l152.25 172.6h93.4004l152.25 -172.6h-104.7l-94.25 115.42zM392.94 244.851l-0.000976562 -244.851h-95v243.76l-266.78 455.98l112.61 0.259766l204.23 -355.53l205.19 355.53l112.61 -0.259766z" />
    <glyph glyph-name="Ydieresis" unicode="&#x178;" horiz-adv-x="697" 
d="M242.51 784.27c-29.1201 0 -52.7305 23.6104 -52.7305 52.7305c0 29.1299 23.6104 52.7402 52.7305 52.7402c29.1299 0 52.7402 -23.6104 52.7402 -52.7402c0 -29.1201 -23.6104 -52.7305 -52.7402 -52.7305zM455.38 784.27
c-29.1201 0 -52.7305 23.6104 -52.7305 52.7305c0 29.1299 23.6104 52.7402 52.7305 52.7402c29.1299 0 52.7402 -23.6104 52.7402 -52.7402c0 -29.1201 -23.6104 -52.7305 -52.7402 -52.7305zM392.939 244.85l-0.0107422 -244.851h-95v243.76l-266.77 455.98
l112.6 0.259766l204.24 -355.53l205.18 355.53l112.61 -0.259766z" />
    <glyph glyph-name="Ydotbelow" unicode="&#x1ef4;" horiz-adv-x="697" 
d="M297.94 243.76l-266.78 455.979l112.6 0.259766l204.24 -355.53l205.18 355.53l112.61 -0.259766l-272.85 -454.89v-244.85h-95v243.76zM349.38 -72.7305c29.1201 0 52.7305 -23.6104 52.7305 -52.7305c0 -29.1299 -23.6104 -52.7402 -52.7305 -52.7402
c-29.1299 0 -52.7402 23.6104 -52.7402 52.7402c0 29.1201 23.6104 52.7305 52.7402 52.7305z" />
    <glyph glyph-name="Ygrave" unicode="&#x1ef2;" horiz-adv-x="697" 
d="M302.55 764.4l-139.38 172.6h105l127.78 -172.6h-93.4004zM392.93 244.85l-0.000976562 -244.851h-95v243.76l-266.78 455.98l112.61 0.259766l204.23 -355.53l205.19 355.53l112.61 -0.259766z" />
    <glyph glyph-name="Yhookabove" unicode="&#x1ef6;" horiz-adv-x="697" 
d="M373.44 926.15c-22.3799 -0.0800781 -49.9814 -5.96973 -70.1514 -12.2793l-30.4697 61.2598c32.71 14.3301 67.25 20.0801 101.33 20.0801c64.2197 0 116.91 -19.1904 116.93 -99.6406c-0.0195312 -54.4697 -24.7197 -70.7295 -85.6396 -102.05
c-22.8896 -11.4199 -33.2998 -17.1797 -35.3193 -34.8799h-74.6299c1.79004 61.2695 42.4297 82.4092 77.8496 99.6895c39.8301 19.4102 43.54 30.29 43.4004 42.0098c-0.25 18.4697 -14.8096 25.9102 -43.2998 25.8105zM392.929 244.861l-0.000976562 -244.86h-95v243.77
l-266.78 455.98l112.61 0.259766l204.23 -355.53l205.19 355.53l112.61 -0.259766z" />
    <glyph glyph-name="Ytilde" unicode="&#x1ef8;" horiz-adv-x="697" 
d="M274.67 840.22c-20.5498 0.160156 -41.7305 -20.3506 -69.1006 -61.9502l-55.5703 42.0498c25.71 36.75 64.1299 100 128.09 100c37.9404 0 71.5908 -22.8799 96.4805 -40.8799c18.5596 -13.4697 34.0195 -23.6396 48.4697 -23.2695
c20.0596 -0.370117 41.2998 18.6699 69.3398 61.8096l55.5303 -42.0303c-39.5498 -57.1396 -67.6094 -98.1992 -126.68 -99.1396c-43.1299 0 -71.1895 21.7695 -96.1797 39.8193c-17.3701 12.3604 -34.7598 23.7607 -50.3799 23.5908zM392.938 244.858l-0.000976562 -244.86
h-95v243.77l-266.78 455.98l112.61 0.259766l204.23 -355.53l205.19 355.53l112.61 -0.259766z" />
    <glyph glyph-name="Z" unicode="Z" horiz-adv-x="627" 
d="M576.64 79.8701v-79.8809h-526.11l-0.240234 62.8096l394.53 557.32h-370.29v79.8701h492.23v-62.8496l-394.51 -557.27h404.39z" />
    <glyph glyph-name="Zacute" unicode="&#x179;" horiz-adv-x="627" 
d="M357.88 763.7h-93.4004l127.78 172.6h105zM576.64 79.8701v-79.8701h-526.11l-0.240234 62.8096l394.53 557.32h-370.29v79.8701h492.23v-62.8496l-394.51 -557.28h404.39z" />
    <glyph glyph-name="Zcaron" unicode="&#x17d;" horiz-adv-x="627" 
d="M267.6 764.4l-152.261 172.6h104.7l94.25 -115.42l94.25 115.42h104.7l-152.25 -172.6h-93.3896zM576.629 79.8701l0.00976562 -79.8701h-526.12l-0.230469 62.8096l394.53 557.32h-370.3v79.8701h492.23v-62.8496l-394.5 -557.28h404.38z" />
    <glyph glyph-name="Zdotaccent" unicode="&#x17b;" horiz-adv-x="627" 
d="M314.27 784.26c-29.1201 0 -52.7305 23.6104 -52.7305 52.7402c0 29.1201 23.6104 52.7305 52.7305 52.7305c29.1299 0 52.7402 -23.6104 52.7402 -52.7305c0 -29.1299 -23.6104 -52.7402 -52.7402 -52.7402zM576.64 79.8701v-79.8809h-526.11l-0.240234 62.8096
l394.53 557.32h-370.29v79.8701h492.23v-62.8496l-394.51 -557.27h404.39z" />
    <glyph glyph-name="a" unicode="a" 
d="M529.33 500l-0.00195312 -500.002h-85.5195v63.5303c-52.4297 -54.0098 -113.96 -77.5293 -171.3 -77.5293c-126.13 0 -216.06 115.43 -216.06 263.939c0 148.28 89.6396 264.12 216.12 264.061c57.4404 0 118.971 -23.6797 171.23 -77.4893v63.4902h85.5303z
M279.168 66.8184c51.0498 0 115.61 26.46 164.641 77.6104v211.17c-49.2803 51.46 -113.87 77.5898 -164.64 77.5898c-83.6904 0 -133.36 -72.1104 -133.36 -183.19c0 -111.25 49.8496 -183.18 133.359 -183.18z" />
    <glyph glyph-name="a.ss01" horiz-adv-x="586" 
d="M296.06 514c114 0 213.002 -51.999 213.002 -184.579v-329.42h-85.5801v65.1396c-55.6104 -53.7197 -128.261 -79.1396 -191.451 -79.1396c-97 0 -185 61 -185 175c0 118 94 157 209 154c57.7002 -1.45996 115.92 -12.5195 167.439 -25.96v40.3799
c0 72.6797 -48.5996 103.76 -127.42 103.76c-62.0801 0 -129.74 -18.9102 -177.62 -57.5205l-43.1104 66.6201c55.7803 45.21 138.75 71.7197 220.74 71.7197zM247.102 66.8105c67.9102 0 127.611 26.3105 176.371 77.6602v72.4102
c-51.9102 13.2598 -108.88 23.4697 -158.41 24.1494c-72.7002 1.00977 -128.681 -18.75 -128.681 -79.0898c0 -60.7598 32.9502 -95.1299 110.72 -95.1299z" />
    <glyph glyph-name="aacute" unicode="&#xe1;" 
d="M356.76 563.7h-93.3896l127.77 172.6h105zM529.33 500l-0.00195312 -500.002h-85.5195v63.5303c-52.4297 -54.0098 -113.96 -77.5293 -171.3 -77.5293c-126.13 0 -216.06 115.43 -216.06 263.939c0 148.28 89.6396 264.12 216.12 264.061
c57.4404 0 118.971 -23.6797 171.23 -77.4893v63.4902h85.5303zM279.168 66.8184c51.0498 0 115.61 26.46 164.641 77.6104v211.17c-49.2803 51.46 -113.87 77.5898 -164.64 77.5898c-83.6904 0 -133.36 -72.1104 -133.36 -183.19
c0 -111.25 49.8496 -183.18 133.359 -183.18z" />
    <glyph glyph-name="aacute.ss01" horiz-adv-x="586" 
d="M340.4 563.7h-93.4004l127.78 172.6h105zM296.06 514c114 0 213.002 -51.999 213.002 -184.579v-329.42h-85.5801v65.1396c-55.6104 -53.7197 -128.261 -79.1396 -191.451 -79.1396c-97 0 -185 61 -185 175c0 118 94 157 209 154
c57.7002 -1.45996 115.92 -12.5195 167.439 -25.96v40.3799c0 72.6797 -48.5996 103.76 -127.42 103.76c-62.0801 0 -129.74 -18.9102 -177.62 -57.5205l-43.1104 66.6201c55.7803 45.21 138.75 71.7197 220.74 71.7197zM247.102 66.8105
c67.9102 0 127.611 26.3105 176.371 77.6602v72.4102c-51.9102 13.2598 -108.88 23.4697 -158.41 24.1494c-72.7002 1.00977 -128.681 -18.75 -128.681 -79.0898c0 -60.7598 32.9502 -95.1299 110.72 -95.1299z" />
    <glyph glyph-name="abreve" unicode="&#x103;" 
d="M313.16 570.94c-111.32 0 -184.81 72.8799 -184.81 163.06h83.8096c0 -52.7402 43.2998 -86.5098 100.99 -86.5098c58.2002 0 100.99 33.5703 100.99 86.5h83.8096c0 -90.1699 -72.7305 -163.05 -184.79 -163.05zM529.321 500l0.0107422 -499.992h-85.5303v63.5303
c-52.4199 -54.0098 -113.96 -77.5293 -171.29 -77.5293c-126.13 0 -216.06 115.43 -216.06 263.939c0 148.28 89.6396 264.11 216.109 264.051c57.4502 0 118.98 -23.6797 171.24 -77.4893v63.4902h85.5195zM279.162 66.8174c51.0596 0 115.609 26.459 164.649 77.6191
v211.17c-49.2803 51.4502 -113.88 77.5801 -164.649 77.5801c-83.6797 0 -133.359 -72.0996 -133.359 -183.18c0 -111.26 49.8496 -183.189 133.359 -183.189z" />
    <glyph glyph-name="abreve.ss01" horiz-adv-x="586" 
d="M296.79 570.94c-111.33 0 -184.799 72.8799 -184.799 163.06h83.8096c0 -52.7402 43.2998 -86.5098 100.99 -86.5098c58.2002 0 100.99 33.5703 100.99 86.5h83.8096c0 -90.1699 -72.7305 -163.05 -184.801 -163.05zM296.051 514c114 0 213 -52.001 213 -184.581v-329.42
h-85.5801v65.1504c-55.5996 -53.7305 -128.25 -79.1504 -191.44 -79.1504c-97 0 -185 61 -185 175c0 118 94 157 209 154c57.6904 -1.45996 115.921 -12.5195 167.44 -25.9492v40.3701c0 72.6904 -48.5996 103.771 -127.42 103.771
c-62.0898 0 -129.74 -18.9102 -177.62 -57.5205l-43.1104 66.6104c55.7803 45.21 138.75 71.7197 220.73 71.7197zM247.101 66.8086c67.9102 0 127.601 26.3105 176.37 77.6602v72.4102c-51.9102 13.2695 -108.891 23.4795 -158.41 24.1494
c-72.7002 1.01953 -128.681 -18.7402 -128.681 -79.0898c0 -60.7598 32.9404 -95.1299 110.721 -95.1299z" />
    <glyph glyph-name="abreveacute" unicode="&#x1eaf;" 
d="M356.76 736.82h-93.3896l127.77 172.6h105zM313.16 570.94c-111.32 0 -184.81 72.8799 -184.81 163.06h83.8096c0 -52.7402 43.2998 -86.5098 100.99 -86.5098c58.2002 0 100.99 33.5703 100.99 86.5h83.8096c0 -90.1699 -72.7305 -163.05 -184.79 -163.05zM529.321 500
l0.0107422 -499.992h-85.5303v63.5303c-52.4199 -54.0098 -113.96 -77.5293 -171.29 -77.5293c-126.13 0 -216.06 115.43 -216.06 263.939c0 148.28 89.6396 264.11 216.109 264.051c57.4502 0 118.98 -23.6797 171.24 -77.4893v63.4902h85.5195zM279.162 66.8174
c51.0596 0 115.609 26.459 164.649 77.6191v211.17c-49.2803 51.4502 -113.88 77.5801 -164.649 77.5801c-83.6797 0 -133.359 -72.0996 -133.359 -183.18c0 -111.26 49.8496 -183.189 133.359 -183.189z" />
    <glyph glyph-name="abrevedotbelow" unicode="&#x1eb7;" 
d="M313.16 570.94c-111.32 0 -184.81 72.8799 -184.81 163.06h83.8096c0 -52.7402 43.2998 -86.5098 100.99 -86.5098c58.2002 0 100.99 33.5703 100.99 86.5h83.8096c0 -90.1699 -72.7305 -163.05 -184.79 -163.05zM529.321 500l0.0107422 -499.992h-85.5303v63.5303
c-52.4199 -54.0098 -113.96 -77.5293 -171.29 -77.5293c-126.13 0 -216.06 115.43 -216.06 263.939c0 148.28 89.6396 264.11 216.109 264.051c57.4502 0 118.98 -23.6797 171.24 -77.4893v63.4902h85.5195zM279.162 66.8174c51.0596 0 115.609 26.459 164.649 77.6191
v211.17c-49.2803 51.4502 -113.88 77.5801 -164.649 77.5801c-83.6797 0 -133.359 -72.0996 -133.359 -183.18c0 -111.26 49.8496 -183.189 133.359 -183.189zM312.842 -72.7236c29.1299 0 52.7402 -23.6104 52.7402 -52.7305
c0 -29.1299 -23.6104 -52.7402 -52.7402 -52.7402c-29.1201 0 -52.7305 23.6104 -52.7305 52.7402c0 29.1201 23.6104 52.7305 52.7305 52.7305z" />
    <glyph glyph-name="abrevedotbelow.ss01" horiz-adv-x="586" 
d="M296.79 570.94c-111.33 0 -184.799 72.8799 -184.799 163.06h83.8096c0 -52.7402 43.2998 -86.5098 100.99 -86.5098c58.2002 0 100.99 33.5703 100.99 86.5h83.8096c0 -90.1699 -72.7305 -163.05 -184.801 -163.05zM296.051 514c114 0 213 -52.001 213 -184.581v-329.42
h-85.5801v65.1504c-55.5996 -53.7305 -128.25 -79.1504 -191.44 -79.1504c-97 0 -185 61 -185 175c0 118 94 157 209 154c57.6904 -1.45996 115.921 -12.5195 167.44 -25.9492v40.3701c0 72.6904 -48.5996 103.771 -127.42 103.771
c-62.0898 0 -129.74 -18.9102 -177.62 -57.5205l-43.1104 66.6104c55.7803 45.21 138.75 71.7197 220.73 71.7197zM247.101 66.8086c67.9102 0 127.601 26.3105 176.37 77.6602v72.4102c-51.9102 13.2695 -108.891 23.4795 -158.41 24.1494
c-72.7002 1.01953 -128.681 -18.7402 -128.681 -79.0898c0 -60.7598 32.9404 -95.1299 110.721 -95.1299zM300.561 -72.7305c29.1299 0 52.7402 -23.6104 52.7402 -52.7305c0 -29.1299 -23.6104 -52.7402 -52.7402 -52.7402c-29.1201 0 -52.7305 23.6104 -52.7305 52.7402
c0 29.1201 23.6104 52.7305 52.7305 52.7305z" />
    <glyph glyph-name="abrevegrave" unicode="&#x1eb1;" 
d="M266.77 736.82l-139.38 172.6h105l127.77 -172.6h-93.3896zM128.359 734l83.7998 0.000976562c0 -52.7305 43.2998 -86.5107 100.99 -86.5107c58.2002 0 100.99 33.5801 100.99 86.5098h83.8096c0 -90.1797 -72.7305 -163.06 -184.79 -163.06
c-111.33 0 -184.8 72.8799 -184.8 163.06zM529.319 500.001l0.0107422 -499.992h-85.5303v63.5303c-52.4199 -54.0098 -113.96 -77.5293 -171.29 -77.5293c-126.13 0 -216.06 115.43 -216.06 263.939c0 148.28 89.6396 264.11 216.109 264.051
c57.4502 0 118.98 -23.6797 171.24 -77.4893v63.4902h85.5195zM279.16 66.8184c51.0596 0 115.609 26.459 164.649 77.6191v211.17c-49.2803 51.4502 -113.88 77.5801 -164.649 77.5801c-83.6797 0 -133.359 -72.0996 -133.359 -183.18
c0 -111.26 49.8496 -183.189 133.359 -183.189z" />
    <glyph glyph-name="abrevehookabove" unicode="&#x1eb3;" 
d="M336.44 881.12c-22.3799 -0.0703125 -49.9814 -5.95996 -70.1514 -12.2803l-30.4697 61.2598c32.71 14.3301 67.25 20.0801 101.33 20.0801c64.2197 0 116.91 -19.1797 116.93 -99.6396c-0.0195312 -54.46 -24.7197 -70.7295 -85.6396 -102.05
c-22.8896 -11.4102 -33.2998 -17.1699 -35.3193 -34.8701h-74.6299c1.79004 61.2695 42.4297 82.3994 77.8496 99.6895c39.8301 19.4004 43.54 30.2803 43.4004 42.0107c-0.25 18.4697 -14.8096 25.9102 -43.2998 25.7998zM313.148 570.951
c-111.33 0 -184.799 72.8799 -184.799 163.06h83.8096c0 -52.7402 43.2998 -86.5098 100.99 -86.5098c58.2002 0 100.99 33.5703 100.99 86.5h83.8096c0 -90.1699 -72.7305 -163.05 -184.801 -163.05zM529.319 500.011l-0.00195312 -499.992h-85.5195v63.5303
c-52.4297 -54.0098 -113.96 -77.5293 -171.3 -77.5293c-126.13 0 -216.06 115.43 -216.06 263.939c0 148.28 89.6396 264.11 216.12 264.051c57.4404 0 118.971 -23.6797 171.23 -77.4893v63.4902h85.5303zM279.157 66.8281c51.0498 0 115.61 26.459 164.641 77.6191v211.17
c-49.2803 51.4502 -113.87 77.5801 -164.64 77.5801c-83.6904 0 -133.36 -72.0996 -133.36 -183.18c0 -111.26 49.8496 -183.189 133.359 -183.189z" />
    <glyph glyph-name="abrevetilde" unicode="&#x1eb5;" 
d="M238.88 812.19c-20.5596 0.160156 -41.7207 -20.3506 -69.1006 -61.9502l-55.5703 42.0498c25.7197 36.75 64.1396 100 128.09 100c37.9404 0 71.5908 -22.8799 96.4805 -40.8799c18.5596 -13.4697 34.0195 -23.6396 48.4697 -23.2695
c20.0596 -0.370117 41.2998 18.6699 69.3398 61.8096l55.5303 -42.0303c-39.5498 -57.1396 -67.6094 -98.1992 -126.68 -99.1396c-43.1299 0 -71.1895 21.7695 -96.1797 39.8193c-17.3701 12.3604 -34.7598 23.7607 -50.3799 23.5908zM313.169 647.489
c58.2002 0 100.98 33.5811 100.98 86.5107h83.8096c0 -90.1699 -72.7305 -163.05 -184.79 -163.05c-111.33 0 -184.8 72.8799 -184.8 163.05h83.8096c0 -52.7305 43.2998 -86.5107 100.99 -86.5107zM529.329 500.01l0.0107422 -500.002h-85.5303v63.5303
c-52.4199 -54.0098 -113.96 -77.5293 -171.29 -77.5293c-126.13 0 -216.06 115.43 -216.06 263.939c0 148.28 89.6396 264.12 216.109 264.061c57.4502 0 118.98 -23.6797 171.24 -77.4893v63.4902h85.5195zM279.17 66.8281c51.0596 0 115.609 26.46 164.649 77.6104v211.17
c-49.2803 51.46 -113.88 77.5898 -164.649 77.5898c-83.6797 0 -133.359 -72.1104 -133.359 -183.19c0 -111.25 49.8496 -183.18 133.359 -183.18z" />
    <glyph glyph-name="acaron" unicode="&#x1ce;" 
d="M266.48 564.4l-152.25 172.6h104.7l94.25 -115.42l94.25 115.42h104.7l-152.25 -172.6h-93.4004zM529.32 500l0.0107422 -500.002h-85.5303v63.5303c-52.4199 -54.0098 -113.96 -77.5293 -171.29 -77.5293c-126.13 0 -216.06 115.43 -216.06 263.939
c0 148.28 89.6396 264.12 216.109 264.061c57.4502 0 118.98 -23.6797 171.24 -77.4893v63.4902h85.5195zM279.161 66.8184c51.0596 0 115.609 26.46 164.649 77.6104v211.17c-49.2803 51.46 -113.88 77.5898 -164.649 77.5898
c-83.6797 0 -133.359 -72.1104 -133.359 -183.19c0 -111.25 49.8496 -183.18 133.359 -183.18z" />
    <glyph glyph-name="acaron.ss01" horiz-adv-x="586" 
d="M250.12 564.4l-152.261 172.6h104.7l94.25 -115.42l94.25 115.42h104.7l-152.25 -172.6h-93.3896zM296.05 514c114 0 213 -51.999 213 -184.579v-329.42h-85.5801v65.1396c-55.5996 -53.7197 -128.25 -79.1396 -191.44 -79.1396c-97 0 -185 61 -185 175
c0 118 94 157 209 154c57.6904 -1.45996 115.921 -12.5195 167.44 -25.96v40.3799c0 72.6797 -48.5996 103.76 -127.42 103.76c-62.0898 0 -129.74 -18.9102 -177.62 -57.5205l-43.1104 66.6201c55.7803 45.21 138.75 71.7197 220.73 71.7197zM247.1 66.8105
c67.9102 0 127.601 26.3105 176.37 77.6602v72.4102c-51.9102 13.2598 -108.891 23.4697 -158.41 24.1494c-72.7002 1.00977 -128.681 -18.75 -128.681 -79.0898c0 -60.7598 32.9404 -95.1299 110.721 -95.1299z" />
    <glyph glyph-name="acircumflex" unicode="&#xe2;" 
d="M218.91 564.4h-104.689l152.25 172.6h93.3896l152.25 -172.6h-104.7l-94.25 115.41zM529.331 500l0.0107422 -500.002h-85.5303v63.5303c-52.4199 -54.0098 -113.96 -77.5293 -171.29 -77.5293c-126.13 0 -216.06 115.43 -216.06 263.939
c0 148.28 89.6396 264.12 216.109 264.061c57.4502 0 118.98 -23.6797 171.24 -77.4893v63.4902h85.5195zM279.172 66.8184c51.0596 0 115.609 26.46 164.649 77.6104v211.17c-49.2803 51.46 -113.88 77.5898 -164.649 77.5898
c-83.6797 0 -133.359 -72.1104 -133.359 -183.19c0 -111.25 49.8496 -183.18 133.359 -183.18z" />
    <glyph glyph-name="acircumflex.ss01" horiz-adv-x="586" 
d="M202.54 564.4h-104.689l152.25 172.6h93.3896l152.25 -172.6h-104.7l-94.25 115.41zM296.061 514c114 0 213.002 -51.999 213.002 -184.579v-329.42h-85.5801v65.1396c-55.6104 -53.7197 -128.261 -79.1396 -191.451 -79.1396c-97 0 -185 61 -185 175
c0 118 94 157 209 154c57.7002 -1.45996 115.92 -12.5195 167.439 -25.96v40.3799c0 72.6797 -48.5996 103.76 -127.42 103.76c-62.0801 0 -129.74 -18.9102 -177.62 -57.5205l-43.1104 66.6201c55.7803 45.21 138.75 71.7197 220.74 71.7197zM247.103 66.8105
c67.9102 0 127.611 26.3105 176.371 77.6602v72.4102c-51.9102 13.2598 -108.88 23.4697 -158.41 24.1494c-72.7002 1.00977 -128.681 -18.75 -128.681 -79.0898c0 -60.7598 32.9502 -95.1299 110.72 -95.1299z" />
    <glyph glyph-name="acircumflexacute" unicode="&#x1ea5;" 
d="M733.28 797.6l-139.38 -172.6h-93.3896l127.77 172.6h105zM218.91 564.4h-104.7l152.25 172.6h93.4004l152.25 -172.6h-104.7l-94.25 115.41zM443.81 500l85.5303 -0.00195312v-500h-85.5303v63.5303c-52.4199 -54.0098 -113.96 -77.5293 -171.29 -77.5293
c-126.13 0 -216.06 115.43 -216.06 263.939c0 148.28 89.6396 264.12 216.109 264.061c57.4502 0 118.98 -23.6797 171.24 -77.4893v63.4902zM279.17 66.8184c51.0596 0 115.609 26.46 164.649 77.6104v211.17c-49.2803 51.46 -113.88 77.5898 -164.649 77.5898
c-83.6797 0 -133.359 -72.1104 -133.359 -183.19c0 -111.25 49.8496 -183.18 133.359 -183.18z" />
    <glyph glyph-name="acircumflexdotbelow" unicode="&#x1ead;" 
d="M218.91 564.4h-104.689l152.25 172.6h93.3896l152.25 -172.6h-104.7l-94.25 115.41zM529.331 500l0.0107422 -500.002h-85.5303v63.5303c-52.4199 -54.0098 -113.96 -77.5293 -171.29 -77.5293c-126.13 0 -216.06 115.43 -216.06 263.939
c0 148.28 89.6396 264.12 216.109 264.061c57.4502 0 118.98 -23.6797 171.24 -77.4893v63.4902h85.5195zM279.172 66.8184c51.0596 0 115.609 26.46 164.649 77.6104v211.17c-49.2803 51.46 -113.88 77.5898 -164.649 77.5898
c-83.6797 0 -133.359 -72.1104 -133.359 -183.19c0 -111.25 49.8496 -183.18 133.359 -183.18zM312.852 -72.7217c29.1299 0 52.7402 -23.6104 52.7402 -52.7402c0 -29.1201 -23.6104 -52.7305 -52.7402 -52.7305c-29.1201 0 -52.7305 23.6104 -52.7305 52.7305
c0 29.1299 23.6104 52.7402 52.7305 52.7402z" />
    <glyph glyph-name="acircumflexdotbelow.ss01" horiz-adv-x="586" 
d="M202.54 564.4h-104.689l152.25 172.6h93.3896l152.25 -172.6h-104.7l-94.25 115.41zM296.061 514c114 0 213.002 -51.999 213.002 -184.579v-329.42h-85.5801v65.1396c-55.6104 -53.7197 -128.261 -79.1396 -191.451 -79.1396c-97 0 -185 61 -185 175
c0 118 94 157 209 154c57.7002 -1.45996 115.92 -12.5195 167.439 -25.96v40.3799c0 72.6797 -48.5996 103.76 -127.42 103.76c-62.0801 0 -129.74 -18.9102 -177.62 -57.5205l-43.1104 66.6201c55.7803 45.21 138.75 71.7197 220.74 71.7197zM247.103 66.8105
c67.9102 0 127.611 26.3105 176.371 77.6602v72.4102c-51.9102 13.2598 -108.88 23.4697 -158.41 24.1494c-72.7002 1.00977 -128.681 -18.75 -128.681 -79.0898c0 -60.7598 32.9502 -95.1299 110.72 -95.1299zM300.573 -72.7285
c29.1201 0 52.7305 -23.6104 52.7305 -52.7402c0 -29.1201 -23.6104 -52.7305 -52.7305 -52.7305c-29.1299 0 -52.7402 23.6104 -52.7402 52.7305c0 29.1299 23.6104 52.7402 52.7402 52.7402z" />
    <glyph glyph-name="acircumflexgrave" unicode="&#x1ea7;" 
d="M634.72 625h-93.3896l-139.38 172.6h105zM218.91 564.4h-104.689l152.25 172.6h93.3896l152.25 -172.6h-104.7l-94.25 115.41zM443.811 500l85.5283 -0.00195312v-500h-85.5195v63.5303c-52.4297 -54.0098 -113.96 -77.5293 -171.3 -77.5293
c-126.13 0 -216.06 115.43 -216.06 263.939c0 148.28 89.6396 264.12 216.12 264.061c57.4404 0 118.971 -23.6797 171.23 -77.4893v63.4902zM279.179 66.8184c51.0498 0 115.61 26.46 164.641 77.6104v211.17c-49.2803 51.46 -113.87 77.5898 -164.64 77.5898
c-83.6904 0 -133.36 -72.1104 -133.36 -183.19c0 -111.25 49.8496 -183.18 133.359 -183.18z" />
    <glyph glyph-name="acircumflexhookabove" unicode="&#x1ea9;" 
d="M586.02 835.52c64.21 0 116.91 -19.1807 116.92 -99.6309c-0.00976562 -54.4697 -24.7197 -70.7295 -85.6396 -102.05c-22.8896 -11.4199 -33.29 -17.1797 -35.3203 -34.8799h-74.6201c1.79004 61.2803 42.4199 82.4102 77.8496 99.6904
c39.8301 19.4102 43.5303 30.29 43.4004 42.0098c-0.25 18.4697 -14.8203 25.9102 -43.3008 25.8105c-22.3799 -0.0800781 -49.9795 -5.98047 -70.1494 -12.29l-30.4697 61.2598c32.71 14.3301 67.25 20.0801 101.33 20.0801zM218.899 564.409h-104.689l152.25 172.6
h93.3896l152.25 -172.6h-104.7l-94.25 115.41zM443.8 500.009l85.5283 -0.00195312v-500h-85.5195v63.5303c-52.4297 -54.0098 -113.96 -77.5293 -171.3 -77.5293c-126.13 0 -216.06 115.43 -216.06 263.939c0 148.28 89.6396 264.12 216.12 264.061
c57.4404 0 118.971 -23.6797 171.23 -77.4893v63.4902zM279.168 66.8271c51.0498 0 115.61 26.46 164.641 77.6104v211.17c-49.2803 51.46 -113.87 77.5898 -164.64 77.5898c-83.6904 0 -133.36 -72.1104 -133.36 -183.19c0 -111.25 49.8496 -183.18 133.359 -183.18z" />
    <glyph glyph-name="acircumflextilde" unicode="&#x1eab;" 
d="M238.88 819.61c-20.5498 0.169922 -41.7197 -20.3594 -69.0898 -61.959l-55.5703 42.0596c25.71 36.7402 64.1299 100 128.09 100c37.9404 0 71.5908 -22.8896 96.4707 -40.8896c18.5596 -13.46 34.0293 -23.6396 48.4795 -23.2695
c20.0596 -0.370117 41.29 18.6797 69.3301 61.8193l55.54 -42.04c-39.5596 -57.1299 -67.6191 -98.1895 -126.689 -99.1299c-43.1299 0 -71.1895 21.7598 -96.1797 39.8193c-17.3604 12.3604 -34.7607 23.75 -50.3809 23.5898zM359.87 737.001l152.25 -172.6h-104.7
l-94.25 115.42l-94.25 -115.42h-104.7l152.25 172.6h93.4004zM529.34 500.001l0.0107422 -499.992h-85.5303v63.5303c-52.4199 -54.0098 -113.96 -77.5293 -171.29 -77.5293c-126.13 0 -216.06 115.43 -216.06 263.939c0 148.28 89.6396 264.11 216.109 264.051
c57.4502 0 118.98 -23.6797 171.24 -77.4893v63.4902h85.5195zM279.181 66.8184c51.0596 0 115.609 26.459 164.649 77.6191v211.17c-49.2803 51.4502 -113.88 77.5801 -164.649 77.5801c-83.6797 0 -133.359 -72.0996 -133.359 -183.18
c0 -111.26 49.8496 -183.189 133.359 -183.189z" />
    <glyph glyph-name="adieresis" unicode="&#xe4;" 
d="M206.72 584.26c-29.1201 0 -52.7305 23.6104 -52.7305 52.7402c0 29.1201 23.6104 52.7305 52.7305 52.7305c29.1299 0 52.7402 -23.6104 52.7402 -52.7305c0 -29.1299 -23.6104 -52.7402 -52.7402 -52.7402zM419.59 584.26
c-29.1201 0 -52.7305 23.6104 -52.7305 52.7402c0 29.1201 23.6104 52.7305 52.7305 52.7305c29.1299 0 52.7402 -23.6104 52.7402 -52.7305c0 -29.1299 -23.6104 -52.7402 -52.7402 -52.7402zM529.33 500l-0.00195312 -500.002h-85.5195v63.5303
c-52.4297 -54.0098 -113.96 -77.5293 -171.3 -77.5293c-126.13 0 -216.06 115.43 -216.06 263.939c0 148.28 89.6396 264.12 216.12 264.061c57.4404 0 118.971 -23.6797 171.23 -77.4893v63.4902h85.5303zM279.168 66.8184c51.0498 0 115.61 26.46 164.641 77.6104v211.17
c-49.2803 51.46 -113.87 77.5898 -164.64 77.5898c-83.6904 0 -133.36 -72.1104 -133.36 -183.19c0 -111.25 49.8496 -183.18 133.359 -183.18z" />
    <glyph glyph-name="adieresis.ss01" horiz-adv-x="586" 
d="M190.36 584.26c-29.1299 0 -52.7402 23.6104 -52.7402 52.7402c0 29.1201 23.6104 52.7305 52.7402 52.7305c29.1201 0 52.7305 -23.6104 52.7305 -52.7305c0 -29.1299 -23.6104 -52.7402 -52.7305 -52.7402zM403.23 584.26
c-29.1299 0 -52.7402 23.6104 -52.7402 52.7402c0 29.1201 23.6104 52.7305 52.7402 52.7305c29.1201 0 52.7305 -23.6104 52.7305 -52.7305c0 -29.1299 -23.6104 -52.7402 -52.7305 -52.7402zM296.051 514c114 0 213 -51.999 213 -184.579v-329.42h-85.5801v65.1396
c-55.5996 -53.7197 -128.25 -79.1396 -191.44 -79.1396c-97 0 -185 61 -185 175c0 118 94 157 209 154c57.6904 -1.45996 115.921 -12.5195 167.44 -25.96v40.3799c0 72.6797 -48.5996 103.76 -127.42 103.76c-62.0898 0 -129.74 -18.9102 -177.62 -57.5205
l-43.1104 66.6201c55.7803 45.21 138.75 71.7197 220.73 71.7197zM247.101 66.8105c67.9102 0 127.601 26.3105 176.37 77.6602v72.4102c-51.9102 13.2598 -108.891 23.4697 -158.41 24.1494c-72.7002 1.00977 -128.681 -18.75 -128.681 -79.0898
c0 -60.7598 32.9404 -95.1299 110.721 -95.1299z" />
    <glyph glyph-name="adotbelow" unicode="&#x1ea1;" 
d="M529.33 500l-0.00195312 -500.002h-85.5195v63.5303c-52.4297 -54.0098 -113.96 -77.5293 -171.3 -77.5293c-126.13 0 -216.06 115.43 -216.06 263.939c0 148.28 89.6396 264.12 216.12 264.061c57.4404 0 118.971 -23.6797 171.23 -77.4893v63.4902h85.5303z
M279.168 66.8184c51.0498 0 115.61 26.46 164.641 77.6104v211.17c-49.2803 51.46 -113.87 77.5898 -164.64 77.5898c-83.6904 0 -133.36 -72.1104 -133.36 -183.19c0 -111.25 49.8496 -183.18 133.359 -183.18zM312.849 -72.7217
c29.1201 0 52.7305 -23.6104 52.7305 -52.7402c0 -29.1201 -23.6104 -52.7305 -52.7305 -52.7305c-29.1299 0 -52.7402 23.6104 -52.7402 52.7305c0 29.1299 23.6104 52.7402 52.7402 52.7402z" />
    <glyph glyph-name="adotbelow.ss01" horiz-adv-x="586" 
d="M296.06 514c114 0 213.002 -51.999 213.002 -184.579v-329.42h-85.5801v65.1396c-55.6104 -53.7197 -128.261 -79.1396 -191.451 -79.1396c-97 0 -185 61 -185 175c0 118 94 157 209 154c57.7002 -1.45996 115.92 -12.5195 167.439 -25.96v40.3799
c0 72.6797 -48.5996 103.76 -127.42 103.76c-62.0801 0 -129.74 -18.9102 -177.62 -57.5205l-43.1104 66.6201c55.7803 45.21 138.75 71.7197 220.74 71.7197zM247.102 66.8105c67.9102 0 127.611 26.3105 176.371 77.6602v72.4102
c-51.9102 13.2598 -108.88 23.4697 -158.41 24.1494c-72.7002 1.00977 -128.681 -18.75 -128.681 -79.0898c0 -60.7598 32.9502 -95.1299 110.72 -95.1299zM300.572 -72.7285c29.1201 0 52.7305 -23.6104 52.7305 -52.7402c0 -29.1201 -23.6104 -52.7305 -52.7305 -52.7305
c-29.1299 0 -52.7402 23.6104 -52.7402 52.7305c0 29.1299 23.6104 52.7402 52.7402 52.7402z" />
    <glyph glyph-name="agrave" unicode="&#xe0;" 
d="M266.77 564.4l-139.38 172.6h105l127.77 -172.6h-93.3896zM529.33 500l-0.00195312 -500.002h-85.5195v63.5303c-52.4297 -54.0098 -113.96 -77.5293 -171.3 -77.5293c-126.13 0 -216.06 115.43 -216.06 263.939c0 148.28 89.6396 264.12 216.12 264.061
c57.4404 0 118.971 -23.6797 171.23 -77.4893v63.4902h85.5303zM279.168 66.8184c51.0498 0 115.61 26.46 164.641 77.6104v211.17c-49.2803 51.46 -113.87 77.5898 -164.64 77.5898c-83.6904 0 -133.36 -72.1104 -133.36 -183.19
c0 -111.25 49.8496 -183.18 133.359 -183.18z" />
    <glyph glyph-name="agrave.ss01" horiz-adv-x="586" 
d="M250.4 564.4l-139.38 172.6h105l127.78 -172.6h-93.4004zM296.061 514c114 0 213.002 -51.999 213.002 -184.579v-329.42h-85.5801v65.1396c-55.6104 -53.7197 -128.261 -79.1396 -191.451 -79.1396c-97 0 -185 61 -185 175c0 118 94 157 209 154
c57.7002 -1.45996 115.92 -12.5195 167.439 -25.96v40.3799c0 72.6797 -48.5996 103.76 -127.42 103.76c-62.0801 0 -129.74 -18.9102 -177.62 -57.5205l-43.1104 66.6201c55.7803 45.21 138.75 71.7197 220.74 71.7197zM247.103 66.8105
c67.9102 0 127.611 26.3105 176.371 77.6602v72.4102c-51.9102 13.2598 -108.88 23.4697 -158.41 24.1494c-72.7002 1.00977 -128.681 -18.75 -128.681 -79.0898c0 -60.7598 32.9502 -95.1299 110.72 -95.1299z" />
    <glyph glyph-name="ahookabove" unicode="&#x1ea3;" 
d="M336.44 749.13c-22.3799 -0.0703125 -49.9814 -5.95996 -70.1514 -12.2803l-30.4697 61.2598c32.71 14.3301 67.25 20.0801 101.33 20.0801c64.2197 0 116.91 -19.1797 116.93 -99.6396c-0.0195312 -54.46 -24.7197 -70.7295 -85.6396 -102.05
c-22.8896 -11.4102 -33.2998 -17.1699 -35.3193 -34.8701h-74.6299c1.79004 61.2695 42.4297 82.3994 77.8496 99.6797c39.8301 19.4102 43.54 30.29 43.4004 42.0205c-0.25 18.4697 -14.8096 25.9102 -43.2998 25.7998zM529.318 500.011l0.0107422 -500.002h-85.5303
v63.5303c-52.4199 -54.0098 -113.96 -77.5293 -171.29 -77.5293c-126.13 0 -216.06 115.43 -216.06 263.939c0 148.28 89.6396 264.12 216.109 264.061c57.4502 0 118.98 -23.6797 171.24 -77.4893v63.4902h85.5195zM279.159 66.8291
c51.0596 0 115.609 26.46 164.649 77.6104v211.17c-49.2803 51.46 -113.88 77.5898 -164.649 77.5898c-83.6797 0 -133.359 -72.1104 -133.359 -183.19c0 -111.25 49.8496 -183.18 133.359 -183.18z" />
    <glyph glyph-name="amacron" unicode="&#x101;" 
d="M477.02 589.12h-327.73v81.75h327.73v-81.75zM529.319 500l0.0107422 -500.002h-85.5303v63.5303c-52.4199 -54.0098 -113.96 -77.5293 -171.29 -77.5293c-126.13 0 -216.06 115.43 -216.06 263.939c0 148.28 89.6396 264.12 216.109 264.061
c57.4502 0 118.98 -23.6797 171.24 -77.4893v63.4902h85.5195zM279.16 66.8184c51.0596 0 115.609 26.46 164.649 77.6104v211.17c-49.2803 51.46 -113.88 77.5898 -164.649 77.5898c-83.6797 0 -133.359 -72.1104 -133.359 -183.19
c0 -111.25 49.8496 -183.18 133.359 -183.18z" />
    <glyph glyph-name="amacron.ss01" horiz-adv-x="586" 
d="M460.66 589.12h-327.73v81.75h327.73v-81.75zM296.05 514c114 0 213 -51.999 213 -184.579v-329.42h-85.5801v65.1396c-55.5996 -53.7197 -128.25 -79.1396 -191.44 -79.1396c-97 0 -185 61 -185 175c0 118 94 157 209 154
c57.6904 -1.45996 115.921 -12.5195 167.44 -25.96v40.3799c0 72.6797 -48.5996 103.76 -127.42 103.76c-62.0898 0 -129.74 -18.9102 -177.62 -57.5205l-43.1104 66.6201c55.7803 45.21 138.75 71.7197 220.73 71.7197zM247.1 66.8105
c67.9102 0 127.601 26.3105 176.37 77.6602v72.4102c-51.9102 13.2598 -108.891 23.4697 -158.41 24.1494c-72.7002 1.00977 -128.681 -18.75 -128.681 -79.0898c0 -60.7598 32.9404 -95.1299 110.721 -95.1299z" />
    <glyph glyph-name="aogonek" unicode="&#x105;" 
d="M565.91 -134.41l20.6709 -56.7695c-27.21 -18.1904 -66.0195 -27.1904 -99.6699 -27.4209c-63.6104 0.230469 -123.44 33.9404 -123.91 97.5107c0.419922 49.0801 35.8799 90.5498 80.8301 121.35v63.2002c-52.4297 -54 -113.96 -77.5195 -171.3 -77.5195
c-126.13 0 -216.06 115.43 -216.06 263.939c0 148.28 89.6396 264.12 216.12 264.12c57.4404 0 118.971 -23.6797 171.23 -77.4893v63.4902h85.5195v-500h-19.46c-31.2695 -22.4902 -62.71 -53.3398 -62.9902 -94.5801c0.330078 -37.6104 27.5996 -52.2705 63.3896 -52.001
c15.8896 -0.269531 37.6094 3.07031 55.6289 12.1699zM279.181 66.7402c51.0596 0 115.61 26.46 164.65 77.6201v211.17c-49.2803 51.46 -113.88 77.5898 -164.649 77.5898c-83.6904 0 -133.36 -72.1104 -133.36 -183.19c0 -111.26 49.8496 -183.189 133.359 -183.189z" />
    <glyph glyph-name="aogonek.ss01" horiz-adv-x="586" 
d="M550.43 -130.43l20.6426 -56.71c-27.21 -18.1904 -66.0195 -27.1904 -99.6699 -27.4209c-63.6104 0.230469 -123.44 33.9404 -123.9 97.5107c0.400391 47.2998 33.3506 87.5303 75.9707 117.96v64.2305c-55.6104 -53.7305 -128.261 -79.1504 -191.451 -79.1504
c-97 0 -185 61 -185 175c0 118 94 157 209 154c57.7002 -1.45996 115.92 -12.5195 167.439 -25.9492v40.3701c0 72.6904 -48.5996 103.771 -127.42 103.771c-62.0801 0 -129.74 -18.9102 -177.62 -57.5205l-43.1104 66.6104c55.7803 45.21 138.75 71.7197 220.74 71.7197
c114 0 213 -52 213 -184.58v-329.42h-20.0801c-29.4004 -22.1104 -57.3105 -51.7402 -57.5703 -90.5898c0.330078 -37.6104 27.5996 -52.2705 63.3896 -52.001c15.9004 -0.269531 37.6201 3.07031 55.6396 12.1699zM247.092 66.8008
c67.9102 0 127.611 26.3105 176.371 77.6602v72.4102c-51.9102 13.2598 -108.88 23.4697 -158.41 24.1494c-72.7002 1.00977 -128.681 -18.75 -128.681 -79.0898c0 -60.7598 32.9502 -95.1299 110.72 -95.1299z" />
    <glyph glyph-name="aring" unicode="&#xe5;" 
d="M313.16 540.58c-79.7803 0 -132.44 57.0596 -132.44 127.649c0 71.0801 52.6602 128.14 132.44 127.649c80.3096 0 132.439 -57.0498 132.439 -127.649c0 -70.5898 -52.1299 -127.649 -132.439 -127.649zM312.66 735.46
c-34.6602 0.200195 -61.7002 -25.7109 -61.7002 -67.2207c0 -41.04 26.6602 -67.2197 62.2002 -67.2197c35.8496 0 62.1895 26.0195 62.1895 67.2197c0 41.1904 -26.3398 67.2207 -62.6895 67.2207zM529.32 499.999l0.0107422 -499.992h-85.5303v63.5303
c-52.4199 -54.0098 -113.96 -77.5293 -171.29 -77.5293c-126.13 0 -216.06 115.43 -216.06 263.939c0 148.28 89.6396 264.11 216.109 264.051c57.4502 0 118.98 -23.6797 171.24 -77.4893v63.4902h85.5195zM279.161 66.8164c51.0596 0 115.609 26.459 164.649 77.6191
v211.17c-49.2803 51.4502 -113.88 77.5801 -164.649 77.5801c-83.6797 0 -133.359 -72.0996 -133.359 -183.18c0 -111.26 49.8496 -183.189 133.359 -183.189z" />
    <glyph glyph-name="aring.ss01" horiz-adv-x="586" 
d="M296.79 540.58c-79.7803 0 -132.431 57.0596 -132.431 127.649c0 71.0801 52.6504 128.14 132.431 127.649c80.3203 0 132.44 -57.0498 132.44 -127.649c0 -70.5898 -52.1201 -127.649 -132.44 -127.649zM296.3 735.46
c-34.6699 0.200195 -61.7002 -25.7109 -61.7002 -67.2207c0 -41.04 26.6602 -67.2197 62.1904 -67.2197c35.8496 0 62.1992 26.0195 62.1992 67.2197c0 41.1904 -26.3496 67.2207 -62.6895 67.2207zM296.05 514.009c114 0 213 -51.999 213 -184.579v-329.42h-85.5801
v65.1396c-55.5996 -53.7197 -128.25 -79.1396 -191.44 -79.1396c-97 0 -185 61 -185 175c0 118 94 157 209 154c57.6904 -1.45996 115.921 -12.5195 167.44 -25.96v40.3799c0 72.6797 -48.5996 103.76 -127.42 103.76c-62.0898 0 -129.74 -18.9102 -177.62 -57.5205
l-43.1104 66.6201c55.7803 45.21 138.75 71.7197 220.73 71.7197zM247.1 66.8193c67.9102 0 127.601 26.3105 176.37 77.6602v72.4102c-51.9102 13.2598 -108.891 23.4697 -158.41 24.1494c-72.7002 1.00977 -128.681 -18.75 -128.681 -79.0898
c0 -60.7598 32.9404 -95.1299 110.721 -95.1299z" />
    <glyph glyph-name="atilde" unicode="&#xe3;" 
d="M238.88 640.22c-20.5596 0.160156 -41.7197 -20.3506 -69.0996 -61.9502l-55.5703 42.0498c25.7197 36.75 64.1396 100 128.09 100c37.9502 0 71.6006 -22.8799 96.4805 -40.8799c18.5596 -13.4697 34.0293 -23.6396 48.4795 -23.2695
c20.0596 -0.370117 41.29 18.6699 69.3301 61.8096l55.54 -42.0303c-39.5596 -57.1396 -67.6191 -98.1992 -126.689 -99.1396c-43.1299 0 -71.1895 21.7695 -96.1797 39.8193c-17.3604 12.3604 -34.7607 23.7607 -50.3809 23.5908zM529.33 499.998l0.0107422 -499.992
h-85.5303v63.5303c-52.4199 -54.0098 -113.96 -77.5293 -171.29 -77.5293c-126.13 0 -216.06 115.43 -216.06 263.939c0 148.28 89.6396 264.11 216.109 264.051c57.4502 0 118.98 -23.6797 171.24 -77.4893v63.4902h85.5195zM279.171 66.8154
c51.0596 0 115.609 26.459 164.649 77.6191v211.17c-49.2803 51.4502 -113.88 77.5801 -164.649 77.5801c-83.6797 0 -133.359 -72.0996 -133.359 -183.18c0 -111.26 49.8496 -183.189 133.359 -183.189z" />
    <glyph glyph-name="atilde.ss01" horiz-adv-x="586" 
d="M222.52 640.22c-20.5498 0.169922 -41.7305 -20.3594 -69.1006 -61.959l-55.5703 42.0596c25.71 36.7402 64.1299 100 128.09 100c37.9404 0 71.5908 -22.8896 96.4805 -40.8896c18.5596 -13.46 34.0195 -23.6396 48.4697 -23.2695
c20.0596 -0.370117 41.2998 18.6797 69.3398 61.8193l55.5303 -42.04c-39.5498 -57.1299 -67.6094 -98.1895 -126.68 -99.1299c-43.1299 0 -71.1895 21.7598 -96.1797 39.8193c-17.3701 12.3604 -34.7598 23.75 -50.3799 23.5898zM296.059 514.001
c114 0 213 -52.001 213 -184.581v-329.42h-85.5801v65.1504c-55.5996 -53.7305 -128.25 -79.1504 -191.44 -79.1504c-97 0 -185 61 -185 175c0 118 94 157 209 154c57.6904 -1.45996 115.921 -12.5195 167.44 -25.9492v40.3701c0 72.6904 -48.5996 103.771 -127.42 103.771
c-62.0898 0 -129.74 -18.9102 -177.62 -57.5205l-43.1104 66.6104c55.7803 45.21 138.75 71.7197 220.73 71.7197zM247.108 66.8096c67.9102 0 127.601 26.3105 176.37 77.6602v72.4102c-51.9102 13.2695 -108.891 23.4795 -158.41 24.1494
c-72.7002 1.01953 -128.681 -18.7402 -128.681 -79.0898c0 -60.7598 32.9404 -95.1299 110.721 -95.1299z" />
    <glyph glyph-name="ae" unicode="&#xe6;" horiz-adv-x="935" 
d="M275 514c64.5195 0 136.281 -28.1191 195.801 -81.6787c42.3701 50.7998 104.49 82.1895 179.88 81.6699c156.24 0 232.36 -117.53 232.66 -263.12c0 -7.26953 -0.240234 -14.4697 -0.709961 -21.5898l-383.41 0.0195312
c0.44043 -5.46973 1.05078 -10.8398 1.83105 -16.0996c12.0098 -87.0703 68.6699 -146.391 152.229 -146.391c53.3301 0 107.93 15.3496 163.58 46.0596l22.1699 -58.5303c-58.4102 -45.0596 -127.641 -68.3398 -188.36 -68.3398c-75.1699 0 -137.15 31.46 -179.521 82
c-59.5898 -53.7803 -131.5 -82 -196.15 -82c-133 0 -220 117 -220 264s87 264 220 264zM653.271 433.182c-80.8799 0.0498047 -135.62 -53.46 -150.55 -133.49h291.06c-11.8096 80.5098 -55.8096 133.49 -140.51 133.49zM279.711 433.182
c-85.3701 0 -135.37 -71.3809 -135.37 -183.181s50 -183.189 134.42 -183.189c46.1904 0 105.71 21.4102 154.9 62.8604c-16.0098 35.9199 -24.6602 76.8604 -24.6602 120.33c0 43.7695 8.66016 84.9395 24.6699 120.979c-47.54 39.5303 -106.19 62.2002 -153.96 62.2002z
" />
    <glyph glyph-name="ae.ss01" horiz-adv-x="950" 
d="M898.19 250.96c0.00976562 -7.2998 -0.24707 -14.5498 -0.716797 -21.6895l-383.41 0.0195312c0.259766 -3.24023 0.569336 -6.4502 0.939453 -9.62012c10.1299 -90.6396 67.5098 -152.87 153.12 -152.87c53.46 0 108.2 15.4199 163.99 46.2803l21.7695 -58.7402
c-58.4004 -45.0596 -127.641 -68.3496 -188.351 -68.3496c-62.5195 0 -115.899 21.7598 -156.47 58.1396v-44.1396h-85.5801v65.1504c-55.6104 -53.7305 -128.261 -79.1504 -191.451 -79.1504c-97 0 -185 61 -185 175c0 118 94 157 209 154
c57.7002 -1.45996 115.92 -12.5195 167.439 -25.9492v40.3701c0 72.6904 -48.5996 103.771 -127.42 103.771c-62.0801 0 -129.74 -18.9102 -177.62 -57.5205l-43.1104 66.6104c55.7803 45.21 138.75 71.7197 220.74 71.7197c78.9697 0 150.739 -24.9502 187.39 -84.3506
c42.4102 52.3701 105.38 84.8799 182.08 84.3496c156.21 0 232.33 -117.48 232.66 -263.03zM517.574 299.681l291.05 -0.000976562c-11.8096 80.5098 -55.8096 133.49 -140.5 133.49c-80.8799 0.0498047 -135.63 -53.4697 -150.55 -133.489zM247.094 66.7998
c67.9102 0 127.601 26.3105 176.37 77.6602v72.4102c-51.9102 13.2598 -108.891 23.4697 -158.41 24.1494c-72.7002 1.00977 -128.681 -18.75 -128.681 -79.0898c0 -60.7598 32.9404 -95.1299 110.721 -95.1299z" />
    <glyph glyph-name="b" unicode="b" horiz-adv-x="618" 
d="M339.45 514c127.42 0.0595703 216.109 -115.79 216.55 -264.01c-0.44043 -148.34 -89.25 -264 -216.5 -264c-61.79 0 -122.03 26.9102 -172.24 78.9805v-64.9805h-85.5195v700h85.5195v-264.94c50.21 52.0303 110.4 78.9502 172.19 78.9502zM332.85 66.8008
c84.3398 0 134.301 74.6406 134.301 183.19c0 108.25 -49.6699 183.18 -134.3 183.18c-49.4404 0 -113.891 -24.8398 -165.591 -79.0703v-208.2c51.6201 -54.1396 116.09 -79.0996 165.59 -79.0996z" />
    <glyph glyph-name="c" unicode="c" horiz-adv-x="560" 
d="M310.37 514c61.2002 0 130.071 -23.3496 188.521 -68.5195l-21.3896 -58.75c-56.3701 30.9697 -113.21 46.4395 -166.79 46.4395c-99.4404 0.0595703 -160.591 -73.5908 -159.621 -183.181c0 -107.01 60.1396 -183.189 163.3 -183.189
c47.0596 0 107.21 15.4902 162.85 46.29l21.6396 -58.9102c-56.3096 -43.25 -123.229 -68.1797 -190.14 -68.1797c-147 0 -247 118 -247 264c0 151 101 264.98 248.63 264z" />
    <glyph glyph-name="cacute" unicode="&#x107;" horiz-adv-x="560" 
d="M342.23 563.7h-93.3896l127.77 172.6h105zM310.371 514c61.2002 0 130.072 -23.3496 188.532 -68.5195l-21.4004 -58.75c-56.3701 30.9697 -113.2 46.4395 -166.78 46.4395c-99.4404 0.0595703 -160.591 -73.5908 -159.631 -183.181
c0 -107.01 60.1396 -183.189 163.3 -183.189c47.0703 0 107.21 15.4902 162.86 46.29l21.6396 -58.9102c-56.3203 -43.25 -123.23 -68.1797 -190.15 -68.1797c-147 0 -247 118 -247 264c0 151 101 264.98 248.63 264z" />
    <glyph glyph-name="ccaron" unicode="&#x10d;" horiz-adv-x="560" 
d="M251.95 564.4l-152.261 172.6h104.7l94.25 -115.42l94.25 115.42h104.7l-152.25 -172.6h-93.3896zM314.39 66.8096c47.0703 0 107.201 15.4805 162.852 46.2803l21.6396 -58.9102c-56.3203 -43.25 -123.23 -68.1797 -190.15 -68.1797c-147 0 -247 118 -247 264
c0 151 101 264.98 248.63 264c61.2002 0 130.08 -23.3398 188.53 -68.5098l-21.3896 -58.75c-56.3701 30.9697 -113.21 46.4395 -166.79 46.4395c-99.4404 0.0595703 -160.591 -73.5908 -159.621 -183.181c0 -107.01 60.1396 -183.189 163.3 -183.189z" />
    <glyph glyph-name="ccedilla" unicode="&#xe7;" horiz-adv-x="560" 
d="M477.24 113.1l21.6309 -58.9316c-54.5498 -41.8896 -119.04 -66.5996 -183.85 -68.1094l-8.9502 -29.6602c2.74023 -0.139648 5.45996 -0.349609 8.16016 -0.619141c59.9102 -6.98047 100.66 -43.0605 100.33 -96.7207c0.370117 -60.04 -51.8994 -106.03 -132.76 -107.07
c-43.1504 -1.0498 -102.4 11.1104 -136.261 28.46l25.3896 55.2695c31.2695 -12.54 71.1191 -19.0898 102.159 -19.3896c41.2305 0.339844 56.1504 15.7402 56.5 41.8906c-0.349609 24.7305 -13.6895 40.5 -44.4492 40.2402
c-12.54 0.320312 -40.5898 -4.66016 -54.3594 -10.3799l-17.2002 35.5996l33.3203 69.7305c-112.5 28.0195 -185.17 132.13 -185.17 256.58c0 151 101 264.99 248.63 264c61.2002 0 130.08 -23.3398 188.53 -68.5l-21.3896 -58.75
c-56.3701 30.9697 -113.21 46.4395 -166.79 46.4395c-99.4404 0.0498047 -160.591 -73.5898 -159.621 -183.189c0 -107 60.1396 -183.18 163.3 -183.18c47.0596 0 107.21 15.4805 162.85 46.29z" />
    <glyph glyph-name="cdotaccent" unicode="&#x10b;" horiz-adv-x="560" 
d="M298.63 689.73c29.1201 0 52.7305 -23.6104 52.7305 -52.7402c0 -29.1201 -23.6104 -52.7305 -52.7305 -52.7305c-29.1299 0 -52.7402 23.6104 -52.7402 52.7305c0 29.1299 23.6104 52.7402 52.7402 52.7402zM310.37 514c61.2002 0 130.072 -23.3496 188.532 -68.5195
l-21.4004 -58.75c-56.3701 30.9697 -113.2 46.4395 -166.78 46.4395c-99.4404 0.0595703 -160.591 -73.5908 -159.631 -183.181c0 -107.01 60.1396 -183.189 163.3 -183.189c47.0703 0 107.21 15.4902 162.86 46.29l21.6396 -58.9102
c-56.3203 -43.25 -123.23 -68.1797 -190.15 -68.1797c-147 0 -247 118 -247 264c0 151 101 264.98 248.63 264z" />
    <glyph glyph-name="d" unicode="d" horiz-adv-x="617" 
d="M535.42 699.99v-700h-85.5195v64.9697c-52.7305 -55.0303 -114.841 -78.96 -172.681 -78.96c-126.18 0 -216 115.43 -216.06 264c0.0595703 148.29 88.4893 264.94 220.47 264c55.2598 -0.00976562 118.49 -26.8398 168.271 -78.9199v264.91h85.5195zM284.81 66.8105
c50.6104 0 115.89 26.959 165.09 79.0693v208.23c-49.71 52.2695 -112.729 79.0596 -167.92 79.0693c-81.3096 0 -132.35 -74.8799 -131.47 -183.189c-0.879883 -108.72 49.0801 -183.18 134.3 -183.18z" />
    <glyph glyph-name="eth" unicode="&#xf0;" horiz-adv-x="651" 
d="M566.04 659.7l-81.6699 -43.1484c62.6797 -73.0303 97.9893 -178.23 96.0195 -303.801c-3.12012 -176.74 -77.9102 -326.74 -260.41 -326.74c-149.58 0 -259.28 101.55 -259.261 258.33c-0.0195312 133.92 79.7607 235.46 243.221 235.71
c73.4502 0 130.86 -25.75 180.46 -75.5303c-11.6904 71.5 -39.21 129.35 -78.4297 170.55l-127.61 -67.4697l-39.75 71.3701l92.1504 48.7197c-29.1104 12.4902 -61.29 18.9805 -95.7705 18.9102c-50.7197 0.269531 -98.3301 -9.83008 -140.41 -27.1396l-31.0898 66.6797
c50.4404 26.6396 105.921 41.6797 171.331 41.3301c70.1104 0.139648 132.49 -18.6807 184.3 -53.0605l107.17 56.6602zM490.99 314.021c0.0595703 3.90039 0.0898438 7.78027 0.0703125 11.6201c-57.5703 48.9199 -122.29 73.3604 -189.84 73.5605
c-101.79 -0.25 -151.11 -57.1104 -151.091 -153.801c-0.0195312 -114.04 68.7705 -178.51 167.03 -178.51c118.7 0 170.71 93.9102 173.83 247.13z" />
    <glyph glyph-name="dcaron" unicode="&#x10f;" horiz-adv-x="617" 
d="M726.66 668.9c7.87988 -47.3301 -28.1191 -115.649 -74.8496 -151.63l-30.9297 19.75c23.4199 23.1396 39.6201 49.8496 46.4199 87.8799c-17.4199 4.90039 -33.0303 21.3301 -33.0107 43.8496c-0.0195312 25.1797 20.3008 45.5498 45.5703 45.25
c23.3096 0.299805 42.0996 -16.8799 46.7998 -45.0996zM449.911 699.991h85.5195v-700h-85.5195v64.9697c-52.7305 -55.0303 -114.841 -78.96 -172.681 -78.96c-126.18 0 -216 115.43 -216.06 264c0.0595703 148.29 88.4893 264.94 220.47 264
c55.2598 -0.00976562 118.49 -26.8398 168.271 -78.9199v264.91zM284.82 66.8115c50.6104 0 115.89 26.959 165.09 79.0693v208.23c-49.71 52.2695 -112.729 79.0596 -167.92 79.0693c-81.3096 0 -132.35 -74.8799 -131.47 -183.189
c-0.879883 -108.72 49.0801 -183.18 134.3 -183.18z" />
    <glyph glyph-name="dcroat" unicode="&#x111;" horiz-adv-x="617" 
d="M640.56 555.93h-105.14v-555.93h-85.5195v64.96c-52.7305 -55.0195 -114.841 -78.96 -172.681 -78.96c-126.18 0 -216 115.43 -216.06 264c0.0595703 148.29 88.4893 264.95 220.47 264c55.2598 0 118.49 -26.8301 168.271 -78.9199v120.85h-137.07v70.4004h137.07
v73.6699h85.5195v-73.6699h105.14v-70.4004zM284.81 66.8096c50.6104 0 115.89 26.96 165.09 79.0703v208.23c-49.71 52.2695 -112.729 79.0693 -167.92 79.0693c-81.3096 0.00976562 -132.35 -74.8701 -131.47 -183.19c-0.879883 -108.71 49.0801 -183.18 134.3 -183.18z
" />
    <glyph glyph-name="e" unicode="e" horiz-adv-x="588" 
d="M303.42 514c156.21 0 232.321 -117.499 232.642 -263.049c0.00976562 -7.2998 -0.230469 -14.5303 -0.700195 -21.6807l-383.41 0.0195312c0.259766 -3.24023 0.569336 -6.44043 0.939453 -9.61035c10.1299 -90.6504 67.5098 -152.87 153.12 -152.87
c53.46 0 108.2 15.4199 163.99 46.2803l21.7695 -58.75c-58.4004 -45.0596 -127.641 -68.3398 -188.351 -68.3398c-145.59 0 -241.68 118 -241.68 264c0 147 96.0898 265 241.68 264zM306.011 433.172c-80.8799 0.0498047 -135.63 -53.46 -150.55 -133.49h291.05
c-11.8096 80.5098 -55.8096 133.49 -140.5 133.49z" />
    <glyph glyph-name="eacute" unicode="&#xe9;" horiz-adv-x="588" 
d="M346.35 563.7h-93.4004l127.78 172.6h105zM303.419 514c156.21 0 232.322 -117.499 232.652 -263.049c0 -7.2998 -0.230469 -14.5303 -0.710938 -21.6807l-383.4 0.0195312c0.25 -3.24023 0.55957 -6.44043 0.929688 -9.61035
c10.1396 -90.6504 67.5098 -152.87 153.13 -152.87c53.46 0 108.19 15.4199 163.99 46.2803l21.7695 -58.75c-58.4102 -45.0596 -127.641 -68.3398 -188.36 -68.3398c-145.59 0 -241.68 118 -241.68 264c0 147 96.0898 265 241.68 264zM306.011 433.172
c-80.8701 0.0498047 -135.62 -53.46 -150.55 -133.49h291.06c-11.8096 80.5098 -55.8096 133.49 -140.51 133.49z" />
    <glyph glyph-name="ecaron" unicode="&#x11b;" horiz-adv-x="588" 
d="M256.06 564.4l-152.25 172.6h104.7l94.25 -115.42l94.25 115.42h104.7l-152.25 -172.6h-93.4004zM536.069 250.96c0 -7.2998 -0.238281 -14.5391 -0.71875 -21.6895l-383.4 0.0195312c0.25 -3.24023 0.55957 -6.44043 0.929688 -9.61035
c10.1396 -90.6504 67.5098 -152.87 153.13 -152.87c53.46 0 108.19 15.4199 163.99 46.2803l21.7695 -58.75c-58.4102 -45.0596 -127.641 -68.3398 -188.36 -68.3398c-145.59 0 -241.68 118 -241.68 264c0 147 96.0898 265 241.68 264
c156.21 0 232.33 -117.49 232.66 -263.04zM155.451 299.682l291.06 0.0107422c-11.8096 80.5098 -55.8096 133.479 -140.51 133.479c-80.8701 0.0498047 -135.62 -53.46 -150.55 -133.49z" />
    <glyph glyph-name="ecircumflex" unicode="&#xea;" horiz-adv-x="588" 
d="M208.49 564.4h-104.689l152.25 172.6h93.3896l152.25 -172.6h-104.7l-94.25 115.41zM536.081 250.96c0.00976562 -7.2998 -0.239258 -14.5498 -0.708984 -21.6895l-383.41 0.0195312c0.259766 -3.24023 0.569336 -6.4502 0.939453 -9.62012
c10.1299 -90.6396 67.5098 -152.87 153.12 -152.87c53.46 0 108.2 15.4199 163.99 46.2803l21.7695 -58.7402c-58.4004 -45.0596 -127.641 -68.3496 -188.351 -68.3496c-145.59 0 -241.68 118 -241.68 264c0 147 96.0898 265 241.68 264
c156.21 0 232.33 -117.48 232.65 -263.03zM155.473 299.681l291.05 -0.000976562c-11.8096 80.5098 -55.8096 133.49 -140.5 133.49c-80.8799 0.0498047 -135.63 -53.4697 -150.55 -133.489z" />
    <glyph glyph-name="ecircumflexacute" unicode="&#x1ebf;" horiz-adv-x="588" 
d="M722.87 797.59l-139.38 -172.6h-93.4004l127.78 172.6h105zM208.49 564.391h-104.689l152.25 172.6h93.3896l152.25 -172.6h-104.7l-94.25 115.42zM303.421 513.99c156.21 0 232.322 -117.5 232.652 -263.05c0 -7.2998 -0.230469 -14.5303 -0.710938 -21.6699
l-383.4 0.0195312c0.25 -3.24023 0.55957 -6.4502 0.929688 -9.62012c10.1396 -90.6396 67.5098 -152.87 153.13 -152.87c53.46 0 108.19 15.4199 163.99 46.2803l21.7695 -58.7402c-58.4102 -45.0596 -127.641 -68.3496 -188.36 -68.3496
c-145.59 0 -241.68 118 -241.68 264c0 147 96.0898 265 241.68 264zM155.463 299.681l291.06 -0.000976562c-11.8096 80.5098 -55.8096 133.49 -140.51 133.49c-80.8701 0.0498047 -135.62 -53.4697 -150.55 -133.489z" />
    <glyph glyph-name="ecircumflexdotbelow" unicode="&#x1ec7;" horiz-adv-x="588" 
d="M208.49 564.4h-104.689l152.25 172.6h93.3896l152.25 -172.6h-104.7l-94.25 115.41zM536.081 250.96c0.00976562 -7.2998 -0.239258 -14.5498 -0.708984 -21.6895l-383.41 0.0195312c0.259766 -3.24023 0.569336 -6.4502 0.939453 -9.62012
c10.1299 -90.6396 67.5098 -152.87 153.12 -152.87c53.46 0 108.2 15.4199 163.99 46.2803l21.7695 -58.7402c-58.4004 -45.0596 -127.641 -68.3496 -188.351 -68.3496c-145.59 0 -241.68 118 -241.68 264c0 147 96.0898 265 241.68 264
c156.21 0 232.33 -117.48 232.65 -263.03zM155.473 299.681l291.05 -0.000976562c-11.8096 80.5098 -55.8096 133.49 -140.5 133.49c-80.8799 0.0498047 -135.63 -53.4697 -150.55 -133.489zM303.452 -72.7402c29.1299 0 52.7402 -23.6104 52.7402 -52.7402
c0 -29.1201 -23.6104 -52.7305 -52.7402 -52.7305c-29.1201 0 -52.7305 23.6104 -52.7305 52.7305c0 29.1299 23.6104 52.7402 52.7305 52.7402z" />
    <glyph glyph-name="ecircumflexgrave" unicode="&#x1ec1;" horiz-adv-x="588" 
d="M530.91 625l-139.38 172.6h105l127.77 -172.6h-93.3896zM208.49 564.399h-104.689l152.25 172.6h93.3896l152.25 -172.6h-104.7l-94.25 115.42zM303.421 513.999c156.21 0 232.322 -117.5 232.652 -263.05c0 -7.2998 -0.230469 -14.5303 -0.710938 -21.6699
l-383.4 0.0195312c0.25 -3.24023 0.55957 -6.4502 0.929688 -9.62012c10.1396 -90.6396 67.5098 -152.87 153.13 -152.87c53.46 0 108.19 15.4199 163.99 46.2803l21.7695 -58.7402c-58.4102 -45.0596 -127.641 -68.3496 -188.36 -68.3496
c-145.59 0 -241.68 118 -241.68 264c0 147 96.0898 265 241.68 264zM155.463 299.689l291.06 -0.000976562c-11.8096 80.5098 -55.8096 133.49 -140.51 133.49c-80.8701 0.0498047 -135.62 -53.4697 -150.55 -133.489z" />
    <glyph glyph-name="ecircumflexhookabove" unicode="&#x1ec3;" horiz-adv-x="588" 
d="M575.61 835.52c64.2197 0 116.898 -19.1807 116.918 -99.6309c-0.0195312 -54.4697 -24.7197 -70.7295 -85.6396 -102.05c-22.8896 -11.4199 -33.2998 -17.1797 -35.3193 -34.8799h-74.6299c1.79004 61.2803 42.4297 82.4102 77.8496 99.6904
c39.8301 19.4102 43.54 30.29 43.4004 42.0098c-0.25 18.4697 -14.8096 25.9102 -43.2998 25.8105c-22.3701 -0.0800781 -49.9697 -5.98047 -70.1494 -12.29l-30.4697 61.2598c32.7197 14.3301 67.2598 20.0801 101.34 20.0801zM208.488 564.409h-104.7l152.25 172.6
h93.4004l152.25 -172.6h-104.7l-94.25 115.41zM303.418 514.009c156.21 0 232.321 -117.499 232.642 -263.049c0.00976562 -7.2998 -0.230469 -14.5303 -0.700195 -21.6807l-383.41 0.0195312c0.259766 -3.24023 0.569336 -6.44043 0.939453 -9.61035
c10.1299 -90.6504 67.5098 -152.87 153.12 -152.87c53.46 0 108.2 15.4199 163.99 46.2803l21.7695 -58.75c-58.4004 -45.0596 -127.641 -68.3398 -188.351 -68.3398c-145.59 0 -241.68 118 -241.68 264c0 147 96.0898 265 241.68 264zM155.459 299.69l291.05 0.0107422
c-11.8096 80.5098 -55.8096 133.479 -140.5 133.479c-80.8799 0.0498047 -135.63 -53.46 -150.55 -133.49z" />
    <glyph glyph-name="ecircumflextilde" unicode="&#x1ec5;" horiz-adv-x="588" 
d="M228.46 819.61c-20.5498 0.169922 -41.7197 -20.3594 -69.0898 -61.959l-55.5703 42.0596c25.71 36.7402 64.1299 100 128.09 100c37.9404 0 71.5908 -22.8896 96.4707 -40.8896c18.5596 -13.46 34.0293 -23.6396 48.4795 -23.2695
c20.0596 -0.370117 41.29 18.6797 69.3301 61.8193l55.54 -42.04c-39.5596 -57.1299 -67.6191 -98.1895 -126.689 -99.1299c-43.1299 0 -71.1895 21.7598 -96.1797 39.8193c-17.3604 12.3604 -34.7607 23.75 -50.3809 23.5898zM349.45 737.001l152.25 -172.6h-104.7
l-94.25 115.42l-94.25 -115.42h-104.7l152.25 172.6h93.4004zM536.09 250.961c0 -7.2998 -0.238281 -14.5391 -0.71875 -21.6895l-383.4 0.0195312c0.25 -3.24023 0.55957 -6.44043 0.929688 -9.61035c10.1396 -90.6504 67.5098 -152.87 153.13 -152.87
c53.46 0 108.19 15.4199 163.99 46.2803l21.7695 -58.75c-58.4102 -45.0596 -127.641 -68.3398 -188.36 -68.3398c-145.59 0 -241.68 118 -241.68 264c0 147 96.0898 265 241.68 264c156.21 0 232.33 -117.49 232.66 -263.04zM155.472 299.683l291.06 0.0107422
c-11.8096 80.5098 -55.8096 133.479 -140.51 133.479c-80.8701 0.0498047 -135.62 -53.46 -150.55 -133.49z" />
    <glyph glyph-name="edieresis" unicode="&#xeb;" horiz-adv-x="588" 
d="M196.31 689.73c29.1201 0 52.7305 -23.6104 52.7305 -52.7402c0 -29.1201 -23.6104 -52.7305 -52.7305 -52.7305c-29.1299 0 -52.7402 23.6104 -52.7402 52.7305c0 29.1299 23.6104 52.7402 52.7402 52.7402zM409.18 689.73c29.1201 0 52.7305 -23.6104 52.7305 -52.7402
c0 -29.1201 -23.6104 -52.7305 -52.7305 -52.7305c-29.1299 0 -52.7402 23.6104 -52.7402 52.7305c0 29.1299 23.6104 52.7402 52.7402 52.7402zM303.42 514c156.21 0 232.321 -117.499 232.642 -263.049c0.00976562 -7.2998 -0.230469 -14.5303 -0.700195 -21.6807
l-383.41 0.0195312c0.259766 -3.24023 0.569336 -6.44043 0.939453 -9.61035c10.1299 -90.6504 67.5098 -152.87 153.12 -152.87c53.46 0 108.2 15.4199 163.99 46.2803l21.7695 -58.75c-58.4004 -45.0596 -127.641 -68.3398 -188.351 -68.3398
c-145.59 0 -241.68 118 -241.68 264c0 147 96.0898 265 241.68 264zM306.011 433.172c-80.8799 0.0498047 -135.63 -53.46 -150.55 -133.49h291.05c-11.8096 80.5098 -55.8096 133.49 -140.5 133.49z" />
    <glyph glyph-name="edotaccent" unicode="&#x117;" horiz-adv-x="588" 
d="M302.74 689.73c29.1299 0 52.7402 -23.6104 52.7402 -52.7402c0 -29.1201 -23.6104 -52.7305 -52.7402 -52.7305c-29.1201 0 -52.7305 23.6104 -52.7305 52.7305c0 29.1299 23.6104 52.7402 52.7305 52.7402zM303.42 514c156.21 0 232.321 -117.499 232.642 -263.049
c0.00976562 -7.2998 -0.230469 -14.5303 -0.700195 -21.6807l-383.41 0.0195312c0.259766 -3.24023 0.569336 -6.44043 0.939453 -9.61035c10.1299 -90.6504 67.5098 -152.87 153.12 -152.87c53.46 0 108.2 15.4199 163.99 46.2803l21.7695 -58.75
c-58.4004 -45.0596 -127.641 -68.3398 -188.351 -68.3398c-145.59 0 -241.68 118 -241.68 264c0 147 96.0898 265 241.68 264zM306.011 433.172c-80.8799 0.0498047 -135.63 -53.46 -150.55 -133.49h291.05c-11.8096 80.5098 -55.8096 133.49 -140.5 133.49z" />
    <glyph glyph-name="edotbelow" unicode="&#x1eb9;" horiz-adv-x="588" 
d="M303.42 514c156.21 0 232.321 -117.499 232.642 -263.049c0.00976562 -7.2998 -0.230469 -14.5303 -0.700195 -21.6807l-383.41 0.0195312c0.259766 -3.24023 0.569336 -6.44043 0.939453 -9.61035c10.1299 -90.6504 67.5098 -152.87 153.12 -152.87
c53.46 0 108.2 15.4199 163.99 46.2803l21.7695 -58.75c-58.4004 -45.0596 -127.641 -68.3398 -188.351 -68.3398c-145.59 0 -241.68 118 -241.68 264c0 147 96.0898 265 241.68 264zM306.011 433.172c-80.8799 0.0498047 -135.63 -53.46 -150.55 -133.49h291.05
c-11.8096 80.5098 -55.8096 133.49 -140.5 133.49zM303.451 -72.7383c29.1201 0 52.7305 -23.6104 52.7305 -52.7305c0 -29.1299 -23.6104 -52.7402 -52.7305 -52.7402c-29.1299 0 -52.7402 23.6104 -52.7402 52.7402c0 29.1201 23.6104 52.7305 52.7402 52.7305z" />
    <glyph glyph-name="egrave" unicode="&#xe8;" horiz-adv-x="588" 
d="M349.75 564.4h-93.4004l-139.38 172.6h105zM303.42 514c156.21 0 232.322 -117.499 232.652 -263.049c0 -7.2998 -0.230469 -14.5303 -0.710938 -21.6807l-383.4 0.0195312c0.25 -3.24023 0.55957 -6.44043 0.929688 -9.61035
c10.1396 -90.6504 67.5098 -152.87 153.13 -152.87c53.46 0 108.19 15.4199 163.99 46.2803l21.7695 -58.75c-58.4102 -45.0596 -127.641 -68.3398 -188.36 -68.3398c-145.59 0 -241.68 118 -241.68 264c0 147 96.0898 265 241.68 264zM306.012 433.172
c-80.8701 0.0498047 -135.62 -53.46 -150.55 -133.49h291.06c-11.8096 80.5098 -55.8096 133.49 -140.51 133.49z" />
    <glyph glyph-name="ehookabove" unicode="&#x1ebb;" horiz-adv-x="588" 
d="M329.33 818.18c64.21 0 116.91 -19.1689 116.92 -99.6289c-0.00976562 -54.46 -24.7197 -70.7295 -85.6396 -102.05c-22.8896 -11.4102 -33.29 -17.1699 -35.3203 -34.8701h-74.6201c1.79004 61.2695 42.4199 82.3994 77.8496 99.6797
c39.8301 19.4102 43.5303 30.29 43.4004 42.0205c-0.25 18.4697 -14.8203 25.9102 -43.3008 25.7998c-22.3799 -0.0703125 -49.9795 -5.9707 -70.1494 -12.291l-30.4697 61.2598c32.71 14.3301 67.25 20.0801 101.33 20.0801zM303.41 514.011
c156.21 0 232.322 -117.499 232.652 -263.049c0 -7.2998 -0.230469 -14.5303 -0.710938 -21.6807l-383.4 0.0195312c0.25 -3.24023 0.55957 -6.44043 0.929688 -9.61035c10.1396 -90.6504 67.5098 -152.87 153.13 -152.87c53.46 0 108.19 15.4199 163.99 46.2803
l21.7695 -58.75c-58.4102 -45.0596 -127.641 -68.3398 -188.36 -68.3398c-145.59 0 -241.68 118 -241.68 264c0 147 96.0898 265 241.68 264zM306.002 433.183c-80.8701 0.0498047 -135.62 -53.46 -150.55 -133.49h291.06c-11.8096 80.5098 -55.8096 133.49 -140.51 133.49z
" />
    <glyph glyph-name="emacron" unicode="&#x113;" horiz-adv-x="588" 
d="M466.61 589.12h-327.73v81.75h327.73v-81.75zM303.42 514c156.21 0 232.321 -117.499 232.642 -263.049c0.00976562 -7.2998 -0.230469 -14.5303 -0.700195 -21.6807l-383.41 0.0195312c0.259766 -3.24023 0.569336 -6.44043 0.939453 -9.61035
c10.1299 -90.6504 67.5098 -152.87 153.12 -152.87c53.46 0 108.2 15.4199 163.99 46.2803l21.7695 -58.75c-58.4004 -45.0596 -127.641 -68.3398 -188.351 -68.3398c-145.59 0 -241.68 118 -241.68 264c0 147 96.0898 265 241.68 264zM306.011 433.172
c-80.8799 0.0498047 -135.63 -53.46 -150.55 -133.49h291.05c-11.8096 80.5098 -55.8096 133.49 -140.5 133.49z" />
    <glyph glyph-name="eogonek" unicode="&#x119;" horiz-adv-x="588" 
d="M536.08 250.96c0.00976562 -7.2998 -0.240234 -14.5488 -0.709961 -21.6885l-383.41 0.0195312c0.259766 -3.24023 0.569336 -6.4502 0.939453 -9.62012c10.1299 -90.6396 67.5098 -152.87 153.12 -152.87c53.46 0 108.2 15.4199 163.99 46.2803l21.7695 -58.7402
c-22.8496 -17.6396 -47.3691 -31.9395 -72.3789 -42.8096c-31.6699 -22.6797 -63.2295 -53.6094 -63.5195 -94.9492c0.330078 -37.6104 27.5996 -52.2705 63.3994 -52.001c15.8896 -0.269531 37.6094 3.07031 55.6396 12.1699l20.6504 -56.7002
c-27.21 -18.1904 -66.0195 -27.1904 -99.6699 -27.4209c-63.6201 0.230469 -123.44 33.9404 -123.91 97.5107c0.320312 36.9102 20.4502 69.5205 49.54 96.5205c-6.11035 -0.44043 -12.1504 -0.670898 -18.1104 -0.670898c-145.59 0 -241.68 118 -241.68 264
c0 147 96.0898 265 241.68 264c156.21 0 232.33 -117.48 232.66 -263.03zM155.471 299.682l291.05 -0.000976562c-11.8096 80.5098 -55.8096 133.49 -140.5 133.49c-80.8799 0.0498047 -135.63 -53.4697 -150.55 -133.489z" />
    <glyph glyph-name="etilde" unicode="&#x1ebd;" horiz-adv-x="588" 
d="M231.88 720.31c37.9502 0 71.6006 -22.8799 96.4805 -40.8799c18.5596 -13.46 34.0293 -23.6396 48.4795 -23.2695c20.0596 -0.370117 41.29 18.6797 69.3301 61.8193l55.54 -42.04c-39.5596 -57.1299 -67.6191 -98.1895 -126.689 -99.1299
c-43.1299 0 -71.1895 21.7598 -96.1797 39.8193c-17.3604 12.3604 -34.7607 23.75 -50.3809 23.5898c-20.5498 0.160156 -41.7295 -20.3594 -69.0996 -61.959l-55.5703 42.0498c25.71 36.75 64.1299 100 128.09 100zM303.43 513.999
c156.21 0 232.321 -117.5 232.642 -263.05c0.00976562 -7.2998 -0.230469 -14.5303 -0.700195 -21.6699l-383.41 0.0195312c0.259766 -3.24023 0.569336 -6.4502 0.939453 -9.62012c10.1299 -90.6396 67.5098 -152.87 153.12 -152.87c53.46 0 108.2 15.4199 163.99 46.2803
l21.7695 -58.7402c-58.4004 -45.0596 -127.641 -68.3496 -188.351 -68.3496c-145.59 0 -241.68 118 -241.68 264c0 147 96.0898 265 241.68 264zM306.021 433.169c-80.8799 0.0498047 -135.63 -53.46 -150.55 -133.479h291.05
c-11.8096 80.5098 -55.8096 133.479 -140.5 133.479z" />
    <glyph glyph-name="f" unicode="f" horiz-adv-x="423" 
d="M301.95 637.45c-51.79 0 -82.3809 -37.79 -82.3809 -103.78v-35.4404h151.42v-70.4004h-151.42v-427.83h-85.5801v427.83h-99v54.9697l93 15.4297h6v30.0098c0 128.44 72.1904 185.761 160.29 185.761c45.8799 0 96.3398 -14.2803 143.74 -42.1299l-21.6602 -59.4297
c-39.4697 16.5 -78.3994 25.2305 -114.409 25.0107z" />
    <glyph glyph-name="g" unicode="g" horiz-adv-x="613" 
d="M535.76 500l0.418945 -485.198c0.120117 -157.8 -93.8799 -228.8 -212.88 -228.8c-72.29 0 -148.51 26.5195 -215.75 82.9893l5.84961 70.1104c66.1699 -52.3496 143.25 -77 204.25 -77c90.3301 0 132.12 53.7695 132.561 153.529l-0.00976562 63.04
c-51.9805 -52.0996 -109.73 -76.7998 -171.83 -77.1201c-128.38 0.679688 -216.92 112.5 -216.92 256.68c0 144.33 89.8203 255.76 217.061 255.76c59.1699 0 119.52 -24.1104 171.67 -76.8301v62.8398h85.5801zM284.839 77.8213
c52.4697 0.280273 116.26 26.3096 165.37 77.2393l-0.00976562 201.53c-46.2002 48.0303 -110.72 76.6006 -165.59 76.7607c-83.8301 -0.160156 -133.79 -68.7998 -133.79 -177c0 -108.1 48.7998 -178.25 134.02 -178.53z" />
    <glyph glyph-name="g.ss01" horiz-adv-x="620" 
d="M569.95 430.7l-98.2197 -0.932617c20.8604 -26.8701 33.1006 -60.3398 33.0605 -98.6602c0.120117 -110.1 -96.8799 -182.1 -216.11 -181.869c-14.6602 -0.0302734 -28.8799 1.2002 -42.4102 3.58008l-26.4199 -12.7598
c-18.3398 -9.08984 -22.0898 -21.2803 -21.9902 -31.8301c0.870117 -29.3896 35.1699 -36.4297 50.8896 -36.5098h57.6602c143.49 0 241.49 -47.5195 241.49 -160.779c0 -113.25 -97 -160.94 -244 -160.94c-145 0 -244 46.79 -243.91 154.89
c0 53.9004 37 99.0508 98.2197 126.251c-26.6299 14.1299 -48.9199 37.46 -50.0303 74.9502c-0.240234 25.5703 8.83008 53.9004 48.0898 77.8906c-51.0498 31.4697 -83.5596 82.6699 -83.8291 146.75c0.469727 109.27 95.4697 182.27 216.67 181.909
c29.0801 0.0898438 56.75 -4.08984 81.9902 -12.0303l198.85 19.2305v-89.1396zM289.11 431.838c-75.5898 0.360352 -127.801 -39.3994 -127.32 -100.899c0.459961 -61.4199 48.9102 -101.12 126.69 -100.89c77.5801 -0.230469 127.08 40.4092 127.07 100.959
c0.00976562 60.54 -49.4307 101.18 -126.44 100.83zM306.419 -9.0918h-39.6807c-76.2197 -14.5195 -115.62 -50.3398 -115.62 -86.0098c0.0195312 -49.1104 42 -74.0801 153.73 -74.0801c110.91 0 153.71 24.9199 153.71 80.1299c0 54.5498 -42.04 80.0996 -152.14 79.96z
" />
    <glyph glyph-name="gbreve" unicode="&#x11f;" horiz-adv-x="613" 
d="M312.81 570.94c-111.33 0 -184.799 72.8799 -184.799 163.06h83.8096c0 -52.7402 43.2998 -86.5098 100.99 -86.5098c58.2002 0 100.99 33.5703 100.99 86.5h83.8096c0 -90.1699 -72.7305 -163.05 -184.801 -163.05zM535.761 500l0.418945 -485.188
c0.120117 -157.81 -93.8799 -228.81 -212.88 -228.81c-72.29 0 -148.51 26.5195 -215.75 82.9893l5.84961 70.1201c66.1699 -52.3604 143.25 -77 204.25 -77c90.3301 0 132.12 53.7598 132.561 153.529l-0.00976562 63.04
c-51.9805 -52.1104 -109.73 -76.8008 -171.83 -77.1211c-128.38 0.669922 -216.92 112.5 -216.92 256.67c0 144.34 89.8203 255.77 217.061 255.77c59.1699 0 119.52 -24.1104 171.67 -76.8301v62.8301h85.5801zM284.84 77.832
c52.4697 0.269531 116.26 26.3115 165.37 77.2412l-0.00976562 201.52c-46.2002 48.04 -110.72 76.5996 -165.59 76.7695c-83.8301 -0.169922 -133.79 -68.8096 -133.79 -177.01c0 -108.09 48.7998 -178.24 134.02 -178.521z" />
    <glyph glyph-name="gbreve.ss01" horiz-adv-x="620" 
d="M410.98 734l83.8115 0.000976562c0 -90.1699 -72.7305 -163.05 -184.801 -163.05c-111.32 0 -184.801 72.8799 -184.801 163.05h83.8096c0 -52.7305 43.2998 -86.5107 100.99 -86.5107c58.2002 0 100.99 33.5801 100.99 86.5098zM569.952 430.711l-98.2207 -0.932617
c20.8496 -26.8799 33.0996 -60.3496 33.0596 -98.6592c0.110352 -110.11 -96.8896 -182.11 -216.109 -181.87c-14.6699 -0.0302734 -28.8799 1.2002 -42.4199 3.58008l-26.4199 -12.7695c-18.3301 -9.08984 -22.0801 -21.2695 -21.9805 -31.8193
c0.870117 -29.3896 35.1699 -36.4297 50.8896 -36.5098h57.6602c143.49 0 241.49 -47.5303 241.49 -160.78c0 -113.26 -97 -160.939 -244 -160.939c-145 0 -244 46.79 -243.92 154.89c0 53.9004 37 99.04 98.2305 126.24c-26.6299 14.1299 -48.9199 37.4697 -50.04 74.96
c-0.240234 25.5596 8.83008 53.8896 48.0996 77.8896c-51.0498 31.46 -83.5596 82.6699 -83.8291 146.74c0.459961 109.27 95.46 182.27 216.66 181.92c29.0801 0.0800781 56.7598 -4.08984 82 -12.04l198.85 19.2305v-89.1299zM289.111 431.838
c-75.5898 0.349609 -127.801 -39.3994 -127.32 -100.899c0.459961 -61.4199 48.9004 -101.12 126.681 -100.88c77.5898 -0.240234 127.08 40.4102 127.08 100.96c0 60.54 -49.4404 101.18 -126.44 100.819zM306.41 -9.09082l-39.6787 0.0117188
c-76.21 -14.5303 -115.61 -50.3506 -115.61 -86.0107c0.0195312 -49.1104 41.9893 -74.0801 153.729 -74.0801c110.91 0 153.71 24.9199 153.71 80.1201c0 54.5498 -42.04 80.1094 -152.15 79.959z" />
    <glyph glyph-name="gcommaaccent" unicode="&#x123;" horiz-adv-x="613" 
d="M303.81 553.38c-23.3096 -0.299805 -42.1006 16.8789 -46.8105 45.0986c-7.87988 47.3203 28.1299 115.65 74.8604 151.631l30.9297 -19.7598c-23.4199 -23.1299 -39.6201 -49.8496 -46.4199 -87.8799c17.4199 -4.88965 33.0195 -21.3193 33 -43.8496
c0.0195312 -25.1699 -20.29 -45.54 -45.5596 -45.2402zM535.759 499.999l0.418945 -485.198c0.129883 -157.8 -93.8701 -228.8 -212.87 -228.8c-72.29 0 -148.51 26.5195 -215.76 82.9893l5.86035 70.1104c66.1602 -52.3496 143.24 -77 204.24 -77
c90.3398 0 132.13 53.7695 132.56 153.529v63.04c-51.9805 -52.0996 -109.73 -76.7998 -171.83 -77.1201c-128.39 0.679688 -216.92 112.5 -216.92 256.68c0 144.33 89.8096 255.76 217.06 255.76c59.1602 0 119.521 -24.1104 171.671 -76.8301l-0.00976562 62.8398h85.5801
zM284.848 77.8203c52.4697 0.280273 116.249 26.3096 165.359 77.2393l-0.00976562 201.53c-46.2002 48.0303 -110.71 76.6006 -165.58 76.7607c-83.8301 -0.160156 -133.8 -68.7998 -133.8 -177c0 -108.1 48.7998 -178.25 134.03 -178.53z" />
    <glyph glyph-name="gcommaaccent.ss01" horiz-adv-x="620" 
d="M337.48 750.1l30.9189 -19.751c-23.4102 -23.1396 -39.6201 -49.8496 -46.4199 -87.8799c17.4297 -4.90039 33.0293 -21.3301 33.0098 -43.8496c0.0195312 -25.1699 -20.29 -45.5498 -45.5596 -45.2402c-23.3096 -0.30957 -42.0996 16.8701 -46.8096 45.0898
c-7.87988 47.3301 28.1299 115.65 74.8604 151.631zM569.949 430.698l-98.2207 -0.932617c20.8496 -26.8701 33.0996 -60.3398 33.0596 -98.6602c0.110352 -110.1 -96.8896 -182.1 -216.109 -181.869c-14.6699 -0.0302734 -28.8799 1.2002 -42.4199 3.58008
l-26.4199 -12.7598c-18.3301 -9.08984 -22.0801 -21.2803 -21.9805 -31.8301c0.870117 -29.3896 35.1699 -36.4297 50.8896 -36.5098h57.6602c143.49 0 241.49 -47.5195 241.49 -160.779c0 -113.25 -97 -160.94 -244 -160.94c-145 0 -244 46.79 -243.92 154.89
c0 53.9004 37 99.0508 98.2305 126.251c-26.6299 14.1299 -48.9199 37.46 -50.04 74.9502c-0.240234 25.5703 8.83008 53.9004 48.0996 77.8906c-51.0498 31.4697 -83.5596 82.6699 -83.8291 146.75c0.459961 109.27 95.46 182.27 216.66 181.909
c29.0801 0.0898438 56.7598 -4.08984 82 -12.0303l198.85 19.2305v-89.1396zM289.108 431.836c-75.5898 0.360352 -127.801 -39.3994 -127.32 -100.899c0.459961 -61.4199 48.9004 -101.12 126.681 -100.89c77.5898 -0.230469 127.08 40.4092 127.08 100.959
c0 60.54 -49.4404 101.18 -126.44 100.83zM306.407 -9.09375h-39.6787c-76.21 -14.5195 -115.61 -50.3398 -115.61 -86.0098c0.0195312 -49.1104 41.9893 -74.0801 153.729 -74.0801c110.91 0 153.71 24.9199 153.71 80.1299c0 54.5498 -42.04 80.0996 -152.15 79.96z" />
    <glyph glyph-name="gdotaccent" unicode="&#x121;" horiz-adv-x="613" 
d="M312.81 584.26c-29.1201 0 -52.7305 23.6104 -52.7305 52.7402c0 29.1201 23.6104 52.7305 52.7305 52.7305c29.1299 0 52.7402 -23.6104 52.7402 -52.7305c0 -29.1299 -23.6104 -52.7402 -52.7402 -52.7402zM535.76 500l0.418945 -485.198
c0.129883 -157.8 -93.8701 -228.8 -212.87 -228.8c-72.29 0 -148.51 26.5195 -215.76 82.9893l5.86035 70.1104c66.1602 -52.3496 143.24 -77 204.24 -77c90.3398 0 132.13 53.7695 132.56 153.529v63.04c-51.9805 -52.0996 -109.73 -76.7998 -171.83 -77.1201
c-128.39 0.679688 -216.92 112.5 -216.92 256.68c0 144.33 89.8096 255.76 217.06 255.76c59.1602 0 119.521 -24.1104 171.671 -76.8301l-0.00976562 62.8398h85.5801zM284.849 77.8213c52.4697 0.280273 116.249 26.3096 165.359 77.2393l-0.00976562 201.53
c-46.2002 48.0303 -110.71 76.6006 -165.58 76.7607c-83.8301 -0.160156 -133.8 -68.7998 -133.8 -177c0 -108.1 48.7998 -178.25 134.03 -178.53z" />
    <glyph glyph-name="gdotaccent.ss01" horiz-adv-x="620" 
d="M309.99 689.73c29.1299 0 52.7402 -23.6104 52.7402 -52.7305c0 -29.1299 -23.6104 -52.7402 -52.7402 -52.7402c-29.1201 0 -52.7305 23.6104 -52.7305 52.7402c0 29.1201 23.6104 52.7305 52.7305 52.7305zM569.95 430.7l-98.2207 -0.932617
c20.8496 -26.8701 33.0996 -60.3398 33.0596 -98.6602c0.110352 -110.1 -96.8896 -182.1 -216.109 -181.869c-14.6699 -0.0302734 -28.8799 1.2002 -42.4199 3.58008l-26.4199 -12.7598c-18.3301 -9.08984 -22.0801 -21.2803 -21.9805 -31.8301
c0.870117 -29.3896 35.1699 -36.4297 50.8896 -36.5098h57.6602c143.49 0 241.49 -47.5195 241.49 -160.779c0 -113.25 -97 -160.94 -244 -160.94c-145 0 -244 46.79 -243.92 154.89c0 53.9004 37 99.0508 98.2305 126.251c-26.6299 14.1299 -48.9199 37.46 -50.04 74.9502
c-0.240234 25.5703 8.83008 53.9004 48.0996 77.8906c-51.0498 31.4697 -83.5596 82.6699 -83.8291 146.75c0.459961 109.27 95.46 182.27 216.66 181.909c29.0801 0.0898438 56.7598 -4.08984 82 -12.0303l198.85 19.2305v-89.1396zM289.109 431.838
c-75.5898 0.360352 -127.801 -39.3994 -127.32 -100.899c0.459961 -61.4199 48.9004 -101.12 126.681 -100.89c77.5898 -0.230469 127.08 40.4092 127.08 100.959c0 60.54 -49.4404 101.18 -126.44 100.83zM306.408 -9.0918h-39.6787
c-76.21 -14.5195 -115.61 -50.3398 -115.61 -86.0098c0.0195312 -49.1104 41.9893 -74.0801 153.729 -74.0801c110.91 0 153.71 24.9199 153.71 80.1299c0 54.5498 -42.04 80.0996 -152.15 79.96z" />
    <glyph glyph-name="h" unicode="h" horiz-adv-x="591" 
d="M348.09 513.87c91.79 -0.0703125 170.699 -60.0781 170.699 -187.868v-326h-85.5195v326c0 74.7305 -45.6602 108.29 -104.78 108.11c-50.5498 -0.160156 -110.93 -24.8906 -160.939 -69.6709v-364.44h-85.5195v700h85.5195v-263.19
c53.1602 50.8799 119.78 77.0996 180.54 77.0596z" />
    <glyph glyph-name="hbar" unicode="&#x127;" horiz-adv-x="591" 
d="M348.09 513.87c91.79 -0.0703125 170.699 -60.0791 170.699 -187.869v-326h-85.5195v326c0 74.7305 -45.6602 108.29 -104.78 108.11c-50.5498 -0.160156 -110.93 -24.8906 -160.939 -69.6709v-364.44h-85.5195v555.94h-105.14v70.3896h105.14v73.6699h85.5195v-73.6699
h137.07v-70.3896h-137.07v-119.13c53.1602 50.8799 119.78 77.0996 180.54 77.0596z" />
    <glyph glyph-name="i" unicode="i" horiz-adv-x="255" 
d="M130.08 689.76c29.1396 0 52.7598 -23.6201 52.7598 -52.7598s-23.6201 -52.7598 -52.7598 -52.7598s-52.7598 23.6201 -52.7598 52.7598s23.6201 52.7598 52.7598 52.7598zM172.84 -0h-85.5195v500h85.5195v-500z" />
    <glyph glyph-name="dotlessi" unicode="&#x131;" horiz-adv-x="255" 
d="M172.85 0h-85.5303v500h85.5303v-500z" />
    <glyph glyph-name="iacute" unicode="&#xed;" horiz-adv-x="255" 
d="M171.81 563.7h-93.3896l127.77 172.6h105zM172.85 0h-85.5303v500h85.5303v-500z" />
    <glyph glyph-name="icaron" unicode="&#x1d0;" horiz-adv-x="255" 
d="M327.18 737l-152.261 -172.6h-93.3896l-152.25 172.6h104.7l94.25 -115.42l94.25 115.42h104.7zM87.3193 500h85.5195v-500h-85.5195v500z" />
    <glyph glyph-name="icircumflex" unicode="&#xee;" horiz-adv-x="255" 
d="M327.16 564.4h-104.7l-94.25 115.41l-94.25 -115.41h-104.7l152.25 172.6h93.4004zM87.3301 500h85.5195v-500h-85.5195v500z" />
    <glyph glyph-name="idieresis" unicode="&#xef;" horiz-adv-x="255" 
d="M21.7695 689.73c29.1299 0 52.7402 -23.6104 52.7402 -52.7305c0 -29.1299 -23.6104 -52.7402 -52.7402 -52.7402c-29.1201 0 -52.7305 23.6104 -52.7305 52.7402c0 29.1201 23.6104 52.7305 52.7305 52.7305zM234.64 689.73
c29.1299 0 52.7402 -23.6104 52.7402 -52.7305c0 -29.1299 -23.6104 -52.7402 -52.7402 -52.7402c-29.1201 0 -52.7305 23.6104 -52.7305 52.7402c0 29.1201 23.6104 52.7305 52.7305 52.7305zM172.85 0h-85.5303v500h85.5303v-500z" />
    <glyph glyph-name="i.loclTRK" horiz-adv-x="255" 
d="M128.21 689.73c29.1201 0 52.7305 -23.6104 52.7305 -52.7305c0 -29.1299 -23.6104 -52.7402 -52.7305 -52.7402c-29.1299 0 -52.7402 23.6104 -52.7402 52.7402c0 29.1201 23.6104 52.7305 52.7402 52.7305zM172.85 0h-85.5303v500h85.5303v-500z" />
    <glyph glyph-name="idotbelow" unicode="&#x1ecb;" horiz-adv-x="255" 
d="M130.08 689.76c29.1396 0 52.7598 -23.6201 52.7598 -52.7598s-23.6201 -52.7598 -52.7598 -52.7598s-52.7598 23.6201 -52.7598 52.7598s23.6201 52.7598 52.7598 52.7598zM172.84 -0h-85.5195v500h85.5195v-500zM130.08 -72.7305
c29.1201 0 52.7305 -23.6104 52.7305 -52.7305c0 -29.1299 -23.6104 -52.7402 -52.7305 -52.7402c-29.1299 0 -52.7402 23.6104 -52.7402 52.7402c0 29.1201 23.6104 52.7305 52.7402 52.7305z" />
    <glyph glyph-name="igrave" unicode="&#xec;" horiz-adv-x="255" 
d="M175.21 564.4h-93.3896l-139.38 172.6h105zM172.851 0h-85.5303v500h85.5303v-500z" />
    <glyph glyph-name="ihookabove" unicode="&#x1ec9;" horiz-adv-x="255" 
d="M172.25 818.18c64.21 0 116.91 -19.1689 116.92 -99.6289c-0.00976562 -54.46 -24.7197 -70.7295 -85.6396 -102.05c-22.8896 -11.4102 -33.29 -17.1699 -35.3203 -34.8701h-74.6201c1.79004 61.2695 42.4199 82.3994 77.8496 99.6797
c39.8301 19.4102 43.5303 30.29 43.4004 42.0205c-0.25 18.4697 -14.8203 25.9102 -43.3008 25.7998c-22.3799 -0.0703125 -49.9795 -5.9707 -70.1494 -12.291l-30.4697 61.2598c32.71 14.3301 67.25 20.0801 101.33 20.0801zM172.84 0.0107422h-85.5195v500h85.5195v-500z
" />
    <glyph glyph-name="ij" unicode="&#x133;" horiz-adv-x="513" 
d="M130.08 689.76c29.1396 0 52.7598 -23.6201 52.7598 -52.7598s-23.6201 -52.7598 -52.7598 -52.7598s-52.7598 23.6201 -52.7598 52.7598s23.6201 52.7598 52.7598 52.7598zM388.15 689.76c29.1396 0 52.7598 -23.6201 52.7598 -52.7598
s-23.6201 -52.7598 -52.7598 -52.7598s-52.7598 23.6201 -52.7598 52.7598s23.6201 52.7598 52.7598 52.7598zM172.851 -0h-85.5303v500h85.5303v-500zM430.91 500l-0.000976562 -558.7c0 -107.38 -60.3398 -155.3 -134 -155.3c-23.04 0 -47.3398 3.91992 -71.7402 11.6504
l6.32031 69.9199c15.4697 -2.95996 30.5801 -4.4502 45.1104 -4.36035c43.25 0 68.7803 28.3096 68.7803 77.8799v558.91h85.5303z" />
    <glyph glyph-name="imacron" unicode="&#x12b;" horiz-adv-x="255" 
d="M292.07 589.12h-327.73v81.75h327.73v-81.75zM172.85 0h-85.5303v500h85.5303v-500z" />
    <glyph glyph-name="iogonek" unicode="&#x12f;" horiz-adv-x="255" 
d="M128.21 584.26c-29.1299 0 -52.7402 23.6104 -52.7402 52.7402c0 29.1201 23.6104 52.7305 52.7402 52.7305c29.1201 0 52.7305 -23.6104 52.7305 -52.7305c0 -29.1299 -23.6104 -52.7402 -52.7305 -52.7402zM214.46 -144.29l20.6416 -56.6982
c-27.21 -18.1904 -66.0195 -27.1904 -99.6699 -27.4209c-63.6201 0.230469 -123.44 33.9404 -123.91 97.5107c0.459961 53.8096 43.04 99.3896 94.0596 130.899h-18.2598v500h85.5195v-500c-35.1797 -23.04 -77.0898 -56.8203 -77.4199 -104.45
c0.330078 -37.6104 27.5996 -52.2705 63.3994 -52.001c15.8896 -0.269531 37.6094 3.06055 55.6396 12.1602z" />
    <glyph glyph-name="itilde" unicode="&#x129;" horiz-adv-x="255" 
d="M57.3398 720.32c37.9404 0 71.5996 -22.8799 96.4893 -40.8799c18.5596 -13.4697 34.0195 -23.6396 48.4697 -23.2695c20.0596 -0.370117 41.2998 18.6699 69.3398 61.8096l55.5303 -42.0303c-39.5498 -57.1396 -67.6094 -98.1992 -126.68 -99.1396
c-43.1299 0 -71.1895 21.7695 -96.1797 39.8193c-17.3701 12.3604 -34.7598 23.7607 -50.3799 23.5908c-20.5596 0.169922 -41.7295 -20.3604 -69.1094 -61.96l-55.5703 42.0596c25.7197 36.7402 64.1396 100 128.09 100zM172.849 0h-85.5195v500h85.5195v-500z" />
    <glyph glyph-name="j" unicode="j" horiz-adv-x="258" 
d="M132.97 689.76c29.1396 0 52.7598 -23.6201 52.7598 -52.7598s-23.6201 -52.7598 -52.7598 -52.7598s-52.7598 23.6201 -52.7598 52.7598s23.6201 52.7598 52.7598 52.7598zM175.729 500l0.0107422 -558.7c0 -107.38 -60.3496 -155.3 -134.01 -155.3
c-23.04 0 -47.3301 3.91992 -71.7305 11.6504l6.30957 69.9199c15.4697 -2.95996 30.5801 -4.4502 45.1104 -4.36035c43.25 0 68.79 28.3096 68.79 77.8799v558.91h85.5195z" />
    <glyph glyph-name="k" unicode="k" horiz-adv-x="569" 
d="M272.04 261.75l-104.49 -98.7588v-162.99h-85.5195v700h85.5195v-426.95l234.76 226.89l121.8 0.0595703l-193.31 -182.71l217.38 -317.29h-103.13z" />
    <glyph glyph-name="kcommaaccent" unicode="&#x137;" horiz-adv-x="569" 
d="M548.18 0l-103.14 0.000976562l-173.01 261.75l-104.48 -98.7598v-162.99h-85.5195v700h85.5195v-426.95l234.76 226.89l121.8 0.0595703l-193.31 -182.71zM291.33 -62.0391c23.3096 0.30957 42.1006 -16.8691 46.8105 -45.0889
c7.87988 -47.3301 -28.1299 -115.65 -74.8604 -151.631l-30.9297 19.75c23.4199 23.1299 39.6201 49.8496 46.4199 87.8799c-17.4199 4.88965 -33.0195 21.3193 -33 43.8496c-0.0195312 25.1699 20.29 45.54 45.5596 45.2402z" />
    <glyph glyph-name="l" unicode="l" horiz-adv-x="347" 
d="M167.56 700v-565.651c0 -54.6699 36 -71.4795 76.7695 -71.2598c9.29004 0.0498047 18.7705 1 28.1602 2.62012l25.1504 -66.8301c-23.1201 -8.16992 -47.7998 -12.71 -71.8896 -12.8301c-74.6504 -0.389648 -143.721 41.4707 -143.721 148.291v565.66h85.5303z" />
    <glyph glyph-name="lacute" unicode="&#x13a;" horiz-adv-x="347" 
d="M205.64 763.7h-93.4004l127.78 172.6h105zM167.56 700v-565.651c0 -54.6699 36 -71.4795 76.7695 -71.2598c9.29004 0.0498047 18.7705 1 28.1602 2.62012l25.1504 -66.8301c-23.1201 -8.16992 -47.7998 -12.71 -71.8896 -12.8301
c-74.6504 -0.389648 -143.721 41.4707 -143.721 148.291v565.66h85.5303z" />
    <glyph glyph-name="lcaron" unicode="&#x13e;" horiz-adv-x="347" 
d="M311.99 714c23.3096 0.30957 42.1006 -16.8789 46.8105 -45.0986c7.87988 -47.3301 -28.1299 -115.65 -74.8604 -151.631l-30.9297 19.75c23.4199 23.1396 39.6201 49.8496 46.4199 87.8799c-17.4199 4.90039 -33.0303 21.3301 -33.0107 43.8496
c-0.0195312 25.1797 20.3008 45.5498 45.5703 45.25zM167.562 699.991l0.00976562 -565.651c0 -54.6602 36 -71.4805 76.7598 -71.25c9.29004 0.0498047 18.7803 0.990234 28.1699 2.61035l25.1504 -66.8203c-23.1201 -8.17969 -47.7998 -12.71 -71.8994 -12.8398
c-74.6504 -0.379883 -143.71 41.4805 -143.71 148.301v565.65h85.5195z" />
    <glyph glyph-name="lcommaaccent" unicode="&#x13c;" horiz-adv-x="347" 
d="M167.56 700v-565.651c0 -54.6699 36 -71.4795 76.7695 -71.2598c9.29004 0.0498047 18.7705 1 28.1602 2.62012l25.1504 -66.8301c-23.1201 -8.16992 -47.7998 -12.71 -71.8896 -12.8301c-74.6504 -0.389648 -143.721 41.4707 -143.721 148.291v565.66h85.5303z
M179.229 -62.041c23.3096 0.30957 42.1006 -16.8691 46.8105 -45.0889c7.87988 -47.3203 -28.1299 -115.65 -74.8604 -151.631l-30.9297 19.75c23.4199 23.1396 39.6201 49.8496 46.4199 87.8799c-17.4199 4.90039 -33.0195 21.3301 -33 43.8496
c-0.0195312 25.1699 20.29 45.5498 45.5596 45.2402z" />
    <glyph glyph-name="ldot" unicode="&#x140;" horiz-adv-x="347" 
d="M167.56 700v-565.651c0 -54.6699 36 -71.4795 76.7695 -71.2598c9.29004 0.0498047 18.7705 1 28.1602 2.62012l25.1504 -66.8301c-23.1201 -8.16992 -47.7998 -12.71 -71.8896 -12.8301c-74.6504 -0.389648 -143.721 41.4707 -143.721 148.291v565.66h85.5303z
M275.869 395.568c30.7197 0 55.6201 -24.8994 55.6201 -55.6191c0 -30.71 -24.9004 -55.6104 -55.6201 -55.6104c-30.71 0 -55.6104 24.9004 -55.6104 55.6104c0 31.3496 24.9004 55.6191 55.6104 55.6191z" />
    <glyph glyph-name="lslash" unicode="&#x142;" horiz-adv-x="321" 
d="M236.9 61.1104c11.7305 -0.0703125 23.8574 1.23242 36.2676 3.80273l-6.21973 -70.6602c-17.0801 -5.45996 -34.1396 -8.25 -50.3496 -8.25c-73.7197 -0.0302734 -134.569 47.54 -134.569 154.89v164.43l-84.9004 -46.6299l-33.9199 61.7695l118.82 65.2598v314.27
h85.5303v-267.3l117.61 64.5996l33.9199 -61.7695l-151.53 -83.2305v-211.61c0 -50.7998 25.9805 -79.5898 69.3408 -79.5703z" />
    <glyph glyph-name="m" unicode="m" horiz-adv-x="908" 
d="M669.26 514c91 0 166.72 -58.3594 166.319 -188.01v-326h-85.5195v326c0.429688 75.2998 -43.7803 108.37 -102.03 108.36c-46.8701 -0.00976562 -103.12 -21.25 -152.55 -59.25c2.63965 -15.0703 4.01953 -31.4199 3.98926 -49.1104v-326h-85.5195v326
c0.219727 74.5898 -43.0303 108.02 -99.2305 108.14c-47.71 0.0996094 -104.71 -23.7402 -152.16 -66.6201v-367.51h-85.5303v500h85.5303v-62.46c51.6904 50.7803 113.761 76.46 172.241 76.46c60.0303 0 114.011 -26.4805 142.78 -83.4102
c55.9502 53.21 126.76 83.4102 191.68 83.4102z" />
    <glyph glyph-name="n" unicode="n" horiz-adv-x="586" 
d="M342.91 514c91.1699 0 170.881 -60.2295 170.881 -187.999v-326h-85.5195v326c0 73.6201 -44.5098 108.13 -102.37 108.13c-48.2305 0 -111.511 -23.6299 -163.341 -69.7402v-364.39h-85.5303v500h85.5303v-63.1904c55.21 52.8496 123.1 77.1895 180.35 77.1895z" />
    <glyph glyph-name="nacute" unicode="&#x144;" horiz-adv-x="586" 
d="M349.07 563.7h-93.4004l127.78 172.6h105zM342.91 514c91.1699 0 170.881 -60.2295 170.881 -187.999v-326h-85.5195v326c0 73.6201 -44.5098 108.13 -102.37 108.13c-48.2305 0 -111.511 -23.6299 -163.341 -69.7402v-364.39h-85.5303v500h85.5303v-63.1904
c55.21 52.8496 123.1 77.1895 180.35 77.1895z" />
    <glyph glyph-name="ncaron" unicode="&#x148;" horiz-adv-x="586" 
d="M258.79 564.4l-152.261 172.6h104.7l94.25 -115.42l94.25 115.42h104.7l-152.25 -172.6h-93.3896zM342.909 514c91.1797 0 170.881 -60.2295 170.881 -187.999v-326h-85.5303v326c0 73.6201 -44.5098 108.13 -102.37 108.13c-48.2197 0 -111.5 -23.6299 -163.34 -69.7402
v-364.39h-85.5195v500h85.5195v-63.1904c55.2197 52.8496 123.1 77.1895 180.359 77.1895z" />
    <glyph glyph-name="ncommaaccent" unicode="&#x146;" horiz-adv-x="586" 
d="M342.91 514c91.1699 0 170.881 -60.2295 170.881 -187.999v-326h-85.5195v326c0 73.6201 -44.5098 108.13 -102.37 108.13c-48.2305 0 -111.511 -23.6299 -163.341 -69.7402v-364.39h-85.5303v500h85.5303v-63.1904c55.21 52.8496 123.1 77.1895 180.35 77.1895z
M311.001 -62.0391c23.3096 0.30957 42.1006 -16.8691 46.8105 -45.0889c7.87988 -47.3203 -28.1299 -115.65 -74.8604 -151.631l-30.9297 19.75c23.4199 23.1396 39.6201 49.8496 46.4199 87.8799c-17.4199 4.90039 -33.0195 21.3301 -33 43.8496
c-0.0195312 25.1699 20.29 45.5498 45.5596 45.2402z" />
    <glyph glyph-name="eng" unicode="&#x14b;" horiz-adv-x="586" 
d="M342.91 514c91.1699 0 170.881 -60.2393 170.881 -187.999v-384.7c0 -107.38 -60.3398 -155.3 -134 -155.3c-23.04 0 -47.3398 3.91992 -71.7295 11.6504l6.30957 69.9297c15.4697 -2.95996 30.5801 -4.4502 45.1104 -4.36035c43.25 0 68.79 28.3096 68.79 77.8799v384.9
c0 73.6201 -44.5098 108.13 -102.37 108.13c-48.2305 0 -111.511 -23.6299 -163.341 -69.7402v-364.39h-85.5303v500h85.5303v-63.1904c55.21 52.8496 123.1 77.1895 180.35 77.1895z" />
    <glyph glyph-name="ntilde" unicode="&#xf1;" horiz-adv-x="586" 
d="M231.19 640.22c-20.5498 0.160156 -41.7305 -20.3506 -69.1006 -61.9502l-55.5703 42.0498c25.71 36.75 64.1299 100 128.09 100c37.9404 0 71.5908 -22.8799 96.4805 -40.8799c18.5596 -13.4697 34.0195 -23.6396 48.4697 -23.2695
c20.0596 -0.370117 41.2998 18.6699 69.3398 61.8096l55.5303 -42.0303c-39.5498 -57.1396 -67.6094 -98.1992 -126.68 -99.1396c-43.1299 0 -71.1895 21.7695 -96.1797 39.8193c-17.3701 12.3604 -34.7598 23.7607 -50.3799 23.5908zM342.92 513.998
c91.1797 0 170.881 -60.2285 170.881 -187.988v-326h-85.5303v326c0 73.6104 -44.5098 108.12 -102.37 108.12c-48.2197 0 -111.5 -23.6201 -163.34 -69.7305v-364.4h-85.5195v500h85.5195v-63.1904c55.2197 52.8496 123.1 77.1895 180.359 77.1895z" />
    <glyph glyph-name="o" unicode="o" horiz-adv-x="621" 
d="M310.74 514c151 0 249 -118 249 -264s-98 -264 -249 -264c-150 0 -249 118 -249 264c0 147 99 265 249 264zM310.74 433.18c-99.5703 0.0595703 -160.59 -76.1221 -159.649 -183.182c0 -107.01 61.9697 -183.189 159.649 -183.189
c98.6797 0 159.649 75.2402 159.649 183.19s-60.9697 183.181 -159.649 183.181z" />
    <glyph glyph-name="oacute" unicode="&#xf3;" horiz-adv-x="621" 
d="M354.35 563.7h-93.4004l127.78 172.6h105zM310.739 514c151 0 249 -118 249 -264s-98 -264 -249 -264c-150 0 -249 118 -249 264c0 147 99 265 249 264zM310.739 433.18c-99.5703 0.0595703 -160.59 -76.1221 -159.649 -183.182
c0 -107.01 61.9697 -183.189 159.649 -183.189c98.6797 0 159.649 75.2402 159.649 183.19s-60.9697 183.181 -159.649 183.181z" />
    <glyph glyph-name="ocaron" unicode="&#x1d2;" horiz-adv-x="621" 
d="M264.06 564.4l-152.25 172.6h104.7l94.25 -115.42l94.25 115.42h104.7l-152.25 -172.6h-93.4004zM310.729 514c151 0 249 -118 249 -264s-98 -264 -249 -264c-150 0 -249 118 -249 264c0 147 99 265 249 264zM310.729 66.8096c98.6797 0 159.649 75.2383 159.649 183.188
s-60.9697 183.181 -159.649 183.181c-99.5703 0.0595703 -160.59 -76.1201 -159.649 -183.18c0 -107.01 61.9697 -183.189 159.649 -183.189z" />
    <glyph glyph-name="ocircumflex" unicode="&#xf4;" horiz-adv-x="621" 
d="M216.49 564.4h-104.689l152.25 172.6h93.3896l152.25 -172.6h-104.7l-94.25 115.41zM310.751 514c151 0 249 -118 249 -264s-98 -264 -249 -264c-150 0 -249 118 -249 264c0 147 99 265 249 264zM310.751 66.8096c98.6797 0 159.649 75.2383 159.649 183.188
s-60.9697 183.181 -159.66 183.181c-99.5596 0.0595703 -160.59 -76.1201 -159.649 -183.18c0 -107.01 61.9697 -183.189 159.66 -183.189z" />
    <glyph glyph-name="ocircumflexacute" unicode="&#x1ed1;" horiz-adv-x="621" 
d="M730.87 797.6l-139.38 -172.6h-93.4004l127.78 172.6h105zM216.49 564.4h-104.689l152.25 172.6h93.3896l152.25 -172.6h-104.7l-94.25 115.41zM310.751 514c151 0 249 -118 249 -264s-98 -264 -249 -264c-150 0 -249 118 -249 264c0 147 99 265 249 264z
M310.751 66.8096c98.6797 0 159.649 75.2383 159.649 183.188s-60.9697 183.181 -159.66 183.181c-99.5596 0.0595703 -160.59 -76.1201 -159.649 -183.18c0 -107.01 61.9697 -183.189 159.66 -183.189z" />
    <glyph glyph-name="ocircumflexdotbelow" unicode="&#x1ed9;" horiz-adv-x="621" 
d="M216.49 564.4h-104.689l152.25 172.6h93.3896l152.25 -172.6h-104.7l-94.25 115.41zM310.751 514c151 0 249 -118 249 -264s-98 -264 -249 -264c-150 0 -249 118 -249 264c0 147 99 265 249 264zM310.751 66.8096c98.6797 0 159.649 75.2383 159.649 183.188
s-60.9697 183.181 -159.66 183.181c-99.5596 0.0595703 -160.59 -76.1201 -159.649 -183.18c0 -107.01 61.9697 -183.189 159.66 -183.189zM310.751 -72.7324c29.1201 0 52.7305 -23.6104 52.7305 -52.7305c0 -29.1299 -23.6104 -52.7402 -52.7305 -52.7402
c-29.1299 0 -52.7402 23.6104 -52.7402 52.7402c0 29.1201 23.6104 52.7305 52.7402 52.7305z" />
    <glyph glyph-name="ocircumflexgrave" unicode="&#x1ed3;" horiz-adv-x="621" 
d="M538.91 625l-139.38 172.6h105l127.77 -172.6h-93.3896zM216.49 564.399h-104.689l152.25 172.6h93.3896l152.25 -172.6h-104.7l-94.25 115.42zM310.751 513.999c151 0 249 -118 249 -264s-98 -264 -249 -264c-150 0 -249 118 -249 264c0 147 99 265 249 264z
M310.751 66.8193c98.6797 0 159.649 75.2295 159.649 183.18s-60.9697 183.19 -159.66 183.19c-99.5596 0.0498047 -160.59 -76.1201 -159.649 -183.19c0 -107 61.9697 -183.18 159.66 -183.18z" />
    <glyph glyph-name="ocircumflexhookabove" unicode="&#x1ed5;" horiz-adv-x="621" 
d="M583.61 835.52c64.2197 0 116.898 -19.1807 116.918 -99.6309c-0.0195312 -54.4697 -24.7197 -70.7295 -85.6396 -102.05c-22.8896 -11.4199 -33.2998 -17.1797 -35.3193 -34.8799h-74.6299c1.79004 61.2803 42.4297 82.4102 77.8496 99.6904
c39.8301 19.4102 43.54 30.29 43.4004 42.0098c-0.25 18.4697 -14.8096 25.9102 -43.2998 25.8105c-22.3701 -0.0800781 -49.9697 -5.98047 -70.1494 -12.29l-30.4697 61.2598c32.7197 14.3301 67.2598 20.0801 101.34 20.0801zM216.488 564.409h-104.7l152.25 172.6
h93.4004l152.25 -172.6h-104.7l-94.25 115.41zM310.738 514.009c151 0 249 -118 249 -264s-98 -264 -249 -264c-150 0 -249 118 -249 264c0 147 99 265 249 264zM310.738 66.8184c98.6797 0 159.649 75.2383 159.649 183.188s-60.9697 183.181 -159.649 183.181
c-99.5703 0.0595703 -160.59 -76.1201 -159.649 -183.18c0 -107.01 61.9697 -183.189 159.649 -183.189z" />
    <glyph glyph-name="ocircumflextilde" unicode="&#x1ed7;" horiz-adv-x="621" 
d="M236.46 819.61c-20.5498 0.169922 -41.7197 -20.3594 -69.0898 -61.959l-55.5703 42.0596c25.71 36.7402 64.1299 100 128.09 100c37.9404 0 71.5908 -22.8896 96.4707 -40.8896c18.5596 -13.46 34.0293 -23.6396 48.4795 -23.2695
c20.0596 -0.370117 41.29 18.6797 69.3301 61.8193l55.54 -42.04c-39.5596 -57.1299 -67.6191 -98.1895 -126.689 -99.1299c-43.1299 0 -71.1895 21.7598 -96.1797 39.8193c-17.3604 12.3604 -34.7607 23.75 -50.3809 23.5898zM357.45 737.001l152.25 -172.6h-104.7
l-94.25 115.42l-94.25 -115.42h-104.7l152.25 172.6h93.4004zM310.75 514.001c151 0 249 -118 249 -264s-98 -264 -249 -264c-150 0 -249 118 -249 264c0 147 99 265 249 264zM310.75 66.8213c98.6797 0 159.649 75.2295 159.649 183.18s-60.9697 183.19 -159.649 183.19
c-99.5703 0.0498047 -160.59 -76.1201 -159.649 -183.19c0 -107 61.9697 -183.18 159.649 -183.18z" />
    <glyph glyph-name="odieresis" unicode="&#xf6;" horiz-adv-x="621" 
d="M204.31 689.73c29.1201 0 52.7305 -23.6104 52.7305 -52.7305c0 -29.1299 -23.6104 -52.7402 -52.7305 -52.7402c-29.1299 0 -52.7402 23.6104 -52.7402 52.7402c0 29.1201 23.6104 52.7305 52.7402 52.7305zM417.18 689.73c29.1201 0 52.7305 -23.6104 52.7305 -52.7305
c0 -29.1299 -23.6104 -52.7402 -52.7305 -52.7402c-29.1299 0 -52.7402 23.6104 -52.7402 52.7402c0 29.1201 23.6104 52.7305 52.7402 52.7305zM310.739 514c151 0 249 -118 249 -264s-98 -264 -249 -264c-150 0 -249 118 -249 264c0 147 99 265 249 264zM310.739 433.18
c-99.5703 0.0595703 -160.59 -76.1221 -159.649 -183.182c0 -107.01 61.9697 -183.189 159.649 -183.189c98.6797 0 159.649 75.2402 159.649 183.19s-60.9697 183.181 -159.649 183.181z" />
    <glyph glyph-name="odotbelow" unicode="&#x1ecd;" horiz-adv-x="621" 
d="M310.74 514c151 0 249 -118 249 -264s-98 -264 -249 -264c-150 0 -249 118 -249 264c0 147 99 265 249 264zM310.74 433.18c-99.5703 0.0595703 -160.59 -76.1221 -159.649 -183.182c0 -107.01 61.9697 -183.189 159.649 -183.189
c98.6797 0 159.649 75.2402 159.649 183.19s-60.9697 183.181 -159.649 183.181zM310.74 -72.7324c29.1299 0 52.7402 -23.6104 52.7402 -52.7305c0 -29.1299 -23.6104 -52.7402 -52.7402 -52.7402c-29.1201 0 -52.7305 23.6104 -52.7305 52.7402
c0 29.1201 23.6104 52.7305 52.7305 52.7305z" />
    <glyph glyph-name="ograve" unicode="&#xf2;" horiz-adv-x="621" 
d="M357.75 564.4h-93.4004l-139.38 172.6h105zM310.739 514c151 0 249 -118 249 -264s-98 -264 -249 -264c-150 0 -249 118 -249 264c0 147 99 265 249 264zM310.739 433.18c-99.5703 0.0595703 -160.59 -76.1221 -159.649 -183.182
c0 -107.01 61.9697 -183.189 159.649 -183.189c98.6797 0 159.649 75.2402 159.649 183.19s-60.9697 183.181 -159.649 183.181z" />
    <glyph glyph-name="ohookabove" unicode="&#x1ecf;" horiz-adv-x="621" 
d="M336.1 818.18c64.2197 0 116.898 -19.1689 116.918 -99.6289c-0.0195312 -54.46 -24.7197 -70.7295 -85.6396 -102.05c-22.8896 -11.4102 -33.2998 -17.1699 -35.3193 -34.8701h-74.6299c1.79004 61.2695 42.4297 82.3994 77.8496 99.6797
c39.8301 19.4102 43.54 30.29 43.4004 42.0205c-0.25 18.4697 -14.8096 25.9102 -43.2998 25.7998c-22.3701 -0.0703125 -49.9697 -5.9707 -70.1494 -12.291l-30.4697 61.2598c32.7197 14.3301 67.2598 20.0801 101.34 20.0801zM310.728 514.011c151 0 249 -118 249 -264
s-98 -264 -249 -264c-150 0 -249 118 -249 264c0 147 99 265 249 264zM310.728 433.19c-99.5703 0.0595703 -160.59 -76.1221 -159.649 -183.182c0 -107.01 61.9697 -183.189 159.649 -183.189c98.6797 0 159.649 75.2402 159.649 183.19s-60.9697 183.181 -159.649 183.181
z" />
    <glyph glyph-name="ohorn" unicode="&#x1a1;" horiz-adv-x="621" 
d="M515.96 565.87l67.2422 20.4287c22.5703 -73.3203 10.5605 -124.38 -24.6592 -149.38c-14.21 -10.2998 -31.7803 -16.3701 -52.1904 -17.7305c34.2998 -45.79 53.3896 -104.76 53.3896 -169.189c0 -146 -98 -264 -249 -264c-150 0 -249 118 -249 264
c0 147 99 265 249 264c55.9199 0 104.58 -16.1904 143.68 -43.9902c21.5996 -4.01953 39.1191 -1.06934 50.709 8.05078c19.2695 15.1299 23.8193 46.1201 10.8291 87.8105zM310.742 66.8086c98.6797 0 159.649 75.2383 159.649 183.188s-60.9697 183.181 -159.66 183.181
c-99.5596 0.0595703 -160.59 -76.1201 -159.649 -183.18c0 -107.01 61.9697 -183.189 159.66 -183.189z" />
    <glyph glyph-name="ohornacute" unicode="&#x1edb;" horiz-adv-x="621" 
d="M354.35 563.7h-93.4004l127.78 172.6h105zM515.959 565.87l67.2422 20.4287c22.5703 -73.3203 10.5605 -124.38 -24.6592 -149.38c-14.21 -10.2998 -31.7803 -16.3701 -52.1904 -17.7305c34.2998 -45.79 53.3896 -104.76 53.3896 -169.189c0 -146 -98 -264 -249 -264
c-150 0 -249 118 -249 264c0 147 99 265 249 264c55.9199 0 104.58 -16.1904 143.68 -43.9902c21.5996 -4.01953 39.1191 -1.06934 50.709 8.05078c19.2695 15.1299 23.8193 46.1201 10.8291 87.8105zM310.741 66.8086c98.6797 0 159.649 75.2383 159.649 183.188
s-60.9697 183.181 -159.649 183.181c-99.5703 0.0595703 -160.59 -76.1201 -159.649 -183.18c0 -107.01 61.9697 -183.189 159.649 -183.189z" />
    <glyph glyph-name="ohorndotbelow" unicode="&#x1ee3;" horiz-adv-x="621" 
d="M515.96 565.87l67.2422 20.4287c22.5703 -73.3203 10.5605 -124.38 -24.6592 -149.38c-14.21 -10.2998 -31.7803 -16.3701 -52.1904 -17.7305c34.2998 -45.79 53.3896 -104.76 53.3896 -169.189c0 -146 -98 -264 -249 -264c-150 0 -249 118 -249 264
c0 147 99 265 249 264c55.9199 0 104.58 -16.1904 143.68 -43.9902c21.5996 -4.01953 39.1191 -1.06934 50.709 8.05078c19.2695 15.1299 23.8193 46.1201 10.8291 87.8105zM310.742 66.8086c98.6797 0 159.649 75.2383 159.649 183.188s-60.9697 183.181 -159.649 183.181
c-99.5703 0.0595703 -160.59 -76.1201 -159.649 -183.18c0 -107.01 61.9697 -183.189 159.649 -183.189zM310.742 -72.7334c29.1299 0 52.7402 -23.6104 52.7402 -52.7305c0 -29.1299 -23.6104 -52.7402 -52.7402 -52.7402c-29.1201 0 -52.7305 23.6104 -52.7305 52.7402
c0 29.1201 23.6104 52.7305 52.7305 52.7305z" />
    <glyph glyph-name="ohorngrave" unicode="&#x1edd;" horiz-adv-x="621" 
d="M264.35 564.4l-139.38 172.6h105l127.78 -172.6h-93.4004zM515.96 565.87l67.2422 20.4287c22.5703 -73.3203 10.5605 -124.38 -24.6592 -149.38c-14.21 -10.2998 -31.7803 -16.3701 -52.1904 -17.7305c34.2998 -45.79 53.3896 -104.76 53.3896 -169.189
c0 -146 -98 -264 -249 -264c-150 0 -249 118 -249 264c0 147 99 265 249 264c55.9199 0 104.58 -16.1904 143.68 -43.9902c21.5996 -4.01953 39.1191 -1.06934 50.709 8.05078c19.2695 15.1299 23.8193 46.1201 10.8291 87.8105zM310.742 66.8086
c98.6797 0 159.649 75.2383 159.649 183.188s-60.9697 183.181 -159.649 183.181c-99.5703 0.0595703 -160.59 -76.1201 -159.649 -183.18c0 -107.01 61.9697 -183.189 159.649 -183.189z" />
    <glyph glyph-name="ohornhookabove" unicode="&#x1edf;" horiz-adv-x="621" 
d="M335.39 749.13c-22.3701 -0.0800781 -49.9795 -5.96973 -70.1592 -12.2793l-30.4697 61.2598c32.7197 14.3301 67.2598 20.0801 101.34 20.0801c64.21 0 116.91 -19.1904 116.92 -99.6406c-0.00976562 -54.4697 -24.7197 -70.7295 -85.6396 -102.05
c-22.8896 -11.4199 -33.29 -17.1797 -35.3203 -34.8799h-74.6201c1.79004 61.2695 42.4199 82.4092 77.8496 99.6895c39.8301 19.4102 43.5303 30.29 43.4004 42.0098c-0.25 18.4697 -14.8203 25.9102 -43.3008 25.8105zM515.95 565.881l67.251 20.418
c22.5703 -73.3096 10.5508 -124.38 -24.6689 -149.38c-14.21 -10.29 -31.7803 -16.3701 -52.1807 -17.7197c34.2998 -45.79 53.3799 -104.771 53.3799 -169.2c0 -146 -98 -264 -249 -264c-150 0 -249 118 -249 264c0 147 99 265 249 264
c55.9297 0 104.58 -16.1797 143.68 -43.9795c21.6104 -4.01953 39.1299 -1.0791 50.7197 8.05078c19.2695 15.1299 23.8096 46.1104 10.8193 87.8105zM310.741 66.8184c98.6797 0 159.649 75.2295 159.649 183.18s-60.9697 183.19 -159.66 183.19
c-99.5596 0.0498047 -160.59 -76.1201 -159.649 -183.19c0 -107 61.9697 -183.18 159.66 -183.18z" />
    <glyph glyph-name="ohorntilde" unicode="&#x1ee1;" horiz-adv-x="621" 
d="M236.46 640.22c-20.5498 0.169922 -41.7197 -20.3594 -69.0898 -61.959l-55.5703 42.0596c25.71 36.7402 64.1299 100 128.09 100c37.9404 0 71.5908 -22.8896 96.4707 -40.8896c18.5596 -13.46 34.0293 -23.6396 48.4795 -23.2695
c20.0596 -0.370117 41.29 18.6797 69.3301 61.8193l55.54 -42.04c-39.5596 -57.1299 -67.6191 -98.1895 -126.689 -99.1299c-43.1299 0 -71.1895 21.7598 -96.1797 39.8193c-17.3604 12.3604 -34.7607 23.75 -50.3809 23.5898zM515.96 565.871l67.251 20.4287
c22.5703 -73.3203 10.5508 -124.38 -24.6689 -149.38c-14.21 -10.2998 -31.7803 -16.3701 -52.1807 -17.7305c34.2998 -45.79 53.3799 -104.76 53.3799 -169.189c0 -146 -98 -264 -249 -264c-150 0 -249 118 -249 264c0 147 99 265 249 264
c55.9297 0 104.58 -16.1904 143.68 -43.9902c21.6104 -4.01953 39.1299 -1.06934 50.7197 8.05078c19.2695 15.1299 23.8096 46.1201 10.8193 87.8105zM310.751 66.8096c98.6797 0 159.649 75.2383 159.649 183.188s-60.9697 183.181 -159.66 183.181
c-99.5596 0.0595703 -160.59 -76.1201 -159.649 -183.18c0 -107.01 61.9697 -183.189 159.66 -183.189z" />
    <glyph glyph-name="ohungarumlaut" unicode="&#x151;" horiz-adv-x="621" 
d="M259.14 564.4h-93.4004l127.78 172.6h105zM457.77 564.4h-93.3896l127.77 172.6h105zM310.74 514c151 0 249 -118 249 -264s-98 -264 -249 -264c-150 0 -249 118 -249 264c0 147 99 265 249 264zM310.74 433.18c-99.5703 0.0595703 -160.59 -76.1221 -159.649 -183.182
c0 -107.01 61.9697 -183.189 159.649 -183.189c98.6797 0 159.649 75.2402 159.649 183.19s-60.9697 183.181 -159.649 183.181z" />
    <glyph glyph-name="omacron" unicode="&#x14d;" horiz-adv-x="621" 
d="M474.61 589.12h-327.73v81.75h327.73v-81.75zM310.74 514c151 0 249 -118 249 -264s-98 -264 -249 -264c-150 0 -249 118 -249 264c0 147 99 265 249 264zM310.74 433.18c-99.5703 0.0595703 -160.59 -76.1221 -159.649 -183.182
c0 -107.01 61.9697 -183.189 159.649 -183.189c98.6797 0 159.649 75.2402 159.649 183.19s-60.9697 183.181 -159.649 183.181z" />
    <glyph glyph-name="oslash" unicode="&#xf8;" horiz-adv-x="621" 
d="M505.95 550l-44.0703 -87.4395c60.8301 -48.04 97.8604 -125.3 97.8604 -212.569c0 -146 -98 -264 -249 -264c-29.6201 0 -57.2402 4.59961 -82.5098 13.1094l-24.7598 -49.1104h-87.9404l43.5098 86.2998c-61.3701 47.9502 -97.2998 125.75 -97.2998 213.7
c0 147 99 265 249 264c29.29 0 56.8896 -4.79004 82.2793 -13.6299l25.0303 49.6396h87.9004zM151.09 249.99c0 -55.9502 16.9502 -103.479 47.0898 -136.09l158.01 313.39c-14.0703 3.86035 -29.25 5.89062 -45.4502 5.89062
c-99.5596 0.0498047 -160.59 -76.1201 -159.649 -183.19zM310.75 66.8115c98.6797 0 159.649 75.2402 159.649 183.19c0 56.5303 -16.7197 104.09 -46.8193 136.57l-158.17 -313.74c14.0596 -3.9502 29.21 -6.02051 45.3398 -6.02051z" />
    <glyph glyph-name="otilde" unicode="&#xf5;" horiz-adv-x="621" 
d="M239.88 720.32c37.9502 0 71.6006 -22.8799 96.4805 -40.8799c18.5596 -13.4697 34.0293 -23.6396 48.4795 -23.2695c20.0596 -0.370117 41.29 18.6699 69.3301 61.8096l55.54 -42.0303c-39.5596 -57.1396 -67.6191 -98.1992 -126.689 -99.1396
c-43.1299 0 -71.1895 21.7695 -96.1797 39.8193c-17.3604 12.3604 -34.7607 23.7607 -50.3809 23.5908c-20.5498 0.169922 -41.7295 -20.3604 -69.0996 -61.96l-55.5703 42.0596c25.71 36.7402 64.1299 100 128.09 100zM310.75 514c151 0 249 -118 249 -264
s-98 -264 -249 -264c-150 0 -249 118 -249 264c0 147 99 265 249 264zM310.74 433.19c-99.5596 0.0498047 -160.59 -76.1211 -159.649 -183.191c0 -107 61.9697 -183.18 159.66 -183.18c98.6797 0 159.649 75.2305 159.649 183.181s-60.9697 183.19 -159.66 183.19z" />
    <glyph glyph-name="oe" unicode="&#x153;" horiz-adv-x="998" 
d="M310.74 514c90.6904 0 162.07 -42.9893 204.051 -108.819c40.8799 66.3604 110.479 109.431 198.229 108.82c156.23 0 232.351 -117.51 232.66 -263.08c0 -7.29004 -0.240234 -14.5 -0.709961 -21.6396l-383.41 0.0195312
c0.379883 -4.74023 0.889648 -9.40039 1.51953 -13.9902c11.4102 -88.2402 68.3105 -148.5 152.541 -148.5c53.3301 0 107.93 15.3398 163.58 46.0596l22.1797 -58.5303c-58.4102 -45.0596 -127.641 -68.3398 -188.36 -68.3398c-87.5898 0 -157.09 43.1396 -197.99 109.17
c-41.96 -66.0303 -113.44 -109.17 -204.29 -109.17c-150 0 -249 118 -249 264c0 147 99 265 249 264zM310.73 433.191c-99.5596 0.0498047 -160.579 -76.1211 -159.639 -183.191c0 -107 61.9697 -183.18 159.649 -183.18c98.6797 0 159.649 75.2305 159.649 183.181
s-60.9697 183.19 -159.66 183.19zM715.62 433.19c-80.8799 0.0498047 -135.63 -53.46 -150.56 -133.49h291.06c-11.8096 80.5098 -55.8096 133.49 -140.5 133.49z" />
    <glyph glyph-name="p" unicode="p" horiz-adv-x="603" 
d="M326.61 514c127.24 0 216.06 -115.669 216.5 -263.999c-0.509766 -168.15 -104.229 -263.48 -219.21 -264.08c-57.71 -0.320312 -118.13 23.3193 -169.53 73.3896v-259.32h-85.5195v700h85.5195v-64.9805c50.21 52.0703 110.45 78.9902 172.24 78.9902zM319.579 64.4209
c75.1797 1.01953 134.679 60.6113 134.679 185.571c0 108.55 -49.96 183.189 -134.3 183.189c-49.5 0 -113.97 -24.9697 -165.59 -79.1094v-203.44c52.7305 -54.6104 112.811 -86.9307 165.211 -86.2109z" />
    <glyph glyph-name="thorn" unicode="&#xfe;" horiz-adv-x="603" 
d="M322.67 514c131.77 0.94043 220.451 -115.68 220.451 -264.01c0 -148.22 -88.5703 -265 -220.511 -264c-55.3203 0 -118.511 26.9004 -168.241 78.9102v-264.91h-85.5195v900h85.5195v-264.95c49.7305 52.0498 112.98 78.96 168.301 78.96zM322.262 66.7998
c81.3301 0 132.439 74.9297 131.499 183.189c0.94043 108.54 -50.4697 183.18 -131.5 183.18c-55.0498 0 -118.13 -26.75 -167.89 -79.0898v-208.22c49.8398 -52.4297 112.91 -79.0596 167.891 -79.0596z" />
    <glyph glyph-name="q" unicode="q" horiz-adv-x="602" 
d="M517.68 500l0.000976562 -700h-85.5303v259.32c-51.4004 -50.0703 -111.82 -73.71 -169.53 -73.3896c-114.97 0.599609 -218.7 95.9297 -219.2 264.069c0.44043 148.34 89.25 264 216.5 264c61.79 0 122.03 -26.9102 172.24 -78.9805v64.9805h85.5195zM266.95 64.4199
c52.4004 -0.719727 112.479 31.5996 165.21 86.2197v203.44c-51.6201 54.1396 -116.09 79.0996 -165.59 79.0996c-84.3398 0 -134.3 -74.6396 -134.3 -183.18c0 -124.96 59.5 -184.57 134.68 -185.58z" />
    <glyph glyph-name="r" unicode="r" horiz-adv-x="394" 
d="M359.63 514.67c4.49023 0 8.95117 -0.129883 13.3711 -0.360352l-15.2402 -86.9404c-5.03027 0.459961 -10.25 0.620117 -15.7002 0.480469c-58.29 0.0195312 -124.23 -24.7207 -179.5 -74.0107v-353.85h-85.5303v500h85.5303v-70.8496
c59.5 56.8301 132.77 85.5498 197.069 85.5303z" />
    <glyph glyph-name="racute" unicode="&#x155;" horiz-adv-x="394" 
d="M240.4 563.7h-93.4004l127.78 172.6h105zM162.56 500l0.000976562 -70.8496c59.5 56.8203 132.77 85.54 197.069 85.5205c4.49023 0 8.9502 -0.120117 13.3701 -0.360352l-15.2402 -86.9404c-5.03027 0.459961 -10.25 0.629883 -15.7002 0.490234
c-58.29 0.0195312 -124.23 -24.7207 -179.5 -74.0107v-353.85h-85.5303v500h85.5303z" />
    <glyph glyph-name="rcaron" unicode="&#x159;" horiz-adv-x="394" 
d="M150.11 564.4l-152.25 172.6h104.7l94.25 -115.42l94.25 115.42h104.7l-152.25 -172.6h-93.4004zM162.551 500l0.000976562 -70.8496c59.5 56.8203 132.77 85.54 197.069 85.5205c4.49023 0 8.9502 -0.120117 13.3701 -0.360352l-15.2402 -86.9404
c-5.03027 0.459961 -10.25 0.629883 -15.7002 0.490234c-58.29 0.0195312 -124.23 -24.7207 -179.5 -74.0107v-353.85h-85.5303v500h85.5303z" />
    <glyph glyph-name="rcommaaccent" unicode="&#x157;" horiz-adv-x="394" 
d="M359.63 514.67c4.49023 0 8.95117 -0.129883 13.3711 -0.360352l-15.2402 -86.9404c-5.03027 0.459961 -10.25 0.620117 -15.7002 0.480469c-58.29 0.0195312 -124.23 -24.7207 -179.5 -74.0107v-353.85h-85.5303v500h85.5303v-70.8496
c59.5 56.8301 132.77 85.5498 197.069 85.5303zM202.341 -62.0498c23.3096 0.30957 42.1006 -16.8691 46.8008 -45.0889c7.88965 -47.3203 -28.1299 -115.65 -74.8604 -151.631l-30.9199 19.75c23.4102 23.1396 39.6201 49.8496 46.4199 87.8799
c-17.4199 4.90039 -33.0303 21.3301 -33.0107 43.8496c-0.0195312 25.1699 20.3008 45.5498 45.5703 45.2402z" />
    <glyph glyph-name="s" unicode="s" horiz-adv-x="486" 
d="M242.83 514.02c65.1699 -0.0195312 139.939 -18.8398 185.649 -66.1895l-39.7998 -60.1504c-30.8604 33.4004 -87.5 51.1602 -143.62 51.1602c-63.3301 0 -106.72 -22.46 -106.54 -70.3398c-0.179688 -37.0596 25.9707 -50.1191 118.251 -74.1787
c78.7002 -20.9404 186.95 -44.8301 187.891 -155.07c0.94043 -109.72 -108.14 -153.25 -206.31 -153.23c-79.8301 -0.0195312 -158.47 28.8506 -197.479 81.1504l39.9297 60.5801c29.7998 -43.54 92.96 -67.5303 156 -67.6699
c66.3496 0.139648 122.279 28.1299 122.279 79.1104c0 51.2598 -54.5703 59.8994 -126.03 79.0195c-126.24 33.4697 -179.351 64.6602 -179.171 146.3c-0.179688 109.89 94.5898 149.489 188.95 149.509z" />
    <glyph glyph-name="sacute" unicode="&#x15b;" horiz-adv-x="486" 
d="M285.05 563.7h-93.3896l127.77 172.6h105zM242.84 514.021c65.1699 -0.0195312 139.929 -18.8398 185.648 -66.1895l-39.7998 -60.1504c-30.8701 33.4004 -87.5098 51.1602 -143.62 51.1602c-63.3398 0 -106.72 -22.46 -106.55 -70.3398
c-0.169922 -37.0596 25.9805 -50.1191 118.261 -74.1787c78.7002 -20.9404 186.94 -44.8301 187.881 -155.07c0.94043 -109.72 -108.14 -153.25 -206.3 -153.23c-79.8398 -0.0195312 -158.479 28.8506 -197.479 81.1504l39.9297 60.5801
c29.79 -43.54 92.96 -67.5303 155.99 -67.6699c66.3496 0.139648 122.279 28.1299 122.279 79.1104c0 51.2598 -54.5703 59.8994 -126.021 79.0195c-126.25 33.4697 -179.35 64.6602 -179.18 146.3c-0.169922 109.89 94.5898 149.489 188.96 149.509z" />
    <glyph glyph-name="scaron" unicode="&#x161;" horiz-adv-x="486" 
d="M194.77 564.4l-152.25 172.6h104.7l94.25 -115.42l94.25 115.42h104.7l-152.25 -172.6h-93.4004zM444.649 139.24c0.94043 -109.72 -108.141 -153.24 -206.301 -153.221c-79.8398 -0.0195312 -158.479 28.8506 -197.479 81.1504l39.9297 60.5801
c29.79 -43.54 92.96 -67.5303 155.99 -67.6699c66.3496 0.139648 122.279 28.1299 122.279 79.1104c0 51.2598 -54.5703 59.8994 -126.021 79.0195c-126.25 33.4697 -179.35 64.6602 -179.18 146.3c-0.169922 109.89 94.5898 149.489 188.96 149.509
c65.1699 -0.0195312 139.93 -18.8496 185.649 -66.1992l-39.7998 -60.1396c-30.8701 33.3896 -87.5098 51.1592 -143.62 51.1592c-63.3398 0 -106.72 -22.4697 -106.55 -70.3496c-0.169922 -37.0596 25.9805 -50.1191 118.261 -74.1787
c78.7002 -20.9404 186.94 -44.8203 187.881 -155.07z" />
    <glyph glyph-name="scedilla" unicode="&#x15f;" horiz-adv-x="486" 
d="M444.65 139.24c0.839844 -97.5703 -85.3193 -142.781 -173.439 -151.591l-9.42969 -31.2402c2.74023 -0.139648 5.45996 -0.349609 8.16016 -0.619141c59.9102 -6.98047 100.66 -43.0508 100.33 -96.7109c0.370117 -60.04 -51.8994 -106.04 -132.76 -107.07
c-43.1504 -1.05957 -102.4 11.1104 -136.261 28.4502l25.3896 55.2695c31.2695 -12.5303 71.1191 -19.0898 102.159 -19.3896c41.2305 0.339844 56.1504 15.7402 56.5 41.8906c-0.349609 24.7402 -13.6895 40.5098 -44.4492 40.2402
c-12.54 0.330078 -40.5898 -4.66016 -54.3594 -10.3701l-17.2002 35.5898l30.8398 64.54c-65.8604 7.65039 -126.521 35.0508 -159.261 78.9404l39.9297 60.5801c29.79 -43.54 92.96 -67.5303 155.99 -67.6699c66.3496 0.139648 122.279 28.1299 122.279 79.1104
c0 51.2598 -54.5703 59.8994 -126.021 79.0195c-126.25 33.4697 -179.35 64.6602 -179.18 146.3c-0.169922 109.89 94.5898 149.489 188.96 149.509c65.1699 -0.0195312 139.93 -18.8496 185.649 -66.1992l-39.7998 -60.1396
c-30.8701 33.3896 -87.5098 51.1592 -143.62 51.1592c-63.3398 0 -106.72 -22.4697 -106.55 -70.3496c-0.169922 -37.0596 25.9805 -50.1191 118.261 -74.1787c78.7002 -20.9404 186.94 -44.8203 187.881 -155.07z" />
    <glyph glyph-name="scommaaccent" unicode="&#x219;" horiz-adv-x="486" 
d="M242.83 514.02c65.1699 -0.0195312 139.939 -18.8398 185.649 -66.1895l-39.7998 -60.1504c-30.8604 33.4004 -87.5 51.1602 -143.62 51.1602c-63.3301 0 -106.72 -22.46 -106.54 -70.3398c-0.179688 -37.0596 25.9707 -50.1191 118.251 -74.1787
c78.7002 -20.9404 186.95 -44.8301 187.891 -155.07c0.94043 -109.72 -108.14 -153.25 -206.31 -153.23c-79.8301 -0.0195312 -158.47 28.8506 -197.479 81.1504l39.9297 60.5801c29.7998 -43.54 92.96 -67.5303 156 -67.6699
c66.3496 0.139648 122.279 28.1299 122.279 79.1104c0 51.2598 -54.5703 59.8994 -126.03 79.0195c-126.24 33.4697 -179.351 64.6602 -179.171 146.3c-0.179688 109.89 94.5898 149.489 188.95 149.509zM241.99 -62.04c23.3096 0.30957 42.1006 -16.8691 46.8008 -45.0889
c7.88965 -47.3203 -28.1299 -115.65 -74.8604 -151.631l-30.9199 19.75c23.4102 23.1396 39.6201 49.8496 46.4199 87.8799c-17.4199 4.90039 -33.0303 21.3301 -33.0107 43.8496c-0.0195312 25.1699 20.3008 45.5498 45.5703 45.2402z" />
    <glyph glyph-name="germandbls" unicode="&#xdf;" horiz-adv-x="716" 
d="M336 750c131 0 222.998 -66.9902 235.998 -173.99c11 -90 -50 -111 -166 -144c-40 -11 -66 -21 -63 -66c2 -33 19 -45 115 -70c69 -18 188 -45 188 -157c0 -111 -117 -153 -211 -153c-85 0 -173 34 -208.21 99.7695l75.5 38.1699
c16.7402 -31.5498 66.7207 -57.0693 134.591 -57.0693c67.3301 0 123.47 25.8701 123.47 73.0703c0 45.4297 -52.4102 59.0898 -123.3 78.0303c-102.76 27.8701 -172.02 50.5498 -179.689 141.37c-9.62988 112.46 89.5098 140.59 126.74 150.66
c92.4102 25.46 105.65 32.0996 102.271 64.9492c-5.41016 51.9199 -49.9297 94.1699 -147.55 94.1699c-99.9502 0 -153.181 -43.6602 -153.181 -111.37v-557.76h-85.6396v557.76c0 116.24 97 192.24 236 192.24z" />
    <glyph glyph-name="t" unicode="t" horiz-adv-x="444" 
d="M367.12 78.71l21.7705 -58.4297c-33.6396 -21.4102 -75.7295 -34.0205 -116.18 -34.2305c-74.6504 -0.389648 -143.71 41.4707 -143.71 148.291v293.46h-99v54.9697l93 15.4297h6v143.8h85.5195v-143.8h151.48v-70.4004h-151.48v-293.46
c0 -54.6602 36 -71.4805 76.7695 -71.25c26.0996 0.139648 54.0498 7.17969 75.8301 15.6201z" />
    <glyph glyph-name="tbar" unicode="&#x167;" horiz-adv-x="444" 
d="M367.12 78.71l21.7705 -58.4404c-33.6396 -21.4004 -75.7295 -34.0205 -116.18 -34.2305c-74.6504 -0.379883 -143.71 41.4805 -143.71 148.301v144.48h-99v70.4004h99v78.5801h-99v54.9697l93 15.4199h6v143.8h85.5195v-143.8h151.48v-70.3896h-151.48v-78.5801h143.21
v-70.4004h-143.21v-144.48c0 -54.6602 36 -71.4805 76.7695 -71.25c26.0996 0.139648 54.0498 7.17969 75.8301 15.6201z" />
    <glyph glyph-name="tcaron" unicode="&#x165;" horiz-adv-x="444" 
d="M454.87 668.91c7.87988 -47.3203 -28.1191 -115.649 -74.8496 -151.63l-30.9297 19.75c23.4199 23.1299 39.6201 49.8496 46.4199 87.8799c-17.4199 4.88965 -33.0303 21.3193 -33.0107 43.8496c-0.0195312 25.1699 20.3008 45.5498 45.5703 45.2402
c23.3096 0.30957 42.0996 -16.8701 46.7998 -45.0898zM291.291 63.0811c26.1104 0.150391 54.0508 7.17969 75.8311 15.6299l21.7695 -58.4404c-33.6299 -21.4004 -75.7197 -34.0205 -116.17 -34.2305c-74.6504 -0.379883 -143.721 41.4805 -143.721 148.301v293.46h-99
v54.9697l93 15.4199h6v143.8h85.5303v-143.8h151.47v-70.3896h-151.47v-293.46c0 -54.6699 36 -71.4795 76.7598 -71.2598z" />
    <glyph glyph-name="tcedilla" unicode="&#x163;" horiz-adv-x="444" 
d="M252.5 -44.21c59.9004 -6.98047 100.641 -43.0518 100.32 -96.7119c0.360352 -60.04 -51.9092 -106.04 -132.77 -107.07c-43.1504 -1.05957 -102.391 11.1104 -136.261 28.4502l25.4004 55.2695c31.2598 -12.5303 71.1094 -19.0898 102.149 -19.3896
c41.2305 0.339844 56.1602 15.7402 56.5098 41.8906c-0.360352 24.7402 -13.6904 40.5098 -44.4502 40.2402c-12.5498 0.330078 -40.5898 -4.66016 -54.3594 -10.3701l-17.21 35.5898l39.5303 82.7197c-36.8203 22.0195 -62.3701 62.96 -62.3701 127.94v293.46h-99v54.9697
l93 15.4199h6v143.8h85.5303v-143.8h151.47v-70.3896h-151.47v-293.46c0 -54.6699 36 -71.4795 76.7598 -71.2598c26.1104 0.150391 54.0508 7.18066 75.8311 15.6309l21.7695 -58.4404c-33.6299 -21.4004 -75.7197 -34.0205 -116.17 -34.2305
c-6.4502 -0.0302734 -12.8506 0.25 -19.1709 0.860352l-9.20996 -30.5c2.75 -0.139648 5.46973 -0.349609 8.16992 -0.619141z" />
    <glyph glyph-name="uni021B" unicode="&#x21b;" horiz-adv-x="444" 
d="M367.12 78.71l21.7705 -58.4297c-33.6396 -21.4102 -75.7295 -34.0205 -116.18 -34.2305c-74.6504 -0.389648 -143.71 41.4707 -143.71 148.291v293.46h-99v54.9697l93 15.4297h6v143.8h85.5195v-143.8h151.48v-70.4004h-151.48v-293.46
c0 -54.6602 36 -71.4805 76.7695 -71.25c26.0996 0.139648 54.0498 7.17969 75.8301 15.6201zM224.541 -62.04c23.3096 0.30957 42.1006 -16.8691 46.8008 -45.0889c7.88965 -47.3203 -28.1299 -115.65 -74.8604 -151.631l-30.9199 19.75
c23.4102 23.1396 39.6201 49.8496 46.4199 87.8799c-17.4199 4.90039 -33.0303 21.3301 -33.0107 43.8496c-0.0195312 25.1699 20.3008 45.5498 45.5703 45.2402z" />
    <glyph glyph-name="u" unicode="u" horiz-adv-x="581" 
d="M508.8 500l0.000976562 -500h-85.5303v63.1904c-53.4004 -51.1104 -120.351 -77.1904 -178.471 -77.1904c-94.9404 0 -172.771 58.3496 -172.771 188v326h85.5303v-326c0 -69.8496 35.0898 -108.13 95.7803 -108.13c55.1797 0 118.18 23.6201 169.93 69.7197v364.41
h85.5303z" />
    <glyph glyph-name="uacute" unicode="&#xfa;" horiz-adv-x="581" 
d="M334.48 563.7h-93.4004l127.78 172.6h105zM508.8 500l0.000976562 -500h-85.5303v63.1904c-53.4004 -51.1104 -120.351 -77.1904 -178.471 -77.1904c-94.9404 0 -172.771 58.3496 -172.771 188v326h85.5303v-326c0 -69.8496 35.0898 -108.13 95.7803 -108.13
c55.1797 0 118.18 23.6201 169.93 69.7197v364.41h85.5303z" />
    <glyph glyph-name="ucaron" unicode="&#x1d4;" horiz-adv-x="581" 
d="M244.19 564.4l-152.25 172.6h104.7l94.25 -115.42l94.25 115.42h104.7l-152.25 -172.6h-93.4004zM508.79 500l0.000976562 -500h-85.5303v63.1904c-53.4004 -51.1104 -120.351 -77.1904 -178.471 -77.1904c-94.9404 0 -172.771 58.3496 -172.771 188v326h85.5303v-326
c0 -69.8496 35.0898 -108.13 95.7803 -108.13c55.1797 0 118.18 23.6201 169.93 69.7197v364.41h85.5303z" />
    <glyph glyph-name="ucircumflex" unicode="&#xfb;" horiz-adv-x="581" 
d="M196.62 564.4h-104.689l152.25 172.6h93.3896l152.25 -172.6h-104.7l-94.25 115.41zM508.801 500l0.00292969 -500h-85.5195v63.1904c-53.4102 -51.1104 -120.351 -77.1904 -178.48 -77.1904c-94.9404 0 -172.761 58.3496 -172.761 188v326h85.5195v-326
c0 -69.8496 35.0996 -108.13 95.7793 -108.13c55.1797 0 118.189 23.6201 169.939 69.7197v364.41h85.5195z" />
    <glyph glyph-name="udieresis" unicode="&#xfc;" horiz-adv-x="581" 
d="M184.44 584.26c-29.1299 0 -52.7402 23.6104 -52.7402 52.7402c0 29.1201 23.6104 52.7305 52.7402 52.7305c29.1201 0 52.7305 -23.6104 52.7305 -52.7305c0 -29.1299 -23.6104 -52.7402 -52.7305 -52.7402zM397.311 584.26
c-29.1299 0 -52.7402 23.6104 -52.7402 52.7402c0 29.1201 23.6104 52.7305 52.7402 52.7305c29.1201 0 52.7305 -23.6104 52.7305 -52.7305c0 -29.1299 -23.6104 -52.7402 -52.7305 -52.7402zM508.801 500l0.000976562 -500h-85.5303v63.1904
c-53.4004 -51.1104 -120.351 -77.1904 -178.471 -77.1904c-94.9404 0 -172.771 58.3496 -172.771 188v326h85.5303v-326c0 -69.8496 35.0898 -108.13 95.7803 -108.13c55.1797 0 118.18 23.6201 169.93 69.7197v364.41h85.5303z" />
    <glyph glyph-name="udieresisacute" unicode="&#x1d8;" horiz-adv-x="581" 
d="M334.48 737h-93.4004l127.78 172.6h105zM184.44 584.26c-29.1299 0 -52.7402 23.6104 -52.7402 52.7402c0 29.1201 23.6104 52.7305 52.7402 52.7305c29.1201 0 52.7305 -23.6104 52.7305 -52.7305c0 -29.1299 -23.6104 -52.7402 -52.7305 -52.7402zM344.58 637
c0 29.1201 23.6104 52.7305 52.7305 52.7305c29.1299 0 52.7402 -23.6104 52.7402 -52.7305c0 -29.1299 -23.6104 -52.7402 -52.7402 -52.7402c-29.1201 0 -52.7305 23.6104 -52.7305 52.7402zM508.8 500l0.000976562 -500h-85.5303v63.1904
c-53.4004 -51.1104 -120.351 -77.1904 -178.471 -77.1904c-94.9404 0 -172.771 58.3496 -172.771 188v326h85.5303v-326c0 -69.8496 35.0898 -108.13 95.7803 -108.13c55.1797 0 118.18 23.6201 169.93 69.7197v364.41h85.5303z" />
    <glyph glyph-name="udieresiscaron" unicode="&#x1da;" horiz-adv-x="581" 
d="M244.19 737l-152.25 172.6h104.7l94.25 -115.42l94.25 115.42h104.7l-152.25 -172.6h-93.4004zM131.7 637c0 29.1201 23.6104 52.7305 52.7305 52.7305c29.1299 0 52.7402 -23.6104 52.7402 -52.7305c0 -29.1299 -23.6104 -52.7402 -52.7402 -52.7402
c-29.1201 0 -52.7305 23.6104 -52.7305 52.7402zM344.57 637c0 29.1201 23.6104 52.7305 52.7305 52.7305c29.1299 0 52.7402 -23.6104 52.7402 -52.7305c0 -29.1299 -23.6104 -52.7402 -52.7402 -52.7402c-29.1201 0 -52.7305 23.6104 -52.7305 52.7402zM508.79 500
l0.000976562 -500h-85.5303v63.1904c-53.4004 -51.1104 -120.351 -77.1904 -178.471 -77.1904c-94.9404 0 -172.771 58.3496 -172.771 188v326h85.5303v-326c0 -69.8496 35.0898 -108.13 95.7803 -108.13c55.1797 0 118.18 23.6201 169.93 69.7197v364.41h85.5303z" />
    <glyph glyph-name="udieresisgrave" unicode="&#x1dc;" horiz-adv-x="581" 
d="M244.48 737l-139.38 172.6h105l127.77 -172.6h-93.3896zM131.7 637c0 29.1201 23.6104 52.7305 52.7305 52.7305c29.1299 0 52.7402 -23.6104 52.7402 -52.7305c0 -29.1299 -23.6104 -52.7402 -52.7402 -52.7402c-29.1201 0 -52.7305 23.6104 -52.7305 52.7402z
M397.3 584.26c-29.1201 0 -52.7305 23.6104 -52.7305 52.7402c0 29.1201 23.6104 52.7305 52.7305 52.7305c29.1299 0 52.7402 -23.6104 52.7402 -52.7305c0 -29.1299 -23.6104 -52.7402 -52.7402 -52.7402zM508.79 500l0.00292969 -500h-85.5195v63.1904
c-53.4102 -51.1104 -120.351 -77.1904 -178.48 -77.1904c-94.9404 0 -172.761 58.3496 -172.761 188v326h85.5195v-326c0 -69.8496 35.0996 -108.13 95.7793 -108.13c55.1797 0 118.189 23.6201 169.939 69.7197v364.41h85.5195z" />
    <glyph glyph-name="udieresismacron" unicode="&#x1d6;" horiz-adv-x="581" 
d="M454.74 750.93h-327.73v81.7598h327.73v-81.7598zM131.7 637c0 29.1201 23.6104 52.7305 52.7402 52.7305c29.1201 0 52.7305 -23.6104 52.7305 -52.7305c0 -29.1299 -23.6104 -52.7402 -52.7305 -52.7402c-29.1299 0 -52.7402 23.6104 -52.7402 52.7402zM344.57 637
c0 29.1201 23.6104 52.7305 52.7402 52.7305c29.1201 0 52.7305 -23.6104 52.7305 -52.7305c0 -29.1299 -23.6104 -52.7402 -52.7305 -52.7402c-29.1299 0 -52.7402 23.6104 -52.7402 52.7402zM508.79 500l0.00292969 -500h-85.5195v63.1904
c-53.4102 -51.1104 -120.351 -77.1904 -178.48 -77.1904c-94.9404 0 -172.761 58.3496 -172.761 188v326h85.5195v-326c0 -69.8496 35.0996 -108.13 95.7793 -108.13c55.1797 0 118.189 23.6201 169.939 69.7197v364.41h85.5195z" />
    <glyph glyph-name="udotbelow" unicode="&#x1ee5;" horiz-adv-x="581" 
d="M508.8 500l0.000976562 -500h-85.5303v63.1904c-53.4004 -51.1104 -120.351 -77.1904 -178.471 -77.1904c-94.9404 0 -172.771 58.3496 -172.771 188v326h85.5303v-326c0 -69.8496 35.0898 -108.13 95.7803 -108.13c55.1797 0 118.18 23.6201 169.93 69.7197v364.41
h85.5303zM290.801 -72.7305c29.1299 0 52.7402 -23.6104 52.7402 -52.7305c0 -29.1299 -23.6104 -52.7402 -52.7402 -52.7402c-29.1201 0 -52.7305 23.6104 -52.7305 52.7402c0 29.1201 23.6104 52.7305 52.7305 52.7305z" />
    <glyph glyph-name="ugrave" unicode="&#xf9;" horiz-adv-x="581" 
d="M244.48 564.4l-139.38 172.6h105l127.77 -172.6h-93.3896zM508.791 500l0.00292969 -500h-85.5195v63.1904c-53.4102 -51.1104 -120.351 -77.1904 -178.48 -77.1904c-94.9404 0 -172.761 58.3496 -172.761 188v326h85.5195v-326
c0 -69.8496 35.0996 -108.13 95.7793 -108.13c55.1797 0 118.189 23.6201 169.939 69.7197v364.41h85.5195z" />
    <glyph glyph-name="uhookabove" unicode="&#x1ee7;" horiz-adv-x="581" 
d="M319.27 749.13c-22.3799 -0.0703125 -49.9814 -5.95996 -70.1514 -12.2803l-30.4697 61.2598c32.71 14.3301 67.25 20.0801 101.33 20.0801c64.2197 0 116.91 -19.1797 116.93 -99.6396c-0.0195312 -54.46 -24.7197 -70.7295 -85.6396 -102.05
c-22.8896 -11.4102 -33.2998 -17.1699 -35.3193 -34.8701h-74.6299c1.79004 61.2695 42.4297 82.3994 77.8496 99.6797c39.8301 19.4102 43.54 30.29 43.4004 42.0205c-0.25 18.4697 -14.8096 25.9102 -43.2998 25.7998zM508.787 500.011l0.000976562 -500h-85.5303v63.1904
c-53.4004 -51.1104 -120.351 -77.1904 -178.471 -77.1904c-94.9404 0 -172.771 58.3496 -172.771 188v326h85.5303v-326c0 -69.8496 35.0898 -108.13 95.7803 -108.13c55.1797 0 118.18 23.6201 169.93 69.7197v364.41h85.5303z" />
    <glyph glyph-name="uhorn" unicode="&#x1b0;" horiz-adv-x="581" 
d="M536.85 597.08l67.251 20.4277c22.0703 -72.4697 10.4102 -123 -24.1494 -147.99c-18.3799 -13.54 -42.5 -19.9902 -71.1504 -18.2402v-451.29h-85.5195v63.1904c-53.4102 -51.0996 -120.351 -77.1895 -178.48 -77.1895c-94.9404 0 -172.761 58.3496 -172.761 188v326
h85.5195v-326c0 -69.8496 35.0996 -108.13 95.7793 -108.13c55.1797 0 118.189 23.6201 169.939 69.7305v364.4h69.2998c13.9805 0.0898438 25.5107 3.7002 33.8311 10.5605c18.6904 15.1104 22.96 45.6807 10.4404 86.5303z" />
    <glyph glyph-name="uhornacute" unicode="&#x1ee9;" horiz-adv-x="581" 
d="M334.48 563.7h-93.4004l127.78 172.6h105zM536.85 597.08l67.251 20.4277c22.0703 -72.4697 10.4102 -123 -24.1494 -147.99c-18.3799 -13.54 -42.5 -19.9902 -71.1504 -18.2402v-451.29h-85.5195v63.1904c-53.4102 -51.0996 -120.351 -77.1895 -178.48 -77.1895
c-94.9404 0 -172.761 58.3496 -172.761 188v326h85.5195v-326c0 -69.8496 35.0996 -108.13 95.7793 -108.13c55.1797 0 118.189 23.6201 169.939 69.7305v364.4h69.2998c13.9805 0.0898438 25.5107 3.7002 33.8311 10.5605c18.6904 15.1104 22.96 45.6807 10.4404 86.5303z
" />
    <glyph glyph-name="uhorndotbelow" unicode="&#x1ef1;" horiz-adv-x="581" 
d="M536.84 597.08l67.251 20.4277c22.0801 -72.4697 10.4102 -123 -24.1494 -147.99c-18.3701 -13.54 -42.4902 -19.9902 -71.1406 -18.2402v-451.29h-85.5303v63.1904c-53.4004 -51.0996 -120.351 -77.1895 -178.471 -77.1895c-94.9404 0 -172.771 58.3496 -172.771 188
v326h85.5303v-326c0 -69.8496 35.0898 -108.13 95.7803 -108.13c55.1797 0 118.18 23.6201 169.93 69.7305v364.4h69.2998c13.9902 0.0898438 25.5098 3.7002 33.8301 10.5605c18.6904 15.1104 22.96 45.6807 10.4404 86.5303zM290.801 -72.7324
c29.1299 0 52.7402 -23.6104 52.7402 -52.7305c0 -29.1299 -23.6104 -52.7402 -52.7402 -52.7402c-29.1201 0 -52.7305 23.6104 -52.7305 52.7402c0 29.1201 23.6104 52.7305 52.7305 52.7305z" />
    <glyph glyph-name="uhorngrave" unicode="&#x1eeb;" horiz-adv-x="581" 
d="M244.48 564.4l-139.38 172.6h105l127.77 -172.6h-93.3896zM536.841 597.08l67.251 20.4277c22.0801 -72.4697 10.4102 -123 -24.1494 -147.99c-18.3701 -13.54 -42.4902 -19.9902 -71.1406 -18.2402v-451.29h-85.5303v63.1904
c-53.4004 -51.0996 -120.351 -77.1895 -178.471 -77.1895c-94.9404 0 -172.771 58.3496 -172.771 188v326h85.5303v-326c0 -69.8496 35.0898 -108.13 95.7803 -108.13c55.1797 0 118.18 23.6201 169.93 69.7305v364.4h69.2998
c13.9902 0.0898438 25.5098 3.7002 33.8301 10.5605c18.6904 15.1104 22.96 45.6807 10.4404 86.5303z" />
    <glyph glyph-name="uhornhookabove" unicode="&#x1eed;" horiz-adv-x="581" 
d="M319.27 749.13c-22.3799 -0.0703125 -49.9814 -5.95996 -70.1514 -12.2803l-30.4697 61.2598c32.71 14.3301 67.25 20.0801 101.33 20.0801c64.2197 0 116.91 -19.1797 116.93 -99.6396c-0.0195312 -54.46 -24.7197 -70.7295 -85.6396 -102.05
c-22.8896 -11.4102 -33.2998 -17.1699 -35.3193 -34.8701h-74.6299c1.79004 61.2695 42.4297 82.3994 77.8496 99.6797c39.8301 19.4102 43.54 30.29 43.4004 42.0205c-0.25 18.4697 -14.8096 25.9102 -43.2998 25.7998zM536.838 597.091l67.251 20.4424
c22.0703 -72.4805 10.4102 -123.011 -24.1494 -148.001c-18.3799 -13.54 -42.5 -19.9805 -71.1504 -18.2402v-451.28h-85.5195v63.1904c-53.4102 -51.1104 -120.351 -77.1904 -178.48 -77.1904c-94.9404 0 -172.761 58.3496 -172.761 188v326h85.5195v-326
c0 -69.8496 35.0996 -108.13 95.7793 -108.13c55.1797 0 118.189 23.6201 169.939 69.7197v364.41h69.2998c13.9805 0.0898438 25.5107 3.68945 33.8311 10.5596c18.6904 15.1104 22.96 45.6699 10.4404 86.5195z" />
    <glyph glyph-name="uhorntilde" unicode="&#x1eef;" horiz-adv-x="581" 
d="M216.59 640.22c-20.5498 0.160156 -41.7197 -20.3506 -69.0898 -61.9502l-55.5703 42.0498c25.71 36.75 64.1299 100 128.09 100c37.9404 0 71.5908 -22.8799 96.4707 -40.8799c18.5596 -13.4697 34.0293 -23.6396 48.4795 -23.2695
c20.0596 -0.370117 41.29 18.6699 69.3301 61.8096l55.54 -42.0303c-39.5596 -57.1396 -67.6191 -98.1992 -126.689 -99.1396c-43.1299 0 -71.1895 21.7695 -96.1797 39.8193c-17.3604 12.3604 -34.7607 23.7607 -50.3809 23.5908zM536.859 597.089l67.251 20.4277
c22.0703 -72.4697 10.4102 -123 -24.1494 -147.99c-18.3799 -13.54 -42.5 -19.9902 -71.1504 -18.2402v-451.29h-85.5195v63.1904c-53.4102 -51.0996 -120.351 -77.1895 -178.48 -77.1895c-94.9404 0 -172.761 58.3496 -172.761 188v326h85.5195v-326
c0 -69.8496 35.0996 -108.13 95.7793 -108.13c55.1797 0 118.189 23.6201 169.939 69.7305v364.4h69.2998c13.9805 0.0898438 25.5107 3.7002 33.8311 10.5605c18.6904 15.1104 22.96 45.6807 10.4404 86.5303z" />
    <glyph glyph-name="uhungarumlaut" unicode="&#x171;" horiz-adv-x="581" 
d="M239.27 564.4h-93.4004l127.78 172.6h105zM344.509 564.4l127.77 172.6h105l-139.38 -172.6h-93.3896zM423.269 500h85.5312v-500h-85.5303v63.1904c-53.4004 -51.1104 -120.351 -77.1904 -178.471 -77.1904c-94.9404 0 -172.771 58.3496 -172.771 188v326h85.5303v-326
c0 -69.8496 35.0898 -108.13 95.7803 -108.13c55.1797 0 118.18 23.6201 169.93 69.7197v364.41z" />
    <glyph glyph-name="umacron" unicode="&#x16b;" horiz-adv-x="581" 
d="M454.74 589.12h-327.73v81.75h327.73v-81.75zM508.8 500l0.000976562 -500h-85.5303v63.1904c-53.4004 -51.1104 -120.351 -77.1904 -178.471 -77.1904c-94.9404 0 -172.771 58.3496 -172.771 188v326h85.5303v-326c0 -69.8496 35.0898 -108.13 95.7803 -108.13
c55.1797 0 118.18 23.6201 169.93 69.7197v364.41h85.5303z" />
    </font>
</defs>
</svg>
