<?xml version="1.0" standalone="no"?>
<!DOCTYPE svg PUBLIC "-//W3C//DTD SVG 1.1//EN" "http://www.w3.org/Graphics/SVG/1.1/DTD/svg11.dtd" >
<svg xmlns="http://www.w3.org/2000/svg" xmlns:xlink="http://www.w3.org/1999/xlink" version="1.1">
<metadata>
Created by FontForge 20190801 at Fri Jun  5 11:37:00 2015
 By root
Copyright (c) 2015 by Jonathan Hill. All rights reserved.
</metadata>
<defs>
<font id="Halcom-Light" horiz-adv-x="621" >
  <font-face 
    font-family="Halcom Light"
    font-weight="300"
    font-stretch="normal"
    units-per-em="1000"
    panose-1="0 0 4 0 0 0 0 0 0 0"
    ascent="750"
    descent="-250"
    x-height="500"
    cap-height="700"
    bbox="-52.7295 -253.868 1365.7 1140.82"
    underline-thickness="50"
    underline-position="-100"
    stemh="35"
    stemv="41"
    unicode-range="U+0020-FB02"
  />
<missing-glyph horiz-adv-x="500" 
d="M0 0v700h500v-700h-500zM250 395l170 255h-340zM280 350l170 -255v510zM80 50h340l-170 255zM50 605v-510l170 255z" />
    <glyph glyph-name="fi" unicode="fi" horiz-adv-x="659" 
d="M553.02 479.07l0.00976562 -479.08h-37.1797v447.61h-343.99v-447.61h-37.8604v447.61h-99v24.5703l93 6.88965h6v49.1699c0 128.44 72.1904 185.761 160.29 185.761c45.3301 0 95.1201 -13.9404 142.03 -41.1309l-10.1396 -28.3398
c-43.9697 23.6299 -88.0996 35.3701 -129.34 35.29c-71.2002 0 -124.98 -47.4805 -124.98 -149.771v-50.9697h381.16z" />
    <glyph glyph-name="fl" unicode="fl" horiz-adv-x="774" 
d="M134 479.07v49.1592c0 128.44 72.1904 185.761 160.29 185.761c45.3301 0 95.1201 -13.9404 142.03 -41.1309l-10.1396 -28.3398c-43.9697 23.6299 -88.0996 35.3701 -129.34 35.29c-71.2002 0 -124.98 -47.4805 -124.98 -149.771v-50.9697h199.14v-31.4697h-199.14
v-447.6h-37.8604v447.6h-99v24.5703l93 6.90039h6zM719.39 26.4395l11.1611 -29.8398c-21.0596 -6.73047 -43.2393 -10.4404 -64.9395 -10.5508c-74.6504 -0.389648 -143.71 41.4707 -143.71 148.291v565.66h37.1699v-565.66c0 -83.7598 53.3096 -114.93 112.689 -114.62
c16.0098 0.0898438 31.8594 2.37988 47.6289 6.71973z" />
    <glyph glyph-name=".notdef" horiz-adv-x="500" 
d="M0 0v700h500v-700h-500zM250 395l170 255h-340zM280 350l170 -255v510zM80 50h340l-170 255zM50 605v-510l170 255z" />
    <glyph glyph-name="A" unicode="A" horiz-adv-x="696" 
d="M652.54 0h-43.5195l-72.4805 183.7h-376.81l-72.4902 -183.7h-43.5195l279.14 700h50.54zM173.15 218.99h349.961l-174.98 442.94z" />
    <glyph glyph-name="Aacute" unicode="&#xc1;" horiz-adv-x="696" 
d="M368.08 756.17h-43.2803l127.78 172.6h50.5898zM652.54 -0h-43.5098l-72.4902 183.7h-376.81l-72.4805 -183.7h-43.5195l279.13 700h50.5498zM173.16 218.99h349.961l-174.98 442.94z" />
    <glyph glyph-name="Abreve" unicode="&#x102;" horiz-adv-x="696" 
d="M489.54 934h37.9297c0 -90.1797 -70.5498 -163.06 -179.25 -163.06c-107.99 0 -179.26 72.8799 -179.26 163.06h37.9297c0 -72.7695 57.0303 -128.21 141.33 -128.21c84.9102 0 141.32 55.3496 141.32 128.21zM652.529 0h-43.5098l-72.4902 183.7h-376.81
l-72.4805 -183.7h-43.5195l279.13 700h50.5498zM173.149 218.99h349.961l-174.98 442.94z" />
    <glyph glyph-name="Abreveacute" unicode="&#x1eae;" horiz-adv-x="696" 
d="M368.08 937h-43.2803l127.78 172.6h50.5898zM489.54 934h37.9395c0 -90.1797 -70.5498 -163.06 -179.26 -163.06c-107.99 0 -179.26 72.8799 -179.26 163.06h37.9404c0 -72.7695 57.0195 -128.21 141.319 -128.21c84.9102 0 141.32 55.3496 141.32 128.21zM652.539 0
h-43.5195l-72.4805 183.7h-376.81l-72.4902 -183.7h-43.5195l279.14 700h50.54zM173.149 218.99h349.961l-174.98 442.94z" />
    <glyph glyph-name="Abrevedotbelow" unicode="&#x1eb6;" horiz-adv-x="696" 
d="M489.54 934h37.9297c0 -90.1797 -70.5498 -163.06 -179.25 -163.06c-107.99 0 -179.26 72.8799 -179.26 163.06h37.9297c0 -72.7695 57.0303 -128.21 141.33 -128.21c84.9102 0 141.32 55.3496 141.32 128.21zM652.529 0h-43.5098l-72.4902 183.7h-376.81
l-72.4805 -183.7h-43.5195l279.13 700h50.5498zM173.149 218.99h349.961l-174.98 442.94zM348.21 -97.3096c15.5996 0 28.25 -12.6504 28.25 -28.25s-12.6504 -28.2393 -28.25 -28.2393s-28.2393 12.6396 -28.2393 28.2393s12.6396 28.25 28.2393 28.25z" />
    <glyph glyph-name="Abrevegrave" unicode="&#x1eb0;" horiz-adv-x="696" 
d="M370.94 937h-43.2803l-135.09 172.6h50.5898zM489.54 934h37.9395c0 -90.1797 -70.5498 -163.06 -179.26 -163.06c-107.99 0 -179.26 72.8799 -179.26 163.06h37.9404c0 -72.7695 57.0195 -128.21 141.319 -128.21c84.9102 0 141.32 55.3496 141.32 128.21zM652.539 0
h-43.5195l-72.4805 183.7h-376.81l-72.4902 -183.7h-43.5195l279.14 700h50.54zM173.149 218.99h349.961l-174.98 442.94z" />
    <glyph glyph-name="Abrevehookabove" unicode="&#x1eb2;" horiz-adv-x="696" 
d="M361.4 1140.82c61.4297 0 115.941 -20.0918 116.102 -95.7617c-0.160156 -52.7598 -27.8906 -68.8096 -85.1504 -96.8594c-27.1299 -13.21 -41.2002 -20.5996 -42.3203 -44.3896h-34.8701c1.17969 43.6602 30.4795 59.0703 62.1895 74.4307
c49.7402 23.8496 65.29 35.2695 65.3701 68.3994c-0.209961 47.3203 -35.3203 61.8701 -81.5605 61.8301c-32.2305 -0.0195312 -64.0303 -7.25 -89.1504 -18.4697l-14.5996 28.79c30.1396 14.2998 66.6299 22.0303 103.99 22.0303zM489.532 933.988h37.9395
c0 -90.1797 -70.5498 -163.06 -179.26 -163.06c-107.99 0 -179.26 72.8799 -179.26 163.06h37.9404c0 -72.7695 57.0195 -128.21 141.319 -128.21c84.9102 0 141.32 55.3496 141.32 128.21zM652.531 -0.0117188h-43.5195l-72.4805 183.7h-376.81l-72.4902 -183.7h-43.5195
l279.14 700h50.54zM173.142 218.979h349.961l-174.98 442.94z" />
    <glyph glyph-name="Abrevetilde" unicode="&#x1eb4;" horiz-adv-x="696" 
d="M273.97 1060.3c37.3096 0 67.1885 -21.6289 90.8184 -39.6289c24.5801 -18.4902 45.0703 -30.5498 64.5605 -30.4297c31.3496 -0.120117 55.0996 30.2295 75.3096 60.6797l26.7598 -19.29c-24.2998 -35.1797 -52.9795 -76.8594 -102.01 -77.1797
c-33.71 0 -62.3896 19.2598 -87.2793 37.9297c-21.2998 16.2598 -42.9395 31.9395 -69.2998 31.8799c-33.2803 0.0595703 -56.3799 -26.1406 -81.0195 -62.9209l-26.7998 19.2598c24.1699 35.2803 56.3096 79.7002 108.96 79.7002zM489.529 934.001h37.9395
c0 -90.1797 -70.5498 -163.06 -179.26 -163.06c-107.99 0 -179.26 72.8799 -179.26 163.06h37.9404c0 -72.7695 57.0195 -128.21 141.319 -128.21c84.9102 0 141.32 55.3496 141.32 128.21zM652.528 0.000976562h-43.5195l-72.4805 183.7h-376.81l-72.4902 -183.7h-43.5195
l279.14 700h50.54zM173.139 218.991h349.961l-174.98 442.94z" />
    <glyph glyph-name="Acaron" unicode="&#x1cd;" horiz-adv-x="696" 
d="M326.83 764.4l-146.591 172.6h47.0498l121.19 -146.45l121.19 146.45h47.04l-146.6 -172.6h-43.2803zM652.549 0h-43.5195l-72.4805 183.7h-376.81l-72.4902 -183.7h-43.5195l279.14 700h50.54zM523.119 218.99l-174.979 442.95l-174.98 -442.95h349.96z" />
    <glyph glyph-name="Acircumflex" unicode="&#xc2;" horiz-adv-x="696" 
d="M227.03 764.4h-47.0586l146.6 172.6h43.2803l146.6 -172.6h-47.04l-121.19 146.45zM652.531 0h-43.5195l-72.4805 183.7h-376.81l-72.4902 -183.7h-43.5195l279.14 700h50.54zM523.102 218.99l-174.979 442.94l-174.98 -442.94h349.96z" />
    <glyph glyph-name="Acircumflexacute" unicode="&#x1ea4;" horiz-adv-x="696" 
d="M570.25 825h-43.2695l127.77 172.6h50.5898zM227.03 764.4h-47.0488l146.6 172.6h43.2803l146.6 -172.6h-47.0498l-121.19 146.45zM373.401 699.99l279.14 -700h-43.5195l-72.4902 183.7h-376.81l-72.4805 -183.7h-43.5195l279.13 700h50.5498zM523.111 218.98
l-174.979 442.95l-174.98 -442.95h349.96z" />
    <glyph glyph-name="Acircumflexdotbelow" unicode="&#x1eac;" horiz-adv-x="696" 
d="M227.03 764.4h-47.0586l146.6 172.6h43.2803l146.6 -172.6h-47.04l-121.19 146.45zM652.531 0h-43.5195l-72.4805 183.7h-376.81l-72.4902 -183.7h-43.5195l279.14 700h50.54zM523.102 218.99l-174.979 442.94l-174.98 -442.94h349.96zM348.212 -97.3096
c15.5996 0 28.2393 -12.6504 28.2393 -28.25s-12.6396 -28.2393 -28.2393 -28.2393s-28.25 12.6396 -28.25 28.2393s12.6504 28.25 28.25 28.25z" />
    <glyph glyph-name="Acircumflexgrave" unicode="&#x1ea6;" horiz-adv-x="696" 
d="M567.08 825l-135.09 172.6h50.5898l127.78 -172.6h-43.2803zM227.03 764.399h-47.0488l146.6 172.6h43.2803l146.6 -172.6h-47.0498l-121.19 146.45zM652.531 -0.000976562h-43.5098l-72.4902 183.7h-376.81l-72.4805 -183.7h-43.5195l279.13 700h50.5498z
M523.111 218.989l-174.979 442.94l-174.98 -442.94h349.96z" />
    <glyph glyph-name="Acircumflexhookabove" unicode="&#x1ea8;" horiz-adv-x="696" 
d="M575.49 1029.76c61.4297 0 115.941 -20.082 116.102 -95.7617c-0.160156 -52.7695 -27.8906 -68.8096 -85.1504 -96.8594c-27.1299 -13.2197 -41.2002 -20.5996 -42.3203 -44.3896h-34.8701c1.17969 43.6602 30.4795 59.0605 62.1895 74.4307
c49.7402 23.8398 65.29 35.2695 65.3701 68.3896c-0.209961 47.3301 -35.3203 61.8701 -81.5605 61.8398c-32.2305 -0.0302734 -64.0303 -7.25 -89.1504 -18.46l-14.5996 28.7803c30.1396 14.2998 66.6299 22.0303 103.99 22.0303zM227.022 764.388h-47.0488l146.6 172.6
h43.2803l146.6 -172.6h-47.0498l-121.19 146.45zM373.394 699.987l279.14 -700h-43.5195l-72.4902 183.7h-376.81l-72.4805 -183.7h-43.5195l279.13 700h50.5498zM523.104 218.978l-174.979 442.95l-174.98 -442.95h349.96z" />
    <glyph glyph-name="Acircumflextilde" unicode="&#x1eaa;" horiz-adv-x="696" 
d="M272.84 1021.12c-33.29 0.0595703 -56.3896 -26.1387 -81.04 -62.9189l-26.7998 19.2598c24.1797 35.2695 56.3193 79.6895 108.97 79.6895c37.3096 0 67.1895 -21.6299 90.8193 -39.6299c24.5898 -18.4902 45.0801 -30.5498 64.5605 -30.4297
c31.3604 -0.120117 55.1006 30.2295 75.3203 60.6895l26.7598 -19.29c-24.2998 -35.1797 -52.9902 -76.8594 -102.01 -77.1797c-33.71 0 -62.4004 19.2598 -87.29 37.9297c-21.29 16.2598 -42.9297 31.9395 -69.29 31.8799zM369.85 937.002l146.591 -172.6h-47.0498
l-121.19 146.45l-121.19 -146.45h-47.04l146.6 172.6h43.2803zM652.521 -0.0078125h-43.5195l-72.4805 183.7h-376.81l-72.4902 -183.7h-43.5195l279.14 700h50.54zM523.091 218.982l-174.979 442.95l-174.98 -442.95h349.96z" />
    <glyph glyph-name="Adieresis" unicode="&#xc4;" horiz-adv-x="696" 
d="M241.78 865.24c15.5996 0 28.25 -12.6396 28.25 -28.2393s-12.6504 -28.25 -28.25 -28.25s-28.2393 12.6504 -28.2393 28.25s12.6396 28.2393 28.2393 28.2393zM454.65 865.24c15.5996 0 28.25 -12.6396 28.25 -28.2393s-12.6504 -28.25 -28.25 -28.25
s-28.2393 12.6504 -28.2393 28.25s12.6396 28.2393 28.2393 28.2393zM652.54 0h-43.5195l-72.4805 183.7h-376.81l-72.4902 -183.7h-43.5195l279.14 700h50.54zM173.15 218.99h349.961l-174.98 442.94z" />
    <glyph glyph-name="Adotbelow" unicode="&#x1ea0;" horiz-adv-x="696" 
d="M652.54 0h-43.5195l-72.4805 183.7h-376.81l-72.4902 -183.7h-43.5195l279.14 700h50.54zM173.15 218.99h349.961l-174.98 442.94zM348.222 -97.3096c15.5996 0 28.2393 -12.6504 28.2393 -28.25s-12.6396 -28.2393 -28.2393 -28.2393s-28.25 12.6396 -28.25 28.2393
s12.6504 28.25 28.25 28.25z" />
    <glyph glyph-name="Agrave" unicode="&#xc0;" horiz-adv-x="696" 
d="M370.94 764.4h-43.2803l-135.09 172.6h50.5898zM652.54 -0.00976562h-43.5195l-72.4805 183.7h-376.81l-72.4902 -183.7h-43.5195l279.14 700h50.54zM173.15 218.98h349.961l-174.98 442.95z" />
    <glyph glyph-name="Ahookabove" unicode="&#x1ea2;" horiz-adv-x="696" 
d="M376.41 997.37c61.4297 0 115.941 -20.1016 116.092 -95.7715c-0.150391 -52.7695 -27.8906 -68.8096 -85.1406 -96.8594c-27.1299 -13.2197 -41.21 -20.5996 -42.3301 -44.3896h-34.8604c1.16992 43.6602 30.4795 59.0605 62.1895 74.4307
c49.7402 23.8398 65.2803 35.2695 65.3701 68.3896c-0.209961 47.3301 -35.3203 61.8799 -81.5605 61.8398c-32.2402 -0.0195312 -64.04 -7.25 -89.1602 -18.4697l-14.5898 28.79c30.1396 14.2998 66.6299 22.04 103.99 22.04zM652.532 -0.0214844h-43.5098l-72.4902 183.7
h-376.81l-72.4805 -183.7h-43.5195l279.13 700h50.5498zM173.152 218.969h349.961l-174.98 442.95z" />
    <glyph glyph-name="Amacron" unicode="&#x100;" horiz-adv-x="696" 
d="M512.08 812.04h-327.73v35.9199h327.73v-35.9199zM652.54 0h-43.5195l-72.4805 183.7h-376.81l-72.4902 -183.7h-43.5195l279.14 700h50.54zM173.15 218.99h349.961l-174.98 442.94z" />
    <glyph glyph-name="Aogonek" unicode="&#x104;" horiz-adv-x="696" 
d="M722.96 -152.92l10.2402 -28.1221c-24.0303 -15.3799 -60.8105 -24.3799 -92.2705 -24.46c-57.8701 0.0800781 -115.811 30.6504 -115.971 93.8408c0.150391 43.9805 28.71 79.1406 82.5098 115.621l-70.9199 179.74h-376.81l-72.4902 -183.7h-43.5195l279.14 700
h50.5498l279.14 -700h-11.8496c-50.0596 -33.7402 -77.6797 -64.21 -77.7793 -102.83c0.110352 -47.6201 41.1201 -69.4297 85.79 -69.3398c25.25 -0.0898438 54.7305 6.87988 74.2402 19.25zM173.16 218.988h349.961l-174.98 442.94z" />
    <glyph glyph-name="Aring" unicode="&#xc5;" horiz-adv-x="696" 
d="M348.22 988.39c75.5996 0 124.659 -53.71 124.659 -120.16s-49.0596 -120.15 -124.659 -120.15c-75.0996 0 -124.659 53.7002 -124.659 120.15c0 66.9102 49.5596 120.61 124.659 120.16zM347.989 958.909c-54.0703 0.330078 -91.0195 -38.4697 -91.0195 -90.6895
c0 -51.7598 36.8496 -90.6797 91.25 -90.6797c54.7998 0 91.25 38.8398 91.25 90.6895c0 51.8398 -36.4502 90.6797 -91.4805 90.6797zM652.54 -0.0107422h-43.5195l-72.4805 183.7h-376.81l-72.4902 -183.7h-43.5195l279.14 700h50.54zM173.15 218.979h349.961
l-174.98 442.94z" />
    <glyph glyph-name="Atilde" unicode="&#xc3;" horiz-adv-x="696" 
d="M273.97 902.77c37.3096 0 67.1885 -21.6191 90.8184 -39.6191c24.5801 -18.4902 45.0703 -30.5498 64.5605 -30.4297c31.3496 -0.120117 55.0996 30.2295 75.3096 60.6797l26.7598 -19.29c-24.2998 -35.1797 -52.9795 -76.8594 -102.01 -77.1797
c-33.71 0 -62.3896 19.2598 -87.2793 37.9297c-21.2998 16.25 -42.9395 31.9297 -69.2998 31.8799c-33.2803 0.0498047 -56.3799 -26.1406 -81.0195 -62.9209l-26.7998 19.25c24.1699 35.2803 56.3096 79.7002 108.96 79.7002zM652.529 0.0107422h-43.5195l-72.4805 183.7
h-376.81l-72.4902 -183.7h-43.5195l279.14 700h50.54zM173.14 219.001h349.961l-174.98 442.94z" />
    <glyph glyph-name="AE" unicode="&#xc6;" horiz-adv-x="951" 
d="M893.84 35.29v-35.2998h-442.5v183.7h-262.51l-100.28 -183.7h-44.8301l384.01 700h42.9502h21.6602h391.5v-35.29h-391.5v-280.5h352.51v-35.29h-352.51v-313.62h401.5zM451.34 218.98v445.57l-243.24 -445.57h243.24z" />
    <glyph glyph-name="B" unicode="B" horiz-adv-x="689" 
d="M476.31 371.82c82.1396 -17.1602 142.539 -81.3896 141.939 -171.77c0 -120.5 -94.1699 -200.01 -210.68 -200.01h-252.85v-0.0400391h-41v700h261.03c107.83 0 194.39 -72.6201 193.659 -182.66c0 -68.5 -37.3096 -120.37 -92.0996 -145.521zM154.709 664.711
l0.000976562 -281.05h233.54c77.0898 0 137.89 51.71 137.89 133.75c0.599609 89.8301 -66.7803 147.3 -152.65 147.3h-218.78zM575.99 200.291c0.599609 90.1602 -67.249 148.031 -153.609 148.031h-267.66v-312.98h251.6c94.5596 0 169.67 64.5195 169.67 164.949z" />
    <glyph glyph-name="C" unicode="C" horiz-adv-x="771" 
d="M434.71 714.01c85.4004 0 181.421 -32.7803 263.291 -96.2402l-12.1602 -33.4902c-79.4102 59.9902 -169.75 90.2998 -251.42 90.2998c-176.4 1.2002 -294.33 -140.819 -294.33 -324.55c0 -182.36 118.05 -324.87 294.62 -324.87
c80.8496 0 171.85 30.7402 251.149 90.4404l12.1396 -33.4102c-81.7598 -63.1602 -178.66 -96.1406 -263.29 -96.1504c-203.35 0 -337.56 162.69 -337.56 363.99c0 202.67 134.21 365.36 337.56 363.98z" />
    <glyph glyph-name="Cacute" unicode="&#x106;" horiz-adv-x="771" 
d="M432.07 756.17h-43.2803l127.78 172.6h50.5898zM434.71 714.01c85.4102 0 181.43 -32.7803 263.3 -96.2402l-12.1699 -33.4902c-79.4004 59.9902 -169.74 90.2998 -251.41 90.2998c-176.41 1.2002 -294.33 -140.819 -294.33 -324.55
c0 -182.36 118.04 -324.87 294.62 -324.87c80.8398 0 171.85 30.7402 251.14 90.4404l12.1504 -33.4102c-81.7695 -63.1602 -178.67 -96.1406 -263.3 -96.1504c-203.35 0 -337.56 162.69 -337.56 363.99c0 202.67 134.21 365.36 337.56 363.98z" />
    <glyph glyph-name="Ccaron" unicode="&#x10c;" horiz-adv-x="771" 
d="M390.82 764.4l-146.591 172.6h47.0498l121.19 -146.45l121.19 146.45h47.04l-146.6 -172.6h-43.2803zM685.869 115.6l12.1504 -33.4014c-81.7598 -63.1699 -178.66 -96.1504 -263.29 -96.1504c-203.35 0 -337.56 162.69 -337.56 363.98
c0 202.68 134.21 365.37 337.56 363.99c85.4004 0 181.41 -32.7803 263.28 -96.2402l-12.1602 -33.4902c-79.4102 59.9805 -169.75 90.3008 -251.42 90.3008c-176.4 1.2002 -294.33 -140.83 -294.33 -324.561c0 -182.35 118.05 -324.869 294.62 -324.869
c80.8496 0.00976562 171.85 30.7402 251.149 90.4404z" />
    <glyph glyph-name="Ccedilla" unicode="&#xc7;" horiz-adv-x="771" 
d="M404.66 -55.3701c63.3398 -2.46973 107.712 -37.5889 107.382 -91.8486c0.349609 -56.5098 -48.8506 -99.8096 -124.971 -100.779c-40.6104 -0.990234 -96.3799 10.46 -128.26 26.7803l13.0195 26.7305c30 -14.2002 76.7197 -23.25 112.22 -22.7305
c57.6396 0.669922 89.75 29.8896 89.6797 69.7793c0.0703125 38.7197 -30.0293 63.5898 -78.6396 63.6299c-12.79 0 -30.1299 -2.33008 -43.0596 -5.69043l-10 20.5898l28.9404 60.5498c-167.18 30.21 -273.81 178.96 -273.81 358.39c0 202.67 134.21 365.36 337.56 363.98
c85.4004 0 181.41 -32.7803 263.28 -96.2402l-12.1602 -33.4902c-79.4102 59.9902 -169.75 90.2998 -251.42 90.2998c-176.4 1.2002 -294.33 -140.819 -294.33 -324.55c0 -182.36 118.05 -324.87 294.62 -324.87c80.8496 0 171.85 30.7402 251.149 90.4404l12.1396 -33.4102
c-81.7598 -63.1602 -178.66 -96.1406 -263.29 -96.1504c-10.3496 0 -20.5098 0.419922 -30.4902 1.25l-18.2998 -43.3701c6.21973 0.509766 12.4297 0.729492 18.7393 0.709961z" />
    <glyph glyph-name="Cdotaccent" unicode="&#x10a;" horiz-adv-x="771" 
d="M412.21 865.24c15.5996 0 28.2393 -12.6396 28.2393 -28.2393s-12.6396 -28.25 -28.2393 -28.25s-28.25 12.6504 -28.25 28.25s12.6504 28.2393 28.25 28.2393zM434.71 714.01c85.4004 0 181.421 -32.7803 263.291 -96.2402l-12.1602 -33.4902
c-79.4102 59.9902 -169.75 90.2998 -251.42 90.2998c-176.4 1.2002 -294.33 -140.819 -294.33 -324.55c0 -182.36 118.05 -324.87 294.62 -324.87c80.8496 0 171.85 30.7402 251.149 90.4404l12.1396 -33.4102c-81.7598 -63.1602 -178.66 -96.1406 -263.29 -96.1504
c-203.35 0 -337.56 162.69 -337.56 363.99c0 202.67 134.21 365.36 337.56 363.98z" />
    <glyph glyph-name="D" unicode="D" horiz-adv-x="770" 
d="M116.6 700h211.19c208.19 0 345.301 -148.68 345.301 -349.97c0 -201.3 -137.11 -350.03 -345.301 -350.03h-214.07v700h2.87988zM154.71 35.29l173.08 -0.000976562c183.34 0 303.04 130.54 303.04 314.74c0 184.19 -119.7 314.681 -303.04 314.681h-173.08v-629.42z
" />
    <glyph glyph-name="Eth" unicode="&#xd0;" horiz-adv-x="770" 
d="M116.6 700h211.19c208.19 0 345.301 -148.68 345.301 -349.97c0 -201.3 -137.11 -350.03 -345.301 -350.03h-214.07v333.92h-110.35v32.1504h110.35v333.93h2.87988zM154.71 35.29l173.08 -0.000976562c183.34 0 303.04 130.54 303.04 314.74
c0 184.19 -119.7 314.681 -303.04 314.681h-173.08v-298.64h211.44v-32.1504h-211.44v-298.63z" />
    <glyph glyph-name="Dcaron" unicode="&#x10e;" horiz-adv-x="770" 
d="M343.69 764.4l-146.591 172.6h47.0498l121.19 -146.45l121.19 146.45h47.04l-146.6 -172.6h-43.2803zM116.609 700h211.19c208.19 0 345.301 -148.68 345.301 -349.97c0 -201.3 -137.11 -350.03 -345.301 -350.03h-214.07v700h2.87988zM154.72 35.29l173.08 -0.000976562
c183.34 0 303.04 130.54 303.04 314.74c0 184.19 -119.7 314.681 -303.04 314.681h-173.08v-629.42z" />
    <glyph glyph-name="Dcroat" unicode="&#x110;" horiz-adv-x="770" 
d="M116.6 700h211.19c208.19 0 345.301 -148.68 345.301 -349.97c0 -201.3 -137.11 -350.03 -345.301 -350.03h-214.07v333.92h-110.35v32.1504h110.35v333.93h2.87988zM154.71 35.29l173.08 -0.000976562c183.34 0 303.04 130.54 303.04 314.74
c0 184.19 -119.7 314.681 -303.04 314.681h-173.08v-298.64h211.44v-32.1504h-211.44v-298.63z" />
    <glyph glyph-name="E" unicode="E" horiz-adv-x="613" 
d="M556.22 35.29v-35.2998h-442.5v700h41h391.5v-35.29h-391.5v-280.5h352.52v-35.29h-352.52v-313.62h401.5z" />
    <glyph glyph-name="Eacute" unicode="&#xc9;" horiz-adv-x="613" 
d="M352.43 756.17h-43.2803l127.78 172.6h50.5898zM556.229 35.29v-35.29h-442.5v700h41h391.5v-35.29h-391.5v-280.51h352.51v-35.29h-352.51v-313.62h401.5z" />
    <glyph glyph-name="Ecaron" unicode="&#x11a;" horiz-adv-x="613" 
d="M311.18 764.4l-146.591 172.6h47.0498l121.19 -146.45l121.19 146.45h47.04l-146.6 -172.6h-43.2803zM556.229 35.29v-35.2998h-442.5v700h41h391.5v-35.29h-391.5v-280.5h352.52v-35.29h-352.52v-313.62h401.5z" />
    <glyph glyph-name="Ecircumflex" unicode="&#xca;" horiz-adv-x="613" 
d="M211.38 764.4h-47.0586l146.6 172.6h43.2803l146.6 -172.6h-47.04l-121.19 146.45zM556.211 35.29v-35.2998h-442.5v700h41h391.5v-35.29h-391.5v-280.5h352.52v-35.29h-352.52v-313.62h401.5z" />
    <glyph glyph-name="Ecircumflexacute" unicode="&#x1ebe;" horiz-adv-x="613" 
d="M554.54 825h-43.2695l127.77 172.6h50.5898zM211.32 764.4h-47.0488l146.6 172.6h43.2803l146.6 -172.6h-47.0498l-121.19 146.45zM154.712 35.29l401.5 -0.00976562v-35.29h-442.5v700h41h391.5v-35.29h-391.5v-280.5h352.52v-35.29h-352.52v-313.62z" />
    <glyph glyph-name="Ecircumflexdotbelow" unicode="&#x1ec6;" horiz-adv-x="613" 
d="M211.38 764.4h-47.0586l146.6 172.6h43.2803l146.6 -172.6h-47.04l-121.19 146.45zM556.211 35.29v-35.2998h-442.5v700h41h391.5v-35.29h-391.5v-280.5h352.52v-35.29h-352.52v-313.62h401.5zM333.121 -97.3193c15.5996 0 28.2393 -12.6396 28.2393 -28.2393
s-12.6396 -28.25 -28.2393 -28.25s-28.25 12.6504 -28.25 28.25s12.6504 28.2393 28.25 28.2393z" />
    <glyph glyph-name="Ecircumflexgrave" unicode="&#x1ec0;" horiz-adv-x="613" 
d="M552.74 825l-135.079 172.6h50.5898l127.77 -172.6h-43.2803zM212.701 764.399h-47.0586l146.6 172.6h43.2803l146.6 -172.6h-47.04l-121.19 146.45zM154.723 35.2891h401.5v-35.29h-442.5v700h41h391.5v-35.29h-391.5v-280.51h352.51v-35.29h-352.51v-313.62z" />
    <glyph glyph-name="Ecircumflexhookabove" unicode="&#x1ec2;" horiz-adv-x="613" 
d="M559.84 1029.76c61.4297 0 115.941 -20.0918 116.092 -95.7715c-0.150391 -52.7598 -27.8906 -68.8096 -85.1406 -96.8594c-27.1299 -13.21 -41.21 -20.5996 -42.3301 -44.3896h-34.8604c1.16992 43.6602 30.4795 59.0703 62.1895 74.4307
c49.7402 23.8496 65.2803 35.2695 65.3701 68.3994c-0.209961 47.3301 -35.3203 61.8701 -81.5605 61.8301c-32.2402 -0.0195312 -64.04 -7.25 -89.1602 -18.46l-14.5898 28.7803c30.1396 14.3096 66.6299 22.04 103.99 22.04zM211.372 764.388h-47.0586l146.6 172.6
h43.2803l146.6 -172.6h-47.04l-121.19 146.45zM154.703 35.2773l401.5 -0.00976562v-35.29h-442.5v700h41h391.5v-35.29h-391.5v-280.5h352.52v-35.29h-352.52v-313.62z" />
    <glyph glyph-name="Ecircumflextilde" unicode="&#x1ec4;" horiz-adv-x="613" 
d="M257.18 1021.12c-33.2803 0.0498047 -56.3906 -26.1396 -81.0303 -62.9199l-26.7998 19.25c24.1699 35.2803 56.3096 79.7002 108.96 79.7002c37.3096 0 67.1992 -21.6299 90.8291 -39.6299c24.5801 -18.4902 45.0703 -30.5498 64.5605 -30.4297
c31.3496 -0.120117 55.0996 30.2295 75.3096 60.6895l26.7598 -19.29c-24.2998 -35.1797 -52.9795 -76.8701 -102.01 -77.1797c-33.71 0 -62.3896 19.25 -87.2793 37.9199c-21.2998 16.2598 -42.9395 31.9395 -69.2998 31.8896zM354.188 936.991l146.591 -172.6h-47.04
l-121.19 146.45l-121.19 -146.45h-47.0498l146.6 172.6h43.2803zM556.199 35.2812v-35.29h-442.5v700h41h391.5v-35.29h-391.5v-280.51h352.51v-35.29h-352.51v-313.62h401.5z" />
    <glyph glyph-name="Edieresis" unicode="&#xcb;" horiz-adv-x="613" 
d="M226.13 808.75c-15.5996 0 -28.2393 12.6504 -28.2393 28.25s12.6396 28.2393 28.2393 28.2393s28.25 -12.6396 28.25 -28.2393s-12.6504 -28.25 -28.25 -28.25zM439 808.75c-15.5996 0 -28.2393 12.6504 -28.2393 28.25s12.6396 28.2393 28.2393 28.2393
s28.25 -12.6396 28.25 -28.2393s-12.6504 -28.25 -28.25 -28.25zM556.22 35.29v-35.2998h-442.5v700h41h391.5v-35.29h-391.5v-280.5h352.52v-35.29h-352.52v-313.62h401.5z" />
    <glyph glyph-name="Edotaccent" unicode="&#x116;" horiz-adv-x="613" 
d="M332.57 808.75c-15.5996 0 -28.25 12.6504 -28.25 28.25s12.6504 28.2393 28.25 28.2393s28.2393 -12.6396 28.2393 -28.2393s-12.6396 -28.25 -28.2393 -28.25zM556.221 35.29v-35.2998h-442.5v700h41h391.5v-35.29h-391.5v-280.5h352.52v-35.29h-352.52v-313.62h401.5z
" />
    <glyph glyph-name="Edotbelow" unicode="&#x1eb8;" horiz-adv-x="613" 
d="M556.22 35.29v-35.2998h-442.5v700h41h391.5v-35.29h-391.5v-280.5h352.52v-35.29h-352.52v-313.62h401.5zM333.13 -97.3193c15.5996 0 28.2393 -12.6396 28.2393 -28.2393s-12.6396 -28.25 -28.2393 -28.25s-28.25 12.6504 -28.25 28.25s12.6504 28.2393 28.25 28.2393z
" />
    <glyph glyph-name="Egrave" unicode="&#xc8;" horiz-adv-x="613" 
d="M312.01 764.4l-135.09 172.6h50.5898l127.78 -172.6h-43.2803zM556.22 35.29v-35.2998h-442.5v700h41h391.5v-35.29h-391.5v-280.5h352.52v-35.29h-352.52v-313.62h401.5z" />
    <glyph glyph-name="Ehookabove" unicode="&#x1eba;" horiz-adv-x="613" 
d="M358.03 965.01c-32.2305 -0.0302734 -64.0381 -7.27148 -89.1582 -18.4814l-14.5996 28.7803c30.1396 14.3096 66.6299 22.04 103.99 22.04c61.4297 0 115.949 -20.0801 116.1 -95.75c-0.150391 -52.7695 -27.8906 -68.8096 -85.1406 -96.8594
c-27.1299 -13.2197 -41.21 -20.5996 -42.3301 -44.3896h-34.8604c1.16992 43.6602 30.4795 59.0605 62.1895 74.4307c49.7402 23.8398 65.2803 35.2695 65.3701 68.3896c-0.209961 47.3301 -35.3203 61.8799 -81.5605 61.8398zM556.213 35.2686v-35.29h-442.5v700h41h391.5
v-35.29h-391.5v-280.51h352.52v-35.29h-352.52v-313.62h401.5z" />
    <glyph glyph-name="Emacron" unicode="&#x112;" horiz-adv-x="613" 
d="M496.43 812.04h-327.73v35.9199h327.73v-35.9199zM556.219 35.29v-35.2998h-442.5v700h41h391.5v-35.29h-391.5v-280.5h352.51v-35.29h-352.51v-313.62h401.5z" />
    <glyph glyph-name="Eogonek" unicode="&#x118;" horiz-adv-x="613" 
d="M572.56 -147.11l10.2324 -28.1123c-24.0303 -15.3799 -60.8105 -24.3799 -92.2705 -24.46c-57.8701 0.0800781 -115.811 30.6504 -115.971 93.8408c0.139648 40.04 23.8193 72.7705 68.6592 105.841h-329.49v700h41h391.5v-35.29h-391.5v-280.51h352.52v-35.29h-352.52
v-313.62h401.5v-35.29h-74.3604c-45.3096 -31.8701 -69.25 -60.9297 -69.3496 -97.0195c0.110352 -47.6201 41.1299 -69.4199 85.7998 -69.3301c25.2598 -0.0898438 54.7402 6.87012 74.25 19.2402z" />
    <glyph glyph-name="Etilde" unicode="&#x1ebc;" horiz-adv-x="613" 
d="M257.19 866.74c-33.29 0.0498047 -56.3896 -26.1299 -81.04 -62.9102l-26.7998 19.25c24.1797 35.2803 56.3193 79.7002 108.97 79.7002c37.3096 0 67.1895 -21.6299 90.8193 -39.6299c24.5898 -18.4902 45.0801 -30.5498 64.5605 -30.4297
c31.3604 -0.120117 55.1006 30.2295 75.3203 60.6797l26.7598 -19.29c-24.2998 -35.1797 -52.9902 -76.8594 -102.01 -77.1797c-33.71 0 -62.4004 19.2598 -87.29 37.9297c-21.29 16.25 -42.9297 31.9297 -69.29 31.8799zM556.211 35.3008v-35.29h-442.5v700h41h391.5
v-35.29h-391.5v-280.51h352.52v-35.29h-352.52v-313.62h401.5z" />
    <glyph glyph-name="F" unicode="F" horiz-adv-x="583" 
d="M154.72 664.71v-300.51h332.51v-35.29h-332.51v-328.91h-41v700h41h371.5v-35.29h-371.5z" />
    <glyph glyph-name="G" unicode="G" horiz-adv-x="827" 
d="M718.19 344.27l-0.000976562 -344.271h-33.2598l-5.37988 67.54c-75.3203 -53.5801 -162.49 -81.4902 -239.101 -81.5c-206.81 0 -343.3 162.69 -343.3 363.99c0 202.67 136.49 365.36 343.3 363.98c83.2803 0.00976562 176.12 -29.0801 257.771 -85.5098
l-12.0801 -33.2002c-79.2598 52.7197 -166.399 79.2793 -245.97 79.2793c-179.94 1.2002 -300.08 -140.89 -300.08 -324.55c0 -182.29 120.26 -324.56 300.37 -324.56c76.1504 0.00976562 160.08 26.4297 236.73 78.8193v204.69h-170.93v35.29h211.93z" />
    <glyph glyph-name="Gbreve" unicode="&#x11e;" horiz-adv-x="827" 
d="M430.15 770.94c-107.99 0 -179.261 72.8799 -179.261 163.06h37.9404c0 -72.7695 57.0195 -128.21 141.319 -128.21c84.9102 0 141.32 55.3496 141.32 128.21h37.9404c0 -90.1797 -70.5498 -163.06 -179.26 -163.06zM718.199 344.271l-0.000976562 -344.271h-33.2598
l-5.38965 67.54c-75.3096 -53.5801 -162.479 -81.4902 -239.09 -81.5c-206.81 0 -343.31 162.69 -343.31 363.99c0 202.67 136.5 365.36 343.31 363.98c83.2695 0.00976562 176.109 -29.0801 257.77 -85.5098l-12.0898 -33.2002
c-79.2598 52.7197 -166.39 79.2793 -245.97 79.2793c-179.94 1.2002 -300.07 -140.89 -300.07 -324.55c0 -182.29 120.25 -324.56 300.36 -324.56c76.1602 0.00976562 160.09 26.4297 236.74 78.8193v204.69h-170.94v35.29h211.94z" />
    <glyph glyph-name="Gcommaaccent" unicode="&#x122;" horiz-adv-x="827" 
d="M718.19 344.27l-0.000976562 -344.271h-33.2598l-5.37988 67.54c-75.3203 -53.5801 -162.49 -81.4902 -239.101 -81.5c-206.81 0 -343.3 162.69 -343.3 363.99c0 202.67 136.49 365.36 343.3 363.98c83.2803 0.00976562 176.12 -29.0801 257.771 -85.5098
l-12.0801 -33.2002c-79.2598 52.7197 -166.399 79.2793 -245.97 79.2793c-179.94 1.2002 -300.08 -140.89 -300.08 -324.55c0 -182.29 120.26 -324.56 300.37 -324.56c76.1504 0.00976562 160.08 26.4297 236.73 78.8193v204.69h-170.93v35.29h211.93zM434.67 -87.1914
c13.7695 0.0996094 24.79 -9.45801 27.6104 -26.3584c5.25977 -31.5996 -15.7803 -91.46 -44.6406 -129.07l-20.4297 13.1699c16.0303 24.3096 26.3799 52.9092 29.7295 90.4189c-10.2598 3.11035 -18.7998 12.5801 -18.9297 25.4199
c0.129883 14.3896 11.5703 26.5195 26.6602 26.4199z" />
    <glyph glyph-name="Gdotaccent" unicode="&#x120;" horiz-adv-x="827" 
d="M430.15 808.76c-15.5996 0 -28.2393 12.6396 -28.2393 28.2393s12.6396 28.25 28.2393 28.25s28.25 -12.6504 28.25 -28.25s-12.6504 -28.2393 -28.25 -28.2393zM718.2 344.27l-0.000976562 -344.271h-33.2598l-5.38965 67.54
c-75.3096 -53.5801 -162.479 -81.4902 -239.09 -81.5c-206.81 0 -343.31 162.69 -343.31 363.99c0 202.67 136.5 365.36 343.31 363.98c83.2695 0.00976562 176.109 -29.0801 257.77 -85.5098l-12.0898 -33.2002c-79.2598 52.7197 -166.39 79.2793 -245.97 79.2793
c-179.94 1.2002 -300.07 -140.89 -300.07 -324.55c0 -182.29 120.25 -324.56 300.36 -324.56c76.1602 0.00976562 160.09 26.4297 236.74 78.8193v204.69h-170.94v35.29h211.94z" />
    <glyph glyph-name="H" unicode="H" horiz-adv-x="765" 
d="M651.19 700v-700h-41v348.91h-455.47v-348.91h-41v700h41v-315.8h455.47v315.8h41z" />
    <glyph glyph-name="Hbar" unicode="&#x126;" horiz-adv-x="764" 
d="M764.44 532.47h-112.08v-532.47h-41v348.91h-455.47v-348.91h-41v532.47h-114.9v35.29h114.9v132.24h41v-132.24h455.47v132.24h41v-132.24h112.08v-35.29zM611.36 532.47h-455.47v-148.27h455.47v148.27z" />
    <glyph glyph-name="I" unicode="I" horiz-adv-x="268" 
d="M154.72 0h-41v700h41v-700z" />
    <glyph glyph-name="IJ" unicode="&#x132;" horiz-adv-x="739" 
d="M154.72 0h-41v700h41v-700zM638.739 700v-462.37c0 -139.14 -96.2197 -251.59 -244.47 -251.59c-34.9805 0 -67.1309 6.33984 -95.8213 17.8799l12.0303 31.8203c25.7598 -9.45996 53.1299 -14.4102 83.7803 -14.4102c122.69 0 203.48 93.5996 203.48 216.3v462.37h41z
" />
    <glyph glyph-name="Iacute" unicode="&#xcd;" horiz-adv-x="268" 
d="M154.08 756.17h-43.2803l127.78 172.6h50.5898zM154.72 -0h-41v700h41v-700z" />
    <glyph glyph-name="Icaron" unicode="&#x1cf;" horiz-adv-x="268" 
d="M302.71 937l-146.591 -172.6h-43.2803l-146.6 172.6h47.04l121.19 -146.45l121.19 146.45h47.0498zM113.729 700h41v-700h-41v700z" />
    <glyph glyph-name="Icircumflex" unicode="&#xce;" horiz-adv-x="268" 
d="M302.46 764.4h-47.0586l-121.19 146.45l-121.19 -146.45h-47.04l146.6 172.6h43.2803zM113.711 700h41v-700h-41v700z" />
    <glyph glyph-name="Idieresis" unicode="&#xcf;" horiz-adv-x="268" 
d="M27.7803 865.24c15.5996 0 28.25 -12.6396 28.25 -28.2393s-12.6504 -28.25 -28.25 -28.25s-28.2393 12.6504 -28.2393 28.25s12.6396 28.2393 28.2393 28.2393zM240.65 865.24c15.5996 0 28.25 -12.6396 28.25 -28.2393s-12.6504 -28.25 -28.25 -28.25
s-28.2393 12.6504 -28.2393 28.25s12.6396 28.2393 28.2393 28.2393zM154.721 0h-41v700h41v-700z" />
    <glyph glyph-name="Idotaccent" unicode="&#x130;" horiz-adv-x="268" 
d="M134.22 865.24c15.5996 0 28.2393 -12.6396 28.2393 -28.2393s-12.6396 -28.25 -28.2393 -28.25s-28.25 12.6504 -28.25 28.25s12.6504 28.2393 28.25 28.2393zM154.72 0h-41v700h41v-700z" />
    <glyph glyph-name="Idotbelow" unicode="&#x1eca;" horiz-adv-x="268" 
d="M154.72 0h-41v700h41v-700zM134.27 -97.3096c15.5996 0 28.2393 -12.6504 28.2393 -28.25s-12.6396 -28.2393 -28.2393 -28.2393s-28.25 12.6396 -28.25 28.2393s12.6504 28.25 28.25 28.25z" />
    <glyph glyph-name="Igrave" unicode="&#xcc;" horiz-adv-x="268" 
d="M156.94 764.4h-43.2803l-135.09 172.6h50.5898zM154.72 0h-41v700h41v-700z" />
    <glyph glyph-name="Ihookabove" unicode="&#x1ec8;" horiz-adv-x="268" 
d="M163.37 997.37c61.4297 0 115.941 -20.1016 116.092 -95.7715c-0.150391 -52.7695 -27.8906 -68.8096 -85.1406 -96.8594c-27.1299 -13.2197 -41.21 -20.5996 -42.3301 -44.3896h-34.8604c1.16992 43.6602 30.4795 59.0605 62.1895 74.4307
c49.7402 23.8398 65.2803 35.2695 65.3701 68.3896c-0.209961 47.3301 -35.3203 61.8799 -81.5605 61.8398c-32.2402 -0.0195312 -64.04 -7.25 -89.1602 -18.4697l-14.5898 28.79c30.1396 14.2998 66.6299 22.04 103.99 22.04zM154.712 -0.0214844h-41v700h41v-700z" />
    <glyph glyph-name="Imacron" unicode="&#x12a;" horiz-adv-x="268" 
d="M298.08 812.04h-327.73v35.9199h327.73v-35.9199zM154.72 0h-41v700h41v-700z" />
    <glyph glyph-name="Iogonek" unicode="&#x12e;" horiz-adv-x="268" 
d="M229.96 -157.6l10.2324 -28.1113c-24.0303 -15.3799 -60.8105 -24.3799 -92.2705 -24.46c-57.8701 0.0800781 -115.811 30.6504 -115.971 93.8408c0.150391 44.1396 28.9199 79.6797 83.0996 116.33h-1.33008v700h41v-700h0.00976562
c-54.4404 -35.5996 -84.7002 -67.0801 -84.8105 -107.51c0.110352 -47.6201 41.1201 -69.4199 85.7998 -69.3301c25.25 -0.0898438 54.7305 6.87012 74.2402 19.2402z" />
    <glyph glyph-name="Itilde" unicode="&#x128;" horiz-adv-x="268" 
d="M59.9697 902.77c37.3096 0 67.1885 -21.6191 90.8184 -39.6191c24.5801 -18.4902 45.0703 -30.5498 64.5605 -30.4297c31.3496 -0.120117 55.0996 30.2295 75.3096 60.6797l26.7598 -19.29c-24.2998 -35.1797 -52.9795 -76.8594 -102.01 -77.1797
c-33.71 0 -62.3896 19.2598 -87.2793 37.9297c-21.2998 16.25 -42.9395 31.9297 -69.2998 31.8799c-33.2803 0.0498047 -56.3799 -26.1406 -81.0195 -62.9209l-26.7998 19.25c24.1699 35.2803 56.3096 79.7002 108.96 79.7002zM154.709 0.0107422h-41v700h41v-700z" />
    <glyph glyph-name="J" unicode="J" horiz-adv-x="470" 
d="M370.3 700v-462.37c0 -139.14 -96.2197 -251.59 -244.47 -251.59c-34.9805 0 -67.1309 6.33984 -95.8213 17.8799l12.0303 31.8203c25.7598 -9.45996 53.1299 -14.4102 83.7803 -14.4102c122.69 0 203.48 93.5996 203.48 216.3v462.37h41z" />
    <glyph glyph-name="K" unicode="K" horiz-adv-x="687" 
d="M313.05 406.26l-158.34 -154.399v-251.86h-41v700h41v-397.02l402.5 397.02h57.0703l-273.32 -266.52l301.83 -433.48h-50.0498z" />
    <glyph glyph-name="Kcommaaccent" unicode="&#x136;" horiz-adv-x="687" 
d="M642.79 0l-50.0498 0.000976562l-279.69 406.26l-158.33 -154.4v-251.86h-41v700h41v-397.02l402.5 397.02h57.0596l-273.31 -266.52zM346.74 -87.1895c13.7695 0.0996094 24.79 -9.45801 27.5996 -26.3584c5.26953 -31.5996 -15.7803 -91.46 -44.6406 -129.07
l-20.4297 13.1699c16.0303 24.3096 26.3799 52.9092 29.7402 90.4189c-10.2695 3.11035 -18.7998 12.5801 -18.9297 25.4199c0.129883 14.3896 11.5703 26.5195 26.6602 26.4199z" />
    <glyph glyph-name="L" unicode="L" horiz-adv-x="555" 
d="M510.91 35.29v-35.29h-397.19v700h41v-664.71h356.19z" />
    <glyph glyph-name="Lacute" unicode="&#x139;" horiz-adv-x="555" 
d="M282.08 756.17h-43.2803l127.78 172.6h50.5898zM510.91 35.29v-35.29h-397.19v700h41v-664.71h356.19z" />
    <glyph glyph-name="Lcaron" unicode="&#x13d;" horiz-adv-x="555" 
d="M374.23 558.57l-20.4297 13.1807c16.0303 24.3096 26.3799 52.8994 29.7402 90.4092c-10.2695 3.11035 -18.7998 12.5908 -18.9297 25.4307c0.129883 14.3896 11.5703 26.5098 26.6602 26.4102c13.7695 0.0996094 24.7793 -9.45996 27.5996 -26.3604
c5.25977 -31.5996 -15.7803 -91.46 -44.6406 -129.07zM510.911 35.3008v-35.29h-397.19v700h41v-664.71h356.19z" />
    <glyph glyph-name="Lcommaaccent" unicode="&#x13b;" horiz-adv-x="555" 
d="M510.91 35.29v-35.29h-397.19v700h41v-664.71h356.19zM266.74 -87.1904c13.7695 0.0996094 24.79 -9.45801 27.6104 -26.3584c5.25977 -31.5996 -15.7803 -91.46 -44.6406 -129.07l-20.4297 13.1699c16.0303 24.3096 26.3799 52.9092 29.7295 90.4189
c-10.2598 3.11035 -18.7998 12.5801 -18.9297 25.4199c0.129883 14.3896 11.5703 26.5195 26.6602 26.4199z" />
    <glyph glyph-name="Ldot" unicode="&#x13f;" horiz-adv-x="555" 
d="M510.91 35.29v-35.29h-397.19v700h41v-664.71h356.19zM337.84 310.08c-16.5 0 -29.8701 13.3701 -29.8701 29.8701c0 16.71 13.3701 29.8799 29.8701 29.8799s29.8799 -13.3799 29.8799 -29.8799s-13.3799 -29.8701 -29.8799 -29.8701z" />
    <glyph glyph-name="Lslash" unicode="&#x141;" horiz-adv-x="555" 
d="M510.91 35.29v-35.29h-397.19v317.03l-109.28 -59.9102l-17.6299 31.5498l126.9 69.5703v341.76h41v-319.29l176.17 96.5801l17.6299 -31.5498l-193.79 -106.24v-304.21h356.19z" />
    <glyph glyph-name="M" unicode="M" horiz-adv-x="873" 
d="M759.73 699.98l-0.000976562 -700.001h-41v620.59l-262.77 -394.1h-33.7197l-0.0195312 0.00976562h-9.69043l-262.81 394.11v-620.59h-41v700h37.2402l288.27 -436.05l288.27 436.03h37.2305z" />
    <glyph glyph-name="N" unicode="N" horiz-adv-x="737" 
d="M628.5 700v-700h-37.2305l-444.98 624.22v-624.22h-41v700h37.2305l444.98 -624.22v624.22h41z" />
    <glyph glyph-name="Nacute" unicode="&#x143;" horiz-adv-x="737" 
d="M388.7 756.17h-43.2695l127.77 172.6h50.5898zM628.501 700v-700h-37.2305l-444.98 624.22v-624.22h-41v700h37.2305l444.98 -624.22v624.22h41z" />
    <glyph glyph-name="Ncaron" unicode="&#x147;" horiz-adv-x="737" 
d="M347.46 764.4l-146.591 172.6h47.04l121.19 -146.45l121.19 146.45h47.0498l-146.6 -172.6h-43.2803zM628.509 700v-700h-37.2402l-444.98 624.22v-624.22h-41v700h37.2402l444.98 -624.22v624.22h41z" />
    <glyph glyph-name="Ncommaaccent" unicode="&#x145;" horiz-adv-x="737" 
d="M628.5 700v-700h-37.2305l-444.98 624.22v-624.22h-41v700h37.2305l444.98 -624.22v624.22h41zM373.37 -87.1904c13.7695 0.0996094 24.79 -9.4502 27.5996 -26.3604c5.26953 -31.5898 -15.7803 -91.46 -44.6406 -129.06l-20.4297 13.1699
c16.0303 24.3096 26.3799 52.8994 29.7402 90.4092c-10.2695 3.11035 -18.7998 12.5908 -18.9297 25.4307c0.129883 14.3896 11.5703 26.5098 26.6602 26.4102z" />
    <glyph glyph-name="Eng" unicode="&#x14a;" horiz-adv-x="737" 
d="M628.5 700l-0.000976562 -662.48c0 -139.14 -96.2197 -251.59 -244.47 -251.59c-34.9805 0 -67.1309 6.33984 -95.8213 17.8799l12.0303 31.8203c25.7598 -9.45996 53.1299 -14.4102 83.7803 -14.4102c112.5 0 189.78 78.71 201.83 186.38l-439.56 616.62v-624.22h-41
v700h37.2305l444.98 -624.22v624.22h41z" />
    <glyph glyph-name="Ntilde" unicode="&#xd1;" horiz-adv-x="737" 
d="M293.46 866.74c-33.2803 0.0498047 -56.3906 -26.1299 -81.0303 -62.9102l-26.7998 19.25c24.1699 35.2803 56.3096 79.7002 108.96 79.7002c37.3096 0 67.1992 -21.6299 90.8291 -39.6299c24.5801 -18.4902 45.0703 -30.5498 64.5605 -30.4297
c31.3496 -0.120117 55.0996 30.2295 75.3096 60.6797l26.7598 -19.29c-24.2998 -35.1797 -52.9795 -76.8594 -102.01 -77.1797c-33.71 0 -62.3896 19.2598 -87.2793 37.9297c-21.2998 16.25 -42.9395 31.9297 -69.2998 31.8799zM628.489 700.011v-700h-37.2402
l-444.98 624.22v-624.22h-41v700h37.2402l444.98 -624.22v624.22h41z" />
    <glyph glyph-name="O" unicode="O" horiz-adv-x="881" 
d="M440.45 714.01c208.19 0 343.301 -162.689 343.301 -363.979c0 -201.3 -135.11 -363.99 -343.301 -363.99c-206.81 0 -343.3 162.69 -343.3 363.99c0 202.67 136.49 363.979 343.3 363.979zM440.23 674.581c-180.01 0 -300.149 -140.911 -300.149 -324.551
c0 -182.29 120.26 -324.56 300.37 -324.56c181.35 0 300.359 142.16 300.359 324.561c0 182.39 -119.01 324.55 -300.58 324.55z" />
    <glyph glyph-name="Oacute" unicode="&#xd3;" horiz-adv-x="881" 
d="M460.01 756.17h-43.2803l127.78 172.6h50.5898zM440.46 714.01c208.19 0 343.3 -162.689 343.3 -363.979c0 -201.3 -135.12 -363.99 -343.3 -363.99c-206.81 0 -343.31 162.69 -343.31 363.99c0 202.67 136.5 363.979 343.31 363.979zM440.229 674.581
c-180.01 0 -300.141 -140.911 -300.141 -324.551c0 -182.29 120.25 -324.56 300.36 -324.56c181.36 0 300.36 142.16 300.36 324.561c0 182.39 -119 324.55 -300.58 324.55z" />
    <glyph glyph-name="Ocaron" unicode="&#x1d1;" horiz-adv-x="881" 
d="M418.76 764.4l-146.591 172.6h47.0498l121.19 -146.45l121.19 146.45h47.04l-146.6 -172.6h-43.2803zM440.459 714.01c208.19 0 343.301 -162.689 343.301 -363.979c0 -201.3 -135.11 -363.99 -343.301 -363.99c-206.81 0 -343.3 162.69 -343.3 363.99
c0 202.67 136.49 363.979 343.3 363.979zM440.459 25.4707c181.35 0 300.359 142.159 300.359 324.56c0 182.39 -119.01 324.55 -300.58 324.55c-180.01 0 -300.149 -140.91 -300.149 -324.55c0 -182.29 120.26 -324.56 300.37 -324.56z" />
    <glyph glyph-name="Ocircumflex" unicode="&#xd4;" horiz-adv-x="881" 
d="M318.96 764.4h-47.0586l146.6 172.6h43.2803l146.6 -172.6h-47.04l-121.19 146.45zM440.451 714.011c208.19 0 343.3 -162.689 343.3 -363.989c0 -201.29 -135.12 -363.98 -343.3 -363.98c-206.81 0 -343.31 162.69 -343.31 363.98
c0 202.68 136.5 363.989 343.31 363.989zM440.44 25.4717c181.36 0 300.359 142.16 300.359 324.55c0 182.4 -119 324.561 -300.58 324.561c-180.01 0 -300.14 -140.91 -300.14 -324.561c0 -182.29 120.25 -324.55 300.36 -324.55z" />
    <glyph glyph-name="Ocircumflexacute" unicode="&#x1ed0;" horiz-adv-x="881" 
d="M662.34 825h-43.2803l127.78 172.6h50.5898zM319.119 764.4h-47.0586l146.6 172.6h43.2803l146.6 -172.6h-47.04l-121.19 146.45zM440.45 714.011c208.19 0 343.3 -162.689 343.3 -363.989c0 -201.29 -135.12 -363.98 -343.3 -363.98
c-206.81 0 -343.31 162.69 -343.31 363.98c0 202.68 136.5 363.989 343.31 363.989zM440.439 25.4717c181.36 0 300.359 142.16 300.359 324.55c0 182.4 -119 324.561 -300.58 324.561c-180.01 0 -300.14 -140.91 -300.14 -324.561c0 -182.29 120.25 -324.55 300.36 -324.55
z" />
    <glyph glyph-name="Ocircumflexdotbelow" unicode="&#x1ed8;" horiz-adv-x="881" 
d="M318.96 764.4h-47.0586l146.6 172.6h43.2803l146.6 -172.6h-47.04l-121.19 146.45zM440.451 714.011c208.19 0 343.3 -162.689 343.3 -363.989c0 -201.29 -135.12 -363.98 -343.3 -363.98c-206.81 0 -343.31 162.69 -343.31 363.98
c0 202.68 136.5 363.989 343.31 363.989zM440.44 25.4717c181.36 0 300.359 142.16 300.359 324.55c0 182.4 -119 324.561 -300.58 324.561c-180.01 0 -300.14 -140.91 -300.14 -324.561c0 -182.29 120.25 -324.55 300.36 -324.55zM440.22 -97.2881
c15.5996 0 28.25 -12.6396 28.25 -28.2393s-12.6504 -28.25 -28.25 -28.25s-28.2393 12.6504 -28.2393 28.25s12.6396 28.2393 28.2393 28.2393z" />
    <glyph glyph-name="Ocircumflexgrave" unicode="&#x1ed2;" horiz-adv-x="881" 
d="M659.01 825l-135.09 172.6h50.5898l127.78 -172.6h-43.2803zM318.96 764.399h-47.0488l146.6 172.6h43.2803l146.6 -172.6h-47.0498l-121.19 146.45zM440.451 714.01c208.19 0 343.301 -162.689 343.301 -363.979c0 -201.3 -135.11 -363.99 -343.301 -363.99
c-206.81 0 -343.3 162.69 -343.3 363.99c0 202.67 136.49 363.979 343.3 363.979zM440.451 25.4707c181.35 0 300.359 142.159 300.359 324.56c0 182.39 -119.01 324.55 -300.58 324.55c-180.01 0 -300.149 -140.91 -300.149 -324.55
c0 -182.29 120.26 -324.56 300.37 -324.56z" />
    <glyph glyph-name="Ocircumflexhookabove" unicode="&#x1ed4;" horiz-adv-x="881" 
d="M667.01 997.41c-32.2402 -0.0302734 -64.0381 -7.26172 -89.1582 -18.4717l-14.5898 28.7803c30.1396 14.2998 66.6299 22.0303 103.99 22.0303c61.4297 0 115.939 -20.0703 116.1 -95.75c-0.160156 -52.7695 -27.8906 -68.8096 -85.1504 -96.8594
c-27.1299 -13.2197 -41.2002 -20.5996 -42.3203 -44.3896h-34.8701c1.17969 43.6602 30.4795 59.0605 62.1895 74.4307c49.7402 23.8398 65.29 35.2695 65.3701 68.3896c-0.209961 47.3301 -35.3203 61.8701 -81.5605 61.8398zM318.781 764.389h-47.0488l146.6 172.6
h43.2803l146.6 -172.6h-47.0498l-121.19 146.45zM440.442 713.999c208.19 0 343.3 -162.689 343.3 -363.979c0 -201.3 -135.12 -363.99 -343.3 -363.99c-206.81 0 -343.31 162.69 -343.31 363.99c0 202.67 136.5 363.979 343.31 363.979zM440.432 25.46
c181.36 0 300.359 142.159 300.359 324.56c0 182.39 -119 324.55 -300.58 324.55c-180.01 0 -300.14 -140.91 -300.14 -324.55c0 -182.29 120.25 -324.56 300.36 -324.56z" />
    <glyph glyph-name="Ocircumflextilde" unicode="&#x1ed6;" horiz-adv-x="881" 
d="M364.77 1021.12c-33.29 0.0498047 -56.3896 -26.1396 -81.04 -62.9199l-26.7998 19.25c24.1797 35.2803 56.3193 79.7002 108.97 79.7002c37.3096 0 67.1895 -21.6299 90.8193 -39.6299c24.5898 -18.4902 45.0801 -30.5498 64.5605 -30.4297
c31.3604 -0.120117 55.1006 30.2295 75.3203 60.6895l26.7598 -19.29c-24.2998 -35.1797 -52.9902 -76.8701 -102.01 -77.1797c-33.71 0 -62.4004 19.25 -87.29 37.9199c-21.29 16.2598 -42.9297 31.9395 -69.29 31.8896zM461.779 936.991l146.591 -172.6h-47.0498
l-121.19 146.45l-121.19 -146.45h-47.04l146.6 172.6h43.2803zM440.43 714.002c208.19 0 343.301 -162.689 343.301 -363.979c0 -201.3 -135.11 -363.99 -343.301 -363.99c-206.81 0 -343.3 162.69 -343.3 363.99c0 202.67 136.49 363.979 343.3 363.979zM440.43 25.4629
c181.35 0 300.359 142.159 300.359 324.56c0 182.39 -119.01 324.55 -300.58 324.55c-180.01 0 -300.149 -140.91 -300.149 -324.55c0 -182.29 120.26 -324.56 300.37 -324.56z" />
    <glyph glyph-name="Odieresis" unicode="&#xd6;" horiz-adv-x="881" 
d="M333.71 865.24c15.5996 0 28.25 -12.6396 28.25 -28.2393s-12.6504 -28.25 -28.25 -28.25s-28.2393 12.6504 -28.2393 28.25s12.6396 28.2393 28.2393 28.2393zM546.58 865.24c15.5996 0 28.25 -12.6396 28.25 -28.2393s-12.6504 -28.25 -28.25 -28.25
s-28.2393 12.6504 -28.2393 28.25s12.6396 28.2393 28.2393 28.2393zM440.45 714.01c208.19 0 343.301 -162.689 343.301 -363.979c0 -201.3 -135.11 -363.99 -343.301 -363.99c-206.81 0 -343.3 162.69 -343.3 363.99c0 202.67 136.49 363.979 343.3 363.979z
M440.23 674.581c-180.01 0 -300.149 -140.911 -300.149 -324.551c0 -182.29 120.26 -324.56 300.37 -324.56c181.35 0 300.359 142.16 300.359 324.561c0 182.39 -119.01 324.55 -300.58 324.55z" />
    <glyph glyph-name="Odotbelow" unicode="&#x1ecc;" horiz-adv-x="881" 
d="M440.45 714.01c208.19 0 343.301 -162.689 343.301 -363.979c0 -201.3 -135.11 -363.99 -343.301 -363.99c-206.81 0 -343.3 162.69 -343.3 363.99c0 202.67 136.49 363.979 343.3 363.979zM440.23 674.581c-180.01 0 -300.149 -140.911 -300.149 -324.551
c0 -182.29 120.26 -324.56 300.37 -324.56c181.35 0 300.359 142.16 300.359 324.561c0 182.39 -119.01 324.55 -300.58 324.55zM440.23 -97.2803c15.5996 0 28.2393 -12.6504 28.2393 -28.25s-12.6396 -28.2393 -28.2393 -28.2393s-28.25 12.6396 -28.25 28.2393
s12.6504 28.25 28.25 28.25z" />
    <glyph glyph-name="Ograve" unicode="&#xd2;" horiz-adv-x="881" 
d="M462.87 764.4h-43.2803l-135.09 172.6h50.5898zM440.46 714.011c208.19 0 343.3 -162.689 343.3 -363.989c0 -201.29 -135.12 -363.98 -343.3 -363.98c-206.81 0 -343.31 162.69 -343.31 363.98c0 202.68 136.5 363.989 343.31 363.989zM440.229 674.582
c-180.01 0 -300.141 -140.91 -300.141 -324.561c0 -182.29 120.25 -324.55 300.36 -324.55c181.36 0 300.36 142.16 300.36 324.55c0 182.4 -119 324.561 -300.58 324.561z" />
    <glyph glyph-name="Ohookabove" unicode="&#x1ece;" horiz-adv-x="881" 
d="M461.86 997.36c61.4297 0 115.941 -20.0908 116.092 -95.7705c-0.150391 -52.7598 -27.8906 -68.8096 -85.1406 -96.8594c-27.1299 -13.21 -41.21 -20.5996 -42.3301 -44.3896h-34.8604c1.16992 43.6602 30.4795 59.0703 62.1895 74.4307
c49.7402 23.8496 65.2803 35.2695 65.3701 68.3994c-0.209961 47.3301 -35.3203 61.8701 -81.5605 61.8398c-32.2402 -0.0302734 -64.04 -7.26074 -89.1602 -18.4707l-14.5898 28.7803c30.1396 14.3096 66.6299 22.04 103.99 22.04zM440.452 713.989
c208.19 0 343.3 -162.689 343.3 -363.979c0 -201.3 -135.12 -363.99 -343.3 -363.99c-206.81 0 -343.31 162.69 -343.31 363.99c0 202.67 136.5 363.979 343.31 363.979zM440.222 674.561c-180.01 0 -300.141 -140.911 -300.141 -324.551
c0 -182.29 120.25 -324.56 300.36 -324.56c181.36 0 300.36 142.16 300.36 324.561c0 182.39 -119 324.55 -300.58 324.55z" />
    <glyph glyph-name="Ohorn" unicode="&#x1a0;" horiz-adv-x="881" 
d="M761.69 636.8c-19.8096 -15.7695 -47.4307 -23.0098 -79.8008 -20.5098c64.9502 -66.4004 101.86 -161.061 101.86 -266.261c0 -201.3 -135.12 -363.99 -343.3 -363.99c-206.81 0 -343.31 162.69 -343.31 363.99c0 202.67 136.5 363.979 343.31 363.979
c80.3604 0 149.841 -24.2402 204.86 -65.5898c38.79 -10.5498 69.9297 -6.04004 90.3096 10.96c25.0898 20.9404 32.7998 60.2803 14.3701 116.38l35.2803 10.6104c22.7402 -69.3496 10.5801 -122.159 -23.5801 -149.569zM440.439 25.4697
c181.36 0 300.359 142.16 300.359 324.55c0 182.4 -119 324.561 -300.58 324.561c-180.01 0 -300.14 -140.91 -300.14 -324.561c0 -182.29 120.25 -324.55 300.36 -324.55z" />
    <glyph glyph-name="Ohornacute" unicode="&#x1eda;" horiz-adv-x="881" 
d="M460.01 756.16h-43.2803l127.78 172.6h50.5898zM761.689 636.8c-19.8096 -15.7695 -47.4287 -23.0195 -79.7988 -20.5195c64.9502 -66.4004 101.86 -161.061 101.86 -266.271c0 -201.29 -135.11 -363.98 -343.301 -363.98c-206.81 0 -343.3 162.69 -343.3 363.98
c0 202.68 136.49 363.989 343.3 363.989c80.3701 0 149.84 -24.2402 204.859 -65.5898c38.79 -10.54 69.9404 -6.03027 90.3203 10.9697c25.0898 20.9404 32.7998 60.2803 14.3594 116.38l35.29 10.6104c22.7402 -69.3496 10.5703 -122.159 -23.5898 -149.569z
M440.45 25.4502c181.36 0 300.359 142.159 300.359 324.56c0 182.39 -119 324.55 -300.58 324.55c-180.01 0 -300.14 -140.91 -300.14 -324.55c0 -182.29 120.25 -324.56 300.36 -324.56z" />
    <glyph glyph-name="Ohorndotbelow" unicode="&#x1ee2;" horiz-adv-x="881" 
d="M761.69 636.8c-19.8096 -15.7695 -47.4404 -23.0195 -79.8105 -20.5195c64.96 -66.4004 101.87 -161.061 101.87 -266.271c0 -201.29 -135.12 -363.98 -343.3 -363.98c-206.81 0 -343.31 162.69 -343.31 363.98c0 202.68 136.5 363.989 343.31 363.989
c80.3604 0 149.841 -24.2402 204.86 -65.5898c38.79 -10.54 69.9297 -6.03027 90.3096 10.9697c25.0898 20.9404 32.7998 60.2803 14.3701 116.38l35.2803 10.6104c22.7402 -69.3496 10.5801 -122.159 -23.5801 -149.569zM440.449 25.4502
c181.35 0 300.359 142.159 300.359 324.56c0 182.39 -119.01 324.55 -300.58 324.55c-180.01 0 -300.149 -140.91 -300.149 -324.55c0 -182.29 120.26 -324.56 300.37 -324.56zM440.229 -97.3008c15.5996 0 28.2393 -12.6504 28.2393 -28.25
s-12.6396 -28.2393 -28.2393 -28.2393s-28.25 12.6396 -28.25 28.2393s12.6504 28.25 28.25 28.25z" />
    <glyph glyph-name="Ohorngrave" unicode="&#x1edc;" horiz-adv-x="881" 
d="M419.59 764.4l-135.09 172.6h50.5898l127.78 -172.6h-43.2803zM761.69 636.8c-19.8096 -15.7695 -47.4199 -23.0098 -79.79 -20.5098c64.9502 -66.4004 101.86 -161.061 101.86 -266.271c0 -201.29 -135.12 -363.98 -343.3 -363.98
c-206.81 0 -343.31 162.69 -343.31 363.98c0 202.68 136.5 363.989 343.31 363.989c80.3604 0 149.841 -24.25 204.86 -65.5996c38.79 -10.54 69.9297 -6.03027 90.3096 10.9697c25.0898 20.9404 32.7998 60.2803 14.3594 116.38l35.29 10.6104
c22.7402 -69.3496 10.5703 -122.159 -23.5898 -149.569zM440.46 25.4697c181.35 0 300.359 142.16 300.359 324.55c0 182.4 -119.01 324.561 -300.58 324.561c-180.01 0 -300.149 -140.91 -300.149 -324.561c0 -182.29 120.26 -324.55 300.37 -324.55z" />
    <glyph glyph-name="Ohornhookabove" unicode="&#x1ede;" horiz-adv-x="881" 
d="M461.62 965.01c-32.2305 -0.0302734 -64.0381 -7.27148 -89.1582 -18.4814l-14.5996 28.7803c30.1396 14.3096 66.6299 22.04 103.99 22.04c61.4297 0 115.949 -20.0801 116.1 -95.75c-0.150391 -52.7695 -27.8906 -68.8096 -85.1406 -96.8594
c-27.1299 -13.2197 -41.21 -20.5996 -42.3301 -44.3896h-34.8604c1.16992 43.6602 30.4795 59.0605 62.1895 74.4307c49.7402 23.8398 65.2803 35.2695 65.3701 68.3896c-0.209961 47.3301 -35.3203 61.8799 -81.5605 61.8398zM761.683 636.789
c-19.8096 -15.7598 -47.4287 -23.0283 -79.7988 -20.5283c64.9502 -66.4004 101.86 -161.061 101.86 -266.261c0 -201.3 -135.11 -363.99 -343.301 -363.99c-206.81 0 -343.3 162.69 -343.3 363.99c0 202.67 136.49 363.979 343.3 363.979
c80.3701 0 149.84 -24.2402 204.859 -65.5801c38.79 -10.5498 69.9404 -6.04004 90.3203 10.96c25.0898 20.9404 32.7998 60.2803 14.3594 116.38l35.29 10.6201c22.7402 -69.3604 10.5703 -122.16 -23.5898 -149.57zM440.443 25.4404
c181.36 0 300.359 142.16 300.359 324.55c0 182.4 -119 324.561 -300.58 324.561c-180.01 0 -300.14 -140.91 -300.14 -324.561c0 -182.29 120.25 -324.55 300.36 -324.55z" />
    <glyph glyph-name="Ohorntilde" unicode="&#x1ee0;" horiz-adv-x="881" 
d="M364.77 866.73c-33.29 0.0595703 -56.3896 -26.1299 -81.04 -62.9102l-26.7998 19.2598c24.1797 35.2803 56.3193 79.7002 108.97 79.7002c37.3096 -0.00976562 67.1895 -21.6396 90.8193 -39.6396c24.5898 -18.4902 45.0801 -30.5498 64.5605 -30.4199
c31.3604 -0.129883 55.1006 30.2197 75.3203 60.6797l26.7598 -19.29c-24.2998 -35.1797 -52.9902 -76.8701 -102.01 -77.1797c-33.71 0 -62.4004 19.25 -87.29 37.9199c-21.29 16.2598 -42.9297 31.9395 -69.29 31.8799zM761.68 636.812
c-19.8096 -15.7695 -47.4287 -23.0195 -79.7988 -20.5195c64.9502 -66.4004 101.86 -161.061 101.86 -266.271c0 -201.29 -135.11 -363.98 -343.301 -363.98c-206.81 0 -343.3 162.69 -343.3 363.98c0 202.68 136.49 363.989 343.3 363.989
c80.3701 0 149.84 -24.2402 204.859 -65.5898c38.79 -10.54 69.9404 -6.03027 90.3203 10.9697c25.0898 20.9404 32.7998 60.2803 14.3594 116.38l35.29 10.6104c22.7402 -69.3496 10.5703 -122.159 -23.5898 -149.569zM440.44 25.4619
c181.36 0 300.359 142.159 300.359 324.56c0 182.39 -119 324.55 -300.58 324.55c-180.01 0 -300.14 -140.91 -300.14 -324.55c0 -182.29 120.25 -324.56 300.36 -324.56z" />
    <glyph glyph-name="Ohungarumlaut" unicode="&#x150;" horiz-adv-x="881" 
d="M363.18 764.4h-43.2803l127.78 172.6h50.5898zM561.27 764.4h-43.2695l127.77 172.6h50.5898zM440.46 714.011c208.19 0 343.3 -162.689 343.3 -363.989c0 -201.29 -135.12 -363.98 -343.3 -363.98c-206.81 0 -343.31 162.69 -343.31 363.98
c0 202.68 136.5 363.989 343.31 363.989zM440.229 674.582c-180.01 0 -300.141 -140.91 -300.141 -324.561c0 -182.29 120.25 -324.55 300.36 -324.55c181.36 0 300.36 142.16 300.36 324.55c0 182.4 -119 324.561 -300.58 324.561z" />
    <glyph glyph-name="Omacron" unicode="&#x14c;" horiz-adv-x="881" 
d="M604.01 812.04h-327.73v35.9199h327.73v-35.9199zM440.449 714.01c208.19 0 343.301 -162.689 343.301 -363.979c0 -201.3 -135.11 -363.99 -343.301 -363.99c-206.81 0 -343.3 162.69 -343.3 363.99c0 202.67 136.49 363.979 343.3 363.979zM440.229 674.581
c-180.01 0 -300.149 -140.911 -300.149 -324.551c0 -182.29 120.26 -324.56 300.37 -324.56c181.35 0 300.359 142.16 300.359 324.561c0 182.39 -119.01 324.55 -300.58 324.55z" />
    <glyph glyph-name="Oslash" unicode="&#xd8;" horiz-adv-x="881" 
d="M661.64 750l-42.2393 -84.0381c103.29 -62.7305 164.35 -180.61 164.35 -315.931c0 -201.3 -135.11 -363.99 -343.301 -363.99c-54.2197 0 -103.609 11.1904 -146.979 31.3203l-33.8496 -67.3604h-40.3604l42.4004 84.3701c-103 62.79 -164.52 180.53 -164.52 315.66
c0 202.67 136.5 363.979 343.31 363.979c54.4004 0 103.811 -11.1104 147.12 -31.1104l33.7197 67.0996h40.3496zM140.091 350.032c0 -120.34 52.4092 -223.24 139.859 -279.28l289.55 576.18c-38.0801 17.8203 -81.5098 27.6504 -129.27 27.6504
c-180.01 0 -300.14 -140.91 -300.14 -324.55zM440.46 25.4824c181.36 0 300.351 142.16 300.351 324.55c0 120.57 -52 223.561 -139.7 279.53l-289.57 -576.26c38.0703 -17.9199 81.4102 -27.8203 128.92 -27.8203z" />
    <glyph glyph-name="Otilde" unicode="&#xd5;" horiz-adv-x="881" 
d="M365.9 902.77c37.3096 -0.00976562 67.1885 -21.6289 90.8184 -39.6289c24.5801 -18.4902 45.0703 -30.5498 64.5605 -30.4199c31.3496 -0.129883 55.0996 30.2197 75.3096 60.6797l26.7598 -19.29c-24.2998 -35.1797 -52.9795 -76.8701 -102.01 -77.1797
c-33.71 0 -62.3896 19.25 -87.2793 37.9199c-21.2998 16.2598 -42.9395 31.9395 -69.2998 31.8799c-33.2803 0.0595703 -56.3799 -26.1406 -81.0195 -62.9209l-26.7998 19.2598c24.1699 35.2803 56.3096 79.7002 108.96 79.7002zM440.439 714.021
c208.19 0 343.301 -162.689 343.301 -363.989c0 -201.29 -135.11 -363.98 -343.301 -363.98c-206.81 0 -343.3 162.69 -343.3 363.98c0 202.68 136.49 363.989 343.3 363.989zM440.22 674.592c-180.01 0 -300.149 -140.91 -300.149 -324.561
c0 -182.29 120.26 -324.55 300.37 -324.55c181.35 0 300.359 142.16 300.359 324.55c0 182.4 -119.01 324.561 -300.58 324.561z" />
    <glyph glyph-name="OE" unicode="&#x152;" horiz-adv-x="1243" 
d="M1186.26 35.29v-35.2998h-442.5v171.64c-54.6504 -110.85 -162.19 -185.6 -303.311 -185.6c-206.81 0 -343.3 162.69 -343.3 363.99c0 202.67 136.49 363.979 343.3 363.979c141.12 0 248.66 -74.7402 303.311 -185.59v171.58h41h391.5v-35.29h-391.5v-280.5h352.51
v-35.29h-352.51v-313.62h401.5zM440.45 25.46c181.36 0 300.359 142.159 300.359 324.56c0 182.39 -119 324.55 -300.58 324.55c-180.01 0 -300.14 -140.91 -300.14 -324.55c0 -182.29 120.25 -324.56 300.36 -324.56z" />
    <glyph glyph-name="P" unicode="P" horiz-adv-x="689" 
d="M133.39 700.06h278.13c105.6 0 194.189 -85.0703 193.47 -213.98c0 -129.76 -88.5898 -213.979 -193.479 -213.979h-256.79v-272.1h-41v700h19.6699v0.0595703zM562.739 486.27c0.610352 110.2 -69.6104 178.499 -151.221 178.489h-256.8v-357.38h256.79
c81.0303 0 151.23 67.6104 151.23 178.891z" />
    <glyph glyph-name="Thorn" unicode="&#xde;" horiz-adv-x="689" 
d="M154.72 574.55h256.8c105.6 0 194.189 -85.0703 193.47 -213.98c0 -129.76 -88.5898 -213.979 -193.479 -213.979h-256.79v-146.59h-41v700h41v-125.45zM562.739 360.76c0.610352 110.2 -69.6104 178.499 -151.221 178.489h-256.8v-357.38h256.79
c81.0303 0 151.23 67.6104 151.23 178.891z" />
    <glyph glyph-name="Q" unicode="Q" horiz-adv-x="847" 
d="M766.61 350.03c0 -141.17 -66.46 -263.361 -177.97 -323.751l75.9502 -133.95l-42.7402 -7.84961l-68.9805 125.19c-38.9502 -15.2695 -82.3799 -23.6299 -129.57 -23.6299c-206.81 0 -343.3 162.69 -343.3 363.99c0 202.67 136.49 365.36 343.3 363.98
c208.19 0 343.311 -162.69 343.311 -363.98zM423.301 25.4697c39.9199 0 76.8096 6.88965 110.079 19.5801l-84.1396 152.72l38.2695 6.84961l81.2002 -143.21c96.8604 53.3896 154.95 161.18 154.95 288.62c0 182.39 -119.01 324.55 -300.649 324.55
c-179.94 1.2002 -300.07 -140.89 -300.07 -324.55c0 -182.29 120.25 -324.56 300.36 -324.56z" />
    <glyph glyph-name="R" unicode="R" horiz-adv-x="666" 
d="M392.1 300.35l-237.38 0.000976562v-300.36h-41v700h41h246.42c104.69 1.12988 192.511 -78.7998 191.801 -199.81c0 -107.87 -69.5801 -182.03 -158.21 -197.03l180.59 -303.15h-48.3203zM154.72 335.641l246.42 -0.000976562c81.2402 0 149.54 62.96 149.54 164.74
c0.589844 101.41 -67.6699 165.36 -149.54 164.32h-246.42v-329.06z" />
    <glyph glyph-name="Racute" unicode="&#x154;" horiz-adv-x="666" 
d="M341.08 756.17h-43.2803l127.78 172.6h50.5898zM392.1 300.35l-237.38 0.000976562v-300.36h-41v700h41h246.42c104.69 1.12988 192.511 -78.7998 191.801 -199.81c0 -107.87 -69.5801 -182.03 -158.21 -197.03l180.59 -303.15h-48.3203zM154.72 335.641
l246.42 -0.000976562c81.2402 0 149.54 62.96 149.54 164.74c0.589844 101.41 -67.6699 165.36 -149.54 164.32h-246.42v-329.06z" />
    <glyph glyph-name="Rcaron" unicode="&#x158;" horiz-adv-x="666" 
d="M299.83 764.4l-146.591 172.6h47.0498l121.19 -146.45l121.19 146.45h47.04l-146.6 -172.6h-43.2803zM392.109 300.35l-237.38 0.000976562v-300.36h-41v700h41h246.42c104.69 1.12988 192.511 -78.7998 191.801 -199.81c0 -107.87 -69.5801 -182.03 -158.21 -197.03
l180.59 -303.15h-48.3203zM154.729 335.641l246.42 -0.000976562c81.2402 0 149.54 62.96 149.54 164.74c0.589844 101.41 -67.6699 165.36 -149.54 164.32h-246.42v-329.06z" />
    <glyph glyph-name="Rcommaaccent" unicode="&#x156;" horiz-adv-x="666" 
d="M567 0l-174.91 300.351h-237.37v-300.36h-41v700h41h246.42c104.69 1.12988 192.511 -78.7998 191.801 -199.81c0 -107.87 -69.5801 -182.03 -158.21 -197.03l180.59 -303.15h-48.3203zM154.72 335.641l246.42 -0.000976562c81.2402 0 149.54 62.96 149.54 164.74
c0.589844 101.41 -67.6699 165.36 -149.54 164.32h-246.42v-329.06zM325.739 -87.2002c13.7695 0.0996094 24.79 -9.45801 27.5996 -26.3584c5.26953 -31.5996 -15.7803 -91.46 -44.6406 -129.07l-20.4297 13.1699c16.0303 24.3096 26.3799 52.9092 29.7402 90.4189
c-10.2695 3.11035 -18.7998 12.5801 -18.9297 25.4199c0.129883 14.3896 11.5703 26.5195 26.6602 26.4199z" />
    <glyph glyph-name="S" unicode="S" horiz-adv-x="653" 
d="M327.5 714c92.4004 0 180.338 -30.8184 243.147 -83.418l-23.6904 -29.0898c-55.3701 45.3398 -132.34 73.71 -219.27 73.7695c-105.91 -0.0595703 -206.82 -42.04 -202.84 -154.24c3.25 -82.4502 59.3203 -103.681 214.03 -141.86
c118.51 -29.0498 240.35 -57.8594 243.949 -194.56c3.55957 -134.79 -116.5 -199.28 -234.81 -199.28c-114.1 0 -225.279 59.0996 -280.869 131.33l25.3096 27.1797c52.5801 -68.4404 154.44 -120.341 255.521 -120.19c102.88 -0.150391 194.66 51.8301 191.92 159.7
c-2.75 107.3 -95.1299 128.899 -211.85 157.59c-165.97 41.4502 -242.569 72.79 -246.129 179.85c-4.67969 140.59 125.32 193.22 245.58 193.22z" />
    <glyph glyph-name="Sacute" unicode="&#x15a;" horiz-adv-x="653" 
d="M344.69 756.17h-43.2695l127.77 172.6h50.5898zM327.501 714c92.3896 0 180.34 -30.8184 243.16 -83.418l-23.6904 -29.0898c-55.3701 45.3398 -132.351 73.71 -219.271 73.7695c-105.92 -0.0595703 -206.82 -42.04 -202.851 -154.24
c3.25 -82.4502 59.3203 -103.681 214.04 -141.86c118.51 -29.0498 240.34 -57.8594 243.95 -194.56c3.5498 -134.79 -116.51 -199.28 -234.81 -199.28c-114.11 0 -225.28 59.0996 -280.87 131.33l25.3096 27.1797c52.5703 -68.4404 154.431 -120.341 255.511 -120.19
c102.89 -0.150391 194.67 51.8301 191.92 159.7c-2.74023 107.3 -95.1299 128.899 -211.85 157.59c-165.96 41.4502 -242.57 72.79 -246.13 179.85c-4.66992 140.59 125.33 193.22 245.58 193.22z" />
    <glyph glyph-name="Scaron" unicode="&#x160;" horiz-adv-x="653" 
d="M303.45 764.4l-146.591 172.6h47.04l121.19 -146.45l121.19 146.45h47.0498l-146.6 -172.6h-43.2803zM582.84 184.6c3.5498 -134.79 -116.501 -199.279 -234.801 -199.279c-114.11 0 -225.28 59.0996 -280.87 131.33l25.3096 27.1904
c52.5703 -68.4502 154.431 -120.34 255.511 -120.2c102.89 -0.139648 194.67 51.8301 191.92 159.7c-2.74023 107.3 -95.1299 128.91 -211.85 157.59c-165.96 41.46 -242.57 72.79 -246.13 179.85c-4.66992 140.59 125.33 193.22 245.58 193.22
c92.4004 0 180.341 -30.8203 243.15 -83.4199l-23.6904 -29.0898c-55.3701 45.3398 -132.34 73.71 -219.27 73.7695c-105.91 -0.0595703 -206.82 -42.04 -202.84 -154.24c3.25 -82.4502 59.3203 -103.681 214.03 -141.86c118.51 -29.0498 240.35 -57.8594 243.949 -194.56z
" />
    <glyph glyph-name="Scedilla" unicode="&#x15e;" horiz-adv-x="653" 
d="M348.02 -14.6904c-6.41992 0 -12.8398 0.19043 -19.2402 0.560547l-17.6904 -41.9502c6.20996 0.509766 12.4199 0.740234 18.7295 0.709961c63.3496 -2.46973 107.72 -37.5898 107.39 -91.8398c0.339844 -56.5195 -48.8604 -99.8096 -124.971 -100.79
c-40.6201 -0.990234 -96.3896 10.46 -128.27 26.79l13.0303 26.7305c29.9902 -14.2002 76.71 -23.25 112.21 -22.7402c57.6396 0.679688 89.75 29.8896 89.6797 69.7793c0.0703125 38.7305 -30.0293 63.5908 -78.6396 63.6309
c-12.79 0.00976562 -30.1299 -2.32031 -43.0498 -5.69043l-10 20.5898l27.8799 58.3604c-94.4697 14.6104 -181 66.2305 -227.92 127.2l25.3096 27.1797c52.5703 -68.4404 154.431 -120.341 255.511 -120.19c102.89 -0.150391 194.67 51.8301 191.92 159.7
c-2.74023 107.3 -95.1299 128.899 -211.85 157.59c-165.96 41.4502 -242.57 72.79 -246.13 179.85c-4.66992 140.59 125.33 193.22 245.58 193.22c92.4004 0 180.341 -30.8301 243.15 -83.4199l-23.6904 -29.0898c-55.3701 45.3301 -132.34 73.7002 -219.27 73.7598
c-105.91 -0.0595703 -206.82 -42.0293 -202.84 -154.229c3.25 -82.4502 59.3203 -103.681 214.03 -141.86c118.51 -29.0498 240.35 -57.8594 243.949 -194.569c3.55957 -134.79 -116.5 -199.28 -234.81 -199.28z" />
    <glyph glyph-name="Scommaaccent" unicode="&#x218;" horiz-adv-x="653" 
d="M327.5 714c92.4004 0 180.338 -30.8184 243.147 -83.418l-23.6904 -29.0898c-55.3701 45.3398 -132.34 73.71 -219.27 73.7695c-105.91 -0.0595703 -206.82 -42.04 -202.84 -154.24c3.25 -82.4502 59.3203 -103.681 214.03 -141.86
c118.51 -29.0498 240.35 -57.8594 243.949 -194.56c3.55957 -134.79 -116.5 -199.28 -234.81 -199.28c-114.1 0 -225.279 59.0996 -280.869 131.33l25.3096 27.1797c52.5801 -68.4404 154.44 -120.341 255.521 -120.19c102.88 -0.150391 194.66 51.8301 191.92 159.7
c-2.75 107.3 -95.1299 128.899 -211.85 157.59c-165.97 41.4502 -242.569 72.79 -246.129 179.85c-4.67969 140.59 125.32 193.22 245.58 193.22zM323.697 -87.1885c13.7695 0.0996094 24.79 -9.4502 27.6104 -26.3604c5.25977 -31.5898 -15.7803 -91.46 -44.6406 -129.06
l-20.4297 13.1699c16.0303 24.3096 26.3799 52.8994 29.7295 90.4092c-10.2598 3.11035 -18.7998 12.5908 -18.9297 25.4307c0.129883 14.3896 11.5703 26.5098 26.6602 26.4102z" />
    <glyph glyph-name="T" unicode="T" horiz-adv-x="641" 
d="M597.11 664.71h-256.04v-664.71h-41.3096v664.71h-256.04v35.29h553.39v-35.29z" />
    <glyph glyph-name="Tbar" unicode="&#x166;" horiz-adv-x="641" 
d="M341.38 664.71l-0.000976562 -296.75h143.21v-35.9199h-143.21v-332.04h-41.3096v332.04h-143.21v35.9199h143.21v296.75h-256.35v35.29h553.4v-35.29h-255.74z" />
    <glyph glyph-name="Tcaron" unicode="&#x164;" horiz-adv-x="641" 
d="M299.33 764.4l-146.591 172.6h47.0498l121.19 -146.45l121.19 146.45h47.04l-146.6 -172.6h-43.2803zM597.119 664.71h-256.04v-664.71h-41.3096v664.71h-256.04v35.29h553.39v-35.29z" />
    <glyph glyph-name="Tcedilla" unicode="&#x162;" horiz-adv-x="641" 
d="M337.47 -5.7998l-23.6689 -56.0898c6.20996 0.509766 12.4199 0.729492 18.7295 0.709961c63.3496 -2.46973 107.72 -37.5898 107.39 -91.8496c0.339844 -56.5098 -48.8604 -99.8096 -124.971 -100.779c-40.6201 -0.990234 -96.3896 10.46 -128.27 26.7803
l13.0303 26.7305c29.9902 -14.2002 76.71 -23.25 112.21 -22.7305c57.6396 0.669922 89.75 29.8896 89.6797 69.7793c0.0703125 38.7197 -30.0293 63.5898 -78.6396 63.6299c-12.79 0 -30.1299 -2.33008 -43.0498 -5.69043l-10 20.5898l32.9297 68.9199h-3.08008v670.51
h-256.04v35.29h553.4v-35.29h-256.04v-670.51h-3.61035z" />
    <glyph glyph-name="uni021A" unicode="&#x21a;" horiz-adv-x="641" 
d="M597.11 700v-35.29h-256.04v-664.71h-41.3096v664.71h-256.04v35.29h553.39zM325.24 -87.1904c13.7695 0.0996094 24.79 -9.45801 27.5996 -26.3584c5.26953 -31.5996 -15.7803 -91.46 -44.6406 -129.07l-20.4297 13.1699
c16.0303 24.3096 26.3799 52.9092 29.7402 90.4189c-10.2695 3.11035 -18.7998 12.5801 -18.9297 25.4199c0.129883 14.3896 11.5703 26.5195 26.6602 26.4199z" />
    <glyph glyph-name="U" unicode="U" horiz-adv-x="759" 
d="M650.49 700l0.00878906 -470.59c0 -134.59 -105.63 -243.359 -268.39 -243.359c-161.68 0 -268.39 108.77 -268.39 243.359v470.59h41v-470.59c0 -116.63 89.3496 -206.82 227.39 -206.82c138.98 0 227.381 90.0898 227.381 206.82v470.59h41z" />
    <glyph glyph-name="Uacute" unicode="&#xda;" horiz-adv-x="759" 
d="M401.13 756.17h-43.2803l127.78 172.6h50.5898zM650.5 700l-0.000976562 -470.59c0 -134.59 -105.63 -243.359 -268.38 -243.359c-161.69 0 -268.4 108.77 -268.4 243.359v470.59h41v-470.59c0 -116.63 89.3604 -206.82 227.391 -206.82
c138.98 0 227.391 90.0898 227.391 206.82v470.59h41z" />
    <glyph glyph-name="Ucaron" unicode="&#x1d3;" horiz-adv-x="759" 
d="M359.88 764.4l-146.591 172.6h47.0498l121.19 -146.45l121.19 146.45h47.04l-146.6 -172.6h-43.2803zM650.499 700l0.00878906 -470.59c0 -134.59 -105.63 -243.359 -268.39 -243.359c-161.68 0 -268.39 108.77 -268.39 243.359v470.59h41v-470.59
c0 -116.63 89.3496 -206.82 227.39 -206.82c138.98 0 227.381 90.0898 227.381 206.82v470.59h41z" />
    <glyph glyph-name="Ucircumflex" unicode="&#xdb;" horiz-adv-x="759" 
d="M260.08 764.4h-47.0586l146.6 172.6h43.2803l146.6 -172.6h-47.04l-121.19 146.45zM650.491 700l-0.000976562 -470.59c0 -134.59 -105.63 -243.359 -268.38 -243.359c-161.69 0 -268.4 108.77 -268.4 243.359v470.59h41v-470.59
c0 -116.63 89.3604 -206.82 227.391 -206.82c138.98 0 227.391 90.0898 227.391 206.82v470.59h41z" />
    <glyph glyph-name="Udieresis" unicode="&#xdc;" horiz-adv-x="759" 
d="M274.83 865.24c15.5996 0 28.25 -12.6396 28.25 -28.2393s-12.6504 -28.25 -28.25 -28.25s-28.2393 12.6504 -28.2393 28.25s12.6396 28.2393 28.2393 28.2393zM487.7 865.24c15.5996 0 28.25 -12.6396 28.25 -28.2393s-12.6504 -28.25 -28.25 -28.25
s-28.2393 12.6504 -28.2393 28.25s12.6396 28.2393 28.2393 28.2393zM650.49 700l0.00878906 -470.59c0 -134.59 -105.63 -243.359 -268.39 -243.359c-161.68 0 -268.39 108.77 -268.39 243.359v470.59h41v-470.59c0 -116.63 89.3496 -206.82 227.39 -206.82
c138.98 0 227.381 90.0898 227.381 206.82v470.59h41z" />
    <glyph glyph-name="Udieresisacute" unicode="&#x1d7;" horiz-adv-x="759" 
d="M401.13 937h-43.2803l127.78 172.6h50.5898zM274.84 865.24c15.5996 0 28.2393 -12.6396 28.2393 -28.2393s-12.6396 -28.25 -28.2393 -28.25s-28.25 12.6504 -28.25 28.25s12.6504 28.2393 28.25 28.2393zM487.71 865.24c15.5996 0 28.2393 -12.6396 28.2393 -28.2393
s-12.6396 -28.25 -28.2393 -28.25s-28.25 12.6504 -28.25 28.25s12.6504 28.2393 28.25 28.2393zM650.5 700l-0.000976562 -470.59c0 -134.59 -105.63 -243.359 -268.38 -243.359c-161.69 0 -268.4 108.77 -268.4 243.359v470.59h41v-470.59
c0 -116.63 89.3604 -206.82 227.391 -206.82c138.98 0 227.391 90.0898 227.391 206.82v470.59h41z" />
    <glyph glyph-name="Udieresiscaron" unicode="&#x1d9;" horiz-adv-x="759" 
d="M359.88 937l-146.591 172.6h47.0498l121.19 -146.45l121.19 146.45h47.04l-146.6 -172.6h-43.2803zM246.599 837c0 15.5996 12.6396 28.2393 28.2393 28.2393s28.25 -12.6396 28.25 -28.2393s-12.6504 -28.25 -28.25 -28.25s-28.2393 12.6504 -28.2393 28.25z
M459.469 837c0 15.5996 12.6396 28.2393 28.2393 28.2393s28.25 -12.6396 28.25 -28.2393s-12.6504 -28.25 -28.25 -28.25s-28.2393 12.6504 -28.2393 28.25zM650.499 700l0.00878906 -470.59c0 -134.59 -105.63 -243.359 -268.39 -243.359
c-161.68 0 -268.39 108.77 -268.39 243.359v470.59h41v-470.59c0 -116.63 89.3496 -206.82 227.39 -206.82c138.98 0 227.381 90.0898 227.381 206.82v470.59h41z" />
    <glyph glyph-name="Udieresisgrave" unicode="&#x1db;" horiz-adv-x="759" 
d="M403.99 937h-43.2803l-135.09 172.6h50.5898zM274.84 865.24c15.5996 0 28.2393 -12.6396 28.2393 -28.2393s-12.6396 -28.25 -28.2393 -28.25s-28.25 12.6504 -28.25 28.25s12.6504 28.2393 28.25 28.2393zM487.71 865.24c15.5996 0 28.2393 -12.6396 28.2393 -28.2393
s-12.6396 -28.25 -28.2393 -28.25s-28.25 12.6504 -28.25 28.25s12.6504 28.2393 28.25 28.2393zM650.5 700l-0.000976562 -470.59c0 -134.59 -105.63 -243.359 -268.38 -243.359c-161.69 0 -268.4 108.77 -268.4 243.359v470.59h41v-470.59
c0 -116.63 89.3604 -206.82 227.391 -206.82c138.98 0 227.391 90.0898 227.391 206.82v470.59h41z" />
    <glyph glyph-name="Udieresismacron" unicode="&#x1d5;" horiz-adv-x="759" 
d="M545.13 989.23h-327.73v35.9199h327.73v-35.9199zM274.829 865.24c15.5996 0 28.25 -12.6396 28.25 -28.2393s-12.6504 -28.25 -28.25 -28.25s-28.2393 12.6504 -28.2393 28.25s12.6396 28.2393 28.2393 28.2393zM487.699 865.24
c15.5996 0 28.25 -12.6396 28.25 -28.2393s-12.6504 -28.25 -28.25 -28.25s-28.2393 12.6504 -28.2393 28.25s12.6396 28.2393 28.2393 28.2393zM650.489 700l0.00878906 -470.59c0 -134.59 -105.63 -243.359 -268.39 -243.359c-161.68 0 -268.39 108.77 -268.39 243.359
v470.59h41v-470.59c0 -116.63 89.3496 -206.82 227.39 -206.82c138.98 0 227.381 90.0898 227.381 206.82v470.59h41z" />
    <glyph glyph-name="Udotbelow" unicode="&#x1ee4;" horiz-adv-x="759" 
d="M650.49 700l0.00878906 -470.59c0 -134.59 -105.63 -243.359 -268.39 -243.359c-161.68 0 -268.39 108.77 -268.39 243.359v470.59h41v-470.59c0 -116.63 89.3496 -206.82 227.39 -206.82c138.98 0 227.381 90.0898 227.381 206.82v470.59h41zM382.109 -97.3096
c15.5996 0 28.25 -12.6396 28.25 -28.2393s-12.6504 -28.25 -28.25 -28.25s-28.2393 12.6504 -28.2393 28.25s12.6396 28.2393 28.2393 28.2393z" />
    <glyph glyph-name="Ugrave" unicode="&#xd9;" horiz-adv-x="759" 
d="M403.99 764.4h-43.2695l-135.09 172.6h50.5898zM650.501 700l0.00878906 -470.59c0 -134.59 -105.63 -243.359 -268.39 -243.359c-161.68 0 -268.39 108.77 -268.39 243.359v470.59h41v-470.59c0 -116.63 89.3496 -206.82 227.39 -206.82
c138.98 0 227.381 90.0898 227.381 206.82v470.59h41z" />
    <glyph glyph-name="Uhookabove" unicode="&#x1ee6;" horiz-adv-x="759" 
d="M400.35 997.37c61.4297 0 115.941 -20.1016 116.092 -95.7715c-0.150391 -52.7695 -27.8906 -68.8096 -85.1406 -96.8594c-27.1299 -13.2197 -41.21 -20.5996 -42.3301 -44.3896h-34.8604c1.16992 43.6602 30.4795 59.0605 62.1895 74.4307
c49.7402 23.8398 65.2803 35.2695 65.3701 68.3896c-0.209961 47.3301 -35.3203 61.8799 -81.5605 61.8398c-32.2402 -0.0195312 -64.04 -7.25 -89.1602 -18.4697l-14.5898 28.79c30.1396 14.2998 66.6299 22.04 103.99 22.04zM650.492 699.979l-0.000976562 -470.58
c0 -134.59 -105.63 -243.37 -268.38 -243.37c-161.69 0 -268.4 108.78 -268.4 243.37v470.59h41v-470.59c0 -116.63 89.3604 -206.82 227.391 -206.82c138.98 0 227.391 90.0801 227.391 206.811v470.59h41z" />
    <glyph glyph-name="Uhorn" unicode="&#x1af;" horiz-adv-x="759" 
d="M723 812.94l35.6182 9.71973c14.9102 -61.5303 -0.200195 -106.75 -34.1299 -130.84c-18.9199 -13.4902 -44.3701 -19.5 -73.9902 -16.8096v-445.6c0 -134.59 -105.63 -243.359 -268.38 -243.359c-161.69 0 -268.4 108.77 -268.4 243.359v470.59h41v-470.59
c0 -116.63 89.3604 -206.82 227.391 -206.82c138.98 0 227.391 90.0898 227.391 206.82v470.59h9.37988l-0.00976562 0.00976562l29.29 -0.00976562c21 0.200195 38.6104 5.12012 51.8701 14.5898c24.4902 17.5596 34.0605 50.79 22.9707 98.3496z" />
    <glyph glyph-name="Uhornacute" unicode="&#x1ee8;" horiz-adv-x="759" 
d="M401.13 756.17h-43.2695l127.77 172.6h50.5898zM723.011 812.939l35.6172 9.71973c14.9004 -61.5303 -0.199219 -106.75 -34.1396 -130.84c-18.9102 -13.4902 -44.3701 -19.5 -73.9805 -16.8096v-445.6c0 -134.59 -105.63 -243.359 -268.39 -243.359
c-161.68 0 -268.39 108.77 -268.39 243.359v470.59h41v-470.59c0 -116.63 89.3496 -206.82 227.39 -206.82c138.98 0 227.381 90.0898 227.381 206.82v470.59h9.37988l-0.00976562 0.00976562l29.1504 -0.00976562c21.0703 0.179688 38.7305 5.09961 52.0107 14.5898
c24.5 17.5596 34.0703 50.79 22.9805 98.3496z" />
    <glyph glyph-name="Uhorndotbelow" unicode="&#x1ef0;" horiz-adv-x="759" 
d="M723 812.94l35.6182 9.71973c14.9102 -61.5303 -0.200195 -106.75 -34.1299 -130.84c-18.9199 -13.4902 -44.3701 -19.5 -73.9902 -16.8096v-445.6c0 -134.59 -105.63 -243.359 -268.38 -243.359c-161.69 0 -268.4 108.77 -268.4 243.359v470.59h41v-470.59
c0 -116.63 89.3604 -206.82 227.391 -206.82c138.98 0 227.391 90.0898 227.391 206.82v470.59h9.37012v0.00976562l29.1504 -0.00976562c21.0596 0.179688 38.7197 5.09961 52.0098 14.5898c24.4902 17.5596 34.0605 50.79 22.9707 98.3496zM382.108 -97.3096
c15.5996 0 28.25 -12.6504 28.25 -28.25s-12.6504 -28.2393 -28.25 -28.2393s-28.2393 12.6396 -28.2393 28.2393s12.6396 28.25 28.2393 28.25z" />
    <glyph glyph-name="Uhorngrave" unicode="&#x1eea;" horiz-adv-x="759" 
d="M360.71 764.4l-135.079 172.6h50.5898l127.77 -172.6h-43.2803zM723.011 812.94l35.6172 9.71973c14.9004 -61.5303 -0.199219 -106.75 -34.1396 -130.84c-18.9102 -13.4902 -44.3701 -19.5 -73.9805 -16.8096v-445.6c0 -134.59 -105.63 -243.359 -268.39 -243.359
c-161.68 0 -268.39 108.77 -268.39 243.359v470.59h41v-470.59c0 -116.63 89.3496 -206.82 227.39 -206.82c138.98 0 227.381 90.0898 227.381 206.82v470.59h9.37988l-0.00976562 0.00976562l29.1504 -0.00976562c21.0703 0.179688 38.7305 5.09961 52.0107 14.5898
c24.5 17.5596 34.0703 50.79 22.9805 98.3496z" />
    <glyph glyph-name="Uhornhookabove" unicode="&#x1eec;" horiz-adv-x="759" 
d="M400.11 965.01c-32.2402 -0.0302734 -64.0381 -7.27148 -89.1582 -18.4814l-14.5898 28.7803c30.1396 14.3096 66.6299 22.04 103.99 22.04c61.4297 0 115.939 -20.0801 116.1 -95.75c-0.160156 -52.7695 -27.8906 -68.8096 -85.1504 -96.8594
c-27.1299 -13.2197 -41.2002 -20.5996 -42.3203 -44.3896h-34.8701c1.17969 43.6602 30.4795 59.0605 62.1895 74.4307c49.7402 23.8398 65.29 35.2695 65.3701 68.3896c-0.209961 47.3301 -35.3203 61.8799 -81.5605 61.8398zM723.002 812.919l35.6182 9.71875
c14.9102 -61.5195 -0.200195 -106.75 -34.1299 -130.83c-18.9199 -13.4902 -44.3701 -19.5098 -73.9902 -16.8096v-445.6c0 -134.59 -105.63 -243.37 -268.38 -243.37c-161.69 0 -268.4 108.78 -268.4 243.37v470.59h41v-470.59c0 -116.63 89.3604 -206.82 227.391 -206.82
c138.98 0 227.391 90.0801 227.391 206.811v470.59h9.37012v0.0195312l29.1504 -0.0195312c21.0596 0.19043 38.7197 5.11035 52.0098 14.5908c24.4902 17.5596 34.0605 50.7998 22.9707 98.3496z" />
    <glyph glyph-name="Uhorntilde" unicode="&#x1eee;" horiz-adv-x="759" 
d="M305.89 866.74c-33.29 0.0498047 -56.3896 -26.1299 -81.04 -62.9102l-26.7998 19.25c24.1797 35.2803 56.3193 79.7002 108.97 79.7002c37.3096 0 67.1895 -21.6299 90.8193 -39.6299c24.5898 -18.4902 45.0801 -30.5498 64.5605 -30.4297
c31.3604 -0.120117 55.1006 30.2295 75.3203 60.6797l26.7598 -19.29c-24.2998 -35.1797 -52.9902 -76.8594 -102.01 -77.1797c-33.71 0 -62.4004 19.2598 -87.29 37.9297c-21.29 16.25 -42.9297 31.9297 -69.29 31.8799zM722.99 812.951l35.6182 9.71973
c14.9102 -61.5303 -0.200195 -106.75 -34.1299 -130.84c-18.9199 -13.4902 -44.3701 -19.5 -73.9902 -16.8096v-445.6c0 -134.59 -105.63 -243.359 -268.38 -243.359c-161.69 0 -268.4 108.77 -268.4 243.359v470.59h41v-470.59c0 -116.63 89.3604 -206.82 227.391 -206.82
c138.98 0 227.391 90.0898 227.391 206.82v470.59h9.37012v0.00976562l29.1504 -0.00976562c21.0596 0.179688 38.7197 5.09961 52.0098 14.5898c24.4902 17.5596 34.0605 50.79 22.9707 98.3496z" />
    <glyph glyph-name="Uhungarumlaut" unicode="&#x170;" horiz-adv-x="759" 
d="M304.3 764.4h-43.2695l127.77 172.6h50.5898zM502.4 764.4h-43.2803l127.78 172.6h50.5898zM650.5 700l0.00878906 -470.59c0 -134.59 -105.63 -243.359 -268.39 -243.359c-161.68 0 -268.39 108.77 -268.39 243.359v470.59h41v-470.59
c0 -116.63 89.3496 -206.82 227.39 -206.82c138.98 0 227.381 90.0898 227.381 206.82v470.59h41z" />
    <glyph glyph-name="Umacron" unicode="&#x16a;" horiz-adv-x="759" 
d="M545.13 812.04h-327.73v35.9199h327.73v-35.9199zM650.489 700l0.00878906 -470.59c0 -134.59 -105.63 -243.359 -268.39 -243.359c-161.68 0 -268.39 108.77 -268.39 243.359v470.59h41v-470.59c0 -116.63 89.3496 -206.82 227.39 -206.82
c138.98 0 227.381 90.0898 227.381 206.82v470.59h41z" />
    <glyph glyph-name="Uogonek" unicode="&#x172;" horiz-adv-x="759" 
d="M530.88 23c-48.4805 -33.0303 -75.4814 -63.2002 -75.5811 -101.36c0.110352 -47.6201 41.1201 -69.4297 85.79 -69.3398c25.25 -0.0898438 54.7305 6.87988 74.2402 19.25l10.2305 -28.1104c-24.0303 -15.3799 -60.8105 -24.3799 -92.2705 -24.46
c-57.8701 0.0800781 -115.811 30.6504 -115.971 93.8408c0.110352 30.4004 14 56.6406 39.7197 81.5605c-23.3096 -5.44043 -48.3594 -8.34082 -74.9297 -8.34082c-161.68 0 -268.39 108.78 -268.39 243.37v470.59h41v-470.59c0 -116.63 89.3604 -206.82 227.391 -206.82
c138.98 0 227.391 90.0898 227.391 206.82v470.59h41v-470.59c0 -87.1201 -44.2598 -163.42 -119.62 -206.41z" />
    <glyph glyph-name="Uring" unicode="&#x16e;" horiz-adv-x="759" 
d="M381.27 988.39c75.5996 0 124.659 -53.71 124.659 -120.16s-49.0596 -120.15 -124.659 -120.15c-75.0996 0 -124.659 53.7002 -124.659 120.15c0 66.9102 49.5596 120.61 124.659 120.16zM381.039 958.909c-54.0703 0.330078 -91.0195 -38.4697 -91.0195 -90.6895
c0 -51.7598 36.8496 -90.6797 91.25 -90.6797c54.7998 0 91.25 38.8398 91.25 90.6895c0 51.8398 -36.4502 90.6797 -91.4805 90.6797zM650.49 699.989l0.00878906 -470.59c0 -134.59 -105.63 -243.359 -268.39 -243.359c-161.68 0 -268.39 108.77 -268.39 243.359v470.59
h41v-470.59c0 -116.63 89.3496 -206.82 227.39 -206.82c138.98 0 227.381 90.0898 227.381 206.82v470.59h41z" />
    <glyph glyph-name="Utilde" unicode="&#x168;" horiz-adv-x="759" 
d="M307.02 902.77c37.3096 0 67.1885 -21.6191 90.8184 -39.6191c24.5801 -18.4902 45.0703 -30.5498 64.5605 -30.4297c31.3496 -0.120117 55.0996 30.2295 75.3096 60.6797l26.7598 -19.29c-24.2998 -35.1797 -52.9795 -76.8594 -102.01 -77.1797
c-33.71 0 -62.3896 19.2598 -87.2793 37.9297c-21.2998 16.25 -42.9395 31.9297 -69.2998 31.8799c-33.2803 0.0498047 -56.3799 -26.1406 -81.0195 -62.9209l-26.7998 19.25c24.1699 35.2803 56.3096 79.7002 108.96 79.7002zM650.479 700.011l0.00878906 -470.59
c0 -134.59 -105.63 -243.359 -268.39 -243.359c-161.68 0 -268.39 108.77 -268.39 243.359v470.59h41v-470.59c0 -116.63 89.3496 -206.82 227.39 -206.82c138.98 0 227.381 90.0898 227.381 206.82v470.59h41z" />
    <glyph glyph-name="V" unicode="V" horiz-adv-x="664" 
d="M357.6 0h-50.8398l-263.04 700h43.7402l244.72 -655.39l244.72 655.39h43.7402z" />
    <glyph glyph-name="W" unicode="W" horiz-adv-x="964" 
d="M731.11 0h-56.1084l-192.9 659.22l-192.9 -659.22h-56.1104l-189.37 700h43.46l175.22 -652.46l189.16 652.46h61.0703l189.17 -652.46l175.21 652.46h43.4697z" />
    <glyph glyph-name="Wacute" unicode="&#x1e82;" horiz-adv-x="964" 
d="M502.07 756.17h-43.2803l127.78 172.6h50.5898zM731.12 -0h-56.1191l-192.89 659.22l-192.9 -659.22h-56.1201l-189.37 700h43.4697l175.21 -652.46l189.17 652.46h61.0703l189.16 -652.46l175.22 652.46h43.46z" />
    <glyph glyph-name="Wcircumflex" unicode="&#x174;" horiz-adv-x="964" 
d="M361.02 764.4h-47.0586l146.6 172.6h43.2803l146.6 -172.6h-47.04l-121.19 146.45zM920.471 700l-189.359 -700h-56.1201l-192.89 659.22l-192.9 -659.22h-56.1201l-189.37 700h43.4697l175.21 -652.46l189.17 652.46h61.0703l189.16 -652.46l175.22 652.46h43.46z" />
    <glyph glyph-name="Wdieresis" unicode="&#x1e84;" horiz-adv-x="964" 
d="M375.77 865.24c15.5996 0 28.25 -12.6396 28.25 -28.2393s-12.6504 -28.25 -28.25 -28.25s-28.2393 12.6504 -28.2393 28.25s12.6396 28.2393 28.2393 28.2393zM588.64 865.24c15.5996 0 28.25 -12.6396 28.25 -28.2393s-12.6504 -28.25 -28.25 -28.25
s-28.2393 12.6504 -28.2393 28.25s12.6396 28.2393 28.2393 28.2393zM731.109 0h-56.1084l-192.9 659.22l-192.9 -659.22h-56.1104l-189.37 700h43.46l175.22 -652.46l189.16 652.46h61.0703l189.17 -652.46l175.21 652.46h43.4697z" />
    <glyph glyph-name="Wgrave" unicode="&#x1e80;" horiz-adv-x="964" 
d="M504.93 764.4h-43.2695l-135.09 172.6h50.5898zM731.12 0h-56.1084l-192.9 659.22l-192.9 -659.22h-56.1104l-189.37 700h43.46l175.22 -652.46l189.16 652.46h61.0703l189.17 -652.46l175.21 652.46h43.4697z" />
    <glyph glyph-name="X" unicode="X" horiz-adv-x="679" 
d="M367.06 354.65l268.711 -354.65h-49.8398l-249.25 328.34l-244.11 -328.34h-48.8496l268.8 360.9l-256.85 339l49.7695 0.0898438l237.47 -312.79l232.02 312.8l48.75 -0.0898438z" />
    <glyph glyph-name="Y" unicode="Y" horiz-adv-x="675" 
d="M354.58 249.37l0.00878906 -249.369h-41v249.02l-269.87 450.89l48.1504 0.0898438l243.15 -407.81l247.62 407.81l48.1904 -0.0898438z" />
    <glyph glyph-name="Yacute" unicode="&#xdd;" horiz-adv-x="675" 
d="M357.45 756.17h-43.2695l127.77 172.6h50.5898zM354.591 249.37v-249.369h-41v249.02l-269.86 450.89l48.1396 0.0898438l243.15 -407.81l247.62 407.81l48.2002 -0.0898438z" />
    <glyph glyph-name="Ycircumflex" unicode="&#x176;" horiz-adv-x="675" 
d="M216.4 764.4h-47.0488l146.6 172.6h43.2803l146.6 -172.6h-47.0498l-121.19 146.45zM354.582 249.37v-249.369h-41v249.02l-269.86 450.89l48.1396 0.0898438l243.15 -407.81l247.62 407.81l48.2002 -0.0898438z" />
    <glyph glyph-name="Ydieresis" unicode="&#x178;" horiz-adv-x="675" 
d="M231.16 808.76c-15.5996 0 -28.25 12.6396 -28.25 28.2393s12.6504 28.25 28.25 28.25s28.2393 -12.6504 28.2393 -28.25s-12.6396 -28.2393 -28.2393 -28.2393zM444.03 808.76c-15.5996 0 -28.25 12.6396 -28.25 28.2393s12.6504 28.25 28.25 28.25
s28.2393 -12.6504 28.2393 -28.25s-12.6396 -28.2393 -28.2393 -28.2393zM354.58 249.37l0.00878906 -249.369h-41v249.02l-269.87 450.89l48.1504 0.0898438l243.15 -407.81l247.62 407.81l48.1904 -0.0898438z" />
    <glyph glyph-name="Ydotbelow" unicode="&#x1ef4;" horiz-adv-x="675" 
d="M313.58 249.02l-269.861 450.891l48.1504 0.0898438l243.15 -407.81l247.62 407.81l48.1904 -0.0898438l-276.25 -450.54v-249.37h-41v249.02zM335.549 -97.3096c15.5996 0 28.2393 -12.6504 28.2393 -28.25s-12.6396 -28.2393 -28.2393 -28.2393
s-28.25 12.6396 -28.25 28.2393s12.6504 28.25 28.25 28.25z" />
    <glyph glyph-name="Ygrave" unicode="&#x1ef2;" horiz-adv-x="675" 
d="M317.03 764.4l-135.079 172.6h50.5898l127.77 -172.6h-43.2803zM354.581 249.38l0.00878906 -249.38h-41v249.03l-269.87 450.89l48.1504 0.0800781l243.15 -407.8l247.62 407.8l48.1904 -0.0800781z" />
    <glyph glyph-name="Yhookabove" unicode="&#x1ef6;" horiz-adv-x="675" 
d="M355.02 965.02c-32.2402 -0.0195312 -64.0381 -7.27148 -89.1582 -18.4912l-14.5898 28.79c30.1396 14.2998 66.6299 22.04 103.99 22.04c61.4297 0 115.939 -20.0801 116.1 -95.7598c-0.160156 -52.7598 -27.8906 -68.8096 -85.1504 -96.8594
c-27.1299 -13.21 -41.2002 -20.5996 -42.3203 -44.3896h-34.8701c1.17969 43.6602 30.4795 59.0703 62.1895 74.4307c49.7402 23.8496 65.29 35.2695 65.3701 68.3994c-0.209961 47.3301 -35.3203 61.8701 -81.5605 61.8398zM354.581 249.358v-249.38h-41v249.03
l-269.86 450.89l48.1396 0.0800781l243.15 -407.8l247.62 407.8l48.2002 -0.0800781z" />
    <glyph glyph-name="Ytilde" unicode="&#x1ef8;" horiz-adv-x="675" 
d="M262.21 866.74c-33.2803 0.0498047 -56.3906 -26.1299 -81.0303 -62.9102l-26.7998 19.25c24.1699 35.2803 56.3096 79.7002 108.96 79.7002c37.3096 0 67.1992 -21.6299 90.8291 -39.6299c24.5801 -18.4902 45.0703 -30.5498 64.5605 -30.4297
c31.3496 -0.120117 55.0996 30.2295 75.3096 60.6797l26.7598 -19.29c-24.2998 -35.1797 -52.9795 -76.8594 -102.01 -77.1797c-33.71 0 -62.3896 19.2598 -87.2793 37.9297c-21.2998 16.25 -42.9395 31.9297 -69.2998 31.8799zM354.579 249.381v-249.369h-41v249.02
l-269.86 450.89l48.1396 0.0898438l243.15 -407.81l247.62 407.81l48.2002 -0.0898438z" />
    <glyph glyph-name="Z" unicode="Z" 
d="M564.25 35.29l-0.000976562 -35.3008h-510.75l-0.0800781 29.6104l450.58 635.41l-2.92969 -0.30957h-423.57v35.29h478.12v-29.6104l-450.35 -635.09h458.98z" />
    <glyph glyph-name="Zacute" unicode="&#x179;" 
d="M337.12 756.17h-43.2803l127.78 172.6h50.5898zM564.26 35.29l-0.000976562 -35.29h-510.75l-0.0800781 29.5996l450.58 635.41l-2.92969 -0.299805h-423.57v35.29h478.12v-29.6201l-450.35 -635.09h458.98z" />
    <glyph glyph-name="Zcaron" unicode="&#x17d;" 
d="M295.87 764.4l-146.591 172.6h47.04l121.19 -146.45l121.19 146.45h47.0498l-146.6 -172.6h-43.2803zM564.26 35.29l-0.000976562 -35.3008h-510.75l-0.0800781 29.6104l450.58 635.41l-2.92969 -0.30957h-423.57v35.29h478.12v-29.6104l-450.35 -635.09h458.98z" />
    <glyph glyph-name="Zdotaccent" unicode="&#x17b;" 
d="M317.26 808.75c-15.5996 0 -28.25 12.6504 -28.25 28.25s12.6504 28.2393 28.25 28.2393s28.2393 -12.6396 28.2393 -28.2393s-12.6396 -28.25 -28.2393 -28.25zM564.26 35.29l-0.000976562 -35.3008h-510.75l-0.0800781 29.6104l450.57 635.41l-2.91992 -0.30957
h-423.57v35.29h478.12v-29.6104l-450.35 -635.09h458.98z" />
    <glyph glyph-name="a" unicode="a" 
d="M522.1 500v-500.03h-37.1797v86.46c-59.5703 -70.7598 -131.88 -100.439 -196.09 -100.439c-116.71 0 -216.68 98.4805 -216.68 263.311c0 162.1 96.54 265.38 217.37 264.689c65.4297 0 137.689 -31.4805 195.399 -99.9707v85.9805h37.1797zM291.72 21.5996
c66.2197 0 138.178 35.8506 193.208 106.61v244.01c-57.8896 74.2402 -130.359 106.17 -193.209 106.17c-101.89 0 -180.449 -84.04 -180.449 -228.4c0 -146.42 80.6104 -228.39 180.45 -228.39z" />
    <glyph glyph-name="a.ss01" horiz-adv-x="606" 
d="M296.68 514c114 0 213 -51.999 213 -184.579v-329.42h-37.8604v86.6904c-59.9697 -68.4697 -144.88 -100.7 -217.81 -100.7c-97 0 -185 61 -185 175c0 118 94 157 209 154c67.79 -1.70996 136.31 -16.6904 193.81 -33.1807v47.5996
c0 106.21 -76.6699 148.979 -175.14 148.979c-63.0195 0 -126.979 -17.9297 -175.02 -51.7598l-19.4805 29.46c51.6602 36.6699 123.47 57.9102 194.5 57.9102zM259.029 21.6006c75.96 0 157.121 34.0791 212.801 107.119v120.01
c-58.0303 16.75 -126.49 31.54 -191.05 32.9404c-97.4502 2.25 -172.65 -28.5498 -172.65 -120.359c0 -90.5596 64.7598 -139.71 150.899 -139.71z" />
    <glyph glyph-name="aacute" unicode="&#xe1;" 
d="M345.58 556.17h-43.2803l127.78 172.6h50.5898zM522.1 500v-500.03h-37.1699v86.46c-59.5801 -70.7598 -131.89 -100.439 -196.09 -100.439c-116.71 0 -216.69 98.4805 -216.69 263.311c0 162.1 96.5498 265.38 217.37 264.689
c65.4404 0 137.69 -31.4805 195.41 -99.9707v85.9805h37.1699zM291.72 21.5996c66.2197 0 138.179 35.8506 193.209 106.61v244.01c-57.8896 74.2402 -130.35 106.17 -193.199 106.17c-101.9 0 -180.46 -84.04 -180.46 -228.4c0 -146.42 80.6201 -228.39 180.45 -228.39z
" />
    <glyph glyph-name="aacute.ss01" horiz-adv-x="606" 
d="M325.24 556.16h-43.2695l127.77 172.6h50.5898zM296.69 514c114 0 212.998 -51.999 212.998 -184.579v-329.42h-37.8604v86.6904c-59.9697 -68.4697 -144.89 -100.7 -217.81 -100.7c-97 0 -185 61 -185 175c0 118 94 157 209 154
c67.7803 -1.70996 136.3 -16.6904 193.81 -33.1807v47.5996c0 106.21 -76.6699 148.979 -175.14 148.979c-63.0195 0 -126.979 -17.9297 -175.029 -51.7598l-19.4697 29.46c51.6504 36.6699 123.471 57.9102 194.501 57.9102zM259.038 21.6006
c75.96 0 157.111 34.0791 212.791 107.119v120.01c-58.0303 16.75 -126.49 31.54 -191.05 32.9404c-97.4404 2.25 -172.65 -28.5498 -172.65 -120.359c0 -90.5596 64.7695 -139.71 150.909 -139.71z" />
    <glyph glyph-name="abreve" unicode="&#x103;" 
d="M325.72 570.94c-107.99 0 -179.26 72.8799 -179.26 163.05h37.9297c0 -72.7598 57.0303 -128.21 141.33 -128.21c84.9102 0 141.32 55.3604 141.32 128.21h37.9297c0 -90.1699 -70.5498 -163.05 -179.25 -163.05zM522.1 500v-500.03h-37.1797v86.46
c-59.5703 -70.7598 -131.88 -100.439 -196.09 -100.439c-116.71 0 -216.68 98.4805 -216.68 263.311c0 162.1 96.54 265.38 217.37 264.689c65.4297 0 137.689 -31.4805 195.399 -99.9707v85.9805h37.1797zM291.72 21.5996c66.2197 0 138.178 35.8506 193.208 106.61v244.01
c-57.8896 74.2402 -130.359 106.17 -193.209 106.17c-101.89 0 -180.449 -84.04 -180.449 -228.4c0 -146.42 80.6104 -228.39 180.45 -228.39z" />
    <glyph glyph-name="abreve.ss01" horiz-adv-x="606" 
d="M305.38 570.94c-107.99 0 -179.261 72.8799 -179.261 163.05h37.9404c0 -72.7598 57.0195 -128.21 141.319 -128.21c84.9102 0 141.32 55.3604 141.32 128.21h37.9404c0 -90.1699 -70.5498 -163.05 -179.26 -163.05zM296.679 514c114 0 213 -51.999 213 -184.579v-329.42
h-37.8604v86.6904c-59.9697 -68.4697 -144.88 -100.7 -217.81 -100.7c-97 0 -185 61 -185 175c0 118 94 157 209 154c67.79 -1.70996 136.31 -16.6904 193.81 -33.1807v47.5996c0 106.21 -76.6699 148.979 -175.14 148.979c-63.0195 0 -126.979 -17.9297 -175.02 -51.7598
l-19.4805 29.46c51.6602 36.6699 123.47 57.9102 194.5 57.9102zM259.028 21.6006c75.96 0 157.121 34.0791 212.801 107.119v120.01c-58.0303 16.75 -126.49 31.54 -191.05 32.9404c-97.4502 2.25 -172.65 -28.5498 -172.65 -120.359
c0 -90.5596 64.7598 -139.71 150.899 -139.71z" />
    <glyph glyph-name="abreveacute" unicode="&#x1eaf;" 
d="M345.58 734.94h-43.2803l127.78 172.6h50.5898zM325.72 570.94c-107.99 0 -179.261 72.8799 -179.261 163.06h37.9404c0 -72.7695 57.0195 -128.21 141.319 -128.21c84.9102 0 141.32 55.3496 141.32 128.21h37.9404c0 -90.1797 -70.5498 -163.06 -179.26 -163.06z
M522.099 500v-500.02h-37.1699v86.4502c-59.5801 -70.7598 -131.89 -100.43 -196.09 -100.43c-116.71 0 -216.69 98.4697 -216.69 263.31c0 162.09 96.5498 265.37 217.37 264.69c65.4404 0 137.69 -31.4805 195.41 -99.9707v85.9697h37.1699zM291.719 21.6006
c66.2197 0 138.179 35.8613 193.209 106.611v244.01c-57.8896 74.2402 -130.35 106.17 -193.199 106.17c-101.9 0 -180.46 -84.0303 -180.46 -228.391c0 -146.42 80.6201 -228.4 180.45 -228.4z" />
    <glyph glyph-name="abrevedotbelow" unicode="&#x1eb7;" 
d="M325.72 570.94c-107.99 0 -179.26 72.8799 -179.26 163.05h37.9297c0 -72.7598 57.0303 -128.21 141.33 -128.21c84.9102 0 141.32 55.3604 141.32 128.21h37.9297c0 -90.1699 -70.5498 -163.05 -179.25 -163.05zM522.1 500v-500.03h-37.1797v86.46
c-59.5703 -70.7598 -131.88 -100.439 -196.09 -100.439c-116.71 0 -216.68 98.4805 -216.68 263.311c0 162.1 96.54 265.38 217.37 264.689c65.4297 0 137.689 -31.4805 195.399 -99.9707v85.9805h37.1797zM291.72 21.5996c66.2197 0 138.178 35.8506 193.208 106.61v244.01
c-57.8896 74.2402 -130.359 106.17 -193.209 106.17c-101.89 0 -180.449 -84.04 -180.449 -228.4c0 -146.42 80.6104 -228.39 180.45 -228.39zM325.567 -97.3193c15.5996 0 28.25 -12.6396 28.25 -28.2393s-12.6504 -28.25 -28.25 -28.25s-28.2393 12.6504 -28.2393 28.25
s12.6396 28.2393 28.2393 28.2393z" />
    <glyph glyph-name="abrevedotbelow.ss01" horiz-adv-x="606" 
d="M305.38 570.94c-107.99 0 -179.261 72.8799 -179.261 163.05h37.9404c0 -72.7598 57.0195 -128.21 141.319 -128.21c84.9102 0 141.32 55.3604 141.32 128.21h37.9404c0 -90.1699 -70.5498 -163.05 -179.26 -163.05zM296.679 514c114 0 213 -51.999 213 -184.579v-329.42
h-37.8604v86.6904c-59.9697 -68.4697 -144.88 -100.7 -217.81 -100.7c-97 0 -185 61 -185 175c0 118 94 157 209 154c67.79 -1.70996 136.31 -16.6904 193.81 -33.1807v47.5996c0 106.21 -76.6699 148.979 -175.14 148.979c-63.0195 0 -126.979 -17.9297 -175.02 -51.7598
l-19.4805 29.46c51.6602 36.6699 123.47 57.9102 194.5 57.9102zM259.028 21.6006c75.96 0 157.121 34.0791 212.801 107.119v120.01c-58.0303 16.75 -126.49 31.54 -191.05 32.9404c-97.4502 2.25 -172.65 -28.5498 -172.65 -120.359
c0 -90.5596 64.7598 -139.71 150.899 -139.71zM309.979 -97.3203c15.5996 0 28.2393 -12.6504 28.2393 -28.25s-12.6396 -28.2393 -28.2393 -28.2393s-28.25 12.6396 -28.25 28.2393s12.6504 28.25 28.25 28.25z" />
    <glyph glyph-name="abrevegrave" unicode="&#x1eb1;" 
d="M305.16 734.94l-135.09 172.6h50.5898l127.78 -172.6h-43.2803zM325.721 570.94c-107.99 0 -179.26 72.8799 -179.26 163.06h37.9297c0 -72.7695 57.0303 -128.21 141.33 -128.21c84.9102 0 141.32 55.3496 141.32 128.21h37.9297
c0 -90.1797 -70.5498 -163.06 -179.25 -163.06zM522.101 500v-500.02h-37.1797v86.4502c-59.5703 -70.7598 -131.88 -100.43 -196.09 -100.43c-116.71 0 -216.68 98.4697 -216.68 263.31c0 162.09 96.54 265.37 217.37 264.69c65.4297 0 137.689 -31.4805 195.399 -99.9707
v85.9697h37.1797zM291.721 21.6006c66.2197 0 138.178 35.8613 193.208 106.611v244.01c-57.8896 74.2402 -130.359 106.17 -193.209 106.17c-101.89 0 -180.449 -84.0303 -180.449 -228.391c0 -146.42 80.6104 -228.4 180.45 -228.4z" />
    <glyph glyph-name="abrevehookabove" unicode="&#x1eb3;" 
d="M338.67 908.47c-32.2305 -0.0302734 -64.0381 -7.26172 -89.1582 -18.4814l-14.5996 28.7803c30.1396 14.3096 66.6299 22.04 103.99 22.04c61.4297 0 115.949 -20.0801 116.1 -95.75c-0.150391 -52.7695 -27.8906 -68.8096 -85.1406 -96.8594
c-27.1299 -13.2197 -41.21 -20.5996 -42.3301 -44.3896h-34.8604c1.16992 43.6602 30.4795 59.0605 62.1895 74.4307c49.7402 23.8398 65.2803 35.2695 65.3701 68.3994c-0.209961 47.3203 -35.3203 61.8701 -81.5605 61.8301zM325.722 570.918
c-107.99 0 -179.26 72.8799 -179.26 163.06h37.9297c0 -72.7695 57.0303 -128.21 141.33 -128.21c84.9102 0 141.32 55.3496 141.32 128.21h37.9297c0 -90.1797 -70.5498 -163.06 -179.25 -163.06zM522.102 499.978v-500.02h-37.1797v86.4502
c-59.5703 -70.7598 -131.88 -100.43 -196.09 -100.43c-116.71 0 -216.68 98.4697 -216.68 263.31c0 162.09 96.54 265.37 217.37 264.69c65.4297 0 137.689 -31.4805 195.399 -99.9707v85.9697h37.1797zM291.722 21.5781c66.2197 0 138.178 35.8613 193.208 106.611v244.01
c-57.8896 74.2402 -130.359 106.17 -193.209 106.17c-101.89 0 -180.449 -84.0303 -180.449 -228.391c0 -146.42 80.6104 -228.4 180.45 -228.4z" />
    <glyph glyph-name="abrevetilde" unicode="&#x1eb5;" 
d="M250.34 814.86c-33.29 0.0498047 -56.3896 -26.1299 -81.04 -62.9102l-26.7998 19.25c24.1797 35.2803 56.3193 79.7002 108.97 79.7002c37.3096 0 67.1895 -21.6299 90.8193 -39.6299c24.5898 -18.4902 45.0801 -30.5498 64.5605 -30.4297
c31.3604 -0.120117 55.1006 30.2295 75.3203 60.6797l26.7598 -19.29c-24.2998 -35.1797 -52.9902 -76.8594 -102.01 -77.1797c-33.71 0 -62.4004 19.2598 -87.29 37.9297c-21.29 16.25 -42.9297 31.9297 -69.29 31.8799zM325.71 605.801
c84.9102 0 141.319 55.3496 141.319 128.21h37.9404c0 -90.1797 -70.5498 -163.06 -179.26 -163.06c-107.99 0 -179.26 72.8799 -179.26 163.06h37.9404c0 -72.7695 57.0195 -128.21 141.319 -128.21zM522.089 500.011v-500.03h-37.1699v86.46
c-59.5801 -70.7598 -131.89 -100.439 -196.09 -100.439c-116.71 0 -216.69 98.4805 -216.69 263.311c0 162.1 96.5498 265.38 217.37 264.689c65.4404 0 137.69 -31.4805 195.41 -99.9707v85.9805h37.1699zM291.709 21.6104c66.2197 0 138.179 35.8506 193.209 106.61
v244.01c-57.8896 74.2402 -130.35 106.17 -193.199 106.17c-101.9 0 -180.46 -84.04 -180.46 -228.4c0 -146.42 80.6201 -228.39 180.45 -228.39z" />
    <glyph glyph-name="acaron" unicode="&#x1ce;" 
d="M304.33 564.4l-146.591 172.6h47.0498l121.19 -146.45l121.19 146.45h47.04l-146.6 -172.6h-43.2803zM522.109 500v-500.02h-37.1797v86.4502c-59.5703 -70.7598 -131.88 -100.43 -196.09 -100.43c-116.71 0 -216.68 98.4697 -216.68 263.31
c0 162.09 96.54 265.37 217.37 264.69c65.4297 0 137.689 -31.4805 195.399 -99.9707v85.9697h37.1797zM291.729 21.6006c66.2197 0 138.178 35.8613 193.208 106.611v244.01c-57.8896 74.2402 -130.359 106.17 -193.209 106.17
c-101.89 0 -180.449 -84.0303 -180.449 -228.391c0 -146.42 80.6104 -228.4 180.45 -228.4z" />
    <glyph glyph-name="acaron.ss01" horiz-adv-x="606" 
d="M284 564.4l-146.591 172.6h47.04l121.19 -146.45l121.19 146.45h47.0498l-146.6 -172.6h-43.2803zM296.689 514c114 0 213 -51.999 213 -184.579v-329.42h-37.8604v86.6904c-59.9697 -68.4697 -144.88 -100.7 -217.81 -100.7c-97 0 -185 61 -185 175
c0 118 94 157 209 154c67.79 -1.70996 136.31 -16.6904 193.81 -33.1807v47.5996c0 106.21 -76.6699 148.979 -175.14 148.979c-63.0195 0 -126.979 -17.9297 -175.02 -51.7598l-19.4805 29.46c51.6602 36.6699 123.47 57.9102 194.5 57.9102zM259.039 21.6006
c75.96 0 157.121 34.0791 212.801 107.119v120.01c-58.0303 16.75 -126.49 31.54 -191.05 32.9404c-97.4502 2.25 -172.65 -28.5498 -172.65 -120.359c0 -90.5596 64.7598 -139.71 150.899 -139.71z" />
    <glyph glyph-name="acircumflex" unicode="&#xe2;" 
d="M204.53 564.4h-47.0586l146.6 172.6h43.2803l146.6 -172.6h-47.04l-121.19 146.45zM522.092 500v-500.02h-37.1699v86.4502c-59.5801 -70.7598 -131.89 -100.43 -196.09 -100.43c-116.71 0 -216.69 98.4697 -216.69 263.31c0 162.09 96.5498 265.37 217.37 264.69
c65.4404 0 137.69 -31.4805 195.41 -99.9707v85.9697h37.1699zM291.712 21.6006c66.2197 0 138.179 35.8613 193.209 106.611v244.01c-57.8896 74.2402 -130.35 106.17 -193.199 106.17c-101.9 0 -180.46 -84.0303 -180.46 -228.391c0 -146.42 80.6201 -228.4 180.45 -228.4
z" />
    <glyph glyph-name="acircumflex.ss01" horiz-adv-x="606" 
d="M184.19 564.4h-47.0488l146.6 172.6h43.2803l146.6 -172.6h-47.0498l-121.19 146.45zM296.682 514c114 0 212.998 -51.999 212.998 -184.579v-329.42h-37.8604v86.6904c-59.9697 -68.4697 -144.89 -100.7 -217.81 -100.7c-97 0 -185 61 -185 175c0 118 94 157 209 154
c67.7803 -1.70996 136.3 -16.6904 193.81 -33.1807v47.5996c0 106.21 -76.6699 148.979 -175.14 148.979c-63.0195 0 -126.979 -17.9297 -175.029 -51.7598l-19.4697 29.46c51.6504 36.6699 123.471 57.9102 194.501 57.9102zM259.029 21.6006
c75.96 0 157.111 34.0791 212.791 107.119v120.01c-58.0303 16.75 -126.49 31.54 -191.05 32.9404c-97.4404 2.25 -172.65 -28.5498 -172.65 -120.359c0 -90.5596 64.7695 -139.71 150.909 -139.71z" />
    <glyph glyph-name="acircumflexacute" unicode="&#x1ea5;" 
d="M682.84 797.6l-135.09 -172.6h-43.2803l127.78 172.6h50.5898zM204.53 564.4h-47.0586l146.6 172.6h43.2803l146.6 -172.6h-47.04l-121.19 146.45zM484.922 500l37.1699 -0.0107422v-500.02h-37.1699v86.46c-59.5801 -70.7598 -131.89 -100.439 -196.09 -100.439
c-116.71 0 -216.69 98.4805 -216.69 263.311c0 162.1 96.5498 265.38 217.37 264.689c65.4404 0 137.69 -31.4805 195.41 -99.9707v85.9805zM291.712 21.5996c66.2197 0 138.179 35.8506 193.209 106.61v244.01c-57.8896 74.2402 -130.35 106.17 -193.199 106.17
c-101.9 0 -180.46 -84.04 -180.46 -228.4c0 -146.42 80.6201 -228.39 180.45 -228.39z" />
    <glyph glyph-name="acircumflexdotbelow" unicode="&#x1ead;" 
d="M204.53 564.4h-47.0586l146.6 172.6h43.2803l146.6 -172.6h-47.04l-121.19 146.45zM522.092 500v-500.02h-37.1699v86.4502c-59.5801 -70.7598 -131.89 -100.43 -196.09 -100.43c-116.71 0 -216.69 98.4697 -216.69 263.31c0 162.09 96.5498 265.37 217.37 264.69
c65.4404 0 137.69 -31.4805 195.41 -99.9707v85.9697h37.1699zM291.712 21.6006c66.2197 0 138.179 35.8613 193.209 106.611v244.01c-57.8896 74.2402 -130.35 106.17 -193.199 106.17c-101.9 0 -180.46 -84.0303 -180.46 -228.391c0 -146.42 80.6201 -228.4 180.45 -228.4
zM325.571 -97.3086c15.5996 0 28.2393 -12.6504 28.2393 -28.25s-12.6396 -28.2393 -28.2393 -28.2393s-28.25 12.6396 -28.25 28.2393s12.6504 28.25 28.25 28.25z" />
    <glyph glyph-name="acircumflexdotbelow.ss01" horiz-adv-x="606" 
d="M184.19 564.4h-47.0488l146.6 172.6h43.2803l146.6 -172.6h-47.0498l-121.19 146.45zM296.682 514c114 0 212.998 -51.999 212.998 -184.579v-329.42h-37.8604v86.6904c-59.9697 -68.4697 -144.89 -100.7 -217.81 -100.7c-97 0 -185 61 -185 175c0 118 94 157 209 154
c67.7803 -1.70996 136.3 -16.6904 193.81 -33.1807v47.5996c0 106.21 -76.6699 148.979 -175.14 148.979c-63.0195 0 -126.979 -17.9297 -175.029 -51.7598l-19.4697 29.46c51.6504 36.6699 123.471 57.9102 194.501 57.9102zM259.029 21.6006
c75.96 0 157.111 34.0791 212.791 107.119v120.01c-58.0303 16.75 -126.49 31.54 -191.05 32.9404c-97.4404 2.25 -172.65 -28.5498 -172.65 -120.359c0 -90.5596 64.7695 -139.71 150.909 -139.71zM309.971 -97.3203c15.5996 0 28.25 -12.6504 28.25 -28.25
s-12.6504 -28.2393 -28.25 -28.2393s-28.2393 12.6396 -28.2393 28.2393s12.6396 28.25 28.2393 28.25z" />
    <glyph glyph-name="acircumflexgrave" unicode="&#x1ea7;" 
d="M587.86 625h-43.2803l-135.09 172.6h50.5898zM204.53 564.4h-47.0488l146.6 172.6h43.2803l146.6 -172.6h-47.0498l-121.19 146.45zM484.922 500l37.1797 -0.0107422v-500.02h-37.1797v86.46c-59.5703 -70.7598 -131.88 -100.439 -196.09 -100.439
c-116.71 0 -216.68 98.4805 -216.68 263.311c0 162.1 96.54 265.38 217.37 264.689c65.4297 0 137.689 -31.4805 195.399 -99.9707v85.9805zM291.722 21.5996c66.2197 0 138.178 35.8506 193.208 106.61v244.01c-57.8896 74.2402 -130.359 106.17 -193.209 106.17
c-101.89 0 -180.449 -84.04 -180.449 -228.4c0 -146.42 80.6104 -228.39 180.45 -228.39z" />
    <glyph glyph-name="acircumflexhookabove" unicode="&#x1ea9;" 
d="M552.99 829.76c61.4297 0 115.941 -20.082 116.102 -95.7617c-0.160156 -52.7695 -27.8906 -68.8096 -85.1504 -96.8594c-27.1299 -13.2197 -41.2002 -20.5996 -42.3203 -44.3896h-34.8701c1.17969 43.6602 30.4795 59.0605 62.1895 74.4307
c49.7402 23.8398 65.29 35.2695 65.3701 68.3896c-0.209961 47.3301 -35.3203 61.8701 -81.5605 61.8398c-32.2305 -0.0302734 -64.0303 -7.25 -89.1504 -18.46l-14.5996 28.7803c30.1396 14.2998 66.6299 22.0303 103.99 22.0303zM204.522 564.388h-47.0488l146.6 172.6
h43.2803l146.6 -172.6h-47.0498l-121.19 146.45zM484.914 499.987h37.1797v-500.02h-37.1797v86.4502c-59.5703 -70.7598 -131.88 -100.43 -196.09 -100.43c-116.71 0 -216.68 98.4697 -216.68 263.31c0 162.09 96.54 265.37 217.37 264.69
c65.4297 0 137.689 -31.4805 195.399 -99.9707v85.9697zM291.714 21.5869c66.2197 0 138.178 35.8613 193.208 106.611v244.01c-57.8896 74.2402 -130.359 106.17 -193.209 106.17c-101.89 0 -180.449 -84.0303 -180.449 -228.391c0 -146.42 80.6104 -228.4 180.45 -228.4z
" />
    <glyph glyph-name="acircumflextilde" unicode="&#x1eab;" 
d="M250.34 821.12c-33.29 0.0595703 -56.3896 -26.1299 -81.04 -62.9102l-26.7998 19.2598c24.1797 35.2803 56.3193 79.7002 108.97 79.7002c37.3096 -0.00976562 67.1895 -21.6396 90.8193 -39.6396c24.5898 -18.4902 45.0801 -30.5498 64.5605 -30.4199
c31.3604 -0.129883 55.1006 30.2197 75.3203 60.6797l26.7598 -19.29c-24.2998 -35.1797 -52.9902 -76.8701 -102.01 -77.1797c-33.71 0 -62.4004 19.25 -87.29 37.9199c-21.29 16.2598 -42.9297 31.9395 -69.29 31.8799zM347.35 737.011l146.591 -172.6h-47.0498
l-121.19 146.45l-121.19 -146.45h-47.04l146.6 172.6h43.2803zM522.08 500.011v-500.03h-37.1797v86.46c-59.5703 -70.7598 -131.88 -100.439 -196.09 -100.439c-116.71 0 -216.68 98.4805 -216.68 263.311c0 162.1 96.54 265.38 217.37 264.689
c65.4297 0 137.689 -31.4805 195.399 -99.9707v85.9805h37.1797zM291.7 21.6104c66.2197 0 138.178 35.8506 193.208 106.61v244.01c-57.8896 74.2402 -130.359 106.17 -193.209 106.17c-101.89 0 -180.449 -84.04 -180.449 -228.4
c0 -146.42 80.6104 -228.39 180.45 -228.39z" />
    <glyph glyph-name="adieresis" unicode="&#xe4;" 
d="M219.28 608.75c-15.5996 0 -28.2393 12.6504 -28.2393 28.25s12.6396 28.2393 28.2393 28.2393s28.25 -12.6396 28.25 -28.2393s-12.6504 -28.25 -28.25 -28.25zM432.15 608.75c-15.5996 0 -28.2393 12.6504 -28.2393 28.25s12.6396 28.2393 28.2393 28.2393
s28.25 -12.6396 28.25 -28.2393s-12.6504 -28.25 -28.25 -28.25zM522.101 500v-500.03h-37.1797v86.46c-59.5703 -70.7598 -131.88 -100.439 -196.09 -100.439c-116.71 0 -216.68 98.4805 -216.68 263.311c0 162.1 96.54 265.38 217.37 264.689
c65.4297 0 137.689 -31.4805 195.399 -99.9707v85.9805h37.1797zM291.721 21.5996c66.2197 0 138.178 35.8506 193.208 106.61v244.01c-57.8896 74.2402 -130.359 106.17 -193.209 106.17c-101.89 0 -180.449 -84.04 -180.449 -228.4
c0 -146.42 80.6104 -228.39 180.45 -228.39z" />
    <glyph glyph-name="adieresis.ss01" horiz-adv-x="606" 
d="M198.95 608.75c-15.5996 0 -28.25 12.6504 -28.25 28.25s12.6504 28.2393 28.25 28.2393s28.2393 -12.6396 28.2393 -28.2393s-12.6396 -28.25 -28.2393 -28.25zM411.82 608.75c-15.5996 0 -28.25 12.6504 -28.25 28.25s12.6504 28.2393 28.25 28.2393
s28.2393 -12.6396 28.2393 -28.2393s-12.6396 -28.25 -28.2393 -28.25zM296.681 514c114 0 213 -51.999 213 -184.579v-329.42h-37.8604v86.6904c-59.9697 -68.4697 -144.88 -100.7 -217.81 -100.7c-97 0 -185 61 -185 175c0 118 94 157 209 154
c67.79 -1.70996 136.31 -16.6904 193.81 -33.1807v47.5996c0 106.21 -76.6699 148.979 -175.14 148.979c-63.0195 0 -126.979 -17.9297 -175.02 -51.7598l-19.4805 29.46c51.6602 36.6699 123.47 57.9102 194.5 57.9102zM259.03 21.6006
c75.96 0 157.121 34.0791 212.801 107.119v120.01c-58.0303 16.75 -126.49 31.54 -191.05 32.9404c-97.4502 2.25 -172.65 -28.5498 -172.65 -120.359c0 -90.5596 64.7598 -139.71 150.899 -139.71z" />
    <glyph glyph-name="adotbelow" unicode="&#x1ea1;" 
d="M522.1 500v-500.03h-37.1797v86.46c-59.5703 -70.7598 -131.88 -100.439 -196.09 -100.439c-116.71 0 -216.68 98.4805 -216.68 263.311c0 162.1 96.54 265.38 217.37 264.689c65.4297 0 137.689 -31.4805 195.399 -99.9707v85.9805h37.1797zM291.72 21.5996
c66.2197 0 138.178 35.8506 193.208 106.61v244.01c-57.8896 74.2402 -130.359 106.17 -193.209 106.17c-101.89 0 -180.449 -84.04 -180.449 -228.4c0 -146.42 80.6104 -228.39 180.45 -228.39zM325.567 -97.3193c15.5996 0 28.25 -12.6396 28.25 -28.2393
s-12.6504 -28.25 -28.25 -28.25s-28.2393 12.6504 -28.2393 28.25s12.6396 28.2393 28.2393 28.2393z" />
    <glyph glyph-name="adotbelow.ss01" horiz-adv-x="606" 
d="M296.68 514c114 0 213 -51.999 213 -184.579v-329.42h-37.8604v86.6904c-59.9697 -68.4697 -144.88 -100.7 -217.81 -100.7c-97 0 -185 61 -185 175c0 118 94 157 209 154c67.79 -1.70996 136.31 -16.6904 193.81 -33.1807v47.5996
c0 106.21 -76.6699 148.979 -175.14 148.979c-63.0195 0 -126.979 -17.9297 -175.02 -51.7598l-19.4805 29.46c51.6602 36.6699 123.47 57.9102 194.5 57.9102zM259.029 21.6006c75.96 0 157.121 34.0791 212.801 107.119v120.01
c-58.0303 16.75 -126.49 31.54 -191.05 32.9404c-97.4502 2.25 -172.65 -28.5498 -172.65 -120.359c0 -90.5596 64.7598 -139.71 150.899 -139.71zM309.98 -97.3203c15.5996 0 28.2393 -12.6504 28.2393 -28.25s-12.6396 -28.2393 -28.2393 -28.2393
s-28.25 12.6396 -28.25 28.2393s12.6504 28.25 28.25 28.25z" />
    <glyph glyph-name="agrave" unicode="&#xe0;" 
d="M305.16 564.4l-135.09 172.6h50.5898l127.78 -172.6h-43.2803zM522.101 500v-500.02h-37.1797v86.4502c-59.5703 -70.7598 -131.88 -100.43 -196.09 -100.43c-116.71 0 -216.68 98.4697 -216.68 263.31c0 162.09 96.54 265.37 217.37 264.69
c65.4297 0 137.689 -31.4805 195.399 -99.9707v85.9697h37.1797zM291.721 21.6006c66.2197 0 138.178 35.8613 193.208 106.611v244.01c-57.8896 74.2402 -130.359 106.17 -193.209 106.17c-101.89 0 -180.449 -84.0303 -180.449 -228.391
c0 -146.42 80.6104 -228.4 180.45 -228.4z" />
    <glyph glyph-name="agrave.ss01" horiz-adv-x="606" 
d="M284.82 564.4l-135.079 172.6h50.5898l127.77 -172.6h-43.2803zM296.691 514c114 0 212.998 -51.999 212.998 -184.579v-329.42h-37.8604v86.6904c-59.9697 -68.4697 -144.89 -100.7 -217.81 -100.7c-97 0 -185 61 -185 175c0 118 94 157 209 154
c67.7803 -1.70996 136.3 -16.6904 193.81 -33.1807v47.5996c0 106.21 -76.6699 148.979 -175.14 148.979c-63.0195 0 -126.979 -17.9297 -175.029 -51.7598l-19.4697 29.46c51.6504 36.6699 123.471 57.9102 194.501 57.9102zM259.039 21.6006
c75.96 0 157.111 34.0791 212.791 107.119v120.01c-58.0303 16.75 -126.49 31.54 -191.05 32.9404c-97.4404 2.25 -172.65 -28.5498 -172.65 -120.359c0 -90.5596 64.7695 -139.71 150.909 -139.71z" />
    <glyph glyph-name="ahookabove" unicode="&#x1ea3;" 
d="M338.67 785.37c-32.2305 -0.0302734 -64.0381 -7.26172 -89.1582 -18.4814l-14.5996 28.7803c30.1396 14.3096 66.6299 22.04 103.99 22.04c61.4297 0 115.949 -20.0801 116.1 -95.75c-0.150391 -52.7695 -27.8906 -68.8096 -85.1406 -96.8594
c-27.1299 -13.2197 -41.21 -20.5996 -42.3301 -44.3896h-34.8604c1.16992 43.6602 30.4795 59.0605 62.1895 74.4307c49.7402 23.8398 65.2803 35.2695 65.3701 68.3994c-0.209961 47.3203 -35.3203 61.8701 -81.5605 61.8301zM522.092 499.979v-500.02h-37.1699v86.4502
c-59.5801 -70.7598 -131.89 -100.43 -196.09 -100.43c-116.71 0 -216.69 98.4697 -216.69 263.31c0 162.09 96.5498 265.37 217.37 264.69c65.4404 0 137.69 -31.4805 195.41 -99.9707v85.9697h37.1699zM291.712 21.5791c66.2197 0 138.179 35.8613 193.209 106.611v244.01
c-57.8896 74.2402 -130.35 106.17 -193.199 106.17c-101.9 0 -180.46 -84.0303 -180.46 -228.391c0 -146.42 80.6201 -228.4 180.45 -228.4z" />
    <glyph glyph-name="amacron" unicode="&#x101;" 
d="M489.58 612.04h-327.73v35.9199h327.73v-35.9199zM522.1 500v-500.03h-37.1797v86.46c-59.5703 -70.7598 -131.88 -100.439 -196.09 -100.439c-116.71 0 -216.68 98.4805 -216.68 263.311c0 162.1 96.54 265.38 217.37 264.689
c65.4297 0 137.689 -31.4805 195.399 -99.9707v85.9805h37.1797zM291.72 21.5996c66.2197 0 138.178 35.8506 193.208 106.61v244.01c-57.8896 74.2402 -130.359 106.17 -193.209 106.17c-101.89 0 -180.449 -84.04 -180.449 -228.4
c0 -146.42 80.6104 -228.39 180.45 -228.39z" />
    <glyph glyph-name="amacron.ss01" horiz-adv-x="606" 
d="M469.25 612.04h-327.73v35.9199h327.73v-35.9199zM296.68 514c114 0 213 -51.999 213 -184.579v-329.42h-37.8604v86.6904c-59.9697 -68.4697 -144.88 -100.7 -217.81 -100.7c-97 0 -185 61 -185 175c0 118 94 157 209 154
c67.79 -1.70996 136.31 -16.6904 193.81 -33.1807v47.5996c0 106.21 -76.6699 148.979 -175.14 148.979c-63.0195 0 -126.979 -17.9297 -175.02 -51.7598l-19.4805 29.46c51.6602 36.6699 123.47 57.9102 194.5 57.9102zM259.029 21.6006
c75.96 0 157.121 34.0791 212.801 107.119v120.01c-58.0303 16.75 -126.49 31.54 -191.05 32.9404c-97.4502 2.25 -172.65 -28.5498 -172.65 -120.359c0 -90.5596 64.7598 -139.71 150.899 -139.71z" />
    <glyph glyph-name="aogonek" unicode="&#x105;" 
d="M596.36 -153.87l10.252 -28.1094c-24.0303 -15.3799 -60.8105 -24.3799 -92.2705 -24.46c-57.8701 0.0800781 -115.811 30.6504 -115.971 93.8408c0.150391 45.0801 30.1504 80.8896 86.5801 118.35v80.6797c-59.5703 -70.7598 -131.88 -100.43 -196.09 -100.43
c-116.71 0 -216.69 98.4805 -216.69 263.32c0 162.09 96.5498 265.37 217.38 264.68c65.4297 0 137.68 -31.4805 195.399 -99.9707v85.9697h37.1699v-500.02h-6.63965c-50.7998 -34.0303 -79.04 -64.7207 -79.1504 -103.761
c0.110352 -47.6201 41.1201 -69.4297 85.79 -69.3398c25.25 -0.0898438 54.7305 6.87988 74.2402 19.25zM291.752 21.6006c66.2197 0 138.168 35.8711 193.198 106.621v244.01c-57.8896 74.2402 -130.359 106.17 -193.209 106.17c-101.89 0 -180.449 -84.04 -180.449 -228.4
c0 -146.42 80.6201 -228.4 180.46 -228.4z" />
    <glyph glyph-name="aogonek.ss01" horiz-adv-x="606" 
d="M584.89 -152.94l10.2285 -28.1191c-24.0303 -15.3799 -60.8105 -24.3799 -92.2705 -24.46c-57.8701 0.0800781 -115.811 30.6504 -115.971 93.8408c0.150391 44.6396 29.5801 80.1895 84.9502 117.26v81.1104c-59.9697 -68.4697 -144.89 -100.7 -217.81 -100.7
c-97 0 -185 61 -185 175c0 118 94 157 209 154c67.7803 -1.70996 136.3 -16.6904 193.81 -33.1807v47.5996c0 106.21 -76.6699 148.979 -175.14 148.979c-63.0195 0 -126.979 -17.9297 -175.029 -51.7598l-19.4697 29.46c51.6504 36.6699 123.471 57.9102 194.501 57.9102
c114 0 213 -52 213 -184.58v-329.42h-7.04004c-50.0195 -33.7197 -77.6992 -64.2002 -77.8096 -102.851c0.110352 -47.6201 41.1299 -69.4297 85.7998 -69.3398c25.2598 -0.0898438 54.7402 6.87988 74.25 19.25zM259.038 21.5908c75.96 0 157.111 34.0889 212.791 107.119
v120.01c-58.0303 16.7598 -126.49 31.5498 -191.05 32.9502c-97.4404 2.25 -172.65 -28.5596 -172.65 -120.369c0 -90.5498 64.7695 -139.71 150.909 -139.71z" />
    <glyph glyph-name="aring" unicode="&#xe5;" 
d="M325.72 548.08c-75.0996 0 -124.659 53.7002 -124.659 120.15c0 66.9102 49.5596 120.61 124.659 120.16c75.5996 0 124.659 -53.71 124.659 -120.16s-49.0596 -120.15 -124.659 -120.15zM325.489 758.92c-54.0703 0.320312 -91.0195 -38.4795 -91.0195 -90.6895
c0 -51.7695 36.8496 -90.6797 91.25 -90.6797c54.7998 0 91.25 38.8398 91.25 90.6797c0 51.8496 -36.4502 90.6895 -91.4805 90.6895zM522.101 499.99v-500.02h-37.1797v86.4502c-59.5703 -70.7598 -131.88 -100.43 -196.09 -100.43
c-116.71 0 -216.68 98.4697 -216.68 263.31c0 162.09 96.54 265.37 217.37 264.69c65.4297 0 137.689 -31.4805 195.399 -99.9707v85.9697h37.1797zM291.721 21.5908c66.2197 0 138.178 35.8613 193.208 106.611v244.01c-57.8896 74.2402 -130.359 106.17 -193.209 106.17
c-101.89 0 -180.449 -84.0303 -180.449 -228.391c0 -146.42 80.6104 -228.4 180.45 -228.4z" />
    <glyph glyph-name="aring.ss01" horiz-adv-x="606" 
d="M305.38 548.07c-75.0898 0 -124.66 53.71 -124.66 120.16c0 66.9004 49.5703 120.61 124.66 120.15c75.5996 0 124.67 -53.7002 124.67 -120.15s-49.0703 -120.16 -124.67 -120.16zM305.16 758.91c-54.0801 0.330078 -91.0303 -38.4697 -91.0303 -90.6895
c0 -51.7598 36.8496 -90.6797 91.25 -90.6797c54.7998 0 91.25 38.8398 91.25 90.6895c0 51.8398 -36.4502 90.6797 -91.4697 90.6797zM296.68 513.99c114 0 213 -51.999 213 -184.579v-329.42h-37.8604v86.6904c-59.9697 -68.4697 -144.88 -100.7 -217.81 -100.7
c-97 0 -185 61 -185 175c0 118 94 157 209 154c67.79 -1.70996 136.31 -16.6904 193.81 -33.1807v47.5996c0 106.21 -76.6699 148.979 -175.14 148.979c-63.0195 0 -126.979 -17.9297 -175.02 -51.7598l-19.4805 29.46c51.6602 36.6699 123.47 57.9102 194.5 57.9102z
M259.029 21.5908c75.96 0 157.121 34.0791 212.801 107.119v120.01c-58.0303 16.75 -126.49 31.54 -191.05 32.9404c-97.4502 2.25 -172.65 -28.5498 -172.65 -120.359c0 -90.5596 64.7598 -139.71 150.899 -139.71z" />
    <glyph glyph-name="atilde" unicode="&#xe3;" 
d="M250.34 666.74c-33.29 0.0498047 -56.3896 -26.1299 -81.04 -62.9102l-26.7998 19.25c24.1797 35.2803 56.3193 79.7002 108.97 79.7002c37.3096 0 67.1895 -21.6299 90.8193 -39.6299c24.5898 -18.4902 45.0801 -30.5498 64.5605 -30.4297
c31.3604 -0.120117 55.1006 30.2295 75.3203 60.6797l26.7598 -19.29c-24.2998 -35.1797 -52.9902 -76.8594 -102.01 -77.1797c-33.71 0 -62.4004 19.2598 -87.29 37.9297c-21.29 16.25 -42.9297 31.9297 -69.29 31.8799zM522.09 500.011v-500.03h-37.1797v86.46
c-59.5703 -70.7598 -131.88 -100.439 -196.09 -100.439c-116.71 0 -216.68 98.4805 -216.68 263.311c0 162.1 96.54 265.38 217.37 264.689c65.4297 0 137.689 -31.4805 195.399 -99.9707v85.9805h37.1797zM291.71 21.6104c66.2197 0 138.178 35.8506 193.208 106.61v244.01
c-57.8896 74.2402 -130.359 106.17 -193.209 106.17c-101.89 0 -180.449 -84.04 -180.449 -228.4c0 -146.42 80.6104 -228.39 180.45 -228.39z" />
    <glyph glyph-name="atilde.ss01" horiz-adv-x="606" 
d="M230 666.74c-33.2803 0.0498047 -56.3906 -26.1299 -81.0303 -62.9102l-26.7998 19.25c24.1699 35.2803 56.3096 79.7002 108.96 79.7002c37.3096 0 67.1992 -21.6299 90.8291 -39.6299c24.5801 -18.4902 45.0703 -30.5498 64.5605 -30.4297
c31.3496 -0.120117 55.0996 30.2295 75.3096 60.6797l26.7598 -19.29c-24.2998 -35.1797 -52.9795 -76.8594 -102.01 -77.1797c-33.71 0 -62.3896 19.2598 -87.2793 37.9297c-21.2998 16.25 -42.9395 31.9297 -69.2998 31.8799zM296.68 514.011
c114 0 212.998 -51.999 212.998 -184.579v-329.42h-37.8604v86.6904c-59.9697 -68.4697 -144.89 -100.7 -217.81 -100.7c-97 0 -185 61 -185 175c0 118 94 157 209 154c67.7803 -1.70996 136.3 -16.6904 193.81 -33.1807v47.5996c0 106.21 -76.6699 148.979 -175.14 148.979
c-63.0195 0 -126.979 -17.9297 -175.029 -51.7598l-19.4697 29.46c51.6504 36.6699 123.471 57.9102 194.501 57.9102zM259.027 21.6113c75.96 0 157.111 34.0791 212.791 107.119v120.01c-58.0303 16.75 -126.49 31.54 -191.05 32.9404
c-97.4404 2.25 -172.65 -28.5498 -172.65 -120.359c0 -90.5596 64.7695 -139.71 150.909 -139.71z" />
    <glyph glyph-name="ae" unicode="&#xe6;" horiz-adv-x="957" 
d="M275 514c64.5195 0 136.252 -28.0996 195.762 -81.6494c42.3799 50.79 104.49 82.1699 179.86 81.6504c152.85 0 229 -112.5 232.49 -253.69c0.0595703 -3.87012 0.0195312 -7.71973 -0.110352 -11.5498h-434.57c0.0898438 -3.7002 0.269531 -7.37988 0.529297 -11.0303
c4.00977 -122.11 83.6094 -216.13 202.529 -216.13c56.6299 0 117.92 19.5996 174.4 59.1094l13.0898 -26.3701c-58.4004 -45.0596 -127.641 -68.3398 -188.351 -68.3398c-75.1699 0 -137.14 31.4502 -179.5 81.9697c-59.5898 -53.7598 -131.49 -81.9697 -196.13 -81.9697
c-133 0 -220 117 -220 264s87 264 220 264zM651.433 478.39c-113.52 0.610352 -190.899 -84.2998 -201.479 -198.17h393.81c-8.44043 113.85 -71.1104 198.17 -192.33 198.17zM276.562 478.39c-110.88 0 -182.449 -97.1895 -182.449 -228.409
s71.5703 -228.39 182.13 -228.39c56.9297 0 121.899 24.9102 176.8 73.9697c-28.3203 42.71 -44.1006 96.2695 -44.1006 154.43c0 58.4199 15.7002 112.1 43.8799 154.85c-54.2998 48.2803 -118.89 73.5498 -176.26 73.5498z" />
    <glyph glyph-name="ae.ss01" horiz-adv-x="1020" 
d="M946.16 261.35c0.0800781 -4.21973 0.046875 -8.39746 -0.0732422 -12.5771h-434.57c0.0400391 -2.95996 0.120117 -5.91992 0.240234 -8.87012c3.37988 -123.3 83.2197 -218.3 202.83 -218.3c56.6699 0 118 19.6299 174.53 59.1895l12.96 -26.4502
c-58.4102 -45.0596 -127.641 -68.3398 -188.36 -68.3398c-91.3096 0 -163.149 46.4102 -204.02 117.04v-103.04h-37.8604v86.6904c-59.9697 -68.4697 -144.89 -100.7 -217.81 -100.7c-97 0 -185 61 -185 175c0 118 94 157 209 154
c67.7803 -1.70996 136.3 -16.6904 193.81 -33.1807v47.5996c0 106.21 -76.6699 148.979 -175.14 148.979c-63.0195 0 -126.979 -17.9297 -175.029 -51.7598l-19.4697 29.46c51.6504 36.6699 123.471 57.9102 194.501 57.9102c96.4004 0 182.08 -37.1904 206.23 -128.851
c39.4102 77.7998 114.2 129.51 210.78 128.84c152.47 0 228.62 -111.95 232.45 -252.641zM513.047 280.242h393.8c-8.44043 113.85 -71.1104 198.17 -192.33 198.17c-113.52 0.610352 -190.899 -84.2998 -201.47 -198.17zM259.037 21.6123
c75.96 0 157.111 34.0889 212.791 107.119v120.01c-58.0303 16.7598 -126.49 31.5498 -191.05 32.9502c-97.4404 2.25 -172.65 -28.5596 -172.65 -120.369c0 -90.5498 64.7695 -139.71 150.909 -139.71z" />
    <glyph glyph-name="b" unicode="b" horiz-adv-x="632" 
d="M333.48 514c121.14 0.679688 217.38 -102.6 217.52 -264c-0.139648 -162.78 -97.75 -264 -216.83 -264c-68.7197 0 -140.02 33.71 -196.409 100.99v-86.9902h-37.1797v700h37.1797v-286.55c56.3301 66.8301 127 100.55 195.72 100.55zM331.28 21.6006
c98.7803 0 180.77 81.5508 180.77 228.4c0 143.42 -78.5596 228.39 -180.77 228.39c-62.4297 0 -134.83 -31.5303 -193.53 -106.78v-242.76c57.79 -74.3096 130.34 -107.25 193.53 -107.25z" />
    <glyph glyph-name="c" unicode="c" horiz-adv-x="589" 
d="M329.21 514c60.3799 0 128.23 -22.7197 186.171 -66.7002l-10.3301 -28.3496c-56.7998 39.7305 -118.649 59.4502 -175.779 59.4502c-125.78 0.629883 -209.891 -95.6504 -209.57 -228.4c0 -128.66 83.25 -228.4 209.76 -228.4c58.5596 0 120.25 20.7002 175.5 59.2002
l10.4297 -28.3896c-55.8203 -42.1504 -121.82 -66.4102 -187.811 -66.4102c-147 0 -247 118 -247 264c0 151 101 264.98 248.63 264z" />
    <glyph glyph-name="cacute" unicode="&#x107;" horiz-adv-x="589" 
d="M336.07 556.17h-43.2803l127.78 172.6h50.5898zM329.21 514c60.3799 0 128.23 -22.7197 186.171 -66.7002l-10.3301 -28.3496c-56.7998 39.7305 -118.649 59.4502 -175.779 59.4502c-125.78 0.629883 -209.891 -95.6504 -209.57 -228.4
c0 -128.66 83.25 -228.4 209.76 -228.4c58.5596 0 120.25 20.7002 175.5 59.2002l10.4297 -28.3896c-55.8203 -42.1504 -121.82 -66.4102 -187.811 -66.4102c-147 0 -247 118 -247 264c0 151 101 264.98 248.63 264z" />
    <glyph glyph-name="ccaron" unicode="&#x10d;" horiz-adv-x="589" 
d="M294.82 564.4l-146.591 172.6h47.0498l121.19 -146.45l121.19 146.45h47.04l-146.6 -172.6h-43.2803zM504.97 80.7998l10.4424 -28.3896c-55.8203 -42.1504 -121.811 -66.4102 -187.811 -66.4102c-147 0 -247 118 -247 264c0 151 101 264.98 248.63 264
c60.3799 0 128.229 -22.7197 186.159 -66.7002l-10.3301 -28.3496c-56.79 39.7305 -118.65 59.4502 -175.78 59.4502c-125.78 0.629883 -209.891 -95.6504 -209.57 -228.4c0 -128.66 83.2598 -228.4 209.77 -228.4c58.5498 0 120.24 20.7002 175.49 59.2002z" />
    <glyph glyph-name="ccedilla" unicode="&#xe7;" horiz-adv-x="589" 
d="M310.23 -55.3701c63.3398 -2.46973 107.725 -37.6006 107.395 -91.8506c0.349609 -56.5195 -48.8506 -99.8096 -124.971 -100.79c-40.6104 -0.990234 -96.3799 10.46 -128.26 26.79l13.0195 26.7305c30 -14.2002 76.7197 -23.25 112.22 -22.7402
c57.6396 0.679688 89.75 29.8896 89.6797 69.7793c0.0703125 38.7305 -30.0293 63.5908 -78.6396 63.6309c-12.79 0.00976562 -30.1299 -2.32031 -43.0596 -5.69043l-10 20.5898l28.6504 59.96c-118.46 24 -195.67 130.67 -195.67 258.96c0 151 101 264.98 248.63 264
c60.3799 0 128.229 -22.7197 186.159 -66.7002l-10.3301 -28.3496c-56.79 39.7305 -118.65 59.4502 -175.78 59.4502c-125.78 0.629883 -209.891 -95.6504 -209.57 -228.4c0 -128.66 83.2598 -228.4 209.77 -228.4c58.5498 0 120.24 20.7002 175.49 59.2002
l10.4297 -28.3896c-55.8203 -42.1504 -121.811 -66.4102 -187.811 -66.4102c-6.11035 0 -12.1406 0.200195 -18.0811 0.600586l-18.0098 -42.6797c6.21973 0.509766 12.4297 0.729492 18.7393 0.709961z" />
    <glyph glyph-name="cdotaccent" unicode="&#x10b;" horiz-adv-x="589" 
d="M316.21 665.24c15.5996 0 28.2393 -12.6396 28.2393 -28.2393s-12.6396 -28.25 -28.2393 -28.25s-28.25 12.6504 -28.25 28.25s12.6504 28.2393 28.25 28.2393zM329.2 514c60.3799 0 128.242 -22.7197 186.172 -66.7002l-10.3301 -28.3496
c-56.79 39.7305 -118.65 59.4502 -175.78 59.4502c-125.78 0.629883 -209.891 -95.6504 -209.57 -228.4c0 -128.66 83.2598 -228.4 209.77 -228.4c58.5498 0 120.24 20.7002 175.49 59.2002l10.4297 -28.3896c-55.8203 -42.1504 -121.811 -66.4102 -187.811 -66.4102
c-147 0 -247 118 -247 264c0 151 101 264.98 248.63 264z" />
    <glyph glyph-name="d" unicode="d" horiz-adv-x="625" 
d="M524.13 699.97v-699.999h-37.1797v87.0098c-59.6602 -71.1602 -132.18 -100.98 -196.55 -100.98c-117.4 0 -216 98.4697 -216.69 264c0.719727 162.25 95.29 264.36 218.5 264c65.9502 -0.0400391 137.891 -32.9199 194.74 -100.54v286.51h37.1797zM293.6 21.6006
c66.0898 0 138.27 36.0488 193.359 107.199v242.81c-56.6602 72.7695 -128.01 106.75 -194.63 106.78c-100.98 0.0400391 -179.12 -84.3096 -179.49 -228.449c0.370117 -148.85 82.3604 -228.34 180.761 -228.34z" />
    <glyph glyph-name="eth" unicode="&#xf0;" horiz-adv-x="651" 
d="M574.88 688.84l-108.588 -57.4131c68.9902 -73.2598 108.36 -184.31 106.32 -318.689c-3.03027 -176.74 -75.5801 -326.74 -252.6 -326.74c-145.1 0 -251.5 96.6504 -251.49 245.86c-0.00976562 127.46 77.3701 224.11 235.93 224.351
c91.4902 0 163.55 -30.54 225.89 -89.6299c-7.4502 104.64 -43.25 189.46 -99.4805 246.12l-143.66 -75.96l-17.9297 32.04l131.95 69.7598c-45.5596 34.1602 -101.17 52.7705 -163.83 52.6504c-57.04 0.30957 -105.63 -12.3506 -150.99 -35.4404l-15.2002 30.4004
c48.9297 26.6299 102.739 41.6797 166.199 41.3301c78.1602 0.150391 146.41 -24.7295 200.58 -69.499l118.97 62.9004zM532.812 313.297c0.0703125 4.45996 0.0888672 8.90137 0.0585938 13.3018c-65.54 62.3701 -138.43 93.2598 -229.31 93.3193
c-131.69 -0.230469 -195.25 -77.1309 -195.24 -187.701c-0.00976562 -129.66 88.1406 -209.92 210.751 -209.92c147.91 0 210.771 125.36 213.74 291z" />
    <glyph glyph-name="dcaron" unicode="&#x10f;" horiz-adv-x="625" 
d="M689.68 687.63c5.25977 -31.5996 -15.7686 -91.4492 -44.6289 -129.06l-20.4297 13.1699c16.0303 24.3096 26.3799 52.8994 29.7295 90.4092c-10.2598 3.11035 -18.7998 12.5908 -18.9297 25.4307c0.129883 14.3896 11.5703 26.5098 26.6602 26.4102
c13.7695 0.0996094 24.7891 -9.45996 27.5986 -26.3604zM486.961 699.98l37.1797 0.000976562v-700h-37.1797v87.0098c-59.6602 -71.1602 -132.18 -100.98 -196.55 -100.98c-117.4 0 -216 98.4697 -216.69 264c0.719727 162.25 95.29 264.36 218.5 264
c65.9502 -0.0400391 137.891 -32.9199 194.74 -100.54v286.51zM293.61 21.6113c66.0898 0 138.27 36.0488 193.359 107.199v242.81c-56.6602 72.7695 -128.01 106.75 -194.63 106.78c-100.98 0.0400391 -179.12 -84.3096 -179.49 -228.449
c0.370117 -148.85 82.3604 -228.34 180.761 -228.34z" />
    <glyph glyph-name="dcroat" unicode="&#x111;" horiz-adv-x="625" 
d="M646.01 589.65h-121.881v-589.68h-37.1699v87.0098c-59.6602 -71.1602 -132.18 -100.98 -196.56 -100.98c-117.39 0 -216 98.4697 -216.68 264c0.719727 162.25 95.29 264.36 218.49 264c65.96 -0.0400391 137.89 -32.9199 194.75 -100.54v176.19h-168.68v31.46h168.68
v78.8604h37.1699v-78.8604h121.88v-31.46zM293.609 21.6006c66.0996 0 138.269 36.0488 193.349 107.199v242.81c-56.6504 72.7695 -128 106.75 -194.63 106.78c-100.97 0.0400391 -179.109 -84.3096 -179.489 -228.449c0.370117 -148.85 82.3604 -228.34 180.771 -228.34z
" />
    <glyph glyph-name="e" unicode="e" horiz-adv-x="629" 
d="M322.26 514c152.47 0 228.609 -111.939 232.439 -252.63c0.0703125 -4.21973 0.0507812 -8.41992 -0.0693359 -12.5996h-434.57c0.0302734 -2.95996 0.110352 -5.91992 0.240234 -8.87012c3.37988 -123.3 83.2197 -218.3 202.83 -218.3
c56.6602 0 117.99 19.6299 174.53 59.1895l12.9502 -26.4502c-58.4004 -45.0596 -127.641 -68.3398 -188.351 -68.3398c-145.59 0 -241.68 118 -241.68 264c0 147 96.0898 265 241.68 264zM323.049 478.4c-113.52 0.610352 -190.9 -84.29 -201.471 -198.16h393.8
c-8.42969 113.84 -71.1094 198.16 -192.329 198.16z" />
    <glyph glyph-name="eacute" unicode="&#xe9;" horiz-adv-x="629" 
d="M341.44 556.17h-43.2803l127.78 172.6h50.5898zM322.26 514c152.47 0 228.609 -111.939 232.439 -252.63c0.0703125 -4.21973 0.0507812 -8.41992 -0.0693359 -12.5996h-434.57c0.0302734 -2.95996 0.110352 -5.91992 0.240234 -8.87012
c3.37988 -123.3 83.2197 -218.3 202.83 -218.3c56.6602 0 117.99 19.6299 174.53 59.1895l12.9502 -26.4502c-58.4004 -45.0596 -127.641 -68.3398 -188.351 -68.3398c-145.59 0 -241.68 118 -241.68 264c0 147 96.0898 265 241.68 264zM323.049 478.4
c-113.52 0.610352 -190.9 -84.29 -201.471 -198.16h393.8c-8.42969 113.84 -71.1094 198.16 -192.329 198.16z" />
    <glyph glyph-name="ecaron" unicode="&#x11b;" horiz-adv-x="629" 
d="M300.19 564.4l-146.591 172.6h47.0498l121.19 -146.45l121.19 146.45h47.04l-146.6 -172.6h-43.2803zM554.71 261.36c0.0703125 -4.21973 0.0498047 -8.40918 -0.0703125 -12.5889h-434.57c0.0302734 -2.95996 0.110352 -5.91992 0.240234 -8.87012
c3.37988 -123.3 83.2197 -218.3 202.83 -218.3c56.6602 0 117.99 19.6299 174.53 59.1895l12.9502 -26.4502c-58.4004 -45.0596 -127.641 -68.3398 -188.351 -68.3398c-145.59 0 -241.68 118 -241.68 264c0 147 96.0898 265 241.68 264
c152.46 0 228.61 -111.95 232.44 -252.641zM121.589 280.241h393.799c-8.42969 113.85 -71.1094 198.17 -192.329 198.17c-113.52 0.610352 -190.89 -84.2998 -201.47 -198.17z" />
    <glyph glyph-name="ecircumflex" unicode="&#xea;" horiz-adv-x="629" 
d="M200.39 564.4h-47.0586l146.6 172.6h43.2803l146.6 -172.6h-47.04l-121.19 146.45zM554.701 261.36c0.0800781 -4.21973 0.0400391 -8.40918 -0.0800781 -12.5889h-434.57c0.0400391 -2.95996 0.120117 -5.91992 0.240234 -8.87012
c3.37988 -123.3 83.2197 -218.3 202.83 -218.3c56.6699 0 118 19.6299 174.53 59.1895l12.96 -26.4502c-58.4102 -45.0596 -127.641 -68.3398 -188.36 -68.3398c-145.59 0 -241.68 118 -241.68 264c0 147 96.0898 265 241.68 264c152.47 0 228.62 -111.95 232.45 -252.641z
M121.581 280.241h393.8c-8.44043 113.85 -71.1104 198.17 -192.33 198.17c-113.52 0.610352 -190.899 -84.2998 -201.47 -198.17z" />
    <glyph glyph-name="ecircumflexacute" unicode="&#x1ebf;" horiz-adv-x="629" 
d="M543.61 625h-43.2695l127.77 172.6h50.5898zM200.391 564.4h-47.0488l146.6 172.6h43.2803l146.6 -172.6h-47.0498l-121.19 146.45zM322.252 514c152.46 0 228.61 -111.939 232.44 -252.63c0.0800781 -4.21973 0.0498047 -8.41992 -0.0703125 -12.5996h-434.57
c0.0400391 -2.95996 0.120117 -5.91992 0.240234 -8.87012c3.37988 -123.3 83.2197 -218.3 202.83 -218.3c56.6699 0 118 19.6299 174.53 59.1895l12.96 -26.4502c-58.4102 -45.0596 -127.641 -68.3398 -188.36 -68.3398c-145.59 0 -241.68 118 -241.68 264
c0 147 96.0898 265 241.68 264zM121.582 280.241h393.799c-8.42969 113.85 -71.1094 198.17 -192.329 198.17c-113.52 0.610352 -190.89 -84.2998 -201.47 -198.17z" />
    <glyph glyph-name="ecircumflexdotbelow" unicode="&#x1ec7;" horiz-adv-x="629" 
d="M200.39 564.4h-47.0586l146.6 172.6h43.2803l146.6 -172.6h-47.04l-121.19 146.45zM554.701 261.36c0.0800781 -4.21973 0.0400391 -8.40918 -0.0800781 -12.5889h-434.57c0.0400391 -2.95996 0.120117 -5.91992 0.240234 -8.87012
c3.37988 -123.3 83.2197 -218.3 202.83 -218.3c56.6699 0 118 19.6299 174.53 59.1895l12.96 -26.4502c-58.4102 -45.0596 -127.641 -68.3398 -188.36 -68.3398c-145.59 0 -241.68 118 -241.68 264c0 147 96.0898 265 241.68 264c152.47 0 228.62 -111.95 232.45 -252.641z
M121.581 280.241h393.8c-8.44043 113.85 -71.1104 198.17 -192.33 198.17c-113.52 0.610352 -190.899 -84.2998 -201.47 -198.17zM322.431 -97.2988c15.5996 0 28.25 -12.6504 28.25 -28.25s-12.6504 -28.2393 -28.25 -28.2393s-28.2393 12.6396 -28.2393 28.2393
s12.6396 28.25 28.2393 28.25z" />
    <glyph glyph-name="ecircumflexgrave" unicode="&#x1ec1;" horiz-adv-x="629" 
d="M540.44 625l-135.09 172.6h50.5898l127.78 -172.6h-43.2803zM200.391 564.399h-47.0488l146.6 172.6h43.2803l146.6 -172.6h-47.0498l-121.19 146.45zM322.252 513.999c152.46 0 228.61 -111.939 232.44 -252.63
c0.0800781 -4.20996 0.0498047 -8.41016 -0.0703125 -12.5898h-434.57c0.0400391 -2.95996 0.120117 -5.91992 0.240234 -8.87988c3.37988 -123.3 83.2197 -218.29 202.83 -218.29c56.6699 0 118 19.6299 174.53 59.1797l12.96 -26.4404
c-58.4102 -45.0596 -127.641 -68.3496 -188.36 -68.3496c-145.59 0 -241.68 118 -241.68 264c0 147 96.0898 265 241.68 264zM121.582 280.25h393.799c-8.42969 113.84 -71.1094 198.16 -192.329 198.16c-113.52 0.610352 -190.89 -84.29 -201.47 -198.16z" />
    <glyph glyph-name="ecircumflexhookabove" unicode="&#x1ec3;" horiz-adv-x="629" 
d="M548.85 829.76c61.4297 0 115.941 -20.0918 116.102 -95.7715c-0.160156 -52.7598 -27.8906 -68.8096 -85.1504 -96.8594c-27.1299 -13.21 -41.2002 -20.5996 -42.3203 -44.3896h-34.8701c1.17969 43.6602 30.4795 59.0703 62.1895 74.4307
c49.7402 23.8496 65.29 35.2695 65.3701 68.3994c-0.209961 47.3301 -35.3203 61.8701 -81.5605 61.8301c-32.2305 -0.0195312 -64.0303 -7.25 -89.1504 -18.46l-14.5996 28.7803c30.1396 14.3096 66.6299 22.04 103.99 22.04zM200.382 564.388h-47.0488l146.6 172.6
h43.2803l146.6 -172.6h-47.0498l-121.19 146.45zM322.243 513.987c152.46 0 228.61 -111.939 232.44 -252.63c0.0800781 -4.21973 0.0498047 -8.41992 -0.0703125 -12.5996h-434.57c0.0400391 -2.95996 0.120117 -5.91992 0.240234 -8.87012
c3.37988 -123.3 83.2197 -218.3 202.83 -218.3c56.6699 0 118 19.6299 174.53 59.1895l12.96 -26.4502c-58.4102 -45.0596 -127.641 -68.3398 -188.36 -68.3398c-145.59 0 -241.68 118 -241.68 264c0 147 96.0898 265 241.68 264zM121.573 280.229h393.799
c-8.42969 113.85 -71.1094 198.17 -192.329 198.17c-113.52 0.610352 -190.89 -84.2998 -201.47 -198.17z" />
    <glyph glyph-name="ecircumflextilde" unicode="&#x1ec5;" horiz-adv-x="629" 
d="M246.2 821.12c-33.29 0.0595703 -56.3896 -26.1299 -81.04 -62.9102l-26.7998 19.2598c24.1797 35.2803 56.3193 79.7002 108.97 79.7002c37.3096 -0.00976562 67.1895 -21.6396 90.8193 -39.6396c24.5898 -18.4902 45.0801 -30.5498 64.5605 -30.4199
c31.3604 -0.129883 55.1006 30.2197 75.3203 60.6797l26.7598 -19.29c-24.2998 -35.1797 -52.9902 -76.8701 -102.01 -77.1797c-33.71 0 -62.4004 19.25 -87.29 37.9199c-21.29 16.2598 -42.9297 31.9395 -69.29 31.8799zM343.21 737.011l146.591 -172.6h-47.0498
l-121.19 146.45l-121.19 -146.45h-47.04l146.6 172.6h43.2803zM554.69 261.371c0.0800781 -4.21973 0.0400391 -8.40918 -0.0800781 -12.5889h-434.57c0.0400391 -2.95996 0.120117 -5.91992 0.240234 -8.87012c3.37988 -123.3 83.2197 -218.3 202.83 -218.3
c56.6699 0 118 19.6299 174.53 59.1895l12.96 -26.4502c-58.4102 -45.0596 -127.641 -68.3398 -188.36 -68.3398c-145.59 0 -241.68 118 -241.68 264c0 147 96.0898 265 241.68 264c152.47 0 228.62 -111.95 232.45 -252.641zM121.57 280.252h393.8
c-8.44043 113.85 -71.1104 198.17 -192.33 198.17c-113.52 0.610352 -190.899 -84.2998 -201.47 -198.17z" />
    <glyph glyph-name="edieresis" unicode="&#xeb;" horiz-adv-x="629" 
d="M215.14 665.24c15.5996 0 28.25 -12.6396 28.25 -28.2393s-12.6504 -28.25 -28.25 -28.25s-28.2393 12.6504 -28.2393 28.25s12.6396 28.2393 28.2393 28.2393zM428.01 665.24c15.5996 0 28.25 -12.6396 28.25 -28.2393s-12.6504 -28.25 -28.25 -28.25
s-28.2393 12.6504 -28.2393 28.25s12.6396 28.2393 28.2393 28.2393zM322.25 514c152.46 0 228.61 -111.939 232.44 -252.63c0.0800781 -4.21973 0.0498047 -8.41992 -0.0703125 -12.5996h-434.57c0.0400391 -2.95996 0.120117 -5.91992 0.240234 -8.87012
c3.37988 -123.3 83.2197 -218.3 202.83 -218.3c56.6699 0 118 19.6299 174.53 59.1895l12.96 -26.4502c-58.4102 -45.0596 -127.641 -68.3398 -188.36 -68.3398c-145.59 0 -241.68 118 -241.68 264c0 147 96.0898 265 241.68 264zM323.05 478.4
c-113.52 0.610352 -190.899 -84.29 -201.479 -198.16h393.81c-8.44043 113.84 -71.1104 198.16 -192.33 198.16z" />
    <glyph glyph-name="edotaccent" unicode="&#x117;" horiz-adv-x="629" 
d="M321.58 665.24c15.5996 0 28.2393 -12.6396 28.2393 -28.2393s-12.6396 -28.25 -28.2393 -28.25s-28.25 12.6504 -28.25 28.25s12.6504 28.2393 28.25 28.2393zM322.25 514c152.46 0 228.61 -111.939 232.44 -252.63
c0.0800781 -4.21973 0.0498047 -8.41992 -0.0703125 -12.5996h-434.57c0.0400391 -2.95996 0.120117 -5.91992 0.240234 -8.87012c3.37988 -123.3 83.2197 -218.3 202.83 -218.3c56.6699 0 118 19.6299 174.53 59.1895l12.96 -26.4502
c-58.4102 -45.0596 -127.641 -68.3398 -188.36 -68.3398c-145.59 0 -241.68 118 -241.68 264c0 147 96.0898 265 241.68 264zM323.05 478.4c-113.52 0.610352 -190.899 -84.29 -201.479 -198.16h393.81c-8.44043 113.84 -71.1104 198.16 -192.33 198.16z" />
    <glyph glyph-name="edotbelow" unicode="&#x1eb9;" horiz-adv-x="629" 
d="M322.26 514c152.47 0 228.609 -111.939 232.439 -252.63c0.0703125 -4.21973 0.0507812 -8.41992 -0.0693359 -12.5996h-434.57c0.0302734 -2.95996 0.110352 -5.91992 0.240234 -8.87012c3.37988 -123.3 83.2197 -218.3 202.83 -218.3
c56.6602 0 117.99 19.6299 174.53 59.1895l12.9502 -26.4502c-58.4004 -45.0596 -127.641 -68.3398 -188.351 -68.3398c-145.59 0 -241.68 118 -241.68 264c0 147 96.0898 265 241.68 264zM323.049 478.4c-113.52 0.610352 -190.9 -84.29 -201.471 -198.16h393.8
c-8.42969 113.84 -71.1094 198.16 -192.329 198.16zM322.438 -97.2998c15.5996 0 28.2393 -12.6504 28.2393 -28.25s-12.6396 -28.2393 -28.2393 -28.2393s-28.25 12.6396 -28.25 28.2393s12.6504 28.25 28.25 28.25z" />
    <glyph glyph-name="egrave" unicode="&#xe8;" horiz-adv-x="629" 
d="M344.3 564.4h-43.2803l-135.09 172.6h50.5898zM322.26 514c152.47 0 228.609 -111.939 232.439 -252.63c0.0703125 -4.21973 0.0507812 -8.41992 -0.0693359 -12.5996h-434.57c0.0302734 -2.95996 0.110352 -5.91992 0.240234 -8.87012
c3.37988 -123.3 83.2197 -218.3 202.83 -218.3c56.6602 0 117.99 19.6299 174.53 59.1895l12.9502 -26.4502c-58.4004 -45.0596 -127.641 -68.3398 -188.351 -68.3398c-145.59 0 -241.68 118 -241.68 264c0 147 96.0898 265 241.68 264zM323.049 478.4
c-113.52 0.610352 -190.9 -84.29 -201.471 -198.16h393.8c-8.42969 113.84 -71.1094 198.16 -192.329 198.16z" />
    <glyph glyph-name="ehookabove" unicode="&#x1ebb;" horiz-adv-x="629" 
d="M332.96 817.73c61.4297 0 115.941 -20.1016 116.102 -95.7715c-0.160156 -52.7598 -27.8906 -68.8096 -85.1504 -96.8594c-27.1299 -13.21 -41.2002 -20.5996 -42.3203 -44.3896h-34.8701c1.17969 43.6602 30.4795 59.0703 62.1895 74.4307
c49.7402 23.8496 65.29 35.2695 65.3701 68.3994c-0.209961 47.3301 -35.3203 61.8701 -81.5605 61.8398c-32.2305 -0.0302734 -64.0303 -7.25 -89.1504 -18.4697l-14.5996 28.7803c30.1396 14.3096 66.6299 22.04 103.99 22.04zM322.252 513.979
c152.46 0 228.61 -111.939 232.44 -252.63c0.0800781 -4.20996 0.0498047 -8.41016 -0.0703125 -12.5898h-434.57c0.0400391 -2.95996 0.120117 -5.91992 0.240234 -8.87988c3.37988 -123.3 83.2197 -218.29 202.83 -218.29c56.6699 0 118 19.6299 174.53 59.1797
l12.96 -26.4404c-58.4102 -45.0596 -127.641 -68.3496 -188.36 -68.3496c-145.59 0 -241.68 118 -241.68 264c0 147 96.0898 265 241.68 264zM323.052 478.39c-113.52 0.610352 -190.899 -84.2998 -201.479 -198.17h393.81c-8.44043 113.85 -71.1104 198.17 -192.33 198.17z
" />
    <glyph glyph-name="emacron" unicode="&#x113;" horiz-adv-x="629" 
d="M485.44 612.04h-327.73v35.9199h327.73v-35.9199zM322.25 514c152.46 0 228.61 -111.939 232.44 -252.63c0.0800781 -4.21973 0.0498047 -8.41992 -0.0703125 -12.5996h-434.57c0.0400391 -2.95996 0.120117 -5.91992 0.240234 -8.87012
c3.37988 -123.3 83.2197 -218.3 202.83 -218.3c56.6699 0 118 19.6299 174.53 59.1895l12.96 -26.4502c-58.4102 -45.0596 -127.641 -68.3398 -188.36 -68.3398c-145.59 0 -241.68 118 -241.68 264c0 147 96.0898 265 241.68 264zM323.05 478.4
c-113.52 0.610352 -190.899 -84.29 -201.479 -198.16h393.81c-8.44043 113.84 -71.1104 198.16 -192.33 198.16z" />
    <glyph glyph-name="eogonek" unicode="&#x119;" horiz-adv-x="629" 
d="M554.7 261.36c0.0800781 -4.21973 0.0410156 -8.4082 -0.0791016 -12.5879h-434.57c0.0400391 -2.95996 0.120117 -5.91992 0.240234 -8.87012c3.37988 -123.3 83.2197 -218.3 202.83 -218.3c56.6699 0 118 19.6299 174.53 59.1895l12.96 -26.4502
c-24.2305 -18.6904 -50.3203 -33.6309 -76.8906 -44.7207c-52.6299 -34.9902 -80.5703 -65.7803 -80.6699 -104.761c0.110352 -47.6201 41.1299 -69.4199 85.7998 -69.3301c25.2598 -0.0898438 54.7402 6.87012 74.25 19.2402l10.2305 -28.1104
c-24.04 -15.3701 -60.8203 -24.3701 -92.2803 -24.4502c-57.8701 0.0800781 -115.811 30.6504 -115.961 93.8408c0.120117 35.3701 18.6104 65.0303 53.8301 94.2607c-15.8799 -2.87012 -31.54 -4.31055 -46.6602 -4.31055c-145.59 0 -241.68 118 -241.68 264
c0 147 96.0898 265 241.68 264c152.46 0 228.61 -111.95 232.44 -252.641zM121.581 280.242h393.8c-8.44043 113.85 -71.1104 198.17 -192.33 198.17c-113.52 0.610352 -190.899 -84.2998 -201.47 -198.17z" />
    <glyph glyph-name="etilde" unicode="&#x1ebd;" horiz-adv-x="629" 
d="M247.33 702.77c37.3096 -0.00976562 67.1885 -21.6289 90.8184 -39.6289c24.5801 -18.4902 45.0703 -30.5498 64.5605 -30.4199c31.3496 -0.129883 55.0996 30.2197 75.3096 60.6797l26.7598 -19.29c-24.2998 -35.1797 -52.9795 -76.8701 -102.01 -77.1797
c-33.71 0 -62.3896 19.25 -87.2793 37.9199c-21.2998 16.2598 -42.9395 31.9395 -69.2998 31.8799c-33.2803 0.0595703 -56.3799 -26.1406 -81.0195 -62.9209l-26.7998 19.2598c24.1699 35.2803 56.3096 79.7002 108.96 79.7002zM322.249 514.011
c152.47 0 228.609 -111.939 232.439 -252.63c0.0703125 -4.21973 0.0507812 -8.41992 -0.0693359 -12.5996h-434.57c0.0302734 -2.95996 0.110352 -5.91992 0.240234 -8.87012c3.37988 -123.3 83.2197 -218.3 202.83 -218.3c56.6602 0 117.99 19.6299 174.53 59.1895
l12.9502 -26.4502c-58.4004 -45.0596 -127.641 -68.3398 -188.351 -68.3398c-145.59 0 -241.68 118 -241.68 264c0 147 96.0898 265 241.68 264zM323.038 478.411c-113.52 0.610352 -190.9 -84.29 -201.471 -198.16h393.8c-8.42969 113.84 -71.1094 198.16 -192.329 198.16z
" />
    <glyph glyph-name="f" unicode="f" horiz-adv-x="418" 
d="M296.84 679.81c-71.2002 0 -124.98 -47.4893 -124.98 -149.77v-50.9805h199.14v-31.46h-199.14v-447.61h-37.8604v447.61h-99v24.5703l93 6.88965h6v49.1699c0 128.44 72.1904 185.761 160.29 185.761c45.3301 0 95.1201 -13.9404 142.03 -41.1309l-10.1396 -28.3398
c-43.9697 23.6299 -88.0996 35.3701 -129.34 35.29z" />
    <glyph glyph-name="g" unicode="g" horiz-adv-x="628" 
d="M528.12 500l0.407227 -485.19c0.120117 -157.81 -93.8799 -228.81 -212.88 -228.81c-64.6104 0 -132.38 21.3203 -193.91 66.4502l2.83008 33.5303c61.0703 -45.1104 128.221 -65.9404 189.201 -65.9404c104.78 0 176.7 62.0498 176.76 195.04l-0.0498047 89.8896
c-62.0596 -75.8096 -125.079 -104.3 -196.359 -103.12c-133.46 2.88965 -216.97 112.83 -216.97 258.89c0 158.78 98.5996 253.261 217.68 253.261c68.9902 0 141.351 -31.4805 195.48 -99l-0.0498047 84.9902zM300.277 35.9395
c60.7598 0.0898438 125.852 25.6396 190.191 109.6l-0.129883 227.62c-50.9404 70.3799 -124.511 105.24 -192.801 105.3c-99.2803 -0.0595703 -181.271 -75.5996 -181.271 -218.34c0 -130.7 68.2695 -224.08 184.01 -224.18z" />
    <glyph glyph-name="g.ss01" horiz-adv-x="620" 
d="M569.96 481.5l-147.21 -11.4785c49.5898 -28.5303 82.1094 -77.3105 82.0498 -138.931c0.110352 -110.11 -96.8896 -182.11 -216.109 -181.87c-31.5303 -0.0595703 -61.0303 5.57031 -86.7607 16.0205l-12.25 -6.37012
c-23.6602 -14.4805 -28.7002 -32.8105 -28.5498 -48.7607c1.46973 -49.2598 58.9697 -60.8496 85.3096 -60.8799h59.9805c143.49 0 241.49 -44.5596 241.49 -149.75c0 -105.2 -97 -149.49 -244 -149.49c-145 0 -244 44.5303 -243.91 147.41c0 60.5 52.21 109.55 135 132.069
c-33.5098 9.9502 -71.6895 32.5498 -73.0996 79.8701c-0.209961 21.9404 7.63965 49.29 40.7998 70.9004c-54.7197 31.0303 -89.9697 83.7803 -90.25 150.49c0.459961 109.27 95.46 182.27 216.66 181.909c29.0801 0.0898438 56.75 -4.08984 81.9902 -12.0303
l198.85 19.2305zM289.09 477.021c-101.28 0.349609 -177.4 -58.3291 -177.521 -146.199c0.44043 -88.1904 75.2705 -146.221 177.07 -146.001c100.72 -0.219727 177.149 58.1602 177.079 146.24c0.0703125 87.9502 -75.6992 146.3 -176.629 145.96zM306.42 13.6328
l-16.2812 -0.00976562c-116.37 -5.66992 -190.43 -55.5898 -190.43 -116.22c-0.0498047 -76.3701 74.04 -111.811 204.521 -111.811c131.53 0 204.57 34.8896 204.57 113.89c0 78.7803 -73.46 114.2 -202.38 114.15z" />
    <glyph glyph-name="gbreve" unicode="&#x11f;" horiz-adv-x="628" 
d="M321.6 570.94c-107.99 0 -179.261 72.8799 -179.261 163.06h37.9404c0 -72.7695 57.0195 -128.21 141.319 -128.21c84.9102 0 141.32 55.3496 141.32 128.21h37.9404c0 -90.1797 -70.5498 -163.06 -179.26 -163.06zM528.118 500l0.407227 -485.19
c0.120117 -157.81 -93.8799 -228.81 -212.88 -228.81c-64.6104 0 -132.38 21.3203 -193.91 66.4502l2.83008 33.5303c61.0703 -45.1104 128.221 -65.9404 189.201 -65.9404c104.78 0 176.7 62.0498 176.76 195.04l-0.0498047 89.8896
c-62.0596 -75.8096 -125.079 -104.3 -196.359 -103.12c-133.46 2.88965 -216.97 112.83 -216.97 258.89c0 158.78 98.5996 253.261 217.68 253.261c68.9902 0 141.351 -31.4805 195.48 -99l-0.0498047 84.9902zM300.275 35.9395
c60.7598 0.0898438 125.852 25.6396 190.191 109.6l-0.129883 227.62c-50.9404 70.3799 -124.511 105.24 -192.801 105.3c-99.2803 -0.0595703 -181.271 -75.5996 -181.271 -218.34c0 -130.7 68.2695 -224.08 184.01 -224.18z" />
    <glyph glyph-name="gbreve.ss01" horiz-adv-x="620" 
d="M451.32 733.99h37.9297c0 -90.1699 -70.5498 -163.05 -179.25 -163.05c-107.99 0 -179.26 72.8799 -179.26 163.05h37.9297c0 -72.7598 57.0303 -128.21 141.33 -128.21c84.9102 0 141.32 55.3604 141.32 128.21zM569.96 481.49l-147.21 -11.4727
c49.5898 -28.54 82.1094 -77.3096 82.0498 -138.939c0.110352 -110.1 -96.8896 -182.1 -216.109 -181.869c-31.5303 -0.0595703 -61.0303 5.57031 -86.7607 16.0205l-12.25 -6.36035c-23.6602 -14.4805 -28.7002 -32.8105 -28.5498 -48.7607
c1.46973 -49.2695 58.9697 -60.8594 85.3096 -60.8789h59.9805c143.49 0 241.49 -44.5596 241.49 -149.76c0 -105.19 -97 -149.49 -244 -149.49c-145 0 -244 44.54 -243.91 147.42c0 60.5 52.21 109.54 135 132.07c-33.5098 9.94043 -71.6895 32.54 -73.0996 79.8604
c-0.209961 21.9502 7.63965 49.2998 40.7998 70.9102c-54.7197 31.0195 -89.9697 83.7695 -90.25 150.479c0.459961 109.27 95.46 182.27 216.66 181.92c29.0801 0.0800781 56.75 -4.08984 81.9902 -12.04l198.85 19.2305zM289.09 477.008
c-101.28 0.339844 -177.4 -58.3311 -177.521 -146.201c0.44043 -88.1797 75.2705 -146.22 177.07 -145.989c100.72 -0.230469 177.149 58.1592 177.079 146.239c0.0703125 87.9404 -75.6992 146.301 -176.629 145.951zM306.42 13.6162h-16.2812
c-116.37 -5.67969 -190.43 -55.5898 -190.43 -116.229c-0.0498047 -76.3604 74.04 -111.801 204.521 -111.801c131.53 0 204.57 34.8799 204.57 113.88c0 78.79 -73.46 114.2 -202.38 114.15z" />
    <glyph glyph-name="gcommaaccent" unicode="&#x123;" horiz-adv-x="628" 
d="M323.59 583.05c-13.7695 -0.0996094 -24.79 9.45801 -27.5996 26.3584c-5.26953 31.5996 15.7803 91.46 44.6406 129.07l20.4297 -13.1699c-16.0303 -24.3096 -26.3799 -52.9092 -29.7402 -90.4189c10.2695 -3.11035 18.7998 -12.5801 18.9297 -25.4199
c-0.129883 -14.3896 -11.5703 -26.5195 -26.6602 -26.4199zM528.119 499.988l0.398438 -485.19c0.129883 -157.8 -93.8701 -228.8 -212.87 -228.8c-64.6104 0 -132.38 21.3096 -193.92 66.4395l2.83984 33.5303c61.0596 -45.0996 128.22 -65.9395 189.189 -65.9395
c104.78 0 176.7 62.0498 176.771 195.04l-0.0498047 89.8896c-62.0703 -75.8096 -125.09 -104.3 -196.37 -103.109c-133.46 2.88965 -216.97 112.83 -216.97 258.89c0 158.78 98.6104 253.25 217.69 253.25c68.9902 0 141.351 -31.4805 195.48 -99l-0.0498047 84.9902z
M300.268 35.9375c60.7598 0.0898438 125.85 25.6396 190.189 109.59l-0.129883 227.63c-50.9297 70.3701 -124.5 105.24 -192.8 105.29c-99.2695 -0.0498047 -181.26 -75.5996 -181.26 -218.33c0 -130.7 68.2598 -224.09 184 -224.18z" />
    <glyph glyph-name="gcommaaccent.ss01" horiz-adv-x="620" 
d="M327.49 738.48l20.4189 -13.1807c-16.0303 -24.3096 -26.3799 -52.8994 -29.7295 -90.4092c10.2695 -3.11035 18.7998 -12.5908 18.9297 -25.4307c-0.129883 -14.3896 -11.5703 -26.5098 -26.6602 -26.4102c-13.7695 -0.0996094 -24.7793 9.45996 -27.5996 26.3604
c-5.25977 31.5996 15.7803 91.46 44.6406 129.07zM569.949 481.49l-147.21 -11.4727c49.5898 -28.54 82.1094 -77.3096 82.0498 -138.939c0.110352 -110.1 -96.8896 -182.1 -216.109 -181.869c-31.5303 -0.0595703 -61.0303 5.57031 -86.7607 16.0205l-12.25 -6.36035
c-23.6602 -14.4805 -28.7002 -32.8105 -28.5498 -48.7607c1.46973 -49.2695 58.9697 -60.8594 85.3096 -60.8789h59.9805c143.49 0 241.49 -44.5596 241.49 -149.76c0 -105.19 -97 -149.49 -244 -149.49c-145 0 -244 44.54 -243.91 147.42c0 60.5 52.21 109.54 135 132.07
c-33.5098 9.94043 -71.6895 32.54 -73.0996 79.8604c-0.209961 21.9502 7.63965 49.2998 40.7998 70.9102c-54.7197 31.0195 -89.9697 83.7695 -90.25 150.479c0.459961 109.27 95.46 182.27 216.66 181.92c29.0801 0.0800781 56.75 -4.08984 81.9902 -12.04l198.85 19.2305
zM289.079 477.008c-101.28 0.339844 -177.4 -58.3311 -177.521 -146.201c0.44043 -88.1797 75.2705 -146.22 177.07 -145.989c100.72 -0.230469 177.149 58.1592 177.079 146.239c0.0703125 87.9404 -75.6992 146.301 -176.629 145.951zM306.409 13.6162h-16.2812
c-116.37 -5.67969 -190.43 -55.5898 -190.43 -116.229c-0.0498047 -76.3604 74.04 -111.801 204.521 -111.801c131.53 0 204.57 34.8799 204.57 113.88c0 78.79 -73.46 114.2 -202.38 114.15z" />
    <glyph glyph-name="gdotaccent" unicode="&#x121;" horiz-adv-x="628" 
d="M321.6 608.76c-15.5996 0 -28.2393 12.6396 -28.2393 28.2393s12.6396 28.25 28.2393 28.25s28.25 -12.6504 28.25 -28.25s-12.6504 -28.2393 -28.25 -28.2393zM528.119 500l0.407227 -485.19c0.120117 -157.81 -93.8799 -228.81 -212.88 -228.81
c-64.6104 0 -132.38 21.3203 -193.91 66.4502l2.83008 33.5303c61.0703 -45.1104 128.221 -65.9404 189.201 -65.9404c104.78 0 176.7 62.0498 176.76 195.04l-0.0498047 89.8896c-62.0596 -75.8096 -125.079 -104.3 -196.359 -103.12
c-133.46 2.88965 -216.97 112.83 -216.97 258.89c0 158.78 98.5996 253.261 217.68 253.261c68.9902 0 141.351 -31.4805 195.48 -99l-0.0498047 84.9902zM300.276 35.9395c60.7598 0.0898438 125.852 25.6396 190.191 109.6l-0.129883 227.62
c-50.9404 70.3799 -124.511 105.24 -192.801 105.3c-99.2803 -0.0595703 -181.271 -75.5996 -181.271 -218.34c0 -130.7 68.2695 -224.08 184.01 -224.18z" />
    <glyph glyph-name="gdotaccent.ss01" horiz-adv-x="620" 
d="M310 665.24c15.5996 0 28.2393 -12.6504 28.2393 -28.25s-12.6396 -28.2393 -28.2393 -28.2393s-28.25 12.6396 -28.25 28.2393s12.6504 28.25 28.25 28.25zM569.96 481.49l-147.21 -11.4727c49.5898 -28.54 82.1094 -77.3096 82.0498 -138.939
c0.110352 -110.1 -96.8896 -182.1 -216.109 -181.869c-31.5303 -0.0595703 -61.0303 5.57031 -86.7607 16.0205l-12.25 -6.36035c-23.6602 -14.4805 -28.7002 -32.8105 -28.5498 -48.7607c1.46973 -49.2695 58.9697 -60.8594 85.3096 -60.8789h59.9805
c143.49 0 241.49 -44.5596 241.49 -149.76c0 -105.19 -97 -149.49 -244 -149.49c-145 0 -244 44.54 -243.91 147.42c0 60.5 52.21 109.54 135 132.07c-33.5098 9.94043 -71.6895 32.54 -73.0996 79.8604c-0.209961 21.9502 7.63965 49.2998 40.7998 70.9102
c-54.7197 31.0195 -89.9697 83.7695 -90.25 150.479c0.459961 109.27 95.46 182.27 216.66 181.92c29.0801 0.0800781 56.75 -4.08984 81.9902 -12.04l198.85 19.2305zM289.09 477.008c-101.28 0.339844 -177.4 -58.3311 -177.521 -146.201
c0.44043 -88.1797 75.2705 -146.22 177.07 -145.989c100.72 -0.230469 177.149 58.1592 177.079 146.239c0.0703125 87.9404 -75.6992 146.301 -176.629 145.951zM306.42 13.6162h-16.2812c-116.37 -5.67969 -190.43 -55.5898 -190.43 -116.229
c-0.0498047 -76.3604 74.04 -111.801 204.521 -111.801c131.53 0 204.57 34.8799 204.57 113.88c0 78.79 -73.46 114.2 -202.38 114.15z" />
    <glyph glyph-name="h" unicode="h" horiz-adv-x="611" 
d="M347.03 513.95c93.2598 -0.0195312 169.57 -62.6924 169.57 -187.962v-326h-37.1699v326c0 102.25 -61.2197 152.77 -139.6 152.71c-63.2998 -0.0595703 -137.41 -32.6191 -198.65 -100.409v-378.29h-37.1699v700h37.1699v-285.1
c64.21 68.4199 140.39 99.0703 205.85 99.0508z" />
    <glyph glyph-name="hbar" unicode="&#x127;" horiz-adv-x="611" 
d="M347.03 513.95c93.2598 -0.0195312 169.57 -62.6924 169.57 -187.962v-326h-37.1699v326c0 102.25 -61.2197 152.77 -139.6 152.71c-63.2998 -0.0595703 -137.41 -32.6191 -198.65 -100.409v-378.29h-37.1699v589.67h-121.88v31.4697h121.88v78.8604h37.1699v-78.8604
h168.68v-31.4697h-168.68v-174.77c64.21 68.4199 140.39 99.0703 205.85 99.0508z" />
    <glyph glyph-name="i" unicode="i" horiz-adv-x="257" 
d="M131.03 665.58c15.79 0 28.5898 -12.7998 28.5898 -28.5898s-12.7998 -28.5898 -28.5898 -28.5898s-28.5898 12.7998 -28.5898 28.5898s12.7998 28.5898 28.5898 28.5898zM149.61 0h-37.1699v500h37.1699v-500z" />
    <glyph glyph-name="dotlessi" unicode="&#x131;" horiz-adv-x="257" 
d="M149.61 0h-37.1699v500h37.1699v-500z" />
    <glyph glyph-name="iacute" unicode="&#xed;" horiz-adv-x="257" 
d="M150.34 556.17h-43.2803l127.78 172.6h50.5898zM149.619 -0h-37.1797v500h37.1797v-500z" />
    <glyph glyph-name="icaron" unicode="&#x1d0;" horiz-adv-x="257" 
d="M298.97 737l-146.591 -172.6h-43.2803l-146.6 172.6h47.04l121.19 -146.45l121.19 146.45h47.0498zM112.449 500h37.1699v-500h-37.1699v500z" />
    <glyph glyph-name="icircumflex" unicode="&#xee;" horiz-adv-x="257" 
d="M298.72 564.4h-47.0586l-121.19 146.45l-121.19 -146.45h-47.04l146.6 172.6h43.2803zM112.431 500h37.1797v-500h-37.1797v500z" />
    <glyph glyph-name="idieresis" unicode="&#xef;" horiz-adv-x="257" 
d="M24.04 665.24c15.5996 0 28.25 -12.6396 28.25 -28.2393s-12.6504 -28.25 -28.25 -28.25s-28.2393 12.6504 -28.2393 28.25s12.6396 28.2393 28.2393 28.2393zM236.91 665.24c15.5996 0 28.25 -12.6396 28.25 -28.2393s-12.6504 -28.25 -28.25 -28.25
s-28.2393 12.6504 -28.2393 28.25s12.6396 28.2393 28.2393 28.2393zM149.61 0h-37.1699v500h37.1699v-500z" />
    <glyph glyph-name="i.loclTRK" horiz-adv-x="257" 
d="M130.48 665.24c15.5996 0 28.2393 -12.6396 28.2393 -28.2393s-12.6396 -28.25 -28.2393 -28.25s-28.25 12.6504 -28.25 28.25s12.6504 28.2393 28.25 28.2393zM149.61 0h-37.1699v500h37.1699v-500z" />
    <glyph glyph-name="idotbelow" unicode="&#x1ecb;" horiz-adv-x="257" 
d="M131.03 665.58c15.79 0 28.5898 -12.7998 28.5898 -28.5898s-12.7998 -28.5898 -28.5898 -28.5898s-28.5898 12.7998 -28.5898 28.5898s12.7998 28.5898 28.5898 28.5898zM149.61 0h-37.1699v500h37.1699v-500zM131.021 -97.3096c15.5996 0 28.25 -12.6504 28.25 -28.25
s-12.6504 -28.2393 -28.25 -28.2393s-28.2393 12.6396 -28.2393 28.2393s12.6396 28.25 28.2393 28.25z" />
    <glyph glyph-name="igrave" unicode="&#xec;" horiz-adv-x="257" 
d="M153.2 564.4h-43.2803l-135.09 172.6h50.5898zM149.62 0h-37.1797v500h37.1797v-500z" />
    <glyph glyph-name="ihookabove" unicode="&#x1ec9;" horiz-adv-x="257" 
d="M160.76 817.73c61.4297 0 115.941 -20.1016 116.102 -95.7715c-0.160156 -52.7598 -27.8906 -68.8096 -85.1504 -96.8594c-27.1299 -13.21 -41.2002 -20.5996 -42.3203 -44.3896h-34.8701c1.17969 43.6602 30.4795 59.0703 62.1895 74.4307
c49.7402 23.8496 65.29 35.2695 65.3701 68.3994c-0.209961 47.3301 -35.3203 61.8701 -81.5605 61.8398c-32.2305 -0.0302734 -64.0303 -7.25 -89.1504 -18.4697l-14.5996 28.7803c30.1396 14.3096 66.6299 22.04 103.99 22.04zM149.611 -0.0214844h-37.1797v500h37.1797
v-500z" />
    <glyph glyph-name="ij" unicode="&#x133;" horiz-adv-x="516" 
d="M131.03 665.58c15.79 0 28.5898 -12.7998 28.5898 -28.5898s-12.7998 -28.5898 -28.5898 -28.5898s-28.5898 12.7998 -28.5898 28.5898s12.7998 28.5898 28.5898 28.5898zM390.221 665.58c15.79 0 28.5898 -12.7998 28.5898 -28.5898
s-12.7998 -28.5898 -28.5898 -28.5898s-28.5898 12.7998 -28.5898 28.5898s12.7998 28.5898 28.5898 28.5898zM149.621 0h-37.1797v500h37.1797v-500zM408.812 500l-0.000976562 -558.7c0 -107.38 -60.3496 -155.3 -134.01 -155.3
c-15.4404 0 -31.5205 1.95996 -47.7402 5.84961l2.82031 31.29c12.9805 -2.2998 25.6904 -3.42969 38.1504 -3.39941c58.9502 0 103.601 38.4004 103.601 121.49v558.77h37.1797z" />
    <glyph glyph-name="imacron" unicode="&#x12b;" horiz-adv-x="257" 
d="M294.34 612.04h-327.73v35.9199h327.73v-35.9199zM149.609 0h-37.1699v500h37.1699v-500z" />
    <glyph glyph-name="iogonek" unicode="&#x12f;" horiz-adv-x="257" 
d="M130.48 608.75c-15.5996 0 -28.25 12.6504 -28.25 28.25s12.6504 28.2393 28.25 28.2393s28.2393 -12.6396 28.2393 -28.2393s-12.6396 -28.25 -28.2393 -28.25zM225.58 -157.12l10.2314 -28.1123c-24.04 -15.3799 -60.8203 -24.3799 -92.2803 -24.46
c-57.8701 0.0800781 -115.811 30.6504 -115.961 93.8408c0.150391 44.6201 29.5508 80.4502 84.8711 117.53v498.32h37.1797v-500c-53.9004 -35.3496 -83.9805 -66.7393 -84.0908 -107.029c0.110352 -47.6201 41.1299 -69.4199 85.7998 -69.3301
c25.2598 -0.0898438 54.7402 6.87012 74.25 19.2402z" />
    <glyph glyph-name="itilde" unicode="&#x129;" horiz-adv-x="257" 
d="M56.2305 702.77c37.3096 0 67.1885 -21.6191 90.8184 -39.6191c24.5801 -18.4902 45.0703 -30.5498 64.5605 -30.4297c31.3496 -0.120117 55.0996 30.2295 75.3096 60.6797l26.7598 -19.29c-24.2998 -35.1797 -52.9795 -76.8594 -102.01 -77.1797
c-33.71 0 -62.3896 19.2598 -87.2793 37.9297c-21.2998 16.25 -42.9395 31.9297 -69.2998 31.8799c-33.2803 0.0498047 -56.3799 -26.1406 -81.0195 -62.9209l-26.7998 19.25c24.1699 35.2803 56.3096 79.7002 108.96 79.7002zM149.6 0.0107422h-37.1699v500h37.1699v-500z
" />
    <glyph glyph-name="j" unicode="j" horiz-adv-x="259" 
d="M133.16 665.58c15.79 0 28.5898 -12.7998 28.5898 -28.5898s-12.7998 -28.5898 -28.5898 -28.5898s-28.5898 12.7998 -28.5898 28.5898s12.7998 28.5898 28.5898 28.5898zM151.75 500l-0.000976562 -558.7c0 -107.38 -60.3496 -155.3 -134.01 -155.3
c-15.4404 0 -31.5205 1.95996 -47.7402 5.84961l2.82031 31.29c12.9805 -2.2998 25.6904 -3.42969 38.1504 -3.39941c58.9502 0 103.601 38.4004 103.601 121.49v558.77h37.1797z" />
    <glyph glyph-name="k" unicode="k" horiz-adv-x="549" 
d="M271.83 297.42l-130.65 -125.319v-172.11h-37.1797v700h37.1797v-479.64l289.29 279.63l52.6201 0.0595703l-185.68 -178.1l217.8 -321.94h-44.6299z" />
    <glyph glyph-name="kcommaaccent" unicode="&#x137;" horiz-adv-x="549" 
d="M515.21 0l-44.6299 -0.00976562l-198.75 297.42l-130.65 -125.31v-172.11h-37.1797v700h37.1797v-479.64l289.29 279.63l52.6201 0.0595703l-185.68 -178.1zM288.11 -87.2002c13.7695 0.0996094 24.79 -9.45801 27.6104 -26.3584
c5.25977 -31.5996 -15.7803 -91.46 -44.6406 -129.07l-20.4297 13.1699c16.0303 24.3096 26.3799 52.9092 29.7295 90.4189c-10.2598 3.11035 -18.7998 12.5801 -18.9297 25.4199c0.129883 14.3896 11.5703 26.5195 26.6602 26.4199z" />
    <glyph glyph-name="l" unicode="l" horiz-adv-x="356" 
d="M141.18 700l0.000976562 -565.65c0 -83.7695 53.2998 -114.93 112.689 -114.62c16 0.0800781 31.8496 2.37012 47.6191 6.71973l11.1699 -29.8496c-21.0596 -6.73047 -43.2393 -10.4404 -64.9395 -10.5508c-74.6504 -0.389648 -143.71 41.4707 -143.71 148.291v565.66
h37.1699z" />
    <glyph glyph-name="lacute" unicode="&#x13a;" horiz-adv-x="356" 
d="M203.87 756.17h-43.2803l127.78 172.6h50.5898zM141.189 700l-0.0078125 -565.65c0 -83.7695 53.3096 -114.93 112.689 -114.62c16.0098 0.0800781 31.8594 2.37012 47.6289 6.71973l11.1602 -29.8496c-21.0596 -6.73047 -43.2295 -10.4404 -64.9297 -10.5508
c-74.6504 -0.389648 -143.721 41.4707 -143.721 148.291v565.66h37.1797z" />
    <glyph glyph-name="lcaron" unicode="&#x13e;" horiz-adv-x="356" 
d="M279.13 714.02c13.7695 0.0996094 24.79 -9.44922 27.6104 -26.3496c5.25977 -31.5996 -15.7803 -91.46 -44.6406 -129.07l-20.4297 13.1699c16.0303 24.3096 26.3799 52.8994 29.7295 90.4092c-10.2598 3.11035 -18.7998 12.5908 -18.9297 25.4307
c0.129883 14.3896 11.5703 26.5098 26.6602 26.4102zM141.19 700.011l-0.0078125 -565.65c0 -83.7695 53.3096 -114.93 112.689 -114.62c16.0098 0.0800781 31.8594 2.37012 47.6289 6.71973l11.1602 -29.8496c-21.0596 -6.73047 -43.2295 -10.4404 -64.9297 -10.5508
c-74.6504 -0.389648 -143.721 41.4707 -143.721 148.291v565.66h37.1797z" />
    <glyph glyph-name="lcommaaccent" unicode="&#x13c;" horiz-adv-x="356" 
d="M141.18 700l0.000976562 -565.65c0 -83.7695 53.2998 -114.93 112.689 -114.62c16 0.0800781 31.8496 2.37012 47.6191 6.71973l11.1699 -29.8496c-21.0596 -6.73047 -43.2393 -10.4404 -64.9395 -10.5508c-74.6504 -0.389648 -143.71 41.4707 -143.71 148.291v565.66
h37.1699zM196.411 -87.1904c13.7695 0.0996094 24.79 -9.4502 27.5996 -26.3604c5.26953 -31.5898 -15.7803 -91.46 -44.6406 -129.06l-20.4297 13.1699c16.0303 24.3096 26.3799 52.8994 29.7402 90.4092c-10.2695 3.11035 -18.7998 12.5908 -18.9297 25.4307
c0.129883 14.3896 11.5703 26.5098 26.6602 26.4102z" />
    <glyph glyph-name="ldot" unicode="&#x140;" horiz-adv-x="356" 
d="M141.18 700l0.000976562 -565.65c0 -83.7695 53.2998 -114.93 112.689 -114.62c16 0.0800781 31.8496 2.37012 47.6191 6.71973l11.1699 -29.8496c-21.0596 -6.73047 -43.2393 -10.4404 -64.9395 -10.5508c-74.6504 -0.389648 -143.71 41.4707 -143.71 148.291v565.66
h37.1699zM249.931 369.83c16.5 0 29.8701 -13.3799 29.8701 -29.8799s-13.3701 -29.8701 -29.8701 -29.8701s-29.8799 13.3701 -29.8799 29.8701c0 16.71 13.3799 29.8799 29.8799 29.8799z" />
    <glyph glyph-name="lslash" unicode="&#x142;" horiz-adv-x="321" 
d="M251.4 19.0703c16.8203 0.0498047 33.5508 2.46191 50.3203 7.12207l0.709961 -31.1299c-19.04 -5.83008 -38.6797 -8.9502 -57.7598 -9.03027c-74.3398 -0.259766 -140.66 43.5 -140.66 150.5v201.93l-115.58 -63.4805l-15.7998 28.1797l131.38 72.1602v324.68h37.1699
v-304.26l153.4 84.25l15.7998 -28.1797l-169.2 -92.9404v-222.41c0 -82.4805 49.9697 -117.641 110.22 -117.391z" />
    <glyph glyph-name="m" unicode="m" horiz-adv-x="940" 
d="M682.95 514c91 0 163.591 -62.1211 163.321 -188.001v-326h-37.1797v326.01c0.269531 102.71 -58.2207 152.78 -133.211 152.771c-56.3701 0 -125.36 -26.3701 -186.98 -89.1797c4.66992 -19.0098 7.16992 -40.2002 7.12988 -63.6006v-326h-37.1699v326
c0.209961 102.19 -58.21 152.671 -133.61 152.711c-60.4297 0.0302734 -130.699 -31.7295 -189.06 -96.2695v-382.44h-37.1797v500h37.1797v-82.0801c63.4297 68.2002 135.689 96.0801 196.409 96.0801c65.2598 0 121.59 -32.3896 147.78 -97.79
c64.6104 68.3496 139.641 97.79 202.57 97.79z" />
    <glyph glyph-name="n" unicode="n" horiz-adv-x="606" 
d="M341.97 514c93.0596 0 169.631 -62.7402 169.631 -188v-326h-37.1797v326c0 101.87 -60.8301 152.71 -138.79 152.71c-62.4697 0 -137.62 -32.1504 -199.45 -100.44v-378.27h-37.1699v500h37.1699v-85.1104c64.8896 69.0801 141.489 99.1104 205.789 99.1104z" />
    <glyph glyph-name="nacute" unicode="&#x144;" horiz-adv-x="606" 
d="M330.34 556.17h-43.2695l127.77 172.6h50.5898zM341.971 514c93.0498 0 169.631 -62.7402 169.631 -188v-326h-37.1699v326c0 101.87 -60.8398 152.71 -138.79 152.71c-62.4805 0 -137.62 -32.1504 -199.45 -100.44v-378.27h-37.1797v500h37.1797v-85.1104
c64.8896 69.0801 141.489 99.1104 205.779 99.1104z" />
    <glyph glyph-name="ncaron" unicode="&#x148;" horiz-adv-x="606" 
d="M289.1 564.4l-146.591 172.6h47.04l121.19 -146.45l121.19 146.45h47.0498l-146.6 -172.6h-43.2803zM341.979 514c93.0596 0 169.631 -62.7393 169.631 -187.989v-326h-37.1797v326c0 101.87 -60.8301 152.7 -138.79 152.7c-62.4697 0 -137.62 -32.1396 -199.45 -100.43
v-378.28h-37.1699v500h37.1699v-85.1104c64.8896 69.0898 141.489 99.1094 205.789 99.1094z" />
    <glyph glyph-name="ncommaaccent" unicode="&#x146;" horiz-adv-x="606" 
d="M341.97 514c93.0596 0 169.631 -62.7402 169.631 -188v-326h-37.1797v326c0 101.87 -60.8301 152.71 -138.79 152.71c-62.4697 0 -137.62 -32.1504 -199.45 -100.44v-378.27h-37.1699v500h37.1699v-85.1104c64.8896 69.0801 141.489 99.1104 205.789 99.1104z
M315.011 -87.1904c13.7695 0.0996094 24.79 -9.4502 27.5996 -26.3604c5.26953 -31.5898 -15.7803 -91.46 -44.6406 -129.06l-20.4297 13.1699c16.0303 24.3096 26.3799 52.8994 29.7402 90.4092c-10.2695 3.11035 -18.7998 12.5908 -18.9297 25.4307
c0.129883 14.3896 11.5703 26.5098 26.6602 26.4102z" />
    <glyph glyph-name="eng" unicode="&#x14b;" horiz-adv-x="606" 
d="M341.97 514c93.0596 0 169.63 -62.751 169.63 -188.011v-384.69c0 -107.38 -60.3496 -155.3 -134.01 -155.3c-15.4404 0 -31.5205 1.95996 -47.7402 5.84961l2.82031 31.29c12.9805 -2.2998 25.6904 -3.42969 38.1602 -3.39941c58.9404 0 103.591 38.4004 103.591 121.49
v384.77c0 101.87 -60.8301 152.7 -138.79 152.7c-62.4697 0 -137.62 -32.1396 -199.45 -100.43v-378.27h-37.1699v500h37.1699v-85.1104c64.8896 69.0801 141.489 99.1104 205.789 99.1104z" />
    <glyph glyph-name="ntilde" unicode="&#xf1;" horiz-adv-x="606" 
d="M235.1 666.74c-33.2803 0.0498047 -56.3906 -26.1299 -81.0303 -62.9102l-26.7998 19.25c24.1699 35.2803 56.3096 79.7002 108.96 79.7002c37.3096 0 67.1992 -21.6299 90.8291 -39.6299c24.5801 -18.4902 45.0703 -30.5498 64.5605 -30.4297
c31.3496 -0.120117 55.0996 30.2295 75.3096 60.6797l26.7598 -19.29c-24.2998 -35.1797 -52.9795 -76.8594 -102.01 -77.1797c-33.71 0 -62.3896 19.2598 -87.2793 37.9297c-21.2998 16.25 -42.9395 31.9297 -69.2998 31.8799zM341.959 514.011
c93.0596 0 169.631 -62.7402 169.631 -188v-326h-37.1797v326c0 101.87 -60.8301 152.71 -138.79 152.71c-62.4697 0 -137.62 -32.1504 -199.45 -100.44v-378.27h-37.1699v500h37.1699v-85.1104c64.8896 69.0801 141.489 99.1104 205.789 99.1104z" />
    <glyph glyph-name="o" unicode="o" horiz-adv-x="659" 
d="M329.58 514c151 0 249 -118 249 -264s-98 -264 -249 -264c-150 0 -249 118 -249 264c0 147 99 265 249 264zM329.51 478.39c-127.24 0.639648 -210.13 -99.0195 -209.81 -228.39c0 -128.68 83.2197 -228.399 209.88 -228.399c127.62 0 209.88 99.3799 209.88 228.399
s-82.2598 228.39 -209.95 228.39z" />
    <glyph glyph-name="oacute" unicode="&#xf3;" horiz-adv-x="659" 
d="M349.44 556.17h-43.2803l127.78 172.6h50.5898zM329.58 514c151 0 249 -118 249 -264s-98 -264 -249 -264c-150 0 -249 118 -249 264c0 147 99 265 249 264zM329.521 478.39c-127.25 0.639648 -210.13 -99.0195 -209.82 -228.39
c0 -128.68 83.2305 -228.399 209.881 -228.399c127.63 0 209.88 99.3799 209.88 228.399s-82.25 228.39 -209.94 228.39z" />
    <glyph glyph-name="ocaron" unicode="&#x1d2;" horiz-adv-x="659" 
d="M308.19 564.4l-146.591 172.6h47.0498l121.19 -146.45l121.19 146.45h47.04l-146.6 -172.6h-43.2803zM329.59 514c151 0 249 -118 249 -264s-98 -264 -249 -264c-150 0 -249 118 -249 264c0 147 99 265 249 264zM329.59 21.5996c127.62 0 209.88 99.3809 209.88 228.4
s-82.2598 228.399 -209.95 228.399c-127.24 0.639648 -210.13 -99.0303 -209.81 -228.4c0 -128.68 83.2197 -228.399 209.88 -228.399z" />
    <glyph glyph-name="ocircumflex" unicode="&#xf4;" horiz-adv-x="659" 
d="M208.39 564.4h-47.0586l146.6 172.6h43.2803l146.6 -172.6h-47.04l-121.19 146.45zM329.571 514c151 0 249 -118 249 -264s-98 -264 -249 -264c-150 0 -249 118 -249 264c0 147 99 265 249 264zM329.571 21.5996c127.63 0 209.88 99.3809 209.88 228.4
s-82.25 228.399 -209.94 228.399c-127.25 0.639648 -210.13 -99.0303 -209.82 -228.4c0 -128.68 83.2305 -228.399 209.881 -228.399z" />
    <glyph glyph-name="ocircumflexacute" unicode="&#x1ed1;" horiz-adv-x="659" 
d="M551.61 625h-43.2695l127.77 172.6h50.5898zM208.391 564.4h-47.0488l146.6 172.6h43.2803l146.6 -172.6h-47.0498l-121.19 146.45zM329.582 514c151 0 249 -118 249 -264s-98 -264 -249 -264c-150 0 -249 118 -249 264c0 147 99 265 249 264zM329.582 21.5996
c127.62 0 209.88 99.3809 209.88 228.4s-82.2598 228.399 -209.95 228.399c-127.24 0.639648 -210.13 -99.0303 -209.81 -228.4c0 -128.68 83.2197 -228.399 209.88 -228.399z" />
    <glyph glyph-name="ocircumflexdotbelow" unicode="&#x1ed9;" horiz-adv-x="659" 
d="M208.39 564.4h-47.0586l146.6 172.6h43.2803l146.6 -172.6h-47.04l-121.19 146.45zM329.571 514c151 0 249 -118 249 -264s-98 -264 -249 -264c-150 0 -249 118 -249 264c0 147 99 265 249 264zM329.571 21.5996c127.63 0 209.88 99.3809 209.88 228.4
s-82.25 228.399 -209.94 228.399c-127.25 0.639648 -210.13 -99.0303 -209.82 -228.4c0 -128.68 83.2305 -228.399 209.881 -228.399zM329.571 -97.3096c15.5996 0 28.25 -12.6396 28.25 -28.2393s-12.6504 -28.25 -28.25 -28.25s-28.2393 12.6504 -28.2393 28.25
s12.6396 28.2393 28.2393 28.2393z" />
    <glyph glyph-name="ocircumflexgrave" unicode="&#x1ed3;" horiz-adv-x="659" 
d="M548.44 625l-135.09 172.6h50.5898l127.78 -172.6h-43.2803zM208.391 564.399h-47.0488l146.6 172.6h43.2803l146.6 -172.6h-47.0498l-121.19 146.45zM329.582 513.999c151 0 249 -118 249 -264s-98 -264 -249 -264c-150 0 -249 118 -249 264c0 147 99 265 249 264z
M329.582 21.6094c127.62 0 209.88 99.3799 209.88 228.399s-82.2598 228.39 -209.95 228.39c-127.24 0.650391 -210.13 -99.0293 -209.81 -228.399c0 -128.68 83.2197 -228.39 209.88 -228.39z" />
    <glyph glyph-name="ocircumflexhookabove" unicode="&#x1ed5;" horiz-adv-x="659" 
d="M556.85 829.76c61.4297 0 115.941 -20.0918 116.102 -95.7715c-0.160156 -52.7598 -27.8906 -68.8096 -85.1504 -96.8594c-27.1299 -13.21 -41.2002 -20.5996 -42.3203 -44.3896h-34.8701c1.17969 43.6602 30.4795 59.0703 62.1895 74.4307
c49.7402 23.8496 65.29 35.2695 65.3701 68.3994c-0.209961 47.3301 -35.3203 61.8701 -81.5605 61.8301c-32.2305 -0.0195312 -64.0303 -7.25 -89.1504 -18.46l-14.5996 28.7803c30.1396 14.3096 66.6299 22.04 103.99 22.04zM208.382 564.388h-47.0488l146.6 172.6
h43.2803l146.6 -172.6h-47.0498l-121.19 146.45zM329.573 513.987c151 0 249 -118 249 -264s-98 -264 -249 -264c-150 0 -249 118 -249 264c0 147 99 265 249 264zM329.573 21.5869c127.62 0 209.88 99.3809 209.88 228.4s-82.2598 228.399 -209.95 228.399
c-127.24 0.639648 -210.13 -99.0303 -209.81 -228.4c0 -128.68 83.2197 -228.399 209.88 -228.399z" />
    <glyph glyph-name="ocircumflextilde" unicode="&#x1ed7;" horiz-adv-x="659" 
d="M254.2 821.12c-33.29 0.0595703 -56.3896 -26.1299 -81.04 -62.9102l-26.7998 19.2598c24.1797 35.2803 56.3193 79.7002 108.97 79.7002c37.3096 -0.00976562 67.1895 -21.6396 90.8193 -39.6396c24.5898 -18.4902 45.0801 -30.5498 64.5605 -30.4199
c31.3604 -0.129883 55.1006 30.2197 75.3203 60.6797l26.7598 -19.29c-24.2998 -35.1797 -52.9902 -76.8701 -102.01 -77.1797c-33.71 0 -62.4004 19.25 -87.29 37.9199c-21.29 16.2598 -42.9297 31.9395 -69.29 31.8799zM351.21 737.011l146.591 -172.6h-47.0498
l-121.19 146.45l-121.19 -146.45h-47.04l146.6 172.6h43.2803zM329.561 514.011c151 0 249 -118 249 -264s-98 -264 -249 -264c-150 0 -249 118 -249 264c0 147 99 265 249 264zM329.561 21.6104c127.62 0 209.88 99.3809 209.88 228.4s-82.2598 228.399 -209.95 228.399
c-127.24 0.639648 -210.13 -99.0303 -209.81 -228.4c0 -128.68 83.2197 -228.399 209.88 -228.399z" />
    <glyph glyph-name="odieresis" unicode="&#xf6;" horiz-adv-x="659" 
d="M223.14 665.24c15.5996 0 28.25 -12.6396 28.25 -28.2393s-12.6504 -28.25 -28.25 -28.25s-28.2393 12.6504 -28.2393 28.25s12.6396 28.2393 28.2393 28.2393zM436.01 665.24c15.5996 0 28.25 -12.6396 28.25 -28.2393s-12.6504 -28.25 -28.25 -28.25
s-28.2393 12.6504 -28.2393 28.25s12.6396 28.2393 28.2393 28.2393zM329.58 514c151 0 249 -118 249 -264s-98 -264 -249 -264c-150 0 -249 118 -249 264c0 147 99 265 249 264zM329.51 478.39c-127.24 0.639648 -210.13 -99.0195 -209.81 -228.39
c0 -128.68 83.2197 -228.399 209.88 -228.399c127.62 0 209.88 99.3799 209.88 228.399s-82.2598 228.39 -209.95 228.39z" />
    <glyph glyph-name="odotbelow" unicode="&#x1ecd;" horiz-adv-x="659" 
d="M329.58 514c151 0 249 -118 249 -264s-98 -264 -249 -264c-150 0 -249 118 -249 264c0 147 99 265 249 264zM329.51 478.39c-127.24 0.639648 -210.13 -99.0195 -209.81 -228.39c0 -128.68 83.2197 -228.399 209.88 -228.399c127.62 0 209.88 99.3799 209.88 228.399
s-82.2598 228.39 -209.95 228.39zM329.58 -97.3096c15.5996 0 28.2393 -12.6396 28.2393 -28.2393s-12.6396 -28.25 -28.2393 -28.25s-28.25 12.6504 -28.25 28.25s12.6504 28.2393 28.25 28.2393z" />
    <glyph glyph-name="ograve" unicode="&#xf2;" horiz-adv-x="659" 
d="M352.3 564.4h-43.2803l-135.09 172.6h50.5898zM329.579 514c151 0 249 -118 249 -264s-98 -264 -249 -264c-150 0 -249 118 -249 264c0 147 99 265 249 264zM329.52 478.39c-127.25 0.639648 -210.13 -99.0195 -209.82 -228.39
c0 -128.68 83.2305 -228.399 209.881 -228.399c127.63 0 209.88 99.3799 209.88 228.399s-82.25 228.39 -209.94 228.39z" />
    <glyph glyph-name="ohookabove" unicode="&#x1ecf;" horiz-adv-x="659" 
d="M347.99 817.73c61.4297 0 115.941 -20.1016 116.102 -95.7715c-0.160156 -52.7598 -27.8906 -68.8096 -85.1504 -96.8594c-27.1299 -13.21 -41.2002 -20.5996 -42.3203 -44.3896h-34.8701c1.17969 43.6602 30.4795 59.0703 62.1895 74.4307
c49.7402 23.8496 65.29 35.2695 65.3701 68.3994c-0.209961 47.3301 -35.3203 61.8701 -81.5605 61.8398c-32.2305 -0.0302734 -64.0303 -7.25 -89.1504 -18.4697l-14.5996 28.7803c30.1396 14.3096 66.6299 22.04 103.99 22.04zM329.572 513.979c151 0 249 -118 249 -264
s-98 -264 -249 -264c-150 0 -249 118 -249 264c0 147 99 265 249 264zM329.513 478.379c-127.25 0.650391 -210.13 -99.0293 -209.82 -228.399c0 -128.68 83.2305 -228.39 209.881 -228.39c127.63 0 209.88 99.3701 209.88 228.39s-82.25 228.399 -209.94 228.399z" />
    <glyph glyph-name="ohorn" unicode="&#x1a1;" horiz-adv-x="659" 
d="M567.59 450.21c-14.5098 -10.3301 -33.1885 -15.7783 -54.8984 -15.6787c42.1396 -47.5703 65.8896 -112.66 65.8896 -184.53c0 -146 -98 -264 -249 -264c-150 0 -249 118 -249 264c0 147 99 265 249 264c62.5195 0 115.949 -20.2305 157.109 -54.3008
c23.5996 -3.16992 43.4297 0.910156 57.7393 11.3301c24.3799 17.6201 33.1895 51.75 17.9199 100.76l31.3301 9.37988c19.2598 -62.1104 6.37012 -108.11 -26.0898 -130.96zM329.581 21.6016c127.63 0 209.88 99.3799 209.88 228.399s-82.25 228.39 -209.94 228.39
c-127.25 0.650391 -210.13 -99.0293 -209.82 -228.399c0 -128.68 83.2305 -228.39 209.881 -228.39z" />
    <glyph glyph-name="ohornacute" unicode="&#x1edb;" horiz-adv-x="659" 
d="M349.44 556.17h-43.2803l127.78 172.6h50.5898zM567.59 450.21c-14.5098 -10.3301 -33.1885 -15.7783 -54.8984 -15.6787c42.1396 -47.5703 65.8896 -112.66 65.8896 -184.53c0 -146 -98 -264 -249 -264c-150 0 -249 118 -249 264c0 147 99 265 249 264
c62.5195 0 115.949 -20.2305 157.109 -54.3008c23.5996 -3.16992 43.4297 0.910156 57.7393 11.3301c24.3799 17.6201 33.1895 51.75 17.9199 100.76l31.3301 9.37988c19.2598 -62.1104 6.37012 -108.11 -26.0898 -130.96zM329.581 21.6016
c127.63 0 209.88 99.3799 209.88 228.399s-82.25 228.39 -209.94 228.39c-127.25 0.650391 -210.13 -99.0293 -209.82 -228.399c0 -128.68 83.2305 -228.39 209.881 -228.39z" />
    <glyph glyph-name="ohorndotbelow" unicode="&#x1ee3;" horiz-adv-x="659" 
d="M567.59 450.21c-14.5098 -10.3301 -33.1885 -15.7783 -54.8984 -15.6787c42.1396 -47.5703 65.8896 -112.66 65.8896 -184.53c0 -146 -98 -264 -249 -264c-150 0 -249 118 -249 264c0 147 99 265 249 264c62.5195 0 115.949 -20.2305 157.109 -54.3008
c23.5996 -3.16992 43.4297 0.910156 57.7393 11.3301c24.3799 17.6201 33.1895 51.75 17.9199 100.76l31.3301 9.37988c19.2598 -62.1104 6.37012 -108.11 -26.0898 -130.96zM329.581 21.6016c127.63 0 209.88 99.3799 209.88 228.399s-82.25 228.39 -209.94 228.39
c-127.25 0.650391 -210.13 -99.0293 -209.82 -228.399c0 -128.68 83.2305 -228.39 209.881 -228.39zM329.581 -97.3086c15.5996 0 28.25 -12.6504 28.25 -28.25s-12.6504 -28.2393 -28.25 -28.2393s-28.2393 12.6396 -28.2393 28.2393s12.6396 28.25 28.2393 28.25z" />
    <glyph glyph-name="ohorngrave" unicode="&#x1edd;" horiz-adv-x="659" 
d="M309.02 564.4l-135.079 172.6h50.5898l127.77 -172.6h-43.2803zM567.601 450.21c-14.5098 -10.3301 -33.1904 -15.7783 -54.9004 -15.6787c42.1299 -47.5703 65.8799 -112.66 65.8799 -184.53c0 -146 -98 -264 -249 -264c-150 0 -249 118 -249 264c0 147 99 265 249 264
c62.5195 0 115.96 -20.2305 157.11 -54.3008c23.5996 -3.16992 43.4297 0.910156 57.75 11.3301c24.3799 17.6201 33.1895 51.75 17.9199 100.76l31.3203 9.37988c19.2695 -62.1104 6.37988 -108.11 -26.0801 -130.96zM329.59 21.6016
c127.62 0 209.88 99.3799 209.88 228.399s-82.2598 228.39 -209.95 228.39c-127.24 0.650391 -210.13 -99.0293 -209.81 -228.399c0 -128.68 83.2197 -228.39 209.88 -228.39z" />
    <glyph glyph-name="ohornhookabove" unicode="&#x1edf;" horiz-adv-x="659" 
d="M347.76 785.37c-32.2305 -0.0302734 -64.0381 -7.26172 -89.1582 -18.4814l-14.5996 28.7803c30.1396 14.3096 66.6299 22.04 103.99 22.04c61.4297 0 115.949 -20.0801 116.1 -95.75c-0.150391 -52.7695 -27.8906 -68.8096 -85.1406 -96.8594
c-27.1299 -13.2197 -41.21 -20.5996 -42.3301 -44.3896h-34.8604c1.16992 43.6602 30.4795 59.0605 62.1895 74.4307c49.7402 23.8398 65.2803 35.2695 65.3701 68.3994c-0.209961 47.3203 -35.3203 61.8701 -81.5605 61.8301zM567.592 450.198
c-14.5098 -10.3301 -33.1904 -15.7793 -54.9004 -15.6895c42.1299 -47.5596 65.8799 -112.649 65.8799 -184.529c0 -146 -98 -264 -249 -264c-150 0 -249 118 -249 264c0 147 99 265 249 264c62.5195 0 115.96 -20.2305 157.11 -54.3008
c23.5996 -3.16016 43.4297 0.910156 57.75 11.3301c24.3799 17.6201 33.1895 51.75 17.9199 100.76l31.3203 9.38965c19.2695 -62.1104 6.37988 -108.12 -26.0801 -130.96zM329.581 21.5791c127.62 0 209.88 99.3809 209.88 228.4s-82.2598 228.399 -209.95 228.399
c-127.24 0.639648 -210.13 -99.0303 -209.81 -228.4c0 -128.68 83.2197 -228.399 209.88 -228.399z" />
    <glyph glyph-name="ohorntilde" unicode="&#x1ee1;" horiz-adv-x="659" 
d="M254.2 666.74c-33.29 0.0498047 -56.3896 -26.1299 -81.04 -62.9102l-26.7998 19.25c24.1797 35.2803 56.3193 79.7002 108.97 79.7002c37.3096 0 67.1895 -21.6299 90.8193 -39.6299c24.5898 -18.4902 45.0801 -30.5498 64.5605 -30.4297
c31.3604 -0.120117 55.1006 30.2295 75.3203 60.6797l26.7598 -19.29c-24.2998 -35.1797 -52.9902 -76.8594 -102.01 -77.1797c-33.71 0 -62.4004 19.2598 -87.29 37.9297c-21.29 16.25 -42.9297 31.9297 -69.29 31.8799zM567.58 450.221
c-14.5098 -10.3301 -33.1885 -15.7783 -54.8984 -15.6787c42.1396 -47.5703 65.8896 -112.66 65.8896 -184.53c0 -146 -98 -264 -249 -264c-150 0 -249 118 -249 264c0 147 99 265 249 264c62.5195 0 115.949 -20.2305 157.109 -54.3008
c23.5996 -3.16992 43.4297 0.910156 57.7393 11.3301c24.3799 17.6201 33.1895 51.75 17.9199 100.76l31.3301 9.37988c19.2598 -62.1104 6.37012 -108.11 -26.0898 -130.96zM329.571 21.6123c127.63 0 209.88 99.3799 209.88 228.399s-82.25 228.39 -209.94 228.39
c-127.25 0.650391 -210.13 -99.0293 -209.82 -228.399c0 -128.68 83.2305 -228.39 209.881 -228.39z" />
    <glyph glyph-name="ohungarumlaut" unicode="&#x151;" horiz-adv-x="659" 
d="M252.61 564.4h-43.2803l127.78 172.6h50.5898zM450.7 564.4h-43.2695l127.77 172.6h50.5898zM329.581 514c151 0 249 -118 249 -264s-98 -264 -249 -264c-150 0 -249 118 -249 264c0 147 99 265 249 264zM329.521 478.39
c-127.25 0.639648 -210.13 -99.0195 -209.82 -228.39c0 -128.68 83.2305 -228.399 209.881 -228.399c127.63 0 209.88 99.3799 209.88 228.399s-82.25 228.39 -209.94 228.39z" />
    <glyph glyph-name="omacron" unicode="&#x14d;" horiz-adv-x="659" 
d="M493.44 612.04h-327.73v35.9199h327.73v-35.9199zM329.58 514c151 0 249 -118 249 -264s-98 -264 -249 -264c-150 0 -249 118 -249 264c0 147 99 265 249 264zM329.51 478.39c-127.24 0.639648 -210.13 -99.0195 -209.81 -228.39
c0 -128.68 83.2197 -228.399 209.88 -228.399c127.62 0 209.88 99.3799 209.88 228.399s-82.2598 228.39 -209.95 228.39z" />
    <glyph glyph-name="oslash" unicode="&#xf8;" horiz-adv-x="659" 
d="M500.67 550l-37.1904 -73.9404c71.9297 -46.21 115.1 -130.09 115.1 -226.06c0 -146 -98 -264 -249 -264c-37.5098 0 -71.8193 7.37012 -102.199 20.7197l-28.54 -56.7305h-40.3604l37.0996 73.75c-72.0996 46.1699 -115 130.15 -115 226.261c0 147 99 265 249 264
c37.4102 0 71.7305 -7.42969 102.141 -20.8701l28.6104 56.8701h40.3398zM119.689 250c0 -82.6504 34.3291 -153.34 92.4395 -193.35l203.47 404.46c-25.5195 11.1699 -54.4092 17.29 -86.0889 17.29c-127.25 0.639648 -210.13 -99.0303 -209.82 -228.4zM329.568 21.6006
c127.62 0 209.89 99.3789 209.89 228.398c0 82.9902 -34.04 153.721 -92.3096 193.621l-203.51 -404.56c25.54 -11.2695 54.3896 -17.46 85.9297 -17.46z" />
    <glyph glyph-name="otilde" unicode="&#xf5;" horiz-adv-x="659" 
d="M255.33 702.77c37.3096 -0.00976562 67.1885 -21.6289 90.8184 -39.6289c24.5801 -18.4902 45.0703 -30.5498 64.5605 -30.4199c31.3496 -0.129883 55.0996 30.2197 75.3096 60.6797l26.7598 -19.29c-24.2998 -35.1797 -52.9795 -76.8701 -102.01 -77.1797
c-33.71 0 -62.3896 19.25 -87.2793 37.9199c-21.2998 16.2598 -42.9395 31.9395 -69.2998 31.8799c-33.2803 0.0595703 -56.3799 -26.1406 -81.0195 -62.9209l-26.7998 19.2598c24.1699 35.2803 56.3096 79.7002 108.96 79.7002zM329.569 514.011c151 0 249 -118 249 -264
s-98 -264 -249 -264c-150 0 -249 118 -249 264c0 147 99 265 249 264zM329.499 478.4c-127.24 0.639648 -210.13 -99.0195 -209.81 -228.39c0 -128.68 83.2197 -228.399 209.88 -228.399c127.62 0 209.88 99.3799 209.88 228.399s-82.2598 228.39 -209.95 228.39z" />
    <glyph glyph-name="oe" unicode="&#x153;" horiz-adv-x="1088" 
d="M329.58 514c115.17 0 198.76 -70.3516 229.359 -168.262c29.7998 98.6104 111.439 169.021 222.68 168.261c152.63 0 228.79 -112.19 232.46 -253.101c0.0703125 -4.05957 0.0400391 -8.10938 -0.0898438 -12.1289h-434.57
c0.0800781 -3.45996 0.219727 -6.91016 0.429688 -10.3301c3.80957 -122.5 83.4893 -216.84 202.64 -216.84c56.6201 0 117.9 19.6104 174.391 59.1104l13.0898 -26.3701c-58.4102 -45.0596 -127.641 -68.3398 -188.36 -68.3398c-111.14 0 -192.729 70.4502 -222.579 168.5
c-30.5498 -98.0498 -114.18 -168.5 -229.449 -168.5c-150 0 -249 118 -249 264c0 147 99 265 249 264zM329.52 478.388c-127.24 0.639648 -210.13 -99.0195 -209.81 -228.39c0 -128.68 83.2197 -228.399 209.88 -228.399c127.62 0 209.88 99.3799 209.88 228.399
s-82.2598 228.39 -209.95 228.39zM782.42 478.398c-113.52 0.610352 -190.9 -84.2998 -201.471 -198.17h393.8c-8.42969 113.85 -71.1094 198.17 -192.329 198.17z" />
    <glyph glyph-name="p" unicode="p" horiz-adv-x="630" 
d="M333.2 514c119.08 -0.00976562 216.691 -101.219 216.831 -263.999c-0.169922 -168.05 -101.41 -264.49 -218.4 -264.021c-67.3604 -0.110352 -138.04 32.4297 -194.84 98.3994v-284.38h-37.1797v700h37.1797v-87c56.3896 67.2803 127.689 101 196.409 101z
M330.191 20.8105c99.0596 0.339844 180.9 80.2207 180.9 229.201c0 146.85 -81.9902 228.399 -180.771 228.399c-63.2002 0 -135.75 -32.9404 -193.53 -107.261v-241.16c59.0098 -75.4404 129.99 -109.41 193.4 -109.18z" />
    <glyph glyph-name="thorn" unicode="&#xfe;" horiz-adv-x="630" 
d="M331.89 514c120.59 0.30957 218.151 -101.229 218.151 -264.01c0 -161.4 -96.1904 -265 -218.841 -264c-66.6104 0 -138.181 33.71 -194.411 100.53v-286.53h-37.1797v900h37.1797v-286.97c56.2803 67.2695 128.48 100.979 195.101 100.979zM331.082 21.6006
c101.11 0 180.148 84.9805 179.839 228.4c0.30957 146.85 -82.1602 228.39 -179.84 228.39c-65.0195 0 -137.119 -33.5098 -194.289 -107.229v-242.8c58.0801 -74.6504 130.04 -106.761 194.29 -106.761z" />
    <glyph glyph-name="q" unicode="q" horiz-adv-x="626" 
d="M524.89 500l0.0107422 -700.011h-37.1797v284.38c-56.7998 -65.9697 -127.479 -98.5098 -194.84 -98.3994c-116.99 -0.469727 -218.23 95.9805 -218.4 264.03c0.139648 162.78 97.75 264 216.83 264c68.7197 0 140.02 -33.71 196.409 -100.99v86.9902h37.1699z
M294.32 20.7988c63.4102 -0.240234 134.392 33.7402 193.401 109.17v241.17c-57.7803 74.3096 -130.33 107.25 -193.521 107.25c-98.7803 0 -180.771 -81.5498 -180.771 -228.399c0 -148.98 81.8301 -228.851 180.89 -229.19z" />
    <glyph glyph-name="r" unicode="r" horiz-adv-x="405" 
d="M357.43 514.67c4.49023 0 8.94922 -0.120117 13.3691 -0.350586l-5.58008 -37.6396c-4.51953 0.30957 -8.96973 0.429688 -13.7002 0.389648c-68.6396 0.25 -139.659 -29.7695 -215.339 -107.859v-369.21h-37.1797v500h37.1797v-93.6504
c76.2803 77.3604 150.42 108.58 221.25 108.32z" />
    <glyph glyph-name="racute" unicode="&#x155;" horiz-adv-x="405" 
d="M214.46 556.17h-43.2803l127.78 172.6h50.5898zM357.43 514.67c4.5 0 8.96094 -0.120117 13.3809 -0.350586l-5.58008 -37.6396c-4.53027 0.30957 -8.98047 0.429688 -13.7109 0.389648c-68.6396 0.25 -139.649 -29.7695 -215.34 -107.859v-369.21h-37.1699v500h37.1699
v-93.6504c76.2803 77.3604 150.42 108.58 221.25 108.32z" />
    <glyph glyph-name="rcaron" unicode="&#x159;" horiz-adv-x="405" 
d="M173.21 564.4l-146.591 172.6h47.0498l121.19 -146.45l121.19 146.45h47.04l-146.6 -172.6h-43.2803zM357.439 514.67c4.49023 0 8.94922 -0.120117 13.3691 -0.350586l-5.58008 -37.6396c-4.51953 0.30957 -8.96973 0.429688 -13.7002 0.389648
c-68.6396 0.25 -139.659 -29.7695 -215.339 -107.859v-369.21h-37.1797v500h37.1797v-93.6504c76.2803 77.3604 150.42 108.58 221.25 108.32z" />
    <glyph glyph-name="rcommaaccent" unicode="&#x157;" horiz-adv-x="405" 
d="M357.43 514.67c4.49023 0 8.94922 -0.120117 13.3691 -0.350586l-5.58008 -37.6396c-4.51953 0.30957 -8.96973 0.429688 -13.7002 0.389648c-68.6396 0.25 -139.659 -29.7695 -215.339 -107.859v-369.21h-37.1797v500h37.1797v-93.6504
c76.2803 77.3604 150.42 108.58 221.25 108.32zM199.119 -87.1904c13.7695 0.0996094 24.79 -9.4502 27.5996 -26.3604c5.26953 -31.5898 -15.7803 -91.46 -44.6406 -129.06l-20.4297 13.1699c16.0303 24.3096 26.3799 52.8994 29.7402 90.4092
c-10.2695 3.11035 -18.7998 12.5908 -18.9297 25.4307c0.129883 14.3896 11.5703 26.5098 26.6602 26.4102z" />
    <glyph glyph-name="s" unicode="s" horiz-adv-x="495" 
d="M245.01 514c63.0498 -0.00976562 135.301 -16.9404 179.82 -60.0107l-19.6396 -26.3799c-38.5303 37.4102 -102.08 52.6699 -159.45 52.6699c-77.7803 0 -146.91 -27.4902 -146.851 -102.391c-0.0595703 -63.4199 49.3301 -77.0996 155.42 -101.79
c86.2402 -20.3096 186.32 -42.9395 186.63 -145.02c0.320312 -95.9102 -88.04 -145.08 -182.76 -145.08c-83.2803 0 -168.83 38.29 -207.89 103.08l21.4902 24.3604c34.4805 -59.3701 110.2 -94.04 185.88 -94.0898c79.4502 0.0498047 145.431 38.7197 145.431 111.04
c0 75.7598 -71.5303 91.2998 -158.681 111.67c-118.08 27.8301 -183.11 50.2197 -183.051 135.08c-0.0595703 101.66 92.1904 136.86 183.65 136.86z" />
    <glyph glyph-name="sacute" unicode="&#x15b;" horiz-adv-x="495" 
d="M263.25 556.16h-43.2803l127.78 172.6h50.5898zM245.01 514c63.0498 -0.00976562 135.301 -16.9404 179.82 -60.0107l-19.6396 -26.3799c-38.5303 37.4102 -102.08 52.6699 -159.45 52.6699c-77.7803 0 -146.91 -27.4902 -146.851 -102.391
c-0.0595703 -63.4199 49.3301 -77.0996 155.42 -101.79c86.2402 -20.3096 186.32 -42.9395 186.63 -145.02c0.320312 -95.9102 -88.04 -145.08 -182.76 -145.08c-83.2803 0 -168.83 38.29 -207.89 103.08l21.4902 24.3604c34.4805 -59.3701 110.2 -94.04 185.88 -94.0898
c79.4502 0.0498047 145.431 38.7197 145.431 111.04c0 75.7598 -71.5303 91.2998 -158.681 111.67c-118.08 27.8301 -183.11 50.2197 -183.051 135.08c-0.0595703 101.66 92.1904 136.86 183.65 136.86z" />
    <glyph glyph-name="scaron" unicode="&#x161;" horiz-adv-x="495" 
d="M222 564.4l-146.591 172.6h47.0498l121.19 -146.45l121.19 146.45h47.04l-146.6 -172.6h-43.2803zM440.949 131.08c0.320312 -95.9102 -88.0488 -145.071 -182.769 -145.071c-83.2803 0 -168.83 38.29 -207.89 103.08l21.4902 24.3604
c34.4805 -59.3701 110.2 -94.04 185.88 -94.0898c79.4502 0.0498047 145.431 38.7197 145.431 111.04c0 75.7598 -71.5303 91.2998 -158.681 111.67c-118.08 27.8301 -183.11 50.2197 -183.051 135.08c-0.0595703 101.66 92.1904 136.86 183.65 136.86
c63.0498 -0.00976562 135.31 -16.9502 179.829 -60.0098l-19.6396 -26.3799c-38.5303 37.4102 -102.08 52.6602 -159.45 52.6602c-77.7803 0 -146.91 -27.4902 -146.851 -102.38c-0.0595703 -63.4199 49.3301 -77.1104 155.42 -101.79
c86.2402 -20.3203 186.32 -42.9502 186.63 -145.03z" />
    <glyph glyph-name="scedilla" unicode="&#x15f;" horiz-adv-x="495" 
d="M258.18 -14c-3.33984 0 -6.70703 0.0585938 -10.0566 0.188477l-17.8398 -42.2695c6.21973 0.509766 12.4297 0.729492 18.7393 0.709961c63.3398 -2.46973 107.71 -37.5898 107.38 -91.8496c0.349609 -56.5098 -48.8506 -99.8096 -124.971 -100.779
c-40.6104 -0.990234 -96.3799 10.46 -128.26 26.7803l13.0195 26.7305c30 -14.2002 76.7197 -23.25 112.22 -22.7305c57.6396 0.669922 89.75 29.8896 89.6797 69.7793c0.0703125 38.7197 -30.0293 63.5898 -78.6396 63.6299c-12.79 0 -30.1299 -2.33008 -43.0596 -5.69043
l-10 20.5898l27.9102 58.4004c-68.0498 10.79 -131.83 46.1904 -164.021 99.6006l21.4902 24.3496c34.4805 -59.3701 110.2 -94.0303 185.88 -94.0801c79.4502 0.0498047 145.431 38.71 145.431 111.04c0 75.75 -71.5303 91.2998 -158.681 111.67
c-118.08 27.8203 -183.11 50.2207 -183.051 135.081c-0.0595703 101.65 92.1904 136.851 183.65 136.86c63.0498 -0.00976562 135.31 -16.9502 179.829 -60.0205l-19.6396 -26.3799c-38.5303 37.4102 -102.08 52.6699 -159.45 52.6699
c-77.7803 0 -146.91 -27.4902 -146.851 -102.391c-0.0595703 -63.4199 49.3301 -77.0996 155.42 -101.79c86.2402 -20.3096 186.32 -42.9395 186.63 -145.02c0.320312 -95.9102 -88.04 -145.08 -182.76 -145.08z" />
    <glyph glyph-name="scommaaccent" unicode="&#x219;" horiz-adv-x="495" 
d="M245.01 514c63.0498 -0.00976562 135.301 -16.9404 179.82 -60.0107l-19.6396 -26.3799c-38.5303 37.4102 -102.08 52.6699 -159.45 52.6699c-77.7803 0 -146.91 -27.4902 -146.851 -102.391c-0.0595703 -63.4199 49.3301 -77.0996 155.42 -101.79
c86.2402 -20.3096 186.32 -42.9395 186.63 -145.02c0.320312 -95.9102 -88.04 -145.08 -182.76 -145.08c-83.2803 0 -168.83 38.29 -207.89 103.08l21.4902 24.3604c34.4805 -59.3701 110.2 -94.04 185.88 -94.0898c79.4502 0.0498047 145.431 38.7197 145.431 111.04
c0 75.7598 -71.5303 91.2998 -158.681 111.67c-118.08 27.8301 -183.11 50.2197 -183.051 135.08c-0.0595703 101.66 92.1904 136.86 183.65 136.86zM242.901 -87.1904c13.7695 0.0996094 24.79 -9.45801 27.6104 -26.3584
c5.25977 -31.5996 -15.7803 -91.46 -44.6406 -129.07l-20.4297 13.1699c16.0303 24.3096 26.3799 52.9092 29.7295 90.4189c-10.2598 3.11035 -18.7998 12.5801 -18.9297 25.4199c0.129883 14.3896 11.5703 26.5195 26.6602 26.4199z" />
    <glyph glyph-name="germandbls" unicode="&#xdf;" horiz-adv-x="716" 
d="M336 750c131 -0.00976562 222.989 -67.0215 235.989 -174.021c11 -90 -50 -111 -166 -144c-40 -11 -66 -21 -63 -66c2 -33 19 -45 115 -70c69 -18 188 -45 188 -157c0 -111 -117 -153 -211 -153c-85 0 -173 34 -208.21 99.7695l33.9902 17.1299
c26.2402 -49.4297 97.5605 -80.6094 174.851 -80.6094c81.7803 0 171.83 35.29 171.83 117.03c0 82.4697 -89.3301 103.33 -158.96 121.65c-100.24 26.4697 -139.87 45.7197 -144.021 102.2c-5.65039 74.1904 51.8398 92.9707 91.4902 103.82
c107.7 30.3604 145.13 43.9502 137.57 107.55c-9.84961 83.4805 -81.5 139.19 -196.59 139.19c-121 0 -198.4 -61.5898 -198.4 -155.95v-557.76h-38.54v557.76c0 116.24 97 192.24 236 192.24z" />
    <glyph glyph-name="t" unicode="t" horiz-adv-x="444" 
d="M376.98 46.5l11.9004 -26.2207c-33.6299 -21.4102 -75.7197 -34.0205 -116.17 -34.2305c-74.6504 -0.389648 -143.721 41.4707 -143.721 148.291v312.93h-99v24.5703l93 6.88965h6v163.27h37.1797v-163.27h199.82v-31.46h-199.82v-312.93
c0 -83.7598 53.2998 -114.93 112.689 -114.609c34.3203 0.179688 69.2207 10.1895 98.1211 26.7695z" />
    <glyph glyph-name="tbar" unicode="&#x167;" horiz-adv-x="444" 
d="M376.98 46.5l11.9004 -26.2217c-33.6299 -21.4102 -75.7197 -34.0205 -116.17 -34.2305c-74.6504 -0.389648 -143.721 41.4707 -143.721 148.291v163.95h-99v31.46h99v117.51h-99v24.5703l93 6.90039h6v163.26h37.1797v-163.26h199.82v-31.4697h-199.82v-117.51h191.55
v-31.46h-191.55v-163.95c0 -83.7598 53.2998 -114.93 112.689 -114.609c34.3203 0.179688 69.2207 10.1895 98.1211 26.7695z" />
    <glyph glyph-name="tcaron" unicode="&#x165;" horiz-adv-x="444" 
d="M340.41 558.57l-20.4189 13.1807c16.0303 24.3096 26.3799 52.8994 29.7402 90.4092c-10.2695 3.11035 -18.8096 12.5908 -18.9395 25.4307c0.129883 14.3896 11.5703 26.5098 26.6602 26.4102c13.7695 0.0996094 24.7891 -9.45996 27.5986 -26.3604
c5.26953 -31.5996 -15.7803 -91.46 -44.6406 -129.07zM376.991 46.5107l11.9004 -26.2207c-33.6299 -21.4102 -75.7197 -34.0205 -116.17 -34.2305c-74.6504 -0.389648 -143.721 41.4707 -143.721 148.291v312.93h-99v24.5703l93 6.88965h6v163.27h37.1797v-163.27h199.82
v-31.46h-199.82v-312.93c0 -83.7598 53.2998 -114.93 112.689 -114.609c34.3203 0.179688 69.2207 10.1895 98.1211 26.7695z" />
    <glyph glyph-name="tcedilla" unicode="&#x163;" horiz-adv-x="444" 
d="M229.64 -55.3701c63.3496 -2.46973 107.71 -37.5898 107.38 -91.8496c0.339844 -56.5098 -48.8604 -99.8096 -124.971 -100.779c-40.6201 -0.990234 -96.3896 10.46 -128.27 26.7803l13.0303 26.7305c29.9902 -14.2002 76.71 -23.25 112.21 -22.7305
c57.6396 0.669922 89.75 29.8896 89.6797 69.7793c0.0703125 38.7197 -30.0293 63.5898 -78.6396 63.6299c-12.79 0 -30.1299 -2.33008 -43.0498 -5.69043l-10 20.5898l33.5898 70.2998c-41.71 20.5098 -71.6104 62.6699 -71.6104 132.95v312.93h-99v24.5703l93 6.88965h6
v163.27h37.1797v-163.27h199.82v-31.46h-199.82v-312.93c0 -83.7598 53.2998 -114.93 112.689 -114.609c34.3203 0.179688 69.2207 10.1895 98.1211 26.7695l11.9102 -26.2305c-33.6396 -21.4004 -75.7295 -34.0205 -116.18 -34.2305
c-14.3799 -0.0703125 -28.5596 1.41992 -42.0693 4.65039l-19.7305 -46.7695c6.20996 0.509766 12.4199 0.729492 18.7295 0.709961z" />
    <glyph glyph-name="uni021B" unicode="&#x21b;" horiz-adv-x="444" 
d="M376.98 46.5l11.9004 -26.2207c-33.6299 -21.4102 -75.7197 -34.0205 -116.17 -34.2305c-74.6504 -0.389648 -143.721 41.4707 -143.721 148.291v312.93h-99v24.5703l93 6.88965h6v163.27h37.1797v-163.27h199.82v-31.46h-199.82v-312.93
c0 -83.7598 53.2998 -114.93 112.689 -114.609c34.3203 0.179688 69.2207 10.1895 98.1211 26.7695zM223.511 -87.1904c13.7695 0.0996094 24.79 -9.45801 27.6104 -26.3584c5.25977 -31.5996 -15.7803 -91.46 -44.6406 -129.07l-20.4297 13.1699
c16.0303 24.3096 26.3799 52.9092 29.7295 90.4189c-10.2598 3.11035 -18.7998 12.5801 -18.9297 25.4199c0.129883 14.3896 11.5703 26.5195 26.6602 26.4199z" />
    <glyph glyph-name="u" unicode="u" horiz-adv-x="601" 
d="M506.6 500v-500.001h-37.1797v85.0996c-64.29 -68.5 -140.58 -99.0996 -205.16 -99.0996c-94.3096 0 -170.25 62.1201 -170.25 188v326h37.1699v-326c0 -100.61 57.7002 -152.71 136.601 -152.71c64.8701 0 139.84 32.1504 201.64 100.431v378.28h37.1797z" />
    <glyph glyph-name="uacute" unicode="&#xfa;" horiz-adv-x="601" 
d="M320.15 556.17h-43.2803l127.78 172.6h50.5898zM506.601 500l0.00195312 -500.001h-37.1699v85.0996c-64.29 -68.5 -140.58 -99.0996 -205.16 -99.0996c-94.3203 0 -170.261 62.1201 -170.261 188v326h37.1797v-326c0 -100.61 57.7002 -152.71 136.59 -152.71
c64.8799 0 139.84 32.1504 201.649 100.431v378.28h37.1699z" />
    <glyph glyph-name="ucaron" unicode="&#x1d4;" horiz-adv-x="601" 
d="M278.9 564.4l-146.591 172.6h47.0498l121.19 -146.45l121.19 146.45h47.04l-146.6 -172.6h-43.2803zM506.609 500v-500.001h-37.1797v85.0996c-64.29 -68.5 -140.58 -99.0996 -205.16 -99.0996c-94.3096 0 -170.25 62.1201 -170.25 188v326h37.1699v-326
c0 -100.61 57.7002 -152.71 136.601 -152.71c64.8701 0 139.84 32.1504 201.64 100.431v378.28h37.1797z" />
    <glyph glyph-name="ucircumflex" unicode="&#xfb;" horiz-adv-x="601" 
d="M179.1 564.4h-47.0586l146.6 172.6h43.2803l146.6 -172.6h-47.04l-121.19 146.45zM506.591 499.99v-499.989h-37.1797v85.0996c-64.29 -68.5 -140.58 -99.0996 -205.16 -99.0996c-94.3096 0 -170.25 62.1104 -170.25 188v326h37.1699v-326
c0 -100.62 57.7002 -152.71 136.601 -152.71c64.8701 0 139.84 32.1396 201.64 100.43v378.27h37.1797z" />
    <glyph glyph-name="udieresis" unicode="&#xfc;" horiz-adv-x="601" 
d="M193.85 608.75c-15.5996 0 -28.2393 12.6504 -28.2393 28.25s12.6396 28.2393 28.2393 28.2393s28.25 -12.6396 28.25 -28.2393s-12.6504 -28.25 -28.25 -28.25zM406.72 608.75c-15.5996 0 -28.2393 12.6504 -28.2393 28.25s12.6396 28.2393 28.2393 28.2393
s28.25 -12.6396 28.25 -28.2393s-12.6504 -28.25 -28.25 -28.25zM506.6 500v-500.001h-37.1797v85.0996c-64.29 -68.5 -140.58 -99.0996 -205.16 -99.0996c-94.3096 0 -170.25 62.1201 -170.25 188v326h37.1699v-326c0 -100.61 57.7002 -152.71 136.601 -152.71
c64.8701 0 139.84 32.1504 201.64 100.431v378.28h37.1797z" />
    <glyph glyph-name="udieresisacute" unicode="&#x1d8;" horiz-adv-x="601" 
d="M320.15 737h-43.2803l127.78 172.6h50.5898zM193.86 608.75c-15.5996 0 -28.25 12.6504 -28.25 28.25s12.6504 28.2393 28.25 28.2393s28.2393 -12.6396 28.2393 -28.2393s-12.6396 -28.25 -28.2393 -28.25zM378.48 637c0 15.5996 12.6504 28.2393 28.25 28.2393
s28.2393 -12.6396 28.2393 -28.2393s-12.6396 -28.25 -28.2393 -28.25s-28.25 12.6504 -28.25 28.25zM506.601 500v-500.001h-37.1797v85.0996c-64.29 -68.5 -140.58 -99.0996 -205.16 -99.0996c-94.3096 0 -170.25 62.1201 -170.25 188v326h37.1699v-326
c0 -100.61 57.7002 -152.71 136.601 -152.71c64.8701 0 139.84 32.1504 201.64 100.431v378.28h37.1797z" />
    <glyph glyph-name="udieresiscaron" unicode="&#x1da;" horiz-adv-x="601" 
d="M278.9 737l-146.591 172.6h47.0498l121.19 -146.45l121.19 146.45h47.04l-146.6 -172.6h-43.2803zM165.619 637c0 15.5996 12.6396 28.2393 28.2393 28.2393s28.25 -12.6396 28.25 -28.2393s-12.6504 -28.25 -28.25 -28.25s-28.2393 12.6504 -28.2393 28.25zM378.489 637
c0 15.5996 12.6396 28.2393 28.2393 28.2393s28.25 -12.6396 28.25 -28.2393s-12.6504 -28.25 -28.25 -28.25s-28.2393 12.6504 -28.2393 28.25zM506.6 500l0.00195312 -500.001h-37.1699v85.0996c-64.29 -68.5 -140.58 -99.0996 -205.16 -99.0996
c-94.3203 0 -170.261 62.1201 -170.261 188v326h37.1797v-326c0 -100.61 57.7002 -152.71 136.59 -152.71c64.8799 0 139.84 32.1504 201.649 100.431v378.28h37.1699z" />
    <glyph glyph-name="udieresisgrave" unicode="&#x1dc;" horiz-adv-x="601" 
d="M279.73 737l-135.079 172.6h50.5898l127.77 -172.6h-43.2803zM165.611 637c0 15.5996 12.6504 28.2393 28.25 28.2393s28.2393 -12.6396 28.2393 -28.2393s-12.6396 -28.25 -28.2393 -28.25s-28.25 12.6504 -28.25 28.25zM406.731 608.75
c-15.5996 0 -28.25 12.6504 -28.25 28.25s12.6504 28.2393 28.25 28.2393s28.2393 -12.6396 28.2393 -28.2393s-12.6396 -28.25 -28.2393 -28.25zM506.602 500l0.00195312 -500.001h-37.1699v85.0996c-64.29 -68.5 -140.58 -99.0996 -205.16 -99.0996
c-94.3203 0 -170.261 62.1201 -170.261 188v326h37.1797v-326c0 -100.61 57.7002 -152.71 136.59 -152.71c64.8799 0 139.84 32.1504 201.649 100.431v378.28h37.1699z" />
    <glyph glyph-name="udieresismacron" unicode="&#x1d6;" horiz-adv-x="601" 
d="M464.15 771.84h-327.73v35.9199h327.73v-35.9199zM165.61 637c0 15.5996 12.6396 28.2393 28.2393 28.2393s28.25 -12.6396 28.25 -28.2393s-12.6504 -28.25 -28.25 -28.25s-28.2393 12.6504 -28.2393 28.25zM378.48 637c0 15.5996 12.6396 28.2393 28.2393 28.2393
s28.25 -12.6396 28.25 -28.2393s-12.6504 -28.25 -28.25 -28.25s-28.2393 12.6504 -28.2393 28.25zM506.591 500l0.00195312 -500.001h-37.1699v85.0996c-64.29 -68.5 -140.58 -99.0996 -205.16 -99.0996c-94.3203 0 -170.261 62.1201 -170.261 188v326h37.1797v-326
c0 -100.61 57.7002 -152.71 136.59 -152.71c64.8799 0 139.84 32.1504 201.649 100.431v378.28h37.1699z" />
    <glyph glyph-name="udotbelow" unicode="&#x1ee5;" horiz-adv-x="601" 
d="M506.6 500v-500.001h-37.1797v85.0996c-64.29 -68.5 -140.58 -99.0996 -205.16 -99.0996c-94.3096 0 -170.25 62.1201 -170.25 188v326h37.1699v-326c0 -100.61 57.7002 -152.71 136.601 -152.71c64.8701 0 139.84 32.1504 201.64 100.431v378.28h37.1797z
M300.08 -97.3105c15.5996 0 28.2393 -12.6396 28.2393 -28.2393s-12.6396 -28.25 -28.2393 -28.25s-28.25 12.6504 -28.25 28.25s12.6504 28.2393 28.25 28.2393z" />
    <glyph glyph-name="ugrave" unicode="&#xf9;" horiz-adv-x="601" 
d="M279.73 564.4l-135.079 172.6h50.5898l127.77 -172.6h-43.2803zM506.602 500l0.00195312 -500.001h-37.1699v85.0996c-64.29 -68.5 -140.58 -99.0996 -205.16 -99.0996c-94.3203 0 -170.261 62.1201 -170.261 188v326h37.1797v-326
c0 -100.61 57.7002 -152.71 136.59 -152.71c64.8799 0 139.84 32.1504 201.649 100.431v378.28h37.1699z" />
    <glyph glyph-name="uhookabove" unicode="&#x1ee7;" horiz-adv-x="601" 
d="M319.62 785.37c-32.2402 -0.0302734 -64.0381 -7.26172 -89.1582 -18.4814l-14.5898 28.7803c30.1396 14.3096 66.6299 22.04 103.99 22.04c61.4297 0 115.939 -20.0801 116.1 -95.75c-0.160156 -52.7695 -27.8906 -68.8096 -85.1504 -96.8594
c-27.1299 -13.2197 -41.2002 -20.5996 -42.3203 -44.3896h-34.8701c1.17969 43.6602 30.4795 59.0605 62.1895 74.4307c49.7402 23.8398 65.29 35.2695 65.3701 68.3994c-0.209961 47.3203 -35.3203 61.8701 -81.5605 61.8301zM506.592 499.979l0.00195312 -499.989
h-37.1699v85.0996c-64.29 -68.5 -140.58 -99.0996 -205.16 -99.0996c-94.3203 0 -170.261 62.1104 -170.261 188v326h37.1797v-326c0 -100.62 57.7002 -152.71 136.59 -152.71c64.8799 0 139.84 32.1396 201.649 100.43v378.27h37.1699z" />
    <glyph glyph-name="uhorn" unicode="&#x1b0;" horiz-adv-x="601" 
d="M566.31 606.06l31.29 9.51074c13.4297 -52.1904 4.68945 -91.8809 -20.0303 -114.591c-16.8096 -15.46 -41.6895 -23.6602 -70.9697 -23.1602v-477.82h-37.1797v85.0996c-64.29 -68.5 -140.58 -99.0996 -205.16 -99.0996c-94.3096 0 -170.25 62.1201 -170.25 188v326
h37.1699v-326c0 -100.61 57.7002 -152.71 136.601 -152.71c64.8701 0 139.84 32.1504 201.64 100.431v378.28h4.91992h20.8496c24.7305 0.150391 44.6504 7.07031 57.6602 20.5c17.5498 17.3701 23.1396 46.54 13.46 85.5596z" />
    <glyph glyph-name="uhornacute" unicode="&#x1ee9;" horiz-adv-x="601" 
d="M320.15 556.17h-43.2803l127.78 172.6h50.5898zM566.311 606.06l31.29 9.50977c13.4297 -52.1904 4.68945 -91.8906 -20.0303 -114.601c-16.8096 -15.46 -41.6895 -23.6602 -70.9697 -23.1602v-477.81h-37.1797v85.0996c-64.29 -68.5 -140.58 -99.0996 -205.16 -99.0996
c-94.3096 0 -170.25 62.1201 -170.25 188v326h37.1699v-326c0 -100.61 57.7002 -152.71 136.601 -152.71c64.8701 0 139.84 32.1504 201.64 100.431v378.28h25.8896c24.6699 0.169922 44.5498 7.08984 57.54 20.5c17.5498 17.3701 23.1396 46.54 13.46 85.5596z" />
    <glyph glyph-name="uhorndotbelow" unicode="&#x1ef1;" horiz-adv-x="601" 
d="M566.31 606.06l31.29 9.50977c13.4297 -52.1904 4.68945 -91.8906 -20.0303 -114.601c-16.8096 -15.46 -41.6895 -23.6602 -70.9697 -23.1602v-477.81h-37.1797v85.0996c-64.29 -68.5 -140.58 -99.0996 -205.16 -99.0996c-94.3096 0 -170.25 62.1201 -170.25 188v326
h37.1699v-326c0 -100.61 57.7002 -152.71 136.601 -152.71c64.8701 0 139.84 32.1504 201.64 100.431v378.28h25.8896c24.6699 0.169922 44.5498 7.08984 57.54 20.5c17.5498 17.3701 23.1396 46.54 13.46 85.5596zM300.08 -97.3008c15.5996 0 28.25 -12.6504 28.25 -28.25
s-12.6504 -28.2393 -28.25 -28.2393s-28.2393 12.6396 -28.2393 28.2393s12.6396 28.25 28.2393 28.25z" />
    <glyph glyph-name="uhorngrave" unicode="&#x1eeb;" horiz-adv-x="601" 
d="M279.73 564.4l-135.079 172.6h50.5898l127.77 -172.6h-43.2803zM566.312 606.07l31.29 9.50195c13.4297 -52.1904 4.68945 -91.8809 -20.0303 -114.591c-16.8096 -15.46 -41.6895 -23.6602 -70.9697 -23.1602v-477.81h-37.1797v85.0996
c-64.29 -68.5 -140.58 -99.0996 -205.16 -99.0996c-94.3096 0 -170.25 62.1104 -170.25 188v326h37.1699v-326c0 -100.62 57.7002 -152.71 136.601 -152.71c64.8701 0 139.84 32.1396 201.64 100.43v378.27h25.8896c24.6699 0.179688 44.5498 7.09961 57.54 20.5098
c17.5498 17.3701 23.1396 46.54 13.46 85.5596z" />
    <glyph glyph-name="uhornhookabove" unicode="&#x1eed;" horiz-adv-x="601" 
d="M319.62 785.38c-32.2402 -0.0195312 -64.0381 -7.27148 -89.1582 -18.4912l-14.5898 28.79c30.1396 14.2998 66.6299 22.0303 103.99 22.0303c61.4297 0 115.939 -20.0801 116.1 -95.75c-0.160156 -52.7598 -27.8906 -68.8096 -85.1504 -96.8594
c-27.1299 -13.21 -41.2002 -20.5996 -42.3203 -44.3896h-34.8701c1.17969 43.6602 30.4795 59.0703 62.1895 74.4307c49.7402 23.8496 65.29 35.2695 65.3701 68.3994c-0.209961 47.3301 -35.3203 61.8701 -81.5605 61.8398zM566.302 606.049l31.293 9.50195
c13.4404 -52.1904 4.7002 -91.8809 -20.0303 -114.591c-16.7998 -15.46 -41.6895 -23.6602 -70.9697 -23.1602v-477.81h-37.1699v85.0996c-64.29 -68.5 -140.58 -99.0996 -205.16 -99.0996c-94.3203 0 -170.261 62.1104 -170.261 188v326h37.1797v-326
c0 -100.62 57.7002 -152.71 136.59 -152.71c64.8799 0 139.84 32.1396 201.649 100.43v378.27h25.8799c24.6797 0.179688 44.5596 7.09961 57.54 20.5098c17.5596 17.3701 23.1494 46.54 13.459 85.5596z" />
    <glyph glyph-name="uhorntilde" unicode="&#x1eef;" horiz-adv-x="601" 
d="M224.91 666.74c-33.29 0.0595703 -56.3896 -26.1299 -81.04 -62.9102l-26.7998 19.2598c24.1797 35.2803 56.3193 79.7002 108.97 79.7002c37.3096 -0.00976562 67.1895 -21.6396 90.8193 -39.6396c24.5898 -18.4902 45.0801 -30.5498 64.5605 -30.4199
c31.3604 -0.129883 55.1006 30.2197 75.3203 60.6797l26.7598 -19.29c-24.2998 -35.1797 -52.9902 -76.8701 -102.01 -77.1797c-33.71 0 -62.4004 19.25 -87.29 37.9199c-21.29 16.2598 -42.9297 31.9395 -69.29 31.8799zM566.29 606.081l31.293 9.50195
c13.4404 -52.1904 4.7002 -91.8809 -20.0303 -114.591c-16.7998 -15.46 -41.6895 -23.6602 -70.9697 -23.1602v-477.81h-37.1699v85.0996c-64.29 -68.5 -140.58 -99.0996 -205.16 -99.0996c-94.3203 0 -170.261 62.1104 -170.261 188v326h37.1797v-326
c0 -100.62 57.7002 -152.71 136.59 -152.71c64.8799 0 139.84 32.1396 201.649 100.43v378.27h25.8799c24.6797 0.179688 44.5596 7.09961 57.54 20.5098c17.5596 17.3701 23.1494 46.54 13.459 85.5596z" />
    <glyph glyph-name="uhungarumlaut" unicode="&#x171;" horiz-adv-x="601" 
d="M223.32 564.4h-43.2695l127.77 172.6h50.5898zM421.421 564.4h-43.2803l127.78 172.6h50.5898zM469.431 499.99l37.1797 0.0107422v-500h-37.1797v85.0996c-64.29 -68.5 -140.58 -99.0996 -205.16 -99.0996c-94.3096 0 -170.25 62.1104 -170.25 188v326h37.1699v-326
c0 -100.62 57.7002 -152.71 136.601 -152.71c64.8701 0 139.84 32.1396 201.64 100.43v378.27z" />
    <glyph glyph-name="umacron" unicode="&#x16b;" horiz-adv-x="601" 
d="M464.15 612.04h-327.73v35.9199h327.73v-35.9199zM506.59 500l0.00195312 -500.001h-37.1699v85.0996c-64.29 -68.5 -140.58 -99.0996 -205.16 -99.0996c-94.3203 0 -170.261 62.1201 -170.261 188v326h37.1797v-326c0 -100.61 57.7002 -152.71 136.59 -152.71
c64.8799 0 139.84 32.1504 201.649 100.431v378.28h37.1699z" />
    <glyph glyph-name="uogonek" unicode="&#x173;" horiz-adv-x="601" 
d="M582.15 -152.78l10.2324 -28.1123c-24.0303 -15.3799 -60.8105 -24.3799 -92.2705 -24.46c-57.8701 0.0800781 -115.811 30.6504 -115.971 93.8408c0.150391 44.7305 29.7002 80.3408 85.29 117.491v79.1201c-64.29 -68.5 -140.58 -99.0996 -205.16 -99.0996
c-94.3203 0 -170.261 62.1104 -170.261 188v326h37.1797v-326c0 -100.62 57.7002 -152.71 136.59 -152.71c64.8799 0 139.84 32.1396 201.649 100.43v378.27h37.1699v-500h-6.92969c-49.7998 -33.5996 -77.46 -64.0498 -77.5596 -102.68
c0.110352 -47.6201 41.1201 -69.4199 85.7998 -69.3301c25.25 -0.0898438 54.7305 6.87012 74.2402 19.2402z" />
    <glyph glyph-name="uring" unicode="&#x16f;" horiz-adv-x="601" 
d="M300.29 548.07c-75.0996 0 -124.659 53.71 -124.659 120.16c0 66.9004 49.5596 120.61 124.659 120.15c75.5996 0 124.659 -53.7002 124.659 -120.15s-49.0596 -120.16 -124.659 -120.16zM300.06 758.91c-54.0703 0.330078 -91.0195 -38.4697 -91.0195 -90.6895
c0 -51.7598 36.8496 -90.6797 91.25 -90.6797c54.7998 0 91.25 38.8398 91.25 90.6895c0 51.8398 -36.4502 90.6797 -91.4805 90.6797zM506.601 499.99v-500.001h-37.1797v85.0996c-64.29 -68.5 -140.58 -99.0996 -205.16 -99.0996c-94.3096 0 -170.25 62.1201 -170.25 188
v326h37.1699v-326c0 -100.61 57.7002 -152.71 136.601 -152.71c64.8701 0 139.84 32.1504 201.64 100.431v378.28h37.1797z" />
    <glyph glyph-name="utilde" unicode="&#x169;" horiz-adv-x="601" 
d="M224.91 666.74c-33.29 0.0498047 -56.3896 -26.1299 -81.04 -62.9102l-26.7998 19.25c24.1797 35.2803 56.3193 79.7002 108.97 79.7002c37.3096 0 67.1895 -21.6299 90.8193 -39.6299c24.5898 -18.4902 45.0801 -30.5498 64.5605 -30.4297
c31.3604 -0.120117 55.1006 30.2295 75.3203 60.6797l26.7598 -19.29c-24.2998 -35.1797 -52.9902 -76.8594 -102.01 -77.1797c-33.71 0 -62.4004 19.2598 -87.29 37.9297c-21.29 16.25 -42.9297 31.9297 -69.29 31.8799zM506.591 500.011v-500.001h-37.1797v85.0996
c-64.29 -68.5 -140.58 -99.0996 -205.16 -99.0996c-94.3096 0 -170.25 62.1201 -170.25 188v326h37.1699v-326c0 -100.61 57.7002 -152.71 136.601 -152.71c64.8701 0 139.84 32.1504 201.64 100.431v378.28h37.1797z" />
    <glyph glyph-name="v" unicode="v" horiz-adv-x="528" 
d="M493.82 500l-209.511 -500h-41.0703l-209.51 500h39.9502l190.24 -460.19l189.94 460.19h39.96z" />
    <glyph glyph-name="w" unicode="w" horiz-adv-x="791" 
d="M582.58 0h-45.2773l-141.57 459.49l-141.57 -459.49h-45.2598l-175.19 500h39.8096l157.77 -456.5l140.49 456.5h47.9199l140.49 -456.5l157.77 456.5h39.8096z" />
    <glyph glyph-name="wacute" unicode="&#x1e83;" horiz-adv-x="791" 
d="M415.66 556.17h-43.2695l127.77 172.6h50.5898zM582.581 -0h-45.2773l-141.57 459.49l-141.57 -459.49h-45.2598l-175.19 500h39.8096l157.77 -456.5l140.49 456.5h47.9199l140.49 -456.5l157.77 456.5h39.8096z" />
    <glyph glyph-name="wcircumflex" unicode="&#x175;" horiz-adv-x="791" 
d="M274.61 564.4h-47.0488l146.6 172.6h43.2803l146.6 -172.6h-47.0498l-121.19 146.45zM757.762 500l-175.208 -500h-45.2598l-141.57 459.49l-141.57 -459.49h-45.2598l-175.19 500h39.8096l157.77 -456.5l140.49 456.5h47.9199l140.49 -456.5l157.77 456.5h39.8096z" />
    <glyph glyph-name="wdieresis" unicode="&#x1e85;" horiz-adv-x="791" 
d="M289.37 665.24c15.5996 0 28.2393 -12.6396 28.2393 -28.2393s-12.6396 -28.25 -28.2393 -28.25s-28.25 12.6504 -28.25 28.25s12.6504 28.2393 28.25 28.2393zM502.24 665.24c15.5996 0 28.2393 -12.6396 28.2393 -28.2393s-12.6396 -28.25 -28.2393 -28.25
s-28.25 12.6504 -28.25 28.25s12.6504 28.2393 28.25 28.2393zM582.57 0h-45.2695l-141.57 459.49l-141.57 -459.49h-45.2598l-175.2 500h39.8096l157.78 -456.5l140.48 456.5h47.9297l140.48 -456.5l157.78 456.5h39.8096z" />
    <glyph glyph-name="wgrave" unicode="&#x1e81;" horiz-adv-x="791" 
d="M418.53 564.4h-43.2803l-135.09 172.6h50.5898zM582.58 0h-45.2695l-141.57 459.49l-141.57 -459.49h-45.2598l-175.2 500h39.8096l157.78 -456.5l140.48 456.5h47.9297l140.48 -456.5l157.78 456.5h39.8096z" />
    </font>
</defs>
</svg>
